<svg xmlns="http://www.w3.org/2000/svg" viewBox="0 0 50 50"><defs><style>.cls-1{fill:#fdc62d;}.cls-2{fill:#fff;}</style></defs><title>Icons</title><rect class="cls-1" x="10.31" y="15.16" width="5.62" height="8.72" rx="1.15"/><rect class="cls-1" x="34.15" y="15.16" width="5.62" height="8.72" rx="1.15"/><path class="cls-2" d="M46.48,6.76h-12V2.89A2.17,2.17,0,0,0,32.34.72H17.65a2.17,2.17,0,0,0-2.17,2.17V6.74h-12A3.54,3.54,0,0,0,0,10.26v9a.49.49,0,0,0,.49.5H2.56v26a3.52,3.52,0,0,0,2,3.16,3.45,3.45,0,0,0,1.52.34H43.93a3.45,3.45,0,0,0,1.52-.34,3.52,3.52,0,0,0,2-3.16v-26h2.07a.49.49,0,0,0,.49-.5v-9A3.54,3.54,0,0,0,46.48,6.76Zm-30-3.87A1.18,1.18,0,0,1,17.65,1.7H32.32a1.19,1.19,0,0,1,1.19,1.19V6.74h-17ZM49,18.81H42a.5.5,0,0,0,0,1h4.46v26a2.51,2.51,0,0,1-2.14,2.5,2.43,2.43,0,0,1-.38,0H6.05l-.39,0a2.54,2.54,0,0,1-2.14-2.5v-26H8a.5.5,0,1,0,0-1H1V10.26A2.52,2.52,0,0,1,3.51,7.73h43A2.52,2.52,0,0,1,49,10.26Z"/><path class="cls-2" d="M32.14,18.81H18a.5.5,0,1,0,0,1H32.13a.5.5,0,1,0,0-1Z"/><path class="cls-2" d="M38.42,14.43H35.69a2.17,2.17,0,0,0-2.17,2.17V22a2.17,2.17,0,0,0,2.17,2.17h2.73A2.17,2.17,0,0,0,40.59,22V16.6A2.17,2.17,0,0,0,38.42,14.43ZM39.61,22a1.2,1.2,0,0,1-1.19,1.19H35.69A1.19,1.19,0,0,1,34.51,22V16.61a1.19,1.19,0,0,1,1.18-1.19h2.73a1.2,1.2,0,0,1,1.19,1.19Z"/><path class="cls-2" d="M38.42,14.29H35.69a2.31,2.31,0,0,0-2.31,2.31V22a2.32,2.32,0,0,0,2.31,2.31h2.73A2.31,2.31,0,0,0,40.73,22V16.6A2.3,2.3,0,0,0,38.42,14.29ZM40.66,22a2.24,2.24,0,0,1-2.24,2.24H35.69A2.24,2.24,0,0,1,33.45,22V16.6a2.24,2.24,0,0,1,2.24-2.24h2.73a2.24,2.24,0,0,1,2.24,2.24Z"/><path class="cls-2" d="M38.42,14.36H35.69a2.24,2.24,0,0,0-2.24,2.24V22a2.24,2.24,0,0,0,2.24,2.24h2.73A2.24,2.24,0,0,0,40.66,22V16.6A2.24,2.24,0,0,0,38.42,14.36ZM40.59,22a2.17,2.17,0,0,1-2.17,2.17H35.69A2.17,2.17,0,0,1,33.52,22V16.6a2.17,2.17,0,0,1,2.17-2.17h2.73a2.17,2.17,0,0,1,2.17,2.17Z"/><path class="cls-2" d="M14.29,14.43H11.56A2.17,2.17,0,0,0,9.39,16.6V22a2.17,2.17,0,0,0,2.17,2.17h2.73A2.17,2.17,0,0,0,16.46,22V16.6a2.17,2.17,0,0,0-2.17-2.17ZM15.48,22a1.19,1.19,0,0,1-1.18,1.19H11.57A1.19,1.19,0,0,1,10.38,22V16.61a1.19,1.19,0,0,1,1.19-1.19H14.3a1.19,1.19,0,0,1,1.18,1.19Z"/></svg>
