<svg xmlns="http://www.w3.org/2000/svg" viewBox="0 0 50 50"><defs><style>.cls-1{fill:#fff;}.cls-2{fill:#fdc62d;}</style></defs><title>Icons</title><path class="cls-1" d="M0,24.9l13,13a.77.77,0,0,0,1,0,.79.79,0,0,0,.1-1L2.19,24.9,14.1,13a.78.78,0,0,0,0-1,.8.8,0,0,0-1.05-.1Q6.5,18.4,0,24.9Z"/><path class="cls-1" d="M50,24.9l-13,13a.77.77,0,0,1-1,0,.79.79,0,0,1-.1-1L47.81,24.9,35.9,13a.78.78,0,0,1,0-1,.8.8,0,0,1,1.05-.1Q43.5,18.4,50,24.9Z"/><path class="cls-2" d="M20.34,42.23a.68.68,0,0,0,1.28.35Q26.9,24.34,32.17,6.08a.68.68,0,0,0-1.28-.35Q25.63,24,20.34,42.23Z"/><path class="cls-1" d="M19,43a.68.68,0,0,0,.36.65.72.72,0,0,0,.91-.3q5.28-18.25,10.55-36.5a.72.72,0,0,0-.42-.69.7.7,0,0,0-.86.34Q24.3,24.72,19,43Z"/></svg>
