<svg xmlns="http://www.w3.org/2000/svg" viewBox="0 0 50 50"><path d="M0 24.9l13 13a.77.77 0 0 0 1 0 .79.79 0 0 0 .1-1l-11.91-12L14.1 13a.78.78 0 0 0 0-1 .8.8 0 0 0-1.05-.1Q6.5 18.4 0 24.9zm50 0l-13 13a.77.77 0 0 1-1 0 .79.79 0 0 1-.1-1l11.91-12L35.9 13a.78.78 0 0 1 0-1 .8.8 0 0 1 1.05-.1q6.55 6.5 13.05 13z" fill="#fff"/><path d="M20.34 42.23a.68.68 0 0 0 1.28.35q5.28-18.24 10.55-36.5a.68.68 0 0 0-1.28-.35Q25.63 24 20.34 42.23z" fill="#fdc62d"/><path d="M19 43a.68.68 0 0 0 .36.65.72.72 0 0 0 .91-.3q5.28-18.25 10.55-36.5a.72.72 0 0 0-.42-.69.7.7 0 0 0-.86.34Q24.3 24.72 19 43z" fill="#fff"/></svg>