<svg xmlns="http://www.w3.org/2000/svg" viewBox="0 0 20 20"><defs><style>.cls-1{fill:#5d7992;}</style></defs><title>Icons</title><path class="cls-1" d="M10,.11a10,10,0,1,0,10,10,10,10,0,0,0-10-10m8.65,13.51-2.85.49a14.71,14.71,0,0,0,.53-3.66h3a9.08,9.08,0,0,1-.67,3.17m-18-3.17h3a14.71,14.71,0,0,0,.53,3.66l-2.85-.49a9.33,9.33,0,0,1-.68-3.17m.68-3.84L4.2,6.12a14.58,14.58,0,0,0-.53,3.66h-3a9.33,9.33,0,0,1,.68-3.17m9-1.14a22.58,22.58,0,0,1,3.58.32L15.08,6a14.25,14.25,0,0,1,.58,3.78H10.33ZM14,5.14a24,24,0,0,0-3.69-.34V.8c1.91.18,3.57,1.93,4.52,4.48ZM9.67,4.8A24,24,0,0,0,6,5.14l-.83.14C6.1,2.73,7.76,1,9.67.8Zm-3.58,1a22.58,22.58,0,0,1,3.58-.32V9.78H4.34A14.25,14.25,0,0,1,4.92,6ZM4.34,10.45H9.67v4.31a22.58,22.58,0,0,1-3.58-.32l-1.17-.21a14.25,14.25,0,0,1-.58-3.78M6,15.09a24,24,0,0,0,3.69.34v4C7.76,19.25,6.1,17.5,5.15,15Zm4.35.34A24,24,0,0,0,14,15.09l.83-.14c-.95,2.55-2.61,4.3-4.52,4.48Zm3.58-1a22.58,22.58,0,0,1-3.58.32V10.45h5.33a14.25,14.25,0,0,1-.58,3.78Zm2.42-4.66a14.58,14.58,0,0,0-.53-3.66l2.85.49a9.08,9.08,0,0,1,.67,3.17Zm2-3.9-2.72-.47a9.13,9.13,0,0,0-2.66-4.15,9.34,9.34,0,0,1,5.38,4.62M7.07,1.26A9.13,9.13,0,0,0,4.41,5.41l-2.72.47A9.34,9.34,0,0,1,7.07,1.26M1.69,14.35l2.72.47A9.13,9.13,0,0,0,7.07,19a9.34,9.34,0,0,1-5.38-4.62M12.93,19a9.13,9.13,0,0,0,2.66-4.15l2.72-.47A9.34,9.34,0,0,1,12.93,19"/></svg>
