<svg xmlns="http://www.w3.org/2000/svg" viewBox="0 0 20 20"><path d="M10 .11a10 10 0 1 0 10 10 10 10 0 0 0-10-10m8.65 13.51l-2.85.49a14.71 14.71 0 0 0 .53-3.66h3a9.08 9.08 0 0 1-.67 3.17m-18-3.17h3a14.71 14.71 0 0 0 .53 3.66l-2.85-.49a9.33 9.33 0 0 1-.68-3.17m.68-3.84l2.86-.49a14.58 14.58 0 0 0-.53 3.66h-3a9.33 9.33 0 0 1 .68-3.17m9-1.14a22.58 22.58 0 0 1 3.58.32l1.15.21a14.25 14.25 0 0 1 .58 3.78h-5.33zM14 5.14a24 24 0 0 0-3.69-.34v-4c1.91.18 3.57 1.93 4.52 4.48zM9.67 4.8A24 24 0 0 0 6 5.14l-.83.14C6.1 2.73 7.76 1 9.67.8zm-3.58 1a22.58 22.58 0 0 1 3.58-.32v4.3H4.34A14.25 14.25 0 0 1 4.92 6zm-1.75 4.65h5.33v4.31a22.58 22.58 0 0 1-3.58-.32l-1.17-.21a14.25 14.25 0 0 1-.58-3.78M6 15.09a24 24 0 0 0 3.69.34v4C7.76 19.25 6.1 17.5 5.15 15zm4.35.34a24 24 0 0 0 3.65-.34l.83-.14c-.95 2.55-2.61 4.3-4.52 4.48zm3.58-1a22.58 22.58 0 0 1-3.58.32v-4.3h5.33a14.25 14.25 0 0 1-.58 3.78zm2.42-4.66a14.58 14.58 0 0 0-.53-3.66l2.85.49a9.08 9.08 0 0 1 .67 3.17zm2-3.9l-2.72-.47a9.13 9.13 0 0 0-2.66-4.15 9.34 9.34 0 0 1 5.38 4.62M7.07 1.26a9.13 9.13 0 0 0-2.66 4.15l-2.72.47a9.34 9.34 0 0 1 5.38-4.62M1.69 14.35l2.72.47A9.13 9.13 0 0 0 7.07 19a9.34 9.34 0 0 1-5.38-4.62M12.93 19a9.13 9.13 0 0 0 2.66-4.15l2.72-.47A9.34 9.34 0 0 1 12.93 19" fill="#5d7992"/></svg>