<svg xmlns="http://www.w3.org/2000/svg" viewBox="0 0 40 40"><defs><style>.cls-1{fill:#fdc62d;}</style></defs><title>Icons</title><path class="cls-1" d="M20.22,0a20,20,0,1,0,20,20A20,20,0,0,0,20.22,0Zm5.4,27.34L25.56,31a.58.58,0,0,1-.59.58H21.39A.59.59,0,0,1,20.8,31V27.34h0V26.16a2.32,2.32,0,0,0-2.35-2.3H17.17a2.33,2.33,0,0,0-2.36,2.3h0V31a.59.59,0,0,1-.6.58H10.62A.59.59,0,0,1,10,31V9.31a.59.59,0,0,1,.6-.58h3.57a.59.59,0,0,1,.6.58V19.54a7.21,7.21,0,0,1,2.38-.4h1.21a2.33,2.33,0,0,0,2.35-2.3l.08-1.18a.59.59,0,0,1,.58-.48H25a.6.6,0,0,1,.59.48h0v1.18a6.85,6.85,0,0,1-1.8,4.63,6.93,6.93,0,0,1,1.85,4.7Zm4.1-13.72-.87.86a1.18,1.18,0,0,1-1.64,0l-.14-.14a1.1,1.1,0,0,1,0-1.59l.81-.8.06,0a.3.3,0,0,1,.43,0l.11.11a.31.31,0,0,1,0,.42l-.88.85a.36.36,0,0,0,0,.52l.15.15a.39.39,0,0,0,.53,0l.88-.86a.31.31,0,0,1,.43,0l.11.11A.28.28,0,0,1,29.72,13.62Zm0-3.5-.11.11a.32.32,0,0,1-.43,0l-.87-.86a.4.4,0,0,0-.54,0l-.15.14a.39.39,0,0,0,0,.53l.88.85a.29.29,0,0,1,0,.42l-.11.11a.3.3,0,0,1-.42,0l-.88-.85a1.11,1.11,0,0,1,0-1.6l.14-.14a1.17,1.17,0,0,1,1.63,0l.82.8,0,0A.29.29,0,0,1,29.72,10.12Zm3.11,4.22-.14.14a1.16,1.16,0,0,1-1.63,0l-.82-.8-.06-.05a.31.31,0,0,1,0-.42l.12-.1a.3.3,0,0,1,.43,0l.87.85a.38.38,0,0,0,.54,0l.14-.14a.38.38,0,0,0,0-.53l-.88-.85a.29.29,0,0,1,0-.42l.11-.11a.3.3,0,0,1,.42,0l.88.86A1.11,1.11,0,0,1,32.83,14.34Zm0-3.76-.82.8-.06.06a.32.32,0,0,1-.43,0l-.11-.11a.31.31,0,0,1,0-.42l.88-.86a.36.36,0,0,0,0-.52l-.14-.14a.38.38,0,0,0-.54,0l-.88.85a.3.3,0,0,1-.43,0l-.11-.1a.3.3,0,0,1,0-.42l.87-.86a1.18,1.18,0,0,1,1.64,0l.14.14A1.11,1.11,0,0,1,32.84,10.58Z"/></svg>
