<svg xmlns="http://www.w3.org/2000/svg" viewBox="0 0 50 50"><defs><style>.cls-1{fill:#fdc62d;}.cls-2{fill:none;}.cls-3{fill:#fff;}</style></defs><title>Icons</title><ellipse class="cls-1" cx="25.03" cy="38.18" rx="6.27" ry="9.74"/><rect class="cls-1" x="19.3" y="42.27" width="12.01" height="6.53"/><path class="cls-2" d="M25,29.53a5,5,0,0,0-5,5V48.18H30V34.53A5,5,0,0,0,25,29.53Z"/><path class="cls-3" d="M49.66,22.79,25-.1.35,22.79a.69.69,0,0,0,0,1,.68.68,0,0,0,1,0l3.17-2.93v29H45.56v-29l3.17,2.93a.7.7,0,0,0,1,0,.67.67,0,0,0,.18-.47A.77.77,0,0,0,49.66,22.79ZM30.36,48.54H19.64v-14a5.36,5.36,0,0,1,10.72,0Zm13.83,0H31.74v-14a6.74,6.74,0,0,0-13.47,0v14H5.82V19.59l0-.05L25,1.77l.12.11,19.07,17.7Z"/></svg>
