<svg xmlns="http://www.w3.org/2000/svg" viewBox="0 0 50 50"><ellipse cx="25.03" cy="38.18" rx="6.27" ry="9.74" fill="#fdc62d"/><path fill="#fdc62d" d="M19.3 42.27h12.01v6.53H19.3z"/><path d="M25 29.53a5 5 0 0 0-5 5v13.65h10V34.53a5 5 0 0 0-5-5z" fill="none"/><path d="M49.66 22.79L25-.1.35 22.79a.69.69 0 0 0 0 1 .68.68 0 0 0 1 0l3.17-2.93v29h41.04v-29l3.17 2.93a.7.7 0 0 0 1 0 .67.67 0 0 0 .18-.47.77.77 0 0 0-.25-.53zm-19.3 25.75H19.64v-14a5.36 5.36 0 0 1 10.72 0zm13.83 0H31.74v-14a6.74 6.74 0 0 0-13.47 0v14H5.82v-29L25 1.77l.12.11 19.07 17.7z" fill="#fff"/></svg>