<svg xmlns="http://www.w3.org/2000/svg" viewBox="0 0 20 20"><path d="M18.52 14c-1.3-1-2.3-1.46-3.14-1.33a3.59 3.59 0 0 0-1.89 1.27l-.21.21c-.33.34-1.1 0-1.69-.43a19.45 19.45 0 0 1-2.83-2.43C5.33 7.82 5.7 6.92 5.89 6.72l.21-.21a3.59 3.59 0 0 0 1.27-1.89c.14-.84-.29-1.84-1.37-3.14A3.29 3.29 0 0 0 3.72 0h-.07A4.05 4.05 0 0 0 1 1.66l-.15.17C.75 1.9.69 2 .62 2c-.83.83-.83 2.64 0 4.84a22 22 0 0 0 5.08 7.42 22.05 22.05 0 0 0 7.42 5.08 8.61 8.61 0 0 0 2.95.63 2.59 2.59 0 0 0 1.93-.59c.1-.1.21-.21.33-.31l.05-.05c.8-.76 1.7-1.61 1.65-2.75A3.33 3.33 0 0 0 18.52 14zM3.65.68h.05a2.77 2.77 0 0 1 1.81 1.23C6.4 3 6.77 3.81 6.7 4.45A2.88 2.88 0 0 1 5.62 6l-.21.22c-.41.49-.41 1.2.08 2.14a17.17 17.17 0 0 0 2.78 3.37 19.75 19.75 0 0 0 3 2.52c1.16.75 2 .86 2.53.34l.22-.22a3 3 0 0 1 1.58-1.07c.64-.07 1.42.29 2.54 1.19a2.77 2.77 0 0 1 1.23 1.82c0 .82-.75 1.56-1.43 2.21l-.06.06-.34.32c-.6.61-2.26.55-4.12-.16a21.33 21.33 0 0 1-7.18-4.92 21.35 21.35 0 0 1-4.98-7.19C.54 4.74.48 3.13 1.1 2.51l.38-.39C2.12 1.45 2.84.68 3.65.68z" fill="#5d7992"/></svg>