<svg xmlns="http://www.w3.org/2000/svg" viewBox="0 0 75 75"><g data-name="Capa 1" fill="#5d7992"><path d="M45.73 55.35c1.63-.54 2.63-2.11 3.58-3.63a9.07 9.07 0 0 1 2.06-2.62 9.92 9.92 0 0 1 3.18-1.18c1.72-.44 3.51-.9 4.53-2.27s.88-3.19.76-5a9.71 9.71 0 0 1 .16-3.38 9 9 0 0 1 1.83-2.72c1.17-1.39 2.35-2.83 2.35-4.55s-1.2-3.2-2.36-4.6A9.21 9.21 0 0 1 60 22.65a10.28 10.28 0 0 1-.15-3.42c.12-1.77.24-3.6-.76-5s-2.8-1.79-4.54-2.23a9.64 9.64 0 0 1-3.18-1.19 9.5 9.5 0 0 1-2.06-2.62c-1-1.52-2-3.11-3.58-3.63a3.9 3.9 0 0 0-1.19-.19 10.65 10.65 0 0 0-3.72 1 9.9 9.9 0 0 1-3.36.93 9.9 9.9 0 0 1-3.36-.93 10.71 10.71 0 0 0-3.72-1 3.85 3.85 0 0 0-1.19.19c-1.64.54-2.63 2.11-3.58 3.63a8.93 8.93 0 0 1-2.06 2.62A9.78 9.78 0 0 1 20.37 12c-1.72.42-3.52.86-4.51 2.25s-.88 3.19-.76 5a9.76 9.76 0 0 1-.16 3.42 9 9 0 0 1-1.82 2.72c-1.17 1.39-2.37 2.82-2.37 4.58s1.2 3.2 2.37 4.6a9 9 0 0 1 1.82 2.72 10.26 10.26 0 0 1 .16 3.42c-.12 1.77-.24 3.6.76 5s2.79 1.83 4.53 2.27a9.58 9.58 0 0 1 3.17 1.18 9.67 9.67 0 0 1 2.07 2.62c1 1.52 1.94 3.11 3.58 3.64a3.79 3.79 0 0 0 1.18.18 10.57 10.57 0 0 0 3.72-1 10 10 0 0 1 3.37-.93 9.9 9.9 0 0 1 3.36.93 10.57 10.57 0 0 0 3.72 1 3.85 3.85 0 0 0 1.17-.25zm-8.27-3.09a10.62 10.62 0 0 0-3.85 1 9.6 9.6 0 0 1-3.22.9 2.33 2.33 0 0 1-.76-.12c-1.18-.39-2-1.69-2.85-3.06a10.29 10.29 0 0 0-2.42-3 10.73 10.73 0 0 0-3.63-1.4c-1.58-.39-3.05-.78-3.77-1.76s-.61-2.49-.51-4.09a10.92 10.92 0 0 0-.22-3.93 10.16 10.16 0 0 0-2.08-3.17C13.1 32.4 12.1 31.22 12.1 30s1-2.47 2.05-3.72a10.21 10.21 0 0 0 2.08-3.18 10.85 10.85 0 0 0 .22-3.92c-.1-1.61-.2-3.13.51-4.09s2.19-1.35 3.77-1.76a10.18 10.18 0 0 0 3.63-1.4 10.53 10.53 0 0 0 2.42-3c.86-1.39 1.69-2.69 2.85-3.06a2.13 2.13 0 0 1 .76-.12 9.8 9.8 0 0 1 3.22.89 10.69 10.69 0 0 0 3.85 1 10.69 10.69 0 0 0 3.85-1 9.82 9.82 0 0 1 3.21-.89 2.11 2.11 0 0 1 .77.12c1.18.39 2 1.69 2.85 3.06a10.42 10.42 0 0 0 2.42 3 10.94 10.94 0 0 0 3.63 1.4c1.58.39 3.05.78 3.77 1.76s.61 2.48.51 4.09a10.85 10.85 0 0 0 .22 3.92 10 10 0 0 0 2.08 3.18c1 1.27 2 2.45 2 3.72s-1 2.47-2 3.72a10 10 0 0 0-2.08 3.17 10.92 10.92 0 0 0-.22 3.93c.1 1.6.2 3.12-.51 4.09s-2.19 1.35-3.77 1.76A10 10 0 0 0 50.56 48a10.26 10.26 0 0 0-2.42 3c-.86 1.39-1.69 2.69-2.85 3.06a2.39 2.39 0 0 1-.77.12 9.61 9.61 0 0 1-3.21-.9 10.37 10.37 0 0 0-3.85-1.02z"/><path d="M54.68 30a17.22 17.22 0 1 0-17.2 17.22A17.24 17.24 0 0 0 54.68 30zM37.46 45.8a15.87 15.87 0 1 1 15.87-15.87A15.88 15.88 0 0 1 37.46 45.8zm-6.15 11.14L15.05 70l-.39-12.24a.15.15 0 0 0 0-.09v-.18a.32.32 0 0 0-.06-.07l-.08-.07-.1-.05h-.08L2.76 54.83 16 48.49a.67.67 0 0 0 .32-.89.68.68 0 0 0-.89-.33L.36 54.49H.24l-.05.05v.07c0 .07 0 0 0 0v.06c0 .01 0 0 0 0L0 55v.19a.22.22 0 0 0 0 .08v.08s.05.05.06.09h.18l12.81 2.6.42 13.07a.15.15 0 0 0 0 .09v.07c0 .02 0 0 0 0l.07.07a.05.05 0 0 0 .05 0h.42a.18.18 0 0 0 .1 0h.2c.07 0 0 0 0 0L32.17 58a.67.67 0 0 0 .1-1 .68.68 0 0 0-.96-.06zM75 55.08a.11.11 0 0 0 0-.08.16.16 0 0 0 0-.09v-.06c0-.01 0 0 0 0a.22.22 0 0 1-.06-.07h-.07L59.5 47.29a.65.65 0 0 0-.89.32.66.66 0 0 0 .32.9l13.23 6.34-11.34 2.3h-.19c-.07 0 0 0 0 0a.19.19 0 0 0-.07.06l-.06.07-.05.09v.13L59.89 70l-16.6-13.45a.68.68 0 0 0-.95.11.67.67 0 0 0 .11.94l17.64 14.29h.74l.07-.07v-.18l.42-13.07 12.81-2.6h.2a.13.13 0 0 0 .06-.07.52.52 0 0 0 .12-.17v-.12a.16.16 0 0 1 0-.09s.49-.42.49-.44z"/></g><path d="M60.78 26.23a10 10 0 0 1-2.08-3.18 10.64 10.64 0 0 1-.22-3.92c.1-1.61.2-3.13-.51-4.09s-2.2-1.37-3.77-1.76a10.94 10.94 0 0 1-3.63-1.4 10.42 10.42 0 0 1-2.42-3c-.86-1.37-1.67-2.67-2.86-3.06a2 2 0 0 0-.76-.12 9.82 9.82 0 0 0-3.21.89 10.69 10.69 0 0 1-3.85 1 10.79 10.79 0 0 1-3.86-1 9.69 9.69 0 0 0-3.21-.89 2.13 2.13 0 0 0-.76.12c-1.16.37-2 1.67-2.86 3.06a10.33 10.33 0 0 1-2.41 3 10.16 10.16 0 0 1-3.64 1.4c-1.57.41-3.06.78-3.77 1.76s-.6 2.48-.5 4.09a10.85 10.85 0 0 1-.22 3.92 10.21 10.21 0 0 1-2.08 3.18c-1.05 1.25-2.05 2.45-2.05 3.72s1 2.45 2.05 3.72a10.16 10.16 0 0 1 2.08 3.17 10.92 10.92 0 0 1 .22 3.93c-.1 1.6-.21 3.12.5 4.09s2.2 1.37 3.77 1.76A10.7 10.7 0 0 1 24.37 48a10.1 10.1 0 0 1 2.41 3c.87 1.37 1.68 2.67 2.86 3.06a2.29 2.29 0 0 0 .76.12 9.49 9.49 0 0 0 3.21-.9 10.67 10.67 0 0 1 3.86-1 10.37 10.37 0 0 1 3.85 1 9.61 9.61 0 0 0 3.21.9 2.33 2.33 0 0 0 .76-.12c1.17-.37 2-1.67 2.86-3.06a10.1 10.1 0 0 1 2.42-3 10 10 0 0 1 3.63-1.4c1.57-.41 3.06-.78 3.77-1.76s.61-2.49.51-4.09a10.7 10.7 0 0 1 .22-3.93 10 10 0 0 1 2.08-3.17c1-1.25 2-2.45 2-3.72s-.95-2.43-2-3.7zm-23.3 20.94A17.23 17.23 0 1 1 54.68 30a17.24 17.24 0 0 1-17.2 17.17z" fill="#fdc62d"/></svg>