<svg xmlns="http://www.w3.org/2000/svg" viewBox="0 0 75 75"><path fill="#fdc62d" d="M24.94 56.67l-7-6.35 2.93-3.5-1.91-2.36 2.19-1.98 11.1 11.12.28.63-1.83 1.34-2.42-1.97-3.34 3.07zM57.26 6.94l3.59-1.48 9.32-.98.44 1.23-.44 6.53-1.45 5.11-4.49-1.15-3.15-2.81-2.07-2.52-1.47-2.74-.28-1.19z"/><g data-name="Capa 1" fill="#5d7992"><path d="M71 4.48v-.1a.28.28 0 0 1-.07-.09l-.08-.08h-.18a42.19 42.19 0 0 0-11.39 1.17h-.11a.33.33 0 0 1-.13 0h-.37c-.09 0-.21 0-.3.08l-.17.05-.37.1a1 1 0 0 0-.28.08A49.55 49.55 0 0 0 31.8 23.71l-.12.14h-.19a22.18 22.18 0 0 0-12.32 1.95C12.57 28.91 7.47 35.28 4 44.69a.48.48 0 0 0 .18.56.55.55 0 0 0 .61 0c1.77-1.38 11-8.22 18.1-6.13l.34.1-.13.32c-.34.87-.66 1.75-.94 2.49l-.17.49-.73-.73a.49.49 0 0 0-.69 0L18.38 44a.48.48 0 0 0-.14.34.47.47 0 0 0 .14.33l2 2-3.09 3.09a.49.49 0 0 0 0 .69l7.26 7.27a.53.53 0 0 0 .34.14.44.44 0 0 0 .32-.13l3.09-3.09 2 2a.46.46 0 0 0 .33.15.53.53 0 0 0 .33-.13l2.21-2.2a.48.48 0 0 0 0-.68l-.7-.78.49-.18c.75-.28 1.64-.6 2.49-.94l.32-.12.1.33c1 3.21.21 7.23-2.2 12a38.62 38.62 0 0 1-4 6.2.49.49 0 0 0 0 .58.49.49 0 0 0 .4.21.76.76 0 0 0 .16 0C39.67 67.51 46 62.4 49.17 55.8a22.14 22.14 0 0 0 1.95-12.32v-.19l.14-.12a49.39 49.39 0 0 0 17.81-25.71A40.58 40.58 0 0 0 71 4.5zM6.45 42.84l-.9.61.44-1c3.31-7.74 7.9-13.06 13.65-15.78a20.82 20.82 0 0 1 10.85-2h.57l-.33.45a64.36 64.36 0 0 0-7 12.82l-.12.28-.27-.08c-5.95-1.79-13.14 2.17-16.89 4.7zm18.49 13.83l-6.59-6.59 2.74-2.73 6.59 6.58zm5.76-1.1L19.46 44.33 21 42.8l11.25 11.28zm17.67-.16c-2.74 5.74-8 10.32-15.78 13.64l-1 .44.61-.92c2.53-3.74 6.51-10.89 4.63-16.89l-.09-.28.28-.11a63.88 63.88 0 0 0 12.82-7l.45-.32v.56a20.85 20.85 0 0 1-1.92 10.88zM68 18.1a48.61 48.61 0 0 1-17.65 24.62 63.9 63.9 0 0 1-14.43 8c-1.14.47-2.45 1-4 1.47l-.2.06-8.95-8.95.06-.19c.55-1.56 1-2.84 1.47-4a63.06 63.06 0 0 1 8-14.42A48.9 48.9 0 0 1 56.92 7.06l.34-.12.08.36a13.5 13.5 0 0 0 10.4 10.4l.34.08zm2.12-12.7l-.06.08v.88a1.23 1.23 0 0 1 0 .26.62.62 0 0 1 0 .18V7a.81.81 0 0 1 0 .16v.24a.53.53 0 0 1 0 .16v.98a.62.62 0 0 1 0 .18.49.49 0 0 1 0 .11v.16a.47.47 0 0 1 0 .16l-.09.82a.56.56 0 0 1 0 .1v.74a1.33 1.33 0 0 1 0 .21v.07a2 2 0 0 1 0 .24 1.25 1.25 0 0 0 0 .19.2.2 0 0 1 0 .1v.06a1.33 1.33 0 0 1 0 .21.9.9 0 0 0 0 .16.56.56 0 0 1 0 .1v.06l-.1.57v.24a2.21 2.21 0 0 0 0 .25v.1l-.1.45a1 1 0 0 1 0 .11 1.55 1.55 0 0 0 0 .23 1.19 1.19 0 0 1-.07.27v.08l-.07.26c0 .09 0 .19-.06.29a.12.12 0 0 0 0 .07v.06a2.09 2.09 0 0 1 0 .21 2.44 2.44 0 0 1-.06.26c0 .2-.09.41-.16.62l-.08.27-.29-.07a12.46 12.46 0 0 1-9.79-9.79l-.06-.3.3-.07a1 1 0 0 0 .29-.08l.32-.08.26-.06.27-.07h.05a43.81 43.81 0 0 1 9.92-1.29h.32v.66z"/><path d="M48.74 19.79a6.49 6.49 0 1 0 6.49 6.49 6.5 6.5 0 0 0-6.49-6.49zm0 12a5.52 5.52 0 1 1 5.52-5.52 5.53 5.53 0 0 1-5.52 5.55zM18.75 56.27a.46.46 0 0 0-.33-.15.45.45 0 0 0-.34.15l-9.47 9.46a.5.5 0 0 0 0 .7.53.53 0 0 0 .34.14.44.44 0 0 0 .32-.13l9.48-9.49a.45.45 0 0 0 .15-.34.56.56 0 0 0-.17-.33zm3.31 3.47a.45.45 0 0 0-.34.15l-6.2 6.2a.47.47 0 0 0 0 .69.46.46 0 0 0 .66 0l6.22-6.21a.4.4 0 0 0 .14-.33.47.47 0 0 0-.14-.35.54.54 0 0 0-.34-.15zm7.02.76a.48.48 0 0 0-.34-.14.45.45 0 0 0-.34.14L21.91 67a.49.49 0 0 0 0 .69.5.5 0 0 0 .34.15.44.44 0 0 0 .32-.13l6.49-6.49a.44.44 0 0 0 .16-.35.63.63 0 0 0-.16-.34zM8 53.13l6.51-6.49a.5.5 0 0 0 0-.7.53.53 0 0 0-.34-.14.49.49 0 0 0-.34.14l-6.48 6.49a.5.5 0 0 0 0 .7.53.53 0 0 0 .34.14.47.47 0 0 0 .31-.14zm7.13.17a.49.49 0 0 0 0-.69.47.47 0 0 0-.34-.14.45.45 0 0 0-.34.14l-6.19 6.2a.47.47 0 0 0 0 .69.42.42 0 0 0 .32.15.69.69 0 0 0 .42-.15z"/></g></svg>