<svg xmlns="http://www.w3.org/2000/svg" viewBox="0 0 75 75"><defs><style>.cls-1{fill:#fdc62d;}.cls-2{fill:#5d7992;}</style></defs><title>Icons</title><polygon class="cls-1" points="24.94 56.67 17.94 50.32 20.87 46.82 18.96 44.46 21.15 42.48 32.25 53.6 32.53 54.23 30.7 55.57 28.28 53.6 24.94 56.67"/><polygon class="cls-1" points="57.26 6.94 60.85 5.46 70.17 4.48 70.61 5.71 70.17 12.24 68.72 17.35 64.23 16.2 61.08 13.39 59.01 10.87 57.54 8.13 57.26 6.94"/><g id="Capa_1-2" data-name="Capa 1"><path class="cls-2" d="M71,4.48v0l0,0h0v-.1s0,0,0,0,0,0,0,0h0a.28.28,0,0,1-.07-.09l-.08-.08a0,0,0,0,1,0,0h-.08s0,0,0,0,0,0,0,0h-.1A42.19,42.19,0,0,0,59.28,5.38l-.11,0a.33.33,0,0,1-.13,0l-.14,0-.13,0h-.1c-.09,0-.21,0-.3.08l0,0-.17.05-.37.1a1,1,0,0,0-.28.08A49.55,49.55,0,0,0,31.8,23.71l-.12.14-.19,0a22.18,22.18,0,0,0-12.32,1.95C12.57,28.91,7.47,35.28,4,44.69a.48.48,0,0,0,.18.56.55.55,0,0,0,.61,0l0,0c1.77-1.38,11-8.22,18.1-6.13l.34.1-.13.32c-.34.87-.66,1.75-.94,2.49l-.17.49-.73-.73a.49.49,0,0,0-.69,0L18.38,44a.48.48,0,0,0-.14.34.47.47,0,0,0,.14.33l2,2-3.09,3.09a.49.49,0,0,0,0,.69l7.26,7.27a.53.53,0,0,0,.34.14.44.44,0,0,0,.32-.13h0l3.09-3.09,2,2a.46.46,0,0,0,.33.15.53.53,0,0,0,.33-.13v0l2.21-2.2a.48.48,0,0,0,0-.68L32.47,53l.49-.18c.75-.28,1.64-.6,2.49-.94l.32-.12.1.33c1,3.21.21,7.23-2.2,12a38.62,38.62,0,0,1-4,6.2.49.49,0,0,0,0,.58.49.49,0,0,0,.4.21.76.76,0,0,0,.16,0C39.67,67.51,46,62.4,49.17,55.8a22.14,22.14,0,0,0,1.95-12.32l0-.19.14-.12A49.39,49.39,0,0,0,69.07,17.46,40.58,40.58,0,0,0,71,4.5ZM6.45,42.84l-.9.61.44-1c3.31-7.74,7.9-13.06,13.65-15.78a20.82,20.82,0,0,1,10.85-2l.57,0-.33.45a64.36,64.36,0,0,0-7,12.82l-.12.28-.27-.08C17.39,36.35,10.2,40.31,6.45,42.84ZM24.94,56.67l-6.59-6.59,2.74-2.73,6.59,6.58Zm5.76-1.1L19.46,44.33,21,42.8,32.25,54.08Zm17.67-.16c-2.74,5.74-8,10.32-15.78,13.64l-1,.44.61-.92c2.53-3.74,6.51-10.89,4.63-16.89l-.09-.28.28-.11a63.88,63.88,0,0,0,12.82-7l.45-.32,0,.56A20.85,20.85,0,0,1,48.37,55.41ZM68,18.1A48.61,48.61,0,0,1,50.35,42.72h0a63.9,63.9,0,0,1-14.43,8c-1.14.47-2.45,1-4,1.47l-.2.06-8.95-8.95.06-.19c.55-1.56,1-2.84,1.47-4a63.06,63.06,0,0,1,8-14.42A48.9,48.9,0,0,1,56.92,7.06l.34-.12.08.36a13.5,13.5,0,0,0,10.4,10.4l.34.08ZM70.12,5.4l-.06.08v.88a1.23,1.23,0,0,1,0,.26v0a.62.62,0,0,1,0,.18V7a.81.81,0,0,1,0,.16V7.4a.53.53,0,0,1,0,.16V7.8s0,.09,0,.16,0,.13,0,.18v.09s0,.1,0,.15,0,.11,0,.16a.62.62,0,0,1,0,.18.49.49,0,0,1,0,.11c0,.05,0,.11,0,.16a.47.47,0,0,1,0,.16l-.09.82a.56.56,0,0,1,0,.1v.06c0,.1,0,.21,0,.32s0,.07,0,.1v0c0,.08,0,.18,0,.26a1.33,1.33,0,0,1,0,.21v.07a2,2,0,0,1,0,.24,1.25,1.25,0,0,0,0,.19.2.2,0,0,1,0,.1v.06a1.33,1.33,0,0,1,0,.21.9.9,0,0,0,0,.16.56.56,0,0,1,0,.1v.06l-.1.57,0,.24a2.21,2.21,0,0,0,0,.25l0,0h0s0,.07,0,.1l-.1.45v0a1,1,0,0,1,0,.11,1.55,1.55,0,0,0,0,.23,1.19,1.19,0,0,1-.07.27v.08l-.07.26c0,.09,0,.19-.06.29h0a.12.12,0,0,0,0,.07v.06a2.09,2.09,0,0,1,0,.21,2.44,2.44,0,0,1-.06.26l0,0s0,0,0,0v0l0,0c0,.2-.09.41-.16.62l-.08.27-.29-.07a12.46,12.46,0,0,1-9.79-9.79l-.06-.3.3-.07a1,1,0,0,0,.29-.08l.32-.08h0a.06.06,0,0,0,0,0l.26-.06.27-.07h.05a.06.06,0,0,0,0,0,43.81,43.81,0,0,1,9.92-1.29h.32V5.4Z"/><path class="cls-2" d="M48.74,19.79a6.49,6.49,0,1,0,6.49,6.49A6.5,6.5,0,0,0,48.74,19.79Zm0,12a5.52,5.52,0,1,1,5.52-5.52A5.53,5.53,0,0,1,48.74,31.82Z"/><path class="cls-2" d="M18.75,56.27a.46.46,0,0,0-.33-.15.45.45,0,0,0-.34.15L8.61,65.73a.5.5,0,0,0,0,.7.53.53,0,0,0,.34.14.44.44,0,0,0,.32-.13h0l9.48-9.49a.45.45,0,0,0,.15-.34.56.56,0,0,0-.17-.33Z"/><path class="cls-2" d="M22.06,59.74a.45.45,0,0,0-.34.15l-6.2,6.2a.47.47,0,0,0,0,.69.46.46,0,0,0,.66,0v0l6.22-6.21a.4.4,0,0,0,.14-.33.47.47,0,0,0-.14-.35A.54.54,0,0,0,22.06,59.74Z"/><path class="cls-2" d="M29.08,60.5a.48.48,0,0,0-.34-.14.45.45,0,0,0-.34.14L21.91,67a.49.49,0,0,0,0,.69.5.5,0,0,0,.34.15.44.44,0,0,0,.32-.13l0,0,6.49-6.49a.44.44,0,0,0,.16-.35.63.63,0,0,0-.16-.34Z"/><path class="cls-2" d="M8,53.13l6.51-6.49a.5.5,0,0,0,0-.7.53.53,0,0,0-.34-.14.49.49,0,0,0-.34.14L7.35,52.43a.5.5,0,0,0,0,.7.53.53,0,0,0,.34.14A.47.47,0,0,0,8,53.13Z"/><path class="cls-2" d="M15.13,53.3a.49.49,0,0,0,0-.69.47.47,0,0,0-.34-.14.45.45,0,0,0-.34.14l-6.19,6.2a.47.47,0,0,0,0,.69.42.42,0,0,0,.32.15A.69.69,0,0,0,9,59.5Z"/></g></svg>
