<svg xmlns="http://www.w3.org/2000/svg" viewBox="0 0 50 50"><path d="M18.26 8.72l-5.07.17-4.45 2.47-1.1 4.81-.22 3.76-.53 1.45V25l1.27 1.49 1.49 3.39 1.43 1.83-.18 3.72-4.15 2.81-4.63 3.35s-.91 2.22-1 2.22-.4 3.58-.4 3.58l12.16.22v-2.07l.12-2.41.71-2.25 2.61-2.24 3.24-1.51 1.84-1.19-.4-1.19-.42-1.39.17-2.23 2-1.92.91-1.89.1-1.11-1-3.25-.45-.57-.67-.74-.08-1-.12-1.39.12-2.7.41-1.62.34-1.59-.13-2.87-.94-.94zm27.81 30.45L38 35.12A3.53 3.53 0 0 1 36 32v-3.39l.11-.13a11.09 11.09 0 0 0 .74-.94 18.39 18.39 0 0 0 2.45-4.94l.06-.21-.07.22a18.24 18.24 0 0 1-2.45 4.94 11.09 11.09 0 0 1-.74.94l-.11.13V32a3.55 3.55 0 0 0 2 3.17l8.08 4a6.3 6.3 0 0 1 3.5 5.66V47v-2.16a6.3 6.3 0 0 0-3.5-5.67zm-7.3-33.61a6.34 6.34 0 0 1 1.48 4.55v5.19l.15.13a2 2 0 0 1 .68 1.57v3.39a2.06 2.06 0 0 1-1 1.72 2.05 2.05 0 0 0 1-1.74v-3.43a2.07 2.07 0 0 0-.69-1.53l-.15-.13v-5.19a6.33 6.33 0 0 0-1.44-4.55C37.31 3.86 34.82 3 31.4 3a12.41 12.41 0 0 0-5.34 1 12.43 12.43 0 0 1 5.31-1c3.43 0 5.92.88 7.4 2.56z" fill="#fff"/><path d="M21.5 35.38a2.31 2.31 0 0 0 .67.65 2.56 2.56 0 0 1-.67-.64zm-.07-24.96l.17.12v4.36l-.1.11a3 3 0 0 0-.75 2v3.39a3 3 0 0 0 .08.66.84.84 0 0 0 0 .12.69.69 0 0 1 .05.13.56.56 0 0 1 0 .12c0 .08.06.17.09.24a3.17 3.17 0 0 0 .83 1l.09.08v.13l.16.56.07.22v.17c0 .06.05.13.07.2l.16.45v.2c.08.19.14.36.21.51v.12l.05.11v.06a.3.3 0 0 1 0 .08l.23.51v.11l.09.17v.07l.27.48a2.53 2.53 0 0 1 .13.22l.08.13a13 13 0 0 1-2.68 4.2l-.11.12.11-.12a13 13 0 0 0 2.68-4.2s0-.08-.07-.12-.09-.14-.13-.22a5.46 5.46 0 0 1-.27-.48v-.07l-.09-.17v-.05c-.07-.18-.16-.36-.23-.51v-.14l-.05-.11v-.12c-.07-.15-.13-.32-.21-.51a8791577004293 8791577004293 0 0 1-.08-.2c-.06-.15-.11-.3-.16-.45a1.18 1.18 0 0 1-.07-.2V23.73l-.07-.22-.16-.56v-.13l-.09-.08a3 3 0 0 1-.83-1 1.34 1.34 0 0 1-.09-.24.56.56 0 0 1 0-.12s0-.09-.05-.13v-.12a3 3 0 0 1-.08-.66V17a3 3 0 0 1 .75-2l.1-.11v-4.36l-.17-.12A9.25 9.25 0 0 0 16.15 9a10.05 10.05 0 0 0-3.54.57A10.12 10.12 0 0 1 16.12 9a9.15 9.15 0 0 1 5.31 1.42zM21 35.67l-.24.13a3 3 0 0 1-.5-1.67v-2.87 2.88a3.06 3.06 0 0 0 .5 1.67L16 38.34a7.26 7.26 0 0 0-3.77 6.36V47v-2.3A7.24 7.24 0 0 1 16 38.34l4.64-2.53.24-.14zm2.88-10.28a1.73 1.73 0 0 1-.25.21l-.15.09.14-.09c.09-.06.17-.14.26-.21z" fill="#fff"/><path d="M16 38.34l4.64-2.53a3.06 3.06 0 0 1-.5-1.67v-2.88l.14-.13a11.82 11.82 0 0 0 2.95-4.87v-.11l-.23-.54a.3.3 0 0 0 0-.08v-.06l-.05-.11v-.12c-.07-.15-.13-.32-.21-.51v-.2l-.16-.45c0-.07-.05-.14-.07-.2V23.71l-.07-.22-.44-.56v-.13l-.09-.08a3.17 3.17 0 0 1-.83-1c0-.07-.06-.16-.09-.24a.56.56 0 0 0 0-.12.69.69 0 0 0-.05-.13.84.84 0 0 1 0-.12 3 3 0 0 1-.08-.66V17a3 3 0 0 1 .75-2l.1-.11v-4.35l-.17-.12A9.15 9.15 0 0 0 16.12 9a10.12 10.12 0 0 0-3.51.56 6.82 6.82 0 0 0-4.47 5.74v4.4l-.14.13a1.83 1.83 0 0 0-.7 1.29v2.93a1.74 1.74 0 0 0 .81 1.46l.14.1v.17A11.7 11.7 0 0 0 11.34 31l.14.13V34a3.14 3.14 0 0 1-1.63 2.74l-5.64 3.57a5.44 5.44 0 0 0-2.86 4.77V47h10.92v-2.3A7.26 7.26 0 0 1 16 38.34z" fill="#fdc62d"/><path d="M25.89 31.89v-3.25l-.12-.14-.13-.18-.17-.21c-.16-.22-.31-.44-.46-.67l-.27-.43-.38-.67v.12a9.59 9.59 0 0 1-.31.95c.09.16.18.3.27.44a.21.21 0 0 1 0 .06v.05c.19.28.35.53.51.75l.11.14.05.06.01.09v2.92a2.67 2.67 0 0 1-1.37 2.33l-2.12 1.15a2.56 2.56 0 0 0 .67.64l1.87-1a3.55 3.55 0 0 0 1.84-3.15z" fill="#fff"/><path d="M24.67 26.89l.27.43c.15.23.3.45.46.67l.17.21.13.18.12.14v3.25A3.55 3.55 0 0 1 24.05 35l-1.87 1 1.88-1a3.54 3.54 0 0 0 1.84-3.11v-3.25l-.12-.14-.13-.18a2.62 2.62 0 0 0-.17-.21c-.16-.22-.31-.44-.46-.67l-.27-.43-.38-.67z" fill="#fff"/><path d="M23.63 34.21l-2.13 1.16 2.12-1.15A2.67 2.67 0 0 0 25 31.9a2.64 2.64 0 0 1-1.37 2.31z" fill="#fff"/><path d="M46.45 38.38l-8.09-4A2.62 2.62 0 0 1 36.91 32v-3l.08-.11c.19-.23.39-.5.6-.78A18.55 18.55 0 0 0 40 23.26l.06-.15.16-.07a3 3 0 0 0 1.78-2.7V17a3 3 0 0 0-.74-2l-.1-.11v-4.7A7.13 7.13 0 0 0 39.48 5c-1.66-1.89-4.39-2.86-8.09-2.86S25 3.08 23.3 5a6.94 6.94 0 0 0-1.64 3.85l-.06.57-.52-.26a10.47 10.47 0 0 0-4.92-1.08c-8.31 0-8.9 7-8.92 7.23v4l-.11.1a2.59 2.59 0 0 0-.74 1.71V24a2.62 2.62 0 0 0 1 2l.1.08v.12a12.61 12.61 0 0 0 3 5.15l.11.12V34a2.23 2.23 0 0 1-1.19 2l-5.67 3.52a6.33 6.33 0 0 0-3.29 5.55v2.82h50v-3a7.22 7.22 0 0 0-4-6.51zM49.57 47H13.19v-2.31a6.35 6.35 0 0 1 3.31-5.56l4.79-2.62a3 3 0 0 1-.59-.69l-4.64 2.53a7.24 7.24 0 0 0-3.77 6.36V47h-11v-1.92a5.44 5.44 0 0 1 2.86-4.77l5.64-3.54A3.14 3.14 0 0 0 11.45 34v-2.84l-.14-.16a11.5 11.5 0 0 1-3.06-5.24v-.17l-.14-.1a1.73 1.73 0 0 1-.81-1.46v-2.9a1.83 1.83 0 0 1 .7-1.29l.15-.13v-4.39a6.84 6.84 0 0 1 4.5-5.79 10.05 10.05 0 0 1 3.5-.53 9.25 9.25 0 0 1 5.31 1.46l.17.12v4.36l-.1.11a3 3 0 0 0-.75 2v3.39a3 3 0 0 0 .08.66v.12s0 .09.05.13a.56.56 0 0 0 0 .12 1.34 1.34 0 0 0 .09.24 3 3 0 0 0 .83 1l.09.08v.13l.16.56.07.22v.17a1.18 1.18 0 0 0 .07.2c.05.15.1.3.16.45a8791577004293 8791577004293 0 0 0 .08.2c.08.19.14.36.21.51v.12l.05.11v.14c.07.15.16.33.23.51v.05a2.11 2.11 0 0 0 .09-.36v-.18l.15-.09a1.73 1.73 0 0 0 .25-.21c0-.1-.09-.19-.13-.29v-.1c0-.11-.09-.22-.14-.34l-.07-.17c0-.1-.09-.19-.13-.31s-.15-.47-.24-.74l-.05-.17c-.1-.32-.17-.59-.23-.84v-.18l-.15-.1a2.07 2.07 0 0 1-1-1.75V17a2.07 2.07 0 0 1 .69-1.54l.15-.14V9.9A6.15 6.15 0 0 1 24 5.58 6.41 6.41 0 0 1 26.06 4a12.41 12.41 0 0 1 5.34-1c3.42 0 5.91.85 7.4 2.53a6.33 6.33 0 0 1 1.48 4.55v5.19l.15.13a2.07 2.07 0 0 1 .69 1.53v3.39a2.05 2.05 0 0 1-1 1.74 1.87 1.87 0 0 1-.53.26l-.2.06-.06.21a18.39 18.39 0 0 1-2.45 4.94 11.09 11.09 0 0 1-.74.94l-.11.13V32a3.53 3.53 0 0 0 2 3.17l8.08 4.05a6.3 6.3 0 0 1 3.5 5.67z" fill="#fff"/><path d="M39.4 22.38l.2-.06a1.87 1.87 0 0 0 .53-.26 1.92 1.92 0 0 1-.5.24zM16.5 39.13l4.8-2.62-4.8 2.61a6.35 6.35 0 0 0-3.31 5.56 6.35 6.35 0 0 1 3.31-5.55zm7.27-14.05l-.05-.1a3.45 3.45 0 0 1-.14-.34l-.07-.17-.13-.31c-.08-.23-.16-.47-.24-.74l-.05-.17c-.1-.31-.17-.58-.23-.84v-.18l-.15-.1a2 2 0 0 1-1-1.75V17a2.07 2.07 0 0 1 .69-1.54l.15-.14V9.88A6.2 6.2 0 0 1 24 5.56 6.23 6.23 0 0 1 26.06 4 6.41 6.41 0 0 0 24 5.58a6.15 6.15 0 0 0-1.51 4.32v5.37l-.15.14a2.07 2.07 0 0 0-.67 1.59v3.39a2.07 2.07 0 0 0 1 1.75l.15.1v.18c.06.25.13.52.23.84l.05.17c.09.27.16.52.24.74s.09.21.13.31l.07.17c.05.12.1.23.14.34v.1c0 .1.09.19.13.29.04-.11 0-.2-.04-.3zM4.21 40.31l5.64-3.54A3.14 3.14 0 0 0 11.48 34v-2.85l-.14-.15a11.7 11.7 0 0 1-3.06-5.24v-.17l-.14-.1a1.74 1.74 0 0 1-.81-1.46v-2.91A1.83 1.83 0 0 1 8 19.83l.15-.13v-4.39a6.82 6.82 0 0 1 4.47-5.78 6.84 6.84 0 0 0-4.5 5.79v4.39l-.12.13a1.83 1.83 0 0 0-.7 1.29v2.93a1.73 1.73 0 0 0 .81 1.46l.14.1v.17A11.5 11.5 0 0 0 11.31 31l.14.13V34a3.14 3.14 0 0 1-1.63 2.74l-5.64 3.57a5.44 5.44 0 0 0-2.86 4.77V47v-1.92a5.44 5.44 0 0 1 2.89-4.77zm16.9-6.18v-2.47l.11-.12a13 13 0 0 0 2.68-4.2l-.08-.13a2.53 2.53 0 0 0-.13-.22l-.27-.48v-.07l-.09-.17a11.73 11.73 0 0 1-2.95 4.87l-.14.13v2.87a3 3 0 0 0 .5 1.67l.24-.13.09-.19h.24l.21-.12a2.26 2.26 0 0 1-.38-1.24z" fill="#fff"/><path d="M21.11 34.13a2.26 2.26 0 0 0 .38 1.24 2.2 2.2 0 0 1-.38-1.24zm2.19-7.87a11.82 11.82 0 0 1-2.95 4.87 11.73 11.73 0 0 0 2.95-4.87z" fill="#fff"/><path d="M22.17 36a2.31 2.31 0 0 1-.67-.65l-.21.12h-.24l-.09.18-.24.14a3 3 0 0 0 .59.69zm0 .03l-.87.47v.01l.87-.48zm-.67-.65v.01-.01z" fill="#fff"/><path fill="#fff" d="M20.95 35.66l.09-.18-.09.19v-.01zm2.46-9.23v.07a5.46 5.46 0 0 0 .27.48c0 .08.09.15.13.22s.05.09.07.12a9.21 9.21 0 0 0 .31-.93v-.13h.05l-.19-.37-.05-.12v-.07a2.2 2.2 0 0 1-.15-.31c-.09.07-.17.15-.27.22l-.14.09v.17c0 .13-.07.26-.1.38z"/><path d="M24 25.77l.07.07.19.37c-.07-.12-.13-.25-.19-.37l-.07-.07v-.07l-.16-.32a2.2 2.2 0 0 0 .15.31zm.22.61v-.12h-.05v.13a9.21 9.21 0 0 1-.31.93 9.59 9.59 0 0 0 .36-.94zm.07-.16h.01v-.01l-.01.01zm-.86-.35v-.17.18a2.11 2.11 0 0 1-.09.36c.02-.11.06-.24.09-.37z" fill="#fff"/></svg>