<svg xmlns="http://www.w3.org/2000/svg" viewBox="0 0 50 50"><defs><style>.cls-1{fill:#fff;}.cls-2{fill:#fdc62d;}</style></defs><title>Icons</title><path class="cls-1" d="M18.26,8.72l-5.07.17L8.74,11.36l-1.1,4.81-.22,3.76-.53,1.45V25l1.27,1.49,1.49,3.39,1.43,1.83-.18,3.72L6.75,38.24,2.12,41.59s-.91,2.22-1,2.22-.4,3.58-.4,3.58l12.16.22V45.54L13,43.13l.71-2.25,2.61-2.24,3.24-1.51,1.84-1.19L21,34.75l-.42-1.39.17-2.23,2-1.92.91-1.89.1-1.11-1-3.25-.45-.57-.67-.74-.08-1-.12-1.39.12-2.7.41-1.62.34-1.59-.13-2.87-.94-.94Z"/><path class="cls-1" d="M46.07,39.17,38,35.12A3.53,3.53,0,0,1,36,32V28.61l.11-.13a11.09,11.09,0,0,0,.74-.94,18.39,18.39,0,0,0,2.45-4.94l.06-.21h0l-.07.22a18.24,18.24,0,0,1-2.45,4.94,11.09,11.09,0,0,1-.74.94l-.11.13V32a3.55,3.55,0,0,0,2,3.17l8.08,4a6.3,6.3,0,0,1,3.5,5.66V47h0V44.84A6.3,6.3,0,0,0,46.07,39.17Z"/><path class="cls-1" d="M38.77,5.56a6.34,6.34,0,0,1,1.48,4.55V15.3l.15.13A2,2,0,0,1,41.08,17v3.39a2.06,2.06,0,0,1-1,1.72,2.05,2.05,0,0,0,1-1.74V16.94a2.07,2.07,0,0,0-.69-1.53l-.15-.13V10.09A6.33,6.33,0,0,0,38.8,5.54C37.31,3.86,34.82,3,31.4,3a12.41,12.41,0,0,0-5.34,1,12.43,12.43,0,0,1,5.31-1C34.8,3,37.29,3.88,38.77,5.56Z"/><path class="cls-1" d="M21.5,35.38a2.31,2.31,0,0,0,.67.65h0a2.56,2.56,0,0,1-.67-.64Z"/><path class="cls-1" d="M21.43,10.42l.17.12V14.9l-.1.11a3,3,0,0,0-.75,2v3.39a3,3,0,0,0,.08.66.84.84,0,0,0,0,.12.69.69,0,0,1,.05.13.56.56,0,0,1,0,.12c0,.08.06.17.09.24v0a3.17,3.17,0,0,0,.83,1l.09.08,0,.13s0,0,0,0l.16.56.07.22s0,0,0,.06l0,.11c0,.06.05.13.07.2l.16.45,0,.1,0,.1c.08.19.14.36.21.51l0,.07,0,.05.05.11,0,.06a.3.3,0,0,1,0,.08l.23.51,0,.05a0,0,0,0,0,0,0l0,.06.09.17,0,.07.27.48a2.53,2.53,0,0,1,.13.22l.08.13a13,13,0,0,1-2.68,4.2l-.11.12h0l.11-.12a13,13,0,0,0,2.68-4.2v0s0-.08-.07-.12-.09-.14-.13-.22a5.46,5.46,0,0,1-.27-.48l0-.07-.09-.17v0l0,0s0,0,0,0l0-.05c-.07-.18-.16-.36-.23-.51l0-.08,0-.06-.05-.11,0-.05,0-.07c-.07-.15-.13-.32-.21-.51a8791577004293,8791577004293,0,0,1-.08-.2c-.06-.15-.11-.3-.16-.45a1.18,1.18,0,0,1-.07-.2l0-.11s0,0,0-.06l-.07-.22-.16-.56a.08.08,0,0,0,0,0l0-.13-.09-.08a3,3,0,0,1-.83-1v0a1.34,1.34,0,0,1-.09-.24.56.56,0,0,1,0-.12s0-.09-.05-.13l0-.12a3,3,0,0,1-.08-.66V17a3,3,0,0,1,.75-2l.1-.11V10.53l-.17-.12A9.25,9.25,0,0,0,16.15,9a10.05,10.05,0,0,0-3.54.57A10.12,10.12,0,0,1,16.12,9,9.15,9.15,0,0,1,21.43,10.42Z"/><path class="cls-1" d="M21,35.67l-.24.13a3,3,0,0,1-.5-1.67V31.26h0v2.88a3.06,3.06,0,0,0,.5,1.67L16,38.34a7.26,7.26,0,0,0-3.77,6.36V47h0V44.7a7.24,7.24,0,0,1,3.77-6.36l4.64-2.53.24-.14Z"/><path class="cls-1" d="M23.88,25.39h0a1.73,1.73,0,0,1-.25.21l-.15.09h0l.14-.09C23.71,25.54,23.79,25.46,23.88,25.39Z"/><path class="cls-2" d="M16,38.34l4.64-2.53a3.06,3.06,0,0,1-.5-1.67V31.26h0l.14-.13a11.82,11.82,0,0,0,2.95-4.87l0-.06a0,0,0,0,1,0,0l0-.05L23,25.61a.3.3,0,0,0,0-.08l0-.06-.05-.11,0-.05,0-.07c-.07-.15-.13-.32-.21-.51l0-.1,0-.1-.16-.45c0-.07-.05-.14-.07-.2l0-.11s0,0,0-.06l-.07-.22L22,22.93s0,0,0,0l0-.13-.09-.08a3.17,3.17,0,0,1-.83-1v0c0-.07-.06-.16-.09-.24a.56.56,0,0,0,0-.12.69.69,0,0,0-.05-.13.84.84,0,0,1,0-.12,3,3,0,0,1-.08-.66V17a3,3,0,0,1,.75-2l.1-.11V10.54l-.17-.12A9.15,9.15,0,0,0,16.12,9a10.12,10.12,0,0,0-3.51.56A6.82,6.82,0,0,0,8.14,15.3h0V19.7L8,19.83a1.83,1.83,0,0,0-.7,1.29v2.93a1.74,1.74,0,0,0,.81,1.46l.14.1,0,.17A11.7,11.7,0,0,0,11.34,31l.14.13V34a3.14,3.14,0,0,1-1.63,2.74L4.21,40.31a5.44,5.44,0,0,0-2.86,4.77V47H12.27V44.7A7.26,7.26,0,0,1,16,38.34Z"/><path class="cls-1" d="M25.89,31.89V28.64l-.12-.14-.13-.18,0,0-.17-.21,0,0c-.16-.22-.31-.44-.46-.67,0,0,0,0,0,0h0l-.27-.43,0,0-.38-.67,0,0,0,.12a9.59,9.59,0,0,1-.31.95h0v0c.09.16.18.3.27.44a.21.21,0,0,1,0,.06l0,.05c.19.28.35.53.51.75l.11.14.05.06L25,29v2.92h0a2.67,2.67,0,0,1-1.37,2.33l-2.12,1.15a2.56,2.56,0,0,0,.67.64l1.87-1A3.55,3.55,0,0,0,25.89,31.89Z"/><path class="cls-1" d="M24.67,26.89l0,0,.27.43h0s0,0,0,0c.15.23.3.45.46.67l0,0,.17.21,0,0,.13.18.12.14v3.25A3.55,3.55,0,0,1,24.05,35l-1.87,1h0l1.88-1a3.54,3.54,0,0,0,1.84-3.11V28.64l-.12-.14-.13-.18,0,0a2.62,2.62,0,0,0-.17-.21l0,0c-.16-.22-.31-.44-.46-.67,0,0,0,0,0,0h0l-.27-.43a.05.05,0,0,1,0,0l-.38-.67h0Z"/><path class="cls-1" d="M23.63,34.21,21.5,35.37a0,0,0,0,1,0,0l2.12-1.15A2.67,2.67,0,0,0,25,31.9h0A2.64,2.64,0,0,1,23.63,34.21Z"/><path class="cls-1" d="M46.45,38.38l-8.09-4A2.62,2.62,0,0,1,36.91,32V29l.08-.11c.19-.23.39-.5.6-.78A18.55,18.55,0,0,0,40,23.26l.06-.15.16-.07A3,3,0,0,0,42,20.34V17a3,3,0,0,0-.74-2l-.1-.11V10.19A7.13,7.13,0,0,0,39.48,5c-1.66-1.89-4.39-2.86-8.09-2.86S25,3.08,23.3,5a6.94,6.94,0,0,0-1.64,3.85l-.06.57-.52-.26a10.47,10.47,0,0,0-4.92-1.08c-8.31,0-8.9,7-8.92,7.23v4l-.11.1a2.59,2.59,0,0,0-.74,1.71V24a2.62,2.62,0,0,0,1,2l.1.08,0,.12a12.61,12.61,0,0,0,3,5.15l.11.12V34a2.23,2.23,0,0,1-1.19,2L3.74,39.52A6.33,6.33,0,0,0,.45,45.07v2.82h50v-3A7.22,7.22,0,0,0,46.45,38.38ZM49.57,47H13.19V44.69h0a6.35,6.35,0,0,1,3.31-5.56l4.79-2.62a3,3,0,0,1-.59-.69l-4.64,2.53a7.24,7.24,0,0,0-3.77,6.36V47h-11V45.08a5.44,5.44,0,0,1,2.86-4.77l5.64-3.54A3.14,3.14,0,0,0,11.45,34V31.16L11.31,31a11.5,11.5,0,0,1-3.06-5.24l0-.17-.14-.1a1.73,1.73,0,0,1-.81-1.46V21.13A1.83,1.83,0,0,1,8,19.84l.15-.13V15.32h0a6.84,6.84,0,0,1,4.5-5.79A10.05,10.05,0,0,1,16.15,9a9.25,9.25,0,0,1,5.31,1.46l.17.12v4.36l-.1.11a3,3,0,0,0-.75,2v3.39a3,3,0,0,0,.08.66l0,.12s0,.09.05.13a.56.56,0,0,0,0,.12,1.34,1.34,0,0,0,.09.24v0a3,3,0,0,0,.83,1l.09.08,0,.13a.08.08,0,0,1,0,0l.16.56.07.22s0,0,0,.06l0,.11a1.18,1.18,0,0,0,.07.2c.05.15.1.3.16.45a8791577004293,8791577004293,0,0,0,.08.2c.08.19.14.36.21.51l0,.07,0,.05.05.11,0,.06,0,.08c.07.15.16.33.23.51l0,.05s0,0,0,0l0,0a2.11,2.11,0,0,0,.09-.36l0-.18h0l.15-.09a1.73,1.73,0,0,0,.25-.21h0c0-.1-.09-.19-.13-.29l0-.1c0-.11-.09-.22-.14-.34l-.07-.17c0-.1-.09-.19-.13-.31s-.15-.47-.24-.74l-.05-.17s0,0,0,0c-.1-.32-.17-.59-.23-.84l0-.18-.15-.1a2.07,2.07,0,0,1-1-1.75V17a2.07,2.07,0,0,1,.69-1.54l.15-.14V10.09h0V9.9A6.15,6.15,0,0,1,24,5.58,6.41,6.41,0,0,1,26.06,4,12.41,12.41,0,0,1,31.4,3c3.42,0,5.91.85,7.4,2.53a6.33,6.33,0,0,1,1.48,4.55v5.19l.15.13a2.07,2.07,0,0,1,.69,1.53v3.39a2.05,2.05,0,0,1-1,1.74,1.87,1.87,0,0,1-.53.26l-.2.06-.06.21a18.39,18.39,0,0,1-2.45,4.94,11.09,11.09,0,0,1-.74.94l-.11.13V32a3.53,3.53,0,0,0,2,3.17l8.08,4.05a6.3,6.3,0,0,1,3.5,5.67Z"/><path class="cls-1" d="M39.4,22.38h0l.2-.06a1.87,1.87,0,0,0,.53-.26,1.92,1.92,0,0,1-.5.24Z"/><path class="cls-1" d="M16.5,39.13l4.8-2.62h0L16.5,39.12a6.35,6.35,0,0,0-3.31,5.56h0A6.35,6.35,0,0,1,16.5,39.13Z"/><path class="cls-1" d="M23.77,25.08l-.05-.1a3.45,3.45,0,0,1-.14-.34l-.07-.17-.13-.31c-.08-.23-.16-.47-.24-.74l-.05-.17s0,0,0,0c-.1-.31-.17-.58-.23-.84l0-.18-.15-.1a2,2,0,0,1-1-1.75V17a2.07,2.07,0,0,1,.69-1.54l.15-.14v-5.2h0V9.88A6.2,6.2,0,0,1,24,5.56,6.23,6.23,0,0,1,26.06,4,6.41,6.41,0,0,0,24,5.58,6.15,6.15,0,0,0,22.49,9.9v.18h0v5.19l-.15.14A2.07,2.07,0,0,0,21.67,17v3.39a2.07,2.07,0,0,0,1,1.75l.15.1,0,.18c.06.25.13.52.23.84,0,0,0,0,0,0l.05.17c.09.27.16.52.24.74s.09.21.13.31l.07.17c.05.12.1.23.14.34l0,.1c0,.1.09.19.13.29h0l0,0C23.85,25.27,23.81,25.18,23.77,25.08Z"/><path class="cls-1" d="M4.21,40.31l5.64-3.54A3.14,3.14,0,0,0,11.48,34V31.15L11.34,31a11.7,11.7,0,0,1-3.06-5.24l0-.17-.14-.1a1.74,1.74,0,0,1-.81-1.46V21.12A1.83,1.83,0,0,1,8,19.83l.15-.13V15.31h0a6.82,6.82,0,0,1,4.47-5.78,6.84,6.84,0,0,0-4.5,5.79h0v4.39L8,19.84a1.83,1.83,0,0,0-.7,1.29v2.93a1.73,1.73,0,0,0,.81,1.46l.14.1,0,.17A11.5,11.5,0,0,0,11.31,31l.14.13V34a3.14,3.14,0,0,1-1.63,2.74L4.18,40.31a5.44,5.44,0,0,0-2.86,4.77V47h0V45.08A5.44,5.44,0,0,1,4.21,40.31Z"/><path class="cls-1" d="M21.11,34.13V31.66h0l.11-.12a13,13,0,0,0,2.68-4.2l-.08-.13a2.53,2.53,0,0,0-.13-.22l-.27-.48,0-.07-.09-.17a11.73,11.73,0,0,1-2.95,4.87l-.14.13v2.87a3,3,0,0,0,.5,1.67l.24-.13.09-.19.24,0,.21-.12a2.26,2.26,0,0,1-.38-1.24Z"/><path class="cls-1" d="M21.11,34.13h0a2.26,2.26,0,0,0,.38,1.24h0A2.2,2.2,0,0,1,21.11,34.13Z"/><path class="cls-1" d="M23.3,26.26a11.82,11.82,0,0,1-2.95,4.87A11.73,11.73,0,0,0,23.3,26.26Z"/><path class="cls-1" d="M22.17,36a2.31,2.31,0,0,1-.67-.65h0l-.21.12-.24,0-.09.18h0l-.24.14a3,3,0,0,0,.59.69h0Z"/><polygon class="cls-1" points="22.17 36.03 22.17 36.03 21.3 36.5 21.3 36.5 21.3 36.51 22.17 36.03"/><polygon class="cls-1" points="21.5 35.38 21.5 35.39 21.5 35.38 21.5 35.38 21.5 35.38"/><polygon class="cls-1" points="20.95 35.66 21.04 35.48 20.95 35.67 20.95 35.66"/><path class="cls-1" d="M23.41,26.43l0,.07a5.46,5.46,0,0,0,.27.48c0,.08.09.15.13.22s.05.09.07.12a9.21,9.21,0,0,0,.31-.93l0-.13.05,0h0l-.19-.37L24,25.77V25.7a2.2,2.2,0,0,1-.15-.31c-.09.07-.17.15-.27.22l-.14.09,0,.17c0,.13-.07.26-.1.38h0v0Z"/><path class="cls-1" d="M24,25.77l.07.07.19.37h0c-.07-.12-.13-.25-.19-.37l-.07-.07V25.7l-.16-.32h0a2.2,2.2,0,0,0,.15.31Z"/><path class="cls-1" d="M24.22,26.38l0-.12,0,0h0l-.05,0,0,.13a9.21,9.21,0,0,1-.31.93h0A9.59,9.59,0,0,0,24.22,26.38Z"/><polygon class="cls-1" points="24.29 26.22 24.29 26.22 24.3 26.22 24.3 26.21 24.29 26.22"/><path class="cls-1" d="M23.43,25.87l0-.17h0l0,.18a2.11,2.11,0,0,1-.09.36h0C23.36,26.13,23.4,26,23.43,25.87Z"/></svg>
