<svg xmlns="http://www.w3.org/2000/svg" viewBox="0 0 50 50"><path d="M46.4 40.3L37.8 36c-.8-.4-1.3-1.2-1.3-2.1v-3.6l.1-.1c.2-.2.4-.5.6-.8 1-1.5 1.9-3.1 2.5-4.8v-.1l.2-.1c1.1-.5 1.7-1.5 1.8-2.7v-3.4c0-.7-.3-1.4-.8-2l-.1-.1v-4.6c.2-1.9-.4-3.8-1.6-5.3-1.4-1.5-3.3-2.4-5.3-2.6-.9-.1-1.9-.2-2.8-.2-3.7 0-6.4 1-8.1 2.9-.9 1.1-1.5 2.4-1.7 3.9l-.1.6-.5-.3c-1.5-.7-3.2-1.1-4.9-1.1-8.4 0-8.9 7.2-8.9 7.2v4l-.1.1c-.5.5-.7 1.1-.8 1.7v2.9c0 .8.4 1.6 1 2.1v.1c.6 1.9 1.6 3.7 3 5.2l.1.1v2.9c0 .8-.4 1.6-1.1 2l-5.7 3.5c-2 1.1-3.3 3.2-3.3 5.6v2.8h50v-3.5c0-2.5-1.4-4.8-3.6-5.9zm2.7 8.4H12.8v-2.3c0-2.3 1.3-4.4 3.3-5.5l7.5-4.1c1.1-.6 1.8-1.8 1.8-3.1v-3.8l-.1-.1-.3-.6c-.1-.1-.2-.3-.4-.5l-.3-.4-.5-.8-.1-.2-.4-.7v-.1c-.1-.1-.1-.2-.2-.4l-.2-.5c-.1-.3-.2-.5-.3-.8v-.2c-.1-.4-.2-.7-.3-1v-.2l-.2-.1c-.6-.4-1-1.1-1-1.8v-3.2c0-.6.2-1.1.7-1.5l.1-.1v-5.4c-.1-1.6.4-3.1 1.5-4.3 1.5-1.7 4-2.5 7.4-2.5.9 0 1.9.1 2.8.2 1.7.2 3.3 1.1 4.5 2.3 1.1 1.3 1.6 2.9 1.5 4.6v5.2l.2.1c.4.4.7.9.7 1.5v3.4c0 .9-.6 1.7-1.5 2l-.2.1v.1c-.6 1.8-1.4 3.4-2.5 4.9-.2.3-.5.6-.7 1l-.1.1v3.8c0 1.4.8 2.6 2 3.2l8.1 4c2.1 1.1 3.5 3.3 3.5 5.7v2z" fill="#fff"/><path d="M15.6 40.1l7.6-4.1c.8-.5 1.4-1.3 1.4-2.3v-3.3l-.1-.2-.2-.2c-.1-.2-.3-.5-.5-.8l-.1-.1-.3-.6-.1-.2c-.1-.1-.2-.3-.3-.5l-.2-.3c-.1-.2-.2-.3-.3-.5l-.1-.1v-.2c-.1-.2-.1-.3-.2-.6V26c-.1-.2-.1-.3-.2-.5l-.1-.3v-.1l-.1-.2c-.1-.2-.1-.4-.2-.6V24c-.3-.3-.6-.6-.8-1 0-.1-.1-.2-.1-.3l-.1-.2v-.1c-.1-.2-.1-.4-.1-.7v-3.4c0-.7.3-1.4.8-2l.1-.1v-4.3l-.4-.1c-1.6-1-3.4-1.5-5.3-1.5-7.5 0-8 6.1-8 6.3V21l-.2.1c-.4.3-.7.8-.7 1.3v2.9c0 .6.3 1.1.8 1.5l.2.1v.2c.5 2 1.6 3.8 3.1 5.3l.1.1v3.3c0 1.2-.6 2.2-1.6 2.8L3.8 42C2 43 .9 44.8.9 46.8v1.9h10.9v-2.3c0-2.6 1.5-5.1 3.8-6.3z" fill="#fdc62d"/></svg>