<svg xmlns="http://www.w3.org/2000/svg" viewBox="0 0 40 40"><path d="M20 0a20 20 0 1 0 20 20A20 20 0 0 0 20 0zm-6.5 25H9.88a.52.52 0 0 1-.47-.25.54.54 0 0 1 0-.55l3.84-6.76-2.45-4.22a.59.59 0 0 1 0-.56.57.57 0 0 1 .5-.22h3.61a1.11 1.11 0 0 1 1 .67s2.47 4.3 2.48 4.33l-3.9 6.88a1.1 1.1 0 0 1-.99.68zM30.59 8.29l-8 14.11 5.1 9.28a.59.59 0 0 1 0 .56.53.53 0 0 1-.48.23H23.6a1.13 1.13 0 0 1-1-.69s-5.13-9.37-5.14-9.4L25.5 8.19a1 1 0 0 1 1-.69h3.65a.56.56 0 0 1 .49.23.59.59 0 0 1-.05.56z" fill="#fdc62d"/></svg>