<svg id="Ebene_1" data-name="Ebene 1" xmlns="http://www.w3.org/2000/svg" viewBox="0 0 1170 158.49" alt="Die Schritte unseres Bewerbungsprozesses: 1. Angebotssichtung, 2. Telefon-Interview, 3. Kurzaufgabe, 4. Vorstellungsgespräch, 5. Hospitation, 6. Vertragsverhandlung, 7. Willkommen bei der Schütze AG!">
<defs><style>.cls-1,.cls-2,.cls-3,.cls-4,.cls-5,.cls-6,.cls-7,.cls-8,.cls-9{fill:#fff;}.cls-10,.cls-2{opacity:0.5;}.cls-3{opacity:0.6;}.cls-4{opacity:0.7;}.cls-5{opacity:0.78;}.cls-6{opacity:0.8;}.cls-7{opacity:0.85;}.cls-8{opacity:0.9;}.cls-9{opacity:0.95;}</style></defs>
<title>bewerbungsprozess</title>
<path class="cls-1" d="M19.07,141.46h2.18l4.38,13.46H23.71l-1-3.2h-5.2l-1,3.2H14.8Zm1,1.58h0L18,150.22h4.31Z"/><path class="cls-1" d="M32.37,154.92v-6.53a3.19,3.19,0,0,0-.08-.7,1.44,1.44,0,0,0-.26-.59,1.13,1.13,0,0,0-.51-.39,2,2,0,0,0-.81-.14,1.76,1.76,0,0,0-1,.25,1.73,1.73,0,0,0-.58.65,2.62,2.62,0,0,0-.27.9,8.06,8.06,0,0,0-.06,1v5.57H27.26v-7.46c0-.32,0-.65,0-1s0-.65-.07-1h1.63v1.22h.07a2.52,2.52,0,0,1,1-1.1,3.81,3.81,0,0,1,2.73-.09,1.72,1.72,0,0,1,.77.63,2.46,2.46,0,0,1,.39,1,6.1,6.1,0,0,1,.12,1.25v6.53Z"/><path class="cls-1" d="M41.56,145.5h1.53v10.38a2.88,2.88,0,0,1-.25,1.29,1.9,1.9,0,0,1-.71.8,2.78,2.78,0,0,1-1.09.4,7.6,7.6,0,0,1-1.42.12,4.09,4.09,0,0,1-1.12-.15,2.66,2.66,0,0,1-.94-.46,2.07,2.07,0,0,1-.79-1.91h1.72a1.32,1.32,0,0,0,.41,1,1.49,1.49,0,0,0,1,.35,1.58,1.58,0,0,0,1.22-.45,1.65,1.65,0,0,0,.42-1.17v-2h-.05a2.11,2.11,0,0,1-.88.87,2.53,2.53,0,0,1-1.19.3,2.78,2.78,0,0,1-1.55-.39,2.59,2.59,0,0,1-.93-1.06,4.87,4.87,0,0,1-.46-1.59,15.06,15.06,0,0,1-.12-2,7.44,7.44,0,0,1,.35-2.54,3.84,3.84,0,0,1,.83-1.38,2,2,0,0,1,1-.57,3.55,3.55,0,0,1,.79-.11,2.67,2.67,0,0,1,1.31.32,2.24,2.24,0,0,1,.89,1h0Zm0,4.67c0-.35,0-.73,0-1.15a4.86,4.86,0,0,0-.17-1.17,2.05,2.05,0,0,0-.54-.9,1.52,1.52,0,0,0-1.1-.36,1.4,1.4,0,0,0-1,.34,2.07,2.07,0,0,0-.54.86,4.21,4.21,0,0,0-.2,1.09c0,.39,0,.73,0,1a11.71,11.71,0,0,0,.12,1.86,3.46,3.46,0,0,0,.37,1.14,1.35,1.35,0,0,0,.58.58,1.81,1.81,0,0,0,.76.16,1.43,1.43,0,0,0,1-.37,2.18,2.18,0,0,0,.54-.89,4.25,4.25,0,0,0,.18-1.14C41.59,150.85,41.6,150.49,41.6,150.17Z"/><path class="cls-1" d="M47.4,150.71a8.5,8.5,0,0,0,.13,1.6,2.53,2.53,0,0,0,.38,1,1.21,1.21,0,0,0,.59.47,2.55,2.55,0,0,0,.81.12,1.45,1.45,0,0,0,.68-.15,1.65,1.65,0,0,0,.51-.39,1.76,1.76,0,0,0,.32-.57,3,3,0,0,0,.13-.68h1.68a2.88,2.88,0,0,1-.91,2.31,3.6,3.6,0,0,1-2.38.73,5.72,5.72,0,0,1-1.4-.16,2.22,2.22,0,0,1-1.13-.66,3.5,3.5,0,0,1-.77-1.44,8.83,8.83,0,0,1-.28-2.5,17.42,17.42,0,0,1,.1-1.95,4.48,4.48,0,0,1,.47-1.6,2.71,2.71,0,0,1,1.07-1.08,3.92,3.92,0,0,1,1.94-.4,4.17,4.17,0,0,1,1.66.28,2.21,2.21,0,0,1,1,.85,3.66,3.66,0,0,1,.52,1.42,12,12,0,0,1,.15,2v.8Zm3.68-1.16a7.75,7.75,0,0,0-.14-1.63,2.45,2.45,0,0,0-.39-.93,1.05,1.05,0,0,0-.59-.42,2.71,2.71,0,0,0-.77-.1,1.92,1.92,0,0,0-.69.12,1.16,1.16,0,0,0-.56.44,2.86,2.86,0,0,0-.39.94,6.87,6.87,0,0,0-.15,1.58Z"/><path class="cls-1" d="M56.9,154.92H55.37V141.46H56.9v5H57a2.74,2.74,0,0,1,.9-.84,2.23,2.23,0,0,1,1.17-.29,3.06,3.06,0,0,1,1.78.45,2.73,2.73,0,0,1,.93,1.19,4.87,4.87,0,0,1,.35,1.63c0,.6.06,1.2.06,1.78a9.69,9.69,0,0,1-.26,2.48,4,4,0,0,1-.69,1.44,2,2,0,0,1-1,.66,3.87,3.87,0,0,1-1.11.16,2.27,2.27,0,0,1-1.26-.33,2.9,2.9,0,0,1-.91-1h0Zm0-5.09v1.24a5.56,5.56,0,0,0,.15,1.32,2.46,2.46,0,0,0,.5,1,1.29,1.29,0,0,0,1.06.43,1.59,1.59,0,0,0,1.11-.34,2,2,0,0,0,.57-.86,3.65,3.65,0,0,0,.22-1.12c0-.41,0-.79,0-1.15,0-.63,0-1.19-.06-1.66a4.12,4.12,0,0,0-.26-1.19,1.51,1.51,0,0,0-.56-.73,1.75,1.75,0,0,0-1-.24,1.41,1.41,0,0,0-1,.33,2.11,2.11,0,0,0-.53.83,4.07,4.07,0,0,0-.22,1.07C56.91,149.18,56.9,149.52,56.9,149.83Z"/><path class="cls-1" d="M67.88,155.11a5.64,5.64,0,0,1-1.39-.16,2.21,2.21,0,0,1-1.14-.66,3.5,3.5,0,0,1-.77-1.44,9.21,9.21,0,0,1-.28-2.5,17.36,17.36,0,0,1,.11-1.95,4.29,4.29,0,0,1,.46-1.6,2.71,2.71,0,0,1,1.07-1.08,4.9,4.9,0,0,1,3.88,0,2.74,2.74,0,0,1,1.08,1.08,4.48,4.48,0,0,1,.46,1.6,17.36,17.36,0,0,1,.11,1.95,9.21,9.21,0,0,1-.28,2.5,3.62,3.62,0,0,1-.77,1.44,2.21,2.21,0,0,1-1.14.66A5.66,5.66,0,0,1,67.88,155.11Zm0-1.25a1.9,1.9,0,0,0,1-.22,1.54,1.54,0,0,0,.61-.71,4.2,4.2,0,0,0,.31-1.28c0-.53.08-1.18.08-2a7.5,7.5,0,0,0-.14-1.58,2.54,2.54,0,0,0-.4-1,1.34,1.34,0,0,0-.62-.47,2.62,2.62,0,0,0-1.63,0,1.34,1.34,0,0,0-.62.47,2.39,2.39,0,0,0-.4,1,6.88,6.88,0,0,0-.14,1.58,18.05,18.05,0,0,0,.08,2,4.2,4.2,0,0,0,.31,1.28,1.58,1.58,0,0,0,.6.71A2,2,0,0,0,67.88,153.86Z"/><path class="cls-1" d="M74.06,145.5v-1.81l1.53-.69v2.5h2v1.16h-2v5.76a3.77,3.77,0,0,0,0,.47.86.86,0,0,0,.15.44.91.91,0,0,0,.42.33,2.13,2.13,0,0,0,.81.13l.26,0,.43-.06v1.18l-.76.09a4.84,4.84,0,0,1-.75.06,2.5,2.5,0,0,1-1.61-.43,1.58,1.58,0,0,1-.5-1.25v-6.7H72.51V145.5Z"/><path class="cls-1" d="M85.14,152.24a3.24,3.24,0,0,1-.25,1.32,2.45,2.45,0,0,1-.69.89,2.77,2.77,0,0,1-1,.5,4.85,4.85,0,0,1-1.29.16,3.69,3.69,0,0,1-2.41-.72,2.74,2.74,0,0,1-.84-2.34h1.73q0,.21,0,.51a1.6,1.6,0,0,0,.18.6,1.31,1.31,0,0,0,.47.5,1.7,1.7,0,0,0,.89.2,1.9,1.9,0,0,0,1.16-.35,1.29,1.29,0,0,0,.46-1.09.91.91,0,0,0-.34-.71,4,4,0,0,0-.87-.58q-.52-.27-1.14-.54a6.5,6.5,0,0,1-1.13-.64,3.39,3.39,0,0,1-.87-.86,2,2,0,0,1-.35-1.2,3.23,3.23,0,0,1,.13-.82,2.16,2.16,0,0,1,.5-.84,2.67,2.67,0,0,1,1-.65,4.87,4.87,0,0,1,2.81-.1,2.79,2.79,0,0,1,1,.47,2.06,2.06,0,0,1,.65.83,2.42,2.42,0,0,1,.16,1.2H83.37a1.45,1.45,0,0,0-.37-1.12,1.47,1.47,0,0,0-1.11-.39,1.61,1.61,0,0,0-1,.33,1.12,1.12,0,0,0-.42.94.9.9,0,0,0,.34.71,4,4,0,0,0,.87.56c.35.17.73.35,1.14.52a6.28,6.28,0,0,1,1.14.63,3.51,3.51,0,0,1,.86.86A2.14,2.14,0,0,1,85.14,152.24Z"/><path class="cls-1" d="M93.42,152.24a3.08,3.08,0,0,1-.25,1.32,2.45,2.45,0,0,1-.69.89,2.7,2.7,0,0,1-1,.5,4.85,4.85,0,0,1-1.29.16,3.7,3.7,0,0,1-2.41-.72,2.8,2.8,0,0,1-.84-2.34h1.74c0,.14,0,.31,0,.51a1.6,1.6,0,0,0,.18.6,1.39,1.39,0,0,0,.47.5,1.7,1.7,0,0,0,.89.2,1.9,1.9,0,0,0,1.16-.35,1.29,1.29,0,0,0,.47-1.09.92.92,0,0,0-.35-.71,4,4,0,0,0-.87-.58c-.34-.18-.72-.36-1.13-.54a7,7,0,0,1-1.14-.64,3.39,3.39,0,0,1-.87-.86,2,2,0,0,1-.34-1.2,2.84,2.84,0,0,1,.13-.82,2,2,0,0,1,.49-.84,2.75,2.75,0,0,1,1-.65,4.16,4.16,0,0,1,1.62-.26,4.29,4.29,0,0,1,1.2.16,2.83,2.83,0,0,1,1,.47,2.06,2.06,0,0,1,.65.83,2.54,2.54,0,0,1,.17,1.2h-1.7a1.45,1.45,0,0,0-.37-1.12,1.47,1.47,0,0,0-1.11-.39,1.61,1.61,0,0,0-1,.33,1.12,1.12,0,0,0-.42.94.9.9,0,0,0,.34.71,4,4,0,0,0,.87.56c.35.17.73.35,1.14.52a6.28,6.28,0,0,1,1.14.63,3.39,3.39,0,0,1,.87.86A2.13,2.13,0,0,1,93.42,152.24Z"/><path class="cls-1" d="M95.51,141.46h1.72v1.64H95.51Zm1.62,13.46H95.6V145.5h1.53Z"/><path class="cls-1" d="M104.7,148.53a2.81,2.81,0,0,0-.1-1,1.69,1.69,0,0,0-.31-.6,1.2,1.2,0,0,0-.43-.31,1.54,1.54,0,0,0-.46-.08,2.3,2.3,0,0,0-.81.13,1.42,1.42,0,0,0-.63.47,2.72,2.72,0,0,0-.4,1,7.5,7.5,0,0,0-.14,1.58,17.76,17.76,0,0,0,.09,2,4,4,0,0,0,.3,1.28,1.54,1.54,0,0,0,.61.71,1.9,1.9,0,0,0,1,.22,1.37,1.37,0,0,0,.37-.08,1.23,1.23,0,0,0,.47-.32,1.92,1.92,0,0,0,.38-.63,2.64,2.64,0,0,0,.14-1h1.61a3.57,3.57,0,0,1-.3,1.63,2.94,2.94,0,0,1-.78,1,2.66,2.66,0,0,1-1,.52,3.31,3.31,0,0,1-.91.15A5.72,5.72,0,0,1,102,155a2.25,2.25,0,0,1-1.14-.66,3.5,3.5,0,0,1-.76-1.44,8.83,8.83,0,0,1-.28-2.5,17.42,17.42,0,0,1,.1-1.95,4.29,4.29,0,0,1,.47-1.6,2.71,2.71,0,0,1,1.07-1.08,3.92,3.92,0,0,1,1.94-.4,2.9,2.9,0,0,1,2.19.81,3.11,3.11,0,0,1,.7,2.4Z"/><path class="cls-1" d="M114.22,154.92v-6.38a3.91,3.91,0,0,0-.08-.79,1.52,1.52,0,0,0-.27-.62,1.25,1.25,0,0,0-.52-.41,2,2,0,0,0-.81-.15,1.91,1.91,0,0,0-1,.21,1.48,1.48,0,0,0-.59.6,2.83,2.83,0,0,0-.3.89,7.83,7.83,0,0,0-.08,1.11v5.54h-1.53V141.46h1.53v5.26h.07a2.58,2.58,0,0,1,1-1.11,3.28,3.28,0,0,1,1.51-.29,2.44,2.44,0,0,1,1.85.66,3.21,3.21,0,0,1,.65,2.27v6.67Z"/><path class="cls-1" d="M118.6,145.5v-1.81l1.53-.69v2.5h2.05v1.16h-2.05v5.76c0,.15,0,.31,0,.47a.86.86,0,0,0,.15.44,1,1,0,0,0,.42.33,2.13,2.13,0,0,0,.81.13l.26,0,.43-.06v1.18l-.75.09a5,5,0,0,1-.76.06,2.47,2.47,0,0,1-1.6-.43,1.56,1.56,0,0,1-.51-1.25v-6.7h-1.55V145.5Z"/><path class="cls-1" d="M128.66,145.5h1.53V153c0,.33,0,.66,0,1s0,.66.07,1h-1.62v-1.13h-.06a2.44,2.44,0,0,1-1,1,2.82,2.82,0,0,1-1.38.34,2.63,2.63,0,0,1-1.88-.61,2.33,2.33,0,0,1-.65-1.81V145.5h1.53v6.55a2.26,2.26,0,0,0,.39,1.38,1.4,1.4,0,0,0,1.21.52,1.84,1.84,0,0,0,.63-.12,1.58,1.58,0,0,0,.6-.38,2.36,2.36,0,0,0,.44-.67,2.53,2.53,0,0,0,.18-1Z"/><path class="cls-1" d="M138.06,154.92v-6.53a3.19,3.19,0,0,0-.08-.7,1.44,1.44,0,0,0-.26-.59,1.13,1.13,0,0,0-.51-.39,2,2,0,0,0-.81-.14,1.76,1.76,0,0,0-1,.25,1.73,1.73,0,0,0-.58.65,3.15,3.15,0,0,0-.27.9,8.06,8.06,0,0,0-.06,1v5.57H133v-7.46c0-.32,0-.65,0-1s0-.65-.07-1h1.63v1.22h.07a2.52,2.52,0,0,1,1-1.1,3.81,3.81,0,0,1,2.73-.09,1.72,1.72,0,0,1,.77.63,2.63,2.63,0,0,1,.4,1,6.92,6.92,0,0,1,.11,1.25v6.53Z"/><path class="cls-1" d="M147.25,145.5h1.53v10.38a2.88,2.88,0,0,1-.25,1.29,1.9,1.9,0,0,1-.71.8,2.78,2.78,0,0,1-1.09.4,7.6,7.6,0,0,1-1.42.12,4.09,4.09,0,0,1-1.12-.15,2.66,2.66,0,0,1-.94-.46,2.26,2.26,0,0,1-.62-.78,2.16,2.16,0,0,1-.17-1.13h1.72a1.36,1.36,0,0,0,.41,1,1.49,1.49,0,0,0,1,.35,1.58,1.58,0,0,0,1.22-.45,1.65,1.65,0,0,0,.42-1.17v-2h-.05a2.11,2.11,0,0,1-.88.87,2.53,2.53,0,0,1-1.19.3,2.78,2.78,0,0,1-1.55-.39,2.59,2.59,0,0,1-.93-1.06,4.87,4.87,0,0,1-.46-1.59,15.06,15.06,0,0,1-.12-2,7.44,7.44,0,0,1,.35-2.54,3.84,3.84,0,0,1,.83-1.38,2,2,0,0,1,1-.57,3.55,3.55,0,0,1,.79-.11,2.67,2.67,0,0,1,1.31.32,2.19,2.19,0,0,1,.89,1h0Zm0,4.67c0-.35,0-.73,0-1.15a4.86,4.86,0,0,0-.17-1.17,2.05,2.05,0,0,0-.54-.9,1.5,1.5,0,0,0-1.1-.36,1.4,1.4,0,0,0-1,.34,2,2,0,0,0-.53.86,3.83,3.83,0,0,0-.21,1.09c0,.39,0,.73,0,1a11.71,11.71,0,0,0,.12,1.86,3.46,3.46,0,0,0,.37,1.14,1.35,1.35,0,0,0,.58.58,1.81,1.81,0,0,0,.76.16,1.43,1.43,0,0,0,1.05-.37,2.18,2.18,0,0,0,.54-.89,4.25,4.25,0,0,0,.18-1.14C147.29,150.85,147.29,150.49,147.29,150.17Z"/><path class="cls-1" d="M527.81,154.92h-2l-3.9-13.46h1.86l3.08,11.84h0L530,141.46h1.75Z"/><path class="cls-1" d="M536,155.11a5.72,5.72,0,0,1-1.4-.16,2.29,2.29,0,0,1-1.14-.66,3.5,3.5,0,0,1-.76-1.44,8.83,8.83,0,0,1-.28-2.5,17.42,17.42,0,0,1,.1-1.95,4.48,4.48,0,0,1,.47-1.6,2.71,2.71,0,0,1,1.07-1.08,4.9,4.9,0,0,1,3.88,0A2.71,2.71,0,0,1,539,146.8a4.29,4.29,0,0,1,.47,1.6,17.42,17.42,0,0,1,.1,1.95,8.83,8.83,0,0,1-.28,2.5,3.5,3.5,0,0,1-.76,1.44,2.29,2.29,0,0,1-1.14.66A5.72,5.72,0,0,1,536,155.11Zm0-1.25a1.92,1.92,0,0,0,1-.22,1.6,1.6,0,0,0,.61-.71,4.23,4.23,0,0,0,.3-1.28,17.76,17.76,0,0,0,.09-2,7.5,7.5,0,0,0-.14-1.58,2.72,2.72,0,0,0-.4-1,1.42,1.42,0,0,0-.63-.47,2.59,2.59,0,0,0-1.62,0,1.42,1.42,0,0,0-.63.47,2.72,2.72,0,0,0-.4,1,7.5,7.5,0,0,0-.14,1.58,17.76,17.76,0,0,0,.09,2,4.23,4.23,0,0,0,.3,1.28,1.6,1.6,0,0,0,.61.71A1.92,1.92,0,0,0,536,153.86Z"/><path class="cls-1" d="M543.55,146.92h0a3.75,3.75,0,0,1,.51-.86,1.89,1.89,0,0,1,.62-.48,2.36,2.36,0,0,1,.78-.22c.29,0,.63,0,1,0v1.58l-.21,0-.2,0a.64.64,0,0,0-.2,0h-.21a2.21,2.21,0,0,0-1,.22,1.93,1.93,0,0,0-.65.58,2.21,2.21,0,0,0-.33.82,4.23,4.23,0,0,0-.1.94v5.55H542V145.5h1.53Z"/><path class="cls-1" d="M554.24,152.24a3.08,3.08,0,0,1-.25,1.32,2.45,2.45,0,0,1-.69.89,2.7,2.7,0,0,1-1,.5,4.85,4.85,0,0,1-1.29.16,3.7,3.7,0,0,1-2.41-.72,2.8,2.8,0,0,1-.84-2.34h1.74c0,.14,0,.31,0,.51a1.6,1.6,0,0,0,.18.6,1.39,1.39,0,0,0,.47.5,1.7,1.7,0,0,0,.89.2,1.9,1.9,0,0,0,1.16-.35,1.29,1.29,0,0,0,.47-1.09.92.92,0,0,0-.35-.71,4,4,0,0,0-.87-.58c-.34-.18-.72-.36-1.13-.54a7,7,0,0,1-1.14-.64,3.39,3.39,0,0,1-.87-.86,2,2,0,0,1-.34-1.2,2.84,2.84,0,0,1,.13-.82,2,2,0,0,1,.49-.84,2.75,2.75,0,0,1,1-.65,4.16,4.16,0,0,1,1.62-.26,4.29,4.29,0,0,1,1.2.16,2.83,2.83,0,0,1,1,.47,2.06,2.06,0,0,1,.65.83,2.54,2.54,0,0,1,.17,1.2h-1.7a1.45,1.45,0,0,0-.37-1.12,1.47,1.47,0,0,0-1.11-.39,1.61,1.61,0,0,0-1,.33,1.12,1.12,0,0,0-.42.94.9.9,0,0,0,.34.71,4,4,0,0,0,.87.56c.35.17.73.35,1.14.52a6.28,6.28,0,0,1,1.14.63,3.39,3.39,0,0,1,.87.86A2.13,2.13,0,0,1,554.24,152.24Z"/><path class="cls-1" d="M556.63,145.5v-1.81l1.53-.69v2.5h2.05v1.16h-2.05v5.76a3.77,3.77,0,0,0,0,.47.86.86,0,0,0,.15.44.93.93,0,0,0,.41.33,2.23,2.23,0,0,0,.82.13l.26,0,.43-.06v1.18l-.76.09a4.84,4.84,0,0,1-.75.06,2.5,2.5,0,0,1-1.61-.43,1.58,1.58,0,0,1-.5-1.25v-6.7h-1.55V145.5Z"/><path class="cls-1" d="M563.14,150.71a7.73,7.73,0,0,0,.13,1.6,2.71,2.71,0,0,0,.37,1,1.19,1.19,0,0,0,.6.47,2.45,2.45,0,0,0,.8.12,1.52,1.52,0,0,0,.69-.15,1.5,1.5,0,0,0,.5-.39,1.59,1.59,0,0,0,.32-.57,2.22,2.22,0,0,0,.13-.68h1.68a2.84,2.84,0,0,1-.9,2.31,3.64,3.64,0,0,1-2.38.73,5.66,5.66,0,0,1-1.4-.16,2.21,2.21,0,0,1-1.14-.66,3.5,3.5,0,0,1-.76-1.44,8.83,8.83,0,0,1-.28-2.5,17.42,17.42,0,0,1,.1-1.95,4.48,4.48,0,0,1,.46-1.6,2.74,2.74,0,0,1,1.08-1.08,3.92,3.92,0,0,1,1.94-.4,4.2,4.2,0,0,1,1.66.28,2.24,2.24,0,0,1,1,.85,3.66,3.66,0,0,1,.53,1.42,13.11,13.11,0,0,1,.15,2v.8Zm3.67-1.16a7.75,7.75,0,0,0-.14-1.63,2.46,2.46,0,0,0-.38-.93,1,1,0,0,0-.6-.42,2.64,2.64,0,0,0-.76-.1,1.92,1.92,0,0,0-.69.12,1.16,1.16,0,0,0-.56.44,2.86,2.86,0,0,0-.39.94,6.87,6.87,0,0,0-.15,1.58Z"/><path class="cls-1" d="M572.46,154.92h-1.53V141.46h1.53Z"/><path class="cls-1" d="M576.62,154.92h-1.53V141.46h1.53Z"/><path class="cls-1" d="M584.31,145.5h1.53V153c0,.33,0,.66,0,1l.06,1h-1.62v-1.13h-.06a2.48,2.48,0,0,1-1,1,2.89,2.89,0,0,1-1.39.34,2.64,2.64,0,0,1-1.88-.61,2.37,2.37,0,0,1-.65-1.81V145.5h1.53v6.55a2.26,2.26,0,0,0,.39,1.38,1.41,1.41,0,0,0,1.21.52,1.94,1.94,0,0,0,.64-.12,1.62,1.62,0,0,0,.59-.38,2.17,2.17,0,0,0,.44-.67,2.53,2.53,0,0,0,.18-1Z"/><path class="cls-1" d="M593.71,154.92v-6.53a2.68,2.68,0,0,0-.08-.7,1.32,1.32,0,0,0-.26-.59,1.13,1.13,0,0,0-.51-.39,2,2,0,0,0-.81-.14,1.78,1.78,0,0,0-1,.25,1.73,1.73,0,0,0-.58.65,3.15,3.15,0,0,0-.27.9,8.06,8.06,0,0,0-.06,1v5.57H588.6v-7.46c0-.32,0-.65,0-1l-.06-1h1.62v1.22h.07a2.52,2.52,0,0,1,1-1.1,3.81,3.81,0,0,1,2.73-.09,1.81,1.81,0,0,1,.78.63,2.8,2.8,0,0,1,.39,1,6.92,6.92,0,0,1,.11,1.25v6.53Z"/><path class="cls-1" d="M602.91,145.5h1.53v10.38a2.87,2.87,0,0,1-.26,1.29,1.84,1.84,0,0,1-.71.8,2.72,2.72,0,0,1-1.09.4,7.57,7.57,0,0,1-1.41.12,4.11,4.11,0,0,1-1.13-.15,2.66,2.66,0,0,1-.94-.46,2.26,2.26,0,0,1-.62-.78,2.16,2.16,0,0,1-.17-1.13h1.72a1.36,1.36,0,0,0,.41,1,1.49,1.49,0,0,0,1,.35,1.6,1.6,0,0,0,1.23-.45,1.65,1.65,0,0,0,.42-1.17v-2h-.06a2.11,2.11,0,0,1-.88.87,2.53,2.53,0,0,1-1.19.3,2.81,2.81,0,0,1-1.55-.39,2.59,2.59,0,0,1-.93-1.06,4.87,4.87,0,0,1-.46-1.59,15.06,15.06,0,0,1-.12-2,7.44,7.44,0,0,1,.35-2.54,3.84,3.84,0,0,1,.83-1.38,2,2,0,0,1,1-.57,3.55,3.55,0,0,1,.79-.11,2.67,2.67,0,0,1,1.31.32,2.19,2.19,0,0,1,.89,1h0Zm0,4.67c0-.35,0-.73,0-1.15a4.86,4.86,0,0,0-.17-1.17,2.13,2.13,0,0,0-.53-.9,1.54,1.54,0,0,0-1.11-.36,1.4,1.4,0,0,0-1,.34,2.05,2.05,0,0,0-.53.86,4.21,4.21,0,0,0-.21,1.09c0,.39,0,.73,0,1a10.5,10.5,0,0,0,.13,1.86,3.48,3.48,0,0,0,.36,1.14,1.35,1.35,0,0,0,.58.58,1.84,1.84,0,0,0,.76.16,1.47,1.47,0,0,0,1.06-.37,2.16,2.16,0,0,0,.53-.89,4.25,4.25,0,0,0,.18-1.14C602.94,150.85,602.94,150.49,602.94,150.17Z"/><path class="cls-1" d="M613.31,152.24a3.08,3.08,0,0,1-.25,1.32,2.45,2.45,0,0,1-.69.89,2.72,2.72,0,0,1-1,.5,5,5,0,0,1-1.3.16,3.7,3.7,0,0,1-2.41-.72,2.77,2.77,0,0,1-.83-2.34h1.73q0,.21,0,.51a1.6,1.6,0,0,0,.18.6,1.28,1.28,0,0,0,.46.5,1.71,1.71,0,0,0,.9.2,1.87,1.87,0,0,0,1.15-.35,1.29,1.29,0,0,0,.47-1.09.92.92,0,0,0-.35-.71,4.16,4.16,0,0,0-.86-.58q-.53-.27-1.14-.54a7,7,0,0,1-1.14-.64,3.39,3.39,0,0,1-.87-.86,2,2,0,0,1-.34-1.2,2.84,2.84,0,0,1,.13-.82,2.13,2.13,0,0,1,.49-.84,2.84,2.84,0,0,1,1-.65,4.91,4.91,0,0,1,2.82-.1,2.88,2.88,0,0,1,1,.47,2,2,0,0,1,.64.83,2.42,2.42,0,0,1,.17,1.2h-1.7a1.49,1.49,0,0,0-.36-1.12,1.5,1.5,0,0,0-1.11-.39,1.64,1.64,0,0,0-1,.33,1.12,1.12,0,0,0-.42.94.91.91,0,0,0,.35.71,4,4,0,0,0,.87.56c.34.17.72.35,1.13.52a6.28,6.28,0,0,1,1.14.63,3.39,3.39,0,0,1,.87.86A2.13,2.13,0,0,1,613.31,152.24Z"/><path class="cls-1" d="M620.51,145.5H622v10.38a2.88,2.88,0,0,1-.25,1.29,1.9,1.9,0,0,1-.71.8,2.78,2.78,0,0,1-1.09.4,7.6,7.6,0,0,1-1.42.12,4.09,4.09,0,0,1-1.12-.15,2.66,2.66,0,0,1-.94-.46,2.26,2.26,0,0,1-.62-.78,2.16,2.16,0,0,1-.17-1.13h1.72a1.36,1.36,0,0,0,.41,1,1.49,1.49,0,0,0,1,.35,1.58,1.58,0,0,0,1.22-.45,1.65,1.65,0,0,0,.42-1.17v-2h0a2.11,2.11,0,0,1-.88.87,2.53,2.53,0,0,1-1.19.3,2.78,2.78,0,0,1-1.55-.39,2.59,2.59,0,0,1-.93-1.06,4.87,4.87,0,0,1-.46-1.59,15.06,15.06,0,0,1-.12-2,7.44,7.44,0,0,1,.35-2.54,3.84,3.84,0,0,1,.83-1.38,2,2,0,0,1,1-.57,3.55,3.55,0,0,1,.79-.11,2.67,2.67,0,0,1,1.31.32,2.19,2.19,0,0,1,.89,1h0Zm0,4.67c0-.35,0-.73,0-1.15a4.86,4.86,0,0,0-.17-1.17,2.05,2.05,0,0,0-.54-.9,1.5,1.5,0,0,0-1.1-.36,1.4,1.4,0,0,0-1,.34,2,2,0,0,0-.53.86,4.21,4.21,0,0,0-.21,1.09c0,.39,0,.73,0,1a11.71,11.71,0,0,0,.12,1.86,3.46,3.46,0,0,0,.37,1.14,1.35,1.35,0,0,0,.58.58,1.81,1.81,0,0,0,.76.16,1.43,1.43,0,0,0,1-.37,2.18,2.18,0,0,0,.54-.89,4.25,4.25,0,0,0,.18-1.14C620.54,150.85,620.55,150.49,620.55,150.17Z"/><path class="cls-1" d="M626.35,150.71a8.5,8.5,0,0,0,.13,1.6,2.53,2.53,0,0,0,.38,1,1.21,1.21,0,0,0,.59.47,2.55,2.55,0,0,0,.81.12,1.52,1.52,0,0,0,.69-.15,1.73,1.73,0,0,0,.5-.39,1.76,1.76,0,0,0,.32-.57,3,3,0,0,0,.13-.68h1.68a2.88,2.88,0,0,1-.91,2.31,3.6,3.6,0,0,1-2.38.73,5.72,5.72,0,0,1-1.4-.16,2.22,2.22,0,0,1-1.13-.66,3.5,3.5,0,0,1-.77-1.44,8.83,8.83,0,0,1-.28-2.5,17.42,17.42,0,0,1,.1-1.95,4.48,4.48,0,0,1,.47-1.6,2.71,2.71,0,0,1,1.07-1.08,4,4,0,0,1,1.94-.4,4.17,4.17,0,0,1,1.66.28,2.21,2.21,0,0,1,1,.85,3.66,3.66,0,0,1,.52,1.42,12,12,0,0,1,.15,2v.8Zm3.68-1.16a7.75,7.75,0,0,0-.14-1.63,2.45,2.45,0,0,0-.39-.93,1.05,1.05,0,0,0-.59-.42,2.71,2.71,0,0,0-.77-.1,1.92,1.92,0,0,0-.69.12,1.21,1.21,0,0,0-.56.44,2.86,2.86,0,0,0-.39.94,6.87,6.87,0,0,0-.15,1.58Z"/><path class="cls-1" d="M640.25,152.24a3.24,3.24,0,0,1-.25,1.32,2.45,2.45,0,0,1-.69.89,2.77,2.77,0,0,1-1,.5,4.85,4.85,0,0,1-1.29.16,3.69,3.69,0,0,1-2.41-.72,2.77,2.77,0,0,1-.84-2.34h1.73q0,.21,0,.51a1.6,1.6,0,0,0,.18.6,1.31,1.31,0,0,0,.47.5,1.7,1.7,0,0,0,.89.2,1.9,1.9,0,0,0,1.16-.35,1.29,1.29,0,0,0,.46-1.09.91.91,0,0,0-.34-.71,4,4,0,0,0-.87-.58q-.52-.27-1.14-.54a6.5,6.5,0,0,1-1.13-.64,3.39,3.39,0,0,1-.87-.86,2,2,0,0,1-.35-1.2,3.23,3.23,0,0,1,.13-.82,2.16,2.16,0,0,1,.5-.84,2.67,2.67,0,0,1,1-.65,4.87,4.87,0,0,1,2.81-.1,2.79,2.79,0,0,1,1,.47,2.06,2.06,0,0,1,.65.83,2.42,2.42,0,0,1,.16,1.2h-1.69a1.45,1.45,0,0,0-.37-1.12,1.47,1.47,0,0,0-1.11-.39,1.61,1.61,0,0,0-1,.33,1.12,1.12,0,0,0-.42.94.9.9,0,0,0,.34.71,4,4,0,0,0,.87.56c.35.17.73.35,1.14.52a6.28,6.28,0,0,1,1.14.63,3.51,3.51,0,0,1,.86.86A2.14,2.14,0,0,1,640.25,152.24Z"/><path class="cls-1" d="M644.13,146.62h0a3,3,0,0,1,.9-1,2.36,2.36,0,0,1,1.26-.32,3.87,3.87,0,0,1,1.11.16,2,2,0,0,1,1,.66,3.6,3.6,0,0,1,.69,1.43,9.78,9.78,0,0,1,.26,2.49c0,.58,0,1.17-.06,1.78a4.92,4.92,0,0,1-.35,1.63,2.7,2.7,0,0,1-.93,1.18,3,3,0,0,1-1.77.46,2.37,2.37,0,0,1-1.18-.29,2.65,2.65,0,0,1-.89-.85h-.06v4.52H642.6v-13h1.53Zm1.77,7.24a1.75,1.75,0,0,0,1-.24,1.53,1.53,0,0,0,.56-.72,4,4,0,0,0,.26-1.18c0-.48.07-1,.07-1.66q0-.52,0-1.14a3.78,3.78,0,0,0-.22-1.14,2.08,2.08,0,0,0-.56-.87,1.62,1.62,0,0,0-1.11-.34,1.3,1.3,0,0,0-1.07.43,2.57,2.57,0,0,0-.5,1.05,5.68,5.68,0,0,0-.15,1.32v1.24c0,.32,0,.66,0,1a3.5,3.5,0,0,0,.21,1,2.23,2.23,0,0,0,.53.83A1.41,1.41,0,0,0,645.9,153.86Z"/><path class="cls-1" d="M653.38,146.92h0a3.75,3.75,0,0,1,.51-.86,1.89,1.89,0,0,1,.62-.48,2.36,2.36,0,0,1,.78-.22c.29,0,.63,0,1,0v1.58l-.21,0-.2,0a.64.64,0,0,0-.2,0h-.21a2.18,2.18,0,0,0-1,.22,1.93,1.93,0,0,0-.65.58,2.41,2.41,0,0,0-.34.82,4.91,4.91,0,0,0-.09.94v5.55h-1.53V145.5h1.53Z"/><path class="cls-1" d="M662.86,153.56h0a2.26,2.26,0,0,1-2.37,1.55,3,3,0,0,1-1.24-.23,2,2,0,0,1-.79-.65,2.49,2.49,0,0,1-.42-1,6,6,0,0,1-.12-1.24,2.45,2.45,0,0,1,1.66-2.55,5.35,5.35,0,0,1,1.6-.34c.58,0,1.14-.05,1.68,0q0-.47,0-.93a2.46,2.46,0,0,0-.17-.84,1.33,1.33,0,0,0-.47-.6,1.61,1.61,0,0,0-.95-.24,1.41,1.41,0,0,0-1.16.47,1.56,1.56,0,0,0-.31,1.21H658.1a2.79,2.79,0,0,1,.87-2.21,3.77,3.77,0,0,1,2.32-.62,4.24,4.24,0,0,1,1.5.22,2.32,2.32,0,0,1,.93.61,2.1,2.1,0,0,1,.49.89,4.38,4.38,0,0,1,.14,1.11v4.54a10.61,10.61,0,0,0,0,1.12,9.9,9.9,0,0,0,.14,1.11h-1.68Zm-2.3-9.64h-1.75V142h1.75Zm2.26,6.32-1.15,0a3.59,3.59,0,0,0-1.11.19,1.81,1.81,0,0,0-.83.55,1.68,1.68,0,0,0-.32,1.13,2.07,2.07,0,0,0,.35,1.21,1.26,1.26,0,0,0,1.12.52,2.09,2.09,0,0,0,.72-.14,1.46,1.46,0,0,0,.65-.53,3.06,3.06,0,0,0,.46-1.1A6.8,6.8,0,0,0,662.82,150.24Zm1-6.32h-1.76V142h1.76Z"/><path class="cls-1" d="M672.26,148.53a2.79,2.79,0,0,0-.11-1,1.69,1.69,0,0,0-.31-.6,1.12,1.12,0,0,0-.43-.31,1.54,1.54,0,0,0-.46-.08,2.3,2.3,0,0,0-.81.13,1.34,1.34,0,0,0-.62.47,2.54,2.54,0,0,0-.41,1,7.5,7.5,0,0,0-.14,1.58,17.76,17.76,0,0,0,.09,2,3.93,3.93,0,0,0,.31,1.28,1.58,1.58,0,0,0,.6.71,1.92,1.92,0,0,0,1,.22,1.37,1.37,0,0,0,.37-.08,1.16,1.16,0,0,0,.47-.32,1.92,1.92,0,0,0,.38-.63,2.47,2.47,0,0,0,.14-1h1.61a3.57,3.57,0,0,1-.3,1.63,3,3,0,0,1-.77,1,2.82,2.82,0,0,1-1,.52,3.43,3.43,0,0,1-.92.15,5.72,5.72,0,0,1-1.4-.16,2.29,2.29,0,0,1-1.14-.66,3.62,3.62,0,0,1-.76-1.44,8.83,8.83,0,0,1-.28-2.5,17.42,17.42,0,0,1,.1-1.95,4.48,4.48,0,0,1,.47-1.6,2.71,2.71,0,0,1,1.07-1.08,3.92,3.92,0,0,1,1.94-.4,2.87,2.87,0,0,1,2.19.81,3.11,3.11,0,0,1,.7,2.4Z"/><path class="cls-1" d="M681.77,154.92v-6.38a3.94,3.94,0,0,0-.07-.79,1.52,1.52,0,0,0-.27-.62,1.35,1.35,0,0,0-.53-.41,2.26,2.26,0,0,0-1.76.06,1.55,1.55,0,0,0-.59.6,2.83,2.83,0,0,0-.3.89,7.83,7.83,0,0,0-.08,1.11v5.54h-1.53V141.46h1.53v5.26h.07a2.64,2.64,0,0,1,1-1.11,3.28,3.28,0,0,1,1.51-.29,2.48,2.48,0,0,1,1.86.66,3.21,3.21,0,0,1,.64,2.27v6.67Z"/><path class="cls-1" d="M199.21,141.46V143h-3.55v12H194V143H190.4v-1.49Z"/><path class="cls-1" d="M200.81,150.71a8.5,8.5,0,0,0,.13,1.6,2.53,2.53,0,0,0,.38,1,1.21,1.21,0,0,0,.59.47,2.55,2.55,0,0,0,.81.12,1.52,1.52,0,0,0,.69-.15,1.73,1.73,0,0,0,.5-.39,1.76,1.76,0,0,0,.32-.57,3,3,0,0,0,.13-.68H206a2.88,2.88,0,0,1-.91,2.31,3.6,3.6,0,0,1-2.38.73,5.72,5.72,0,0,1-1.4-.16,2.22,2.22,0,0,1-1.13-.66,3.5,3.5,0,0,1-.77-1.44,8.83,8.83,0,0,1-.28-2.5c0-.68,0-1.33.1-1.95a4.48,4.48,0,0,1,.47-1.6,2.71,2.71,0,0,1,1.07-1.08,3.92,3.92,0,0,1,1.94-.4,4.17,4.17,0,0,1,1.66.28,2.21,2.21,0,0,1,1,.85,3.66,3.66,0,0,1,.52,1.42,12,12,0,0,1,.15,2v.8Zm3.68-1.16a7.75,7.75,0,0,0-.14-1.63A2.45,2.45,0,0,0,204,147a1.05,1.05,0,0,0-.59-.42,2.71,2.71,0,0,0-.77-.1,1.92,1.92,0,0,0-.69.12,1.21,1.21,0,0,0-.56.44,2.86,2.86,0,0,0-.39.94,6.87,6.87,0,0,0-.15,1.58Z"/><path class="cls-1" d="M210.14,154.92h-1.53V141.46h1.53Z"/><path class="cls-1" d="M214.28,150.71a7.73,7.73,0,0,0,.13,1.6,2.71,2.71,0,0,0,.37,1,1.23,1.23,0,0,0,.6.47,2.49,2.49,0,0,0,.8.12,1.52,1.52,0,0,0,.69-.15,1.65,1.65,0,0,0,.51-.39,1.74,1.74,0,0,0,.31-.57,2.22,2.22,0,0,0,.13-.68h1.68a2.84,2.84,0,0,1-.9,2.31,3.62,3.62,0,0,1-2.38.73,5.72,5.72,0,0,1-1.4-.16,2.29,2.29,0,0,1-1.14-.66,3.5,3.5,0,0,1-.76-1.44,8.83,8.83,0,0,1-.28-2.5,17.42,17.42,0,0,1,.1-1.95,4.29,4.29,0,0,1,.47-1.6,2.71,2.71,0,0,1,1.07-1.08,3.92,3.92,0,0,1,1.94-.4,4.2,4.2,0,0,1,1.66.28,2.21,2.21,0,0,1,1,.85,3.83,3.83,0,0,1,.52,1.42,12,12,0,0,1,.15,2v.8Zm3.67-1.16a7.13,7.13,0,0,0-.14-1.63,2.46,2.46,0,0,0-.38-.93,1.05,1.05,0,0,0-.59-.42,2.76,2.76,0,0,0-.77-.1,1.92,1.92,0,0,0-.69.12,1.16,1.16,0,0,0-.56.44,2.86,2.86,0,0,0-.39.94,6.87,6.87,0,0,0-.15,1.58Z"/><path class="cls-1" d="M222.39,145.5v-1.82a2.44,2.44,0,0,1,.24-1.16,1.79,1.79,0,0,1,.6-.7,2.23,2.23,0,0,1,.87-.34,6.63,6.63,0,0,1,1-.08h.4a2,2,0,0,1,.33.05v1.1a3.32,3.32,0,0,0-1,.05,1.27,1.27,0,0,0-.58.29.87.87,0,0,0-.27.46,2.35,2.35,0,0,0-.07.54v1.6h1.91v1.16h-1.91v8.26h-1.53v-8.26h-1.45V145.5Z"/><path class="cls-1" d="M230.62,155.11a5.72,5.72,0,0,1-1.4-.16,2.29,2.29,0,0,1-1.14-.66,3.62,3.62,0,0,1-.76-1.44,8.83,8.83,0,0,1-.28-2.5,17.42,17.42,0,0,1,.1-1.95,4.48,4.48,0,0,1,.47-1.6,2.71,2.71,0,0,1,1.07-1.08,4.9,4.9,0,0,1,3.88,0,2.71,2.71,0,0,1,1.07,1.08,4.29,4.29,0,0,1,.47,1.6,17.42,17.42,0,0,1,.1,1.95,8.83,8.83,0,0,1-.28,2.5,3.5,3.5,0,0,1-.76,1.44A2.29,2.29,0,0,1,232,155,5.72,5.72,0,0,1,230.62,155.11Zm0-1.25a1.92,1.92,0,0,0,1-.22,1.6,1.6,0,0,0,.61-.71,4,4,0,0,0,.3-1.28,17.76,17.76,0,0,0,.09-2,7.5,7.5,0,0,0-.14-1.58,2.72,2.72,0,0,0-.4-1,1.42,1.42,0,0,0-.63-.47,2.59,2.59,0,0,0-1.62,0,1.42,1.42,0,0,0-.63.47,2.72,2.72,0,0,0-.4,1,7.5,7.5,0,0,0-.14,1.58,17.76,17.76,0,0,0,.09,2,4.23,4.23,0,0,0,.3,1.28,1.6,1.6,0,0,0,.61.71A1.92,1.92,0,0,0,230.62,153.86Z"/><path class="cls-1" d="M241.74,154.92v-6.53a3.19,3.19,0,0,0-.08-.7,1.44,1.44,0,0,0-.26-.59,1.13,1.13,0,0,0-.51-.39,2,2,0,0,0-.81-.14,1.76,1.76,0,0,0-1,.25,1.73,1.73,0,0,0-.58.65,3.15,3.15,0,0,0-.27.9,8.06,8.06,0,0,0-.06,1v5.57h-1.53v-7.46c0-.32,0-.65,0-1s0-.65-.07-1h1.63v1.22h.07a2.52,2.52,0,0,1,1-1.1,3.81,3.81,0,0,1,2.73-.09,1.72,1.72,0,0,1,.77.63,2.63,2.63,0,0,1,.4,1,6.92,6.92,0,0,1,.11,1.25v6.53Z"/><path class="cls-1" d="M245.66,149.12h4.1v1.44h-4.1Z"/><path class="cls-1" d="M254.27,154.92h-1.71V141.46h1.71Z"/><path class="cls-1" d="M262.46,154.92v-6.53a3.2,3.2,0,0,0-.07-.7,1.59,1.59,0,0,0-.26-.59,1.21,1.21,0,0,0-.52-.39,1.93,1.93,0,0,0-.81-.14,1.78,1.78,0,0,0-1,.25,1.7,1.7,0,0,0-.57.65,2.62,2.62,0,0,0-.27.9,6.46,6.46,0,0,0-.07,1v5.57h-1.53v-7.46c0-.32,0-.65,0-1l-.06-1h1.62v1.22H259a2.57,2.57,0,0,1,1-1.1,3.24,3.24,0,0,1,1.49-.3,3.18,3.18,0,0,1,1.24.21,1.81,1.81,0,0,1,.78.63,2.8,2.8,0,0,1,.39,1,6.92,6.92,0,0,1,.11,1.25v6.53Z"/><path class="cls-1" d="M266.85,145.5v-1.81l1.53-.69v2.5h2.05v1.16h-2.05v5.76c0,.15,0,.31,0,.47a1.1,1.1,0,0,0,.15.44,1,1,0,0,0,.42.33,2.21,2.21,0,0,0,.81.13l.27,0,.42-.06v1.18l-.75.09a5,5,0,0,1-.76.06,2.47,2.47,0,0,1-1.6-.43,1.55,1.55,0,0,1-.5-1.25v-6.7H265.3V145.5Z"/><path class="cls-1" d="M273.36,150.71a7.73,7.73,0,0,0,.13,1.6,2.53,2.53,0,0,0,.37,1,1.19,1.19,0,0,0,.6.47,2.45,2.45,0,0,0,.8.12,1.52,1.52,0,0,0,.69-.15,1.5,1.5,0,0,0,.5-.39,1.76,1.76,0,0,0,.32-.57,2.56,2.56,0,0,0,.13-.68h1.68a2.85,2.85,0,0,1-.91,2.31,3.59,3.59,0,0,1-2.37.73,5.66,5.66,0,0,1-1.4-.16,2.21,2.21,0,0,1-1.14-.66,3.62,3.62,0,0,1-.77-1.44,9.21,9.21,0,0,1-.28-2.5,17.36,17.36,0,0,1,.11-1.95,4.29,4.29,0,0,1,.46-1.6,2.74,2.74,0,0,1,1.08-1.08,3.89,3.89,0,0,1,1.94-.4,4.2,4.2,0,0,1,1.66.28,2.24,2.24,0,0,1,1,.85,3.66,3.66,0,0,1,.52,1.42,12,12,0,0,1,.15,2v.8Zm3.67-1.16a7.75,7.75,0,0,0-.14-1.63,2.46,2.46,0,0,0-.38-.93,1,1,0,0,0-.6-.42,2.64,2.64,0,0,0-.76-.1,1.92,1.92,0,0,0-.69.12,1.12,1.12,0,0,0-.56.44,2.85,2.85,0,0,0-.4.94,7.57,7.57,0,0,0-.14,1.58Z"/><path class="cls-1" d="M282.78,146.92h0a3.75,3.75,0,0,1,.52-.86,1.85,1.85,0,0,1,.61-.48,2.36,2.36,0,0,1,.78-.22c.3,0,.63,0,1,0v1.58l-.2,0-.21,0a.63.63,0,0,0-.19,0h-.22a2.14,2.14,0,0,0-1,.22,2,2,0,0,0-.66.58,2.21,2.21,0,0,0-.33.82,4.91,4.91,0,0,0-.09.94v5.55h-1.53V145.5h1.53Z"/><path class="cls-1" d="M286.32,145.5H288l2.1,8h0l2.28-8h1.6l-2.95,9.42h-2Z"/><path class="cls-1" d="M295.55,141.46h1.72v1.64h-1.72Zm1.63,13.46h-1.53V145.5h1.53Z"/><path class="cls-1" d="M301.32,150.71a7.73,7.73,0,0,0,.13,1.6,2.53,2.53,0,0,0,.37,1,1.19,1.19,0,0,0,.6.47,2.45,2.45,0,0,0,.8.12,1.52,1.52,0,0,0,.69-.15,1.5,1.5,0,0,0,.5-.39,1.59,1.59,0,0,0,.32-.57,2.56,2.56,0,0,0,.13-.68h1.68a2.82,2.82,0,0,1-.91,2.31,3.59,3.59,0,0,1-2.37.73,5.66,5.66,0,0,1-1.4-.16,2.21,2.21,0,0,1-1.14-.66,3.62,3.62,0,0,1-.77-1.44,9.21,9.21,0,0,1-.28-2.5,17.36,17.36,0,0,1,.11-1.95,4.48,4.48,0,0,1,.46-1.6,2.74,2.74,0,0,1,1.08-1.08,3.92,3.92,0,0,1,1.94-.4,4.2,4.2,0,0,1,1.66.28,2.24,2.24,0,0,1,1,.85,3.51,3.51,0,0,1,.52,1.42,12,12,0,0,1,.15,2v.8Zm3.67-1.16a7.75,7.75,0,0,0-.14-1.63,2.46,2.46,0,0,0-.38-.93,1,1,0,0,0-.6-.42,2.64,2.64,0,0,0-.76-.1,1.92,1.92,0,0,0-.69.12,1.16,1.16,0,0,0-.56.44,2.86,2.86,0,0,0-.39.94,6.87,6.87,0,0,0-.15,1.58Z"/><path class="cls-1" d="M308,145.5h1.69l1.7,8.12h0l2.09-8.12h2.16l1.92,8.12h0l1.86-8.12h1.63l-2.52,9.42h-2l-2-8h0l-2.11,8h-2.05Z"/><path class="cls-1" d="M384.16,154.92V141.46h1.72v5.91h.05l4.71-5.91h1.94l-4.89,6.08,5.17,7.38h-2.21l-4.72-7h-.05v7Z"/><path class="cls-1" d="M399.4,145.5h1.53V153c0,.33,0,.66,0,1s0,.66.07,1H399.4v-1.13h0a2.5,2.5,0,0,1-1,1,2.82,2.82,0,0,1-1.38.34,2.67,2.67,0,0,1-1.89-.61,2.37,2.37,0,0,1-.65-1.81V145.5H396v6.55a2.26,2.26,0,0,0,.39,1.38,1.42,1.42,0,0,0,1.22.52,1.89,1.89,0,0,0,.63-.12,1.74,1.74,0,0,0,.6-.38,2.36,2.36,0,0,0,.44-.67,2.73,2.73,0,0,0,.17-1Z"/><path class="cls-1" d="M405.28,146.92h0a3.75,3.75,0,0,1,.51-.86,1.85,1.85,0,0,1,.61-.48,2.42,2.42,0,0,1,.79-.22,9.91,9.91,0,0,1,1,0v1.58l-.21,0-.2,0a.69.69,0,0,0-.2,0h-.21a2.15,2.15,0,0,0-1.05.22,1.93,1.93,0,0,0-.65.58,2.23,2.23,0,0,0-.34.82,4.91,4.91,0,0,0-.09.94v5.55h-1.53V145.5h1.53Z"/><path class="cls-1" d="M415,146.9l-4.16,6.77h4.29v1.25h-6v-1.43l4.11-6.7v0h-3.9V145.5H415Z"/><path class="cls-1" d="M422,153.56h0a2.59,2.59,0,0,1-.91,1.19,2.65,2.65,0,0,1-1.46.36,3,3,0,0,1-1.24-.23,2,2,0,0,1-.79-.65,2.49,2.49,0,0,1-.42-1A6,6,0,0,1,417,152a2.71,2.71,0,0,1,.47-1.67,2.76,2.76,0,0,1,1.19-.88,5.42,5.42,0,0,1,1.6-.34c.59,0,1.15-.05,1.68,0a7.22,7.22,0,0,0,0-.93,2.73,2.73,0,0,0-.16-.84,1.29,1.29,0,0,0-.48-.6,1.57,1.57,0,0,0-.94-.24,1.44,1.44,0,0,0-1.17.47,1.6,1.6,0,0,0-.31,1.21h-1.66a2.79,2.79,0,0,1,.87-2.21,3.79,3.79,0,0,1,2.32-.62,4.34,4.34,0,0,1,1.51.22,2.32,2.32,0,0,1,.93.61,2.08,2.08,0,0,1,.48.89,4,4,0,0,1,.14,1.11v4.54c0,.37,0,.74.05,1.12s.08.75.14,1.11H422Zm0-3.32-1.14,0a3.48,3.48,0,0,0-1.11.19,1.72,1.72,0,0,0-.83.55,1.68,1.68,0,0,0-.33,1.13,2.15,2.15,0,0,0,.35,1.21,1.26,1.26,0,0,0,1.12.52,2,2,0,0,0,.72-.14,1.46,1.46,0,0,0,.65-.53,2.89,2.89,0,0,0,.46-1.1A6.8,6.8,0,0,0,422,150.24Z"/><path class="cls-1" d="M431.52,145.5h1.53V153c0,.33,0,.66,0,1s0,.66.07,1h-1.63v-1.13h0a2.5,2.5,0,0,1-1,1,2.82,2.82,0,0,1-1.38.34,2.63,2.63,0,0,1-1.88-.61,2.34,2.34,0,0,1-.66-1.81V145.5h1.53v6.55a2.26,2.26,0,0,0,.39,1.38,1.43,1.43,0,0,0,1.22.52,1.84,1.84,0,0,0,.63-.12,1.65,1.65,0,0,0,.6-.38,2.36,2.36,0,0,0,.44-.67,2.73,2.73,0,0,0,.17-1Z"/><path class="cls-1" d="M436.09,145.5v-1.82a2.44,2.44,0,0,1,.24-1.16,1.79,1.79,0,0,1,.6-.7,2.23,2.23,0,0,1,.87-.34,6.63,6.63,0,0,1,1-.08h.4a2,2,0,0,1,.33.05v1.1a3.32,3.32,0,0,0-1,.05,1.27,1.27,0,0,0-.58.29.87.87,0,0,0-.27.46,2.35,2.35,0,0,0-.07.54v1.6h1.91v1.16h-1.91v8.26h-1.53v-8.26h-1.45V145.5Z"/><path class="cls-1" d="M446,145.5h1.53v10.38a2.88,2.88,0,0,1-.25,1.29,2,2,0,0,1-.71.8,2.84,2.84,0,0,1-1.09.4,7.68,7.68,0,0,1-1.42.12,4.17,4.17,0,0,1-1.13-.15,2.7,2.7,0,0,1-.93-.46,2.17,2.17,0,0,1-.63-.78,2.27,2.27,0,0,1-.16-1.13h1.71a1.36,1.36,0,0,0,.41,1,1.51,1.51,0,0,0,1,.35,1.59,1.59,0,0,0,1.22-.45,1.65,1.65,0,0,0,.42-1.17v-2h-.06a2.08,2.08,0,0,1-.87.87,2.6,2.6,0,0,1-1.2.3,2.75,2.75,0,0,1-1.54-.39,2.69,2.69,0,0,1-.94-1.06,5.12,5.12,0,0,1-.45-1.59,15,15,0,0,1-.13-2,7.17,7.17,0,0,1,.36-2.54A3.7,3.7,0,0,1,442,146a2,2,0,0,1,1-.57,3.48,3.48,0,0,1,.78-.11,2.69,2.69,0,0,1,1.32.32,2.17,2.17,0,0,1,.88,1h0Zm0,4.67c0-.35,0-.73,0-1.15a4.41,4.41,0,0,0-.18-1.17,2,2,0,0,0-.53-.9,1.53,1.53,0,0,0-1.1-.36,1.43,1.43,0,0,0-1,.34,2.05,2.05,0,0,0-.53.86,4.21,4.21,0,0,0-.2,1.09c0,.39,0,.73,0,1a11.71,11.71,0,0,0,.12,1.86,3.48,3.48,0,0,0,.36,1.14,1.46,1.46,0,0,0,.58.58,1.89,1.89,0,0,0,.77.16,1.43,1.43,0,0,0,1-.37,2.16,2.16,0,0,0,.53-.89,4.25,4.25,0,0,0,.19-1.14C446,150.85,446,150.49,446,150.17Z"/><path class="cls-1" d="M455.18,153.56h0a2.26,2.26,0,0,1-2.37,1.55,3,3,0,0,1-1.24-.23,2,2,0,0,1-.79-.65,2.49,2.49,0,0,1-.42-1,6,6,0,0,1-.12-1.24,2.45,2.45,0,0,1,1.66-2.55,5.35,5.35,0,0,1,1.6-.34c.59,0,1.14-.05,1.68,0q0-.47,0-.93a2.46,2.46,0,0,0-.17-.84,1.33,1.33,0,0,0-.47-.6,1.61,1.61,0,0,0-.95-.24,1.41,1.41,0,0,0-1.16.47,1.56,1.56,0,0,0-.31,1.21h-1.66a2.79,2.79,0,0,1,.87-2.21,3.77,3.77,0,0,1,2.32-.62,4.24,4.24,0,0,1,1.5.22,2.32,2.32,0,0,1,.93.61,2.1,2.1,0,0,1,.49.89,4.38,4.38,0,0,1,.14,1.11v4.54a10.61,10.61,0,0,0,.05,1.12,9.9,9.9,0,0,0,.14,1.11h-1.68Zm0-3.32-1.15,0a3.59,3.59,0,0,0-1.11.19,1.81,1.81,0,0,0-.83.55,1.68,1.68,0,0,0-.32,1.13,2.07,2.07,0,0,0,.35,1.21,1.26,1.26,0,0,0,1.12.52,2,2,0,0,0,.72-.14,1.46,1.46,0,0,0,.65-.53,3.06,3.06,0,0,0,.46-1.1A6.8,6.8,0,0,0,455.14,150.24Z"/><path class="cls-1" d="M461.31,154.92h-1.53V141.46h1.53v5h.06a2.74,2.74,0,0,1,.9-.84,2.21,2.21,0,0,1,1.17-.29,3,3,0,0,1,1.77.45,2.68,2.68,0,0,1,.94,1.19,5.42,5.42,0,0,1,.35,1.63c0,.6.06,1.2.06,1.78a9.21,9.21,0,0,1-.27,2.48,3.72,3.72,0,0,1-.69,1.44,1.91,1.91,0,0,1-1,.66,3.75,3.75,0,0,1-1.1.16,2.27,2.27,0,0,1-1.26-.33,2.71,2.71,0,0,1-.91-1h0Zm0-5.09v1.24a5.56,5.56,0,0,0,.15,1.32,2.48,2.48,0,0,0,.51,1,1.28,1.28,0,0,0,1.06.43,1.59,1.59,0,0,0,1.11-.34,2.24,2.24,0,0,0,.57-.86,4,4,0,0,0,.21-1.12c0-.41,0-.79,0-1.15,0-.63,0-1.19-.06-1.66a4.1,4.1,0,0,0-.27-1.19,1.5,1.5,0,0,0-.55-.73,1.78,1.78,0,0,0-1-.24,1.38,1.38,0,0,0-1,.33,2,2,0,0,0-.53.83,4.07,4.07,0,0,0-.22,1.07C461.33,149.18,461.31,149.52,461.31,149.83Z"/><path class="cls-1" d="M470.47,150.71a8.5,8.5,0,0,0,.13,1.6,2.53,2.53,0,0,0,.38,1,1.21,1.21,0,0,0,.59.47,2.55,2.55,0,0,0,.81.12,1.52,1.52,0,0,0,.69-.15,1.73,1.73,0,0,0,.5-.39,1.76,1.76,0,0,0,.32-.57,3,3,0,0,0,.13-.68h1.68a2.88,2.88,0,0,1-.91,2.31,3.6,3.6,0,0,1-2.38.73A5.78,5.78,0,0,1,471,155a2.22,2.22,0,0,1-1.13-.66,3.5,3.5,0,0,1-.77-1.44,8.83,8.83,0,0,1-.28-2.5c0-.68,0-1.33.1-1.95a4.48,4.48,0,0,1,.47-1.6,2.71,2.71,0,0,1,1.07-1.08,4,4,0,0,1,1.94-.4,4.17,4.17,0,0,1,1.66.28,2.21,2.21,0,0,1,1,.85,3.66,3.66,0,0,1,.52,1.42,12,12,0,0,1,.15,2v.8Zm3.68-1.16a7.75,7.75,0,0,0-.14-1.63,2.63,2.63,0,0,0-.38-.93,1.11,1.11,0,0,0-.6-.42,2.71,2.71,0,0,0-.77-.1,1.92,1.92,0,0,0-.69.12,1.21,1.21,0,0,0-.56.44,2.86,2.86,0,0,0-.39.94,6.87,6.87,0,0,0-.15,1.58Z"/><path class="cls-1" d="M736.36,154.92V141.46h1.72v5.82h4.71v-5.82h1.72v13.46h-1.72v-6.15h-4.71v6.15Z"/><path class="cls-1" d="M750.8,155.11a5.66,5.66,0,0,1-1.4-.16,2.21,2.21,0,0,1-1.14-.66,3.5,3.5,0,0,1-.76-1.44,8.83,8.83,0,0,1-.28-2.5,17.42,17.42,0,0,1,.1-1.95,4.48,4.48,0,0,1,.46-1.6,2.74,2.74,0,0,1,1.08-1.08,4.9,4.9,0,0,1,3.88,0,2.71,2.71,0,0,1,1.07,1.08,4.48,4.48,0,0,1,.47,1.6c.06.62.1,1.27.1,1.95a8.83,8.83,0,0,1-.28,2.5,3.5,3.5,0,0,1-.77,1.44,2.22,2.22,0,0,1-1.13.66A5.78,5.78,0,0,1,750.8,155.11Zm0-1.25a1.92,1.92,0,0,0,1-.22,1.58,1.58,0,0,0,.6-.71,4.2,4.2,0,0,0,.31-1.28,18.05,18.05,0,0,0,.08-2,6.88,6.88,0,0,0-.14-1.58,2.39,2.39,0,0,0-.4-1,1.34,1.34,0,0,0-.62-.47,2.59,2.59,0,0,0-1.62,0,1.36,1.36,0,0,0-.63.47,2.54,2.54,0,0,0-.4,1,7.5,7.5,0,0,0-.14,1.58c0,.77,0,1.42.08,2a4.2,4.2,0,0,0,.31,1.28,1.54,1.54,0,0,0,.61.71A1.9,1.9,0,0,0,750.8,153.86Z"/><path class="cls-1" d="M762.87,152.24a3.07,3.07,0,0,1-.26,1.32,2.26,2.26,0,0,1-.69.89,2.72,2.72,0,0,1-1,.5,5,5,0,0,1-1.3.16,3.66,3.66,0,0,1-2.4-.72,2.74,2.74,0,0,1-.84-2.34h1.73q0,.21,0,.51a1.6,1.6,0,0,0,.18.6,1.36,1.36,0,0,0,.46.5,1.71,1.71,0,0,0,.9.2,1.92,1.92,0,0,0,1.16-.35,1.29,1.29,0,0,0,.46-1.09.91.91,0,0,0-.34-.71,4,4,0,0,0-.87-.58q-.52-.27-1.14-.54a7,7,0,0,1-1.14-.64,3.51,3.51,0,0,1-.86-.86,2,2,0,0,1-.35-1.2,2.84,2.84,0,0,1,.13-.82,2,2,0,0,1,.5-.84,2.71,2.71,0,0,1,1-.65,4.25,4.25,0,0,1,1.63-.26,4.17,4.17,0,0,1,1.19.16,2.88,2.88,0,0,1,1,.47,2,2,0,0,1,.64.83,2.42,2.42,0,0,1,.17,1.2h-1.7a1.45,1.45,0,0,0-.36-1.12,1.49,1.49,0,0,0-1.11-.39,1.64,1.64,0,0,0-1,.33,1.11,1.11,0,0,0-.41.94.9.9,0,0,0,.34.71,4,4,0,0,0,.87.56c.35.17.73.35,1.14.52a5.88,5.88,0,0,1,1.13.63,3.39,3.39,0,0,1,.87.86A2.14,2.14,0,0,1,762.87,152.24Z"/><path class="cls-1" d="M766.75,146.62h0a3,3,0,0,1,.91-1,2.36,2.36,0,0,1,1.26-.32,3.87,3.87,0,0,1,1.11.16,2,2,0,0,1,1,.66,3.89,3.89,0,0,1,.69,1.43,9.78,9.78,0,0,1,.26,2.49c0,.58,0,1.17-.06,1.78a5.19,5.19,0,0,1-.35,1.63,2.65,2.65,0,0,1-.94,1.18,2.93,2.93,0,0,1-1.77.46,2.31,2.31,0,0,1-1.17-.29,2.68,2.68,0,0,1-.9-.85h0v4.52h-1.53v-13h1.53Zm1.77,7.24a1.75,1.75,0,0,0,1-.24,1.53,1.53,0,0,0,.56-.72,4.4,4.4,0,0,0,.26-1.18c0-.48.06-1,.06-1.66,0-.35,0-.73,0-1.14a4.12,4.12,0,0,0-.22-1.14,2,2,0,0,0-.57-.87,1.59,1.59,0,0,0-1.11-.34,1.29,1.29,0,0,0-1.06.43,2.34,2.34,0,0,0-.5,1.05,5.68,5.68,0,0,0-.15,1.32v1.24c0,.32,0,.66,0,1a3.84,3.84,0,0,0,.22,1,2.11,2.11,0,0,0,.53.83A1.39,1.39,0,0,0,768.52,153.86Z"/><path class="cls-1" d="M774.28,141.46H776v1.64h-1.72Zm1.62,13.46h-1.52V145.5h1.52Z"/><path class="cls-1" d="M778.72,145.5v-1.81l1.53-.69v2.5h2v1.16h-2v5.76c0,.15,0,.31,0,.47a.86.86,0,0,0,.15.44,1,1,0,0,0,.42.33,2.13,2.13,0,0,0,.81.13l.26,0,.43-.06v1.18l-.76.09a4.74,4.74,0,0,1-.75.06,2.52,2.52,0,0,1-1.61-.43,1.58,1.58,0,0,1-.5-1.25v-6.7h-1.55V145.5Z"/><path class="cls-1" d="M788.59,153.56h0a2.59,2.59,0,0,1-.91,1.19,2.68,2.68,0,0,1-1.46.36,3,3,0,0,1-1.24-.23,2,2,0,0,1-.79-.65,2.49,2.49,0,0,1-.42-1,6,6,0,0,1-.12-1.24,2.65,2.65,0,0,1,.47-1.67,2.7,2.7,0,0,1,1.19-.88,5.35,5.35,0,0,1,1.6-.34c.59,0,1.15-.05,1.68,0q0-.47,0-.93a2.46,2.46,0,0,0-.17-.84,1.27,1.27,0,0,0-.47-.6,1.57,1.57,0,0,0-.94-.24,1.42,1.42,0,0,0-1.17.47,1.6,1.6,0,0,0-.31,1.21h-1.66a2.79,2.79,0,0,1,.87-2.21,3.79,3.79,0,0,1,2.32-.62,4.24,4.24,0,0,1,1.5.22,2.29,2.29,0,0,1,.94.61,2.08,2.08,0,0,1,.48.89,4.38,4.38,0,0,1,.14,1.11v4.54c0,.37,0,.74,0,1.12s.08.75.14,1.11h-1.68Zm0-3.32-1.14,0a3.48,3.48,0,0,0-1.11.19,1.72,1.72,0,0,0-.83.55,1.68,1.68,0,0,0-.33,1.13,2.15,2.15,0,0,0,.35,1.21,1.26,1.26,0,0,0,1.12.52,2,2,0,0,0,.72-.14,1.46,1.46,0,0,0,.65-.53,2.89,2.89,0,0,0,.46-1.1A6.8,6.8,0,0,0,788.55,150.24Z"/><path class="cls-1" d="M793.23,145.5v-1.81l1.53-.69v2.5h2.06v1.16h-2.06v5.76c0,.15,0,.31,0,.47a.86.86,0,0,0,.15.44,1,1,0,0,0,.42.33,2.13,2.13,0,0,0,.81.13l.26,0,.43-.06v1.18l-.75.09a5,5,0,0,1-.76.06,2.47,2.47,0,0,1-1.6-.43,1.56,1.56,0,0,1-.51-1.25v-6.7h-1.55V145.5Z"/><path class="cls-1" d="M798.14,141.46h1.72v1.64h-1.72Zm1.62,13.46h-1.53V145.5h1.53Z"/><path class="cls-1" d="M805.73,155.11a5.78,5.78,0,0,1-1.4-.16,2.22,2.22,0,0,1-1.13-.66,3.5,3.5,0,0,1-.77-1.44,8.83,8.83,0,0,1-.28-2.5c0-.68,0-1.33.1-1.95a4.48,4.48,0,0,1,.47-1.6,2.71,2.71,0,0,1,1.07-1.08,4.9,4.9,0,0,1,3.88,0,2.71,2.71,0,0,1,1.07,1.08,4.29,4.29,0,0,1,.47,1.6,17.42,17.42,0,0,1,.1,1.95,8.83,8.83,0,0,1-.28,2.5,3.5,3.5,0,0,1-.76,1.44,2.21,2.21,0,0,1-1.14.66A5.66,5.66,0,0,1,805.73,155.11Zm0-1.25a1.9,1.9,0,0,0,1-.22,1.54,1.54,0,0,0,.61-.71,4.2,4.2,0,0,0,.31-1.28c0-.53.08-1.18.08-2a7.5,7.5,0,0,0-.14-1.58,2.54,2.54,0,0,0-.4-1,1.36,1.36,0,0,0-.63-.47,2.59,2.59,0,0,0-1.62,0,1.34,1.34,0,0,0-.62.47,2.54,2.54,0,0,0-.41,1,7.5,7.5,0,0,0-.14,1.58,17.76,17.76,0,0,0,.09,2,3.93,3.93,0,0,0,.31,1.28,1.58,1.58,0,0,0,.6.71A1.92,1.92,0,0,0,805.73,153.86Z"/><path class="cls-1" d="M816.85,154.92v-6.53a3.19,3.19,0,0,0-.08-.7,1.32,1.32,0,0,0-.26-.59,1.13,1.13,0,0,0-.51-.39,2,2,0,0,0-.81-.14,1.78,1.78,0,0,0-1,.25,1.73,1.73,0,0,0-.58.65,3.15,3.15,0,0,0-.27.9,8.06,8.06,0,0,0-.06,1v5.57h-1.53v-7.46c0-.32,0-.65,0-1s0-.65-.07-1h1.63v1.22h.07a2.52,2.52,0,0,1,1-1.1,3.81,3.81,0,0,1,2.73-.09,1.81,1.81,0,0,1,.78.63,2.8,2.8,0,0,1,.39,1,6.92,6.92,0,0,1,.11,1.25v6.53Z"/><path class="cls-1" d="M880.67,154.92h-2.06l-3.89-13.46h1.86l3.08,11.84h0l3.15-11.84h1.75Z"/><path class="cls-1" d="M887,150.71a7.73,7.73,0,0,0,.13,1.6,2.71,2.71,0,0,0,.37,1,1.19,1.19,0,0,0,.6.47,2.49,2.49,0,0,0,.8.12,1.52,1.52,0,0,0,.69-.15,1.65,1.65,0,0,0,.51-.39,1.74,1.74,0,0,0,.31-.57,2.22,2.22,0,0,0,.13-.68h1.68a2.84,2.84,0,0,1-.9,2.31,3.62,3.62,0,0,1-2.38.73,5.72,5.72,0,0,1-1.4-.16,2.25,2.25,0,0,1-1.14-.66,3.5,3.5,0,0,1-.76-1.44,8.83,8.83,0,0,1-.28-2.5,17.42,17.42,0,0,1,.1-1.95,4.29,4.29,0,0,1,.47-1.6,2.71,2.71,0,0,1,1.07-1.08,3.92,3.92,0,0,1,1.94-.4,4.2,4.2,0,0,1,1.66.28,2.26,2.26,0,0,1,1,.85,3.83,3.83,0,0,1,.52,1.42,12,12,0,0,1,.15,2v.8Zm3.67-1.16a7.13,7.13,0,0,0-.14-1.63,2.46,2.46,0,0,0-.38-.93,1,1,0,0,0-.6-.42,2.64,2.64,0,0,0-.76-.1,1.92,1.92,0,0,0-.69.12,1.16,1.16,0,0,0-.56.44,2.86,2.86,0,0,0-.39.94,6.87,6.87,0,0,0-.15,1.58Z"/><path class="cls-1" d="M896.41,146.92h0a3.75,3.75,0,0,1,.51-.86,1.85,1.85,0,0,1,.61-.48,2.49,2.49,0,0,1,.79-.22,9.91,9.91,0,0,1,1,0v1.58l-.21,0-.2,0a.69.69,0,0,0-.2,0h-.21a2.15,2.15,0,0,0-1,.22,1.93,1.93,0,0,0-.65.58,2.23,2.23,0,0,0-.34.82,4.91,4.91,0,0,0-.09.94v5.55h-1.53V145.5h1.53Z"/><path class="cls-1" d="M901.2,145.5v-1.81l1.53-.69v2.5h2v1.16h-2v5.76c0,.15,0,.31,0,.47a.86.86,0,0,0,.15.44,1,1,0,0,0,.42.33,2.13,2.13,0,0,0,.81.13l.26,0,.43-.06v1.18l-.75.09a5,5,0,0,1-.76.06,2.47,2.47,0,0,1-1.6-.43,1.56,1.56,0,0,1-.51-1.25v-6.7h-1.55V145.5Z"/><path class="cls-1" d="M907.81,146.92h0a4.14,4.14,0,0,1,.52-.86,1.85,1.85,0,0,1,.61-.48,2.35,2.35,0,0,1,.79-.22,9.83,9.83,0,0,1,1,0v1.58l-.2,0-.21,0a.58.58,0,0,0-.19,0h-.22a2.14,2.14,0,0,0-1,.22,1.93,1.93,0,0,0-.65.58,2.07,2.07,0,0,0-.34.82,4.91,4.91,0,0,0-.09.94v5.55h-1.53V145.5h1.53Z"/><path class="cls-1" d="M917.28,153.56h0a2.59,2.59,0,0,1-.91,1.19,2.64,2.64,0,0,1-1.45.36,3,3,0,0,1-1.24-.23,2.05,2.05,0,0,1-.8-.65,2.49,2.49,0,0,1-.42-1,6,6,0,0,1-.12-1.24,2.71,2.71,0,0,1,.47-1.67,2.76,2.76,0,0,1,1.19-.88,5.42,5.42,0,0,1,1.61-.34c.58,0,1.14-.05,1.67,0a7.21,7.21,0,0,0,0-.93,2.46,2.46,0,0,0-.16-.84,1.29,1.29,0,0,0-.48-.6,1.57,1.57,0,0,0-.94-.24,1.44,1.44,0,0,0-1.17.47,1.59,1.59,0,0,0-.3,1.21h-1.66a2.76,2.76,0,0,1,.86-2.21,3.79,3.79,0,0,1,2.32-.62,4.3,4.3,0,0,1,1.51.22,2.32,2.32,0,0,1,.93.61,2.08,2.08,0,0,1,.48.89,4,4,0,0,1,.14,1.11v4.54c0,.37,0,.74.05,1.12s.08.75.14,1.11h-1.68Zm0-3.32-1.14,0a3.48,3.48,0,0,0-1.11.19,1.76,1.76,0,0,0-.83.55,1.68,1.68,0,0,0-.33,1.13,2.08,2.08,0,0,0,.36,1.21,1.23,1.23,0,0,0,1.11.52,2,2,0,0,0,.72-.14,1.48,1.48,0,0,0,.66-.53,3.06,3.06,0,0,0,.45-1.1A6.8,6.8,0,0,0,917.24,150.24Z"/><path class="cls-1" d="M926.74,145.5h1.53v10.38a3,3,0,0,1-.25,1.29,2,2,0,0,1-.71.8,2.84,2.84,0,0,1-1.09.4,7.76,7.76,0,0,1-1.42.12,4.11,4.11,0,0,1-1.13-.15,2.62,2.62,0,0,1-.93-.46A2,2,0,0,1,922,156h1.71a1.36,1.36,0,0,0,.41,1,1.49,1.49,0,0,0,1,.35,1.59,1.59,0,0,0,1.22-.45,1.65,1.65,0,0,0,.42-1.17v-2h-.06a2.14,2.14,0,0,1-.87.87,2.6,2.6,0,0,1-1.2.3,2.81,2.81,0,0,1-1.55-.39,2.74,2.74,0,0,1-.93-1.06,5.41,5.41,0,0,1-.46-1.59,15.06,15.06,0,0,1-.12-2,7.17,7.17,0,0,1,.36-2.54,3.58,3.58,0,0,1,.83-1.38,2,2,0,0,1,1-.57,3.41,3.41,0,0,1,.78-.11,2.69,2.69,0,0,1,1.32.32,2.22,2.22,0,0,1,.88,1h0Zm0,4.67c0-.35,0-.73,0-1.15a4.41,4.41,0,0,0-.18-1.17,2,2,0,0,0-.53-.9,1.53,1.53,0,0,0-1.1-.36,1.41,1.41,0,0,0-1,.34,2.05,2.05,0,0,0-.53.86,4.68,4.68,0,0,0-.21,1.09c0,.39,0,.73,0,1a11.71,11.71,0,0,0,.12,1.86,3.48,3.48,0,0,0,.36,1.14,1.4,1.4,0,0,0,.58.58,1.86,1.86,0,0,0,.77.16,1.43,1.43,0,0,0,1-.37,2.16,2.16,0,0,0,.53-.89,4.25,4.25,0,0,0,.19-1.14C926.77,150.85,926.78,150.49,926.78,150.17Z"/><path class="cls-1" d="M937.15,152.24a3.24,3.24,0,0,1-.25,1.32,2.37,2.37,0,0,1-.7.89,2.72,2.72,0,0,1-1,.5,4.93,4.93,0,0,1-1.3.16,3.66,3.66,0,0,1-2.4-.72,2.74,2.74,0,0,1-.84-2.34h1.73q0,.21,0,.51a1.6,1.6,0,0,0,.18.6,1.36,1.36,0,0,0,.46.5,1.74,1.74,0,0,0,.9.2,1.9,1.9,0,0,0,1.16-.35,1.29,1.29,0,0,0,.46-1.09.91.91,0,0,0-.34-.71,4,4,0,0,0-.87-.58q-.52-.27-1.14-.54a6.5,6.5,0,0,1-1.13-.64,3.39,3.39,0,0,1-.87-.86,2,2,0,0,1-.35-1.2,3.23,3.23,0,0,1,.13-.82,2,2,0,0,1,.5-.84,2.67,2.67,0,0,1,1-.65,4.87,4.87,0,0,1,2.81-.1,2.79,2.79,0,0,1,1,.47,2,2,0,0,1,.64.83,2.42,2.42,0,0,1,.17,1.2h-1.7a1.41,1.41,0,0,0-.36-1.12,1.47,1.47,0,0,0-1.11-.39,1.61,1.61,0,0,0-1,.33,1.12,1.12,0,0,0-.42.94.9.9,0,0,0,.34.71,4,4,0,0,0,.87.56c.35.17.73.35,1.14.52a6.28,6.28,0,0,1,1.14.63,3.51,3.51,0,0,1,.86.86A2.14,2.14,0,0,1,937.15,152.24Z"/><path class="cls-1" d="M938.29,145.5H940l2.11,8h0l2.27-8H946l-2.95,9.42h-2Z"/><path class="cls-1" d="M949.14,150.71a8.5,8.5,0,0,0,.13,1.6,2.53,2.53,0,0,0,.38,1,1.21,1.21,0,0,0,.59.47,2.53,2.53,0,0,0,.8.12,1.54,1.54,0,0,0,.7-.15,1.73,1.73,0,0,0,.5-.39,1.76,1.76,0,0,0,.32-.57,3,3,0,0,0,.13-.68h1.67a2.84,2.84,0,0,1-.9,2.31,3.6,3.6,0,0,1-2.38.73,5.72,5.72,0,0,1-1.4-.16,2.29,2.29,0,0,1-1.14-.66,3.62,3.62,0,0,1-.76-1.44,8.83,8.83,0,0,1-.28-2.5,17.42,17.42,0,0,1,.1-1.95,4.48,4.48,0,0,1,.47-1.6,2.71,2.71,0,0,1,1.07-1.08,3.92,3.92,0,0,1,1.94-.4,4.17,4.17,0,0,1,1.66.28,2.21,2.21,0,0,1,1,.85,3.66,3.66,0,0,1,.52,1.42,12,12,0,0,1,.15,2v.8Zm3.68-1.16a7.75,7.75,0,0,0-.14-1.63,2.45,2.45,0,0,0-.39-.93,1.05,1.05,0,0,0-.59-.42,2.71,2.71,0,0,0-.77-.1,1.92,1.92,0,0,0-.69.12,1.16,1.16,0,0,0-.56.44,2.86,2.86,0,0,0-.39.94,6.87,6.87,0,0,0-.15,1.58Z"/><path class="cls-1" d="M958.56,146.92h0a3.75,3.75,0,0,1,.51-.86,1.89,1.89,0,0,1,.62-.48,2.36,2.36,0,0,1,.78-.22c.29,0,.63,0,1,0v1.58l-.21,0-.2,0a.64.64,0,0,0-.2,0h-.21a2.21,2.21,0,0,0-1.05.22,1.93,1.93,0,0,0-.65.58,2.41,2.41,0,0,0-.34.82,4.91,4.91,0,0,0-.09.94v5.55H957V145.5h1.53Z"/><path class="cls-1" d="M968.3,154.92v-6.38a3.91,3.91,0,0,0-.08-.79,1.52,1.52,0,0,0-.27-.62,1.25,1.25,0,0,0-.52-.41,2,2,0,0,0-.81-.15,1.91,1.91,0,0,0-1,.21,1.48,1.48,0,0,0-.59.6,2.83,2.83,0,0,0-.3.89,7.83,7.83,0,0,0-.08,1.11v5.54h-1.53V141.46h1.53v5.26h.07a2.58,2.58,0,0,1,1.05-1.11,3.28,3.28,0,0,1,1.51-.29,2.44,2.44,0,0,1,1.85.66,3.21,3.21,0,0,1,.65,2.27v6.67Z"/><path class="cls-1" d="M977.36,153.56h0a2.67,2.67,0,0,1-.92,1.19,2.64,2.64,0,0,1-1.45.36,3,3,0,0,1-1.24-.23,2.05,2.05,0,0,1-.8-.65,2.49,2.49,0,0,1-.42-1,6,6,0,0,1-.12-1.24,2.71,2.71,0,0,1,.47-1.67,2.76,2.76,0,0,1,1.19-.88,5.42,5.42,0,0,1,1.61-.34c.58,0,1.14-.05,1.68,0q0-.47,0-.93a2.72,2.72,0,0,0-.17-.84,1.29,1.29,0,0,0-.48-.6,1.57,1.57,0,0,0-.94-.24,1.41,1.41,0,0,0-1.16.47,1.56,1.56,0,0,0-.31,1.21h-1.66a2.76,2.76,0,0,1,.86-2.21,3.8,3.8,0,0,1,2.33-.62,4.24,4.24,0,0,1,1.5.22,2.32,2.32,0,0,1,.93.61,2.22,2.22,0,0,1,.49.89,4.38,4.38,0,0,1,.14,1.11v4.54c0,.37,0,.74,0,1.12s.08.75.14,1.11h-1.68Zm0-3.32-1.15,0a3.48,3.48,0,0,0-1.11.19,1.76,1.76,0,0,0-.83.55,1.68,1.68,0,0,0-.33,1.13,2.08,2.08,0,0,0,.36,1.21,1.24,1.24,0,0,0,1.12.52,2,2,0,0,0,.71-.14,1.48,1.48,0,0,0,.66-.53,3.06,3.06,0,0,0,.45-1.1A6.75,6.75,0,0,0,977.33,150.24Z"/><path class="cls-1" d="M987,154.92v-6.53a3.2,3.2,0,0,0-.07-.7,1.45,1.45,0,0,0-.27-.59,1.13,1.13,0,0,0-.51-.39,2,2,0,0,0-.81-.14,1.78,1.78,0,0,0-1,.25,1.62,1.62,0,0,0-.57.65,2.87,2.87,0,0,0-.28.9,8.06,8.06,0,0,0-.06,1v5.57h-1.53v-7.46c0-.32,0-.65,0-1l-.06-1h1.62v1.22h.07a2.52,2.52,0,0,1,1-1.1,3.24,3.24,0,0,1,1.49-.3,3.18,3.18,0,0,1,1.24.21,1.81,1.81,0,0,1,.78.63,2.8,2.8,0,0,1,.39,1,6.92,6.92,0,0,1,.11,1.25v6.53Z"/><path class="cls-1" d="M996.15,141.46h1.53v13.46h-1.53V153.8h0a2.71,2.71,0,0,1-.91,1,2.26,2.26,0,0,1-1.25.33,3.77,3.77,0,0,1-1.11-.16,1.91,1.91,0,0,1-1-.66,3.72,3.72,0,0,1-.69-1.44,9.21,9.21,0,0,1-.27-2.48c0-.58,0-1.18.06-1.78a5.13,5.13,0,0,1,.36-1.63,2.59,2.59,0,0,1,.93-1.19,3,3,0,0,1,1.77-.45,2.21,2.21,0,0,1,1.17.29,2.74,2.74,0,0,1,.9.84h.06Zm0,8.37c0-.31,0-.65,0-1a4.07,4.07,0,0,0-.22-1.07,2,2,0,0,0-.53-.83,1.38,1.38,0,0,0-1-.33,1.75,1.75,0,0,0-1,.24,1.47,1.47,0,0,0-.57.73,4.12,4.12,0,0,0-.26,1.19c0,.47,0,1,0,1.66,0,.36,0,.74,0,1.15a4,4,0,0,0,.21,1.12,2.24,2.24,0,0,0,.57.86,1.62,1.62,0,0,0,1.11.34,1.34,1.34,0,0,0,1-.36,2.08,2.08,0,0,0,.51-.95,5.48,5.48,0,0,0,.19-1.29C996.14,150.78,996.15,150.3,996.15,149.83Z"/><path class="cls-1" d="M1002,154.92h-1.53V141.46H1002Z"/><path class="cls-1" d="M1009.69,145.5h1.53V153c0,.33,0,.66,0,1l.06,1h-1.62v-1.13h-.06a2.48,2.48,0,0,1-1,1,2.88,2.88,0,0,1-1.38.34,2.65,2.65,0,0,1-1.89-.61,2.37,2.37,0,0,1-.65-1.81V145.5h1.53v6.55a2.26,2.26,0,0,0,.39,1.38,1.41,1.41,0,0,0,1.21.52,1.94,1.94,0,0,0,.64-.12,1.62,1.62,0,0,0,.59-.38,2.17,2.17,0,0,0,.44-.67,2.53,2.53,0,0,0,.18-1Z"/><path class="cls-1" d="M1019.09,154.92v-6.53a2.68,2.68,0,0,0-.08-.7,1.32,1.32,0,0,0-.26-.59,1.13,1.13,0,0,0-.51-.39,2,2,0,0,0-.81-.14,1.78,1.78,0,0,0-1,.25,1.73,1.73,0,0,0-.58.65,3.15,3.15,0,0,0-.27.9,8.06,8.06,0,0,0-.06,1v5.57H1014v-7.46c0-.32,0-.65,0-1l-.06-1h1.62v1.22h.07a2.52,2.52,0,0,1,1-1.1,3.81,3.81,0,0,1,2.73-.09,1.81,1.81,0,0,1,.78.63,2.8,2.8,0,0,1,.39,1,6.92,6.92,0,0,1,.11,1.25v6.53Z"/><path class="cls-1" d="M1028.29,145.5h1.53v10.38a2.87,2.87,0,0,1-.26,1.29,1.84,1.84,0,0,1-.71.8,2.72,2.72,0,0,1-1.09.4,7.57,7.57,0,0,1-1.41.12,4.11,4.11,0,0,1-1.13-.15,2.66,2.66,0,0,1-.94-.46,2.26,2.26,0,0,1-.62-.78,2.16,2.16,0,0,1-.17-1.13h1.72a1.36,1.36,0,0,0,.41,1,1.49,1.49,0,0,0,1,.35,1.6,1.6,0,0,0,1.23-.45,1.65,1.65,0,0,0,.42-1.17v-2h-.06a2.11,2.11,0,0,1-.88.87,2.53,2.53,0,0,1-1.19.3,2.81,2.81,0,0,1-1.55-.39,2.59,2.59,0,0,1-.93-1.06,4.87,4.87,0,0,1-.46-1.59,15.06,15.06,0,0,1-.12-2,7.44,7.44,0,0,1,.35-2.54,3.84,3.84,0,0,1,.83-1.38,2,2,0,0,1,1-.57,3.55,3.55,0,0,1,.79-.11,2.67,2.67,0,0,1,1.31.32,2.19,2.19,0,0,1,.89,1h0Zm0,4.67c0-.35,0-.73,0-1.15a4.86,4.86,0,0,0-.17-1.17,2.13,2.13,0,0,0-.53-.9,1.54,1.54,0,0,0-1.11-.36,1.4,1.4,0,0,0-1,.34,2.05,2.05,0,0,0-.53.86,4.21,4.21,0,0,0-.21,1.09c0,.39,0,.73,0,1a10.5,10.5,0,0,0,.13,1.86,3.48,3.48,0,0,0,.36,1.14,1.35,1.35,0,0,0,.58.58,1.84,1.84,0,0,0,.76.16,1.47,1.47,0,0,0,1.06-.37,2.16,2.16,0,0,0,.53-.89,4.25,4.25,0,0,0,.18-1.14C1028.32,150.85,1028.32,150.49,1028.32,150.17Z"/><path class="cls-1" d="M1167.87,12.21a4,4,0,0,0-5.36,1.68l-10,19.27L1141.39,42h-13.12l-13.68-4.5-7.94-12.86,1.4-1.36a2.16,2.16,0,0,0,0-3l-3.29-3.39,2.47-2.4a2.43,2.43,0,0,0,0-3.44L1097.37.74a2.42,2.42,0,0,0-3.44-.05l-16,15.52a2.42,2.42,0,0,0,0,3.44l9.94,10.22a2.44,2.44,0,0,0,3.45.05l2.47-2.4,3.29,3.38a2.16,2.16,0,0,0,3.05.05l.69-.68,7.79,12.59a3.91,3.91,0,0,0,2.13,1.68l14,4.61V118a4.76,4.76,0,0,0,9.52,0V80l2.06-.54,5.86,15.39L1138,113.65a4.76,4.76,0,0,0,9.3,2.06l4.5-20.31a4.82,4.82,0,0,0-.26-2.88l-5.8-13.71V48.61l12.28-9.76a3.79,3.79,0,0,0,1-1.27l10.45-20A4,4,0,0,0,1167.87,12.21Zm-64.42,9.49a4,4,0,0,0-4.76,4.63l0,0-1.8-1.85,4.84-4.7,1.79,1.84Z"/><circle class="cls-1" cx="1135.31" cy="31.11" r="8.22"/><rect class="cls-2" x="63.73" y="92.42" width="51.3" height="3.35" rx="1.67" transform="translate(178.76 188.2) rotate(180)"/><path class="cls-3" d="M164.2,0H0V123.15H164.2l53.54-61.58ZM124.36,94a10.94,10.94,0,0,1-10.94,10.94h-45A10.94,10.94,0,0,1,57.51,94V29.59A10.94,10.94,0,0,1,68.45,18.65h45a10.94,10.94,0,0,1,10.94,10.94Z"/><path class="cls-4" d="M338.53,0H174.33l53.54,62.47-53.54,60.68h164.2l53.54-61.58ZM278.44,25a6.75,6.75,0,1,1-6.75,6.75A6.75,6.75,0,0,1,278.44,25Zm16.48,47.64a3.26,3.26,0,1,1-6.51,0c0-14.1,0-8.74-.06-23.5h0a.68.68,0,1,0-1.36,0c0,15.16.07,40.1.07,54.74a3.91,3.91,0,0,1-7.82,0V72.59h-1.68v31.23a3.91,3.91,0,0,1-7.82,0V49.12l-9.83,4.21A3.26,3.26,0,0,1,255.68,49l7.68-16.48a3.24,3.24,0,0,1,1-1.21l-1.27-2.51A1.92,1.92,0,0,1,266.5,27l5.37,10.55a1.93,1.93,0,0,1-3.43,1.75l-.57-1.11L265.18,44l5.45-2.34a3.38,3.38,0,0,1,1.29-.26h15.24a7.72,7.72,0,0,1,7.7,7.66C294.94,63.84,294.92,58.47,294.92,72.59ZM312.08,44c-5.78,0-10.9-2-14.08-5.06l-7.84-.55a.79.79,0,0,1-.44-1.39l5-4a9.33,9.33,0,0,1-.11-1.4c0-6.85,7.82-12.41,17.47-12.41s17.47,5.56,17.47,12.41S321.72,44,312.08,44Z"/><path class="cls-5" d="M511.76,0H347.57l53.54,62.47-53.54,60.68H511.76L565.3,61.57ZM456.51,57.31h9l5-9.09a1.65,1.65,0,0,1,2.89,1.59l-5.45,9.94a1.64,1.64,0,0,1-1.44.86h-9.94A1.65,1.65,0,0,1,454.87,59s0,0,0-.08A1.65,1.65,0,0,1,456.51,57.31ZM435.09,29.53a6.61,6.61,0,1,1-6.6,6.61A6.61,6.61,0,0,1,435.09,29.53ZM449.75,94.1a3.57,3.57,0,0,1-4-3.1l-2.06-16.11-.58-.15a2.39,2.39,0,0,1-2.36,2h-7.88v9.8l5.69,4.64a1.65,1.65,0,0,1-2.09,2.56l-3.6-2.94v1.66a1.65,1.65,0,0,1-3.3,0V90.82L426,93.76a1.65,1.65,0,0,1-2.09-2.56l5.69-4.64v-9.8h-8.64a2.4,2.4,0,0,1-2.38-2.09l-3.48-27.49a2.39,2.39,0,1,1,4.75-.6L423,72h2.12L425,50.21a4.47,4.47,0,0,1,4.77-4.48l7.57.54a4.46,4.46,0,0,1,4.14,4.67v.55l-8-3.13,8,5.9,9.73-3.52a3,3,0,1,1,2,5.62L442,60.43a3,3,0,0,1-2.8-.4l-9.27-6.86,7.42,9.36A4,4,0,0,0,440.53,64l-.18,2.57,7.48,1.93a3.59,3.59,0,0,1,2.66,3l2.37,18.53A3.59,3.59,0,0,1,449.75,94.1Zm38.82-26.74V92.48a1.65,1.65,0,1,1-3.3,0V67.36H458.85V92.48a1.65,1.65,0,0,1-3.3,0V67.36h-.33a2.48,2.48,0,1,1,0-5h33.51a2.48,2.48,0,1,1-.16,5Zm6.28-17.72a30.4,30.4,0,0,1-7-.92l-9,4.92a1.62,1.62,0,0,1-2.22-2.17l3.24-6.2c-4.6-3.05-7.45-7.44-7.37-12.26.15-9,10.38-16.1,22.85-15.89s22.46,7.65,22.31,16.63S507.33,49.85,494.85,49.64Z"/><path class="cls-6" d="M672.94,78.81a2.37,2.37,0,0,1,1.23-2.08h-3.1l3.22,8.14,1.42-3.69h-.41A2.36,2.36,0,0,1,672.94,78.81Z"/><path class="cls-7" d="M685,0H520.8l53.54,62.47L520.8,123.15H685l53.54-61.58Zm-8.08,36a6.31,6.31,0,1,1-6.3,6.31A6.32,6.32,0,0,1,676.92,36ZM618.44,23.32c6.24,0,11.29,3.64,11.29,8.13s-5.05,8.13-11.29,8.13a15.28,15.28,0,0,1-3.51-.4l-4.44,2.53a.82.82,0,0,1-1-.11.81.81,0,0,1-.16-1l1.56-3.13a7.39,7.39,0,0,1-3.78-6.07C607.15,27,612.2,23.32,618.44,23.32ZM600.31,36A6.31,6.31,0,1,1,594,42.31,6.31,6.31,0,0,1,600.31,36Zm13.12,32.11h-11.5a2.86,2.86,0,0,1-2.5-1.46l-4.44-8,2.66,8.83a3.79,3.79,0,0,0,2.93,2.36c.11,0-.6,0,10.62,0h0a3.43,3.43,0,0,1,3.18,4.69l-7.78,19.67a3.43,3.43,0,0,1-6.37-2.52l1-2.51-3.09-8h-9l-5.47,14.18a1.57,1.57,0,1,1-2.94-1.13l5-13h-.41a2.37,2.37,0,0,1-2.32-1.91L578.6,56.61a2.36,2.36,0,0,1,4.64-.91l4.08,20.74h6a4.76,4.76,0,0,1-2.3-1.26,4.82,4.82,0,0,1-1.42-3.39l0-16.22a4.79,4.79,0,0,1,4.82-4.8l4.4,0a4.78,4.78,0,0,1,4.75,4.86l-.06,3.67-4.2-4.68,4.32,7.75h9.83a2.86,2.86,0,0,1,0,5.71Zm45.66,1.09a.66.66,0,0,1-.63.7h-6.14V94.48a1.73,1.73,0,1,1-3.44,0V69.9H628.41V94.48a1.73,1.73,0,1,1-3.44,0V69.9h-6.14a.66.66,0,0,1-.63-.7V62.87a.66.66,0,0,1,.63-.69h39.63a.66.66,0,0,1,.63.69ZM657.3,42.69c-6.24,0-11.29-3.64-11.29-8.13s5-8.13,11.29-8.13,11.29,3.64,11.29,8.13a7.39,7.39,0,0,1-3.78,6.07l1.56,3.13a.79.79,0,0,1-.16.94.8.8,0,0,1-1,.12l-4.44-2.53A15.28,15.28,0,0,1,657.3,42.69Zm39.18,51.53a1.57,1.57,0,1,1-2.94,1.13l-5.47-14.18h-9l-3.09,8,1,2.51a3.43,3.43,0,0,1-6.37,2.52l-7.78-19.67A3.43,3.43,0,0,1,666,69.85l10.55,0a3.76,3.76,0,0,0,3-2.37,58,58,0,0,0,2.66-8.83l-4.44,8a2.87,2.87,0,0,1-2.5,1.46H663.8a2.86,2.86,0,0,1,0-5.71h9.83L678,54.65l-4.2,4.68-.06-3.67a4.79,4.79,0,0,1,4.75-4.86l4.4,0a4.79,4.79,0,0,1,4.82,4.8l0,16.22a4.76,4.76,0,0,1-3.71,4.65h6L694,55.7a2.36,2.36,0,0,1,4.64.91l-4.45,22.65a2.37,2.37,0,0,1-2.32,1.91h-.41Z"/><path class="cls-6" d="M606.16,76.72h-3.1a2.37,2.37,0,0,1-1.13,4.44h-.41l1.42,3.69Z"/><path class="cls-8" d="M821.09,55.57a2.2,2.2,0,1,0-2.21-2.2A2.21,2.21,0,0,0,821.09,55.57Z"/><path class="cls-9" d="M859.33,0H695.13l53.54,62.47-53.54,60.68h164.2l53.54-61.58ZM838.67,29.1a6,6,0,1,1-6,6A6,6,0,0,1,838.67,29.1Zm-28.8,18.6a1.52,1.52,0,0,1,1.52-1.51h19.4a1.52,1.52,0,0,1,1.51,1.51V59a1.52,1.52,0,0,1-1.51,1.52H823.7v3.83h3.72a2.33,2.33,0,0,1,.37,0l.38-2c3.07,0,2.57,0,2.81,0A3.44,3.44,0,0,0,834.22,59V47.7a3.44,3.44,0,0,0-3.43-3.43h-2.54A6.63,6.63,0,0,1,832.12,43h14a6.65,6.65,0,0,1,5.94,3.72c1.63,3.35,3.43,7.44,4.2,9.36a2.88,2.88,0,0,1-1.52,3.72l-10.13,4.47a2.89,2.89,0,0,1-2.33-5.3l7.52-3.31-3-5.76a.22.22,0,0,0-.26-.11.21.21,0,0,0-.15.23L847,54.5,841.43,57a5.09,5.09,0,0,0-2.61,6.72,2.92,2.92,0,0,0,.62,1H828.32A1.6,1.6,0,0,1,829,66a1.52,1.52,0,0,1-.25.85H813.4a1.62,1.62,0,0,1-.24-.85,1.6,1.6,0,0,1,1.6-1.6h3.72V60.55h-7.09A1.52,1.52,0,0,1,809.87,59ZM786.93,37.31a6.43,6.43,0,1,1-6.43,6.42A6.42,6.42,0,0,1,786.93,37.31Zm43.88,53.92a3.24,3.24,0,0,1-3.7-2.7l-1.76-11.41h6.55l1.61,10.42A3.24,3.24,0,0,1,830.81,91.23Zm15.71-2.7a3.23,3.23,0,0,1-6.39-1l1.61-10.42h6.55Zm18.2-14h-6.78V99.14a1.9,1.9,0,0,1-3.8,0V74.56H804.76V99.1a1.9,1.9,0,1,1-3.8,0V74.55h-6.77a.69.69,0,0,1-.69-.69V68.34l-5.15.41a2.88,2.88,0,0,1-2.52-1.1l-6.94-8.83,4.55,10.7a3.93,3.93,0,0,0,2.93,2.32l-.66,2.3,3.65,1.17a3.51,3.51,0,0,1,2.23,2.15l6.72,18.87a3.5,3.5,0,0,1-2.12,4.47,3.64,3.64,0,0,1-1.17.2,3.5,3.5,0,0,1-3.29-2.32l-5.2-14.59H779v9.54l5.53,4.52a1.61,1.61,0,0,1-1,2.85,1.58,1.58,0,0,1-1-.36L779,97.78v1.61a1.61,1.61,0,1,1-3.22,0V97.78l-3.5,2.86a1.61,1.61,0,1,1-2-2.49l5.53-4.52V84.09H767.4a2.33,2.33,0,0,1-2.31-2L761.7,55.31a2.33,2.33,0,1,1,4.62-.59l3.13,24.72h1.67a3.7,3.7,0,0,1-.93-3.28l4.28-21.06a4.3,4.3,0,0,1,2-2.84,4.35,4.35,0,0,1,3.45-.47l7.1,2a4.35,4.35,0,0,1,3,5.37l-.2.73-6.33-4.7,6,7.6,6.14-.49c-.57-1.27-1.24-2.8-1.46-3.31a1.61,1.61,0,1,1,2.94-1.3c.66,1.51.15.35,1.91,4.34l.51,0a2.9,2.9,0,0,1,3.13,2.67,2.86,2.86,0,0,1-.73,2.14h62.84a.69.69,0,0,1,.69.69v6.34A.69.69,0,0,1,864.72,74.56Z"/><path class="cls-1" d="M1008.7,73.09a4.38,4.38,0,0,1-.51,0,3.28,3.28,0,0,1-1.44-.62h-.18v2.75H1011V72.43h-.34A3.18,3.18,0,0,1,1008.7,73.09Z"/><path class="cls-1" d="M1034.58,0H870.38l53.54,62.47-53.54,60.68h164.2l53.54-61.58Zm-28.91,26.43A6.58,6.58,0,1,1,999.09,33,6.57,6.57,0,0,1,1005.67,26.43Zm-40.08,0A6.58,6.58,0,1,1,959,33,6.57,6.57,0,0,1,965.59,26.43Zm19.18,30.31a3.16,3.16,0,0,1-3.52,2.78l-11.06-1.29a3.23,3.23,0,0,1-1.87-.9L961,50.07l5.06,9.51c.91,1.68,2.46,1.65,3.73,1.8l4.14.49s.07,1.48.07,35.36a3.81,3.81,0,1,1-7.62,0V69.07h-1.64l-.08,28.16a3.81,3.81,0,0,1-3.81,3.8h0a3.82,3.82,0,0,1-3.8-3.82l.08-51a4.44,4.44,0,0,1,4.44-4.44h7.93A4.44,4.44,0,0,1,974,46.26v2.82l-2.28-.27-6.18-3.24L972,52.05l10,1.17A3.16,3.16,0,0,1,984.77,56.74Zm20.08,40.49A3.82,3.82,0,0,1,1001,101h0a3.82,3.82,0,0,1-3.81-3.81V91.37a4.41,4.41,0,0,0,2.77,1h4.85Zm5.54,3.81h0a3.81,3.81,0,0,1-3.81-3.8V92.35h7.62v4.87A3.81,3.81,0,0,1,1010.39,101Zm8.82-13.13a1.68,1.68,0,0,1-1.68,1.68H1000a1.68,1.68,0,0,1-1.68-1.68v-11a1.68,1.68,0,0,1,1.68-1.68h3.33v-4.7a1.61,1.61,0,0,1,1.62-1.62h.7c.18-1.17,1.45-9,1.61-10.09l-3.48-9.85.17,2,.58,6.61-1.44,9a4.38,4.38,0,0,0-2.52,4v2a4.76,4.76,0,0,0-3.34,1l.07-18.69-11.4,6.51a3.21,3.21,0,0,1-.46.22,6.32,6.32,0,0,0,2.48-4.33,6.25,6.25,0,0,0-.8-3.9l10.18-5.82V46.26a4.44,4.44,0,0,1,4.44-4.44h7.93a4.44,4.44,0,0,1,4.44,4.44v7L1010,47.14l-.23-.34,3.76,10.62a3.06,3.06,0,0,1,.14,1.56c-.19,1.2-1.4,8.75-1.58,9.88h.5a1.62,1.62,0,0,1,1.62,1.62v4.7h3.33a1.68,1.68,0,0,1,1.68,1.68Z"/><path class="cls-4" d="M495,24.47c-3,0-5.7,2.12-5.7,4.51a1.46,1.46,0,0,0,1.58,1.49c2.37,0,1.15-3.22,4.27-3.22,1.47,0,2.34.78,2.34,2.1,0,2.39-4.27,3-4.27,6a1.56,1.56,0,0,0,1.57,1.63c1.61,0,1.41-1.2,2-2,.78-1.15,4.41-2.37,4.41-5.54C501.15,25.91,498.08,24.47,495,24.47Z"/><path class="cls-4" d="M494.83,38.52a2,2,0,1,0,2,2A2,2,0,0,0,494.83,38.52Z"/><rect class="cls-2" x="63.73" y="40.16" width="19.47" height="3.35" rx="1.46"/><rect class="cls-2" x="63.73" y="47.64" width="24.13" height="3.35" rx="1.62"/><rect class="cls-2" x="63.73" y="59.78" width="51.3" height="3.35" rx="1.67"/><rect class="cls-2" x="63.73" y="67.94" width="51.3" height="3.35" rx="1.67"/><rect class="cls-2" x="63.73" y="76.1" width="51.3" height="3.35" rx="1.67"/><rect class="cls-2" x="63.73" y="84.26" width="51.3" height="3.35" rx="1.67"/><g class="cls-10"><path class="cls-1" d="M104.15,23.32a14,14,0,1,0,14,14A14,14,0,0,0,104.15,23.32Zm10.1,21.16a3.09,3.09,0,0,0-.14-.46,2.39,2.39,0,0,0-.13-.28,2.93,2.93,0,0,0-.21-.39l-.18-.26c-.09-.11-.18-.23-.28-.33l-.22-.23a3.17,3.17,0,0,0-.34-.28,2.2,2.2,0,0,0-.25-.17,2.56,2.56,0,0,0-.4-.22l-.26-.13a4,4,0,0,0-.49-.15l-.24-.07a4.13,4.13,0,0,0-.78-.08H97.19a4.39,4.39,0,0,0-.72.07l-.21,0a3.37,3.37,0,0,0-.48.15,1.45,1.45,0,0,0-.22.09,2.73,2.73,0,0,0-.45.23l-.17.1a4.43,4.43,0,0,0-.54.43l-.06.07a4.19,4.19,0,0,0-.39.45,1.27,1.27,0,0,0-.13.19,3.38,3.38,0,0,0-.24.41,1.47,1.47,0,0,0-.1.22l-.07.13a12.49,12.49,0,0,1-1.94-6.71,12.68,12.68,0,1,1,22.87,7.51.14.14,0,0,0,0-.07A1.34,1.34,0,0,0,114.25,44.48ZM113.33,46A12.73,12.73,0,0,1,104.15,50a12.54,12.54,0,0,1-9.91-4.8,1.66,1.66,0,0,1,0-.22c0-.09,0-.17,0-.25s.07-.2.1-.29a2.44,2.44,0,0,1,.1-.24,2.07,2.07,0,0,1,.15-.25,1.64,1.64,0,0,1,.14-.22,2,2,0,0,1,.19-.22c.06-.06.11-.13.17-.18a2.23,2.23,0,0,1,.24-.19L95.6,43l.28-.15.21-.1.35-.1.18-.06a3.66,3.66,0,0,1,.57-.05h13.14a3,3,0,0,1,3,3Z"/><path class="cls-1" d="M103.76,27.44a6.76,6.76,0,1,0,6.76,6.76A6.77,6.77,0,0,0,103.76,27.44Zm0,12.44a5.68,5.68,0,1,1,5.68-5.68A5.69,5.69,0,0,1,103.76,39.88Z"/></g>
</svg>
