<svg data-name="Ebene 1" xmlns="http://www.w3.org/2000/svg" viewBox="0 0 1170 195.52"><path fill="#fff" d="M165.21 15.43h-152v121.98h152l38.13-60.99-38.13-60.99z"/><path fill="#fdc62d" d="M100.47 58l1.04-1.49 1.09-2.77 1.06-4.25v-1.07l1.07-1.06 1.06-1.07h3.19l1.34.15.55 1.01.24-.09 1.07 2.13.29.56.28 2.1.71 3.11.73 1.13.59 1.34-.33.55-.76.48h-3.4l-.11.47 1.37.82 1.79 1.17 1.32.79.29.62-1.7 1.17-2.37.97-2.11.37-3.52-.19-3.1-1.24-1.68-1.23.57-.64 1.4-.68.65-.41.7-.29.53-.23.7-.21.67-.44.36-.53-.24-.38-1.58.03h-1.52l-1.26-.23-.98-.47z"/><path fill="#fff" d="M337.88 15.43h-152l38.14 61.88-38.14 60.1h152l38.14-60.99-38.14-60.99z"/><path fill="#fff" d="M509.48 15.43h-152l38.14 61.88-38.14 60.1h152l38.14-60.99-38.14-60.99z"/><path fill="#fff" d="M681.08 15.43h-152l38.13 61.88-38.13 60.1h152l38.13-60.99-38.13-60.99z"/><path fill="#fff" d="M853.75 15.43h-152l38.14 61.88-38.14 60.1h152l38.14-60.99-38.14-60.99z"/><path fill="#fff" d="M1027.35 15.43h-152l38.13 61.88-38.13 60.1h152l38.13-60.99-38.13-60.99z"/><rect x="254.63" y="75.36" width="6.85" height="35.05" rx="3.43" transform="rotate(-21.05 258.09 92.886)" fill="#fdc62d"/><path fill="#fdc62d" d="M294.16 33.52l5.32-2.13 7.45 21.29-4.26 3.19-8.51-22.35zm26.6 58.53l-5.32 1.07 8.51 22.35 5.32-2.13-8.51-21.29zm130.9 25.54h21.28l-2.13-13.83h-17.02l-2.13 13.83zm-20.22-52.14h35.12v10.64l-35.12 1.07V65.45zM619.8 30.33l3.2-1.06h22.35l1.06 2.12v13.84l-2.13 1.06-4.26 1.07v2.13l-3.19-2.13h-12.77l-3.19-2.13-1.07-5.32v-9.58zm217.1 50.02h6.39v31.92h-6.39V80.35"/><rect x="1000.24" y="38.16" width="7.41" height="37.63" rx="3.49" transform="rotate(-45 1003.94 56.975)" fill="#fdc62d"/><rect x="946.77" y="38.96" width="9.03" height="39.19" rx="3.95" transform="rotate(-135 951.283 58.55)" fill="#fdc62d"/><path fill="#fdc62d" d="M1118.92 32.46h17.02v12.77l-4.25 4.26-4.26 1.06-5.65-1.21-1.8-4.11-1.06-3.19v-9.58z"/><text transform="translate(529.88 168.89)" font-size="18.48" font-family="UniversCom-57Condensed,Univers Com" fill="#fff"><tspan letter-spacing="-.04em">V</tspan><tspan x="9.59" y="0">orste</tspan><tspan x="47.56" y="0" letter-spacing="0">l</tspan><tspan x="51.68" y="0">lungsgespräch</tspan></text><text transform="translate(201.55 168.89)" font-size="18.48" font-family="UniversCom-57Condensed,Univers Com" fill="#fff"><tspan letter-spacing="-.08em">T</tspan><tspan x="7.76" y="0">elefon-Interview</tspan></text><text transform="translate(879.4 168.89)" font-size="18.48" font-family="UniversCom-57Condensed,Univers Com" fill="#fff"><tspan letter-spacing="-.04em">V</tspan><tspan x="9.59" y="0">ertragsverhan</tspan><tspan x="114.26" y="0" letter-spacing="0">d</tspan><tspan x="123.51" y="0">lung</tspan></text><path d="M124.68 119.9H64.86a3.74 3.74 0 0 1-3.73-3.73V37.1a3.73 3.73 0 0 1 3.73-3.72h59.82a3.73 3.73 0 0 1 3.72 3.72v79.07a3.73 3.73 0 0 1-3.72 3.73zM64.86 34.44a2.67 2.67 0 0 0-2.67 2.66v79.07a2.67 2.67 0 0 0 2.67 2.66h59.82a2.66 2.66 0 0 0 2.66-2.66V37.1a2.66 2.66 0 0 0-2.66-2.66z" fill="#5d7992"/><rect x="69.68" y="56.01" width="17.69" height="1.72" rx=".65" fill="#5d7992"/><path d="M70.49 65.14h20.69a.81.81 0 0 0 .81-.81.83.83 0 0 0-.81-.91H70.49a.81.81 0 0 0-.81.81.84.84 0 0 0 .81.91zm.05 12.02H118a.86.86 0 0 0 .86-.85.87.87 0 0 0-.86-.87H70.54a.86.86 0 0 0 0 1.72zM118 83.53H70.54a.86.86 0 0 0 0 1.72H118a.86.86 0 0 0 0-1.72zm0 8.08H70.54a.86.86 0 0 0 0 1.72H118a.86.86 0 0 0 0-1.72zm0 8.08H70.54a.87.87 0 0 0 0 1.73H118a.87.87 0 0 0 0-1.73zm0 8.09H70.54a.86.86 0 0 0 0 1.72H118a.86.86 0 0 0 0-1.72z" fill="#5d7992"/><path d="M330.05 113.45l-8-22v-.07a.39.39 0 0 1-.15-.14h-.12a.39.39 0 0 1-.15 0 .15.15 0 0 1-.11 0 22.36 22.36 0 0 0-18.52 9.69l-.23.35-.38-.19a31.91 31.91 0 0 1-4.82-3l-.71-.52 5.88-2.2 2.72-1.06a5 5 0 0 0 2.76-2.65 4.74 4.74 0 0 0 .08-3.68 4.89 4.89 0 0 0-2.93-2.77l-.57-.19.33-.49a3.78 3.78 0 0 0 .4-.76 4.9 4.9 0 0 0 .07-3.85 5 5 0 0 0-2.6-2.73l-.5-.19-.59-.16.31-.52c.14-.24.26-.45.38-.69a4.87 4.87 0 0 0 .07-3.82 5 5 0 0 0-3.14-2.93l-.57-.19.31-.52a6.47 6.47 0 0 0 .38-.69 4.92 4.92 0 0 0 .07-3.82 5 5 0 0 0-6.5-2.86l-2.69 1-5.72 2.07.19-.87a34.68 34.68 0 0 1 1.68-5l.17-.38.4.12a22.14 22.14 0 0 0 20.41-4.26l.09-.09v-.07l.12-.12v-.07c0-.07 0 0 0 0a.68.68 0 0 1 0-.12v-.12a.68.68 0 0 1 0-.12.64.64 0 0 1 0-.09L300 30.79a.71.71 0 0 0-.92-.42l-18.92 6.87h-.07l-.15.07h-.05l-.09.07a50.33 50.33 0 0 0-11.62 22.87l-.05.18-.17.1c-3.4 2.1-6.92 9.57-7.93 11.79l-2.67 5.32-.47-.52a4.56 4.56 0 0 0-3.47-1.58 4.25 4.25 0 0 0-1.7.33 4.63 4.63 0 0 0-2.53 2.43 4.49 4.49 0 0 0 0 3.54l9.81 25.4a4.59 4.59 0 0 0 4.28 2.9 4.29 4.29 0 0 0 1.7-.33 4.54 4.54 0 0 0 2.53-2.43 5.56 5.56 0 0 0 .38-1.37l.07-.66.61.28a7.65 7.65 0 0 0 .92.35 8.31 8.31 0 0 0 2.48.38 6.9 6.9 0 0 0 2.67-.49l4.59-1.78.21.26a50.36 50.36 0 0 0 30.83 16.78h.16a.86.86 0 0 0 .24-.05l19-6.89a.61.61 0 0 0 .41-.29.88.88 0 0 0-.05-.47zM298.94 32l7.56 20.74-.29.21a19.75 19.75 0 0 1-3 1.92l-.47.23-7.89-21.61zm-30.5 37.23a48.94 48.94 0 0 1 12.28-30.52l.08-.09L293.53 34l7.91 21.73-.42.16a20.47 20.47 0 0 1-14.2.26.28.28 0 0 1-.12 0 .24.24 0 0 1-.14 0h-.22a.1.1 0 0 1-.07 0l-.12.1-.07.07-.05.07a.29.29 0 0 1-.05.1 34.35 34.35 0 0 0-2.52 7.7l-.05.26L268.42 70zM266.2 107a3.14 3.14 0 0 1-1.75 1.7 3.52 3.52 0 0 1-1.16.22 3.2 3.2 0 0 1-3-2l-9.92-25.26a3.24 3.24 0 0 1 .05-2.43 3.17 3.17 0 0 1 1.75-1.7 3.66 3.66 0 0 1 1.16-.21 3.17 3.17 0 0 1 3 2l9.92 25.25a3.11 3.11 0 0 1-.05 2.43zm7.93-2.24a6 6 0 0 1-2.19.38 6.86 6.86 0 0 1-2.06-.31 4.7 4.7 0 0 1-3-2.5v-.12L258 79.67l3.29-6.47a44.76 44.76 0 0 1 5.33-9.26l1.07-1.33-.24 1.68a49.63 49.63 0 0 0-.49 6.54v.29a.74.74 0 0 0 .66.47h.17l16.27-5.93 6.94-2.5 2.79-1a3.58 3.58 0 0 1 2.67.1 3.6 3.6 0 0 1 1.89 4.74 3.59 3.59 0 0 1-2 1.91l-3 1.16-.1.12-.07.21v.21a.15.15 0 0 0 0 .09s.05 0 .05.08v.07l.08.07h.05a.2.2 0 0 1 .09.05h.1a.08.08 0 0 1 .07 0h.4l2.69-1a3.6 3.6 0 0 1 2.65 7.03l-2.17.83-.76.28h-.05l-.12.12s0 .05-.05.07 0 .07 0 .09v.35a.2.2 0 0 0 0 .09.1.1 0 0 1 0 .07l.05.07h.05l.12.12h.53l2.79-1a3.62 3.62 0 0 1 2.67.09 3.59 3.59 0 0 1 1.91 2 3.59 3.59 0 0 1-2 4.65l-2.08.83-.92.33a.69.69 0 0 0-.38.35.75.75 0 0 0 0 .55.74.74 0 0 0 .92.42l2.74-1a3.64 3.64 0 0 1 2.64.07 3.33 3.33 0 0 1 1.75 4.77 3.66 3.66 0 0 1-2 1.85l-2 .8-.76.29-18.89 7zm36.24 15.14h-.12a49.22 49.22 0 0 1-29.15-15.62l-.45-.52 3.19-1.25 11.53-4.25.21.16a36.29 36.29 0 0 0 7.14 4.47h.21a.1.1 0 0 1 .07 0h.31v-.05h.08l.07-.07.1-.09a.23.23 0 0 1 .07-.09 20.8 20.8 0 0 1 11-8.91l.45-.14 7.91 21.73zm14.06-5.1l-7.89-21.62.54-.11a19.62 19.62 0 0 1 3.52-.45h.35l7.56 20.74z" fill="#5d7992" data-name="Capa 1"/><path d="M503.11 34.5h-81.47a5.25 5.25 0 0 0-5.26 5.25v59.7a5.27 5.27 0 0 0 5.26 5.26h31.72l-2.47 11.93h-7.16a.8.8 0 0 0-.8.8.79.79 0 0 0 .8.79H481a.79.79 0 0 0 .8-.79.8.8 0 0 0-.8-.8h-7.16l-2.45-11.93h31.72a5.25 5.25 0 0 0 5.26-5.26v-59.7a5.25 5.25 0 0 0-5.26-5.25zm-30.87 82.14h-19.71l2.47-11.93h14.79zm34.53-17.19a3.68 3.68 0 0 1-3.66 3.67h-81.47a3.66 3.66 0 0 1-3.64-3.67v-59.7a3.66 3.66 0 0 1 3.66-3.66h81.47a3.66 3.66 0 0 1 3.66 3.66v59.7z" fill="#5d7992"/><path d="M503 39.43h-81.26a.8.8 0 0 0-.8.8v54.6a.8.8 0 0 0 .8.8H503a.8.8 0 0 0 .8-.8v-54.6a.8.8 0 0 0-.8-.8zM502.21 94h-79.67V41h79.67zM468 98.46h-11.25a.8.8 0 1 0 0 1.59H468a.8.8 0 1 0 0-1.59z" fill="#5d7992"/><rect x="431.33" y="50.67" width="39.35" height="1.62" rx=".81" transform="rotate(180 451.005 51.485)" fill="#5d7992"/><rect x="431.33" y="54.3" width="48.78" height="1.62" rx=".81" transform="rotate(-180 455.715 55.11)" fill="#5d7992"/><rect x="431.33" y="61.26" width="36.91" height="1.62" rx=".81" transform="rotate(180 449.78 62.075)" fill="#5d7992"/><rect x="431.33" y="79.97" width="36.6" height="1.62" rx=".81" transform="rotate(-180 449.63 80.775)" fill="#5d7992"/><rect x="431.33" y="83.56" width="36.6" height="1.62" rx=".81" transform="rotate(180 449.63 84.375)" fill="#5d7992"/><path d="M467.73 77.34h-36.67V65.18h36.67zm-35.61-1.06h34.55v-10h-34.55zm50.3 3.72v-3.08a2.92 2.92 0 0 1 .52-1.67c.34-.52.72-1.06 1.12-1.63a14.58 14.58 0 0 0 1.13-1.84 5 5 0 0 0 .52-2.32 3.28 3.28 0 0 0-.13-.91 3.07 3.07 0 0 0-.36-.87 1.93 1.93 0 0 0-.63-.64 1.68 1.68 0 0 0-.92-.24 1.58 1.58 0 0 0-1.14.39 2.51 2.51 0 0 0-.61 1 4.08 4.08 0 0 0-.23 1.24v1.18h-2.55a8.31 8.31 0 0 1 .18-2.28 4.35 4.35 0 0 1 .79-1.77 3.83 3.83 0 0 1 1.47-1.14 5.71 5.71 0 0 1 2.28-.4 4.24 4.24 0 0 1 3.27 1.23 4.64 4.64 0 0 1 1.16 3.3 7 7 0 0 1-.27 2 8.1 8.1 0 0 1-.67 1.6 8.56 8.56 0 0 1-.87 1.29l-.87 1.1a8.51 8.51 0 0 0-.66 1 2 2 0 0 0-.27 1V80zm2.39 5h-2.55v-2.84h2.55z" fill="#5d7992"/><path d="M597.23 80.1h-8.35a.82.82 0 0 0-.82.82V88a1 1 0 0 0 1 1h15.42v1a6.29 6.29 0 0 0 4.72 6.06l.77.2v23a.83.83 0 0 0 .82.83h14.62a.83.83 0 0 0 .82-.83v-23l.77-.2a6.27 6.27 0 0 0 4.72-6.06v-1h14.79v5.66H640a6.32 6.32 0 0 0-6.31 6.31v18.26a.83.83 0 0 0 .83.83h3.65a4.48 4.48 0 0 0 4.47-4.47v-4.66h24v8.32a.83.83 0 0 0 .89.83.84.84 0 0 0 .76-.86V80.88A6.31 6.31 0 0 0 662 74.6h-1v-1a11.27 11.27 0 0 0-3.24-7.72 8.14 8.14 0 0 0-1.92-1.43l-1.63-.91 1.65-.87a6.24 6.24 0 0 0 3.35-5.52v-3.64a6.32 6.32 0 0 0-6.48-6.31 6.4 6.4 0 0 0-6.14 6.44v3.52a6.24 6.24 0 0 0 3.35 5.52l1.57.83-1.51.93a10.92 10.92 0 0 0-5.08 7.49l-.14.85h-2.84a4.49 4.49 0 0 0-4.48 4.48v2.84h-5.66v-1a13.69 13.69 0 0 0-9.9-13.1l-2.08-.61 1.8-1.21a6.27 6.27 0 0 0 2.8-5.22v-3.62a6.31 6.31 0 0 0-12.62 0V59a6.27 6.27 0 0 0 2.8 5.22l1.8 1.21-2.08.61a13.69 13.69 0 0 0-9.82 13.06v1h-5.66m49.32-23v-3.61a4.66 4.66 0 1 1 9.32 0v3.65a4.66 4.66 0 1 1-9.32 0zM613.45 59v-3.68a4.66 4.66 0 0 1 9.32 0V59a4.66 4.66 0 0 1-9.32 0zm-7.31 20.1a12 12 0 0 1 12-12 12 12 0 0 1 12 12v1h-24zM610 94.91l-1.52-.86a4.7 4.7 0 0 1-2.33-4V89H610zm14.61 23.53h-13V89h13zM630.08 90a4.66 4.66 0 0 1-2.33 4l-1.52.86V89h3.85zm-40.37-2.65v-5.64h56.82v5.66zM641.86 102a.83.83 0 0 0-.83.83v12.77a2.84 2.84 0 0 1-2.84 2.84h-2.85V101a4.66 4.66 0 0 1 4.66-4.68h7.34a.82.82 0 0 0 .82-.82V80.88a.82.82 0 0 0-.82-.82H639v-2.84a2.84 2.84 0 0 1 2.85-2.85h3.64a.83.83 0 0 0 .83-.82 9.38 9.38 0 0 1 4.72-7.91h.14a4.74 4.74 0 0 1 5.4 1.52 9.72 9.72 0 0 1 2.73 6.84v21.48a6.5 6.5 0 0 1-6.49 6.49h-11zm24.75 7.32h-23.93v-5.67h10.14a8.13 8.13 0 0 0 8.12-8.12V76.25h1a4.66 4.66 0 0 1 4.66 4.65v28.41z" fill="#5d7992" data-name="Capa 1"/><path d="M639.48 51.28L636 47.76h-12.92a3.51 3.51 0 0 1-3.51-3.51V31.71a3.51 3.51 0 0 1 3.51-3.51h20.5a3.51 3.51 0 0 1 3.51 3.51v12.54a3.51 3.51 0 0 1-3.51 3.51h-2.66v2.93a.84.84 0 0 1-1.44.59zm-16.4-21.47a1.9 1.9 0 0 0-1.9 1.9v12.54a1.9 1.9 0 0 0 1.9 1.9h13.55l2.68 2.68v-2.68h4.27a1.9 1.9 0 0 0 1.9-1.9V31.71a1.9 1.9 0 0 0-1.9-1.9z" fill="#5d7992"/><rect x="623.89" y="34.24" width="18.88" height="1.71" rx=".86" fill="#5d7992"/><rect x="623.89" y="38.92" width="18.88" height="1.71" rx=".86" fill="#5d7992"/><path d="M774.15 60.38a4.11 4.11 0 0 1-4.1-4.1v-3.21a4.1 4.1 0 0 1 8.2 0v3.21a4.09 4.09 0 0 1-4.1 4.1zM799 84.32h11.4v25.9H799zm6.16-7.84h-17.4V74a4 4 0 0 0-3.96-4h-2.5l-.13-.74a9.61 9.61 0 0 0-4.47-6.6l-1.33-.82 1.39-.72a5.52 5.52 0 0 0 2.94-4.86V53.2a5.62 5.62 0 0 0-5.4-5.66 5.55 5.55 0 0 0-5.7 5.55v3.21a5.5 5.5 0 0 0 2.94 4.86l1.46.76-1.44.8a7.16 7.16 0 0 0-1.69 1.28 9.91 9.91 0 0 0-2.87 6.77v.87h-.89a5.55 5.55 0 0 0-5.55 5.53v33.74a.75.75 0 0 0 .67.76.74.74 0 0 0 .79-.73v-7.32h21.07v4.1a4 4 0 0 0 3.94 3.93h3.21a.72.72 0 0 0 .72-.72V94.86a5.56 5.56 0 0 0-5.55-5.55h-5.71v-5h17.84v26.61a.73.73 0 0 0 .73.72h12.86a.73.73 0 0 0 .73-.72V84.34h-.16 2.61a.87.87 0 0 0 .87-.87v-6.28a.73.73 0 0 0-.72-.73h8.62m-43.39 6.4v-5h34v5zm4.12 12.85h-9.65a5.72 5.72 0 0 1-5.72-5.71V71.07a8.56 8.56 0 0 1 2.39-6 4.19 4.19 0 0 1 4.76-1.33h.12a8.24 8.24 0 0 1 4.15 7 .73.73 0 0 0 .73.72h3.21a2.5 2.5 0 0 1 2.5 2.5v2.51H779a.72.72 0 0 0-.72.72V90a.73.73 0 0 0 .72.73h6.46a4.11 4.11 0 0 1 4.1 4.1v15.36H787a2.5 2.5 0 0 1-2.51-2.5V96.47a.73.73 0 0 0-.72-.73zM762 102.18v-25a4.1 4.1 0 0 1 4.09-4.1h.91v17a7.16 7.16 0 0 0 7.15 7.15h8.92v5z" fill="#5d7992" data-name="Capa 1"/><path d="M787.32 74.66H796a.86.86 0 0 0 .61-.25l6.8-6.64a.88.88 0 0 1 1.24 0 .89.89 0 0 1 0 1.25l-7.22 7.22a.88.88 0 0 1-.63.26h-9.47a.89.89 0 0 1-.88-.82v-.07a.88.88 0 0 1 .87-.95z" fill="#fdc62d"/><path d="M107.92 42A11.7 11.7 0 0 0 100 62.29l.14.13.15.13a11.65 11.65 0 0 0 5.83 2.66 2.72 2.72 0 0 0 .46.06h1.38a11.7 11.7 0 1 0 0-23.4zm6.7 20.71a11.18 11.18 0 0 1-6.73 2.29h-.75a11.18 11.18 0 0 1-6.21-2.42l-.2-.15.18-.17a2.61 2.61 0 0 1 .6-.42l4-1.69a1.67 1.67 0 0 0 .61-.8.57.57 0 0 0 0-.54.54.54 0 0 0-.48-.26h-2.84a6.78 6.78 0 0 1-1.72-.42l-.19-.09h-.22l.09-.24a.53.53 0 0 1 .09-.16 13.7 13.7 0 0 0 2.65-7 5.22 5.22 0 0 1 .58-2.17 3.9 3.9 0 0 1 3.67-2.09 4.28 4.28 0 0 1 4.13 2.64 6 6 0 0 1 .48 2.15 15.08 15.08 0 0 0 2.27 6.45.59.59 0 0 1 .07.43.55.55 0 0 1-.25.33 1.84 1.84 0 0 1-1.15.2h-2.88a.5.5 0 0 0-.48.35.54.54 0 0 0 .16.6 4.58 4.58 0 0 0 .45.33l3.29 2a2.45 2.45 0 0 1 .8.67l.13.17zm.7-.53l-.17.15-.13-.18a3.07 3.07 0 0 0-.93-.8l-3.3-2a.64.64 0 0 0-.1-.06l-.26-.19a.11.11 0 0 1 .06-.2h2.75a2.39 2.39 0 0 0 1.46-.26 1 1 0 0 0 .44-.61 1 1 0 0 0-.11-.77 14.44 14.44 0 0 1-2.22-6.26 6.55 6.55 0 0 0-.52-2.3 4.7 4.7 0 0 0-4.54-2.91 4.24 4.24 0 0 0-4 2.32 6 6 0 0 0-.65 2.38 13.46 13.46 0 0 1-2.58 6.75.76.76 0 0 0-.16.65.91.91 0 0 0 .59.54 6.66 6.66 0 0 0 1.88.45h2.79a.12.12 0 0 1 .1.17l-.08.14c-.17.33-.23.39-.29.42l-4 1.71a3 3 0 0 0-.78.57l-.14.14-.15-.14a11.25 11.25 0 1 1 15.07.26z" fill="#5d7992" data-name="Capa 1"/><path d="M1123 58.25h9.07a.8.8 0 0 0 .8-.8.79.79 0 0 0-.8-.79h-3.74v-5.21l.79-.15a8.92 8.92 0 0 0 7-6.51l.15-.6.6-.13a6.71 6.71 0 0 0 5.46-6.6V32.6a.79.79 0 0 0-.79-.79h-28.08a.79.79 0 0 0-.8.79v4.86a6.72 6.72 0 0 0 5.46 6.6l.6.13.16.6a8.88 8.88 0 0 0 7 6.51l.79.15v5.21H1123a.79.79 0 0 0-.8.79.81.81 0 0 0 .8.8zm13.42-24.85h4.34v4.06a5.18 5.18 0 0 1-3 4.66l-1.38.65V33.4zm-17.8 9.37l-1.38-.65a5.18 5.18 0 0 1-3-4.66V33.4h4.35zm1.59-.21V33.4h14.6v9.16a7.3 7.3 0 0 1-7.29 7.3 7.3 7.3 0 0 1-7.3-7.3z" fill="#fff"/><path d="M1162.85 57.31a.79.79 0 0 0 .79-.8v-2.19a.79.79 0 0 0-.79-.79.79.79 0 0 0-.8.79v2.19a.8.8 0 0 0 .8.8zm0 6.75a.79.79 0 0 0-.8.79V67a.79.79 0 0 0 .8.79.79.79 0 0 0 .79-.79v-2.15a.79.79 0 0 0-.79-.79zm6.36-4.17H1167a.79.79 0 0 0-.8.79.8.8 0 0 0 .8.8h2.19a.79.79 0 0 0 .79-.8.79.79 0 0 0-.77-.79zm-10.53 0h-2.19a.79.79 0 0 0-.79.79.79.79 0 0 0 .79.8h2.19a.79.79 0 0 0 .79-.8.79.79 0 0 0-.79-.79zm-57.11 41.22a.79.79 0 0 0 .79-.8v-2.19a.8.8 0 0 0-1.59 0v2.19a.8.8 0 0 0 .8.8zm0 6.74a.8.8 0 0 0-.8.8v2.19a.8.8 0 0 0 1.59 0v-2.19a.79.79 0 0 0-.79-.8zm6.35-4.16h-2.19a.79.79 0 1 0 0 1.58h2.19a.79.79 0 1 0 0-1.58zm-10.52 0h-2.19a.79.79 0 1 0 0 1.58h2.19a.79.79 0 0 0 0-1.58zm-2.19-62.98a.79.79 0 0 0 .79-.8v-2.19a.79.79 0 0 0-.79-.79.79.79 0 0 0-.8.79v2.19a.8.8 0 0 0 .8.8zm0 6.74a.8.8 0 0 0-.8.8v2.19a.79.79 0 0 0 .8.79.79.79 0 0 0 .79-.79v-2.19a.79.79 0 0 0-.79-.8zm4.17-2.57h2.19a.79.79 0 0 0 .79-.8.79.79 0 0 0-.79-.79h-2.19a.79.79 0 0 0-.8.79.8.8 0 0 0 .8.8zm-8.38-1.59h-2.19a.79.79 0 0 0-.79.79.79.79 0 0 0 .79.8h2.19a.8.8 0 0 0 .8-.8.79.79 0 0 0-.8-.79z" fill="#fdc62d"/><path d="M1143.24 57a4.28 4.28 0 0 0-6-.14 4.24 4.24 0 0 0-.07 6.06 14.12 14.12 0 0 1 4.16 10v.1a9.76 9.76 0 0 1-5.33 8.68l-1.91 1a.37.37 0 0 1-.48-.51l1.12-1.82a8.33 8.33 0 0 0 1.2-4.33v-1.25a8.47 8.47 0 0 0-8.21-8.51 8.36 8.36 0 0 0-8.52 8.35V76a8.58 8.58 0 0 0 1.2 4.33l1.12 1.82a.36.36 0 0 1-.48.51l-1.91-1a9.71 9.71 0 0 1-5.38-8.64v-.12a14.12 14.12 0 0 1 4.16-10 4.13 4.13 0 0 0 1.24-3 4.23 4.23 0 0 0-7.29-2.88 22.68 22.68 0 0 0-.22 31.7l.09.09c.29.27.57.51.87.74a26.35 26.35 0 0 0 3.88 2.51 1.93 1.93 0 0 1 1 1.68v25.78a.79.79 0 0 0 .79.8h18.62a.79.79 0 0 0 .79-.8V93.55a1.71 1.71 0 0 1 .9-1.52 28.3 28.3 0 0 0 4.29-2.86l.43-.37c.23-.21.46-.43.67-.66a22.67 22.67 0 0 0-.73-31.15zm-22.48 19.23v-1.6a6.78 6.78 0 0 1 6.93-6.76 6.86 6.86 0 0 1 6.6 6.91V76a6.76 6.76 0 0 1-6.34 6.75h-.85a6.56 6.56 0 0 1-6.34-6.53zm19.13 13.18c-.74.49-1.47.93-2.23 1.34l-.1.05a2.77 2.77 0 0 0-1.47 2.42v25.48h-17V93.23a2.4 2.4 0 0 0-1.38-2.19l-.21-.11a17.34 17.34 0 0 1-4.56-3.17 21.36 21.36 0 0 1-6.07-14.8 21 21 0 0 1 6.11-14.84 2.69 2.69 0 0 1 3.76-.12 2.61 2.61 0 0 1 .81 1.89 2.64 2.64 0 0 1-.77 1.9 15.7 15.7 0 0 0-4.67 11.21v.13a11.42 11.42 0 0 0 11.44 11.26h3.54a6.46 6.46 0 0 0 .88 0h3.53a11.44 11.44 0 0 0 11.44-11.28V73a15.72 15.72 0 0 0-4.62-11.18 2.67 2.67 0 0 1 0-3.8 2.58 2.58 0 0 1 1.8-.71 2.85 2.85 0 0 1 2 .83 21.1 21.1 0 0 1 2.49 26.67 17.8 17.8 0 0 1-4.72 4.59z" fill="#fff"/><path d="M836.73 58.22a5.28 5.28 0 0 1-5.27-5.22v-1.14a5.27 5.27 0 0 1 10.54 0V53a5.28 5.28 0 0 1-5.27 5.22zm-5.82 53.51v-30.6l.73.06h10.17l.73-.06v30.6h-5.13V89.9a.67.67 0 0 0-.68-.67.66.66 0 0 0-.67.67v21.83h-5.15zm-16-35.61V82a1 1 0 0 0 1.44.92l10.8-5a.68.68 0 0 0 .32-.33l2.1-5.75v41.07h14.32v-27l.54-.1a6.1 6.1 0 0 0 4.87-6V64.34a6.12 6.12 0 0 0-6.12-6.12H841l.9-1.11a6.59 6.59 0 0 0 1.45-4.11v-1.14a6.63 6.63 0 0 0-7.26-6.6 6.76 6.76 0 0 0-6 6.79v.88a6.6 6.6 0 0 0 1.49 4.16l.89 1.11h-3.25a6.14 6.14 0 0 0-6 4.85l-1.92 9.08-5.67 2.77a1.37 1.37 0 0 0-.72 1.22zm1.15.08l6.17-3a.71.71 0 0 0 .37-.48l2-9.4a4.78 4.78 0 0 1 4.66-3.77h13.94a4.78 4.78 0 0 1 4.8 4.79v15.48a4.76 4.76 0 0 1-3.15 4.48l-.91.32V67.4a.66.66 0 0 0-.67-.67.67.67 0 0 0-.68.67v12.49h-11.67V67.4a.68.68 0 0 0-1.35 0v1.25l-3.2 8.11-10.31 4.73z" fill="#5d7992" data-name="Capa 1"/><g data-name="Capa 1" fill="#5d7992"><path d="M1010.73 86.58l-4.39-4.24-20.66-19.93a.93.93 0 0 0-1.29 1.33l20.66 19.93 4.39 4.24a3.92 3.92 0 0 1 1.26 2.84 4 4 0 0 1-6.83 3L1002 92l-3-2.88a.93.93 0 0 0-1.27 1.35l3 2.86a4.12 4.12 0 0 1 1.31 2.91 3.86 3.86 0 0 1-1 2.93 4.2 4.2 0 0 1-5.85 0l-4.07-3.89a.93.93 0 1 0-1.28 1.34l2.57 2.44a4 4 0 1 1-5.57 5.87l-1.39-1.31-2.67-2.55a.93.93 0 0 0-1.28 1.35l2.7 2.56a4 4 0 0 1-5.59 5.85l-9.23-8.78-14.7-14.54-8.2-7.9a5.53 5.53 0 0 1-.2-7.8l19.15-20.18 2.38.72h.26a1 1 0 0 0 .89-.66.92.92 0 0 0-.63-1.15l-1.55-.46a5.43 5.43 0 0 0-.64-7.1 5.45 5.45 0 0 0-3.73-1.5 5.35 5.35 0 0 0-3.93 1.68L936.87 65.9a5.41 5.41 0 0 0 3.92 9.15 5.5 5.5 0 0 0 2.1-.42A7.37 7.37 0 0 0 945.1 81l8.18 7.87 14.72 14.5 9.25 8.79.11.11a5.9 5.9 0 0 0 9.8-4.89 5.81 5.81 0 0 0 2.38.5 5.88 5.88 0 0 0 5.89-6.31 5.8 5.8 0 0 0 8.45-5.46V96a6 6 0 0 0 2.78.7 5.88 5.88 0 0 0 4.06-10.15zm-69.94-13.39a3.57 3.57 0 0 1-3.57-3.47 3.7 3.7 0 0 1 1-2.55l21.55-22.67a3.57 3.57 0 0 1 5-.13 3.55 3.55 0 0 1 .13 5l-21.51 22.71a3.56 3.56 0 0 1-2.6 1.11z"/><path d="M1018.43 64.31l-21.77-21.77a5.36 5.36 0 0 0-9.14 3.78 5.27 5.27 0 0 0 .56 2.38l-15.54 2.51a5.42 5.42 0 0 0-4.28 3.79L963 73.06a5.37 5.37 0 0 0 5.15 6.84 5.37 5.37 0 0 0 2.57-.66 5.29 5.29 0 0 0 2.56-3.17l4-13.29L988.15 61a.9.9 0 0 0 .76-1 .93.93 0 0 0-1.06-.76l-11.47 1.87a.93.93 0 0 0-.74.64l-4.17 13.84a3.49 3.49 0 0 1-6.42.7 3.57 3.57 0 0 1-.3-2.66l5.3-18.08a3.52 3.52 0 0 1 2.8-2.47l16.52-2.68 20 20a5.4 5.4 0 0 1 1.63 3.8 5.49 5.49 0 0 1-1.59 3.84l-2.25 2.43a.93.93 0 0 0 1.36 1.26l2.24-2.42a7.22 7.22 0 0 0 2.12-5.13 8.32 8.32 0 0 0-.09-1.12 5.2 5.2 0 0 0 1.93.35 5.34 5.34 0 0 0 3.77-9.12zm-1.29 6.26a3.49 3.49 0 0 1-4.95 0L990.42 48.8a3.46 3.46 0 0 1-1-2.48 3.42 3.42 0 0 1 1-2.47 3.48 3.48 0 0 1 4.94 0l21.78 21.77a3.51 3.51 0 0 1 0 4.95zm-43.42 40.33l-2.25 2.25a3.78 3.78 0 0 1-5.35-5.35l2.08-2.08a.93.93 0 1 0-1.31-1.31l-2.08 2.08a3.78 3.78 0 0 1-5.35 0 3.78 3.78 0 0 1 0-5.35l2-2a.93.93 0 1 0-1.31-1.31l-2.05 2a3.78 3.78 0 0 1-5.35 0 3.78 3.78 0 0 1 0-5.35l2-2a.93.93 0 1 0-1.31-1.31l-2 2a3.78 3.78 0 0 1-5.35 0 3.78 3.78 0 0 1 0-5.35l1.92-1.92a.93.93 0 0 0 0-1.31.91.91 0 0 0-1.31 0l-1.92 1.92a5.57 5.57 0 0 0-1.65 4 5.62 5.62 0 0 0 5.63 5.62A5.47 5.47 0 0 0 950 96a5.47 5.47 0 0 0-.11 1.15 5.6 5.6 0 0 0 5.62 5.62 5.47 5.47 0 0 0 1.15-.11 5.47 5.47 0 0 0-.11 1.15 5.6 5.6 0 0 0 5.62 5.62 5.47 5.47 0 0 0 1.15-.11 5.63 5.63 0 0 0 5.51 6.78 5.69 5.69 0 0 0 4-1.65l2.25-2.25a.93.93 0 0 0-1.31-1.31z"/></g><text transform="translate(13.61 168.89)" font-size="18.48" font-family="UniversCom-57Condensed,Univers Com" fill="#fff">Angebotssichtung</text><text transform="translate(391.46 168.89)" font-size="18.48" font-family="UniversCom-57Condensed,Univers Com" fill="#fff">Kurzaufgabe</text><text transform="translate(741.76 168.89)" font-size="18.48" font-family="UniversCom-57Condensed,Univers Com" fill="#fff">Hospita<tspan x="56.45" y="0" letter-spacing="0">t</tspan><tspan x="61.6" y="0">ion</tspan></text></svg>