<svg xmlns="http://www.w3.org/2000/svg" viewBox="0 0 549 1444.3"><path fill="#fff" d="M275.1 166.5V0H0v166.5l137.6 41.8z"/><path fill="#fff" d="M275.1 371.7V187.1l-139.6 46.3L0 187.1v184.6L137.6 418z"/><path fill="#fff" d="M275.1 580.2V395.5l-139.6 46.4L0 395.5v184.7l137.6 46.3z"/><path fill="#fff" d="M275.1 788.6V604l-139.6 46.3L0 604v184.6l137.6 46.3z"/><path fill="#fff" d="M275.1 998.4V813.7L135.5 860 0 813.7v184.7l137.6 46.3z"/><path fill="#fff" d="M275.1 1209.2v-184.6l-139.6 46.3L0 1024.6v184.6l137.6 46.4z"/><path d="M77.8 318.2c2.7-1.1 5.8.3 6.8 3l15.7 40.7c1 2.7-.3 5.8-3 6.8s-5.8-.3-6.8-3L74.8 325c-1.1-2.7.3-5.7 3-6.8zM143.3 251.7l8.3-3.3 11.5 32.9-6.6 4.9zM184.4 342.2l-8.2 1.6 13.2 34.6 8.2-3.3zM118 674.5l4.6-1.5h32.3l1.5 3v20l-3.1 1.5-6.1 1.6v3.1l-4.6-3.1h-18.4l-4.6-3.1-1.6-7.7zM189.9 944.9h9.9v49.3h-9.9v-49.3M155.8 1108.5l.5-.5c2.1-2.1 5.5-2.1 7.6 0l33.5 33.5c2.1 2.1 2.1 5.5 0 7.6l-.5.5c-2.1 2.1-5.5 2.1-7.6 0l-33.5-33.5c-2.1-2.1-2.1-5.5 0-7.6zM73.2 1143.4l34.2-34.2c2.4-2.4 6.3-2.4 8.6 0l1.2 1.2c2.4 2.4 2.4 6.3 0 8.6L83 1153.3c-2.4 2.4-6.3 2.4-8.6 0l-1.2-1.2c-2.4-2.4-2.4-6.3 0-8.7z" fill="#fdc62d"/><path d="M308.8 713.2h-3.1l-6-20.6h2.9l4.7 18.1h.1l4.8-18.1h2.7l-6.1 20.6z" fill="#fff"/><g fill="#fff"><path d="M321.3 713.5c-.8 0-1.5-.1-2.1-.2-.7-.2-1.2-.5-1.7-1s-.9-1.2-1.2-2.2c-.3-1-.4-2.2-.4-3.8 0-1 .1-2 .2-3 .1-.9.3-1.8.7-2.5.4-.7.9-1.2 1.6-1.7.7-.4 1.7-.6 3-.6s2.2.2 3 .6 1.3 1 1.6 1.7c.4.7.6 1.5.7 2.5.1.9.2 1.9.2 3 0 1.6-.1 2.9-.4 3.8-.3 1-.7 1.7-1.2 2.2-.5.5-1.1.9-1.7 1-.8.1-1.5.2-2.3.2zm0-2c.6 0 1.1-.1 1.5-.3.4-.2.7-.6.9-1.1s.4-1.1.5-2 .1-1.8.1-3c0-1-.1-1.8-.2-2.4-.1-.6-.3-1.1-.6-1.5s-.6-.6-1-.7c-.4-.1-.8-.2-1.2-.2s-.9.1-1.2.2c-.4.1-.7.4-1 .7s-.5.8-.6 1.5c-.1.6-.2 1.4-.2 2.4 0 1.2 0 2.2.1 3s.2 1.5.5 2 .5.9.9 1.1.9.3 1.5.3zM332.9 700.9c.3-.6.6-1 .8-1.3.3-.3.6-.6.9-.7.4-.2.8-.3 1.2-.3.4 0 1-.1 1.5-.1v2.4h-1.2c-.6 0-1.2.1-1.6.3-.4.2-.8.5-1 .9-.2.4-.4.8-.5 1.3-.1.5-.1 1-.1 1.4v8.5h-2.3v-14.4h2.3v2zM349.3 709.1c0 .8-.1 1.5-.4 2-.3.6-.6 1-1.1 1.4-.4.4-1 .6-1.6.8-.6.2-1.3.2-2 .2-1.6 0-2.8-.4-3.7-1.1-.9-.7-1.3-1.9-1.3-3.6h2.7v.8c0 .3.1.6.3.9s.4.5.7.8.8.3 1.4.3c.7 0 1.3-.2 1.8-.5.5-.4.7-.9.7-1.7 0-.4-.2-.8-.5-1.1s-.8-.6-1.3-.9c-.5-.3-1.1-.6-1.7-.8-.6-.3-1.2-.6-1.7-1s-1-.8-1.3-1.3c-.4-.5-.5-1.1-.5-1.8 0-.4.1-.8.2-1.3s.4-.9.8-1.3.9-.7 1.5-1c.6-.3 1.5-.4 2.5-.4.6 0 1.3.1 1.8.2.6.2 1.1.4 1.5.7.4.3.8.7 1 1.3.2.5.3 1.1.3 1.8h-2.6c0-.8-.2-1.3-.6-1.7-.4-.4-1-.6-1.7-.6-.6 0-1.2.2-1.6.5-.4.3-.6.8-.6 1.4 0 .4.2.8.5 1.1.4.3.8.6 1.3.9s1.1.5 1.7.8c.6.3 1.2.6 1.7 1s1 .8 1.3 1.3c.3.5.5 1.1.5 1.9zM353 698.7V696l2.3-1.1v3.8h3.1v1.8h-3.1v9.5c0 .2.1.5.2.7s.3.4.6.5c.3.1.7.2 1.2.2h.4c.2 0 .4 0 .7-.1v1.8c-.4 0-.8.1-1.2.1-.4.1-.8.1-1.2.1-1.1 0-1.9-.2-2.5-.7s-.8-1.1-.8-1.9v-10.3h-2.4v-1.8h2.7zM362.9 706.7c0 1 .1 1.8.2 2.5.1.6.3 1.1.6 1.5.2.4.6.6.9.7.4.1.8.2 1.2.2.4 0 .8-.1 1.1-.2s.6-.4.8-.6c.2-.2.4-.5.5-.9.1-.3.2-.7.2-1h2.6c0 1.6-.5 2.8-1.4 3.5-.9.7-2.1 1.1-3.6 1.1-.8 0-1.5-.1-2.1-.2-.7-.2-1.2-.5-1.7-1s-.9-1.2-1.2-2.2c-.3-1-.4-2.2-.4-3.8 0-1 .1-2 .2-3 .1-.9.3-1.8.7-2.5.4-.7.9-1.2 1.6-1.7s1.7-.6 3-.6c1 0 1.9.1 2.5.4.7.3 1.2.7 1.6 1.3.4.6.6 1.3.8 2.2s.2 1.9.2 3.1v1.2h-8.3zm5.7-1.8c0-1-.1-1.9-.2-2.5-.1-.6-.3-1.1-.6-1.4-.2-.3-.6-.5-.9-.6-.4-.1-.8-.1-1.2-.1-.4 0-.7.1-1.1.2-.3.1-.6.3-.9.7-.2.3-.4.8-.6 1.4-.2.6-.2 1.4-.2 2.4h5.7z"/></g><path d="M377.2 713.2h-2.3v-20.6h2.3v20.6z" fill="#fff"/><g fill="#fff"><path d="M383.6 713.2h-2.3v-20.6h2.3v20.6zM395.3 698.7h2.3v12.9c0 .5.1 1 .1 1.5h-2.5v-1.7h-.1c-.4.7-.9 1.2-1.5 1.5s-1.4.5-2.1.5c-1.3 0-2.2-.3-2.9-.9-.7-.6-1-1.5-1-2.8v-11h2.3v10c0 .9.2 1.6.6 2.1.4.5 1 .8 1.9.8.3 0 .6-.1 1-.2s.6-.3.9-.6c.3-.3.5-.6.7-1 .2-.4.3-.9.3-1.5v-9.6zM409.7 713.2v-10c0-.4 0-.7-.1-1.1s-.2-.6-.4-.9c-.2-.3-.5-.5-.8-.6s-.7-.2-1.2-.2c-.6 0-1.2.1-1.5.4-.4.3-.7.6-.9 1-.2.4-.3.9-.4 1.4-.1.5-.1 1-.1 1.5v8.5H402v-11.4-1.5c0-.5-.1-1-.1-1.5h2.5v1.9h.1c.5-.8 1-1.4 1.6-1.7.6-.3 1.4-.5 2.3-.5.8 0 1.4.1 1.9.3.5.2.9.5 1.2 1 .3.4.5.9.6 1.5s.2 1.2.2 1.9v10h-2.6zM423.8 698.7h2.3v15.9c0 .8-.1 1.5-.4 2-.3.5-.6.9-1.1 1.2-.5.3-1 .5-1.7.6s-1.4.2-2.2.2c-.6 0-1.2-.1-1.7-.2-.5-.2-1-.4-1.4-.7-.4-.3-.7-.7-1-1.2s-.3-1.1-.3-1.7h2.6c0 .7.2 1.2.6 1.5.4.4.9.5 1.6.5.8 0 1.4-.2 1.9-.7.4-.5.6-1.1.6-1.8v-3h-.1c-.3.6-.8 1-1.3 1.3-.6.3-1.2.5-1.8.5-1 0-1.8-.2-2.4-.6-.6-.4-1.1-.9-1.4-1.6s-.6-1.5-.7-2.4c-.1-.9-.2-1.9-.2-3 0-1.7.2-3 .5-3.9.4-.9.8-1.6 1.3-2.1s1-.8 1.5-.9c.5-.1.9-.2 1.2-.2.8 0 1.4.2 2 .5s1 .9 1.4 1.6h.1v-1.8zm.1 7.2v-1.8c0-.6-.1-1.2-.3-1.8-.2-.6-.4-1-.8-1.4-.4-.4-.9-.6-1.7-.6-.7 0-1.2.2-1.6.5-.4.4-.6.8-.8 1.3-.2.5-.3 1.1-.3 1.7 0 .6-.1 1.1-.1 1.6 0 1.2.1 2.1.2 2.8s.3 1.3.6 1.7c.2.4.5.7.9.9.3.2.7.2 1.2.2.7 0 1.2-.2 1.6-.6.4-.4.6-.8.8-1.4.2-.5.3-1.1.3-1.7v-1.4zM439.8 709.1c0 .8-.1 1.5-.4 2-.3.6-.6 1-1.1 1.4s-1 .6-1.6.8c-.6.2-1.3.2-2 .2-1.6 0-2.8-.4-3.7-1.1-.9-.7-1.3-1.9-1.3-3.6h2.7v.8c0 .3.1.6.3.9s.4.5.7.8c.3.2.8.3 1.4.3.7 0 1.3-.2 1.8-.5.5-.4.7-.9.7-1.7 0-.4-.2-.8-.5-1.1-.4-.3-.8-.6-1.3-.9-.5-.3-1.1-.6-1.7-.8s-1.2-.6-1.7-1-1-.8-1.3-1.3-.5-1.1-.5-1.8c0-.4.1-.8.2-1.3s.4-.9.8-1.3.9-.7 1.5-1c.6-.3 1.5-.4 2.5-.4.6 0 1.3.1 1.8.2.6.2 1.1.4 1.5.7.4.3.8.7 1 1.3.2.5.3 1.1.3 1.8H437c0-.8-.2-1.3-.6-1.7-.4-.4-1-.6-1.7-.6-.6 0-1.2.2-1.6.5-.4.3-.6.8-.6 1.4 0 .4.2.8.5 1.1.4.3.8.6 1.3.9s1.1.5 1.7.8c.6.3 1.2.6 1.7 1s1 .8 1.3 1.3c.6.5.8 1.1.8 1.9zM450.8 698.7h2.3v15.9c0 .8-.1 1.5-.4 2-.3.5-.6.9-1.1 1.2-.5.3-1 .5-1.7.6s-1.4.2-2.2.2c-.6 0-1.2-.1-1.7-.2-.5-.2-1-.4-1.4-.7-.4-.3-.7-.7-1-1.2s-.3-1.1-.3-1.7h2.6c0 .7.2 1.2.6 1.5.4.4.9.5 1.6.5.8 0 1.4-.2 1.9-.7.4-.5.6-1.1.6-1.8v-3h-.1c-.3.6-.8 1-1.3 1.3-.6.3-1.2.5-1.8.5-1 0-1.8-.2-2.4-.6-.6-.4-1.1-.9-1.4-1.6s-.6-1.5-.7-2.4c-.1-.9-.2-1.9-.2-3 0-1.7.2-3 .5-3.9.4-.9.8-1.6 1.3-2.1s1-.8 1.5-.9c.5-.1.9-.2 1.2-.2.8 0 1.4.2 2 .5s1 .9 1.4 1.6h.1v-1.8zm0 7.2v-1.8c0-.6-.1-1.2-.3-1.8-.2-.6-.4-1-.8-1.4-.4-.4-.9-.6-1.7-.6-.7 0-1.2.2-1.6.5-.4.4-.6.8-.8 1.3-.2.5-.3 1.1-.3 1.7 0 .6-.1 1.1-.1 1.6 0 1.2.1 2.1.2 2.8s.3 1.3.6 1.7c.2.4.5.7.9.9.3.2.7.2 1.2.2.7 0 1.2-.2 1.6-.6.4-.4.6-.8.8-1.4.2-.5.3-1.1.3-1.7v-1.4zM459.7 706.7c0 1 .1 1.8.2 2.5.1.6.3 1.1.6 1.5.2.4.6.6.9.7.4.1.8.2 1.2.2.4 0 .8-.1 1.1-.2.3-.2.6-.4.8-.6.2-.2.4-.5.5-.9.1-.3.2-.7.2-1h2.6c0 1.6-.5 2.8-1.4 3.5-.9.7-2.1 1.1-3.6 1.1-.8 0-1.5-.1-2.1-.2-.7-.2-1.2-.5-1.7-1s-.9-1.2-1.2-2.2c-.3-1-.4-2.2-.4-3.8 0-1 .1-2 .2-3 .1-.9.3-1.8.7-2.5.4-.7.9-1.2 1.6-1.7.7-.4 1.7-.6 3-.6 1 0 1.9.1 2.5.4.7.3 1.2.7 1.6 1.3s.6 1.3.8 2.2.2 1.9.2 3.1v1.2h-8.3zm5.7-1.8c0-1-.1-1.9-.2-2.5s-.3-1.1-.6-1.4c-.2-.3-.6-.5-.9-.6s-.8-.1-1.2-.1c-.4 0-.7.1-1.1.2-.3.1-.6.3-.9.7-.2.3-.4.8-.6 1.4-.2.6-.2 1.4-.2 2.4h5.7zM481 709.1c0 .8-.1 1.5-.4 2-.3.6-.6 1-1.1 1.4-.4.4-1 .6-1.6.8-.6.2-1.3.2-2 .2-1.6 0-2.8-.4-3.7-1.1-.9-.7-1.3-1.9-1.3-3.6h2.7v.8c0 .3.1.6.3.9s.4.5.7.8.8.3 1.4.3c.7 0 1.3-.2 1.8-.5.5-.4.7-.9.7-1.7 0-.4-.2-.8-.5-1.1s-.8-.6-1.3-.9c-.5-.3-1.1-.6-1.7-.8-.6-.3-1.2-.6-1.7-1s-1-.8-1.3-1.3c-.4-.5-.5-1.1-.5-1.8 0-.4.1-.8.2-1.3s.4-.9.8-1.3.9-.7 1.5-1c.6-.3 1.5-.4 2.5-.4.6 0 1.3.1 1.8.2.6.2 1.1.4 1.5.7.4.3.8.7 1 1.3.2.5.3 1.1.3 1.8h-2.6c0-.8-.2-1.3-.6-1.7-.4-.4-1-.6-1.7-.6-.6 0-1.2.2-1.6.5-.4.3-.6.8-.6 1.4 0 .4.2.8.5 1.1.4.3.8.6 1.3.9s1.1.5 1.7.8c.6.3 1.2.6 1.7 1s1 .8 1.3 1.3c.3.5.5 1.1.5 1.9zM487 700.5c.5-.7.9-1.2 1.4-1.5s1.2-.5 1.9-.5c.6 0 1.1.1 1.7.2.6.2 1.1.5 1.5 1 .4.5.8 1.2 1.1 2.2.3 1 .4 2.2.4 3.8 0 .9 0 1.8-.1 2.7-.1.9-.2 1.8-.5 2.5s-.8 1.3-1.4 1.8c-.6.5-1.6.7-2.7.7-.7 0-1.3-.1-1.8-.4-.5-.3-1-.7-1.4-1.3h-.1v6.9h-2.3v-19.9h2.3v1.8zm2.7 11c.6 0 1.1-.1 1.5-.4.4-.2.7-.6.9-1.1s.3-1.1.4-1.8c.1-.7.1-1.6.1-2.5V704c0-.6-.1-1.2-.3-1.7-.2-.5-.5-1-.9-1.3-.4-.4-1-.5-1.7-.5s-1.3.2-1.6.7c-.4.4-.6 1-.8 1.6-.2.6-.2 1.3-.2 2v1.9c0 .5 0 1 .1 1.6 0 .6.1 1.1.3 1.6.2.5.5.9.8 1.3.2.2.7.3 1.4.3zM501.1 700.9c.3-.6.6-1 .8-1.3.3-.3.6-.6.9-.7.4-.2.8-.3 1.2-.3.4 0 1-.1 1.5-.1v2.4h-1.2c-.6 0-1.2.1-1.6.3s-.8.5-1 .9c-.2.4-.4.8-.5 1.3-.1.5-.1 1-.1 1.4v8.5h-2.3v-14.4h2.3v2zM515.6 711.1c-.4.8-.9 1.4-1.5 1.8s-1.3.6-2.2.6c-.8 0-1.4-.1-1.9-.4-.5-.2-.9-.6-1.2-1s-.5-.9-.6-1.5c-.1-.6-.2-1.2-.2-1.9 0-1.1.2-1.9.7-2.6.5-.6 1.1-1.1 1.8-1.4.7-.3 1.6-.5 2.5-.5.9-.1 1.8-.1 2.6-.1v-1.4c0-.5-.1-.9-.3-1.3s-.4-.7-.7-.9c-.3-.2-.8-.4-1.4-.4-.8 0-1.4.2-1.8.7-.4.5-.5 1.1-.5 1.9h-2.5c.1-1.6.5-2.7 1.3-3.4s2-1 3.6-1c.9 0 1.7.1 2.3.3.6.2 1.1.5 1.4.9s.6.8.7 1.4.2 1.1.2 1.7v6.9c0 .6 0 1.1.1 1.7 0 .6.1 1.1.2 1.7h-2.6v-1.8zm-3.5-14.8h-2.7v-3h2.7v3zm3.5 9.7h-1.8c-.6 0-1.2.1-1.7.3-.5.2-.9.5-1.3.8-.3.4-.5 1-.5 1.7s.2 1.3.5 1.9c.4.5.9.8 1.7.8.4 0 .7-.1 1.1-.2.4-.1.7-.4 1-.8.3-.4.5-1 .7-1.7.3-.7.3-1.6.3-2.8zm1.5-9.7h-2.7v-3h2.7v3zM530 703.4c0-.6 0-1.1-.2-1.5-.1-.4-.3-.7-.5-.9-.2-.2-.4-.4-.7-.5-.2-.1-.5-.1-.7-.1-.5 0-.9.1-1.2.2-.4.1-.7.4-1 .7s-.5.8-.6 1.5c-.1.6-.2 1.4-.2 2.4 0 1.2 0 2.2.1 3s.2 1.5.5 2 .5.9.9 1.1.9.3 1.5.3c.1 0 .3 0 .6-.1.2-.1.5-.2.7-.5s.4-.6.6-1c.2-.4.2-.9.2-1.6h2.5c0 1-.1 1.8-.5 2.5-.3.7-.7 1.2-1.2 1.6-.5.4-1 .6-1.5.8-.5.2-1 .2-1.4.2-.8 0-1.5-.1-2.1-.2-.7-.2-1.2-.5-1.7-1s-.9-1.2-1.2-2.2c-.3-1-.4-2.2-.4-3.8 0-1 .1-2 .2-3 .1-.9.3-1.8.7-2.5.4-.7.9-1.2 1.6-1.7.7-.4 1.7-.6 3-.6 1.4 0 2.6.4 3.4 1.2.8.8 1.1 2.1 1.1 3.7H530zM544.6 713.2v-9.8c0-.4 0-.8-.1-1.2-.1-.4-.2-.7-.4-1-.2-.3-.5-.5-.8-.6s-.7-.2-1.2-.2c-.6 0-1.1.1-1.5.3-.4.2-.7.5-.9.9-.2.4-.4.8-.5 1.4-.1.5-.1 1.1-.1 1.7v8.5h-2.3v-20.6h2.3v8.1h.1c.5-.8 1-1.4 1.6-1.7.6-.3 1.4-.4 2.3-.4 1.2 0 2.2.3 2.8 1 .7.7 1 1.8 1 3.5v10.2h-2.3z"/></g><path d="M313.2 280.6v2.3h-5.4v18.3h-2.6v-18.3h-5.4v-2.3h13.4z" fill="#fff"/><g fill="#fff"><path d="M315.7 294.8c0 1 .1 1.8.2 2.5.1.6.3 1.1.6 1.5.2.4.6.6.9.7.4.1.8.2 1.2.2.4 0 .8-.1 1.1-.2.3-.2.6-.4.8-.6.2-.2.4-.5.5-.9.1-.3.2-.7.2-1h2.6c0 1.6-.5 2.8-1.4 3.5-.9.7-2.1 1.1-3.6 1.1-.8 0-1.5-.1-2.1-.2-.7-.2-1.2-.5-1.7-1s-.9-1.2-1.2-2.2c-.3-1-.4-2.2-.4-3.8 0-1 .1-2 .2-3 .1-.9.3-1.8.7-2.5.4-.7.9-1.2 1.6-1.7.7-.4 1.7-.6 3-.6 1 0 1.9.1 2.5.4.7.3 1.2.7 1.6 1.3s.6 1.3.8 2.2.2 1.9.2 3.1v1.2h-8.3zm5.6-1.8c0-1-.1-1.9-.2-2.5s-.3-1.1-.6-1.4c-.2-.3-.6-.5-.9-.6s-.8-.1-1.2-.1c-.4 0-.7.1-1.1.2-.3.1-.6.3-.9.7-.2.3-.4.8-.6 1.4-.2.6-.2 1.4-.2 2.4h5.7zM330 301.3h-2.3v-20.6h2.3v20.6zM336.3 294.8c0 1 .1 1.8.2 2.5.1.6.3 1.1.6 1.5.2.4.6.6.9.7.4.1.8.2 1.2.2.4 0 .8-.1 1.1-.2.3-.2.6-.4.8-.6.2-.2.4-.5.5-.9.1-.3.2-.7.2-1h2.6c0 1.6-.5 2.8-1.4 3.5-.9.7-2.1 1.1-3.6 1.1-.8 0-1.5-.1-2.1-.2-.7-.2-1.2-.5-1.7-1s-.9-1.2-1.2-2.2c-.3-1-.4-2.2-.4-3.8 0-1 .1-2 .2-3 .1-.9.3-1.8.7-2.5.4-.7.9-1.2 1.6-1.7.7-.4 1.7-.6 3-.6 1 0 1.9.1 2.5.4.7.3 1.2.7 1.6 1.3s.6 1.3.8 2.2.2 1.9.2 3.1v1.2h-8.3zm5.6-1.8c0-1-.1-1.9-.2-2.5s-.3-1.1-.6-1.4c-.2-.3-.6-.5-.9-.6s-.8-.1-1.2-.1c-.4 0-.7.1-1.1.2-.3.1-.6.3-.9.7-.2.3-.4.8-.6 1.4-.2.6-.2 1.4-.2 2.4h5.7zM348.7 286.8V284c0-.7.1-1.3.4-1.8s.5-.8.9-1.1c.4-.3.8-.4 1.3-.5.5-.1 1-.1 1.5-.1h.6c.2 0 .3 0 .5.1v1.7c-.6 0-1.1 0-1.5.1-.4.1-.7.2-.9.4-.2.2-.3.4-.4.7-.1.3-.1.5-.1.8v2.5h2.9v1.8H351v12.7h-2.3v-12.7h-2.2v-1.8h2.2zM361.3 301.5c-.8 0-1.5-.1-2.1-.2-.7-.2-1.2-.5-1.7-1s-.9-1.2-1.2-2.2c-.3-1-.4-2.2-.4-3.8 0-1 .1-2 .2-3 .1-.9.3-1.8.7-2.5.4-.7.9-1.2 1.6-1.7.7-.4 1.7-.6 3-.6s2.2.2 3 .6 1.3 1 1.6 1.7c.4.7.6 1.5.7 2.5.1.9.2 1.9.2 3 0 1.6-.1 2.9-.4 3.8-.3 1-.7 1.7-1.2 2.2-.5.5-1.1.9-1.7 1-.8.2-1.5.2-2.3.2zm0-1.9c.6 0 1.1-.1 1.5-.3.4-.2.7-.6.9-1.1s.4-1.1.5-2 .1-1.8.1-3c0-1-.1-1.8-.2-2.4-.1-.6-.3-1.1-.6-1.5s-.6-.6-1-.7c-.4-.1-.8-.2-1.2-.2s-.9.1-1.2.2c-.4.1-.7.4-1 .7s-.5.8-.6 1.5c-.1.6-.2 1.4-.2 2.4 0 1.2 0 2.2.1 3s.2 1.5.5 2 .5.9.9 1.1.9.3 1.5.3zM378.4 301.3v-10c0-.4 0-.7-.1-1.1s-.2-.6-.4-.9c-.2-.3-.5-.5-.8-.6s-.7-.2-1.2-.2c-.6 0-1.2.1-1.5.4-.4.3-.7.6-.9 1-.2.4-.3.9-.4 1.4-.1.5-.1 1-.1 1.5v8.5h-2.3v-11.4-1.5c0-.5-.1-1-.1-1.5h2.5v1.9h.1c.5-.8 1-1.4 1.6-1.7.6-.3 1.4-.5 2.3-.5.8 0 1.4.1 1.9.3.5.2.9.5 1.2 1 .3.4.5.9.6 1.5s.2 1.2.2 1.9v10h-2.6zM384.4 292.4h6.3v2.2h-6.3v-2.2zM397.6 301.3H395v-20.6h2.6v20.6zM410.1 301.3v-10c0-.4 0-.7-.1-1.1-.1-.3-.2-.6-.4-.9-.2-.3-.5-.5-.8-.6-.3-.1-.7-.2-1.2-.2-.6 0-1.2.1-1.5.4-.4.3-.7.6-.9 1-.2.4-.3.9-.4 1.4-.1.5-.1 1-.1 1.5v8.5h-2.3v-11.4-1.5c0-.5-.1-1-.1-1.5h2.5v1.9h.1c.5-.8 1-1.4 1.6-1.7.6-.3 1.4-.5 2.3-.5.8 0 1.4.1 1.9.3.5.2.9.5 1.2 1 .3.4.5.9.6 1.5s.2 1.2.2 1.9v10h-2.6zM416.8 286.8V284l2.3-1.1v3.8h3.1v1.8h-3.1v9.5c0 .2.1.5.2.7s.3.4.6.5c.3.1.7.2 1.2.2h.4c.2 0 .4 0 .7-.1v1.8c-.4 0-.8.1-1.2.1-.4.1-.8.1-1.2.1-1.1 0-1.9-.2-2.5-.7s-.8-1.1-.8-1.9v-10.3h-2.4v-1.8h2.7zM426.8 294.8c0 1 .1 1.8.2 2.5.1.6.3 1.1.6 1.5.2.4.6.6.9.7.4.1.8.2 1.2.2.4 0 .8-.1 1.1-.2s.6-.4.8-.6c.2-.2.4-.5.5-.9.1-.3.2-.7.2-1h2.6c0 1.6-.5 2.8-1.4 3.5-.9.7-2.1 1.1-3.6 1.1-.8 0-1.5-.1-2.1-.2-.7-.2-1.2-.5-1.7-1s-.9-1.2-1.2-2.2c-.3-1-.4-2.2-.4-3.8 0-1 .1-2 .2-3 .1-.9.3-1.8.7-2.5.4-.7.9-1.2 1.6-1.7s1.7-.6 3-.6c1 0 1.9.1 2.5.4.7.3 1.2.7 1.6 1.3.4.6.6 1.3.8 2.2s.2 1.9.2 3.1v1.2h-8.3zm5.6-1.8c0-1-.1-1.9-.2-2.5-.1-.6-.3-1.1-.6-1.4-.2-.3-.6-.5-.9-.6-.4-.1-.8-.1-1.2-.1-.4 0-.7.1-1.1.2-.3.1-.6.3-.9.7-.2.3-.4.8-.6 1.4-.2.6-.2 1.4-.2 2.4h5.7zM441.2 289c.3-.6.6-1 .8-1.3.3-.3.6-.6.9-.7.4-.2.8-.3 1.2-.3.4 0 1-.1 1.5-.1v2.4h-1.2c-.6 0-1.2.1-1.6.3-.4.2-.8.5-1 .9-.2.4-.4.8-.5 1.3-.1.5-.1 1-.1 1.4v8.5h-2.3V287h2.3v2zM446.6 286.8h2.6l3.2 12.2h.1l3.5-12.2h2.5l-4.5 14.4h-3.1l-4.3-14.4zM460.8 280.6h2.6v2.5h-2.6v-2.5zm2.5 20.7H461v-14.4h2.3v14.4zM469.6 294.8c0 1 .1 1.8.2 2.5.1.6.3 1.1.6 1.5.2.4.6.6.9.7.4.1.8.2 1.2.2.4 0 .8-.1 1.1-.2.3-.2.6-.4.8-.6.2-.2.4-.5.5-.9.1-.3.2-.7.2-1h2.6c0 1.6-.5 2.8-1.4 3.5-.9.7-2.1 1.1-3.6 1.1-.8 0-1.5-.1-2.1-.2-.7-.2-1.2-.5-1.7-1s-.9-1.2-1.2-2.2c-.3-1-.4-2.2-.4-3.8 0-1 .1-2 .2-3 .1-.9.3-1.8.7-2.5.4-.7.9-1.2 1.6-1.7.7-.4 1.7-.6 3-.6 1 0 1.9.1 2.5.4.7.3 1.2.7 1.6 1.3s.6 1.3.8 2.2.2 1.9.2 3.1v1.2h-8.3zm5.6-1.8c0-1-.1-1.9-.2-2.5s-.3-1.1-.6-1.4c-.2-.3-.6-.5-.9-.6s-.8-.1-1.2-.1c-.4 0-.7.1-1.1.2-.3.1-.6.3-.9.7-.2.3-.4.8-.6 1.4-.2.6-.2 1.4-.2 2.4h5.7zM479.8 286.8h2.6l2.6 12.4h.1l3.2-12.4h3.3l2.9 12.4h.1l2.9-12.4h2.5l-3.9 14.4H493l-3.1-12.3h-.1l-3.2 12.3h-3.1l-3.7-14.4z"/></g><path d="M308.8 1125.1h-3.1l-6-20.6h2.9l4.7 18.1h.1l4.8-18.1h2.7l-6.1 20.6z" fill="#fff"/><g fill="#fff"><path d="M318.5 1118.6c0 1 .1 1.8.2 2.5.1.6.3 1.1.6 1.5.2.4.6.6.9.7.4.1.8.2 1.2.2.4 0 .8-.1 1.1-.2s.6-.4.8-.6c.2-.2.4-.5.5-.9.1-.3.2-.7.2-1h2.6c0 1.6-.5 2.8-1.4 3.5-.9.7-2.1 1.1-3.6 1.1-.8 0-1.5-.1-2.1-.2-.7-.2-1.2-.5-1.7-1s-.9-1.2-1.2-2.2c-.3-1-.4-2.2-.4-3.8 0-1 .1-2 .2-3 .1-.9.3-1.8.7-2.5.4-.7.9-1.2 1.6-1.7s1.7-.6 3-.6c1 0 1.9.1 2.5.4.7.3 1.2.7 1.6 1.3.4.6.6 1.3.8 2.2s.2 1.9.2 3.1v1.2h-8.3zm5.6-1.7c0-1-.1-1.9-.2-2.5-.1-.6-.3-1.1-.6-1.4-.2-.3-.6-.5-.9-.6-.4-.1-.8-.1-1.2-.1-.4 0-.7.1-1.1.2-.3.1-.6.3-.9.7-.2.3-.4.8-.6 1.4-.2.6-.2 1.4-.2 2.4h5.7zM332.9 1112.8c.3-.6.6-1 .8-1.3.3-.3.6-.6.9-.7.4-.2.8-.3 1.2-.3.4 0 1-.1 1.5-.1v2.4h-1.2c-.6 0-1.2.1-1.6.3-.4.2-.8.5-1 .9-.2.4-.4.8-.5 1.3-.1.5-.1 1-.1 1.4v8.5h-2.3v-14.4h2.3v2zM340.3 1110.7v-2.8l2.3-1.1v3.8h3.1v1.8h-3.1v9.5c0 .2.1.5.2.7s.3.4.6.5c.3.1.7.2 1.2.2h.4c.2 0 .4 0 .7-.1v1.8c-.4 0-.8.1-1.2.1-.4.1-.8.1-1.2.1-1.1 0-1.9-.2-2.5-.7s-.8-1.1-.8-1.9v-10.3h-2.4v-1.8h2.7zM350.4 1112.8c.3-.6.6-1 .8-1.3.3-.3.6-.6.9-.7.4-.2.8-.3 1.2-.3.4 0 1-.1 1.5-.1v2.4h-1.2c-.6 0-1.2.1-1.6.3-.4.2-.8.5-1 .9-.2.4-.4.8-.5 1.3-.1.5-.1 1-.1 1.4v8.5H348v-14.4h2.3v2zM364.9 1123c-.4.8-.9 1.4-1.5 1.8s-1.3.6-2.2.6c-.8 0-1.4-.1-1.9-.4-.5-.2-.9-.6-1.2-1s-.5-.9-.6-1.5c-.1-.6-.2-1.2-.2-1.9 0-1.1.2-1.9.7-2.6.5-.6 1.1-1.1 1.8-1.4.7-.3 1.6-.5 2.5-.5.9-.1 1.8-.1 2.6-.1v-1.4c0-.5-.1-.9-.3-1.3s-.4-.7-.7-.9c-.3-.2-.8-.4-1.4-.4-.8 0-1.4.2-1.8.7-.4.5-.5 1.1-.5 1.9h-2.5c.1-1.6.5-2.7 1.3-3.4s2-1 3.6-1c.9 0 1.7.1 2.3.3.6.2 1.1.5 1.4.9s.6.8.7 1.4.2 1.1.2 1.7v6.9c0 .6 0 1.1.1 1.7 0 .6.1 1.1.2 1.7h-2.6v-1.8zm-.1-5.1H363c-.6 0-1.2.1-1.7.3-.5.2-.9.5-1.3.8-.3.4-.5 1-.5 1.7s.2 1.3.5 1.9c.4.5.9.8 1.7.8.4 0 .7-.1 1.1-.2.4-.1.7-.4 1-.8.3-.4.5-1 .7-1.7.3-.7.4-1.6.3-2.8zM379.4 1110.7h2.3v15.9c0 .8-.1 1.5-.4 2-.3.5-.6.9-1.1 1.2-.5.3-1 .5-1.7.6s-1.4.2-2.2.2c-.6 0-1.2-.1-1.7-.2s-1-.4-1.4-.7c-.4-.3-.7-.7-1-1.2s-.3-1.1-.3-1.7h2.6c0 .7.2 1.2.6 1.5.4.4.9.5 1.6.5.8 0 1.4-.2 1.9-.7.4-.5.6-1.1.6-1.8v-3h-.1c-.3.6-.8 1-1.3 1.3-.6.3-1.2.5-1.8.5-1 0-1.8-.2-2.4-.6-.6-.4-1.1-.9-1.4-1.6-.3-.7-.6-1.5-.7-2.4-.1-.9-.2-1.9-.2-3 0-1.7.2-3 .5-3.9.4-.9.8-1.6 1.3-2.1s1-.8 1.5-.9.9-.2 1.2-.2c.8 0 1.4.2 2 .5s1 .9 1.4 1.6h.1v-1.8zm0 7.1v-1.8c0-.6-.1-1.2-.3-1.8-.2-.6-.4-1-.8-1.4-.4-.4-.9-.6-1.7-.6-.7 0-1.2.2-1.6.5-.4.4-.6.8-.8 1.3-.2.5-.3 1.1-.3 1.7 0 .6-.1 1.1-.1 1.6 0 1.2.1 2.1.2 2.8.1.7.3 1.3.6 1.7.2.4.5.7.9.9.3.2.7.2 1.2.2.7 0 1.2-.2 1.6-.6.4-.4.6-.8.8-1.4.2-.5.3-1.1.3-1.7v-1.4zM395.3 1121c0 .8-.1 1.5-.4 2-.3.6-.6 1-1.1 1.4-.4.4-1 .6-1.6.8-.6.2-1.3.2-2 .2-1.6 0-2.8-.4-3.7-1.1-.9-.7-1.3-1.9-1.3-3.6h2.7v.8c0 .3.1.6.3.9s.4.5.7.8.8.3 1.4.3c.7 0 1.3-.2 1.8-.5.5-.4.7-.9.7-1.7 0-.4-.2-.8-.5-1.1s-.8-.6-1.3-.9c-.5-.3-1.1-.6-1.7-.8-.6-.3-1.2-.6-1.7-1s-1-.8-1.3-1.3c-.4-.5-.5-1.1-.5-1.8 0-.4.1-.8.2-1.3s.4-.9.8-1.3.9-.7 1.5-1c.6-.3 1.5-.4 2.5-.4.6 0 1.3.1 1.8.2.6.2 1.1.4 1.5.7.4.3.8.7 1 1.3.2.5.3 1.1.3 1.8h-2.6c0-.8-.2-1.3-.6-1.7-.4-.4-1-.6-1.7-.6-.6 0-1.2.2-1.6.5-.4.3-.6.8-.6 1.4 0 .4.2.8.5 1.1.4.3.8.6 1.3.9s1.1.5 1.7.8c.6.3 1.2.6 1.7 1s1 .8 1.3 1.3c.3.5.5 1.2.5 1.9zM397.1 1110.7h2.6l3.2 12.2h.1l3.5-12.2h2.5l-4.5 14.4h-3.1l-4.3-14.4zM413.7 1118.6c0 1 .1 1.8.2 2.5.1.6.3 1.1.6 1.5.2.4.6.6.9.7.4.1.8.2 1.2.2.4 0 .8-.1 1.1-.2.3-.2.6-.4.8-.6.2-.2.4-.5.5-.9.1-.3.2-.7.2-1h2.6c0 1.6-.5 2.8-1.4 3.5-.9.7-2.1 1.1-3.6 1.1-.8 0-1.5-.1-2.1-.2-.7-.2-1.2-.5-1.7-1s-.9-1.2-1.2-2.2c-.3-1-.4-2.2-.4-3.8 0-1 .1-2 .2-3 .1-.9.3-1.8.7-2.5.4-.7.9-1.2 1.6-1.7.7-.4 1.7-.6 3-.6 1 0 1.9.1 2.5.4.7.3 1.2.7 1.6 1.3s.6 1.3.8 2.2.2 1.9.2 3.1v1.2h-8.3zm5.6-1.7c0-1-.1-1.9-.2-2.5s-.3-1.1-.6-1.4c-.2-.3-.6-.5-.9-.6s-.8-.1-1.2-.1c-.4 0-.7.1-1.1.2-.3.1-.6.3-.9.7-.2.3-.4.8-.6 1.4-.2.6-.2 1.4-.2 2.4h5.7zM428.1 1112.8c.3-.6.6-1 .8-1.3.3-.3.6-.6.9-.7.4-.2.8-.3 1.2-.3.4 0 1-.1 1.5-.1v2.4h-1.2c-.6 0-1.2.1-1.6.3-.4.2-.8.5-1 .9-.2.4-.4.8-.5 1.3-.1.5-.1 1-.1 1.4v8.5h-2.3v-14.4h2.3v2zM443 1125.1v-9.8c0-.4 0-.8-.1-1.2-.1-.4-.2-.7-.4-1-.2-.3-.5-.5-.8-.6s-.7-.2-1.2-.2c-.6 0-1.1.1-1.5.3-.4.2-.7.5-.9.9-.2.4-.4.8-.5 1.4-.1.5-.1 1.1-.1 1.7v8.5h-2.3v-20.6h2.3v8.1h.1c.5-.8 1-1.4 1.6-1.7.6-.3 1.4-.4 2.3-.4 1.2 0 2.2.3 2.8 1 .7.7 1 1.8 1 3.5v10.2H443zM456.9 1123c-.4.8-.9 1.4-1.5 1.8s-1.3.6-2.2.6c-.8 0-1.4-.1-1.9-.4-.5-.2-.9-.6-1.2-1s-.5-.9-.6-1.5-.2-1.2-.2-1.9c0-1.1.2-1.9.7-2.6.5-.6 1.1-1.1 1.8-1.4.7-.3 1.6-.5 2.5-.5.9-.1 1.8-.1 2.6-.1v-1.4c0-.5-.1-.9-.3-1.3s-.4-.7-.7-.9c-.3-.2-.8-.4-1.4-.4-.8 0-1.4.2-1.8.7-.4.5-.5 1.1-.5 1.9h-2.5c.1-1.6.5-2.7 1.3-3.4.8-.6 2-1 3.6-1 .9 0 1.7.1 2.3.3.6.2 1.1.5 1.4.9.4.4.6.8.7 1.4.1.5.2 1.1.2 1.7v6.9c0 .6 0 1.1.1 1.7 0 .6.1 1.1.2 1.7h-2.6v-1.8zm0-5.1h-1.8c-.6 0-1.2.1-1.7.3-.5.2-.9.5-1.3.8-.3.4-.5 1-.5 1.7s.2 1.3.5 1.9c.4.5.9.8 1.7.8.4 0 .7-.1 1.1-.2s.7-.4 1-.8c.3-.4.5-1 .7-1.7.3-.7.3-1.6.3-2.8zM471.6 1125.1v-10c0-.4 0-.7-.1-1.1s-.2-.6-.4-.9c-.2-.3-.5-.5-.8-.6s-.7-.2-1.2-.2c-.6 0-1.2.1-1.5.4-.4.3-.7.6-.9 1-.2.4-.3.9-.4 1.4-.1.5-.1 1-.1 1.5v8.5h-2.3v-11.4-1.5c0-.5-.1-1-.1-1.5h2.5v1.9h.1c.5-.8 1-1.4 1.6-1.7.6-.3 1.4-.5 2.3-.5.8 0 1.4.1 1.9.3.5.2.9.5 1.2 1 .3.4.5.9.6 1.5s.2 1.2.2 1.9v10h-2.6z"/></g><path d="M485.7 1104.5h2.3v20.6h-2.3v-1.7h-.1c-.4.7-.9 1.2-1.4 1.5-.5.3-1.2.5-1.9.5-.6 0-1.1-.1-1.7-.2-.6-.2-1.1-.5-1.5-1-.4-.5-.8-1.2-1.1-2.2s-.4-2.2-.4-3.8c0-.9 0-1.8.1-2.7.1-.9.2-1.8.5-2.5s.8-1.3 1.4-1.8 1.6-.7 2.7-.7c.7 0 1.3.1 1.8.4.5.3 1 .7 1.4 1.3h.1v-7.7zm0 12.8c0-.5 0-1-.1-1.6s-.1-1.1-.3-1.6c-.2-.5-.5-.9-.8-1.3s-.9-.5-1.5-.5-1.1.1-1.5.4c-.4.2-.7.6-.9 1.1-.2.5-.3 1.1-.4 1.8-.1.7-.1 1.6-.1 2.5v1.8c0 .6.1 1.2.3 1.7s.5 1 .9 1.3c.4.4 1 .5 1.7.5.6 0 1.2-.2 1.5-.6.4-.4.6-.9.8-1.4.2-.6.3-1.3.3-2s.1-1.4.1-2.1z" fill="#fff"/><g fill="#fff"><path d="M494.6 1125.1h-2.3v-20.6h2.3v20.6zM506.4 1110.7h2.3v12.9c0 .5.1 1 .1 1.5h-2.5v-1.7h-.1c-.4.7-.9 1.2-1.5 1.5s-1.4.5-2.1.5c-1.3 0-2.2-.3-2.9-.9-.7-.6-1-1.5-1-2.8v-11h2.3v10c0 .9.2 1.6.6 2.1.4.5 1 .8 1.9.8.3 0 .6-.1 1-.2s.6-.3.9-.6c.3-.3.5-.6.7-1 .2-.4.3-.9.3-1.5v-9.6zM520.8 1125.1v-10c0-.4 0-.7-.1-1.1-.1-.3-.2-.6-.4-.9-.2-.3-.5-.5-.8-.6s-.7-.2-1.2-.2c-.6 0-1.2.1-1.5.4-.4.3-.7.6-.9 1-.2.4-.3.9-.4 1.4-.1.5-.1 1-.1 1.5v8.5H513v-11.4-1.5c0-.5-.1-1-.1-1.5h2.5v1.9h.1c.5-.8 1-1.4 1.6-1.7.6-.3 1.4-.5 2.3-.5.8 0 1.4.1 1.9.3.5.2.9.5 1.2 1 .3.4.5.9.6 1.5s.2 1.2.2 1.9v10h-2.5zM534.9 1110.7h2.3v15.9c0 .8-.1 1.5-.4 2-.3.5-.6.9-1.1 1.2-.5.3-1 .5-1.7.6s-1.4.2-2.2.2c-.6 0-1.2-.1-1.7-.2-.5-.2-1-.4-1.4-.7-.4-.3-.7-.7-1-1.2s-.3-1.1-.3-1.7h2.6c0 .7.2 1.2.6 1.5.4.4.9.5 1.6.5.8 0 1.4-.2 1.9-.7.4-.5.6-1.1.6-1.8v-3h-.1c-.3.6-.8 1-1.3 1.3-.6.3-1.2.5-1.8.5-1 0-1.8-.2-2.4-.6-.6-.4-1.1-.9-1.4-1.6-.3-.7-.6-1.5-.7-2.4-.1-.9-.2-1.9-.2-3 0-1.7.2-3 .5-3.9.4-.9.8-1.6 1.3-2.1s1-.8 1.5-.9c.5-.1.9-.2 1.2-.2.8 0 1.4.2 2 .5s1 .9 1.4 1.6h.1v-1.8zm0 7.1v-1.8c0-.6-.1-1.2-.3-1.8-.2-.6-.4-1-.8-1.4-.4-.4-.9-.6-1.7-.6-.7 0-1.2.2-1.6.5-.4.4-.6.8-.8 1.3s-.3 1.1-.3 1.7c0 .6-.1 1.1-.1 1.6 0 1.2.1 2.1.2 2.8s.3 1.3.6 1.7c.2.4.5.7.9.9.3.2.7.2 1.2.2.7 0 1.2-.2 1.6-.6.4-.4.6-.8.8-1.4s.3-1.1.3-1.7v-1.4z"/></g><path d="M198.8 375.3l-12.4-34v-.1c-.1-.1-.2-.1-.2-.2H185.6c-11.4 0-22.2 5.6-28.6 15l-.4.5-.6-.3c-2.6-1.3-5.1-2.9-7.5-4.6l-1.1-.8 9.1-3.4 4.2-1.6c1.9-.7 3.4-2.2 4.3-4.1.8-1.8.8-3.9.1-5.7-.8-2-2.5-3.6-4.5-4.3l-.9-.3.5-.8c.3-.4.5-.8.6-1.2.8-1.9.9-4 .1-6-.7-1.9-2.2-3.4-4-4.2l-.8-.3-.9-.3.5-.8c.2-.4.4-.7.6-1.1.8-1.9.9-4 .1-5.9-.9-2.2-2.6-3.8-4.9-4.5l-.9-.3.5-.8c.2-.3.4-.7.6-1.1.8-1.9.9-4 .1-5.9-1.5-4-6-6-10-4.4h-.1l-4.2 1.5-8.8 3.2.3-1.4c.7-2.6 1.5-5.2 2.6-7.7l.2-.5.6.2c11 3.2 22.8.7 31.6-6.6l.1-.1v-.1l.2-.2v-.1-.4-.2-.1l-12.2-33.8c-.2-.6-.8-.9-1.4-.6l-29.3 10.6h-.1l-.2.1h-.1l-.1.1c-8.9 10-15.2 22.2-18 35.4l-.1.3-.3.2c-5.3 3.2-10.7 14.8-12.3 18.2l-4.1 8.2-.7-.8c-1.3-1.6-3.3-2.5-5.4-2.4-.9 0-1.8.2-2.6.5-1.7.7-3.2 2-3.9 3.8-.8 1.7-.8 3.7 0 5.5l15.5 39c1.1 2.7 3.7 4.5 6.6 4.5.9 0 1.8-.2 2.6-.5 1.8-.7 3.2-2 3.9-3.8.3-.7.5-1.4.6-2.1l.1-1 1 .4c.5.2.9.4 1.4.5 1.2.4 2.5.6 3.8.6 1.4 0 2.8-.2 4.1-.8l7.1-2.8.3.4c12.3 14.1 29.2 23.3 47.7 25.9h.2c.1 0 .3 0 .4-.1l29.4-10.6c.3-.1.5-.2.6-.5.2 0 .1-.2 0-.4zm-48.1-126l11.7 32.1-.4.3c-1.5 1.1-3 2.1-4.6 3l-.7.4-12.2-33.4 6.2-2.4zm-47.1 57.6c.7-17.4 7.4-34.1 19-47.2l.1-.1 19.7-7.1 12.2 33.6-.6.2c-7 2.8-14.8 2.9-21.9.4h-.8l-.2.1-.1.1-.1.1c0 .1 0 .1-.1.1-1.8 3.8-3.1 7.8-3.9 11.9l-.1.4-23.2 8.6v-1.1zm-3.5 58.4c-.5 1.2-1.5 2.2-2.7 2.6-.6.2-1.2.3-1.8.3-2 0-3.8-1.2-4.6-3.1L75.6 326c-.5-1.2-.4-2.6.1-3.8.5-1.2 1.5-2.1 2.7-2.6.6-.2 1.2-.3 1.8-.3 2 0 3.9 1.2 4.6 3.1l15.3 39c.6 1.3.6 2.7 0 3.9zm12.3-3.5c-1.1.4-2.2.6-3.4.6-1.1 0-2.2-.2-3.2-.5-2-.6-3.7-2-4.6-3.9v-.2L87.4 323l5.1-10c2.2-5.1 4.9-9.9 8.2-14.3l1.7-2.1-.4 2.6c-.5 3.4-.7 6.7-.8 10.1v.5c.2.4.6.7 1 .7h.3l25.2-9.2 10.7-3.9 4.3-1.5c2.9-1 6.1.5 7.2 3.4.5 1.3.4 2.7-.1 4-.6 1.4-1.7 2.4-3.1 3l-4.6 1.8-.1.2-.1.3v.5s.1 0 .1.1v.1l.1.1h.1c.1 0 .1 0 .1.1h.9l4.1-1.5c3-1.2 6.4.3 7.6 3.2 1.2 3-.3 6.4-3.2 7.6-.1 0-.1.1-.2.1l-3.4 1.3-1.2.4h-.1l-.2.2s0 .1-.1.1V321.7l.1.1h.1l.2.2h.8l4.3-1.5c1.3-.5 2.8-.4 4.1.1 2.8 1.2 4.1 4.5 2.9 7.4-.6 1.3-1.6 2.3-2.9 2.9l-3.2 1.3-1.4.5c-.3.1-.5.3-.6.5-.2.6.1 1.2.6 1.5.2.1.5.1.8 0l4.2-1.5c1.3-.5 2.8-.4 4.1.1 2.7 1 4 3.9 3.1 6.6-.1.3-.2.5-.4.8-.6 1.3-1.7 2.3-3.1 2.9l-3.1 1.3-1.2.4-29.2 10.8-14.3 5.7zm56 23.4h-.2c-17.4-2.6-33.3-11.1-45.1-24.1l-.7-.8 4.9-1.9 17.8-6.6.3.3c3.4 2.7 7.1 5 11 6.9h.9v-.1h.1l.1-.1.1-.1c0-.1.1-.1.1-.1 3.9-6.4 9.9-11.3 17-13.8l.7-.2 12.2 33.6-19.2 7zm21.7-7.9l-12.2-33.4.8-.2c1.8-.4 3.6-.6 5.4-.7h.6l11.7 32.1-6.3 2.2z" fill="#5d7992"/><path fill="#fdc62d" d="M119.6 589h32.9l-3.3-21.3h-26.3zM88.4 508.4h54.2v16.5l-54.2 1.6z"/><path d="M199.1 460.6H73.2c-4.5 0-8.1 3.6-8.1 8.1V561c0 4.5 3.6 8.1 8.1 8.1h49l-3.8 18.4h-11c-.7 0-1.2.6-1.2 1.2 0 .7.5 1.2 1.2 1.2H165c.7 0 1.2-.5 1.2-1.2s-.6-1.2-1.2-1.2h-11.1l-3.8-18.4h49c4.5 0 8.1-3.6 8.1-8.1v-92.3c.1-4.5-3.6-8.1-8.1-8.1zm-47.7 127H121l3.8-18.4h22.9l3.7 18.4zm53.4-26.6c0 3.1-2.5 5.7-5.7 5.7H73.2c-3.1 0-5.6-2.5-5.6-5.7v-92.3c0-3.1 2.5-5.7 5.6-5.7h125.9c3.1 0 5.7 2.5 5.7 5.6V561z" fill="#5d7992"/><path d="M199 468.2H73.4c-.7 0-1.2.5-1.2 1.2v84.4c0 .7.6 1.2 1.2 1.2H199c.7 0 1.2-.6 1.2-1.2v-84.4c0-.6-.5-1.2-1.2-1.2zm-1.2 84.4H74.6v-81.9h123.2v81.9zM144.9 559.5h-17.4c-.7-.1-1.3.3-1.4 1s.3 1.3 1 1.4h17.8c.7.1 1.3-.4 1.4-1.1.1-.7-.4-1.3-1.1-1.4h-.3z" fill="#5d7992"/><path d="M147.8 488.1H89.4c-.7 0-1.3-.6-1.3-1.3 0-.7.6-1.3 1.3-1.3h58.3c.7 0 1.3.6 1.3 1.3 0 .7-.5 1.3-1.2 1.3zM162.3 493.7H89.4c-.7 0-1.3-.6-1.3-1.3 0-.7.6-1.3 1.3-1.3h72.9c.7 0 1.3.6 1.3 1.3 0 .7-.6 1.3-1.3 1.3zM144 504.5H89.4c-.7 0-1.3-.6-1.3-1.2 0-.7.6-1.2 1.3-1.2H144c.7 0 1.3.6 1.3 1.3-.1.5-.6 1.1-1.3 1.1zM89.4 530.9h54.1c.7 0 1.3.6 1.3 1.3 0 .7-.6 1.3-1.3 1.3H89.4c-.7 0-1.3-.6-1.3-1.3.1-.8.6-1.3 1.3-1.3zM89.4 536.4h54.1c.7 0 1.3.6 1.3 1.3 0 .7-.6 1.3-1.3 1.3H89.4c-.7 0-1.3-.6-1.3-1.3.1-.7.6-1.3 1.3-1.3zM144.5 526.8H87.8V508h56.7v18.8zm-55.1-1.6h53.4v-15.4H89.4v15.4zM167.2 530.9v-4.8c0-.9.3-1.8.8-2.6s1.1-1.6 1.7-2.5c.7-.9 1.2-1.8 1.8-2.8.6-1.1.8-2.3.8-3.6 0-.5-.1-.9-.2-1.4-.1-.5-.3-.9-.6-1.4-.3-.4-.6-.7-1-1-.4-.3-.9-.4-1.4-.4-.6 0-1.3.2-1.8.6-.4.4-.8 1-.9 1.5-.2.6-.3 1.3-.4 1.9v1.8h-3.9c-.1-1.2 0-2.4.3-3.5.2-1 .6-1.9 1.2-2.7.6-.8 1.4-1.4 2.3-1.8 1.1-.4 2.3-.7 3.5-.6 1.9-.1 3.7.6 5.1 1.9 1.2 1.4 1.9 3.2 1.8 5.1 0 1-.1 2.1-.4 3.1-.2.9-.6 1.7-1 2.5-.4.7-.8 1.4-1.4 2l-1.4 1.7c-.4.5-.7 1-1 1.5-.3.5-.4 1-.4 1.5v3.8l-3.5.2zm3.7 7.7H167v-4.4h3.9v4.4zM85.4 746.3h-12c-.7 0-1.2.5-1.2 1.2v10.2c0 .8.6 1.4 1.4 1.4h22.2v1.4c0 4.1 2.8 7.7 6.8 8.8l1.1.3v33.2c0 .7.5 1.2 1.2 1.2H126c.7 0 1.2-.5 1.2-1.2v-33.2l1.1-.3c4-1 6.8-4.6 6.8-8.8v-1.4h21.3v8.2H147c-5 0-9.1 4.1-9.1 9.1v26.3c0 .7.5 1.2 1.2 1.2h5.3c3.6 0 6.5-2.9 6.5-6.4v-6.7h34.6v12c0 .7.5 1.2 1.2 1.2h.1c.6-.1 1.1-.6 1.1-1.2v-55.3c0-5-4.1-9-9.1-9.1h-1.4V737c-.1-4.2-1.7-8.2-4.7-11.1-.8-.8-1.7-1.5-2.8-2.1l-2.4-1.3 2.4-1.3c3-1.6 4.8-4.6 4.8-8V708c0-5-4.1-9.1-9.1-9.1h-.2c-5 .2-8.9 4.3-8.9 9.3v5.1c0 3.4 1.9 6.4 4.8 8l2.3 1.2-2.2 1.3c-3.9 2.4-6.6 6.3-7.3 10.8l-.2 1.2H150c-3.6 0-6.5 2.9-6.5 6.5v4.1h-8.2V745c0-8.8-5.9-16.5-14.4-19l-3-.9 2.6-1.7c2.5-1.7 4-4.5 4-7.5v-5.2c0-5-4.1-9.1-9.1-9.1s-9.1 4.1-9.1 9.1v5.3c0 3 1.5 5.9 4 7.5l2.6 1.7-3 .9c-8.4 2.5-14.1 10.1-14.2 18.8v1.4h-8m71.2-33.1V708a6.7 6.7 0 0 1 13.4 0v5.3c0 3.7-3 6.7-6.7 6.7s-6.7-3.1-6.7-6.8zm-50.1 2.7v-5.3a6.7 6.7 0 0 1 13.4 0v5.3c0 3.7-3 6.7-6.7 6.7-3.6 0-6.7-3-6.7-6.7zm-10.5 29c0-9.6 7.7-17.3 17.3-17.3 9.6 0 17.3 7.7 17.3 17.3v1.4H98.3v-1.4zm5.6 22.8l-2.2-1.2c-2.1-1.2-3.3-3.4-3.4-5.8v-1.5h5.6v8.5zm21 34h-18.7v-42.5H125l-.1 42.5zm7.9-41c0 2.4-1.3 4.6-3.4 5.8l-2.2 1.2v-8.5h5.6v1.5zm-58.2-3.9v-8.1h82v8.2l-82-.1zm75.2 21.1c-.7 0-1.2.5-1.2 1.2v18.4c0 2.3-1.8 4.1-4.1 4.1h-4.1v-25.2c0-3.7 3-6.7 6.7-6.8h10.6c.7 0 1.2-.5 1.2-1.2v-21.1c0-.7-.5-1.2-1.2-1.2h-12V742c0-2.3 1.8-4.1 4.1-4.1h5.3c.7 0 1.2-.5 1.2-1.2.1-4.7 2.7-9.1 6.8-11.4h.2c2.8-1.1 6-.2 7.8 2.2 2.5 2.6 4 6.2 3.9 9.9v31c0 5.2-4.2 9.4-9.4 9.4l-15.8.1zm35.7 10.6H151v-8.2h14.6c6.5 0 11.7-5.2 11.7-11.7v-27.8h1.4c3.7 0 6.7 3 6.7 6.7l.1 41z" fill="#5d7992"/><path d="M146.4 704.7l-5-5.1h-18.7c-2.8 0-5.1-2.3-5.1-5v-18.1c0-2.8 2.3-5.1 5.1-5.1h29.6c2.8 0 5.1 2.3 5.1 5v18.1c0 2.8-2.3 5.1-5 5.1h-3.8v4.2c0 .7-.5 1.2-1.2 1.2-.5.1-.8 0-1-.3zm-23.7-31c-1.5 0-2.7 1.2-2.7 2.7v18.1c0 1.5 1.2 2.7 2.7 2.7h19.5l3.9 3.9v-3.9h6.2c1.5 0 2.7-1.2 2.7-2.7v-18.1c0-1.5-1.2-2.7-2.7-2.7h-29.6z" fill="#5d7992"/><path d="M125.2 680.2h24.7c.7 0 1.2.5 1.2 1.2s-.6 1.2-1.2 1.2h-24.7c-.7 0-1.2-.6-1.2-1.2-.1-.7.5-1.2 1.2-1.2-.1-.1-.1 0 0 0zM125.2 686.9h24.7c.7 0 1.2.5 1.2 1.2s-.6 1.2-1.2 1.2h-24.7c-.7 0-1.2-.6-1.2-1.2-.1-.6.5-1.2 1.2-1.2-.1 0-.1 0 0 0zM92.9 914c-3.5 0-6.3-2.8-6.3-6.3v-5c-.1-3.5 2.6-6.4 6.1-6.6 3.5-.1 6.4 2.6 6.6 6.1v5.5c-.1 3.5-2.9 6.3-6.4 6.3zm38.4 37h17.6v40h-17.6v-40zm9.5-12.1h-26.9V935c0-3.4-2.7-6.1-6.1-6.2h-3.9l-.2-1.2c-.7-4.2-3.2-8-6.9-10.2l-2.1-1.3 2.2-1.1c2.8-1.5 4.5-4.4 4.5-7.5v-4.7c0-4.7-3.6-8.6-8.3-8.8-4.7-.1-8.7 3.6-8.8 8.3v5.2c0 3.2 1.7 6 4.5 7.5l2.3 1.2-2.2 1.2c-1 .5-1.8 1.2-2.6 2-2.8 2.8-4.4 6.5-4.4 10.5v1.3h-1.4c-4.7 0-8.6 3.8-8.6 8.5v52.2c0 .6.4 1.1 1 1.2.6 0 1.2-.4 1.2-1.1v-11.4h32.6v6.3c.1 3.3 2.8 6 6.1 6.1h5c.6 0 1.1-.5 1.1-1.1v-24.8c0-4.7-3.8-8.6-8.6-8.6h-8.8V951H129v41.1c0 .6.5 1.1 1.1 1.1H150c.6 0 1.1-.5 1.1-1.1V951h3.9c.7 0 1.3-.6 1.3-1.3V940c0-.6-.5-1.1-1.1-1.1h13.3m-67 9.9V941H154v7.7l-52.5.1zm6.3 19.8H92.9c-4.9 0-8.8-4-8.8-8.8v-29.3c0-3.5 1.3-6.8 3.7-9.3 1.7-2.2 4.7-3.1 7.4-2.1h.2c3.9 2.2 6.3 6.3 6.4 10.8 0 .6.5 1.1 1.1 1.1h5c2.1 0 3.9 1.7 3.9 3.9v3.9h-11.3c-.6 0-1.1.5-1.1 1.1v19.8c0 .6.5 1.1 1.1 1.1h10c3.5 0 6.3 2.8 6.3 6.3V991h-4c-2.1 0-3.9-1.7-3.9-3.8v-17.4c0-.6-.5-1.1-1.1-1.1v-.1zm-33.7 10V940c0-3.5 2.8-6.3 6.3-6.3h1.4v26.2c0 6.1 4.9 11.1 11 11.1h13.8v7.7l-32.5-.1z" fill="#5d7992"/><path d="M113.2 936.1h13.4c.4 0 .7-.1.9-.4l10.5-10.3c.5-.5 1.4-.5 1.9 0s.5 1.4 0 1.9l-11.2 11.2c-.3.3-.6.4-1 .4h-14.6c-.7 0-1.3-.6-1.4-1.3v-.1c.1-.7.7-1.4 1.5-1.4zM146 68.3l1.6-2.3 1.7-4.3 1.6-6.5v-1.7l1.7-1.6 1.6-1.7h5l2 .3.9 1.5.4-.1 1.6 3.3.5.8.4 3.3 1.1 4.8 1.1 1.7.9 2.1-.5.9-1.2.7H161.2l-.2.7 2.1 1.3 2.8 1.8 2 1.2.5 1-2.6 1.8-3.7 1.5-3.2.6-5.5-.3-4.8-1.9-2.6-1.9.9-1 2.2-1.1 1-.6 1-.5.9-.3 1.1-.4 1-.6.5-.9-.3-.5h-4.8l-2-.3z" fill="#fdc62d"/><path d="M183.4 164H91c-3.2 0-5.8-2.6-5.8-5.8V36c0-3.2 2.6-5.7 5.8-5.7h92.5c3.2 0 5.7 2.6 5.7 5.7v122.3c0 3.1-2.6 5.7-5.8 5.7zM91 31.9c-2.3 0-4.1 1.8-4.2 4.1v122.3c0 2.3 1.9 4.1 4.1 4.1h92.5c2.3 0 4.1-1.8 4.1-4.1V36c0-2.3-1.8-4.1-4.1-4.1H91z" fill="#5d7992"/><path d="M99.4 65.3h25.3c.6 0 1 .4 1 1v.7c0 .6-.4 1-1 1H99.4c-.6 0-1-.4-1-1v-.7c0-.6.5-1 1-1zM99.7 79.4h32c.7 0 1.3-.6 1.3-1.3.1-.7-.4-1.3-1.1-1.4H99.7c-.7 0-1.3.6-1.3 1.2 0 .8.5 1.4 1.3 1.5-.1 0-.1 0 0 0zM99.8 97.9h73.4c.7 0 1.3-.6 1.3-1.3 0-.7-.6-1.3-1.3-1.3H99.8c-.7 0-1.3.6-1.3 1.3s.5 1.3 1.3 1.3zM173.1 107.8H99.8c-.7 0-1.3.6-1.3 1.3s.6 1.3 1.3 1.3h73.4c.7 0 1.3-.6 1.3-1.3s-.6-1.3-1.4-1.3zM173.1 120.3H99.8c-.7 0-1.3.6-1.3 1.3s.6 1.3 1.3 1.3h73.4c.7 0 1.3-.6 1.3-1.3s-.6-1.3-1.4-1.3zM173.1 132.8H99.8c-.7.1-1.3.7-1.2 1.5.1.6.6 1.2 1.2 1.2h73.4c.7-.1 1.3-.7 1.2-1.5-.1-.7-.6-1.2-1.3-1.2zM173.1 145.3H99.8c-.7-.1-1.4.5-1.4 1.2-.1.7.5 1.4 1.2 1.4H173.2c.7.1 1.4-.5 1.4-1.2.1-.7-.5-1.4-1.2-1.4h-.3zM157.5 43.6c-10 0-18.1 8.1-18.1 18.1 0 5.1 2.1 9.9 5.8 13.3l.2.2.2.2c2.6 2.2 5.7 3.6 9 4.1.2 0 .5.1.7.1h2.1c10-.2 17.9-8.5 17.7-18.5-.2-9.7-8-17.4-17.7-17.7l.1.2zm10.4 32c-3 2.3-6.6 3.5-10.4 3.5h-1.2c-3.5-.2-6.9-1.5-9.6-3.7l-.3-.2.3-.3c.3-.3.6-.5.9-.7l6.2-2.6c.4-.3.8-.7.9-1.2.1-.3.1-.6 0-.8-.2-.3-.4-.4-.7-.4h-4.4c-.9-.1-1.8-.3-2.7-.6l-.3-.1h-.3l.1-.4c0-.1.1-.2.1-.3 2.3-3.1 3.7-6.9 4.1-10.7.1-1.2.4-2.3.9-3.4 1.1-2.1 3.3-3.4 5.7-3.2 2.8-.1 5.3 1.5 6.4 4.1.4 1.1.7 2.2.7 3.3.4 3.6 1.6 7 3.5 10 .1.2.2.4.1.7-.1.2-.2.4-.4.5-.5.3-1.2.4-1.8.3h-4.4c-.3 0-.6.2-.7.5-.1.3 0 .7.2.9.2.2.5.3.7.5l5.1 3.1c.5.2.9.6 1.2 1l.2.3-.1-.1zm1.1-.8l-.3.2-.2-.3c-.4-.5-.9-.9-1.4-1.2l-5.1-3.1-.1-.1-.4-.3c-.1-.1-.1-.2 0-.2l.1-.1h4.3c.8.1 1.6 0 2.3-.4.3-.2.6-.6.7-.9.1-.4 0-.8-.2-1.2-1.9-2.9-3.1-6.2-3.4-9.7 0-1.2-.3-2.4-.8-3.5-1.2-2.8-4-4.6-7-4.5-2.6-.2-5.1 1.2-6.3 3.6-.6 1.1-.9 2.4-1 3.7-.4 3.8-1.7 7.4-4 10.4-.2.3-.3.6-.3 1 .2.4.5.7.9.8.9.4 1.9.6 2.9.7h4.3c.1 0 .2.1.2.2v.1l-.1.2c-.3.5-.4.6-.4.7l-6.2 2.7c-.5.2-.9.5-1.2.9l-.2.2-.2-.2c-7-6.6-7.4-17.6-.8-24.6 6.6-7 17.6-7.4 24.6-.8 7 6.6 7.4 17.6.8 24.6-.6.2-1 .6-1.5 1.1z" fill="#5d7992"/><path fill="#fdc62d" d="M127.9 1308.4h26.3v19.8l-6.6 6.6-6.6 1.6-8.7-1.8-2.8-6.4-1.6-4.9z"/><path d="M134.2 1348.3h14c.7 0 1.2-.6 1.2-1.2 0-.7-.5-1.2-1.2-1.2h-5.8v-8l1.2-.2c5.3-1 9.5-4.9 10.8-10.1l.2-.9.9-.2c4.9-.9 8.4-5.2 8.4-10.2v-7.5c0-.7-.5-1.2-1.2-1.2h-43.4c-.7 0-1.2.5-1.2 1.2v7.5c0 5 3.5 9.3 8.4 10.2l.9.2.3.9c1.3 5.2 5.6 9.1 10.8 10.1l1.2.2v8H134c-.7 0-1.2.5-1.2 1.2.2.6.7 1.2 1.4 1.2zm20.7-38.4h6.7v6.3c0 3.1-1.8 5.9-4.6 7.2l-2.1 1v-14.5zm-27.5 14.5l-2.1-1c-2.8-1.3-4.6-4.1-4.6-7.2v-6.3h6.7v14.5zm2.5-.3v-14.2h22.6v14.2c0 6.2-5 11.3-11.3 11.3-6.2-.1-11.3-5.1-11.3-11.3z" fill="#fff"/><path d="M195.8 1346.9c.7 0 1.2-.5 1.2-1.2v-3.4c0-.7-.5-1.2-1.2-1.2s-1.2.5-1.2 1.2v3.4c0 .6.5 1.2 1.2 1.2zM195.8 1357.3c-.7 0-1.2.5-1.2 1.2v3.3c0 .7.5 1.2 1.2 1.2s1.2-.5 1.2-1.2v-3.3c0-.7-.5-1.2-1.2-1.2zM205.6 1350.9h-3.4c-.7 0-1.2.5-1.2 1.2s.6 1.2 1.2 1.2h3.4c.7 0 1.2-.5 1.2-1.2s-.5-1.2-1.2-1.2zM189.4 1350.9H186c-.7 0-1.2.5-1.2 1.2s.5 1.2 1.2 1.2h3.4c.7 0 1.2-.5 1.2-1.2s-.5-1.2-1.2-1.2zM101.1 1414.6c.7 0 1.2-.5 1.2-1.2v-3.4c-.1-.7-.7-1.2-1.4-1.1-.6.1-1 .5-1.1 1.1v3.4c.1.7.6 1.2 1.3 1.2zM101.1 1425c-.7 0-1.2.5-1.2 1.2v3.4c.1.7.7 1.2 1.4 1.1.6-.1 1-.5 1.1-1.1v-3.4c-.1-.6-.6-1.2-1.3-1.2zM110.9 1418.6h-3.4c-.7.1-1.2.7-1.1 1.3.1.6.5 1.1 1.1 1.1h3.4c.7.1 1.3-.4 1.3-1.1s-.4-1.3-1.1-1.3h-.2zM94.6 1418.6h-3.4c-.7.1-1.2.7-1.1 1.3.1.6.5 1.1 1.1 1.1h3.4c.7-.1 1.2-.7 1.1-1.3 0-.6-.5-1.1-1.1-1.1zM91.2 1321.2c.7 0 1.2-.5 1.2-1.2v-3.4c0-.7-.5-1.2-1.2-1.2s-1.2.5-1.2 1.2v3.4c0 .7.6 1.2 1.2 1.2zM91.2 1331.6c-.7 0-1.2.5-1.2 1.2v3.4c0 .7.5 1.2 1.2 1.2s1.2-.5 1.2-1.2v-3.4c0-.6-.5-1.2-1.2-1.2zM97.7 1327.7h3.4c.7 0 1.2-.5 1.2-1.2s-.5-1.2-1.2-1.2h-3.4c-.7 0-1.2.5-1.2 1.2 0 .6.5 1.1 1.2 1.2zM84.7 1325.2h-3.4c-.7 0-1.2.5-1.2 1.2s.5 1.2 1.2 1.2h3.4c.7 0 1.2-.5 1.2-1.2.1-.7-.5-1.2-1.2-1.2z" fill="#fdc62d"/><path d="M165.5 1346.4c-2.3-2.8-6.4-3.2-9.2-.8-2.8 2.3-3.2 6.4-.8 9.2l.6.6.1.1c4.1 4.1 6.4 9.7 6.4 15.5v.2c0 5.7-3.2 10.8-8.2 13.4l-2.9 1.6c-.3.1-.6 0-.8-.3-.1-.2-.1-.3 0-.5l1.7-2.8c1.2-2 1.9-4.3 1.9-6.7v-1.9c0-7.1-5.6-12.9-12.7-13.2-7.1-.1-13 5.5-13.2 12.7v2.3c0 2.4.7 4.7 1.9 6.7l1.7 2.8c.2.3.1.6-.1.8-.2.1-.4.1-.6 0l-3-1.6c-5.1-2.5-8.3-7.7-8.3-13.4v-.1c0-5.8 2.3-11.4 6.4-15.5 1.2-1.2 1.9-2.9 1.9-4.6 0-3.6-3-6.5-6.6-6.5-1.8 0-3.4.7-4.6 2-13.4 13.5-13.6 35.3-.3 49l.1.1c.4.4.9.8 1.3 1.2 1.9 1.5 3.9 2.8 6 3.9.9.5 1.5 1.5 1.5 2.6v39.8c0 .7.5 1.2 1.2 1.2h28.8c.7 0 1.2-.5 1.2-1.2v-40.2c0-1 .5-1.9 1.4-2.3 2.3-1.3 4.6-2.7 6.6-4.4l.7-.6c.4-.3.7-.7 1-1 12.4-13.8 11.9-34.9-1.1-48.1zm-34.8 29.7v-2.5c0-5.8 4.7-10.5 10.5-10.4h.2c5.7.2 10.2 4.9 10.2 10.7v1.9c0 5.5-4.3 10.1-9.8 10.4h-1.3c-5.4-.2-9.7-4.6-9.8-10.1zm29.6 20.4c-1.1.8-2.3 1.4-3.4 2.1l-.2.1c-1.4.7-2.3 2.2-2.3 3.7v39.4h-26.3v-39.4c0-1.5-.8-2.8-2.1-3.4l-.3-.2c-2.6-1.2-4.9-2.9-7-4.9-6-6.1-9.3-14.3-9.4-22.9 0-8.6 3.4-16.8 9.4-22.9 1.6-1.6 4.1-1.7 5.8-.2 1.6 1.6 1.7 4.2.1 5.8-4.6 4.6-7.2 10.8-7.2 17.3v.2c.1 9.7 8 17.4 17.7 17.4h12.4c9.6 0 17.5-7.8 17.6-17.4v-.2c0-6.5-2.6-12.7-7.1-17.3-1.6-1.6-1.6-4.2 0-5.8.7-.7 1.7-1.1 2.8-1.1 1.2 0 2.3.5 3.1 1.3 11 11.1 12.6 28.3 3.9 41.2-2.2 2.9-4.7 5.3-7.5 7.2z" fill="#fff"/><path d="M189.6 910.7c-4.5 0-8.1-3.6-8.1-8.1v-1.8c.2-4.5 3.9-8 8.4-7.9 4.3.1 7.7 3.6 7.9 7.9v1.8c-.1 4.4-3.7 8-8.2 8.1zm-9 82.7v-47.3l1.1.1h15.7l1.1-.1v47.3h-7.9v-33.7c0-.6-.4-1-1-1s-1 .4-1 1v33.8l-8-.1zm-24.7-55v9.1c0 .8.7 1.5 1.5 1.5.2 0 .5-.1.7-.2l16.7-7.7c.2-.1.4-.3.5-.5l3.3-8.9v63.5h22.1v-41.8l.8-.2c4.4-.9 7.5-4.8 7.5-9.3V920c0-5.2-4.2-9.5-9.4-9.5h-3.4l1.4-1.7c1.4-1.8 2.2-4 2.2-6.3v-1.8c0-5.7-4.6-10.2-10.2-10.3h-1c-5.3.6-9.3 5.1-9.3 10.5v1.4c0 2.3.8 4.6 2.3 6.4l1.4 1.7h-5c-4.5 0-8.3 3.1-9.3 7.5l-3 14-8.8 4.4c-.6.5-1 1.2-1 2.1zm1.8.1l9.5-4.6c.3-.1.5-.4.6-.7l3.1-14.5c.7-3.4 3.7-5.8 7.2-5.8h21.5c4.1 0 7.4 3.3 7.4 7.4v24c0 3.1-2 5.9-4.9 6.9l-1.4.5V925c0-.6-.4-1-1-1s-1 .4-1 1v19.3h-18V925c0-.6-.5-1-1-1-.6 0-1 .5-1 1v1.9l-4.9 12.5-15.9 7.3-.2-8.2zM187.1 1174.6l-6.8-6.6-31.9-30.8c-.6-.5-1.5-.4-2 .2-.5.5-.4 1.3 0 1.9l31.9 30.8 6.8 6.6c1.2 1.1 1.9 2.7 1.9 4.4.1 3.4-2.5 6.3-5.9 6.4-1.7.1-3.4-.6-4.6-1.8l-2.9-2.7-4.6-4.4c-.6-.6-1.5-.5-2 0-.6.6-.5 1.5 0 2l4.6 4.4c1.2 1.2 2 2.8 2 4.5.1 1.7-.4 3.3-1.5 4.5-2.5 2.4-6.5 2.4-9 0l-6.3-6c-.6-.6-1.5-.6-2 0-.5.5-.6 1.4-.1 1.9l.2.2 4 3.8c2.6 2.3 2.8 6.3.5 8.8-2.3 2.6-6.3 2.8-8.8.5l-.3-.3-2.1-2-4.1-4c-.6-.6-1.5-.5-2 0-.6.6-.5 1.5 0 2l4.2 4c2.3 2.5 2.2 6.5-.4 8.8-2.3 2.1-5.9 2.2-8.3.2l-14.3-13.6-22.7-22.5-12.7-12.2c-3.4-3.3-3.5-8.6-.3-12.1l29.6-31.2 3.7 1.1h.4c.6 0 1.2-.4 1.4-1 .2-.8-.2-1.5-1-1.8l-2.4-.7c2.7-3.7 1.9-9-1.8-11.7-1.4-1-3.2-1.6-4.9-1.6-2.3 0-4.5.9-6.1 2.6l-33.4 35.2c-3.2 3.3-3.1 8.6.3 11.8 2.4 2.3 5.9 2.9 9 1.7-.5 3.6.8 7.3 3.4 9.8l12.7 12.2 22.8 22.4 14.3 13.6.2.2c3.8 3.3 9.5 3 12.9-.8 1.7-1.9 2.5-4.3 2.3-6.8 4.6 2 10-.1 12-4.7.5-1.1.8-2.3.8-3.6v-.7c4.4 2.3 9.8.5 12.1-3.9.7-1.4 1-2.9 1-4.5v-.2c4.4 2.4 9.9.7 12.3-3.7.7-1.3 1.1-2.8 1.1-4.3-.4-2.2-1.4-4.6-3.2-6.3zM79 1153.9c-3 0-5.4-2.4-5.5-5.4 0-1.5.5-2.9 1.6-3.9l33.3-35c2.1-2.1 5.6-2.1 7.7 0 2 2.1 2.1 5.4.2 7.5L83 1152.2c-1 1.1-2.5 1.7-4 1.7z" fill="#5d7992"/><path d="M199 1140.2l-33.7-33.7c-3.3-3.2-8.5-3.2-11.7.1-1.5 1.5-2.4 3.6-2.4 5.8 0 1.3.3 2.5.9 3.7l-24 3.9c-3.1.5-5.7 2.8-6.6 5.9l-8.1 27.9c-1.3 4.4 1.3 9 5.7 10.3.7.2 1.5.3 2.3.3 1.4 0 2.8-.3 4-1 1.9-1 3.4-2.8 4-4.9l6.2-20.6 16.8-2.8c.7-.1 1.3-.8 1.2-1.6-.1-.8-.9-1.3-1.6-1.2l-17.8 2.8c-.5.1-1 .5-1.1 1l-6.4 21.4c-.8 2.9-3.8 4.5-6.7 3.7-1.4-.4-2.6-1.3-3.2-2.6-.7-1.3-.8-2.7-.5-4.1l8.2-27.9c.6-2 2.3-3.5 4.3-3.8l25.5-4.2 30.9 30.9c1.6 1.5 2.5 3.7 2.5 5.9s-.9 4.4-2.5 5.9l-3.5 3.8c-.5.6-.4 1.5.2 2 .6.4 1.3.4 1.9-.1l3.5-3.8c2.1-2.1 3.3-5 3.3-7.9 0-.6-.1-1.2-.1-1.7 1 .4 2 .6 3 .5 4.6 0 8.3-3.7 8.3-8.2 0-2.2-.9-4.3-2.4-5.8l-.4.1zm-2 9.7c-2.1 2.1-5.5 2.1-7.6 0l-33.6-33.7c-2-2.2-1.9-5.6.3-7.6 2.1-1.9 5.3-1.9 7.3 0l33.7 33.7c2 2 2 5.4-.1 7.6zM129.9 1212.2l-3.5 3.5c-2.3 2.2-6 2.1-8.3-.2-2.1-2.3-2.1-5.8 0-8l3.2-3.2c.6-.5.6-1.5.1-2s-1.3-.6-1.9-.2l-.2.2-3.2 3.2c-2.3 2.3-6 2.3-8.3 0-2.3-2.3-2.3-6 0-8.3l3.1-3.1c.6-.5.6-1.5.1-2s-1.3-.6-1.9-.2l-.2.2-3.2 3.1c-2.3 2.3-6 2.3-8.3 0-2.3-2.3-2.3-6 0-8.3l3.1-3.1c.6-.5.8-1.4.3-2-.5-.6-1.4-.8-2-.3l-.1.1-.2.2-3.1 3.1c-2.3 2.3-6 2.3-8.3 0-2.3-2.3-2.3-6 0-8.3l3-3c.5-.6.5-1.4 0-2-.5-.6-1.4-.6-2 0l-3 3c-3.4 3.4-3.4 8.9 0 12.3 1.6 1.6 3.8 2.5 6.1 2.5.6 0 1.3-.1 1.9-.2-.1.6-.2 1.2-.2 1.8 0 4.8 3.8 8.7 8.6 8.7h.1c.6 0 1.2 0 1.8-.2-.1.6-.2 1.2-.2 1.8 0 4.8 3.8 8.7 8.6 8.7.6 0 1.2-.1 1.8-.2-1 4.7 2 9.3 6.7 10.3 2.9.6 5.9-.3 8-2.4l3.5-3.5c.4-.7.3-1.6-.4-2-.5-.3-1.1-.3-1.6 0h.1z" fill="#5d7992"/><g fill="#fff"><path d="M306.3 74.7h3.3l6.7 20.6h-2.9l-1.5-4.9h-8l-1.5 4.9h-2.7l6.6-20.6zm1.6 2.4l-3.3 11h6.6l-3.3-11zM326.7 95.3v-10c0-.4 0-.7-.1-1.1-.1-.3-.2-.6-.4-.9-.2-.3-.5-.5-.8-.6-.3-.1-.7-.2-1.2-.2-.6 0-1.2.1-1.5.4-.4.3-.7.6-.9 1-.2.4-.3.9-.4 1.4-.1.5-.1 1-.1 1.5v8.5H319V83.9v-1.5c0-.5-.1-1-.1-1.5h2.5v1.9h.1c.5-.8 1-1.4 1.6-1.7.6-.3 1.4-.5 2.3-.5.8 0 1.4.1 1.9.3.5.2.9.5 1.2 1 .3.4.5.9.6 1.5s.2 1.2.2 1.9v10h-2.6zM340.8 80.9h2.3v15.9c0 .8-.1 1.5-.4 2-.3.5-.6.9-1.1 1.2-.5.3-1 .5-1.7.6s-1.4.2-2.2.2c-.6 0-1.2-.1-1.7-.2-.5-.2-1-.4-1.4-.7-.4-.3-.7-.7-1-1.2s-.3-1.1-.3-1.7h2.6c0 .7.2 1.2.6 1.5.4.4.9.5 1.6.5.8 0 1.4-.2 1.9-.7.4-.5.6-1.1.6-1.8v-3h-.1c-.3.6-.8 1-1.3 1.3-.6.3-1.2.5-1.8.5-1 0-1.8-.2-2.4-.6-.6-.4-1.1-.9-1.4-1.6s-.6-1.5-.7-2.4c-.1-.9-.2-1.9-.2-3 0-1.7.2-3 .5-3.9.4-.9.8-1.6 1.3-2.1s1-.8 1.5-.9c.5-.1.9-.2 1.2-.2.8 0 1.4.2 2 .5s1 .9 1.4 1.6h.1v-1.8zm0 7.1v-1.8c0-.6-.1-1.2-.3-1.8-.2-.6-.4-1-.8-1.4-.4-.4-.9-.6-1.7-.6-.7 0-1.2.2-1.6.5-.4.4-.6.8-.8 1.3-.2.5-.3 1.1-.3 1.7 0 .6-.1 1.1-.1 1.6 0 1.2.1 2.1.2 2.8s.3 1.3.6 1.7c.2.4.5.7.9.9.3.2.7.2 1.2.2.7 0 1.2-.2 1.6-.6.4-.4.6-.8.8-1.4.2-.5.3-1.1.3-1.7V88zM349.7 88.8c0 1 .1 1.8.2 2.5.1.6.3 1.1.6 1.5.2.4.6.6.9.7.4.1.8.2 1.2.2.4 0 .8-.1 1.1-.2s.6-.4.8-.6c.2-.2.4-.5.5-.9.1-.3.2-.7.2-1h2.6c0 1.6-.5 2.8-1.4 3.5-.9.7-2.1 1.1-3.6 1.1-.8 0-1.5-.1-2.1-.2-.7-.2-1.2-.5-1.7-1s-.9-1.2-1.2-2.2c-.3-1-.4-2.2-.4-3.8 0-1 .1-2 .2-3 .1-.9.3-1.8.7-2.5.4-.7.9-1.2 1.6-1.7s1.7-.6 3-.6c1 0 1.9.1 2.5.4.7.3 1.2.7 1.6 1.3.4.6.6 1.3.8 2.2s.2 1.9.2 3.1v1.2h-8.3zm5.6-1.7c0-1-.1-1.9-.2-2.5-.1-.6-.3-1.1-.6-1.4-.2-.3-.6-.5-.9-.6-.4-.1-.8-.1-1.2-.1-.4 0-.7.1-1.1.2-.3.1-.6.3-.9.7-.2.3-.4.8-.6 1.4-.2.6-.2 1.4-.2 2.4h5.7zM364.2 95.3h-2.3V74.7h2.3v7.7h.1c.4-.6.9-1 1.4-1.3.5-.3 1.1-.4 1.8-.4 1.2 0 2.1.2 2.7.7.6.5 1.1 1.1 1.4 1.8.3.7.5 1.6.5 2.5.1.9.1 1.8.1 2.7 0 1.6-.1 2.8-.4 3.8s-.6 1.7-1.1 2.2c-.4.5-.9.9-1.5 1-.6.2-1.1.2-1.7.2-.8 0-1.4-.2-1.9-.5s-1-.8-1.4-1.5h-.1v1.7zm0-7.8v1.9c0 .7.1 1.4.2 2 .2.6.4 1.2.8 1.6.4.4.9.7 1.6.7.7 0 1.3-.2 1.7-.5.4-.4.7-.8.9-1.3s.3-1.1.3-1.7v-1.8c0-1 0-1.8-.1-2.5s-.2-1.3-.4-1.8-.5-.9-.9-1.1c-.4-.2-.9-.4-1.5-.4s-1.2.2-1.5.5c-.4.3-.6.8-.8 1.3-.2.5-.3 1-.3 1.6v1.5zM381.1 95.6c-.8 0-1.5-.1-2.1-.2-.7-.2-1.2-.5-1.7-1s-.9-1.2-1.2-2.2c-.3-1-.4-2.2-.4-3.8 0-1 .1-2 .2-3 .1-.9.3-1.8.7-2.5.4-.7.9-1.2 1.6-1.7.7-.4 1.7-.6 3-.6s2.2.2 3 .6 1.3 1 1.6 1.7c.4.7.6 1.5.7 2.5.1.9.2 1.9.2 3 0 1.6-.1 2.9-.4 3.8-.3 1-.7 1.7-1.2 2.2-.5.5-1.1.9-1.7 1-.9.1-1.6.2-2.3.2zm0-1.9c.6 0 1.1-.1 1.5-.3.4-.2.7-.6.9-1.1s.4-1.1.5-2 .1-1.8.1-3c0-1-.1-1.8-.2-2.4-.1-.6-.3-1.1-.6-1.5s-.6-.6-1-.7c-.4-.1-.8-.2-1.2-.2s-.9.1-1.2.2c-.4.1-.7.4-1 .7s-.5.8-.6 1.5c-.1.6-.2 1.4-.2 2.4 0 1.2 0 2.2.1 3s.2 1.5.5 2 .5.9.9 1.1.9.3 1.5.3zM390.5 80.9v-2.8l2.3-1.1v3.8h3.1v1.8h-3.1v9.5c0 .2.1.5.2.7s.3.4.6.5c.3.1.7.2 1.2.2h.4c.2 0 .4 0 .7-.1v1.8c-.4 0-.8.1-1.2.1-.4.1-.8.1-1.2.1-1.1 0-1.9-.2-2.5-.7s-.8-1.1-.8-1.9V82.6h-2.4v-1.8h2.7zM407.5 91.2c0 .8-.1 1.5-.4 2-.3.6-.6 1-1.1 1.4s-1 .6-1.6.8c-.6.2-1.3.2-2 .2-1.6 0-2.8-.4-3.7-1.1-.9-.7-1.3-1.9-1.3-3.6h2.7v.8c0 .3.1.6.3.9s.4.5.7.8c.3.2.8.3 1.4.3.7 0 1.3-.2 1.8-.5.5-.4.7-.9.7-1.7 0-.4-.2-.8-.5-1.1-.4-.3-.8-.6-1.3-.9-.5-.3-1.1-.6-1.7-.8s-1.2-.6-1.7-1-1-.8-1.3-1.3-.5-1.1-.5-1.8c0-.4.1-.8.2-1.3s.4-.9.8-1.3.9-.7 1.5-1c.6-.3 1.5-.4 2.5-.4.6 0 1.3.1 1.8.2.6.2 1.1.4 1.5.7.4.3.8.7 1 1.3.2.5.3 1.1.3 1.8H405c0-.8-.2-1.3-.6-1.7-.4-.4-1-.6-1.7-.6-.6 0-1.2.2-1.6.5-.4.3-.6.8-.6 1.4 0 .4.2.8.5 1.1.4.3.8.6 1.3.9s1.1.5 1.7.8c.6.3 1.2.6 1.7 1s1 .8 1.3 1.3c.3.5.5 1.1.5 1.9zM420.2 91.2c0 .8-.1 1.5-.4 2-.3.6-.6 1-1.1 1.4-.4.4-1 .6-1.6.8-.6.2-1.3.2-2 .2-1.6 0-2.8-.4-3.7-1.1-.9-.7-1.3-1.9-1.3-3.6h2.7v.8c0 .3.1.6.3.9s.4.5.7.8.8.3 1.4.3c.7 0 1.3-.2 1.8-.5.5-.4.7-.9.7-1.7 0-.4-.2-.8-.5-1.1s-.8-.6-1.3-.9c-.5-.3-1.1-.6-1.7-.8-.6-.3-1.2-.6-1.7-1s-1-.8-1.3-1.3c-.4-.5-.5-1.1-.5-1.8 0-.4.1-.8.2-1.3s.4-.9.8-1.3.9-.7 1.5-1c.6-.3 1.5-.4 2.5-.4.6 0 1.3.1 1.8.2.6.2 1.1.4 1.5.7.4.3.8.7 1 1.3.2.5.3 1.1.3 1.8h-2.6c0-.8-.2-1.3-.6-1.7-.4-.4-1-.6-1.7-.6-.6 0-1.2.2-1.6.5-.4.3-.6.8-.6 1.4 0 .4.2.8.5 1.1.4.3.8.6 1.3.9s1.1.5 1.7.8c.6.3 1.2.6 1.7 1s1 .8 1.3 1.3c.3.5.5 1.1.5 1.9zM423.4 74.7h2.6v2.5h-2.6v-2.5zm2.5 20.6h-2.3V80.9h2.3v14.4zM437.5 85.5c0-.6 0-1.1-.2-1.5s-.3-.7-.5-.9-.4-.4-.7-.5c-.2-.1-.5-.1-.7-.1-.5 0-.9.1-1.2.2-.4.1-.7.4-1 .7s-.5.8-.6 1.5c-.1.6-.2 1.4-.2 2.4 0 1.2 0 2.2.1 3 .1.8.2 1.5.5 2s.5.9.9 1.1c.4.2.9.3 1.5.3.1 0 .3 0 .6-.1.2-.1.5-.2.7-.5s.4-.6.6-1c.2-.4.2-.9.2-1.6h2.5c0 1-.1 1.8-.5 2.5-.3.7-.7 1.2-1.2 1.6-.5.4-1 .6-1.5.8-.5.2-1 .2-1.4.2-.8 0-1.5-.1-2.1-.2-.7-.2-1.2-.5-1.7-1s-.9-1.2-1.2-2.2c-.3-1-.4-2.2-.4-3.8 0-1 .1-2 .2-3 .1-.9.3-1.8.7-2.5.4-.7.9-1.2 1.6-1.7s1.7-.6 3-.6c1.4 0 2.6.4 3.4 1.2.8.8 1.1 2.1 1.1 3.7h-2.5zM452 95.3v-9.8c0-.4 0-.8-.1-1.2-.1-.4-.2-.7-.4-1-.2-.3-.5-.5-.8-.6s-.7-.2-1.2-.2c-.6 0-1.1.1-1.5.3-.4.2-.7.5-.9.9-.2.4-.4.8-.5 1.4-.1.5-.1 1.1-.1 1.7v8.5h-2.3V74.7h2.3v8.1h.1c.5-.8 1-1.4 1.6-1.7.6-.3 1.4-.4 2.3-.4 1.2 0 2.2.3 2.8 1 .7.7 1 1.8 1 3.5v10.2H452zM458.7 80.9v-2.8L461 77v3.8h3.1v1.8H461v9.5c0 .2.1.5.2.7s.3.4.6.5c.3.1.7.2 1.2.2h.4c.2 0 .4 0 .7-.1v1.8c-.4 0-.8.1-1.2.1-.4.1-.8.1-1.2.1-1.1 0-1.9-.2-2.5-.7s-.8-1.1-.8-1.9V82.6H456v-1.8h2.7zM474.1 80.9h2.3v12.9c0 .5.1 1 .1 1.5H474v-1.7h-.1c-.4.7-.9 1.2-1.5 1.5-.6.3-1.4.5-2.1.5-1.3 0-2.2-.3-2.9-.9-.7-.6-1-1.5-1-2.8v-11h2.3v10c0 .9.2 1.6.6 2.1.4.5 1 .8 1.9.8.3 0 .6-.1 1-.2s.6-.3.9-.6c.3-.3.5-.6.7-1s.3-.9.3-1.5v-9.6zM488.5 95.3v-10c0-.4 0-.7-.1-1.1-.1-.3-.2-.6-.4-.9-.2-.3-.5-.5-.8-.6-.3-.1-.7-.2-1.2-.2-.6 0-1.2.1-1.5.4-.4.3-.7.6-.9 1-.2.4-.3.9-.4 1.4-.1.5-.1 1-.1 1.5v8.5h-2.3V83.9v-1.5c0-.5-.1-1-.1-1.5h2.5v1.9h.1c.5-.8 1-1.4 1.6-1.7.6-.3 1.4-.5 2.3-.5.8 0 1.4.1 1.9.3.5.2.9.5 1.2 1 .3.4.5.9.6 1.5s.2 1.2.2 1.9v10h-2.6zM502.6 80.9h2.3v15.9c0 .8-.1 1.5-.4 2-.3.5-.6.9-1.1 1.2-.5.3-1 .5-1.7.6s-1.4.2-2.2.2c-.6 0-1.2-.1-1.7-.2s-1-.4-1.4-.7c-.4-.3-.7-.7-1-1.2s-.3-1.1-.3-1.7h2.6c0 .7.2 1.2.6 1.5.4.4.9.5 1.6.5.8 0 1.4-.2 1.9-.7.4-.5.6-1.1.6-1.8v-3h-.1c-.3.6-.8 1-1.3 1.3-.6.3-1.2.5-1.8.5-1 0-1.8-.2-2.4-.6-.6-.4-1.1-.9-1.4-1.6-.3-.7-.6-1.5-.7-2.4-.1-.9-.2-1.9-.2-3 0-1.7.2-3 .5-3.9.4-.9.8-1.6 1.3-2.1s1-.8 1.5-.9.9-.2 1.2-.2c.8 0 1.4.2 2 .5s1 .9 1.4 1.6h.1v-1.8zm.1 7.1v-1.8c0-.6-.1-1.2-.3-1.8-.2-.6-.4-1-.8-1.4-.4-.4-.9-.6-1.7-.6-.7 0-1.2.2-1.6.5-.4.4-.6.8-.8 1.3-.2.5-.3 1.1-.3 1.7 0 .6-.1 1.1-.1 1.6 0 1.2.1 2.1.2 2.8.1.7.3 1.3.6 1.7.2.4.5.7.9.9.3.2.7.2 1.2.2.7 0 1.2-.2 1.6-.6.4-.4.6-.8.8-1.4.2-.5.3-1.1.3-1.7V88z"/></g><g fill="#fff"><path d="M301.7 507.2v-20.6h2.6v9.1h.1l7.2-9.1h3l-7.5 9.3 7.9 11.3h-3.4l-7.2-10.8h-.1v10.8h-2.6zM325 492.8h2.3v12.9c0 .5.1 1 .1 1.5H325v-1.7h-.1c-.4.7-.9 1.2-1.5 1.5-.6.3-1.4.5-2.1.5-1.3 0-2.2-.3-2.9-.9-.7-.6-1-1.5-1-2.8v-11h2.3v10c0 .9.2 1.6.6 2.1.4.5 1 .8 1.9.8.3 0 .6-.1 1-.2s.6-.3.9-.6c.3-.3.5-.6.7-1s.3-.9.3-1.5v-9.6zM334 495c.3-.6.6-1 .8-1.3.3-.3.6-.6.9-.7.4-.2.8-.3 1.2-.3.4 0 1-.1 1.5-.1v2.4h-1.2c-.6 0-1.2.1-1.6.3s-.8.5-1 .9c-.2.4-.4.8-.5 1.3-.1.5-.1 1-.1 1.4v8.5h-2.3V493h2.3v2zM348.9 494.9l-6.4 10.4h6.6v1.9H340V505l6.3-10.3v-.1h-6v-1.9h8.6v2.2zM359.6 505.1c-.4.8-.9 1.4-1.5 1.8s-1.3.6-2.2.6c-.8 0-1.4-.1-1.9-.4-.5-.2-.9-.6-1.2-1s-.5-.9-.6-1.5-.2-1.2-.2-1.9c0-1.1.2-1.9.7-2.6.5-.6 1.1-1.1 1.8-1.4.7-.3 1.6-.5 2.5-.5.9-.1 1.8-.1 2.6-.1v-1.4c0-.5-.1-.9-.3-1.3s-.4-.7-.7-.9c-.3-.2-.8-.4-1.4-.4-.8 0-1.4.2-1.8.7-.4.5-.5 1.1-.5 1.9h-2.5c.1-1.6.5-2.7 1.3-3.4.8-.6 2-1 3.6-1 .9 0 1.7.1 2.3.3.6.2 1.1.5 1.4.9.4.4.6.8.7 1.4.1.5.2 1.1.2 1.7v6.9c0 .6 0 1.1.1 1.7 0 .6.1 1.1.2 1.7h-2.6v-1.8zm0-5.1h-1.8c-.6 0-1.2.1-1.7.3-.5.2-.9.5-1.3.8-.3.4-.5 1-.5 1.7s.2 1.3.5 1.9c.4.5.9.8 1.7.8.4 0 .7-.1 1.1-.2s.7-.4 1-.8c.3-.4.5-1 .7-1.7.3-.7.3-1.6.3-2.8zM374.2 492.8h2.3v12.9c0 .5.1 1 .1 1.5h-2.5v-1.7h-.1c-.4.7-.9 1.2-1.5 1.5s-1.4.5-2.1.5c-1.3 0-2.2-.3-2.9-.9-.7-.6-1-1.5-1-2.8v-11h2.3v10c0 .9.2 1.6.6 2.1.4.5 1 .8 1.9.8.3 0 .6-.1 1-.2s.6-.3.9-.6c.3-.3.5-.6.7-1 .2-.4.3-.9.3-1.5v-9.6zM381.2 492.8V490c0-.7.1-1.3.4-1.8s.5-.8.9-1.1c.4-.3.8-.4 1.3-.5.5-.1 1-.1 1.5-.1h.6c.2 0 .3 0 .5.1v1.7c-.6 0-1.1 0-1.5.1-.4.1-.7.2-.9.4-.2.2-.3.4-.4.7-.1.3-.1.5-.1.8v2.5h2.9v1.8h-2.9v12.7h-2.3v-12.7H379v-1.8h2.2zM396.3 492.8h2.3v15.9c0 .8-.1 1.5-.4 2-.3.5-.6.9-1.1 1.2-.5.3-1 .5-1.7.6s-1.4.2-2.2.2c-.6 0-1.2-.1-1.7-.2-.5-.2-1-.4-1.4-.7-.4-.3-.7-.7-1-1.2s-.3-1.1-.3-1.7h2.6c0 .7.2 1.2.6 1.5.4.4.9.5 1.6.5.8 0 1.4-.2 1.9-.7.4-.5.6-1.1.6-1.8v-3h-.1c-.3.6-.8 1-1.3 1.3-.6.3-1.2.5-1.8.5-1 0-1.8-.2-2.4-.6-.6-.4-1.1-.9-1.4-1.6s-.6-1.5-.7-2.4c-.1-.9-.2-1.9-.2-3 0-1.7.2-3 .5-3.9.4-.9.8-1.6 1.3-2.1s1-.8 1.5-.9c.5-.1.9-.2 1.2-.2.8 0 1.4.2 2 .5s1 .9 1.4 1.6h.1v-1.8zm.1 7.1v-1.8c0-.6-.1-1.2-.3-1.8-.2-.6-.4-1-.8-1.4-.4-.4-.9-.6-1.7-.6-.7 0-1.2.2-1.6.5-.4.4-.6.8-.8 1.3-.2.5-.3 1.1-.3 1.7 0 .6-.1 1.1-.1 1.6 0 1.2.1 2.1.2 2.8s.3 1.3.6 1.7c.2.4.5.7.9.9.3.2.7.2 1.2.2.7 0 1.2-.2 1.6-.6.4-.4.6-.8.8-1.4.2-.5.3-1.1.3-1.7v-1.4zM410.4 505.1c-.4.8-.9 1.4-1.5 1.8s-1.3.6-2.2.6c-.8 0-1.4-.1-1.9-.4-.5-.2-.9-.6-1.2-1s-.5-.9-.6-1.5-.2-1.2-.2-1.9c0-1.1.2-1.9.7-2.6.5-.6 1.1-1.1 1.8-1.4.7-.3 1.6-.5 2.5-.5.9-.1 1.8-.1 2.6-.1v-1.4c0-.5-.1-.9-.3-1.3s-.4-.7-.7-.9c-.3-.2-.8-.4-1.4-.4-.8 0-1.4.2-1.8.7-.4.5-.5 1.1-.5 1.9h-2.5c.1-1.6.5-2.7 1.3-3.4.8-.6 2-1 3.6-1 .9 0 1.7.1 2.3.3.6.2 1.1.5 1.4.9.4.4.6.8.7 1.4.1.5.2 1.1.2 1.7v6.9c0 .6 0 1.1.1 1.7 0 .6.1 1.1.2 1.7h-2.6v-1.8zm0-5.1h-1.8c-.6 0-1.2.1-1.7.3-.5.2-.9.5-1.3.8-.3.4-.5 1-.5 1.7s.2 1.3.5 1.9c.4.5.9.8 1.7.8.4 0 .7-.1 1.1-.2s.7-.4 1-.8c.3-.4.5-1 .7-1.7.3-.7.3-1.6.3-2.8zM419.8 507.2h-2.3v-20.6h2.3v7.7h.1c.4-.6.9-1 1.4-1.3.5-.3 1.1-.4 1.8-.4 1.2 0 2.1.2 2.7.7.6.5 1.1 1.1 1.4 1.8.3.7.5 1.6.5 2.5.1.9.1 1.8.1 2.7 0 1.6-.1 2.8-.4 3.8s-.6 1.7-1.1 2.2c-.4.5-.9.9-1.5 1-.6.2-1.1.2-1.7.2-.8 0-1.4-.2-1.9-.5s-1-.8-1.4-1.5h-.1v1.7zm0-7.8v1.9c0 .7.1 1.4.2 2 .2.6.4 1.2.8 1.6.4.4.9.7 1.6.7.7 0 1.3-.2 1.7-.5.4-.4.7-.8.9-1.3s.3-1.1.3-1.7v-1.8c0-1 0-1.8-.1-2.5s-.2-1.3-.4-1.8-.5-.9-.9-1.1c-.4-.2-.9-.4-1.5-.4s-1.2.2-1.5.5c-.4.3-.6.8-.8 1.3-.2.5-.3 1-.3 1.6v1.5zM433.8 500.8c0 1 .1 1.8.2 2.5.1.6.3 1.1.6 1.5.2.4.6.6.9.7.4.1.8.2 1.2.2.4 0 .8-.1 1.1-.2s.6-.4.8-.6c.2-.2.4-.5.5-.9.1-.3.2-.7.2-1h2.6c0 1.6-.5 2.8-1.4 3.5-.9.7-2.1 1.1-3.6 1.1-.8 0-1.5-.1-2.1-.2-.7-.2-1.2-.5-1.7-1s-.9-1.2-1.2-2.2c-.3-1-.4-2.2-.4-3.8 0-1 .1-2 .2-3 .1-.9.3-1.8.7-2.5.4-.7.9-1.2 1.6-1.7s1.7-.6 3-.6c1 0 1.9.1 2.5.4.7.3 1.2.7 1.6 1.3.4.6.6 1.3.8 2.2s.2 1.9.2 3.1v1.2h-8.3zm5.7-1.8c0-1-.1-1.9-.2-2.5-.1-.6-.3-1.1-.6-1.4-.2-.3-.6-.5-.9-.6-.4-.1-.8-.1-1.2-.1-.4 0-.7.1-1.1.2-.3.1-.6.3-.9.7-.2.3-.4.8-.6 1.4-.2.6-.2 1.4-.2 2.4h5.7z"/></g><g><g fill="#fff"><path d="M301.8 919.1v-20.6h2.6v8.9h7.2v-8.9h2.6v20.6h-2.6v-9.4h-7.2v9.4h-2.6zM323.9 919.4c-.8 0-1.5-.1-2.1-.2-.7-.2-1.2-.5-1.7-1s-.9-1.2-1.2-2.2c-.3-1-.4-2.2-.4-3.8 0-1 .1-2 .2-3 .1-.9.3-1.8.7-2.5.4-.7.9-1.2 1.6-1.7s1.7-.6 3-.6 2.2.2 3 .6c.7.4 1.3 1 1.6 1.7.4.7.6 1.5.7 2.5.1.9.2 1.9.2 3 0 1.6-.1 2.9-.4 3.8-.3 1-.7 1.7-1.2 2.2-.5.5-1.1.9-1.7 1-.8.1-1.5.2-2.3.2zm0-1.9c.6 0 1.1-.1 1.5-.3s.7-.6.9-1.1.4-1.1.5-2c.1-.8.1-1.8.1-3 0-1-.1-1.8-.2-2.4-.1-.6-.3-1.1-.6-1.5s-.6-.6-1-.7c-.4-.1-.8-.2-1.2-.2s-.9.1-1.2.2c-.4.1-.7.4-1 .7s-.5.8-.6 1.5c-.1.6-.2 1.4-.2 2.4 0 1.2 0 2.2.1 3 .1.8.2 1.5.5 2s.5.9.9 1.1c.4.2.9.3 1.5.3zM342.4 915c0 .8-.1 1.5-.4 2-.3.6-.6 1-1.1 1.4-.4.4-1 .6-1.6.8-.6.2-1.3.2-2 .2-1.6 0-2.8-.4-3.7-1.1-.9-.7-1.3-1.9-1.3-3.6h2.7v.8c0 .3.1.6.3.9s.4.5.7.8.8.3 1.4.3c.7 0 1.3-.2 1.8-.5.5-.4.7-.9.7-1.7 0-.4-.2-.8-.5-1.1s-.8-.6-1.3-.9c-.5-.3-1.1-.6-1.7-.8-.6-.3-1.2-.6-1.7-1s-1-.8-1.3-1.3c-.4-.5-.5-1.1-.5-1.8 0-.4.1-.8.2-1.3s.4-.9.8-1.3.9-.7 1.5-1c.6-.3 1.5-.4 2.5-.4.6 0 1.3.1 1.8.2.6.2 1.1.4 1.5.7.4.3.8.7 1 1.3.2.5.3 1.1.3 1.8h-2.6c0-.8-.2-1.3-.6-1.7-.4-.4-1-.6-1.7-.6-.6 0-1.2.2-1.6.5-.4.3-.6.8-.6 1.4 0 .4.2.8.5 1.1.4.3.8.6 1.3.9s1.1.5 1.7.8c.6.3 1.2.6 1.7 1s1 .8 1.3 1.3c.3.6.5 1.2.5 1.9zM348.4 906.4c.5-.7.9-1.2 1.4-1.5s1.2-.5 1.9-.5c.6 0 1.1.1 1.7.2.6.2 1.1.5 1.5 1 .4.5.8 1.2 1.1 2.2.3 1 .4 2.2.4 3.8 0 .9 0 1.8-.1 2.7-.1.9-.2 1.8-.5 2.5s-.8 1.3-1.4 1.8c-.6.5-1.6.7-2.7.7-.7 0-1.3-.1-1.8-.4-.5-.3-1-.7-1.4-1.3h-.1v6.9H346v-19.9h2.3v1.8zm2.7 11.1c.6 0 1.1-.1 1.5-.4.4-.2.7-.6.9-1.1s.3-1.1.4-1.8c.1-.7.1-1.6.1-2.5V910c0-.6-.1-1.2-.3-1.7-.2-.5-.5-1-.9-1.3-.4-.4-1-.5-1.7-.5s-1.3.2-1.6.7c-.4.4-.6 1-.8 1.6-.2.6-.2 1.3-.2 2v1.9c0 .5 0 1 .1 1.6 0 .6.1 1.1.3 1.6.2.5.5.9.8 1.3.2.1.7.3 1.4.3zM359.9 898.5h2.6v2.5h-2.6v-2.5zm2.5 20.6H360v-14.4h2.3v14.4zM366.7 904.7v-2.8l2.3-1.1v3.8h3.1v1.8H369v9.5c0 .2.1.5.2.7.1.2.3.4.6.5.3.1.7.2 1.2.2h.4c.2 0 .4 0 .7-.1v1.8c-.4 0-.8.1-1.2.1-.4.1-.8.1-1.2.1-1.1 0-1.9-.2-2.5-.7-.5-.4-.8-1.1-.8-1.9v-10.3H364v-1.8h2.7zM381.8 917c-.4.8-.9 1.4-1.5 1.8s-1.3.6-2.2.6c-.8 0-1.4-.1-1.9-.4-.5-.2-.9-.6-1.2-1s-.5-.9-.6-1.5c-.1-.6-.2-1.2-.2-1.9 0-1.1.2-1.9.7-2.6.5-.6 1.1-1.1 1.8-1.4.7-.3 1.6-.5 2.5-.5.9-.1 1.8-.1 2.6-.1v-1.4c0-.5-.1-.9-.3-1.3s-.4-.7-.7-.9c-.3-.2-.8-.4-1.4-.4-.8 0-1.4.2-1.8.7-.4.5-.5 1.1-.5 1.9h-2.5c.1-1.6.5-2.7 1.3-3.4s2-1 3.6-1c.9 0 1.7.1 2.3.3.6.2 1.1.5 1.4.9s.6.8.7 1.4.2 1.1.2 1.7v6.9c0 .6 0 1.1.1 1.7 0 .6.1 1.1.2 1.7h-2.6V917zm0-5H380c-.6 0-1.2.1-1.7.3-.5.2-.9.5-1.3.8-.3.4-.5 1-.5 1.7s.2 1.3.5 1.9c.4.5.9.8 1.7.8.4 0 .7-.1 1.1-.2.4-.1.7-.4 1-.8.3-.4.5-1 .7-1.7.3-.7.3-1.7.3-2.8z"/></g><path d="M388.9 904.7v-2.8l2.3-1.1v3.8h3.1v1.8h-3.1v9.5c0 .2.1.5.2.7.1.2.3.4.6.5.3.1.7.2 1.2.2h.4c.2 0 .4 0 .7-.1v1.8c-.4 0-.8.1-1.2.1-.4.1-.8.1-1.2.1-1.1 0-1.9-.2-2.5-.7-.5-.4-.8-1.1-.8-1.9v-10.3h-2.4v-1.8h2.7z" fill="#fff"/><g fill="#fff"><path d="M396.4 898.5h2.6v2.5h-2.6v-2.5zm2.5 20.6h-2.3v-14.4h2.3v14.4zM408 919.4c-.8 0-1.5-.1-2.1-.2-.7-.2-1.2-.5-1.7-1s-.9-1.2-1.2-2.2c-.3-1-.4-2.2-.4-3.8 0-1 .1-2 .2-3 .1-.9.3-1.8.7-2.5.4-.7.9-1.2 1.6-1.7.7-.4 1.7-.6 3-.6s2.2.2 3 .6 1.3 1 1.6 1.7c.4.7.6 1.5.7 2.5.1.9.2 1.9.2 3 0 1.6-.1 2.9-.4 3.8-.3 1-.7 1.7-1.2 2.2-.5.5-1.1.9-1.7 1-.8.1-1.5.2-2.3.2zm0-1.9c.6 0 1.1-.1 1.5-.3.4-.2.7-.6.9-1.1s.4-1.1.5-2 .1-1.8.1-3c0-1-.1-1.8-.2-2.4-.1-.6-.3-1.1-.6-1.5s-.6-.6-1-.7c-.4-.1-.8-.2-1.2-.2s-.9.1-1.2.2c-.4.1-.7.4-1 .7s-.5.8-.6 1.5c-.1.6-.2 1.4-.2 2.4 0 1.2 0 2.2.1 3s.2 1.5.5 2 .5.9.9 1.1.9.3 1.5.3zM425.1 919.1v-10c0-.4 0-.7-.1-1.1-.1-.3-.2-.6-.4-.9-.2-.3-.5-.5-.8-.6-.3-.1-.7-.2-1.2-.2-.6 0-1.2.1-1.5.4-.4.3-.7.6-.9 1-.2.4-.3.9-.4 1.4-.1.5-.1 1-.1 1.5v8.5h-2.3v-11.4-1.5c0-.5-.1-1-.1-1.5h2.5v1.9h.1c.5-.8 1-1.4 1.6-1.7.6-.3 1.4-.5 2.3-.5.8 0 1.4.1 1.9.3.5.2.9.5 1.2 1 .3.4.5.9.6 1.5s.2 1.2.2 1.9v10h-2.6z"/></g></g></svg>