<svg id="Ebene_1" data-name="Ebene 1" xmlns="http://www.w3.org/2000/svg" viewBox="0 0 1170 195.52"><defs><style>.cls-1,.cls-3{fill:#fff;}.cls-2{fill:#fdc62d;}.cls-3{font-size:18.48px;font-family:UniversCom-57Condensed, Univers Com;}.cls-4{letter-spacing:-0.04em;}.cls-5{letter-spacing:0em;}.cls-6{letter-spacing:-0.08em;}.cls-7{fill:#5d7992;}</style></defs><title>bewerbungsprozess</title><polygon class="cls-1" points="165.21 15.43 13.21 15.43 13.21 137.41 165.21 137.41 203.34 76.42 165.21 15.43"/><polygon class="cls-2" points="100.47 58 101.51 56.51 102.6 53.74 102.6 53.74 103.66 49.49 103.66 48.42 104.73 47.36 105.79 46.29 107.92 46.29 108.98 46.29 110.32 46.44 110.87 47.45 111.11 47.36 111.11 47.36 112.18 49.49 112.47 50.05 112.75 52.15 113.46 55.26 114.19 56.39 114.78 57.73 114.45 58.28 113.69 58.76 111.23 58.76 110.29 58.76 110.18 59.23 111.55 60.05 113.34 61.22 114.66 62.01 114.95 62.63 113.25 63.8 110.88 64.77 108.77 65.14 105.25 64.95 102.15 63.71 100.47 62.48 101.04 61.84 102.44 61.16 103.09 60.75 103.79 60.46 104.32 60.23 105.02 60.02 105.69 59.58 106.05 59.05 105.81 58.67 104.23 58.7 102.71 58.7 101.45 58.47 100.47 58"/><polygon class="cls-1" points="337.88 15.43 185.88 15.43 224.02 77.31 185.88 137.41 337.88 137.41 376.02 76.42 337.88 15.43"/><polygon class="cls-1" points="509.48 15.43 357.48 15.43 395.62 77.31 357.48 137.41 509.48 137.41 547.62 76.42 509.48 15.43"/><polygon class="cls-1" points="681.08 15.43 529.08 15.43 567.21 77.31 529.08 137.41 681.08 137.41 719.21 76.42 681.08 15.43"/><polygon class="cls-1" points="853.75 15.43 701.75 15.43 739.89 77.31 701.75 137.41 853.75 137.41 891.89 76.42 853.75 15.43"/><polygon class="cls-1" points="1027.35 15.43 875.35 15.43 913.48 77.31 875.35 137.41 1027.35 137.41 1065.48 76.42 1027.35 15.43"/><rect class="cls-2" x="254.63" y="75.36" width="6.85" height="35.05" rx="3.43" transform="translate(-16.14 98.9) rotate(-21.05)"/><polygon class="cls-2" points="294.16 33.52 299.48 31.39 306.93 52.68 302.67 55.87 294.16 33.52"/><polygon class="cls-2" points="320.76 92.05 315.44 93.12 323.95 115.47 329.27 113.34 320.76 92.05"/><polygon class="cls-2" points="451.66 117.59 472.94 117.59 470.81 103.76 453.79 103.76 451.66 117.59"/><polygon class="cls-2" points="431.44 65.45 466.56 65.45 466.56 76.09 431.44 77.16 431.44 65.45"/><polygon class="cls-2" points="619.8 30.33 623 29.27 643.22 29.27 645.35 29.27 646.41 31.39 646.41 45.23 644.28 46.29 640.02 47.36 640.02 49.49 636.83 47.36 624.06 47.36 620.87 45.23 619.8 39.91 619.8 30.33"/><polyline class="cls-2" points="836.9 80.35 843.29 80.35 843.29 112.27 836.9 112.27 836.9 80.35"/><rect class="cls-2" x="1000.24" y="38.16" width="7.41" height="37.63" rx="3.49" transform="translate(253.76 726.58) rotate(-45)"/><rect class="cls-2" x="946.77" y="38.96" width="9.03" height="39.19" rx="3.95" transform="translate(1582.54 772.61) rotate(-135)"/><polygon class="cls-2" points="1118.92 32.46 1135.94 32.46 1135.94 45.23 1131.69 49.49 1127.43 50.55 1121.78 49.34 1119.98 45.23 1118.92 42.04 1118.92 32.46"/><text class="cls-3" transform="translate(529.88 168.89)"><tspan class="cls-4">V</tspan><tspan x="9.59" y="0">orste</tspan><tspan class="cls-5" x="47.56" y="0">l</tspan><tspan x="51.68" y="0">lungsgespräch</tspan></text><text class="cls-3" transform="translate(201.55 168.89)"><tspan class="cls-6">T</tspan><tspan x="7.76" y="0">elefon-Interview</tspan></text><text class="cls-3" transform="translate(879.4 168.89)"><tspan class="cls-4">V</tspan><tspan x="9.59" y="0">ertragsverhan</tspan><tspan class="cls-5" x="114.26" y="0">d</tspan><tspan x="123.51" y="0">lung</tspan></text><path class="cls-7" d="M124.68,119.9H64.86a3.74,3.74,0,0,1-3.73-3.73V37.1a3.73,3.73,0,0,1,3.73-3.72h59.82a3.73,3.73,0,0,1,3.72,3.72v79.07A3.73,3.73,0,0,1,124.68,119.9ZM64.86,34.44a2.67,2.67,0,0,0-2.67,2.66v79.07a2.67,2.67,0,0,0,2.67,2.66h59.82a2.66,2.66,0,0,0,2.66-2.66V37.1a2.66,2.66,0,0,0-2.66-2.66Z"/><rect class="cls-7" x="69.68" y="56.01" width="17.69" height="1.72" rx="0.65"/><path class="cls-7" d="M70.49,65.14H91.18a.81.81,0,0,0,.81-.81.83.83,0,0,0-.81-.91H70.49a.81.81,0,0,0-.81.81A.84.84,0,0,0,70.49,65.14Z"/><path class="cls-7" d="M70.54,77.16H118a.86.86,0,0,0,.86-.85.87.87,0,0,0-.86-.87H70.54a.86.86,0,0,0,0,1.72Z"/><path class="cls-7" d="M118,83.53H70.54a.86.86,0,0,0,0,1.72H118a.86.86,0,0,0,0-1.72Z"/><path class="cls-7" d="M118,91.61H70.54a.86.86,0,0,0,0,1.72H118a.86.86,0,0,0,0-1.72Z"/><path class="cls-7" d="M118,99.69H70.54a.87.87,0,0,0,0,1.73H118a.87.87,0,0,0,0-1.73Z"/><path class="cls-7" d="M118,107.78H70.54a.86.86,0,0,0,0,1.72H118a.86.86,0,0,0,0-1.72Z"/><g id="Capa_1" data-name="Capa 1"><path class="cls-7" d="M330.05,113.45l-8-22a0,0,0,0,0,0,0l0,0,0-.07s0,0,0,0l0,0a.39.39,0,0,1-.15-.14h0a0,0,0,0,1,0,0l-.07,0h0s0,0-.05,0h0a.39.39,0,0,1-.15,0,.15.15,0,0,1-.11,0A22.36,22.36,0,0,0,303,100.93l-.23.35-.38-.19a31.91,31.91,0,0,1-4.82-3l-.71-.52,5.88-2.2,2.72-1.06a5,5,0,0,0,2.76-2.65,4.74,4.74,0,0,0,.08-3.68,4.89,4.89,0,0,0-2.93-2.77l-.57-.19.33-.49a3.78,3.78,0,0,0,.4-.76,4.9,4.9,0,0,0,.07-3.85A5,5,0,0,0,303,77.19L302.5,77l-.59-.16.31-.52c.14-.24.26-.45.38-.69a4.87,4.87,0,0,0,.07-3.82,5,5,0,0,0-3.14-2.93l-.57-.19.31-.52a6.47,6.47,0,0,0,.38-.69,4.92,4.92,0,0,0,.07-3.82,5,5,0,0,0-6.5-2.86l-2.69,1-5.72,2.07L285,63a34.68,34.68,0,0,1,1.68-5l.17-.38.4.12a22.14,22.14,0,0,0,20.41-4.26l.09-.09v-.07l.12-.12,0,0s0,0,0-.07,0,0,0,0v0a.68.68,0,0,1,0-.12v-.12a.68.68,0,0,1,0-.12.64.64,0,0,1,0-.09L300,30.79a.71.71,0,0,0-.92-.42l-18.92,6.87s-.05,0-.07,0l-.15.07h0l0,0,0,0,0,0h0l-.05,0-.09.07a50.33,50.33,0,0,0-11.62,22.87l-.05.18-.17.1c-3.4,2.1-6.92,9.57-7.93,11.79l0,0-2.67,5.32-.47-.52a4.56,4.56,0,0,0-3.47-1.58,4.25,4.25,0,0,0-1.7.33,4.63,4.63,0,0,0-2.53,2.43,4.49,4.49,0,0,0,0,3.54L259,107.24a4.59,4.59,0,0,0,4.28,2.9,4.29,4.29,0,0,0,1.7-.33,4.54,4.54,0,0,0,2.53-2.43,5.56,5.56,0,0,0,.38-1.37l.07-.66.61.28a7.65,7.65,0,0,0,.92.35,8.31,8.31,0,0,0,2.48.38,6.9,6.9,0,0,0,2.67-.49l4.59-1.78.21.26a50.36,50.36,0,0,0,30.83,16.78l.16,0h0a.86.86,0,0,0,.24-.05l19-6.89h0a.61.61,0,0,0,.41-.29.88.88,0,0,0-.05-.47ZM298.94,32l7.56,20.74-.29.21a19.75,19.75,0,0,1-3,1.92l-.47.23-7.89-21.61Zm-30.5,37.23a48.94,48.94,0,0,1,12.28-30.52l.08-.09L293.53,34l7.91,21.73-.42.16a20.47,20.47,0,0,1-14.2.26.28.28,0,0,1-.12,0,.24.24,0,0,1-.14,0h-.12l-.05,0h0s0,0-.05,0a.1.1,0,0,1-.07,0l0,0,0,0h0l-.12.1-.07.07,0,0,0,0-.05.07a.29.29,0,0,1-.05.1,34.35,34.35,0,0,0-2.52,7.7l-.05.26L268.42,70ZM266.2,107a3.14,3.14,0,0,1-1.75,1.7,3.52,3.52,0,0,1-1.16.22,3.2,3.2,0,0,1-3-2l-9.92-25.26a3.24,3.24,0,0,1,.05-2.43,3.17,3.17,0,0,1,1.75-1.7,3.66,3.66,0,0,1,1.16-.21,3.17,3.17,0,0,1,3,2l9.92,25.25A3.11,3.11,0,0,1,266.2,107Zm7.93-2.24a6,6,0,0,1-2.19.38,6.86,6.86,0,0,1-2.06-.31,4.7,4.7,0,0,1-3-2.5l0-.12L258,79.67l3.29-6.47a44.76,44.76,0,0,1,5.33-9.26l1.07-1.33-.24,1.68a49.63,49.63,0,0,0-.49,6.54V71l0,.12a.74.74,0,0,0,.66.47h.1l.07,0h0l0,0,16.27-5.93h0L291,63.16l2.79-1a3.58,3.58,0,0,1,2.67.1A3.6,3.6,0,0,1,298.35,67a3.59,3.59,0,0,1-2,1.91l-3,1.16s0,0,0,0l0,0h0v0l-.1.12s0,0,0,0l-.07.21v.14l0,.07v0a.15.15,0,0,0,0,.09v0s0,0,0,0,.05,0,.05.08,0,0,0,.07l.08.07,0,0s0,0,.05,0h0a.2.2,0,0,1,.09.05c.05,0,.07,0,.1,0a.08.08,0,0,1,.07,0h.21l.09,0h.1l2.69-1A3.6,3.6,0,0,1,299.36,77l-2.17.83-.76.28,0,0,0,0-.05,0-.12.12s0,.05-.05.07,0,0,0,0,0,.07,0,.09,0,0,0,0v.07l0,.07v.14l0,.07v0a.2.2,0,0,0,0,.09v0s0,0,0,0a.1.1,0,0,1,0,.07s0,0,.05.07l0,0h.05l.12.12h0l.1,0,.05,0h0s.07,0,.09,0h.19l.1,0h0l2.79-1a3.62,3.62,0,0,1,2.67.09,3.59,3.59,0,0,1,1.91,2,3.59,3.59,0,0,1-2,4.65l-2.08.83-.92.33a.69.69,0,0,0-.38.35.75.75,0,0,0,0,.55.74.74,0,0,0,.92.42l2.74-1a3.64,3.64,0,0,1,2.64.07A3.33,3.33,0,0,1,307,91.15,3.66,3.66,0,0,1,305,93l-2,.8-.76.29-18.89,7Zm36.24,15.14-.12,0a49.22,49.22,0,0,1-29.15-15.62l-.45-.52,3.19-1.25,11.53-4.25.21.16a36.29,36.29,0,0,0,7.14,4.47l.09,0s.05,0,.07,0,.05,0,.05,0a.1.1,0,0,1,.07,0h.21l.05,0h.05l0-.05h.08l.07-.07h0v0l.1-.09h0a.23.23,0,0,1,.07-.09,20.8,20.8,0,0,1,11-8.91l.45-.14,7.91,21.73Zm14.06-5.1-7.89-21.62.54-.11a19.62,19.62,0,0,1,3.52-.45l.35,0,7.56,20.74Z"/></g><path class="cls-7" d="M503.11,34.5H421.64a5.25,5.25,0,0,0-5.26,5.25v59.7a5.27,5.27,0,0,0,5.26,5.26h31.72l-2.47,11.93h-7.16a.8.8,0,0,0-.8.8.79.79,0,0,0,.8.79H481a.79.79,0,0,0,.8-.79.8.8,0,0,0-.8-.8h-7.16l-2.45-11.93h31.72a5.25,5.25,0,0,0,5.26-5.26V39.75A5.25,5.25,0,0,0,503.11,34.5Zm-30.87,82.14H452.53L455,104.71h14.79Zm34.53-17.19a3.68,3.68,0,0,1-3.66,3.67H421.64A3.66,3.66,0,0,1,418,99.45V39.75a3.66,3.66,0,0,1,3.66-3.66h81.47a3.66,3.66,0,0,1,3.66,3.66v59.7Z"/><path class="cls-7" d="M503,39.43H421.74a.8.8,0,0,0-.8.8v54.6a.8.8,0,0,0,.8.8H503a.8.8,0,0,0,.8-.8V40.23A.8.8,0,0,0,503,39.43ZM502.21,94H422.54V41h79.67Z"/><path class="cls-7" d="M468,98.46H456.75a.8.8,0,1,0,0,1.59H468a.8.8,0,1,0,0-1.59Z"/><rect class="cls-7" x="431.33" y="50.67" width="39.35" height="1.62" rx="0.81" transform="translate(902.01 102.97) rotate(180)"/><rect class="cls-7" x="431.33" y="54.3" width="48.78" height="1.62" rx="0.81" transform="translate(911.43 110.22) rotate(-180)"/><rect class="cls-7" x="431.33" y="61.26" width="36.91" height="1.62" rx="0.81" transform="translate(899.56 124.15) rotate(180)"/><rect class="cls-7" x="431.33" y="79.97" width="36.6" height="1.62" rx="0.81" transform="translate(899.26 161.55) rotate(-180)"/><rect class="cls-7" x="431.33" y="83.56" width="36.6" height="1.62" rx="0.81" transform="translate(899.26 168.75) rotate(180)"/><path class="cls-7" d="M467.73,77.34H431.06V65.18h36.67Zm-35.61-1.06h34.55v-10H432.12Z"/><path class="cls-7" d="M482.42,80V76.92a2.92,2.92,0,0,1,.52-1.67c.34-.52.72-1.06,1.12-1.63a14.58,14.58,0,0,0,1.13-1.84,5,5,0,0,0,.52-2.32,3.28,3.28,0,0,0-.13-.91,3.07,3.07,0,0,0-.36-.87,1.93,1.93,0,0,0-.63-.64,1.68,1.68,0,0,0-.92-.24,1.58,1.58,0,0,0-1.14.39,2.51,2.51,0,0,0-.61,1,4.08,4.08,0,0,0-.23,1.24c0,.44,0,.83,0,1.18h-2.55a8.31,8.31,0,0,1,.18-2.28,4.35,4.35,0,0,1,.79-1.77,3.83,3.83,0,0,1,1.47-1.14,5.71,5.71,0,0,1,2.28-.4,4.24,4.24,0,0,1,3.27,1.23,4.64,4.64,0,0,1,1.16,3.3,7,7,0,0,1-.27,2,8.1,8.1,0,0,1-.67,1.6,8.56,8.56,0,0,1-.87,1.29l-.87,1.1a8.51,8.51,0,0,0-.66,1,2,2,0,0,0-.27,1V80Zm2.39,5h-2.55V82.16h2.55Z"/><g id="Capa_1-2" data-name="Capa 1"><path class="cls-7" d="M597.23,80.1h-8.35v0a.82.82,0,0,0-.82.82V88a1,1,0,0,0,1,1h15.42v1a6.29,6.29,0,0,0,4.72,6.06l.77.2v23a.83.83,0,0,0,.82.83h14.62a.83.83,0,0,0,.82-.83v-23l.77-.2A6.27,6.27,0,0,0,631.72,90V89h14.79v5.66H640a6.32,6.32,0,0,0-6.31,6.31v18.26a.83.83,0,0,0,.83.83h3.65a4.48,4.48,0,0,0,4.47-4.47v-4.66h24v8.32a.83.83,0,0,0,.89.83.84.84,0,0,0,.76-.86V80.88A6.31,6.31,0,0,0,662,74.6h-1l0-1a11.27,11.27,0,0,0-3.24-7.72,8.14,8.14,0,0,0-1.92-1.43l-1.63-.91,1.65-.87a6.24,6.24,0,0,0,3.35-5.52V53.51a6.32,6.32,0,0,0-6.48-6.31,6.4,6.4,0,0,0-6.14,6.44v3.52a6.24,6.24,0,0,0,3.35,5.52l1.57.83-1.51.93a10.92,10.92,0,0,0-5.08,7.49l-.14.85h-2.84a4.49,4.49,0,0,0-4.48,4.48V80.1h-5.66v-1A13.69,13.69,0,0,0,621.9,66l-2.08-.61,1.8-1.21a6.27,6.27,0,0,0,2.8-5.22V55.34a6.31,6.31,0,0,0-12.62,0V59a6.27,6.27,0,0,0,2.8,5.22l1.8,1.21-2.08.61a13.69,13.69,0,0,0-9.82,13.06v1h-5.66m49.32-23V53.49a4.66,4.66,0,1,1,9.32,0v3.65a4.66,4.66,0,1,1-9.32,0ZM613.45,59V55.32a4.66,4.66,0,0,1,9.32,0V59a4.66,4.66,0,0,1-9.32,0Zm-7.31,20.1a12,12,0,0,1,12-12h0a12,12,0,0,1,12,12v1H606.14ZM610,94.91l-1.52-.86a4.7,4.7,0,0,1-2.33-4V89H610Zm14.61,23.53h-13V89h13ZM630.08,90a4.66,4.66,0,0,1-2.33,4l-1.52.86V89h3.85Zm-40.37-2.65V81.71h56.82v5.66ZM641.86,102a.83.83,0,0,0-.83.83V115.6a2.84,2.84,0,0,1-2.84,2.84h-2.85V101A4.66,4.66,0,0,1,640,96.32h7.34a.82.82,0,0,0,.82-.82V80.88a.82.82,0,0,0-.82-.82H639V77.22a2.84,2.84,0,0,1,2.85-2.85h3.64a.83.83,0,0,0,.83-.82v0a9.38,9.38,0,0,1,4.72-7.91l.06,0,.08,0a4.74,4.74,0,0,1,5.4,1.52A9.72,9.72,0,0,1,659.31,74V95.48a6.5,6.5,0,0,1-6.49,6.49h-11Zm24.75,7.32H642.68v-5.67h10.14a8.13,8.13,0,0,0,8.12-8.12V76.25h1a4.66,4.66,0,0,1,4.66,4.65v28.41Z"/></g><path class="cls-7" d="M639.48,51.28,636,47.76H623.08a3.51,3.51,0,0,1-3.51-3.51V31.71a3.51,3.51,0,0,1,3.51-3.51h20.5a3.51,3.51,0,0,1,3.51,3.51V44.25a3.51,3.51,0,0,1-3.51,3.51h-2.66v2.93A.84.84,0,0,1,639.48,51.28Zm-16.4-21.47a1.9,1.9,0,0,0-1.9,1.9V44.25a1.9,1.9,0,0,0,1.9,1.9h13.55l2.68,2.68V46.15h4.27a1.9,1.9,0,0,0,1.9-1.9V31.71a1.9,1.9,0,0,0-1.9-1.9Z"/><rect class="cls-7" x="623.89" y="34.24" width="18.88" height="1.71" rx="0.86"/><rect class="cls-7" x="623.89" y="38.92" width="18.88" height="1.71" rx="0.86"/><g id="Capa_1-3" data-name="Capa 1"><path class="cls-7" d="M774.15,60.38a4.11,4.11,0,0,1-4.1-4.1V53.07a4.1,4.1,0,0,1,8.2,0v3.21A4.09,4.09,0,0,1,774.15,60.38ZM799,84.32H810.4v25.9H799Zm6.16-7.84h-17.4V74A4,4,0,0,0,783.8,70h-2.5l-.13-.74a9.61,9.61,0,0,0-4.47-6.6l-1.33-.82,1.39-.72a5.52,5.52,0,0,0,2.94-4.86V53.2a5.62,5.62,0,0,0-5.4-5.66,5.55,5.55,0,0,0-5.7,5.55V56.3a5.5,5.5,0,0,0,2.94,4.86l1.46.76-1.44.8A7.16,7.16,0,0,0,769.87,64,9.91,9.91,0,0,0,767,70.77l0,.87h-.89a5.55,5.55,0,0,0-5.55,5.53v33.74a.75.75,0,0,0,.67.76.74.74,0,0,0,.79-.73v-7.32h21.07v4.1a4,4,0,0,0,3.94,3.93h3.21a.72.72,0,0,0,.72-.72V94.86a5.56,5.56,0,0,0-5.55-5.55H779.7v-5h17.84v26.61a.73.73,0,0,0,.73.72h12.86a.73.73,0,0,0,.73-.72V90.72l0-1.2V84.34h-.16l1.46,0h1.15a.87.87,0,0,0,.87-.87V77.19a.73.73,0,0,0-.72-.73v0h8.62m-43.39,6.4v-5h34v5Zm4.12,12.85h-9.65A5.72,5.72,0,0,1,768.44,90V71.07a8.56,8.56,0,0,1,2.39-6,4.19,4.19,0,0,1,4.76-1.33l.07,0,.05,0a8.24,8.24,0,0,1,4.15,7v0a.73.73,0,0,0,.73.72h3.21a2.5,2.5,0,0,1,2.5,2.5v2.51H779a.72.72,0,0,0-.72.72V90a.73.73,0,0,0,.72.73h6.46a4.11,4.11,0,0,1,4.1,4.1v15.36H787a2.5,2.5,0,0,1-2.51-2.5V96.47a.73.73,0,0,0-.72-.73ZM762,102.18v-25a4.1,4.1,0,0,1,4.09-4.1H767v17a7.16,7.16,0,0,0,7.15,7.15h8.92v5Z"/></g><path class="cls-2" d="M787.32,74.66H796a.86.86,0,0,0,.61-.25l6.8-6.64a.88.88,0,0,1,1.24,0h0a.89.89,0,0,1,0,1.25l-7.22,7.22a.88.88,0,0,1-.63.26h-9.47a.89.89,0,0,1-.88-.82v-.07A.88.88,0,0,1,787.32,74.66Z"/><g id="Capa_1-4" data-name="Capa 1"><path class="cls-7" d="M107.92,42A11.7,11.7,0,0,0,100,62.29l.14.13,0,0,.15.13a11.65,11.65,0,0,0,5.83,2.66,2.72,2.72,0,0,0,.46.06c.19,0,.35,0,.49,0l.75,0h.14a11.7,11.7,0,1,0,0-23.4Zm6.7,20.71A11.18,11.18,0,0,1,107.89,65h-.12c-.23,0-.46,0-.63,0a11.18,11.18,0,0,1-6.21-2.42l-.2-.15.18-.17a2.61,2.61,0,0,1,.6-.42h0l4-1.69a1.67,1.67,0,0,0,.61-.8.57.57,0,0,0,0-.54.54.54,0,0,0-.48-.26H102.8a6.78,6.78,0,0,1-1.72-.42l-.19-.09-.22,0,.09-.24a.53.53,0,0,1,.09-.16,13.7,13.7,0,0,0,2.65-7,5.22,5.22,0,0,1,.58-2.17,3.9,3.9,0,0,1,3.67-2.09,4.28,4.28,0,0,1,4.13,2.64,6,6,0,0,1,.48,2.15,15.08,15.08,0,0,0,2.27,6.45.59.59,0,0,1,.07.43.55.55,0,0,1-.25.33,1.84,1.84,0,0,1-1.15.2h-2.88a.5.5,0,0,0-.48.35.54.54,0,0,0,.16.6,4.58,4.58,0,0,0,.45.33h0l3.29,2a2.45,2.45,0,0,1,.8.67l.13.17Zm.7-.53-.17.15-.13-.18a3.07,3.07,0,0,0-.93-.8h0l-3.3-2a.64.64,0,0,0-.1-.06l-.26-.19a.11.11,0,0,1,.06-.2h2.75a2.39,2.39,0,0,0,1.46-.26,1,1,0,0,0,.44-.61,1,1,0,0,0-.11-.77A14.44,14.44,0,0,1,112.81,51a6.55,6.55,0,0,0-.52-2.3,4.7,4.7,0,0,0-4.54-2.91,4.24,4.24,0,0,0-4,2.32,6,6,0,0,0-.65,2.38,13.46,13.46,0,0,1-2.58,6.75.76.76,0,0,0-.16.65.91.91,0,0,0,.59.54,6.66,6.66,0,0,0,1.88.45h2.79a.12.12,0,0,1,.1.17l-.08.14c-.17.33-.23.39-.29.42h0l-4,1.71a3,3,0,0,0-.78.57l-.14.14-.15-.14a11.25,11.25,0,1,1,15.07.26Z"/></g><path class="cls-1" d="M1123,58.25h9.07a.8.8,0,0,0,.8-.8.79.79,0,0,0-.8-.79h-3.74V51.45l.79-.15a8.92,8.92,0,0,0,7-6.51l.15-.6.6-.13a6.71,6.71,0,0,0,5.46-6.6V32.6a.79.79,0,0,0-.79-.79h-28.08a.79.79,0,0,0-.8.79v4.86a6.72,6.72,0,0,0,5.46,6.6l.6.13.16.6a8.88,8.88,0,0,0,7,6.51l.79.15v5.21H1123a.79.79,0,0,0-.8.79A.81.81,0,0,0,1123,58.25Zm13.42-24.85h4.34v4.06a5.18,5.18,0,0,1-3,4.66l-1.38.65V33.4Zm-17.8,9.37-1.38-.65a5.18,5.18,0,0,1-3-4.66V33.4h4.35Zm1.59-.21V33.4h14.6v9.16a7.3,7.3,0,0,1-7.29,7.3h0A7.3,7.3,0,0,1,1120.22,42.56Z"/><path class="cls-2" d="M1162.85,57.31a.79.79,0,0,0,.79-.8V54.32a.79.79,0,0,0-.79-.79.79.79,0,0,0-.8.79v2.19A.8.8,0,0,0,1162.85,57.31Z"/><path class="cls-2" d="M1162.85,64.06a.79.79,0,0,0-.8.79V67a.79.79,0,0,0,.8.79.79.79,0,0,0,.79-.79V64.85A.79.79,0,0,0,1162.85,64.06Z"/><path class="cls-2" d="M1169.21,59.89H1167a.79.79,0,0,0-.8.79.8.8,0,0,0,.8.8h2.19a.79.79,0,0,0,.79-.8A.79.79,0,0,0,1169.21,59.89Z"/><path class="cls-2" d="M1158.68,59.89h-2.19a.79.79,0,0,0-.79.79.79.79,0,0,0,.79.8h2.19a.79.79,0,0,0,.79-.8A.79.79,0,0,0,1158.68,59.89Z"/><path class="cls-2" d="M1101.57,101.11a.79.79,0,0,0,.79-.8V98.12a.8.8,0,0,0-1.59,0v2.19A.8.8,0,0,0,1101.57,101.11Z"/><path class="cls-2" d="M1101.57,107.85a.8.8,0,0,0-.8.8v2.19a.8.8,0,0,0,1.59,0v-2.19A.79.79,0,0,0,1101.57,107.85Z"/><path class="cls-2" d="M1107.92,103.69h-2.19a.79.79,0,1,0,0,1.58h2.19a.79.79,0,1,0,0-1.58Z"/><path class="cls-2" d="M1097.4,103.69h-2.19a.79.79,0,1,0,0,1.58h2.19a.79.79,0,0,0,0-1.58Z"/><path class="cls-2" d="M1095.21,40.71a.79.79,0,0,0,.79-.8V37.72a.79.79,0,0,0-.79-.79.79.79,0,0,0-.8.79v2.19A.8.8,0,0,0,1095.21,40.71Z"/><path class="cls-2" d="M1095.21,47.45a.8.8,0,0,0-.8.8v2.19a.79.79,0,0,0,.8.79.79.79,0,0,0,.79-.79V48.25A.79.79,0,0,0,1095.21,47.45Z"/><path class="cls-2" d="M1099.38,44.88h2.19a.79.79,0,0,0,.79-.8.79.79,0,0,0-.79-.79h-2.19a.79.79,0,0,0-.8.79A.8.8,0,0,0,1099.38,44.88Z"/><path class="cls-2" d="M1091,43.29h-2.19a.79.79,0,0,0-.79.79.79.79,0,0,0,.79.8H1091a.8.8,0,0,0,.8-.8A.79.79,0,0,0,1091,43.29Z"/><path class="cls-1" d="M1143.24,57a4.28,4.28,0,0,0-6-.14,4.24,4.24,0,0,0-.07,6.06,14.12,14.12,0,0,1,4.16,10v.1A9.76,9.76,0,0,1,1136,81.7l-1.91,1a.37.37,0,0,1-.48-.51l1.12-1.82a8.33,8.33,0,0,0,1.2-4.33V74.79a8.47,8.47,0,0,0-8.21-8.51,8.36,8.36,0,0,0-8.52,8.35V76a8.58,8.58,0,0,0,1.2,4.33l1.12,1.82a.36.36,0,0,1-.48.51l-1.91-1a9.71,9.71,0,0,1-5.38-8.64v-.12a14.12,14.12,0,0,1,4.16-10,4.13,4.13,0,0,0,1.24-3,4.23,4.23,0,0,0-7.29-2.88,22.68,22.68,0,0,0-.22,31.7l.09.09c.29.27.57.51.87.74a26.35,26.35,0,0,0,3.88,2.51,1.93,1.93,0,0,1,1,1.68v25.78a.79.79,0,0,0,.79.8h18.62a.79.79,0,0,0,.79-.8V93.55a1.71,1.71,0,0,1,.9-1.52,28.3,28.3,0,0,0,4.29-2.86l.43-.37c.23-.21.46-.43.67-.66a22.67,22.67,0,0,0-.73-31.15Zm-22.48,19.23V74.63a6.78,6.78,0,0,1,6.93-6.76,6.86,6.86,0,0,1,6.6,6.91V76a6.76,6.76,0,0,1-6.34,6.75h-.85A6.56,6.56,0,0,1,1120.76,76.22Zm19.13,13.18c-.74.49-1.47.93-2.23,1.34l-.1.05a2.77,2.77,0,0,0-1.47,2.42h0V118.7h-17V93.23h0a2.4,2.4,0,0,0-1.38-2.19l-.21-.11a17.34,17.34,0,0,1-4.56-3.17,21.36,21.36,0,0,1-6.07-14.8,21,21,0,0,1,6.11-14.84,2.69,2.69,0,0,1,3.76-.12,2.61,2.61,0,0,1,.81,1.89,2.64,2.64,0,0,1-.77,1.9A15.7,15.7,0,0,0,1112.11,73v.13a11.42,11.42,0,0,0,11.44,11.26h3.54a6.46,6.46,0,0,0,.88,0h3.53a11.44,11.44,0,0,0,11.44-11.28V73a15.72,15.72,0,0,0-4.62-11.18,2.67,2.67,0,0,1,0-3.8,2.58,2.58,0,0,1,1.8-.71,2.85,2.85,0,0,1,2,.83,21.1,21.1,0,0,1,2.49,26.67A17.8,17.8,0,0,1,1139.89,89.4Z"/><g id="Capa_1-5" data-name="Capa 1"><path class="cls-7" d="M836.73,58.22A5.28,5.28,0,0,1,831.46,53V51.86a5.27,5.27,0,0,1,10.54,0V53A5.28,5.28,0,0,1,836.73,58.22Zm-5.82,53.51V81.13l.73.06h10.17l.73-.06v30.6h-5.13V89.9a.67.67,0,0,0-.68-.67.66.66,0,0,0-.67.67v21.83h-5.15Zm-16-35.61V82a1,1,0,0,0,1.44.92l10.8-5a.68.68,0,0,0,.32-.33l2.1-5.75v41.07h14.32v-27l.54-.1a6.1,6.1,0,0,0,4.87-6V64.34a6.12,6.12,0,0,0-6.12-6.12H841l.9-1.11A6.59,6.59,0,0,0,843.35,53V51.86a6.63,6.63,0,0,0-7.26-6.6,6.76,6.76,0,0,0-6,6.79v.88a6.6,6.6,0,0,0,1.49,4.16l.89,1.11h-3.25a6.14,6.14,0,0,0-6,4.85l-1.92,9.08-5.67,2.77A1.37,1.37,0,0,0,814.91,76.12Zm1.15.08,6.17-3a.71.71,0,0,0,.37-.48l2-9.4a4.78,4.78,0,0,1,4.66-3.77h13.94A4.78,4.78,0,0,1,848,64.34V79.82a4.76,4.76,0,0,1-3.15,4.48l-.91.32V67.4a.66.66,0,0,0-.67-.67.67.67,0,0,0-.68.67V79.89l-.73,0H831.66l-.74,0V67.4a.68.68,0,0,0-1.35,0v1.25l-3.2,8.11-10.31,4.73h0Z"/></g><g id="Capa_1-6" data-name="Capa 1"><path class="cls-7" d="M1010.73,86.58l-4.39-4.24L985.68,62.41a.93.93,0,0,0-1.29,1.33l20.66,19.93,4.39,4.24a3.92,3.92,0,0,1,1.26,2.84,4,4,0,0,1-6.83,3L1002,92l0,0-3-2.88a.93.93,0,0,0-1.27,1.35l3,2.86v0h0a4.12,4.12,0,0,1,1.31,2.91,3.86,3.86,0,0,1-1,2.93,4.2,4.2,0,0,1-5.85,0l-4.07-3.89a.93.93,0,1,0-1.28,1.34l2.57,2.44h0a4,4,0,1,1-5.57,5.87l-1.39-1.31,0,0h0l-2.67-2.55a.93.93,0,0,0-1.28,1.35l2.7,2.56a4,4,0,0,1-5.59,5.85l-9.23-8.78-14.7-14.54-8.2-7.9a5.53,5.53,0,0,1-.2-7.8v0l19.15-20.18,2.38.72.26,0a1,1,0,0,0,.89-.66.92.92,0,0,0-.63-1.15l-1.55-.46a5.43,5.43,0,0,0-.64-7.1,5.45,5.45,0,0,0-3.73-1.5,5.35,5.35,0,0,0-3.93,1.68L936.87,65.9a5.41,5.41,0,0,0,3.92,9.15,5.5,5.5,0,0,0,2.1-.42A7.37,7.37,0,0,0,945.1,81l8.18,7.87L968,103.37l9.25,8.79h0l.11.11,0,0a5.9,5.9,0,0,0,9.8-4.89,5.81,5.81,0,0,0,2.38.5,5.88,5.88,0,0,0,5.89-6.31,5.8,5.8,0,0,0,8.45-5.46V96a6,6,0,0,0,2.78.7,5.88,5.88,0,0,0,4.06-10.15ZM940.79,73.19a3.57,3.57,0,0,1-3.57-3.47,3.7,3.7,0,0,1,1-2.55L959.77,44.5a3.57,3.57,0,0,1,5-.13,3.55,3.55,0,0,1,.13,5L943.39,72.08A3.56,3.56,0,0,1,940.79,73.19Z"/><path class="cls-7" d="M1018.43,64.31,996.66,42.54a5.36,5.36,0,0,0-9.14,3.78,5.27,5.27,0,0,0,.56,2.38l-15.54,2.51A5.42,5.42,0,0,0,968.26,55L963,73.06a5.37,5.37,0,0,0,5.15,6.84,5.37,5.37,0,0,0,2.57-.66,5.29,5.29,0,0,0,2.56-3.17l4-13.29L988.15,61a.9.9,0,0,0,.76-1,.93.93,0,0,0-1.06-.76l-11.47,1.87a.93.93,0,0,0-.74.64l-4.17,13.84a3.49,3.49,0,0,1-6.42.7,3.57,3.57,0,0,1-.3-2.66l5.3-18.08a3.52,3.52,0,0,1,2.8-2.47l16.52-2.68,20,20h0A5.4,5.4,0,0,1,1011,74.2a5.49,5.49,0,0,1-1.59,3.84l0,0-2.25,2.43a.93.93,0,0,0,1.36,1.26l2.24-2.42a7.22,7.22,0,0,0,2.12-5.13,8.32,8.32,0,0,0-.09-1.12,5.2,5.2,0,0,0,1.93.35,5.34,5.34,0,0,0,3.77-9.12Zm-1.29,6.26a3.49,3.49,0,0,1-4.95,0L990.42,48.8a3.46,3.46,0,0,1-1-2.48,3.42,3.42,0,0,1,1-2.47,3.48,3.48,0,0,1,4.94,0l21.78,21.77A3.51,3.51,0,0,1,1017.14,70.57Z"/><path class="cls-7" d="M973.72,110.9l-2.25,2.25h0a3.78,3.78,0,0,1-5.35-5.35h0l2.08-2.08a.93.93,0,1,0-1.31-1.31l-2.08,2.08h0a3.78,3.78,0,0,1-5.35,0,3.78,3.78,0,0,1,0-5.35h0l2-2a.93.93,0,1,0-1.31-1.31l-2.05,2h0a3.78,3.78,0,0,1-5.35,0,3.78,3.78,0,0,1,0-5.35h0l2-2a.93.93,0,1,0-1.31-1.31l-2,2h0a3.78,3.78,0,0,1-5.35,0,3.78,3.78,0,0,1,0-5.35h0l1.92-1.92a.93.93,0,0,0,0-1.31.91.91,0,0,0-1.31,0l-1.92,1.92h0a5.57,5.57,0,0,0-1.65,4,5.62,5.62,0,0,0,5.63,5.62A5.47,5.47,0,0,0,950,96a5.47,5.47,0,0,0-.11,1.15,5.6,5.6,0,0,0,5.62,5.62,5.47,5.47,0,0,0,1.15-.11,5.47,5.47,0,0,0-.11,1.15,5.6,5.6,0,0,0,5.62,5.62,5.47,5.47,0,0,0,1.15-.11,5.63,5.63,0,0,0,5.51,6.78,5.69,5.69,0,0,0,4-1.65h0l2.25-2.25a.93.93,0,0,0-1.31-1.31Z"/></g><text class="cls-3" transform="translate(13.61 168.89)">Angebotssichtung</text><text class="cls-3" transform="translate(391.46 168.89)">Kurzaufgabe</text><text class="cls-3" transform="translate(741.76 168.89)">Hospita<tspan class="cls-5" x="56.45" y="0">t</tspan><tspan x="61.6" y="0">ion</tspan></text></svg>