<svg xmlns="http://www.w3.org/2000/svg" viewBox="0 0 549 1444.27"><path fill="#fff" d="M275.09 166.52V0H0v166.52l137.55 41.77 137.54-41.77z"/><path fill="#fff" d="M275.09 371.72V187.08l-139.55 46.33L0 187.08v184.64l137.55 46.33 137.54-46.33z"/><path fill="#fff" d="M275.09 580.17V395.53l-139.55 46.33L0 395.53v184.64l137.55 46.33 137.54-46.33z"/><path fill="#fff" d="M275.09 788.61V603.97l-139.55 46.32L0 603.98v184.63l137.55 46.32 137.54-46.32z"/><path fill="#fff" d="M275.09 998.36V813.72l-139.55 46.33L0 813.72v184.64l137.55 46.33 137.54-46.33z"/><path fill="#fff" d="M275.09 1209.24V1024.6l-139.55 46.32L0 1024.6v184.64l137.55 46.32 137.54-46.32z"/><rect x="82.23" y="316.39" width="10.59" height="54.18" rx="5.29" transform="rotate(-21.05 87.529 343.477)" fill="#fdc62d"/><path fill="#fdc62d" d="M143.33 251.69l8.23-3.29 11.51 32.91-6.58 4.93-13.16-34.55zM184.45 342.17l-8.22 1.65 13.15 34.55 8.23-3.29-13.16-32.91zM118.01 674.51l4.61-1.53h32.24l1.53 3.06V696l-3.07 1.53-6.15 1.55v3.07l-4.6-3.07h-18.42l-4.6-3.08-1.54-7.67v-13.82zM189.89 944.86h9.87v49.34h-9.87v-49.34"/><rect x="170.89" y="1099.76" width="11.45" height="58.17" rx="5.39" transform="rotate(-45 176.621 1128.841)" fill="#fdc62d"/><rect x="64.92" y="1124.3" width="60.58" height="13.96" rx="6.11" transform="rotate(-45 95.212 1131.282)" fill="#fdc62d"/><g style="isolation:isolate" font-size="28.567" fill="#fff" font-family="UniversCom-57Condensed,Univers Com"><text transform="translate(299.34 713.17)" style="isolation:isolate" letter-spacing="-.04em">V</text><text transform="translate(314.16 713.17)" style="isolation:isolate">orste</text><text transform="translate(372.86 713.17)" style="isolation:isolate">l</text><text transform="translate(379.23 713.17)" style="isolation:isolate">lungsgespräch</text></g><g style="isolation:isolate" font-size="28.567" fill="#fff" font-family="UniversCom-57Condensed,Univers Com"><text transform="translate(299.34 301.25)" style="isolation:isolate" letter-spacing="-.08em">T</text><text transform="translate(311.34 301.25)" style="isolation:isolate">elefon-Interview</text></g><g style="isolation:isolate" font-size="28.567" fill="#fff" font-family="UniversCom-57Condensed,Univers Com"><text transform="translate(299.34 1125.09)" style="isolation:isolate" letter-spacing="-.04em">V</text><text transform="translate(314.16 1125.09)" style="isolation:isolate">ertragsverhan</text><text transform="translate(475.97 1125.09)" style="isolation:isolate">d</text><text transform="translate(490.27 1125.09)" style="isolation:isolate">lung</text></g><path d="M198.81 375.25l-12.36-34v-.1a.64.64 0 0 1-.24-.22h-.41a.25.25 0 0 1-.17 0 34.56 34.56 0 0 0-28.63 15l-.36.54-.58-.29a50.77 50.77 0 0 1-7.46-4.64l-1.09-.81 9.09-3.4 4.2-1.64a7.72 7.72 0 0 0 4.27-4.09 7.34 7.34 0 0 0 .12-5.69 7.54 7.54 0 0 0-4.53-4.28l-.88-.3.51-.75a5.77 5.77 0 0 0 .62-1.18 7.59 7.59 0 0 0 .11-5.95 7.73 7.73 0 0 0-4-4.22l-.77-.29-.92-.25.48-.8c.22-.38.4-.7.59-1.07a7.53 7.53 0 0 0 .11-5.91 7.77 7.77 0 0 0-4.86-4.53l-.88-.29.48-.8a9.32 9.32 0 0 0 .59-1.07 7.62 7.62 0 0 0 .11-5.91 7.73 7.73 0 0 0-10-4.44h-.06l-4.16 1.55-8.84 3.2.29-1.35a53.88 53.88 0 0 1 2.6-7.72l.22-.55.62.18a34.2 34.2 0 0 0 31.55-6.58l.14-.14v-.11l.19-.18V282a.61.61 0 0 1 0-.19v-.18a.6.6 0 0 1 0-.19.33.33 0 0 1 0-.14l-12.17-33.84a1.1 1.1 0 0 0-1.41-.65l-29.25 10.62h-.11l-.23.11h-.08l-.14.11a77.92 77.92 0 0 0-18 35.35l-.08.28-.26.16c-5.25 3.24-10.7 14.79-12.26 18.22l-4.12 8.23-.73-.81a7 7 0 0 0-5.36-2.44 6.56 6.56 0 0 0-2.63.51 7.13 7.13 0 0 0-3.91 3.76 6.93 6.93 0 0 0 0 5.47L89 365.65a7.13 7.13 0 0 0 6.62 4.49 6.81 6.81 0 0 0 2.63-.51 7.07 7.07 0 0 0 3.91-3.76 8.65 8.65 0 0 0 .58-2.12l.11-1 1 .43a11.54 11.54 0 0 0 1.42.54 12.76 12.76 0 0 0 3.83.59 10.44 10.44 0 0 0 4.13-.76l7.09-2.75.33.4a77.79 77.79 0 0 0 47.66 25.94h.24a1.11 1.11 0 0 0 .37-.07l29.38-10.65a1 1 0 0 0 .63-.45 1.39 1.39 0 0 0-.08-.73zm-48.09-125.91l11.69 32.06-.45.33a30.46 30.46 0 0 1-4.64 3l-.72.35-12.2-33.4zm-47.15 57.56a75.63 75.63 0 0 1 19-47.18l.12-.14 19.68-7.14L154.59 286l-.65.24a31.64 31.64 0 0 1-21.95.41h-.19a.41.41 0 0 1-.22 0h-.44l-.19.15-.11.11-.07.11a.71.71 0 0 1-.08.15 53.16 53.16 0 0 0-3.9 11.9l-.07.41-23.18 8.58zm-3.46 58.38a4.84 4.84 0 0 1-2.7 2.63 5.52 5.52 0 0 1-1.8.34 5 5 0 0 1-4.61-3.09l-15.36-39.05a5 5 0 0 1 .08-3.76 4.89 4.89 0 0 1 2.7-2.62 5.56 5.56 0 0 1 1.8-.33 4.9 4.9 0 0 1 4.63 3.09l15.34 39a4.81 4.81 0 0 1-.08 3.79zm12.26-3.46a9.53 9.53 0 0 1-3.39.59 10.71 10.71 0 0 1-3.18-.48 7.3 7.3 0 0 1-4.64-3.87v-.18L87.44 323l5.08-10a69.25 69.25 0 0 1 8.24-14.31l1.65-2.06-.37 2.6a77.76 77.76 0 0 0-.75 10.11v.45a1.12 1.12 0 0 0 1 .72h.26l25.15-9.16 10.73-3.87 4.31-1.54a5.62 5.62 0 0 1 7.06 7.45 5.52 5.52 0 0 1-3.09 2.95l-4.64 1.79-.15.19-.11.32v.36a.17.17 0 0 0 0 .14s.08 0 .08.12v.11l.12.11h.08a.37.37 0 0 1 .14.07h.88l4.15-1.54a5.81 5.81 0 1 1 4.1 10.87l-3.36 1.31-1.18.43h-.08l-.18.19a.13.13 0 0 1-.08.11v.68a.33.33 0 0 0 0 .14.17.17 0 0 1 0 .1l.08.11h.08l.18.19h.82l4.31-1.55a5.61 5.61 0 0 1 4.13.14A5.59 5.59 0 0 1 156 331l-3.21 1.28-1.43.51a1.09 1.09 0 0 0-.58.54 1.14 1.14 0 0 0 1.42 1.5l4.24-1.54a5.58 5.58 0 0 1 4.08.11 5.14 5.14 0 0 1 3.06 6.6 5.4 5.4 0 0 1-.36.77 5.63 5.63 0 0 1-3.09 2.86l-3.13 1.25-1.18.44-29.2 10.83zm56 23.4h-.18a76.12 76.12 0 0 1-45.07-24.14l-.69-.81 4.93-1.93 17.82-6.57.33.25a56.34 56.34 0 0 0 11 6.91h.32a.11.11 0 0 1 .11 0h.48v-.08h.12l.11-.11.15-.14a.49.49 0 0 1 .11-.14 32.19 32.19 0 0 1 17-13.77l.69-.22 12.23 33.6zm21.74-7.88l-12.2-33.42.83-.17a30.23 30.23 0 0 1 5.44-.7h.55l11.68 32.06z" fill="#5d7992"/><path fill="#fdc62d" d="M119.62 589.03h32.89l-3.29-21.38h-26.31l-3.29 21.38zM88.36 508.43h54.29v16.45l-54.29 1.65v-18.1z"/><path d="M199.15 460.59H73.21a8.12 8.12 0 0 0-8.13 8.1V561a8.15 8.15 0 0 0 8.13 8.13h49l-3.82 18.44h-11.03a1.25 1.25 0 0 0-1.24 1.24 1.22 1.22 0 0 0 1.22 1.22H165a1.22 1.22 0 0 0 1.24-1.2 1.24 1.24 0 0 0-1.24-1.24h-11.09l-3.79-18.44h49a8.12 8.12 0 0 0 8.13-8.1v-92.34a8.11 8.11 0 0 0-8.11-8.12zm-47.72 127H121l3.82-18.44h22.86zM204.81 561a5.68 5.68 0 0 1-5.66 5.67H73.21a5.64 5.64 0 0 1-5.62-5.67v-92.29a5.65 5.65 0 0 1 5.65-5.66h125.94a5.65 5.65 0 0 1 5.66 5.66V561z" fill="#5d7992"/><path d="M199 468.21H73.37a1.23 1.23 0 0 0-1.24 1.24v84.4a1.24 1.24 0 0 0 1.24 1.24H199a1.25 1.25 0 0 0 1.24-1.24v-84.4a1.24 1.24 0 0 0-1.24-1.24zm-1.22 84.36H74.6v-81.93h123.16zM144.88 559.46h-17.39a1.24 1.24 0 1 0-.28 2.46h17.67a1.22 1.22 0 0 0 1.36-1.09 1.24 1.24 0 0 0-1.09-1.37z" fill="#5d7992"/><path d="M147.77 488.11H89.44a1.26 1.26 0 0 1-1.25-1.26 1.25 1.25 0 0 1 1.25-1.25h58.33a1.25 1.25 0 0 1 1.25 1.25 1.26 1.26 0 0 1-1.25 1.26zM162.33 493.7h-72.9a1.25 1.25 0 0 1-1.25-1.25 1.25 1.25 0 0 1 1.25-1.25h72.9a1.25 1.25 0 0 1 1.25 1.25 1.25 1.25 0 0 1-1.25 1.25zM144 504.48H89.43a1.25 1.25 0 0 1-1.25-1.26 1.25 1.25 0 0 1 1.25-1.22H144a1.25 1.25 0 0 1 1.25 1.25 1.25 1.25 0 0 1-1.25 1.23z" fill="#5d7992"/><rect x="88.19" y="530.86" width="56.58" height="2.5" rx="1.25" fill="#5d7992"/><rect x="88.19" y="536.44" width="56.58" height="2.5" rx="1.25" fill="#5d7992"/><path d="M144.46 526.81H87.77V508h56.69zm-55.05-1.64h53.41v-15.45H89.41zM167.17 530.92v-4.76a4.57 4.57 0 0 1 .8-2.58c.53-.8 1.12-1.64 1.73-2.52a21.24 21.24 0 0 0 1.75-2.84 7.73 7.73 0 0 0 .8-3.59 4.74 4.74 0 0 0-.2-1.4 4.68 4.68 0 0 0-.55-1.35 3.09 3.09 0 0 0-1-1 2.54 2.54 0 0 0-1.42-.37 2.46 2.46 0 0 0-1.76.6 3.88 3.88 0 0 0-.94 1.55 6.28 6.28 0 0 0-.36 1.92v1.82h-3.92a12.71 12.71 0 0 1 .28-3.53 6.61 6.61 0 0 1 1.22-2.73 5.84 5.84 0 0 1 2.27-1.76 8.67 8.67 0 0 1 3.52-.62 6.57 6.57 0 0 1 5.06 1.9 7.17 7.17 0 0 1 1.79 5.1 11.07 11.07 0 0 1-.41 3.09 13.15 13.15 0 0 1-1 2.48 13.39 13.39 0 0 1-1.35 2L172.1 524a12.19 12.19 0 0 0-1 1.55 3.1 3.1 0 0 0-.42 1.54v3.8zm3.69 7.73h-3.94v-4.39h3.94zM85.45 746.3h-12a1.18 1.18 0 0 0-1.18 1.19v10.21a1.44 1.44 0 0 0 1.44 1.44h22.2v1.44a9.07 9.07 0 0 0 6.81 8.75l1.11.28v33.18A1.19 1.19 0 0 0 105 804h21.1a1.2 1.2 0 0 0 1.18-1.2v-33.19l1.11-.28a9 9 0 0 0 6.81-8.75v-1.44h21.34v8.17h-9.39a9.11 9.11 0 0 0-9.11 9.1v26.34a1.2 1.2 0 0 0 1.2 1.2h5.27a6.46 6.46 0 0 0 6.49-6.45v-6.72h34.62v12a1.2 1.2 0 0 0 1.2 1.2h.09a1.21 1.21 0 0 0 1.09-1.24v-55.3a9.09 9.09 0 0 0-9.07-9.06h-1.44v-1.44a16.25 16.25 0 0 0-4.68-11.14 11.41 11.41 0 0 0-2.77-2.06l-2.35-1.32 2.38-1.25a9 9 0 0 0 4.84-8V708a9.12 9.12 0 0 0-9.13-9.11h-.22a9.24 9.24 0 0 0-8.86 9.29v5.08a9 9 0 0 0 4.83 8l2.27 1.2-2.18 1.34a15.8 15.8 0 0 0-7.33 10.81l-.2 1.22h-4.1a6.48 6.48 0 0 0-6.46 6.47v4.09h-8.16v-1.44A19.77 19.77 0 0 0 121 726l-3-.88 2.59-1.74a9.05 9.05 0 0 0 4-7.53v-5.22a9.1 9.1 0 1 0-18.2 0v5.28a9 9 0 0 0 4 7.53l2.59 1.74-3 .88a19.74 19.74 0 0 0-14.16 18.84v1.44h-8.05m71.15-33.18v-5.2a6.72 6.72 0 0 1 13.44 0v5.26a6.72 6.72 0 0 1-13.44 0zm-50.07 2.75v-5.31a6.72 6.72 0 0 1 13.44 0v5.31a6.72 6.72 0 0 1-13.44 0zm-10.55 29a17.31 17.31 0 0 1 17.31-17.31 17.31 17.31 0 0 1 17.31 17.31v1.44H98.3zm5.57 22.81l-2.19-1.24a6.77 6.77 0 0 1-3.36-5.77v-1.52h5.55zm21.07 33.94h-18.75v-42.52h18.75zm7.9-41a6.71 6.71 0 0 1-3.37 5.77l-2.19 1.24v-8.45h5.56zm-58.24-3.9v-8.13h82v8.16zm75.23 21.13a1.2 1.2 0 0 0-1.2 1.2v18.42a4.1 4.1 0 0 1-4.1 4.1h-4.11v-25.16a6.73 6.73 0 0 1 6.7-6.75h10.61a1.18 1.18 0 0 0 1.19-1.18v-21.09a1.19 1.19 0 0 0-1.19-1.19h-12v-4.09a4.1 4.1 0 0 1 4.08-4.11h5.28a1.2 1.2 0 0 0 1.2-1.19 13.54 13.54 0 0 1 6.81-11.41h.2a6.83 6.83 0 0 1 7.79 2.2 14 14 0 0 1 3.91 9.86v31a9.37 9.37 0 0 1-9.36 9.36h-15.87zm35.7 10.56H151v-8.18h14.63a11.72 11.72 0 0 0 11.71-11.71v-27.81h1.44a6.73 6.73 0 0 1 6.73 6.71v41z" fill="#5d7992"/><path d="M146.4 704.73l-5-5.08h-18.66a5.06 5.06 0 0 1-5.07-5.06V676.5a5.06 5.06 0 0 1 5.07-5.06h29.57a5.05 5.05 0 0 1 5.06 5.06v18.09a5.05 5.05 0 0 1-5.06 5.06h-3.84v4.23a1.21 1.21 0 0 1-2.07.85zm-23.66-31a2.74 2.74 0 0 0-2.74 2.77v18.09a2.74 2.74 0 0 0 2.74 2.74h19.54l3.87 3.87v-3.87h6.16a2.74 2.74 0 0 0 2.74-2.74V676.5a2.74 2.74 0 0 0-2.74-2.74h-29.57z" fill="#5d7992"/><path d="M125.15 680.15h24.75a1.23 1.23 0 0 1 1.24 1.23 1.24 1.24 0 0 1-1.24 1.24h-24.75a1.24 1.24 0 0 1-1.24-1.24 1.23 1.23 0 0 1 1.24-1.23zM125.15 686.9h24.75a1.23 1.23 0 0 1 1.24 1.23 1.24 1.24 0 0 1-1.24 1.24h-24.75a1.24 1.24 0 0 1-1.24-1.24 1.23 1.23 0 0 1 1.24-1.23zM92.89 914a6.36 6.36 0 0 1-6.34-6.34v-5a6.34 6.34 0 1 1 12.67 0v5a6.32 6.32 0 0 1-6.3 6.34zm38.41 37h17.62v40H131.3zm9.52-12.12h-26.9V935a6.18 6.18 0 0 0-6.12-6.18h-3.86l-.2-1.15a14.86 14.86 0 0 0-6.91-10.2l-2.06-1.27 2.15-1.11a8.51 8.51 0 0 0 4.54-7.51v-4.73a8.67 8.67 0 0 0-8.34-8.75 8.57 8.57 0 0 0-8.81 8.34v5.2a8.49 8.49 0 0 0 4.54 7.51l2.26 1.18-2.23 1.23a11.45 11.45 0 0 0-2.61 2 15.3 15.3 0 0 0-4.44 10.47v1.34h-1.37a8.57 8.57 0 0 0-8.58 8.55v52.18a1.15 1.15 0 0 0 1 1.17 1.14 1.14 0 0 0 1.22-1.06v-11.38h32.58v6.34a6.18 6.18 0 0 0 6.09 6.07h5a1.11 1.11 0 0 0 1.11-1.11v-24.84a8.58 8.58 0 0 0-8.58-8.58h-8.83V951H129v41.13a1.12 1.12 0 0 0 1.13 1.11h19.88a1.12 1.12 0 0 0 1.13-1.11V951H155a1.34 1.34 0 0 0 1.34-1.34V940a1.12 1.12 0 0 0-1.11-1.13h13.32m-67.07 9.9V941H154v7.73zm6.37 19.86H92.9a8.84 8.84 0 0 1-8.84-8.83v-29.29a13.23 13.23 0 0 1 3.69-9.27 6.47 6.47 0 0 1 7.36-2.06h.19a12.74 12.74 0 0 1 6.41 10.82 1.12 1.12 0 0 0 1.13 1.11h5a3.87 3.87 0 0 1 3.87 3.87v3.88h-11.33a1.11 1.11 0 0 0-1.11 1.14v19.8a1.13 1.13 0 0 0 1.11 1.13h10a6.35 6.35 0 0 1 6.34 6.34V991h-4a3.86 3.86 0 0 1-3.88-3.85v-17.38a1.12 1.12 0 0 0-1.11-1.12zm-33.72 10V940a6.34 6.34 0 0 1 6.33-6.34h1.4v26.24A11.07 11.07 0 0 0 92.89 971h13.78v7.73z" fill="#5d7992"/><path d="M113.24 936.06h13.42a1.33 1.33 0 0 0 .94-.39l10.52-10.26a1.35 1.35 0 0 1 1.91 0 1.37 1.37 0 0 1 0 1.93l-11.16 11.16a1.33 1.33 0 0 1-1 .4h-14.61a1.37 1.37 0 0 1-1.36-1.26v-.11a1.37 1.37 0 0 1 1.25-1.47zM146.02 68.32l1.61-2.3 1.68-4.28 1.64-6.57v-1.65l1.65-1.64 1.64-1.66h4.93l2.07.23.85 1.57.38-.14 1.65 3.29.45.86.43 3.25 1.1 4.81 1.13 1.74.91 2.08-.51.85-1.18.74h-5.25l-.17.73 2.12 1.26 2.76 1.81 2.04 1.22.45.96-2.63 1.81-3.66 1.5-3.26.57-5.44-.29-4.79-1.92-2.6-1.9.88-.99 2.16-1.05 1.01-.63 1.08-.45.82-.36 1.08-.32 1.04-.68.55-.82-.37-.59-2.44.05h-2.35l-1.95-.36-1.51-.73z" fill="#fdc62d"/><path d="M183.44 164H91a5.78 5.78 0 0 1-5.77-5.76V36A5.77 5.77 0 0 1 91 30.27h92.47a5.76 5.76 0 0 1 5.72 5.73v122.25a5.77 5.77 0 0 1-5.75 5.75zM91 31.9a4.14 4.14 0 0 0-4.16 4.1v122.25a4.13 4.13 0 0 0 4.16 4.11h92.47a4.11 4.11 0 0 0 4.11-4.11V36a4.12 4.12 0 0 0-4.11-4.12H91z" fill="#5d7992"/><rect x="98.42" y="65.25" width="27.35" height="2.66" rx="1" fill="#5d7992"/><path d="M99.67 79.36h32a1.25 1.25 0 0 0 1.25-1.25 1.28 1.28 0 0 0-1.15-1.4h-32.1A1.25 1.25 0 0 0 98.42 78a1.3 1.3 0 0 0 1.19 1.41zM99.75 97.94h73.37a1.33 1.33 0 0 0 1.33-1.31 1.35 1.35 0 0 0-1.33-1.35H99.75a1.33 1.33 0 0 0 0 2.66zM173.12 107.79H99.75a1.33 1.33 0 0 0 0 2.66h73.37a1.33 1.33 0 0 0 0-2.66zM173.12 120.28H99.75a1.33 1.33 0 0 0 0 2.66h73.37a1.33 1.33 0 0 0 0-2.66zM173.12 132.77H99.75a1.34 1.34 0 0 0 0 2.67h73.37a1.34 1.34 0 0 0 0-2.67zM173.12 145.28H99.75a1.33 1.33 0 1 0 0 2.65h73.37a1.33 1.33 0 1 0 0-2.65zM157.53 43.59A18.09 18.09 0 0 0 145.29 75l.22.2.23.2a18 18 0 0 0 9 4.11 4.31 4.31 0 0 0 .71.09h2.14a18.09 18.09 0 0 0 0-36.17zm10.36 32a17.22 17.22 0 0 1-10.4 3.53h-1.16a17.2 17.2 0 0 1-9.6-3.74l-.31-.23.28-.26a4 4 0 0 1 .93-.65l6.18-2.61a2.63 2.63 0 0 0 .94-1.24.87.87 0 0 0 0-.83.83.83 0 0 0-.74-.41h-4.39a10.23 10.23 0 0 1-2.66-.64l-.29-.14h-.34l.14-.37a.77.77 0 0 1 .14-.25A21.19 21.19 0 0 0 150.7 57a8.05 8.05 0 0 1 .9-3.36 6 6 0 0 1 5.67-3.23 6.64 6.64 0 0 1 6.39 4.08 9.32 9.32 0 0 1 .74 3.33 23.3 23.3 0 0 0 3.51 10 .9.9 0 0 1 .11.66.84.84 0 0 1-.39.51 2.89 2.89 0 0 1-1.78.31h-4.45a.77.77 0 0 0-.74.54.84.84 0 0 0 .24.93c.23.18.46.35.7.51l5.09 3.09a3.74 3.74 0 0 1 1.23 1l.2.26zm1.08-.82l-.26.23-.2-.28a4.64 4.64 0 0 0-1.44-1.24L162 70.41l-.15-.09-.41-.3a.17.17 0 0 1 0-.23.15.15 0 0 1 .14-.07h4.25a3.79 3.79 0 0 0 2.26-.41 1.55 1.55 0 0 0 .68-.94 1.6 1.6 0 0 0-.17-1.19 22.37 22.37 0 0 1-3.44-9.68 10.08 10.08 0 0 0-.8-3.55 7.26 7.26 0 0 0-7-4.5 6.54 6.54 0 0 0-6.27 3.55 9.23 9.23 0 0 0-1 3.67 20.83 20.83 0 0 1-4 10.44 1.14 1.14 0 0 0-.25 1 1.39 1.39 0 0 0 .91.84 10 10 0 0 0 2.91.69H154a.19.19 0 0 1 .17.2.14.14 0 0 1 0 .07l-.12.21c-.26.51-.36.61-.45.65l-6.18 2.65a4.37 4.37 0 0 0-1.21.88l-.21.21-.24-.21a17.39 17.39 0 1 1 24.58-.84 16.68 16.68 0 0 1-1.34 1.28z" fill="#5d7992"/><path fill="#fdc62d" d="M127.89 1308.45h26.31v19.74l-6.57 6.59-6.59 1.64-8.73-1.87-2.78-6.36-1.64-4.93v-14.81z"/><path d="M134.2 1348.32h14a1.23 1.23 0 0 0 1.23-1.23 1.22 1.22 0 0 0-1.22-1.23h-5.79v-8l1.22-.23a13.81 13.81 0 0 0 10.82-10.07l.23-.92.93-.2a10.39 10.39 0 0 0 8.44-10.21v-7.51a1.22 1.22 0 0 0-1.22-1.22h-43.39a1.22 1.22 0 0 0-1.24 1.21v7.51a10.4 10.4 0 0 0 8.44 10.21l.93.2.25.92a13.72 13.72 0 0 0 10.82 10.07l1.22.23v8h-5.67a1.23 1.23 0 0 0-1.24 1.21 1.26 1.26 0 0 0 1.24 1.26zm20.74-38.41h6.71v6.27a8 8 0 0 1-4.64 7.21l-2.13 1v-14.48zm-27.51 14.48l-2.14-1a8 8 0 0 1-4.64-7.21v-6.27h6.73zm2.45-.32v-14.16h22.57v14.16a11.28 11.28 0 0 1-11.27 11.28 11.28 11.28 0 0 1-11.28-11.28z" fill="#fff"/><path d="M195.8 1346.87a1.22 1.22 0 0 0 1.22-1.22v-3.4a1.22 1.22 0 0 0-1.22-1.22 1.22 1.22 0 0 0-1.24 1.2v3.4a1.23 1.23 0 0 0 1.24 1.24zM195.8 1357.3a1.22 1.22 0 0 0-1.24 1.21v3.33a1.22 1.22 0 0 0 1.22 1.22 1.22 1.22 0 0 0 1.22-1.22v-3.33a1.22 1.22 0 0 0-1.22-1.22zM205.63 1350.86h-3.42a1.21 1.21 0 0 0-1.23 1.2 1.23 1.23 0 0 0 1.23 1.23h3.39a1.21 1.21 0 0 0 1.22-1.22 1.22 1.22 0 0 0-1.19-1.21zM189.35 1350.86H186a1.22 1.22 0 0 0-1.23 1.22 1.22 1.22 0 0 0 1.21 1.23h3.4a1.21 1.21 0 0 0 1.22-1.22 1.21 1.21 0 0 0-1.22-1.22zM101.07 1414.58a1.22 1.22 0 0 0 1.22-1.22V1410a1.24 1.24 0 0 0-2.46 0v3.39a1.25 1.25 0 0 0 1.24 1.19zM101.07 1425a1.24 1.24 0 0 0-1.24 1.23v3.39a1.24 1.24 0 0 0 2.46 0v-3.39a1.21 1.21 0 0 0-1.21-1.23zM110.88 1418.56h-3.38a1.23 1.23 0 0 0 0 2.45h3.38a1.23 1.23 0 1 0 0-2.45zM94.62 1418.56h-3.38a1.23 1.23 0 0 0 0 2.45h3.38a1.23 1.23 0 0 0 0-2.45zM91.24 1321.21a1.22 1.22 0 0 0 1.22-1.22v-3.4a1.23 1.23 0 0 0-1.22-1.23 1.23 1.23 0 0 0-1.24 1.21v3.4a1.24 1.24 0 0 0 1.24 1.24zM91.24 1331.63a1.23 1.23 0 0 0-1.24 1.23v3.39a1.22 1.22 0 0 0 1.22 1.22 1.22 1.22 0 0 0 1.22-1.22v-3.39a1.22 1.22 0 0 0-1.21-1.23zM97.68 1327.65h3.39a1.22 1.22 0 0 0 1.22-1.22 1.22 1.22 0 0 0-1.22-1.22h-3.39a1.22 1.22 0 0 0-1.23 1.2 1.23 1.23 0 0 0 1.23 1.23zM84.73 1325.2h-3.39a1.22 1.22 0 0 0-1.22 1.22 1.21 1.21 0 0 0 1.21 1.23h3.4a1.24 1.24 0 0 0 1.24-1.23 1.22 1.22 0 0 0-1.22-1.22z" fill="#fdc62d"/><path d="M165.48 1346.39a6.55 6.55 0 1 0-9.48 9l.1.1a21.83 21.83 0 0 1 6.43 15.46v.15a15.08 15.08 0 0 1-8.24 13.42l-2.95 1.55a.58.58 0 0 1-.76-.29.55.55 0 0 1 0-.5l1.73-2.81a12.86 12.86 0 0 0 1.85-6.7v-1.93a13.09 13.09 0 0 0-12.69-13.16 12.94 12.94 0 0 0-13.17 12.68v2.35a13.12 13.12 0 0 0 1.86 6.69l1.73 2.82a.55.55 0 0 1-.16.77.57.57 0 0 1-.58 0l-3-1.55a15 15 0 0 1-8.31-13.36v-.08a21.79 21.79 0 0 1 6.43-15.46 6.36 6.36 0 0 0 1.91-4.64 6.54 6.54 0 0 0-11.26-4.45 35 35 0 0 0-.34 49l.13.14c.45.42.89.79 1.35 1.15a41.54 41.54 0 0 0 6 3.88 3 3 0 0 1 1.54 2.59V1443a1.22 1.22 0 0 0 1.21 1.23h28.8a1.22 1.22 0 0 0 1.22-1.22v-40.15a2.64 2.64 0 0 1 1.39-2.35 44 44 0 0 0 6.63-4.42l.67-.57c.35-.33.71-.67 1-1a35 35 0 0 0-1.13-48.16zm-34.75 29.73v-2.48a10.48 10.48 0 0 1 10.51-10.45h.21a10.61 10.61 0 0 1 10.2 10.68v1.89a10.45 10.45 0 0 1-9.8 10.43h-1.32a10.14 10.14 0 0 1-9.8-10.09zm29.58 20.37c-1.15.76-2.28 1.44-3.45 2.07l-.16.08a4.3 4.3 0 0 0-2.27 3.74v39.39h-26.28v-39.37a3.72 3.72 0 0 0-2.15-3.4l-.33-.17a26.8 26.8 0 0 1-7-4.9 33 33 0 0 1-9.39-22.88 32.5 32.5 0 0 1 9.45-22.94 4.15 4.15 0 0 1 5.81-.18 4.12 4.12 0 0 1 .06 5.85 24.32 24.32 0 0 0-7.22 17.33v.2a17.66 17.66 0 0 0 17.69 17.41h5.47a10.29 10.29 0 0 0 1.36 0h5.46a17.69 17.69 0 0 0 17.64-17.43v-.17a24.3 24.3 0 0 0-7.14-17.28 4.13 4.13 0 0 1 0-5.84 4 4 0 0 1 2.78-1.1 4.37 4.37 0 0 1 3.09 1.28 32.62 32.62 0 0 1 3.85 41.23 27.47 27.47 0 0 1-7.29 7.09z" fill="#fff"/><path d="M189.62 910.65a8.17 8.17 0 0 1-8.14-8.07v-1.76a8.15 8.15 0 0 1 16.29 0v1.76a8.17 8.17 0 0 1-8.15 8.07zm-9 82.71v-47.3l1.13.09h15.72l1.12-.09v47.3h-7.93v-33.74a1 1 0 0 0-1-1 1 1 0 0 0-1 1v33.77zm-24.74-55v9.09a1.55 1.55 0 0 0 1.52 1.55 1.61 1.61 0 0 0 .72-.16l16.69-7.73a1.08 1.08 0 0 0 .5-.51l3.25-8.89v63.49h22.13v-41.75l.84-.15a9.44 9.44 0 0 0 7.52-9.28v-23.91a9.45 9.45 0 0 0-9.46-9.46h-3.37l1.4-1.72a10.24 10.24 0 0 0 2.24-6.35v-1.76a10.24 10.24 0 0 0-10.25-10.25h-1a10.45 10.45 0 0 0-9.27 10.5v1.36a10.26 10.26 0 0 0 2.3 6.43l1.38 1.72h-5a9.48 9.48 0 0 0-9.27 7.49l-3 14-8.75 4.36a2.12 2.12 0 0 0-1.11 1.89zm1.78.12l9.54-4.64a1.1 1.1 0 0 0 .57-.74l3.09-14.53a7.4 7.4 0 0 1 7.21-5.83h21.54a7.39 7.39 0 0 1 7.42 7.36v24a7.36 7.36 0 0 1-4.87 6.92l-1.41.5v-26.68a1 1 0 0 0-1-1 1 1 0 0 0-1 1v19.32h-18v-19.3a1 1 0 0 0-2.08 0v1.93l-4.95 12.54-15.94 7.31zM187.1 1174.61l-6.78-6.55-31.94-30.81a1.44 1.44 0 0 0-2 2.06l31.93 30.8 6.79 6.56a6.05 6.05 0 0 1 1.95 4.39 6.19 6.19 0 0 1-10.56 4.64l-2.89-2.71-4.64-4.45a1.44 1.44 0 0 0-2 2.09l4.64 4.42a6.35 6.35 0 0 1 2 4.5 6 6 0 0 1-1.54 4.52 6.49 6.49 0 0 1-9 0l-6.29-6a1.44 1.44 0 0 0-2.16 1.9l.18.17 4 3.77a6.26 6.26 0 1 1-8.61 9.08l-2.14-2-4.14-3.99a1.44 1.44 0 0 0-2 2.09l4.17 4a6.25 6.25 0 0 1-8.64 9l-14.27-13.57-22.72-22.48-12.68-12.21a8.55 8.55 0 0 1-.3-12.06l29.6-31.19 3.68 1.11h.4a1.53 1.53 0 0 0 1.37-1 1.42 1.42 0 0 0-1-1.77l-2.4-.71a8.36 8.36 0 0 0-6.75-13.29 8.27 8.27 0 0 0-6.08 2.59l-33.4 35.16a8.37 8.37 0 0 0 9.3 13.49 11.43 11.43 0 0 0 3.42 9.85l12.65 12.16 22.75 22.42 14.3 13.59.17.17a9.12 9.12 0 0 0 15.15-7.56 9.14 9.14 0 0 0 12.81-8.28v-.71a9 9 0 0 0 13.07-8.44v-.17a9.09 9.09 0 0 0 13.41-8 9.07 9.07 0 0 0-2.84-6.62zM79 1153.91a5.51 5.51 0 0 1-5.52-5.36 5.72 5.72 0 0 1 1.55-3.94l33.31-35a5.47 5.47 0 0 1 7.93 7.53L83 1152.2a5.5 5.5 0 0 1-4 1.71z" fill="#5d7992"/><path d="M199 1140.19l-33.66-33.66a8.29 8.29 0 0 0-14.12 5.85 8.12 8.12 0 0 0 .86 3.68l-24 3.88a8.37 8.37 0 0 0-6.62 5.86l-8.13 27.91A8.31 8.31 0 0 0 119 1164a8.61 8.61 0 0 0 2.25.32 8.5 8.5 0 0 0 4-1 8.18 8.18 0 0 0 4-4.9l6.19-20.55 16.8-2.75a1.38 1.38 0 0 0 1.17-1.55 1.43 1.43 0 0 0-1.63-1.17l-17.78 2.84a1.45 1.45 0 0 0-1.15 1l-6.44 21.39a5.4 5.4 0 0 1-9.93 1.09 5.52 5.52 0 0 1-.46-4.12l8.19-27.94a5.43 5.43 0 0 1 4.33-3.82l25.54-4.15L185 1149.6a8.35 8.35 0 0 1 2.52 5.88 8.46 8.46 0 0 1-2.46 5.93l-3.47 3.76a1.43 1.43 0 0 0 .24 2 1.45 1.45 0 0 0 1.86-.07l3.46-3.75a11.12 11.12 0 0 0 3.28-7.93 14.57 14.57 0 0 0-.14-1.73 8 8 0 0 0 3 .54 8.25 8.25 0 0 0 5.83-14.09zm-2 9.67a5.39 5.39 0 0 1-7.63 0l-33.65-33.65a5.41 5.41 0 0 1 7.61-7.68l33.67 33.68a5.41 5.41 0 0 1 0 7.65zM129.89 1212.21l-3.48 3.48a5.85 5.85 0 0 1-8.27-8.27l3.22-3.22a1.44 1.44 0 0 0-1.84-2.21 1.07 1.07 0 0 0-.18.19l-3.22 3.21a5.84 5.84 0 0 1-8.26 0 5.84 5.84 0 0 1 0-8.26l3.09-3.09a1.44 1.44 0 0 0-1.84-2.21l-.18.18-3.17 3.1a5.85 5.85 0 0 1-8.27 0 5.85 5.85 0 0 1 0-8.27l3.09-3.1a1.44 1.44 0 1 0-1.85-2.2l-.18.18-3.09 3.09a5.84 5.84 0 0 1-8.26 0 5.84 5.84 0 0 1 0-8.26l3-3a1.42 1.42 0 0 0 0-2 1.41 1.41 0 0 0-2 0l-3 3a8.72 8.72 0 0 0 6.13 14.88 8.89 8.89 0 0 0 1.92-.21 8.26 8.26 0 0 0-.17 1.78 8.66 8.66 0 0 0 8.62 8.69h.06a8.14 8.14 0 0 0 1.78-.17 8.14 8.14 0 0 0-.17 1.78 8.66 8.66 0 0 0 8.63 8.69 9.67 9.67 0 0 0 1.78-.17 8.69 8.69 0 0 0 6.74 10.29 8.7 8.7 0 0 0 8-2.36l3.48-3.48a1.44 1.44 0 0 0-2-2z" fill="#5d7992"/><text transform="translate(299.34 95.28)" style="isolation:isolate" font-size="28.567" fill="#fff" font-family="UniversCom-57Condensed,Univers Com">Angebotssichtung</text><text transform="translate(299.34 507.21)" style="isolation:isolate" font-size="28.567" fill="#fff" font-family="UniversCom-57Condensed,Univers Com">Kurzaufgabe</text><g style="isolation:isolate" font-size="28.567" fill="#fff" font-family="UniversCom-57Condensed,Univers Com"><text transform="translate(299.34 919.13)" style="isolation:isolate">Hospita</text><text transform="translate(386.6 919.13)" style="isolation:isolate">t</text><text transform="translate(394.56 919.13)" style="isolation:isolate">ion</text></g></svg>