<svg xmlns="http://www.w3.org/2000/svg" xmlns:xlink="http://www.w3.org/1999/xlink" viewBox="0 0 893.94 893.94"><defs><clipPath id="a" transform="translate(54.1 16.99)"><rect x="-1" y="0.89" width="595.28" height="841.89" style="fill:none"/></clipPath></defs><title>Eltern_Auszeichnung</title><path d="M397.58,122.15c3.11-7.35,11.06-13.4,22.57-13.4,10.68,0,16.55,8.65,16.55,20.22v37.49c0,4.49,1.07,7.46,6,9a.93.93,0,0,1-.27,1.84H414.51c-1.13,0-1.22-1.47-.17-1.84,5.42-1.9,7.21-4.34,7.21-9V127.9c0-6-6.9-9.09-12.11-9.09-5.64,0-10.92,3.7-10.92,8.58v39.07c0,4.91,2,7.5,6.94,9a.94.94,0,0,1-.28,1.85h-28a.94.94,0,0,1-.21-1.85c4.53-1.49,6.5-3.68,6.5-9V128c0-2.17.08-5.24-5.49-6-1.38-.19-1.51-1.68,0-1.87,10.24-1.35,13.45-5.2,17.19-8.45.92-.8,2.4-.73,2.4.47Z" transform="translate(54.1 16.99)" style="fill:#ab2159"/><path d="M364.64,109.1c2.84-3.63,6-5.8,11.74-5.8,4.91,0,7.54,1.94,7.8,4.28.43,4-3.49,5.83-9.55,6.59-8.69,1.09-15.1,4.41-15.1,14.55v37.74c0,4.91,2,7.5,6.93,9a.94.94,0,0,1-.27,1.85H338.1a.94.94,0,0,1-.21-1.85c4.53-1.49,6.5-3.68,6.5-9V128c0-2.45-.23-4.87-6.05-6-1.36-.27-1.5-1.66,0-1.87,9.59-1.35,13.79-5.36,17.36-8.48.91-.8,2.24-.7,2.24.5v10.16a38.87,38.87,0,0,1,6.7-13.24" transform="translate(54.1 16.99)" style="fill:#ab2159"/><path d="M265.77,99c0-1.09-1.48-1.3-2.26-.41-7.56,8.64-10.68,11.4-20.86,15.3-1.1.42-.85,1.9.54,1.9h7.43v51.42c0,8.71,7,11.72,12.19,11.72,5.42,0,9.8-2.9,11.59-4.11A35.47,35.47,0,0,0,281,169c.79-.94,0-1.89-1.1-1.29a12.48,12.48,0,0,1-6.37,2c-5.49,0-7.76-4.85-7.76-8.39V115.83h13.69c1.36,0,2.17-.5,2.17-1.23v-3c0-.79-.81-1.22-2.17-1.22H265.77Z" transform="translate(54.1 16.99)" style="fill:#ab2159"/><path d="M234.2,165.83c0,4.91,1.78,8.59,7,9.68,1.27.26,1.25,1.81-.26,1.81H212.52c-1.48,0-1.7-1.54-.2-1.85,4.39-1,6.81-4.56,6.81-9.87V116.88c0-2.57-.93-5.82-6.25-6.22-1.3-.09-1.49-1.56,0-1.85,10.16-1.94,14.6-6.68,18.46-10.27,1.13-1.06,2.85-.59,2.85.61v66.68Z" transform="translate(54.1 16.99)" style="fill:#ab2159"/><path d="M147.75,98.13a.58.58,0,1,0-.14,1.15c6.28,1.54,7.15,5.27,7.15,8v59.14c0,5.9-2.6,8-7.67,9.58a.65.65,0,0,0,0,1.28h53c2.8,0,3.3-1.09,3.8-3.51l4.5-22.2a.9.9,0,0,0-1.76-.38c-5.63,15.56-20.7,21.49-36.12,22a.46.46,0,0,1-.52-.52v-35c0-.46.2-.48.52-.47,8.48.23,16.42,3.51,19.77,12.79a1,1,0,0,0,2-.45V120.49a.83.83,0,0,0-1.63-.19c-2.15,9.29-11.24,13.42-20.16,14.09-.41,0-.51-.11-.51-.49V102.26c0-.39.2-.53.52-.51,11.42.35,27.71,2.77,34,17.06.44,1,2.23.72,2-.55l-3.28-18.14c-.26-1.52-1.16-2-2.61-2Z" transform="translate(54.1 16.99)" style="fill:#ab2159"/><g style="clip-path:url(#a)"><path d="M309.6,110.34c-15.72,0-28.78,15-28.78,32.39s10.76,35.5,26.7,35.5c17.92,0,26.14-17.22,27.37-19.44.56-1-.29-1.53-1.07-.74-1.36,1.37-7.55,8-15.58,8-12.17,0-19.18-7.85-22.36-20.43l33.35-1.81c2.47-.14,5.74-1,5.67-4.33-.17-8.07-3.12-29.15-25.3-29.15m-14.14,32.49s17.81-.62,25-8.81c4.71-5.39,1.44-13.16-1.25-16.34-2.32-2.73-8.18-5.92-13.58-2-8.81,6.39-11.54,18.94-10.13,27.15" transform="translate(54.1 16.99)" style="fill:#ab2159;fill-rule:evenodd"/><path d="M580.27,829.5h-568V15.28h568ZM649.83,15.28V1.11H594.44V-17H580.27V1.11h-568V-17H-1.93V1.11H-44.1V15.28H-1.93V829.5H-54.1v14.17H-1.93v33.27H12.24V843.67h568v33.27h14.17V843.67H839.83V829.5H594.44V15.28Z" transform="translate(54.1 16.99)" style="fill:#ab2159"/></g><path d="M257.71,215.05H263v-.59h-4.4l4.25-6.27v-.34h-4.65v.57H262l-4.26,6.27Zm7.08-4.05c.15-1.73,1.25-2.76,2.48-2.76s2.11.91,2.11,2.76Zm-.67.46c0,2.36,1.48,3.77,3.33,3.77a4,4,0,0,0,2.26-.71l-.27-.51a3.18,3.18,0,0,1-1.93.65c-1.62,0-2.69-1.31-2.72-3.12H270a2.46,2.46,0,0,0,0-.54c0-2.12-1.05-3.33-2.76-3.33s-3.13,1.44-3.13,3.79Zm7.81,3.59h.66v-7.2h-.66Zm.35-8.94a.6.6,0,1,0-.6-.59.58.58,0,0,0,.6.59Zm5.73,9.12a3.45,3.45,0,0,0,2.29-.95l-.34-.46a2.91,2.91,0,0,1-1.92.82c-1.58,0-2.61-1.29-2.61-3.18s1.14-3.21,2.61-3.21a2.46,2.46,0,0,1,1.71.77l.39-.47a3,3,0,0,0-2.12-.88c-1.75,0-3.28,1.38-3.28,3.79s1.41,3.77,3.27,3.77Zm4-.18h.66v-5.43c.89-.9,1.5-1.35,2.36-1.35,1.17,0,1.65.72,1.65,2.25v4.53h.65v-4.62c0-1.86-.68-2.76-2.17-2.76a3.53,3.53,0,0,0-2.49,1.3v-4.71H282Zm7.89,0h.66v-5.43c.89-.9,1.5-1.35,2.36-1.35,1.17,0,1.65.72,1.65,2.25v4.53h.66v-4.62c0-1.86-.69-2.76-2.18-2.76a3.48,3.48,0,0,0-2.47,1.29h-.05l-.06-1.11h-.57Zm8-4.05c.15-1.73,1.24-2.76,2.47-2.76s2.11.91,2.11,2.76Zm-.68.46c0,2.36,1.49,3.77,3.33,3.77a4,4,0,0,0,2.26-.71l-.27-.51a3.16,3.16,0,0,1-1.93.65c-1.62,0-2.68-1.31-2.71-3.12h5.17a2.46,2.46,0,0,0,0-.54c0-2.12-1-3.33-2.75-3.33s-3.14,1.44-3.14,3.79Zm9.78,3.77a4,4,0,0,0,1.17-.27l-.18-.54a2.43,2.43,0,0,1-.9.22c-1,0-1.22-.61-1.22-1.53v-4.69H308v-.57h-2.09v-2.09h-.57l-.09,2.09-1.14.06v.51h1.13v4.63c0,1.29.4,2.18,1.8,2.18Zm7.23,0a4.33,4.33,0,0,0,2.55-1.11h0l.06.93h.57v-4.61c0-1.54-.58-2.77-2.28-2.77a4.84,4.84,0,0,0-2.68.93l.3.49a4,4,0,0,1,2.29-.84c1.43,0,1.73,1.19,1.71,2.28-3.21.36-4.65,1.13-4.65,2.73a1.89,1.89,0,0,0,2.09,2Zm.12-.57a1.36,1.36,0,0,1-1.53-1.44c0-1.14,1-1.83,4-2.18v2.45a3.83,3.83,0,0,1-2.44,1.17Zm7.71.57a3.21,3.21,0,0,0,2.44-1.38h0l.08,1.2h.55v-7.2h-.66v5.31c-.84,1-1.47,1.47-2.32,1.47-1.16,0-1.64-.72-1.64-2.25v-4.53h-.66v4.62c0,1.86.69,2.76,2.18,2.76Z" transform="translate(54.1 16.99)" style="fill:#1d1d1b"/><path d="M329.73,215.23a2.15,2.15,0,0,0,2.43-2c0-1.41-1.23-1.78-2.36-2.2-.85-.32-1.69-.63-1.69-1.46,0-.66.49-1.3,1.62-1.3a2.74,2.74,0,0,1,1.72.64l.36-.46a3.3,3.3,0,0,0-2.05-.75c-1.5,0-2.33.87-2.33,1.92,0,1.23,1.2,1.66,2.3,2,.82.3,1.75.69,1.75,1.59s-.58,1.43-1.71,1.43a3.33,3.33,0,0,1-2.29-.92l-.39.5a4.15,4.15,0,0,0,2.64,1Z" transform="translate(54.1 16.99)" style="fill:#1d1d1b"/><path d="M254.28,555h.66V548.9c0-1-.06-1.86-.09-2.8h.06l1.11,2,4.17,7h.72v-9.89h-.66v6.06c0,1,.06,1.92.09,2.88h-.06l-1.11-2-4.17-7h-.72V555Zm12.09.18c1.74,0,3.24-1.38,3.24-3.77s-1.5-3.79-3.24-3.79-3.23,1.38-3.23,3.79,1.5,3.77,3.23,3.77Zm0-.59c-1.46,0-2.54-1.29-2.54-3.18s1.08-3.21,2.54-3.21,2.55,1.31,2.55,3.21-1.1,3.18-2.55,3.18Z" transform="translate(54.1 16.99)" style="fill:#1d1d1b"/><path d="M273.55,555.22a4,4,0,0,0,1.17-.27l-.18-.54a2.38,2.38,0,0,1-.9.22c-1,0-1.21-.61-1.21-1.53v-4.69h2.08v-.57h-2.08v-2.09h-.57l-.09,2.09-1.14.06v.51h1.12V553c0,1.29.41,2.18,1.8,2.18Zm2.63-4.23c.15-1.73,1.24-2.76,2.47-2.76s2.12.91,2.12,2.76Zm-.68.46c0,2.36,1.49,3.77,3.33,3.77a4,4,0,0,0,2.27-.71l-.27-.51a3.21,3.21,0,0,1-1.94.65c-1.62,0-2.68-1.31-2.71-3.12h5.17a2,2,0,0,0,0-.54c0-2.12-1-3.33-2.76-3.33s-3.14,1.44-3.14,3.79Z" transform="translate(54.1 16.99)" style="fill:#1d1d1b"/><path d="M283.62,549.49a.69.69,0,0,0,0-1.37.69.69,0,0,0,0,1.37Zm0,5.73a.69.69,0,0,0,0-1.37.69.69,0,0,0,0,1.37Zm7.75,0a2.15,2.15,0,0,0,2.43-2c0-1.41-1.23-1.78-2.35-2.2-.86-.32-1.7-.63-1.7-1.46,0-.66.5-1.3,1.62-1.3a2.77,2.77,0,0,1,1.73.64l.36-.46a3.32,3.32,0,0,0-2.06-.75c-1.5,0-2.32.87-2.32,1.92,0,1.23,1.2,1.66,2.29,2,.83.3,1.76.69,1.76,1.59s-.59,1.43-1.71,1.43a3.36,3.36,0,0,1-2.3-.92l-.39.5a4.19,4.19,0,0,0,2.64,1Zm4.41-4.23c.15-1.73,1.25-2.76,2.48-2.76s2.11.91,2.11,2.76Zm-.67.46c0,2.36,1.48,3.77,3.33,3.77a4,4,0,0,0,2.26-.71l-.27-.51a3.18,3.18,0,0,1-1.93.65c-1.62,0-2.69-1.31-2.72-3.12H301a2.46,2.46,0,0,0,0-.54c0-2.12-1.05-3.33-2.76-3.33s-3.13,1.44-3.13,3.79ZM303,555h.66v-5.43c.89-.9,1.5-1.35,2.36-1.35,1.17,0,1.65.72,1.65,2.25V555h.66v-4.62c0-1.86-.69-2.76-2.18-2.76a3.53,3.53,0,0,0-2.49,1.3v-4.71H303Zm7.92,0h.66v-4.91c.56-1.35,1.32-1.84,2-1.84a1.58,1.58,0,0,1,.66.12l.15-.6a1.48,1.48,0,0,0-.72-.15,2.47,2.47,0,0,0-2,1.51h-.05l-.06-1.33h-.57ZM321,558.5c2.07,0,3.41-1.18,3.41-2.43s-.75-1.65-2.37-1.65h-1.55c-1.08,0-1.38-.42-1.38-.94a1.3,1.3,0,0,1,.59-1,2.52,2.52,0,0,0,2.91-4.05h1.68v-.55h-2.45a2.52,2.52,0,0,0-.94-.18,2.48,2.48,0,0,0-2.54,2.53,2.69,2.69,0,0,0,.9,2v.06a1.72,1.72,0,0,0-.78,1.32,1.29,1.29,0,0,0,.63,1.16v.06a2.26,2.26,0,0,0-1.06,1.74c0,1.21,1.14,2,3,2Zm-.1-6.28a1.92,1.92,0,0,1-1.88-2,1.87,1.87,0,1,1,3.74,0,1.91,1.91,0,0,1-1.86,2Zm.18,5.74c-1.53,0-2.4-.61-2.4-1.51a1.88,1.88,0,0,1,.94-1.52,4.5,4.5,0,0,0,.9.12h1.55c1.08,0,1.66.3,1.66,1.1s-1,1.81-2.65,1.81Zm6.94-2.74a3.25,3.25,0,0,0,2.45-1.38h0l.07,1.2h.56v-7.2h-.66v5.31c-.84,1-1.47,1.47-2.33,1.47-1.15,0-1.63-.72-1.63-2.25v-4.53h-.66v4.62c0,1.86.69,2.76,2.17,2.76Zm7.83,0A4,4,0,0,0,337,555l-.18-.54a2.38,2.38,0,0,1-.9.22c-1,0-1.21-.61-1.21-1.53v-4.69h2.08v-.57h-2.08v-2.09h-.57l-.09,2.09-1.14.06v.51H334V553c0,1.29.41,2.18,1.8,2.18Z" transform="translate(54.1 16.99)" style="fill:#1d1d1b"/><path d="M212.16,701.83c-2,0-3.35-1.82-3.35-4.58s1.34-4.45,3.35-4.45,3.34,1.72,3.34,4.45-1.33,4.58-3.34,4.58Zm2.89,2.74a4.38,4.38,0,0,0,1.22-.18l-.15-.58a4.15,4.15,0,0,1-1,.12,2.6,2.6,0,0,1-2.56-1.53c2.17-.21,3.69-2.18,3.69-5.15s-1.7-5.08-4.08-5.08-4.07,2-4.07,5.08,1.52,4.94,3.69,5.15a3.35,3.35,0,0,0,3.27,2.17Zm5.45-2.16a3.18,3.18,0,0,0,2.44-1.38h0l.08,1.2h.55V695h-.66v5.31c-.84,1-1.47,1.47-2.32,1.47-1.16,0-1.64-.72-1.64-2.25V695h-.66v4.62c0,1.86.69,2.76,2.18,2.76Zm5.94-4.23c.15-1.72,1.24-2.76,2.47-2.76s2.12.92,2.12,2.76Zm-.68.47c0,2.35,1.49,3.76,3.33,3.76a4.07,4.07,0,0,0,2.27-.7l-.27-.51a3.2,3.2,0,0,1-1.94.64c-1.62,0-2.68-1.3-2.71-3.12h5.17a2,2,0,0,0,0-.54c0-2.11-1-3.33-2.76-3.33s-3.14,1.44-3.14,3.8Zm8.73,3.76a1.52,1.52,0,0,0,.48-.07l-.12-.54a1.16,1.16,0,0,1-.27,0c-.18,0-.31-.15-.31-.47v-9.91h-.66v9.82c0,.78.3,1.14.88,1.14Zm3.56,0a1.57,1.57,0,0,0,.48-.07l-.12-.54a1.16,1.16,0,0,1-.27,0c-.18,0-.32-.15-.32-.47v-9.91h-.66v9.82c0,.78.3,1.14.89,1.14Zm2.74-4.23c.15-1.72,1.25-2.76,2.48-2.76s2.11.92,2.11,2.76Zm-.67.47c0,2.35,1.48,3.76,3.33,3.76a4,4,0,0,0,2.26-.7l-.27-.51a3.17,3.17,0,0,1-1.93.64c-1.62,0-2.69-1.3-2.72-3.12H246a2.46,2.46,0,0,0,0-.54c0-2.11-1-3.33-2.76-3.33s-3.13,1.44-3.13,3.8Zm8.11-2a.68.68,0,0,0,0-1.36.68.68,0,0,0,0,1.36Zm0,5.73a.68.68,0,0,0,0-1.36.68.68,0,0,0,0,1.36Zm8.22-.18h.69V693h3.15v-.6h-7v.6h3.15Zm5.73,0h5.56v-.6h-4.87v-4.35h4v-.6h-4V693h4.72v-.6h-5.41v9.88Zm8.41-5.11v-4.19h2c1.74,0,2.71.54,2.71,2s-1,2.16-2.71,2.16Zm4.79,5.11h.79l-2.73-4.59A2.57,2.57,0,0,0,276,695c0-1.89-1.28-2.61-3.24-2.61H269.9v9.88h.69v-4.54h2.1l2.69,4.54Zm3.37-5.11v-4.19h2c1.74,0,2.71.54,2.71,2s-1,2.16-2.71,2.16Zm4.79,5.11h.79l-2.73-4.59a2.57,2.57,0,0,0,2.54-2.68c0-1.89-1.28-2.61-3.24-2.61h-2.84v9.88h.69v-4.54h2.1l2.69,4.54Zm6.12.18c2.38,0,4.08-2,4.08-5.16s-1.7-5.08-4.08-5.08-4.07,2-4.07,5.08,1.7,5.16,4.07,5.16Zm0-.63c-2,0-3.35-1.78-3.35-4.53s1.34-4.45,3.35-4.45,3.34,1.72,3.34,4.45-1.33,4.53-3.34,4.53Zm7-4.66v-4.19h2c1.74,0,2.71.54,2.71,2s-1,2.16-2.71,2.16Zm4.79,5.11h.79l-2.73-4.59a2.57,2.57,0,0,0,2.54-2.68c0-1.89-1.28-2.61-3.24-2.61H296v9.88h.69v-4.54h2.1l2.69,4.54Zm2.68,0h.69v-9.88h-.69Z" transform="translate(54.1 16.99)" style="fill:#1d1d1b"/><path d="M309.89,702.23h.69V693h3.15v-.6h-7v.6h3.15Zm7.1,0h.69v-4l3-5.88h-.71l-1.5,3.09c-.31.72-.69,1.41-1.08,2.14h-.06c-.37-.73-.69-1.42-1-2.14l-1.5-3.09H314l3,5.88v4Z" transform="translate(54.1 16.99)" style="fill:#1d1d1b"/><path d="M325.07,702.23h5.57v-.6h-4.88v-4.35h4v-.6h-4V693h4.73v-.6h-5.42v9.88Zm7.68,0h.65v-6.49c0-.81-.06-1.85-.09-2.67h.06l.78,2.2,2.14,5.88h.6l2.13-5.88.77-2.2h.06c-.05.82-.09,1.86-.09,2.67v6.49h.67v-9.88h-1l-2.05,5.8c-.26.72-.5,1.46-.75,2.19h-.06c-.26-.73-.53-1.47-.78-2.19l-2.07-5.8h-1v9.88Zm10.55,0h2.86c2.24,0,3.68-1,3.68-2.88a2.31,2.31,0,0,0-2.13-2.38v-.06a2.13,2.13,0,0,0,1.53-2.16c0-1.65-1.28-2.4-3.27-2.4H343.3v9.88Zm.69-5.53v-3.78h1.78c1.82,0,2.78.51,2.78,1.9,0,1.16-.83,1.88-2.85,1.88Zm0,5v-4.39h2c2,0,3.18.67,3.18,2.1s-1.21,2.29-3.18,2.29Zm8.62-4.54v-4.19h2c1.74,0,2.71.54,2.71,2s-1,2.16-2.71,2.16Zm4.79,5.11h.79l-2.73-4.59A2.57,2.57,0,0,0,358,695c0-1.89-1.28-2.61-3.24-2.61h-2.84v9.88h.69v-4.54h2.1l2.69,4.54Zm1.3,0h.69l1.17-3.39h3.92l1.15,3.39h.72l-3.48-9.88h-.69Zm2.06-4,.64-1.85c.41-1.17.75-2.2,1.1-3.42h.06c.34,1.22.69,2.25,1.09,3.42l.63,1.85Zm10.63,4.15a3.7,3.7,0,0,0,2.94-1.41l-.4-.43a3.23,3.23,0,0,1-2.51,1.21c-2.13,0-3.45-1.77-3.45-4.51s1.34-4.47,3.51-4.47a2.8,2.8,0,0,1,2.16,1l.41-.47a3.43,3.43,0,0,0-2.58-1.18c-2.51,0-4.22,2-4.22,5.1s1.7,5.14,4.14,5.14Z" transform="translate(54.1 16.99)" style="fill:#1d1d1b"/><polygon points="430.55 719.23 436.12 719.23 436.12 718.63 431.24 718.63 431.24 714.28 435.2 714.28 435.2 713.68 431.24 713.68 431.24 709.94 435.97 709.94 435.97 709.34 430.55 709.34 430.55 719.23 430.55 719.23" style="fill:#1d1d1b"/><path d="M160.14,725.23h.69v-9.89h-.69Zm3.52,0h.66V719.8a3.22,3.22,0,0,1,2.16-1.35c1.11,0,1.62.72,1.62,2.25v4.53h.66V719.8a3.16,3.16,0,0,1,2.16-1.35c1.1,0,1.61.72,1.61,2.25v4.53h.67v-4.62c0-1.86-.72-2.76-2.16-2.76a3.58,3.58,0,0,0-2.44,1.47,1.87,1.87,0,0,0-2-1.47,3.27,3.27,0,0,0-2.26,1.29h-.05l-.06-1.11h-.57v7.2Zm17.39,0h.69v-9.29h3.15v-.6h-7v.6h3.15Z" transform="translate(54.1 16.99)" style="fill:#1d1d1b"/><path d="M185.88,721.18c.15-1.73,1.24-2.76,2.47-2.76s2.12.91,2.12,2.76Zm-.68.46c0,2.36,1.49,3.77,3.33,3.77a4,4,0,0,0,2.27-.71l-.27-.51a3.21,3.21,0,0,1-1.94.65c-1.62,0-2.68-1.31-2.71-3.12h5.17a2,2,0,0,0,0-.54c0-2.12-1-3.33-2.76-3.33s-3.14,1.44-3.14,3.79Zm9.59,3.77a2.15,2.15,0,0,0,2.43-2c0-1.41-1.23-1.78-2.36-2.2-.85-.32-1.69-.63-1.69-1.46,0-.66.49-1.3,1.62-1.3a2.74,2.74,0,0,1,1.72.64l.36-.46a3.3,3.3,0,0,0-2.05-.75c-1.5,0-2.33.87-2.33,1.92,0,1.23,1.2,1.66,2.3,2.05.82.3,1.75.69,1.75,1.59s-.58,1.43-1.71,1.43a3.33,3.33,0,0,1-2.29-.92l-.39.5a4.15,4.15,0,0,0,2.64,1Z" transform="translate(54.1 16.99)" style="fill:#1d1d1b"/><path d="M200.79,725.41a4,4,0,0,0,1.17-.27l-.18-.54a2.43,2.43,0,0,1-.9.22c-1,0-1.22-.61-1.22-1.53V718.6h2.09V718h-2.09v-2.09h-.57L199,718l-1.14.06v.51H199v4.63c0,1.29.4,2.18,1.8,2.18Zm3.28-5.73a.69.69,0,0,0,0-1.37.69.69,0,0,0,0,1.37Zm0,5.73a.69.69,0,0,0,0-1.37.69.69,0,0,0,0,1.37Z" transform="translate(54.1 16.99)" style="fill:#1d1d1b"/><path d="M210,725.23h5v-.59h-2.09v-9h-.54a5.51,5.51,0,0,1-1.84.6v.45h1.71v7.95H210v.59Zm10.57,0h.65v-9.59h-.6L216.13,722v.39h6.48v-.57h-5.67l2.82-4c.27-.43.54-.79.78-1.2h.06c0,.44-.06,1.22-.06,1.65v7Zm3.8,0h5v-.59h-2.09v-9h-.54a5.51,5.51,0,0,1-1.84.6v.45h1.71v7.95h-2.25v.59Zm13.66.18c1.71,0,3.34-.89,3.34-4v-6.09h-.64v6c0,2.62-1.28,3.42-2.7,3.42s-2.62-.8-2.62-3.42v-6h-.69v6.09c0,3.09,1.62,4,3.31,4Zm6.15-.18h.66V719.8c.88-.9,1.5-1.35,2.35-1.35,1.17,0,1.65.72,1.65,2.25v4.53h.66v-4.62c0-1.86-.69-2.76-2.17-2.76a3.52,3.52,0,0,0-2.48,1.29h0l-.06-1.11h-.57Zm9.94.18a4,4,0,0,0,1.17-.27l-.18-.54a2.38,2.38,0,0,1-.9.22c-1,0-1.21-.61-1.21-1.53V718.6h2.08V718H253v-2.09h-.57l-.09,2.09-1.14.06v.51h1.12v4.63c0,1.29.41,2.18,1.8,2.18Z" transform="translate(54.1 16.99)" style="fill:#1d1d1b"/><path d="M256.72,721.18c.15-1.73,1.25-2.76,2.48-2.76s2.11.91,2.11,2.76Zm-.67.46c0,2.36,1.48,3.77,3.33,3.77a4,4,0,0,0,2.26-.71l-.27-.51a3.18,3.18,0,0,1-1.93.65c-1.62,0-2.69-1.31-2.72-3.12h5.18a2.46,2.46,0,0,0,0-.54c0-2.12-1.05-3.33-2.76-3.33s-3.13,1.44-3.13,3.79Zm7.84,3.59h.66v-4.91c.56-1.35,1.32-1.84,2-1.84a1.58,1.58,0,0,1,.66.12l.15-.6a1.48,1.48,0,0,0-.72-.15,2.47,2.47,0,0,0-2,1.51h-.05l-.06-1.33h-.57Zm4.76,0h.66V719.8c.88-.9,1.5-1.35,2.35-1.35,1.17,0,1.65.72,1.65,2.25v4.53H274v-4.62c0-1.86-.69-2.76-2.17-2.76a3.52,3.52,0,0,0-2.48,1.29h0l-.06-1.11h-.57Zm8.05-4.05c.15-1.73,1.25-2.76,2.48-2.76s2.11.91,2.11,2.76Zm-.67.46c0,2.36,1.48,3.77,3.33,3.77a4,4,0,0,0,2.26-.71l-.27-.51a3.18,3.18,0,0,1-1.93.65c-1.62,0-2.69-1.31-2.72-3.12h5.18a2.46,2.46,0,0,0,0-.54c0-2.12-1.05-3.33-2.76-3.33s-3.13,1.44-3.13,3.79Zm7.84,3.59h.66V719.8c.89-.9,1.5-1.35,2.36-1.35,1.16,0,1.64.72,1.64,2.25v4.53h.66v-4.62c0-1.86-.68-2.76-2.17-2.76a3.53,3.53,0,0,0-2.49,1.3v-4.71h-.66Zm7.92,0h.66V719.8a3.22,3.22,0,0,1,2.16-1.35c1.11,0,1.62.72,1.62,2.25v4.53h.66V719.8a3.12,3.12,0,0,1,2.16-1.35c1.09,0,1.6.72,1.6,2.25v4.53h.68v-4.62c0-1.86-.72-2.76-2.16-2.76a3.58,3.58,0,0,0-2.45,1.47,1.85,1.85,0,0,0-2-1.47,3.27,3.27,0,0,0-2.26,1.29h-.05l-.06-1.11h-.57v7.2Zm12.26-4.05c.15-1.73,1.24-2.76,2.47-2.76s2.11.91,2.11,2.76Zm-.68.46c0,2.36,1.49,3.77,3.33,3.77a4,4,0,0,0,2.26-.71l-.27-.51a3.18,3.18,0,0,1-1.93.65c-1.62,0-2.68-1.31-2.71-3.12h5.17a2.46,2.46,0,0,0,0-.54c0-2.12-1.05-3.33-2.75-3.33s-3.14,1.44-3.14,3.79Zm7.84,3.59h.66V719.8c.89-.9,1.5-1.35,2.36-1.35,1.17,0,1.65.72,1.65,2.25v4.53h.66v-4.62c0-1.86-.69-2.76-2.18-2.76a3.48,3.48,0,0,0-2.47,1.29h-.05l-.06-1.11h-.57Zm10.2-3.45h3.3v-.59h-3.3Zm7,3.45h.69l1.17-3.39h3.91l1.16,3.39h.72l-3.48-9.89h-.69Zm2.05-4,.65-1.84c.4-1.17.75-2.21,1.09-3.42h.06c.35,1.21.69,2.25,1.1,3.42l.63,1.84Zm9.17,4.16a3.21,3.21,0,0,0,2.44-1.38h0l.08,1.2h.55V718h-.66v5.31c-.84,1-1.47,1.47-2.32,1.47-1.16,0-1.64-.72-1.64-2.25V718h-.66v4.62c0,1.86.69,2.76,2.18,2.76Zm7.6,0a2.15,2.15,0,0,0,2.43-2c0-1.41-1.23-1.78-2.35-2.2-.86-.32-1.7-.63-1.7-1.46,0-.66.5-1.3,1.62-1.3a2.77,2.77,0,0,1,1.73.64l.36-.46a3.32,3.32,0,0,0-2.06-.75c-1.5,0-2.32.87-2.32,1.92,0,1.23,1.2,1.66,2.29,2.05.83.3,1.76.69,1.76,1.59s-.59,1.43-1.71,1.43a3.36,3.36,0,0,1-2.3-.92l-.39.5a4.19,4.19,0,0,0,2.64,1Z" transform="translate(54.1 16.99)" style="fill:#1d1d1b"/><path d="M353.77,728.69c2.07,0,3.4-1.18,3.4-2.43s-.75-1.65-2.37-1.65h-1.54c-1.08,0-1.38-.42-1.38-.94a1.32,1.32,0,0,1,.58-1,2.52,2.52,0,0,0,3.71-2.23,2.39,2.39,0,0,0-.8-1.82h1.68V718h-2.44a2.63,2.63,0,0,0-.95-.18,2.47,2.47,0,0,0-2.53,2.53,2.69,2.69,0,0,0,.9,2v.06a1.7,1.7,0,0,0-.78,1.32,1.29,1.29,0,0,0,.63,1.16V725a2.28,2.28,0,0,0-1.07,1.74c0,1.21,1.14,2,3,2Zm-.11-6.28a1.91,1.91,0,0,1-1.87-2,1.87,1.87,0,1,1,3.73,0,1.91,1.91,0,0,1-1.86,2Zm.18,5.74c-1.53,0-2.4-.61-2.4-1.51a1.9,1.9,0,0,1,.95-1.52,4.42,4.42,0,0,0,.9.12h1.54c1.08,0,1.67.3,1.67,1.1s-1,1.81-2.66,1.81Zm6.23-2.74a4.33,4.33,0,0,0,2.55-1.11h0l.06.93h.57v-4.61c0-1.54-.58-2.77-2.28-2.77a4.84,4.84,0,0,0-2.68.93l.3.49a4,4,0,0,1,2.29-.84c1.43,0,1.73,1.19,1.71,2.28-3.21.36-4.65,1.13-4.65,2.73a1.89,1.89,0,0,0,2.09,2Zm.12-.57a1.36,1.36,0,0,1-1.53-1.44c0-1.14,1-1.83,4-2.18v2.45a3.83,3.83,0,0,1-2.44,1.17Z" transform="translate(54.1 16.99)" style="fill:#1d1d1b"/><path d="M368.68,725.41c1.7,0,3.18-1.44,3.18-3.89,0-2.23-1-3.67-2.89-3.67a4.16,4.16,0,0,0-2.48,1.12l0-1.41v-3.12h-.66v10.79h.56l.07-.74h0a3.62,3.62,0,0,0,2.16.92Zm0-.59a3.45,3.45,0,0,1-2.13-.93v-4.27a3.78,3.78,0,0,1,2.36-1.19c1.65,0,2.28,1.32,2.28,3.09,0,2-1.05,3.3-2.51,3.3Zm5.42-3.64c.15-1.73,1.24-2.76,2.47-2.76s2.12.91,2.12,2.76Zm-.68.46c0,2.36,1.49,3.77,3.33,3.77a4,4,0,0,0,2.27-.71l-.27-.51a3.21,3.21,0,0,1-1.94.65c-1.62,0-2.68-1.31-2.71-3.12h5.17a2,2,0,0,0,.05-.54c0-2.12-1.05-3.33-2.76-3.33s-3.14,1.44-3.14,3.79Zm10.73,3.59h5v-.59H387v-9h-.54a5.51,5.51,0,0,1-1.84.6v.45h1.71v7.95h-2.25v.59Zm9.51.18c1.83,0,2.86-1.82,2.86-5s-1-4.94-2.86-4.94-2.87,1.76-2.87,4.94,1,5,2.87,5Zm0-.57c-1.32,0-2.19-1.52-2.19-4.44s.87-4.37,2.19-4.37,2.19,1.44,2.19,4.37-.86,4.44-2.19,4.44Zm3.73,2.79h.57l4.57-13h-.57Zm5.83-2.4h5.88v-.6H405.8c-.52,0-1.08,0-1.6.07,2.65-2.82,4.39-4.65,4.39-6.55a2.5,2.5,0,0,0-2.7-2.69,3.63,3.63,0,0,0-2.73,1.41l.44.42a3,3,0,0,1,2.23-1.26,1.94,1.94,0,0,1,2.09,2.13c0,1.67-1.58,3.45-4.73,6.65v.42Zm10.16.18c1.83,0,2.86-1.82,2.86-5s-1-4.94-2.86-4.94-2.87,1.76-2.87,4.94,1,5,2.87,5Zm0-.57c-1.32,0-2.19-1.52-2.19-4.44S412,716,413.35,716s2.19,1.44,2.19,4.37-.86,4.44-2.19,4.44Zm4.86.39h5v-.59h-2.09v-9h-.54a5.51,5.51,0,0,1-1.84.6v.45h1.71v7.95h-2.25v.59Zm8.79.18c1.86,0,3.52-1.41,3.52-5.43,0-2.91-1.21-4.52-3.12-4.52a2.79,2.79,0,0,0-2.62,3c0,1.93,1,3,2.65,3a3.3,3.3,0,0,0,2.49-1.4v-.7a3.16,3.16,0,0,1-2.39,1.54c-1.47,0-2.08-1-2.08-2.41a2.18,2.18,0,0,1,1.93-2.42c1.71,0,2.49,1.61,2.49,4,0,3.61-1.32,4.84-2.85,4.84a2.06,2.06,0,0,1-1.63-.79l-.41.45a2.6,2.6,0,0,0,2,.93Z" transform="translate(54.1 16.99)" style="fill:#1d1d1b"/><path d="M244.38,748.4a3.92,3.92,0,0,0,2.92-1.12v-3.92h-3V744h2.37V747a3.2,3.2,0,0,1-2.22.75c-2.25,0-3.57-1.77-3.57-4.51s1.4-4.47,3.66-4.47a2.92,2.92,0,0,1,2.28,1l.41-.47a3.61,3.61,0,0,0-2.7-1.18c-2.61,0-4.37,2-4.37,5.1s1.7,5.14,4.25,5.14Zm7.45,0a3.22,3.22,0,0,0,2.45-1.38h0l.07,1.2h.56V741h-.66v5.31c-.84,1-1.47,1.47-2.33,1.47-1.15,0-1.63-.72-1.63-2.25V741h-.66v4.62c0,1.86.69,2.76,2.17,2.76Zm-.81-9.15a.54.54,0,0,0,.56-.55.56.56,0,1,0-1.11,0,.54.54,0,0,0,.55.55Zm2.67,0a.53.53,0,0,0,.54-.55.54.54,0,0,0-.54-.56.56.56,0,0,0-.55.56.54.54,0,0,0,.55.55Zm4.89,9.15a1.52,1.52,0,0,0,.48-.07l-.12-.54a1.16,1.16,0,0,1-.27,0c-.18,0-.31-.15-.31-.47v-9.91h-.66v9.82c0,.78.3,1.14.88,1.14Zm4.64,0a4,4,0,0,0,1.17-.27l-.18-.54a2.44,2.44,0,0,1-.9.23c-1,0-1.22-.62-1.22-1.53v-4.7h2.09V741h-2.09v-2.08h-.57l-.09,2.08-1.14.06v.51h1.13v4.64c0,1.29.4,2.17,1.8,2.17Zm2.71-.18h.66V741h-.66Zm.35-8.94a.58.58,0,0,0,.6-.58.6.6,0,1,0-1.2,0,.58.58,0,0,0,.6.58Zm5.44,12.41c2.07,0,3.41-1.19,3.41-2.43s-.75-1.65-2.37-1.65h-1.55c-1.08,0-1.38-.42-1.38-1a1.27,1.27,0,0,1,.59-1,2.54,2.54,0,0,0,1.2.3,2.46,2.46,0,0,0,2.5-2.54,2.4,2.4,0,0,0-.79-1.81H275V741h-2.45a2.52,2.52,0,0,0-.94-.18,2.48,2.48,0,0,0-2.54,2.54,2.69,2.69,0,0,0,.9,2v.06a1.69,1.69,0,0,0-.78,1.32,1.28,1.28,0,0,0,.63,1.15V748a2.26,2.26,0,0,0-1.06,1.74c0,1.22,1.14,2,3,2Zm-.1-6.29a1.91,1.91,0,0,1-1.88-2,1.87,1.87,0,1,1,3.74,0,1.91,1.91,0,0,1-1.86,2Zm.18,5.75c-1.53,0-2.4-.62-2.4-1.52a1.87,1.87,0,0,1,.94-1.51,4.5,4.5,0,0,0,.9.12h1.55c1.08,0,1.66.3,1.66,1.09s-1,1.82-2.65,1.82Zm10.69-2.75c1.7,0,3.18-1.44,3.18-3.88,0-2.24-1-3.68-2.89-3.68A4.12,4.12,0,0,0,280.3,742l0-1.41v-3.12h-.66v10.78h.56l.07-.73h0a3.67,3.67,0,0,0,2.16.91Zm0-.58a3.51,3.51,0,0,1-2.13-.93v-4.28a3.81,3.81,0,0,1,2.36-1.18c1.65,0,2.28,1.32,2.28,3.09,0,2-1.05,3.3-2.51,3.3Zm5.34.4h.66V741h-.66Zm.35-8.94a.58.58,0,0,0,.6-.58.6.6,0,1,0-1.2,0,.58.58,0,0,0,.6.58ZM293,748.4a2.14,2.14,0,0,0,2.42-2c0-1.41-1.22-1.79-2.35-2.21-.85-.31-1.69-.63-1.69-1.45,0-.66.49-1.31,1.62-1.31a2.75,2.75,0,0,1,1.72.65l.36-.47a3.36,3.36,0,0,0-2.05-.75c-1.5,0-2.33.87-2.33,1.92,0,1.23,1.2,1.67,2.3,2.06.82.3,1.75.69,1.75,1.59s-.58,1.42-1.71,1.42a3.32,3.32,0,0,1-2.29-.91l-.39.49a4.15,4.15,0,0,0,2.64,1Zm4.6-5.73a.68.68,0,0,0,0-1.36.68.68,0,0,0,0,1.36Zm0,5.73a.68.68,0,0,0,0-1.36.68.68,0,0,0,0,1.36Zm8.22,0c1.83,0,2.86-1.81,2.86-5s-1-4.93-2.86-4.93-2.86,1.75-2.86,4.93,1,5,2.86,5Zm0-.57c-1.32,0-2.19-1.51-2.19-4.44s.87-4.36,2.19-4.36,2.19,1.44,2.19,4.36-.86,4.44-2.19,4.44Zm6.46.57c1.86,0,3.53-1.41,3.53-5.43,0-2.91-1.22-4.51-3.12-4.51a2.78,2.78,0,0,0-2.63,3c0,1.94,1,3,2.66,3a3.29,3.29,0,0,0,2.49-1.39l0-.71a3.14,3.14,0,0,1-2.38,1.55c-1.47,0-2.09-1-2.09-2.42a2.18,2.18,0,0,1,1.94-2.41c1.71,0,2.49,1.6,2.49,3.94,0,3.62-1.32,4.85-2.85,4.85a2.06,2.06,0,0,1-1.64-.8l-.4.45a2.56,2.56,0,0,0,2,.93Zm4.46,2.22h.57l4.57-13h-.57Zm5.83-2.4h5.88v-.6h-3.27c-.52,0-1.08,0-1.6.08,2.65-2.82,4.39-4.65,4.39-6.56a2.49,2.49,0,0,0-2.7-2.68,3.6,3.6,0,0,0-2.73,1.41l.44.42a3,3,0,0,1,2.23-1.26,1.94,1.94,0,0,1,2.09,2.13c0,1.66-1.58,3.45-4.73,6.64v.42Zm10.16.18c1.83,0,2.86-1.81,2.86-5s-1-4.93-2.86-4.93-2.87,1.75-2.87,4.93,1,5,2.87,5Zm0-.57c-1.32,0-2.19-1.51-2.19-4.44s.87-4.36,2.19-4.36,2.19,1.44,2.19,4.36-.86,4.44-2.19,4.44Zm4.21.39h5.88v-.6h-3.27c-.52,0-1.08,0-1.6.08,2.65-2.82,4.39-4.65,4.39-6.56a2.49,2.49,0,0,0-2.7-2.68,3.6,3.6,0,0,0-2.73,1.41l.44.42a3,3,0,0,1,2.23-1.26,1.94,1.94,0,0,1,2.09,2.13c0,1.66-1.58,3.45-4.73,6.64v.42Z" transform="translate(54.1 16.99)" style="fill:#1d1d1b"/><path d="M347.08,748.4c1.83,0,2.86-1.81,2.86-5s-1-4.93-2.86-4.93-2.87,1.75-2.87,4.93,1,5,2.87,5Zm0-.57c-1.32,0-2.19-1.51-2.19-4.44s.87-4.36,2.19-4.36,2.19,1.44,2.19,4.36-.86,4.44-2.19,4.44Z" transform="translate(54.1 16.99)" style="fill:#1d1d1b"/><path d="M84.07,326.17A9.4,9.4,0,0,0,88,318.28q0-8.26-12.22-9.85v-.11c4-.55,6.78-1.72,8.38-3.5a8.12,8.12,0,0,0-.72-12.16q-3.12-2.81-10.36-2.8H52.25v1.9h5v35.48h-5v1.91H72.47q7.68,0,11.6-3ZM70,291.76c2.69,0,4.44.53,5.23,1.59s1.19,3.12,1.19,6.21c0,3.69-.49,5.93-1.47,6.74s-2.91,1.2-5.8,1.2H66.84V291.76Zm5.64,19.3q1.74,1.65,1.74,6.59c0,4.12-.49,6.76-1.48,7.89s-3.23,1.7-6.75,1.7H66.84V309.4h2.93q4.08,0,5.82,1.66ZM111,307.58a11.46,11.46,0,0,0-7.64-2.75,11,11,0,0,0-8.5,3.77,12.48,12.48,0,0,0-3.4,8.58A13.09,13.09,0,0,0,94.78,326a12.28,12.28,0,0,0,16,1.61,11.41,11.41,0,0,0,4-6.68H113a10.18,10.18,0,0,1-3.39,5.1,7.85,7.85,0,0,1-4.76,1.64c-1.93,0-3.17-.57-3.71-1.72s-.8-3.21-.8-6.21V316h14.41q-.55-5.62-3.81-8.38Zm-10.6,4.08c0-2.31.28-3.74.83-4.31a3.39,3.39,0,0,1,4.6.1c.58.64.87,2,.87,4.15v2.46h-6.3v-2.4Zm33.05-6.83L132,306.5a10.56,10.56,0,0,0-5.63-1.67,8.59,8.59,0,0,0-6.47,2.41,7.94,7.94,0,0,0-2.34,5.74,7.27,7.27,0,0,0,1.37,4.65,6.9,6.9,0,0,0,3.55,2.4,31.16,31.16,0,0,0,5.52,1c2.24.25,3.65.63,4.25,1.12a2.36,2.36,0,0,1,.89,1.91,3.22,3.22,0,0,1-1.68,2.76,7.28,7.28,0,0,1-4,1.09q-6.45,0-8.35-7.62h-1.76v8.58h1.35l1.84-1.49a9.8,9.8,0,0,0,6.86,2.46,8.87,8.87,0,0,0,6.69-2.57,9.08,9.08,0,0,0,2.48-6.58,7.33,7.33,0,0,0-2-5.25q-2-2.06-6.71-2.52t-5.91-1.1a2,2,0,0,1-1.15-1.86,2.86,2.86,0,0,1,1.49-2.4,6.36,6.36,0,0,1,3.55-1q5.44,0,7.09,5.51h1.78v-7.3Zm8.7-5.21v5.94h-3.28v1.82h3.28v16a12.39,12.39,0,0,0,.32,3.13,3.78,3.78,0,0,0,1.68,2.14,7.83,7.83,0,0,0,4.24.91c2.67,0,4.62-.48,5.83-1.42a7.21,7.21,0,0,0,2.34-4.76h-1.81c-.61,2.12-1.51,3.19-2.7,3.19s-2-1.07-2-3.19v-16H156v-1.82h-5.91v-7.32l-7.94,1.38Zm36.35,8a11.46,11.46,0,0,0-7.64-2.75,11,11,0,0,0-8.5,3.77,12.48,12.48,0,0,0-3.4,8.58,13.09,13.09,0,0,0,3.36,8.86,12.28,12.28,0,0,0,16,1.61,11.41,11.41,0,0,0,4-6.68h-1.75a10.18,10.18,0,0,1-3.39,5.1,7.85,7.85,0,0,1-4.76,1.64c-1.93,0-3.17-.57-3.71-1.72s-.8-3.21-.8-6.21V316h14.41q-.56-5.62-3.81-8.38Zm-10.6,4.08c0-2.31.28-3.74.83-4.31a3.39,3.39,0,0,1,4.6.1c.58.64.87,2,.87,4.15v2.46h-6.3v-2.4ZM219,291.76v-1.9H198.83v1.9H204v25a20.84,20.84,0,0,0,.54,5,9.12,9.12,0,0,0,2.66,4.2,11.44,11.44,0,0,0,5.43,2.86,28.83,28.83,0,0,0,6.84.8q6.68,0,9.89-2.28a9.31,9.31,0,0,0,3.95-5.2,27.39,27.39,0,0,0,.75-6.78V295.07c0-1.52.17-2.45.5-2.79s1.23-.52,2.69-.52h1.85v-1.9H226.54v1.9h2.7c1.48,0,2.31.18,2.49.53a7.49,7.49,0,0,1,.26,2.55v20.74c0,3.5-.44,6-1.32,7.43a8.33,8.33,0,0,1-3.63,3.27,12.11,12.11,0,0,1-5.19,1.08,8.49,8.49,0,0,1-6-2.07q-2.23-2.06-2.23-8.16V291.76Zm32.11,13.07-2.61.37a45.92,45.92,0,0,1-5.76.36h-2.15v1.82h3.37v20h-3.42v1.79h14.85v-1.79h-3.43V315.68q0-4.64,2.17-6.48c1.44-1.23,2.66-1.85,3.63-1.85a2.18,2.18,0,0,1,1.69.67,4.74,4.74,0,0,1,.6,2.91v16.43h-3.4v1.79h14.74v-1.79H268v-16a8.31,8.31,0,0,0-.52-3.33,5.46,5.46,0,0,0-2.39-2.15,8.67,8.67,0,0,0-4.36-1.06,9.73,9.73,0,0,0-8.7,5h-.12v-5Zm25.14-5.21v5.94H273v1.82h3.28v16a12.87,12.87,0,0,0,.32,3.13,3.8,3.8,0,0,0,1.69,2.14,7.77,7.77,0,0,0,4.23.91c2.67,0,4.62-.48,5.83-1.42a7.21,7.21,0,0,0,2.34-4.76h-1.81c-.61,2.12-1.51,3.19-2.7,3.19s-2-1.07-2-3.19v-16h5.92v-1.82h-5.92v-7.32l-7.94,1.38Zm36.36,8a11.5,11.5,0,0,0-7.65-2.75,11,11,0,0,0-8.5,3.77,12.48,12.48,0,0,0-3.4,8.58A13.09,13.09,0,0,0,296.4,326a11.4,11.4,0,0,0,20-5.07h-1.75a10.11,10.11,0,0,1-3.39,5.1,7.85,7.85,0,0,1-4.76,1.64c-1.93,0-3.17-.57-3.7-1.72s-.81-3.21-.81-6.21V316h14.41q-.56-5.62-3.8-8.38ZM302,311.66c0-2.31.28-3.74.84-4.31a3,3,0,0,1,2.24-.85,3,3,0,0,1,2.35.95c.58.64.87,2,.87,4.15v2.46H302v-2.4Z" transform="translate(54.1 16.99)" style="fill:#1d1d1b"/><path d="M327.52,305.18l-1,.19a38.59,38.59,0,0,1-4.57.19H318v1.82h3.05v20H318v1.79h15.41v-1.79H329v-8.07q0-6.45,1.34-9.33c.89-1.92,1.82-2.87,2.8-2.87.31,0,.46.1.46.32s-.17.37-.51.76a3.15,3.15,0,0,0-.51,2.05,3,3,0,0,0,.92,2.14,3,3,0,0,0,2.21,1,2.82,2.82,0,0,0,2.2-1,4,4,0,0,0,.91-2.74,4.91,4.91,0,0,0-1.2-3.36,4,4,0,0,0-3.11-1.36,4.85,4.85,0,0,0-3.57,1.68,10.29,10.29,0,0,0-2.32,5.15h-.11v-6.48Zm25.2-.35-2.61.37a45.92,45.92,0,0,1-5.76.36h-2.14v1.82h3.37v20h-3.43v1.79H357v-1.79h-3.43V315.68c0-3.09.73-5.25,2.17-6.48s2.66-1.85,3.64-1.85a2.16,2.16,0,0,1,1.68.67,4.74,4.74,0,0,1,.6,2.91v16.43h-3.4v1.79H373v-1.79h-3.34v-16a8.34,8.34,0,0,0-.51-3.33,5.51,5.51,0,0,0-2.39-2.15,8.7,8.7,0,0,0-4.37-1.06,9.73,9.73,0,0,0-8.7,5h-.12v-5Z" transform="translate(54.1 16.99)" style="fill:#1d1d1b"/><path d="M394.83,307.58a11.5,11.5,0,0,0-7.65-2.75,11,11,0,0,0-8.5,3.77,12.48,12.48,0,0,0-3.4,8.58,13.09,13.09,0,0,0,3.36,8.86,11.4,11.4,0,0,0,20-5.07h-1.75a10.11,10.11,0,0,1-3.39,5.1,7.85,7.85,0,0,1-4.76,1.64c-1.93,0-3.17-.57-3.7-1.72s-.81-3.21-.81-6.21V316h14.41q-.56-5.62-3.8-8.38Zm-10.61,4.08c0-2.31.28-3.74.84-4.31a3,3,0,0,1,2.24-.85,3,3,0,0,1,2.35.95c.58.64.87,2,.87,4.15v2.46h-6.3v-2.4Zm26.57-22.36-2,.27c-1.95.19-3.79.29-5.49.29H400v1.79h3.66v35.71h-3.43v1.79h14.86v-1.79H411.7V313.71a9.91,9.91,0,0,1,1.63-3.53,4.87,4.87,0,0,1,4.32-2.71c1.5,0,2.25,1.13,2.25,3.4v16.49h-3.34v1.79h14.68v-1.79H427.9V312.57q0-4.57-2.55-6.16a9.6,9.6,0,0,0-5.07-1.58c-3.82,0-6.65,1.88-8.46,5.63h-.12V289.3Zm32,15.53-1.84.37a24,24,0,0,1-4.22.36h-4.13v1.82h3.34v20h-3.34v1.79h14.77v-1.79h-3.43V316.24q0-5.19,2-7a6,6,0,0,1,4-1.85,2.16,2.16,0,0,1,1.73.72c.41.48.62,1.66.62,3.53v15.76h-3.4v1.79h14.82v-1.79H460.3v-10a22.26,22.26,0,0,1,.46-5.09,6.65,6.65,0,0,1,2.21-3.39,5.32,5.32,0,0,1,3.52-1.56,2.07,2.07,0,0,1,1.61.65c.39.43.58,1.59.58,3.49v15.93h-3.4v1.79H480v-1.79h-3.34V312.08a13.35,13.35,0,0,0-.45-3.8,4.42,4.42,0,0,0-2.17-2.47,10.9,10.9,0,0,0-5.23-1c-3.57,0-6.44,1.78-8.58,5.33q-.74-5.32-7.21-5.33-6.18,0-9,5h-.11v-5Zm59,2.75a11.5,11.5,0,0,0-7.65-2.75,11,11,0,0,0-8.49,3.77,12.43,12.43,0,0,0-3.4,8.58,13.12,13.12,0,0,0,3.35,8.86,11.41,11.41,0,0,0,20-5.07h-1.76a10.17,10.17,0,0,1-3.38,5.1,7.87,7.87,0,0,1-4.76,1.64c-1.94,0-3.17-.57-3.71-1.72s-.81-3.21-.81-6.21V316h14.42q-.56-5.62-3.81-8.38Zm-10.61,4.08c0-2.31.28-3.74.84-4.31a3,3,0,0,1,2.24-.85,3,3,0,0,1,2.36.95c.58.64.86,2,.86,4.15v2.46h-6.3v-2.4Zm26.63-6.83-2.61.37a45.92,45.92,0,0,1-5.76.36h-2.14v1.82h3.37v20h-3.43v1.79H522v-1.79h-3.42V315.68q0-4.64,2.16-6.48c1.45-1.23,2.66-1.85,3.64-1.85a2.16,2.16,0,0,1,1.68.67,4.74,4.74,0,0,1,.6,2.91v16.43h-3.4v1.79H538v-1.79h-3.34v-16a8.34,8.34,0,0,0-.51-3.33,5.51,5.51,0,0,0-2.39-2.15,8.7,8.7,0,0,0-4.37-1.06,9.73,9.73,0,0,0-8.7,5h-.11v-5Z" transform="translate(54.1 16.99)" style="fill:#1d1d1b"/><path d="M158.33,379.38v-1.82h-4.25V374.4l-.38-7.21a4.84,4.84,0,0,1,.92-3.05,3,3,0,0,1,2.45-1.17c1,0,1.55.29,1.55.85,0,.16-.24.5-.71,1a3.23,3.23,0,0,0,.25,4.34,3.37,3.37,0,0,0,2.4.89,3.76,3.76,0,0,0,3.72-3.78,4.21,4.21,0,0,0-2-3.63,8.56,8.56,0,0,0-5-1.35q-11,0-11.22,16.26H142v1.82h4.13v20h-3.78v1.79h16.32v-1.79h-4.6v-20Zm18.25-1.82v1.82h3.9v11a14.45,14.45,0,0,1-.56,4.52,6,6,0,0,1-2.34,2.87,5.79,5.79,0,0,1-3.22,1.26,1.5,1.5,0,0,1-1.67-1.15,23,23,0,0,1-.3-4.71V377.56H161.06v1.82h3.34v14.74a12.43,12.43,0,0,0,.48,4.05,4.88,4.88,0,0,0,2.34,2.33,8.92,8.92,0,0,0,4.5,1.06,10.46,10.46,0,0,0,5.11-1.29,8.44,8.44,0,0,0,3.53-3.52h.12v4.81c.35,0,.89-.1,1.63-.22a35.73,35.73,0,0,1,4.79-.19h4.92v-1.73h-3.34V377.56Zm-8.16-7.1a3.8,3.8,0,0,0,5.35,0,3.77,3.77,0,1,0-5.35,0Zm10.87,0a3.79,3.79,0,0,0,5.32,0,3.54,3.54,0,0,0,1.11-2.63,3.71,3.71,0,0,0-1.11-2.71,3.71,3.71,0,0,0-5.33,0,3.72,3.72,0,0,0-1.12,2.71,3.52,3.52,0,0,0,1.13,2.63Zm23.87,6.71-1.06.19a38.59,38.59,0,0,1-4.57.19h-3.9v1.82h3.05v20h-3.05v1.79H209v-1.79h-4.36v-8.07q0-6.45,1.33-9.33c.89-1.92,1.82-2.87,2.8-2.87.31,0,.47.1.47.32s-.17.37-.51.76a3.08,3.08,0,0,0-.52,2.05,3,3,0,0,0,.93,2.14,3,3,0,0,0,2.21,1,2.8,2.8,0,0,0,2.19-1,4,4,0,0,0,.91-2.74,4.91,4.91,0,0,0-1.2-3.36,3.93,3.93,0,0,0-3.1-1.36,4.89,4.89,0,0,0-3.58,1.68,10.38,10.38,0,0,0-2.31,5.15h-.12v-6.48Z" transform="translate(54.1 16.99)" style="fill:#1d1d1b"/><path d="M252,363.76q8.38,0,10.43,10.08h2.05l-.32-12H231.23v1.9h5v35.48h-5v1.91h20.21v-1.91h-5.62v-17h.94q4.19,0,5.87,2.17a9.25,9.25,0,0,1,1.89,5.16h1.91V373.37h-2.17q-.67,6.94-7.5,6.95h-.94V363.76Zm13.62,32.34a5.36,5.36,0,0,0,1.81,4.12,7.08,7.08,0,0,0,5,1.66,12.26,12.26,0,0,0,8.53-3.55c1.54,2.37,3.46,3.55,5.74,3.55a7.44,7.44,0,0,0,5.77-2.9l-.79-1.32a2.92,2.92,0,0,1-1.38.56c-1.19,0-1.78-1.07-1.78-3.2V382.64c0-2.47-.95-4.05-2.83-4.75a20.07,20.07,0,0,0-7-1.06q-5.41,0-8.48,1.8T267.11,383a3.32,3.32,0,0,0,1.14,2.54,3.93,3.93,0,0,0,2.73,1,4,4,0,0,0,2.87-1.1,3.52,3.52,0,0,0,1.14-2.62,2.4,2.4,0,0,0-.69-1.76c-.46-.47-.69-.82-.69-1.06s.33-.7,1-1a5.87,5.87,0,0,1,2.7-.51c1.44,0,2.34.29,2.69.88a6.27,6.27,0,0,1,.53,3v5.27q-14.88.58-14.88,8.43Zm13.94,1.21a3.24,3.24,0,0,1-2.66,1.14,3.14,3.14,0,0,1-2.5-1.14,4.78,4.78,0,0,1-1-3.15,4.23,4.23,0,0,1,1.55-3.69c1-.73,2.87-1.15,5.51-1.25V393c0,2.08-.31,3.5-.94,4.27Z" transform="translate(54.1 16.99)" style="fill:#1d1d1b"/><path d="M304.25,376.83l-1.85.37a24,24,0,0,1-4.22.36h-4.13v1.82h3.34v20h-3.34v1.79h14.77v-1.79h-3.43V388.24q0-5.19,2-7a6,6,0,0,1,4.05-1.85,2.14,2.14,0,0,1,1.72.72c.41.48.62,1.66.62,3.53v15.76h-3.4v1.79h14.82v-1.79h-3.42v-10a22.35,22.35,0,0,1,.45-5.09,6.65,6.65,0,0,1,2.21-3.39,5.34,5.34,0,0,1,3.52-1.56,2.07,2.07,0,0,1,1.61.65c.39.43.59,1.59.59,3.49v15.93h-3.4v1.79h14.73v-1.79h-3.34V384.08a13.35,13.35,0,0,0-.45-3.8,4.38,4.38,0,0,0-2.17-2.47,10.87,10.87,0,0,0-5.23-1q-5.35,0-8.58,5.33-.73-5.32-7.21-5.33-6.18,0-9,5h-.12v-5Zm42.93-7a4,4,0,0,0,3,1.28,4.18,4.18,0,0,0,3.07-1.28,4.24,4.24,0,0,0,0-6.05,4.2,4.2,0,0,0-3.07-1.26,4.25,4.25,0,0,0-4.24,4.28,4.18,4.18,0,0,0,1.24,3Zm5.06,7.33a27.62,27.62,0,0,1-4.87.36h-3.72v1.82h2.81v20h-2.81v1.79h13.1v-1.79h-2.29V376.83c-.17,0-.92.12-2.22.37Zm17.4-15.9-2.38.27q-3.6.29-7.29.29v1.79h2.64v35.71H360v1.79h13.1v-1.79H370.6V361.3Zm10.06,8.57a4,4,0,0,0,3,1.28,4.18,4.18,0,0,0,3.07-1.28,4.24,4.24,0,0,0,0-6.05,4.2,4.2,0,0,0-3.07-1.26,4.25,4.25,0,0,0-4.24,4.28,4.18,4.18,0,0,0,1.24,3Zm5.06,7.33a27.62,27.62,0,0,1-4.87.36h-3.72v1.82H379v20h-2.81v1.79h13.1v-1.79H387V376.83c-.17,0-.92.12-2.22.37ZM412,379.58a11.47,11.47,0,0,0-7.64-2.75,11,11,0,0,0-8.5,3.77,12.43,12.43,0,0,0-3.4,8.58,13.07,13.07,0,0,0,3.36,8.86,12.28,12.28,0,0,0,16,1.61,11.41,11.41,0,0,0,4-6.68H414a10.17,10.17,0,0,1-3.38,5.1,7.87,7.87,0,0,1-4.76,1.64c-1.94,0-3.17-.57-3.71-1.72s-.8-3.21-.8-6.21V388h14.41q-.55-5.62-3.81-8.38Zm-10.6,4.08c0-2.31.27-3.74.83-4.31a3,3,0,0,1,2.24-.85,3,3,0,0,1,2.36.95c.58.64.87,2,.87,4.15v2.46h-6.3v-2.4Z" transform="translate(54.1 16.99)" style="fill:#1d1d1b"/><path d="M428,376.83l-2.61.37a45.92,45.92,0,0,1-5.76.36H417.5v1.82h3.36v20h-3.42v1.79h14.85v-1.79h-3.43V387.68c0-3.09.73-5.25,2.17-6.48s2.66-1.85,3.63-1.85a2.17,2.17,0,0,1,1.69.67,4.74,4.74,0,0,1,.6,2.91v16.43h-3.4v1.79h14.74v-1.79H445v-16a8.14,8.14,0,0,0-.52-3.33,5.42,5.42,0,0,0-2.38-2.15,8.7,8.7,0,0,0-4.37-1.06,9.73,9.73,0,0,0-8.7,5h-.12v-5Z" transform="translate(54.1 16.99)" style="fill:#1d1d1b"/><path d="M168.3,584a18.84,18.84,0,0,1-2.58,1.88,13,13,0,0,0-7.53-2.65,10.76,10.76,0,0,0-8.3,3.66,12.77,12.77,0,0,0-3.34,8.94,12.42,12.42,0,0,0,2.73,8.21q2.72,3.28,8.56,4.5t7.14,2a7.93,7.93,0,0,1,2.26,2.15,5.08,5.08,0,0,1,1,3.05,7.86,7.86,0,0,1-2.22,5.44,8.13,8.13,0,0,1-6.33,2.43q-7.82,0-10.52-10.15h-2.4v12h2.06c.92-.86,2-1.74,3.1-2.65a12.55,12.55,0,0,0,7.94,2.77q6.18,0,9.61-4.3A15.91,15.91,0,0,0,172.88,611a12.9,12.9,0,0,0-2.6-8.31c-1.73-2.19-5.13-3.82-10.19-4.92a27.07,27.07,0,0,1-7-2.19q-2-1.14-2-4.18a5.88,5.88,0,0,1,1.94-4.34,6.78,6.78,0,0,1,4.92-1.88,8.76,8.76,0,0,1,6,2.17c1.65,1.45,3.12,4,4.41,7.65h2.46L170.3,584Zm23.16,39.74c-2.27,0-3.69-.78-4.24-2.35s-.83-4.82-.83-9.75q0-7.08,1.23-8.72a4.16,4.16,0,0,1,3.54-1.63,7.58,7.58,0,0,1,2.37.34c.69.22,1,.51,1,.86s-.21.61-.64.86a3.25,3.25,0,0,0-1.63,3.17,3.86,3.86,0,0,0,1.23,2.92,4.16,4.16,0,0,0,3,1.17,4.32,4.32,0,0,0,3.17-1.18,3.86,3.86,0,0,0,1.2-2.85,5.89,5.89,0,0,0-2.94-5.09,12.42,12.42,0,0,0-7-2,13.73,13.73,0,0,0-9.95,4,12.76,12.76,0,0,0-4.11,9.41,12,12,0,0,0,4,9.1,13.52,13.52,0,0,0,9.61,3.78,12,12,0,0,0,7.31-2.34,9.09,9.09,0,0,0,3.64-6.55h-1.69q-2,6.79-8.28,6.79ZM214,583.18l-2.13.28c-2,.2-4,.31-5.76.31h-3.4v1.87h3.85v37.5H203V625h15.6v-1.88H215V608.81c0-.58.57-1.81,1.7-3.71a5.14,5.14,0,0,1,4.54-2.85c1.58,0,2.37,1.2,2.37,3.58v17.31h-3.51V625h15.41v-1.88H232V607.62c0-3.21-.89-5.36-2.68-6.47a10,10,0,0,0-5.32-1.66q-6,0-8.89,5.9H215V583.18Zm39.32,17.07v1.91h4.09v11.57a15.09,15.09,0,0,1-.59,4.74,6.29,6.29,0,0,1-2.46,3A6.08,6.08,0,0,1,251,622.8a1.59,1.59,0,0,1-1.76-1.2,25.41,25.41,0,0,1-.3-5v-16.4H237v1.91h3.51v15.47a13,13,0,0,0,.51,4.27,5.19,5.19,0,0,0,2.46,2.44,9.39,9.39,0,0,0,4.72,1.11,10.93,10.93,0,0,0,5.37-1.36,8.84,8.84,0,0,0,3.7-3.69h.13v5.05a16.77,16.77,0,0,0,1.7-.23,37,37,0,0,1,5-.2h5.17V623.2h-3.5v-23Zm-8.57-7.46a4,4,0,0,0,5.61,0,3.77,3.77,0,0,0,1.17-2.81,4,4,0,1,0-6.78,2.81Zm11.41,0a4,4,0,0,0,5.59,0,3.75,3.75,0,0,0,1.16-2.77,3.92,3.92,0,0,0-1.16-2.84,3.89,3.89,0,0,0-5.6,0A3.89,3.89,0,0,0,255,590a3.69,3.69,0,0,0,1.18,2.77Zm18.44,1.2v6.24h-3.44v1.91h3.44V619a13.56,13.56,0,0,0,.34,3.29,4,4,0,0,0,1.77,2.24,8.12,8.12,0,0,0,4.45,1q4.21,0,6.12-1.49a7.58,7.58,0,0,0,2.46-5h-1.91c-.63,2.23-1.58,3.35-2.83,3.35S283,621.19,283,619v-16.8h6.21v-1.91H283v-7.69L274.61,594Z" transform="translate(54.1 16.99)" style="fill:#1d1d1b"/><path d="M293.4,610h2q3.66-5.91,4.84-6.89t4.59-1h2.09l-14.54,21V625h24.24l.53-10.95h-1.91q-3.75,6.7-5,7.89c-.86.79-2.31,1.18-4.34,1.18h-3.41l14.7-21.38v-1.51H293.83L293.4,610ZM342,602.38a12,12,0,0,0-8-2.89,11.5,11.5,0,0,0-8.92,4,13.08,13.08,0,0,0-3.57,9,13.76,13.76,0,0,0,3.52,9.3,12.91,12.91,0,0,0,16.79,1.7,12,12,0,0,0,4.21-7h-1.85a10.67,10.67,0,0,1-3.55,5.35,8.21,8.21,0,0,1-5,1.72c-2,0-3.33-.6-3.89-1.8s-.85-3.38-.85-6.53v-4H346q-.59-5.89-4-8.79Zm-11.14,4.27c0-2.42.3-3.92.88-4.52a3.56,3.56,0,0,1,4.83.11c.61.67.91,2.12.91,4.35v2.59h-6.62v-2.53Z" transform="translate(54.1 16.99)" style="fill:#1d1d1b"/><path d="M390.52,623H385v2h20.31v-2H401l-15.15-40H384.1l-14.47,35.49a12.52,12.52,0,0,1-2,3.73,4.72,4.72,0,0,1-3.2.8h-1.2v2h13.29v-2H374.2c-2.05,0-3.07-.55-3.07-1.64a11.18,11.18,0,0,1,1-3.66l1.74-4.24h13l3.63,9.54Zm-9.87-26,5.44,14.3H374.77l5.88-14.3Z" transform="translate(54.1 16.99)" style="fill:#1d1d1b"/><path d="M445.1,610.78v-2H426.19v2h5.53v4.15a32.48,32.48,0,0,1-.27,4.92,4,4,0,0,1-1.57,2.57,7,7,0,0,1-4.12,1,7.26,7.26,0,0,1-5.39-1.82q-1.78-1.82-1.86-6t-.08-12.81A92.63,92.63,0,0,1,418.9,591a6.38,6.38,0,0,1,2.32-4.32,8.06,8.06,0,0,1,5-1.42q9.38,0,12.73,11.26H441V584.2H439c-.94,1.13-1.76,2-2.46,2.77a15.85,15.85,0,0,0-10.27-3.79q-7.61,0-13.45,6.09A21,21,0,0,0,407,604.35a21.76,21.76,0,0,0,5.54,15,17.71,17.71,0,0,0,13.75,6.18q8.4,0,15.62-6.8v-8Z" transform="translate(54.1 16.99)" style="fill:#1d1d1b"/><polygon points="109.1 680.85 169.1 680.4 229.1 680.15 349.1 679.96 469.1 680.17 529.1 680.42 589.1 680.85 529.1 681.28 469.1 681.54 349.1 681.75 229.1 681.55 169.1 681.3 109.1 680.85" style="fill:#ab2159"/><polygon points="227.16 445.75 234.84 469.38 259.67 469.38 239.58 483.97 247.25 507.6 227.16 493 207.07 507.6 214.74 483.97 194.65 469.38 219.49 469.38 227.16 445.75" style="fill:#ab2159"/><polygon points="308.45 445.75 316.13 469.38 340.96 469.38 320.87 483.97 328.55 507.6 308.45 493 288.36 507.6 296.03 483.97 275.94 469.38 300.78 469.38 308.45 445.75" style="fill:#ab2159"/><polygon points="389.74 445.75 397.42 469.38 422.25 469.38 402.16 483.97 409.84 507.6 389.74 493 369.65 507.6 377.32 483.97 357.23 469.38 382.07 469.38 389.74 445.75" style="fill:#ab2159"/><polygon points="471.03 445.75 478.71 469.38 503.54 469.38 483.45 483.97 491.13 507.6 471.03 493 450.94 507.6 458.62 483.97 438.52 469.38 463.36 469.38 471.03 445.75" style="fill:#ab2159"/></svg>