<svg xmlns="http://www.w3.org/2000/svg" viewBox="0 0 241 91"><defs><linearGradient id="a" x1="-195.2" y1="458.56" x2="-195.2" y2="457.56" gradientTransform="matrix(0 -16.94 -17.8 0 8362.91 -3246.16)" gradientUnits="userSpaceOnUse"><stop offset="0" stop-color="#1a2227"/><stop offset=".5" stop-color="#1a2227"/><stop offset=".5" stop-color="#f8f8f8"/><stop offset="1" stop-color="#f8f8f8"/></linearGradient></defs><rect x=".5" y=".5" width="240" height="90" rx="6" fill="#f8f8f8" stroke="#d1d3d5"/><path d="M112.06 66.42l-5.56-2.91-5.45 2.93 1.06-6.19-4.47-4.27 6.2-.91 2.69-5.57 2.78 5.62 6.13.83-4.44 4.38zM137.06 66.42l-5.56-2.91-5.45 2.93 1.06-6.19-4.47-4.27 6.2-.91 2.69-5.57 2.78 5.62 6.13.83-4.44 4.38zM162.06 66.42l-5.56-2.91-5.45 2.93 1.06-6.19-4.47-4.27 6.2-.91 2.69-5.57 2.78 5.62 6.13.83-4.44 4.38zM187.06 66.42l-5.56-2.91-5.45 2.93 1.06-6.19-4.47-4.27 6.2-.91 2.69-5.57 2.78 5.62 6.13.83-4.44 4.38z" fill="#1a2227" stroke="#1a2227" stroke-width="2"/><path d="M215.06 68.53l-5.56-2.91-5.45 2.93 1.06-6.19-4.47-4.27 6.2-.91 2.69-5.57 2.78 5.62 6.13.83-4.44 4.38z" transform="translate(-3 -2.11)" stroke="#1a2227" stroke-width="2" fill="url(#a)"/><text transform="translate(130.5 42.5)" style="isolation:isolate" font-size="25" fill="#1a2227" font-family="ArialMT,Arial">4,8</text><path d="M70.1 25.16l-1.74 1.73-.12.11a.67.67 0 0 1-.91 0l-.23-.23a.63.63 0 0 1 0-.9l1.86-1.82a.76.76 0 0 0 0-1.11l-.3-.3a.84.84 0 0 0-1.15 0l-1.86 1.81a.65.65 0 0 1-.91 0l-.24-.23a.61.61 0 0 1 0-.88l1.86-1.82a2.5 2.5 0 0 1 3.48 0l.3.3a2.36 2.36 0 0 1-.04 3.34zm0 8l-.3.29a2.5 2.5 0 0 1-3.48 0l-1.74-1.7-.12-.11a.62.62 0 0 1 0-.89l.24-.23a.68.68 0 0 1 .92 0l1.86 1.82a.81.81 0 0 0 1.14 0l.31-.29a.79.79 0 0 0 0-1.13l-1.86-1.82a.62.62 0 0 1 0-.89l.24-.23a.65.65 0 0 1 .9 0l1.87 1.83a2.36 2.36 0 0 1 .02 3.34zm-6.62-9l-.24.23a.68.68 0 0 1-.92 0l-1.85-1.82a.83.83 0 0 0-1.15 0l-.32.32a.78.78 0 0 0 0 1.12l1.86 1.81a.62.62 0 0 1 0 .89l-.23.24a.64.64 0 0 1-.9 0l-1.87-1.82a2.35 2.35 0 0 1 0-3.39l.3-.3a2.5 2.5 0 0 1 3.47 0l1.75 1.7.11.11a.62.62 0 0 1-.01.92zm0 7.45l-1.87 1.82a2.5 2.5 0 0 1-3.47 0l-.31-.3a2.36 2.36 0 0 1 0-3.39l1.74-1.7.11-.12a.67.67 0 0 1 .91 0l.24.23a.63.63 0 0 1 0 .9L59 30.89A.76.76 0 0 0 59 32l.31.3a.82.82 0 0 0 1.14 0l1.86-1.82a.66.66 0 0 1 .92 0l.23.23a.61.61 0 0 1 .02.91zM54.76 60.8l-.13 7.75a1.25 1.25 0 0 1-1.27 1.24h-7.6a1.26 1.26 0 0 1-1.27-1.24V58.3a5 5 0 0 0-5-4.89h-2.73a5 5 0 0 0-5 4.89h-.06v10.25a1.25 1.25 0 0 1-1.27 1.24h-7.61a1.26 1.26 0 0 1-1.26-1.24v-46.1a1.26 1.26 0 0 1 1.26-1.24h7.61a1.25 1.25 0 0 1 1.27 1.24v21.76a15.44 15.44 0 0 1 5.06-.85h2.58a5 5 0 0 0 5-4.88l.16-2.51a1.26 1.26 0 0 1 1.25-1h7.6a1.26 1.26 0 0 1 1.25 1v2.51a14.65 14.65 0 0 1-3.83 9.86 14.71 14.71 0 0 1 3.94 10zm17.95-45.3H18.29a2.79 2.79 0 0 0-2.79 2.79v54.42a2.79 2.79 0 0 0 2.79 2.79h54.42a2.79 2.79 0 0 0 2.79-2.79V18.29a2.79 2.79 0 0 0-2.79-2.79" fill="#1a2227"/><path d="M212.06 66.42l-5.56-2.91-5.45 2.93 1.06-6.19-4.47-4.27 6.2-.91 2.69-5.57 2.78 5.62 6.13.83-4.44 4.38z" fill="#1a2227" stroke="#1a2227" stroke-width="2"/></svg>