<svg xmlns="http://www.w3.org/2000/svg" viewBox="0 0 242.94 67.24"><defs><clipPath id="clip-path"><path d="M212.14 18.23l7.47 12h7.18s1.19 0 1.19 1.53-1.19 1.53-1.19 1.53h-17.87l-6.23 11.88H232c7.44 0 10.73-6.07 10.73-13.44 0-8.53-4.13-13.33-11.23-13.52z"/></clipPath><linearGradient id="Unbenannter_Verlauf_4" x1="-479.11" y1="-581.73" x2="-478.66" y2="-581.73" gradientTransform="matrix(0 59.4 59.39 0 34774.36 28477.58)" gradientUnits="userSpaceOnUse"><stop offset="0" stop-color="#a5bcd0"/><stop offset="1" stop-color="#06536e"/></linearGradient><clipPath id="clip-path-2"><path class="cls-1" d="M187 2.73c-7.22 4.53-9.36 10.35-5.89 16.55l9.79 16.11 6.53-12.26-3.59-5.82a1.36 1.36 0 0 1 .69-1.92 1.37 1.37 0 0 1 2 .29l9.06 14.57h14L204 5.13A9.61 9.61 0 0 0 195.42 0 16.18 16.18 0 0 0 187 2.73"/></clipPath><linearGradient id="Unbenannter_Verlauf_2" x1="-501.17" y1="-597" x2="-500.71" y2="-597" gradientTransform="matrix(59.73 0 -.01 -59.73 30107.3 -35639.37)" gradientUnits="userSpaceOnUse"><stop offset="0" stop-color="#b6ab9d"/><stop offset=".01" stop-color="#b6ab9d"/><stop offset="1" stop-color="#665755"/></linearGradient><clipPath id="clip-path-3"><path class="cls-1" d="M183.68 49c-3.63 6.5.12 12.12 6.52 15.85 7.09 4.13 13.66 2.83 17.25-3.3l8.85-16.36h-13.61l-3.37 6.39a1.62 1.62 0 0 1-2.78-1.51l8.05-15.36-7.13-11.58z"/></clipPath><linearGradient id="Unbenannter_Verlauf_3" x1="-503.22" y1="-570.3" x2="-502.77" y2="-570.3" gradientTransform="matrix(0 -59.36 -59.36 0 -33653.9 -29808.96)" gradientUnits="userSpaceOnUse"><stop offset="0" stop-color="#e55f45"/><stop offset="1" stop-color="#ae0f0a"/></linearGradient></defs><path fill="#1d1d1b" d="M9.56 33.47c-4.27-3.29-6.1-5.85-6.1-8.59 0-3.58 2.17-5.39 6.45-5.39a38 38 0 0 1 5.09.3h.35a1 1 0 0 0 1.1-1.11 1.12 1.12 0 0 0-.43-1c-.76-.5-2.55-.73-5.81-.73C4 17 .6 19.75.6 24.78.6 29 3.28 31.87 8.54 36c4.84 3.81 6 5.38 6 8.39 0 3.68-2.64 5.55-7.85 5.55a45.69 45.69 0 0 1-5.46-.35A1.1 1.1 0 0 0 0 50.81a1 1 0 0 0 .66 1 22.16 22.16 0 0 0 5.84.61c7 0 10.65-2.83 10.65-8.2 0-4.29-2-6.56-7.59-10.77M39.94 49.2a1 1 0 0 0-.29 0 20.1 20.1 0 0 1-5.67.7c-6 0-9.7-2.5-9.7-14.93 0-11.17 2.72-15.52 9.7-15.52a21.28 21.28 0 0 1 5.33.64A1.07 1.07 0 0 0 40.68 19a1.08 1.08 0 0 0-.56-1.06 16.27 16.27 0 0 0-6.19-.94c-8.42 0-12.51 5.88-12.51 18 0 12.26 3.67 17.48 12.26 17.48a19.24 19.24 0 0 0 6.32-.9 1.22 1.22 0 0 0 .76-1.27c0-.82-.43-1.11-.84-1.11M64.78 17.28c-1 0-1.38.42-1.38 1.48V31.5c0 1.2-.16 1.38-1.22 1.38H49.59c-1.13 0-1.23-.18-1.23-1.13v-13c0-1.06-.39-1.48-1.38-1.48s-1.38.42-1.38 1.48v31.9c0 1.07.38 1.48 1.38 1.48s1.38-.41 1.38-1.48V36.37c0-1 .11-1.23 1.23-1.23h12.59c1.13 0 1.22.18 1.22 1.13v14.39c0 1.07.39 1.48 1.38 1.48s1.38-.41 1.38-1.48v-31.9c0-1.06-.38-1.48-1.38-1.48M79.88 13.57c1.16 0 1.78-.35 1.78-2.18 0-1.48-.44-2-1.78-2s-2 .53-2 2c0 1.83.7 2.18 2 2.18M89.16 13.57c1.16 0 1.78-.35 1.78-2.18 0-1.48-.44-2-1.78-2s-2 .53-2 2c0 1.83.7 2.18 2 2.18M93.78 17.28c-1 0-1.38.42-1.38 1.48v23.63c0 5.36-2.26 7.55-7.8 7.55s-7.75-2.16-7.75-7.45V18.76c0-1.06-.39-1.48-1.38-1.48s-1.38.42-1.38 1.48v24.78c0 5.91 3.54 8.9 10.51 8.9 6.61 0 10.56-3.32 10.56-8.9V18.76c0-1.06-.39-1.48-1.38-1.48M116.9 17.48h-16.8c-.92 0-1.28.35-1.28 1.23s.42 1.23 1.28 1.23h5.9c1.13 0 1.13.25 1.13 1.18v29.44c0 1.15.37 1.58 1.38 1.58s1.38-.43 1.38-1.58V21.07c0-1 .17-1.13 1.18-1.13h5.81c.93 0 1.28-.34 1.28-1.23s-.42-1.23-1.28-1.23M139.33 49.38h-15.2c-.48 0-.48 0-.48-.17a.9.9 0 0 1 .18-.52L139 21.55a3.82 3.82 0 0 0 .62-2c0-1.45-.65-2.08-2.18-2.08H123c-.42 0-.92.22-.92 1.23s.5 1.23.92 1.23h13c.62 0 .62.06.62.28a.64.64 0 0 1-.13.36l-15.65 28.1a3.46 3.46 0 0 0-.37 1.53 1.53 1.53 0 0 0 1.53 1.74h17.36c.65 0 1-.44 1-1.33s-.37-1.23-1-1.23M160.44 49.48h-10.58c-1.2 0-1.73-.39-1.73-1.27V36.37c0-1 .1-1.18 1.23-1.18h9.58c.92 0 1.28-.35 1.28-1.23s-.41-1.13-1.28-1.13h-9.58c-1.14 0-1.23-.15-1.23-1.08v-9.68c0-1.49.52-2.13 1.73-2.13h9.78c.92 0 1.28-.34 1.28-1.23s-.42-1.23-1.28-1.23h-9.53c-3.92 0-4.74 2.17-4.74 4v26.68c0 2.58 1.51 3.78 4.74 3.78h10.33c.9 0 1.28-.38 1.28-1.28s-.39-1.18-1.28-1.18"/><g clip-path="url(#clip-path)"><path transform="rotate(-.43 222.405 31.481)" fill="url(#Unbenannter_Verlauf_4)" d="M202.59 18.08h40.24v27.29h-40.24z"/></g><g clip-path="url(#clip-path-2)"><path transform="rotate(-31.12 198.598 17.706)" fill="url(#Unbenannter_Verlauf_2)" d="M171.54-8.29h54.19v51.97h-54.19z"/></g><g clip-path="url(#clip-path-3)"><path transform="rotate(-61.55 198.176 46.06)" fill="url(#Unbenannter_Verlauf_3)" d="M169.39 19.2h57.58v53.71h-57.58z"/></g></svg>
