<svg xmlns="http://www.w3.org/2000/svg" viewBox="0 0 479.26 722.69"><title>stern_3919_Schütze_AG</title><path d="M81.78,61.2c-.92,0-22.47.36-22.47,22.46V758.81c0,.91.36,22.46,22.46,22.46H513.49c.91,0,22.46-.36,22.46-22.46V83.66c0-.91-.36-22.46-22.46-22.46H81.78Z" transform="translate(-58 -59.89)" style="fill:#fff"/><path d="M81.78,62.52c-.86,0-21.15.32-21.15,21.14V758.81c0,.85.32,21.14,21.14,21.14H513.49c.85,0,21.14-.39,21.14-21.14V83.66c0-.85-.4-21.14-21.14-21.14H81.78ZM513.5,782.58H81.77c-23.41,0-23.77-22.8-23.77-23.77V83.66c0-23.4,22.77-23.77,23.77-23.77H513.49c23.32,0,23.76,22.79,23.77,23.76V758.81c0,23.32-22.79,23.76-23.76,23.77" transform="translate(-58 -59.89)" style="fill:#1d1d1b"/><rect x="0.44" y="626.12" width="477.7" height="2.63" style="fill:#1d1d1b"/><path d="M149.81,371.67c5.72,0,8.91-3.64,8.91-9.42s-3.19-9.47-8.91-9.47h-3.7v18.89ZM137.25,345h13c10.82,0,17.38,6.73,17.38,17.21s-6.56,17.22-17.38,17.22h-13Z" transform="translate(-58 -59.89)" style="fill:#e30613"/><path d="M179.19,363.94h7.57c-.22-2.14-1.51-3.59-3.64-3.59-1.91,0-3.31,1.29-3.93,3.59M184.13,380c-8.08,0-13.57-4.88-13.57-13,0-7.91,5.27-13.35,12.22-13.35,7.85,0,11.84,5.11,11.84,12.62v2.58H179.08c.79,3,3.2,4.26,6.45,4.26a12.91,12.91,0,0,0,7.29-2v6.68c-2,1.45-5,2.24-8.69,2.24" transform="translate(-58 -59.89)" style="fill:#e30613"/><path d="M223.16,379.47h-8.8v-2.19a9,9,0,0,1-6.73,2.75c-5.55,0-8.86-3.65-8.86-9.25V354.23h8.74V368.7c0,2.13,1,3.65,3.26,3.65a3.7,3.7,0,0,0,3.59-2.81V354.23h8.8Z" transform="translate(-58 -59.89)" style="fill:#e30613"/><polygon points="182.27 319.58 173.52 319.58 173.52 301.19 169.15 301.19 169.15 294.34 173.52 294.34 173.52 287.39 182.27 287.39 182.27 294.34 187.2 294.34 187.2 301.19 182.27 301.19 182.27 319.58" style="fill:#e30613"/><path d="M248.29,370.22a16,16,0,0,0,8.91,3.19c1.74,0,2.86-.39,2.86-1.51s-.78-1.4-2.3-1.74l-2-.51c-4.65-1-7.62-3.19-7.62-7.73,0-5.27,4.37-8.25,10.31-8.25a16,16,0,0,1,8.81,2.25v7.23a13.76,13.76,0,0,0-8-2.92c-1.51,0-2.52.51-2.52,1.52s.73,1.29,2,1.62l2.3.68c5.5,1.46,7.69,3.7,7.69,8,0,5.38-4.66,8-10.88,8-3.54,0-7.24-.84-9.59-2.41Z" transform="translate(-58 -59.89)" style="fill:#e30613"/><path d="M284.8,353.67a11.59,11.59,0,0,1,6.78,1.8v7.4a8.9,8.9,0,0,0-5.44-1.79c-3.25,0-5.83,2-5.83,5.77s2.58,5.78,5.83,5.78a8.91,8.91,0,0,0,5.44-1.8v7.41A11.66,11.66,0,0,1,284.8,380c-7.57,0-13.18-5-13.18-13.18s5.61-13.18,13.18-13.18" transform="translate(-58 -59.89)" style="fill:#e30613"/><path d="M296.13,343h8.8v13.4a9.15,9.15,0,0,1,6.78-2.75c5.61,0,8.92,3.65,8.92,9.26v16.54h-8.75V365.06c0-2.08-1.06-3.59-3.31-3.59a3.62,3.62,0,0,0-3.64,2.75v15.25h-8.8Z" transform="translate(-58 -59.89)" style="fill:#e30613"/><rect x="267.96" y="283.13" width="8.8" height="36.45" style="fill:#e30613"/><path d="M354.11,371a3.91,3.91,0,0,0-3.53-1.74c-1.74,0-3.48.72-3.48,2.41s1.74,2.47,3.48,2.47a4,4,0,0,0,3.53-1.69Zm0-6.68c0-2-1.79-3.36-5.38-3.36a13.89,13.89,0,0,0-6.9,1.79v-7.06a20,20,0,0,1,9-2c7.46,0,11.72,3.54,11.72,10.21v15.59h-8.47v-1.29c-.84.84-3.25,1.74-5.94,1.74-5,0-9.25-2.81-9.25-8.13,0-4.88,4.26-8,9.7-8a10.91,10.91,0,0,1,5.49,1.4Z" transform="translate(-58 -59.89)" style="fill:#e30613"/><path d="M367.85,354.23h8.81v2.19a9.15,9.15,0,0,1,6.78-2.75c5.61,0,8.92,3.65,8.92,9.26v16.54h-8.75V365.06c0-2.08-1.07-3.59-3.31-3.59a3.61,3.61,0,0,0-3.64,2.74v15.26h-8.81Z" transform="translate(-58 -59.89)" style="fill:#e30613"/><path d="M413.84,363.49a4.39,4.39,0,0,0-3.87-2.36c-3,0-4.82,2.47-4.82,5.72s1.79,5.67,4.82,5.67a4.23,4.23,0,0,0,3.87-2.36Zm0,14a8.78,8.78,0,0,1-6.23,2.58c-7.29,0-11.27-5.89-11.27-13.18s4-13.18,11.27-13.18a8.82,8.82,0,0,1,6.23,2.58V343h8.8v36.45h-8.8Z" transform="translate(-58 -59.89)" style="fill:#e30613"/><path d="M427.19,370.22a16.05,16.05,0,0,0,8.91,3.19c1.74,0,2.86-.39,2.86-1.51s-.78-1.4-2.29-1.74l-2-.51c-4.65-1-7.62-3.19-7.62-7.73,0-5.27,4.37-8.25,10.31-8.25a16,16,0,0,1,8.81,2.25v7.23a13.73,13.73,0,0,0-8-2.92c-1.52,0-2.53.51-2.53,1.52s.73,1.29,2,1.62l2.3.68c5.5,1.46,7.69,3.7,7.69,8,0,5.38-4.66,8-10.88,8-3.53,0-7.24-.84-9.59-2.41Z" transform="translate(-58 -59.89)" style="fill:#e30613"/><path d="M133.77,418V397.62h9v19.57c0,4.87,2.3,7.4,6.06,7.4s6-2.53,6-7.4V397.62h9V418c0,9.42-5.89,14.58-15,14.58s-15-5.16-15-14.64" transform="translate(-58 -59.89)" style="fill:#e30613"/><path d="M169.05,406.81h8.8V409a9.15,9.15,0,0,1,6.78-2.75c5.61,0,8.92,3.65,8.92,9.25v16.55H184.8V417.63c0-2.07-1.06-3.58-3.31-3.58a3.61,3.61,0,0,0-3.64,2.74v15.26h-8.8Z" transform="translate(-58 -59.89)" style="fill:#e30613"/><polygon points="152.54 372.15 143.8 372.15 143.8 353.76 139.42 353.76 139.42 346.92 143.8 346.92 143.8 339.97 152.54 339.97 152.54 346.92 157.48 346.92 157.48 353.76 152.54 353.76 152.54 372.15" style="fill:#e30613"/><path d="M226.75,416.51h7.57c-.22-2.13-1.51-3.59-3.64-3.59-1.91,0-3.31,1.29-3.93,3.59m4.94,16.1c-8.08,0-13.57-4.88-13.57-13,0-7.91,5.27-13.35,12.22-13.35,7.85,0,11.83,5.1,11.83,12.62v2.58H226.64c.79,3,3.2,4.26,6.45,4.26a13,13,0,0,0,7.29-2v6.67c-2,1.46-5,2.25-8.69,2.25" transform="translate(-58 -59.89)" style="fill:#e30613"/><path d="M263.37,415.17a7.57,7.57,0,0,0-3.64-.79c-2.41,0-4,1.07-4.49,2.86v14.81h-8.8V406.81h8.8v2.24a6.89,6.89,0,0,1,5.72-2.8,5.55,5.55,0,0,1,2.41.45Z" transform="translate(-58 -59.89)" style="fill:#e30613"/><path d="M267.64,406.81h8.8V409a9.15,9.15,0,0,1,6.79-2.75c5.6,0,8.91,3.65,8.91,9.25v16.55h-8.75V417.63c0-2.07-1.06-3.58-3.31-3.58a3.61,3.61,0,0,0-3.64,2.74v15.26h-8.8Z" transform="translate(-58 -59.89)" style="fill:#e30613"/><path d="M304.76,416.51h7.57c-.22-2.13-1.51-3.59-3.64-3.59-1.91,0-3.31,1.29-3.93,3.59m4.94,16.1c-8.08,0-13.57-4.88-13.57-13,0-7.91,5.27-13.35,12.22-13.35,7.85,0,11.83,5.1,11.83,12.62v2.58H304.65c.78,3,3.2,4.26,6.45,4.26a13,13,0,0,0,7.29-2v6.67c-2,1.46-5.05,2.25-8.69,2.25" transform="translate(-58 -59.89)" style="fill:#e30613"/><path d="M324.45,395.6h8.8V409a9.15,9.15,0,0,1,6.79-2.75c5.6,0,8.91,3.65,8.91,9.25v16.55H340.2V417.63c0-2.07-1.06-3.58-3.31-3.58a3.61,3.61,0,0,0-3.64,2.74v15.26h-8.8Z" transform="translate(-58 -59.89)" style="fill:#e30613"/><path d="M384.34,406.25c5.27,0,8.52,3.59,8.52,9.25v16.55h-8.8V417.63c0-2.13-.9-3.64-2.86-3.64a3.3,3.3,0,0,0-3.25,2.69v15.37H369.2V417.63c0-2.13-.9-3.64-2.86-3.64a3.26,3.26,0,0,0-3.25,2.69v15.37h-8.81V406.81h8.81v2.08a8.43,8.43,0,0,1,6.5-2.64,8.63,8.63,0,0,1,7,3,10.62,10.62,0,0,1,7.8-3" transform="translate(-58 -59.89)" style="fill:#e30613"/><path d="M405.43,416.51H413c-.23-2.13-1.52-3.59-3.65-3.59-1.9,0-3.31,1.29-3.92,3.59m4.93,16.1c-8.07,0-13.57-4.88-13.57-13,0-7.91,5.27-13.35,12.23-13.35,7.85,0,11.83,5.1,11.83,12.62v2.58H405.32c.78,3,3.19,4.26,6.44,4.26a13,13,0,0,0,7.29-2v6.67c-2,1.46-5,2.25-8.69,2.25" transform="translate(-58 -59.89)" style="fill:#e30613"/><path d="M425.11,406.81h8.81V409a9.15,9.15,0,0,1,6.78-2.75c5.61,0,8.92,3.65,8.92,9.25v16.55h-8.75V417.63c0-2.07-1.07-3.58-3.31-3.58a3.6,3.6,0,0,0-3.64,2.74v15.26h-8.81Z" transform="translate(-58 -59.89)" style="fill:#e30613"/><path d="M192.29,458.83c5.27,0,8.52,3.59,8.52,9.25v16.54H192V470.21c0-2.13-.9-3.64-2.86-3.64a3.32,3.32,0,0,0-3.26,2.69v15.36h-8.74V470.21c0-2.13-.9-3.64-2.86-3.64a3.28,3.28,0,0,0-3.26,2.69v15.36h-8.8V459.39H171v2.07a8.45,8.45,0,0,1,6.51-2.63,8.63,8.63,0,0,1,7,3,10.62,10.62,0,0,1,7.8-3" transform="translate(-58 -59.89)" style="fill:#e30613"/><path d="M214.89,484.62h-8.8V459.39h8.8Zm-4.37-27.36a4.75,4.75,0,1,1,5-4.71,4.73,4.73,0,0,1-5,4.71" transform="translate(-58 -59.89)" style="fill:#e30613"/><polygon points="174.05 424.73 165.3 424.73 165.3 406.34 160.93 406.34 160.93 399.5 165.3 399.5 165.3 392.54 174.05 392.54 174.05 399.5 178.99 399.5 178.99 406.34 174.05 406.34 174.05 424.73" style="fill:#e30613"/><polygon points="222.06 424.73 193.68 424.73 193.68 424.51 208.6 398.04 194.35 398.04 194.35 390.3 222.22 390.3 222.22 390.53 207.53 416.94 222.06 416.94 222.06 424.73" style="fill:#e30613"/><path d="M308.15,484.62h-8.8v-2.18a9,9,0,0,1-6.73,2.74c-5.55,0-8.86-3.64-8.86-9.25V459.39h8.75v14.47c0,2.13,1,3.64,3.25,3.64a3.7,3.7,0,0,0,3.59-2.8V459.39h8.8Z" transform="translate(-58 -59.89)" style="fill:#e30613"/><polygon points="263.56 413.69 263.56 424.73 254.75 424.73 254.75 388.28 263.56 388.28 263.56 408.97 270.74 399.5 280.83 399.5 271.46 411.16 281.05 424.73 271.18 424.73 263.56 413.69" style="fill:#e30613"/><path d="M365.58,484.62h-8.81v-2.18a9,9,0,0,1-6.72,2.74c-5.56,0-8.86-3.64-8.86-9.25V459.39h8.74v14.47c0,2.13,1,3.64,3.26,3.64a3.69,3.69,0,0,0,3.58-2.8V459.39h8.81Z" transform="translate(-58 -59.89)" style="fill:#e30613"/><path d="M370.18,459.39H379v2.19a9.13,9.13,0,0,1,6.78-2.75c5.61,0,8.92,3.64,8.92,9.25v16.54h-8.75V470.21c0-2.07-1.07-3.59-3.31-3.59a3.6,3.6,0,0,0-3.64,2.75v15.25h-8.81Z" transform="translate(-58 -59.89)" style="fill:#e30613"/><path d="M415.21,455.52a4.15,4.15,0,0,0-2.07-.51c-2,0-3.14,1-3.14,3v1.35h4.88v6.84H410v18.39h-8.69V466.23h-3.76v-6.84h3.76v-1.85c0-6.06,3.64-9.87,9.81-9.87a11.78,11.78,0,0,1,4.09.67Z" transform="translate(-58 -59.89)" style="fill:#e30613"/><polygon points="371.68 424.73 362.94 424.73 362.94 406.34 358.56 406.34 358.56 399.5 362.94 399.5 362.94 392.54 371.68 392.54 371.68 399.5 376.62 399.5 376.62 406.34 371.68 406.34 371.68 424.73" style="fill:#e30613"/><polygon points="178.53 246.25 162.57 246.25 162.57 246.13 170.96 231.24 162.95 231.24 162.95 226.89 178.62 226.89 178.62 227.01 170.36 241.87 178.53 241.87 178.53 246.25" style="fill:#1d1d1b"/><polygon points="197.55 226.89 197.55 231.24 188.69 231.24 188.69 234.27 196.79 234.27 196.79 238.53 188.69 238.53 188.69 241.87 197.55 241.87 197.55 246.25 183.7 246.25 183.7 226.89 197.55 226.89" style="fill:#1d1d1b"/><rect x="202.91" y="226.89" width="5.08" height="19.37" style="fill:#1d1d1b"/><path d="M280.91,286.46a8.74,8.74,0,0,1,4.92,1.33v4.92a7.23,7.23,0,0,0-4.51-1.58c-3.22,0-5.27,2-5.27,5.33a4.9,4.9,0,0,0,5.27,5.3,7.14,7.14,0,0,0,4.51-1.55v4.92a8.74,8.74,0,0,1-4.92,1.33c-5.9,0-9.93-4-9.93-10s4-10,9.93-10" transform="translate(-58 -59.89)" style="fill:#1d1d1b"/><polygon points="250.89 226.89 250.89 246.25 245.81 246.25 245.81 238.59 238.34 238.59 238.34 246.25 233.26 246.25 233.26 226.89 238.34 226.89 238.34 234.24 245.81 234.24 245.81 226.89 250.89 226.89" style="fill:#1d1d1b"/><polygon points="273.7 246.25 269.6 246.25 261.49 234.93 261.49 246.25 256.61 246.25 256.61 226.89 261.34 226.89 268.81 237.55 268.81 226.89 273.7 226.89 273.7 246.25" style="fill:#1d1d1b"/><polygon points="293.29 226.89 293.29 231.24 284.43 231.24 284.43 234.27 292.53 234.27 292.53 238.53 284.43 238.53 284.43 241.87 293.29 241.87 293.29 246.25 279.44 246.25 279.44 226.89 293.29 226.89" style="fill:#1d1d1b"/><polygon points="297.81 226.89 314.84 226.89 314.84 231.24 308.84 231.24 308.84 246.25 303.77 246.25 303.77 231.24 297.81 231.24 297.81 226.89" style="fill:#1d1d1b"/><path d="M393,298.23h4l-2-5.46Zm5.49,4.16h-7l-1.39,3.75h-5l7.38-19.36h5.17L405,306.14h-5.14Z" transform="translate(-58 -59.89)" style="fill:#1d1d1b"/><path d="M408.45,298.23V286.78h5.05v11c0,2.74,1.29,4.16,3.41,4.16s3.37-1.42,3.37-4.16v-11h5.05v11.48c0,5.3-3.31,8.2-8.42,8.2s-8.46-2.9-8.46-8.23" transform="translate(-58 -59.89)" style="fill:#1d1d1b"/><path d="M430.5,300.21a11.74,11.74,0,0,0,6.22,2c1.61,0,3-.34,3-1.54,0-.95-.59-1.26-1.64-1.64l-2.93-.85c-3.25-.95-5-2.56-5-5.78,0-3.84,3.24-6,7.31-6a12.09,12.09,0,0,1,6.09,1.45v4.67a10.12,10.12,0,0,0-5.87-1.92c-1.45,0-2.55.41-2.55,1.39s.6,1.23,1.61,1.54l2.93.88c3.53,1.11,5.14,3,5.14,5.93,0,4.2-3.56,6.06-7.92,6.06a12.94,12.94,0,0,1-6.34-1.58Z" transform="translate(-58 -59.89)" style="fill:#1d1d1b"/><path d="M176.09,637.57a18.89,18.89,0,0,0,10,3.25c2.59,0,4.83-.56,4.83-2.49,0-1.52-1-2-2.64-2.64l-4.73-1.37c-5.24-1.53-8.13-4.12-8.13-9.3,0-6.21,5.23-9.61,11.79-9.61a19.33,19.33,0,0,1,9.81,2.34v7.52a16.34,16.34,0,0,0-9.46-3.1c-2.33,0-4.11.66-4.11,2.23s1,2,2.59,2.5l4.73,1.42c5.69,1.78,8.28,4.78,8.28,9.55,0,6.76-5.74,9.76-12.76,9.76a20.8,20.8,0,0,1-10.21-2.54Z" transform="translate(-58 -59.89)" style="fill:#1d1d1b"/><path d="M214,623.74a10.5,10.5,0,0,1,6.15,1.63v6.71a8.07,8.07,0,0,0-4.93-1.63,5.24,5.24,0,1,0,0,10.47,8.12,8.12,0,0,0,4.93-1.62V646a10.5,10.5,0,0,1-6.15,1.62c-6.86,0-11.94-4.57-11.94-11.94s5.08-12,11.94-12" transform="translate(-58 -59.89)" style="fill:#1d1d1b"/><path d="M224.57,614.09h8v12.14a8.31,8.31,0,0,1,6.15-2.49c5.09,0,8.08,3.31,8.08,8.39v15h-7.92V634.06c0-1.88-1-3.25-3-3.25a3.28,3.28,0,0,0-3.31,2.49v13.82h-8Z" transform="translate(-58 -59.89)" style="fill:#1d1d1b"/><path d="M267.42,614.39a3.89,3.89,0,1,1,0,7.78,3.89,3.89,0,0,1,0-7.78m-8.95,0a3.89,3.89,0,1,1-3.91,3.92,3.92,3.92,0,0,1,3.91-3.92M274,647.12h-8v-2a8.15,8.15,0,0,1-6.1,2.49c-5,0-8-3.3-8-8.38v-15h7.92v13.12c0,1.93.92,3.3,2.95,3.3a3.36,3.36,0,0,0,3.26-2.54V624.25h8Z" transform="translate(-58 -59.89)" style="fill:#1d1d1b"/><polygon points="231.83 587.23 223.9 587.23 223.9 570.56 219.94 570.56 219.94 564.36 223.9 564.36 223.9 558.06 231.83 558.06 231.83 564.36 236.31 564.36 236.31 570.56 231.83 570.56 231.83 587.23" style="fill:#1d1d1b"/><polygon points="259.43 587.23 238.95 587.23 238.95 587.03 248.3 570.56 239.51 570.56 239.51 564.36 259.43 564.36 259.43 564.57 250.54 580.98 259.43 580.98 259.43 587.23" style="fill:#1d1d1b"/><path d="M328.46,633.05h6.86a3.25,3.25,0,0,0-3.3-3.26c-1.73,0-3,1.17-3.56,3.26m4.47,14.58c-7.32,0-12.3-4.42-12.3-11.79,0-7.17,4.78-12.1,11.08-12.1,7.12,0,10.73,4.63,10.73,11.44v2.34H328.36c.71,2.74,2.89,3.86,5.84,3.86a11.78,11.78,0,0,0,6.61-1.83v6.05c-1.78,1.32-4.58,2-7.88,2" transform="translate(-58 -59.89)" style="fill:#1d1d1b"/><path d="M368.81,634.37h6.41l-3.21-8.8Zm8.85,6.71H366.37l-2.23,6h-8.09l11.9-31.2h8.33l11.9,31.2h-8.29Z" transform="translate(-58 -59.89)" style="fill:#1d1d1b"/><path d="M410.79,639.25v-3h-4.52v-6.51H418v13.78a16.56,16.56,0,0,1-11.49,4.16c-9.75,0-15.85-6.61-15.85-16,0-9.81,6.76-16.21,16.67-16.21a17.12,17.12,0,0,1,9,2.44v7.93a14.73,14.73,0,0,0-9-2.85c-5,0-8.49,3.3-8.49,8.69s3.2,8.74,7.93,8.74a6.58,6.58,0,0,0,4-1.11" transform="translate(-58 -59.89)" style="fill:#1d1d1b"/><rect x="31.54" y="32.16" width="115" height="155.26" style="fill:#e30613"/><path d="M469.84,168.39h24.77l7-33a42.92,42.92,0,0,0,1.06-8.9c0-9.32-4.13-14.9-15.14-14.9a25.74,25.74,0,0,0-19.19,7.93l1.54-7.13H445.39l-12,56h24.77l7.69-36.27a8.29,8.29,0,0,1,7.13-4c3.15,0,4.94,1.78,4.13,5.59ZM379.16,150.5c-9.14,3.24-33.27,7.85-32-5.1h34.57a41.12,41.12,0,0,0,2.6-13.36c0-12.79-9-20.89-24.21-20.89-20.65,0-36.19,14.49-36.19,34.25,0,15.38,9.63,24.2,29.39,24.2a65.8,65.8,0,0,0,22.18-3.72ZM217.48,163.69c6.64,3.57,13.69,5.75,24.05,5.75,16.52,0,29.23-5.75,29.23-20,0-9.15-5.83-13-13.92-15.87-5.84-2-10.13-3.24-10.13-5.51,0-1.78,2.27-2.18,5-2.18a47.94,47.94,0,0,1,19.35,4.69l3.32-14.73a57.8,57.8,0,0,0-22.75-4.54c-16.68,0-27.77,6.48-27.77,19.76,0,10.2,6.88,14,13,16.11,6.88,2.35,10.28,3,10.28,5.26,0,1.86-2,2.43-5,2.43-7,0-15.46-3-21.21-6.39Zm60.72-35.78h7.62l-4.62,20.16c-3.24,14,2.92,21.13,18.87,21.13,5.18,0,11.65-.65,15.38-1.78l3-14.09a20.67,20.67,0,0,1-5.91.81c-8.17,0-7.28-4-6.23-8.74l3.89-17.49h12.22l2.92-13.68H313.18l3.32-15.46H295.37c-3.32,12.87-4.86,16.35-14.49,16.35Zm131.73,40.48,7-32.95c3.32-3.56,11.5-3.8,17.08-1.7l4.7-21.86C430,110,425,114.47,419.64,121l1.87-8.67H397.14l-12,56Zm-47.69-34.57H349.05c1.29-8.74,6-11.25,9.31-11.25,5,0,5.58,5,3.88,11.25" transform="translate(-58 -59.89)" style="fill:#1d1d1b"/><polygon points="143.23 36.12 116.01 96.88 141.89 119.32 112.15 121.28 112.01 150.1 94.01 131.99 33.99 184.39 64.46 124.43 36.69 125.77 68.91 97.77 35.24 35.23 92.68 79.33 143.23 36.12" style="fill:#fff"/><path d="M81.3,714.45,80.14,713l1.64-1.2,1.11,1.39a6.34,6.34,0,0,0,.89-3.58c0-3-1.62-5.1-4.08-5.1s-4,2.14-4,5.1,1.59,5.1,4,5.1a4.47,4.47,0,0,0,1.6-.27m1.34,1.68a6.2,6.2,0,0,1-2.94.71c-3.78,0-6.44-3.05-6.44-7.22s2.66-7.22,6.44-7.22,6.47,3,6.47,7.22a7.58,7.58,0,0,1-1.93,5.26l1.16,1.44-1.62,1.23Z" transform="translate(-58 -59.89)" style="fill:#1d1d1b"/><path d="M96.77,716.61H94.49v-1a3.65,3.65,0,0,1-2.71,1.18c-2.3,0-3.55-1.53-3.55-3.76V706.5H90.5v6.19c0,1.26.6,2.08,1.89,2.08a2.13,2.13,0,0,0,2.1-1.62V706.5h2.28Z" transform="translate(-58 -59.89)" style="fill:#1d1d1b"/><path d="M101.23,710.32h4.4a2,2,0,0,0-2.07-2.14,2.39,2.39,0,0,0-2.33,2.14m2.67,6.52a4.8,4.8,0,0,1-5-5.19c0-3.17,1.93-5.38,4.65-5.38s4.26,2,4.26,5v.82h-6.68a2.86,2.86,0,0,0,3.1,2.82,4.6,4.6,0,0,0,2.89-.93v2a5.2,5.2,0,0,1-3.21.89" transform="translate(-58 -59.89)" style="fill:#1d1d1b"/><rect x="51.96" y="641.91" width="2.28" height="14.81" style="fill:#1d1d1b"/><rect x="57.06" y="641.91" width="2.28" height="14.81" style="fill:#1d1d1b"/><path d="M121.81,710.32h4.39a2,2,0,0,0-2.07-2.14,2.37,2.37,0,0,0-2.32,2.14m2.66,6.52a4.8,4.8,0,0,1-5-5.19c0-3.17,1.94-5.38,4.65-5.38s4.26,2,4.26,5v.82h-6.68a2.86,2.86,0,0,0,3.1,2.82,4.65,4.65,0,0,0,2.9-.93v2a5.25,5.25,0,0,1-3.22.89" transform="translate(-58 -59.89)" style="fill:#1d1d1b"/><path d="M131.4,713.63a1.57,1.57,0,1,1-1.55,1.57,1.54,1.54,0,0,1,1.55-1.57m0-6.84a1.58,1.58,0,1,1-1.55,1.58,1.55,1.55,0,0,1,1.55-1.58" transform="translate(-58 -59.89)" style="fill:#1d1d1b"/><polygon points="81.4 642.74 93.06 642.74 93.06 644.83 88.41 644.83 88.41 656.72 86.04 656.72 86.04 644.83 81.4 644.83 81.4 642.74" style="fill:#1d1d1b"/><polygon points="104.43 642.74 104.43 644.83 97.62 644.83 97.62 648.52 103.79 648.52 103.79 650.59 97.62 650.59 97.62 654.6 104.43 654.6 104.43 656.72 95.29 656.72 95.29 642.74 104.43 642.74" style="fill:#1d1d1b"/><path d="M167.37,709h3c1.57,0,2.46-.84,2.46-2.14s-.89-2.14-2.46-2.14h-3ZM165,702.63h5.4c2.9,0,4.76,1.45,4.76,4.19a3.81,3.81,0,0,1-3.55,4l4,5.76H173l-3.87-5.67h-1.71v5.67H165Z" transform="translate(-58 -59.89)" style="fill:#1d1d1b"/><path d="M180,709h3c1.58,0,2.46-.84,2.46-2.14s-.88-2.14-2.46-2.14h-3Zm-2.37-6.33h5.4c2.89,0,4.76,1.45,4.76,4.19a3.82,3.82,0,0,1-3.55,4l4,5.76H185.6l-3.87-5.67H180v5.67h-2.37Z" transform="translate(-58 -59.89)" style="fill:#1d1d1b"/><rect x="132.29" y="642.74" width="2.37" height="13.99" style="fill:#1d1d1b"/><polygon points="136.9 642.74 148.56 642.74 148.56 644.83 143.91 644.83 143.91 656.72 141.54 656.72 141.54 644.83 136.9 644.83 136.9 642.74" style="fill:#1d1d1b"/><path d="M214.49,704.52c-2.46,0-4.06,2.14-4.06,5.1s1.6,5.1,4.06,5.1,4.08-2.14,4.08-5.1-1.62-5.1-4.08-5.1m0,12.32c-3.78,0-6.45-3.05-6.45-7.22s2.67-7.22,6.45-7.22,6.47,3,6.47,7.22-2.69,7.22-6.47,7.22" transform="translate(-58 -59.89)" style="fill:#1d1d1b"/><path d="M225.68,709h3c1.57,0,2.46-.84,2.46-2.14s-.89-2.14-2.46-2.14h-3Zm-2.37-6.33h5.4c2.89,0,4.76,1.45,4.76,4.19a3.82,3.82,0,0,1-3.56,4l4,5.76h-2.69l-3.88-5.67h-1.7v5.67h-2.37Z" transform="translate(-58 -59.89)" style="fill:#1d1d1b"/><polygon points="186.72 642.74 189.23 642.74 184.15 651.14 184.15 656.72 181.8 656.72 181.8 651.14 176.74 642.74 179.32 642.74 183.03 649 186.72 642.74" style="fill:#1d1d1b"/><polygon points="205.29 642.74 205.29 644.83 198.48 644.83 198.48 648.52 204.65 648.52 204.65 650.59 198.48 650.59 198.48 654.6 205.29 654.6 205.29 656.72 196.15 656.72 196.15 642.74 205.29 642.74" style="fill:#1d1d1b"/><polygon points="214.54 653.72 210.19 646.93 210.19 656.72 207.87 656.72 207.87 642.74 210.07 642.74 214.61 650.03 219.12 642.74 221.24 642.74 221.24 656.72 218.91 656.72 218.91 646.93 214.63 653.72 214.54 653.72" style="fill:#1d1d1b"/><path d="M284.64,714.56h3c1.59,0,2.46-.79,2.46-2s-.87-2-2.46-2h-3Zm2.57-6.06c1.62,0,2.49-.61,2.49-1.93s-.87-1.89-2.49-1.89h-2.57v3.82Zm5.22,4.1c0,2.62-1.82,4-4.74,4h-5.35v-14h4.9c2.91,0,4.73,1.29,4.73,3.8a3,3,0,0,1-1.82,3,3.38,3.38,0,0,1,2.28,3.21" transform="translate(-58 -59.89)" style="fill:#1d1d1b"/><path d="M297.26,709h3c1.58,0,2.46-.84,2.46-2.14s-.88-2.14-2.46-2.14h-3Zm-2.37-6.33h5.4c2.89,0,4.76,1.45,4.76,4.19a3.82,3.82,0,0,1-3.55,4l4,5.76h-2.69L299,710.94h-1.71v5.67h-2.37Z" transform="translate(-58 -59.89)" style="fill:#1d1d1b"/><path d="M311,710.69h3.83l-1.92-5.17Zm4.6,2h-5.35l-1.44,3.87h-2.39l5.38-14h2.28l5.37,14h-2.41Z" transform="translate(-58 -59.89)" style="fill:#1d1d1b"/><path d="M327.49,702.4a5.67,5.67,0,0,1,3.72,1.21v2.46a5.11,5.11,0,0,0-3.7-1.55c-2.66,0-4.39,2.09-4.39,5.1s1.73,5.08,4.39,5.08a5.09,5.09,0,0,0,3.7-1.53v2.46a5.67,5.67,0,0,1-3.72,1.21c-3.89,0-6.76-2.92-6.76-7.22s2.87-7.22,6.76-7.22" transform="translate(-58 -59.89)" style="fill:#1d1d1b"/><polygon points="285.03 642.74 285.03 644.83 278.22 644.83 278.22 648.52 284.39 648.52 284.39 650.59 278.22 650.59 278.22 654.6 285.03 654.6 285.03 656.72 275.89 656.72 275.89 642.74 285.03 642.74" style="fill:#1d1d1b"/><path d="M73.44,737.66a7,7,0,0,0,4.44,1.62c1.6,0,2.71-.57,2.71-1.82s-.7-1.53-2-2l-2-.73c-1.87-.68-3.28-1.68-3.28-4,0-2.46,2.14-3.81,4.71-3.81a7.57,7.57,0,0,1,4.13,1.14v2.44a6.5,6.5,0,0,0-4.08-1.5c-1.42,0-2.46.54-2.46,1.68s.66,1.44,1.82,1.85l2.25.82c2.19.79,3.19,2,3.19,4,0,2.55-2.16,4-5,4a8,8,0,0,1-4.44-1.23Z" transform="translate(-58 -59.89)" style="fill:#1d1d1b"/><polygon points="30.66 681.26 28.38 681.26 28.38 673.03 26.33 673.03 26.33 671.14 28.38 671.14 28.38 668.43 30.66 668.43 30.66 671.14 32.94 671.14 32.94 673.03 30.66 673.03 30.66 681.26" style="fill:#1d1d1b"/><path d="M101.35,741.15H99.07v-1a3.62,3.62,0,0,1-2.71,1.19c-2.3,0-3.56-1.53-3.56-3.76V731h2.28v6.2c0,1.25.6,2.07,1.89,2.07a2.12,2.12,0,0,0,2.1-1.61V731h2.28Z" transform="translate(-58 -59.89)" style="fill:#1d1d1b"/><path d="M110.74,734.18a2.47,2.47,0,0,0-2.19-1.35c-1.76,0-2.8,1.39-2.8,3.26s1,3.26,2.8,3.26a2.48,2.48,0,0,0,2.19-1.34Zm0,6.1a3.46,3.46,0,0,1-2.58,1.1c-3,0-4.69-2.37-4.69-5.29s1.73-5.28,4.69-5.28a3.46,3.46,0,0,1,2.58,1.09v-5.56H113v14.81h-2.27Z" transform="translate(-58 -59.89)" style="fill:#1d1d1b"/><path d="M118.12,741.15h-2.28V731h2.28ZM117,729.37a1.39,1.39,0,1,1,1.41-1.39,1.41,1.41,0,0,1-1.41,1.39" transform="translate(-58 -59.89)" style="fill:#1d1d1b"/><path d="M122.58,734.86H127a2,2,0,0,0-2.08-2.14,2.36,2.36,0,0,0-2.32,2.14m2.67,6.52a4.82,4.82,0,0,1-5-5.2c0-3.16,1.94-5.37,4.65-5.37s4.26,2,4.26,5v.82h-6.67a2.86,2.86,0,0,0,3.1,2.83,4.65,4.65,0,0,0,2.89-.94v2a5.24,5.24,0,0,1-3.21.89" transform="translate(-58 -59.89)" style="fill:#1d1d1b"/><path d="M146.82,730.81c2.08,0,3.28,1.45,3.28,3.76v6.58h-2.27v-6.22c0-1.25-.55-2.07-1.67-2.07a1.79,1.79,0,0,0-1.8,1.5v6.79h-2.28v-6.22c0-1.25-.54-2.07-1.66-2.07a1.79,1.79,0,0,0-1.8,1.5v6.79h-2.28V731h2.28v.85a3.1,3.1,0,0,1,2.53-1.07,3.27,3.27,0,0,1,2.67,1.34,3.71,3.71,0,0,1,3-1.34" transform="translate(-58 -59.89)" style="fill:#1d1d1b"/><path d="M155.07,741.15h-2.28V731h2.28Zm-1.14-11.78a1.39,1.39,0,1,1,1.41-1.39,1.41,1.41,0,0,1-1.41,1.39" transform="translate(-58 -59.89)" style="fill:#1d1d1b"/><polygon points="103.38 681.26 101.1 681.26 101.1 673.03 99.05 673.03 99.05 671.14 101.1 671.14 101.1 668.43 103.38 668.43 103.38 671.14 105.66 671.14 105.66 673.03 103.38 673.03 103.38 681.26" style="fill:#1d1d1b"/><polygon points="117.3 681.26 115 681.26 115 670.12 111.72 671.78 111.72 669.39 115.91 667.27 117.3 667.27 117.3 681.26" style="fill:#1d1d1b"/><path d="M182.3,733.77a2.78,2.78,0,1,0,2.68,2.78,2.67,2.67,0,0,0-2.68-2.78m-4.83,2.78a8.47,8.47,0,0,1,1.43-4.38l2.89-5h2.44L181.48,732a2.55,2.55,0,0,1,1-.19,4.57,4.57,0,0,1,4.65,4.79,4.83,4.83,0,1,1-9.66,0" transform="translate(-58 -59.89)" style="fill:#1d1d1b"/><path d="M197.36,739.08v2.07h-9.09v-.09l4-5.22c1.37-1.71,2.48-3.08,2.48-4.71a2,2,0,0,0-2.23-2.08,5.86,5.86,0,0,0-4,1.94v-2.35a6,6,0,0,1,4.2-1.71c2.62,0,4.33,1.58,4.33,4.1,0,1.9-1.3,3.67-2.76,5.56l-2,2.49Z" transform="translate(-58 -59.89)" style="fill:#1d1d1b"/><path d="M204.4,735.57v-8.41h2.37v8.16c0,2.69,1.14,3.94,3.23,3.94s3.24-1.25,3.24-3.94v-8.16h2.36v8.43c0,3.83-2.25,5.79-5.6,5.79s-5.6-2-5.6-5.81" transform="translate(-58 -59.89)" style="fill:#1d1d1b"/><path d="M218.34,731h2.28v1a3.64,3.64,0,0,1,2.73-1.18c2.3,0,3.58,1.52,3.58,3.75v6.59h-2.28V735a1.81,1.81,0,0,0-1.91-2.07,2.14,2.14,0,0,0-2.12,1.62v6.65h-2.28Z" transform="translate(-58 -59.89)" style="fill:#1d1d1b"/><polygon points="175.1 681.26 172.82 681.26 172.82 673.03 170.77 673.03 170.77 671.14 172.82 671.14 172.82 668.43 175.1 668.43 175.1 671.14 177.38 671.14 177.38 673.03 175.1 673.03 175.1 681.26" style="fill:#1d1d1b"/><path d="M239,734.86h4.39a2,2,0,0,0-2.07-2.14,2.36,2.36,0,0,0-2.32,2.14m2.66,6.52c-3,0-5-2-5-5.2s1.94-5.37,4.65-5.37,4.26,2,4.26,5v.82h-6.68a2.87,2.87,0,0,0,3.1,2.83,4.61,4.61,0,0,0,2.89-.94v2a5.2,5.2,0,0,1-3.21.89" transform="translate(-58 -59.89)" style="fill:#1d1d1b"/><path d="M253.4,733.33a2.56,2.56,0,0,0-1.34-.34,2,2,0,0,0-2,1.62v6.54h-2.28V731H250v1.05a2.55,2.55,0,0,1,2.26-1.27,2.84,2.84,0,0,1,1.11.18Z" transform="translate(-58 -59.89)" style="fill:#1d1d1b"/><path d="M255.5,731h2.28v1a3.62,3.62,0,0,1,2.73-1.18c2.3,0,3.58,1.52,3.58,3.75v6.59h-2.28V735a1.81,1.81,0,0,0-1.92-2.07,2.14,2.14,0,0,0-2.11,1.62v6.65H255.5Z" transform="translate(-58 -59.89)" style="fill:#1d1d1b"/><path d="M268.42,734.86h4.39a2,2,0,0,0-2.07-2.14,2.36,2.36,0,0,0-2.32,2.14m2.66,6.52c-3,0-5-2-5-5.2s1.94-5.37,4.65-5.37,4.26,2,4.26,5v.82H268.3a2.87,2.87,0,0,0,3.1,2.83,4.61,4.61,0,0,0,2.89-.94v2a5.2,5.2,0,0,1-3.21.89" transform="translate(-58 -59.89)" style="fill:#1d1d1b"/><path d="M277.14,726.34h2.28V732a3.66,3.66,0,0,1,2.73-1.18c2.3,0,3.58,1.52,3.58,3.76v6.58h-2.28V735c0-1.25-.61-2.07-1.91-2.07a2.14,2.14,0,0,0-2.12,1.62v6.65h-2.28Z" transform="translate(-58 -59.89)" style="fill:#1d1d1b"/><path d="M298.9,730.81c2.07,0,3.28,1.45,3.28,3.76v6.58H299.9v-6.22c0-1.25-.55-2.07-1.66-2.07a1.79,1.79,0,0,0-1.8,1.5v6.79h-2.28v-6.22c0-1.25-.55-2.07-1.66-2.07a1.79,1.79,0,0,0-1.8,1.5v6.79h-2.28V731h2.28v.85a3.1,3.1,0,0,1,2.53-1.07,3.23,3.23,0,0,1,2.66,1.34,3.73,3.73,0,0,1,3-1.34" transform="translate(-58 -59.89)" style="fill:#1d1d1b"/><path d="M306.51,734.86h4.4a2,2,0,0,0-2.08-2.14,2.36,2.36,0,0,0-2.32,2.14m2.66,6.52c-3,0-5-2-5-5.2s1.94-5.37,4.65-5.37,4.26,2,4.26,5v.82H306.4a2.86,2.86,0,0,0,3.09,2.83,4.66,4.66,0,0,0,2.9-.94v2a5.25,5.25,0,0,1-3.22.89" transform="translate(-58 -59.89)" style="fill:#1d1d1b"/><path d="M315.23,731h2.28v1a3.66,3.66,0,0,1,2.74-1.18c2.3,0,3.57,1.52,3.57,3.75v6.59h-2.27V735a1.81,1.81,0,0,0-1.92-2.07,2.14,2.14,0,0,0-2.12,1.62v6.65h-2.28Z" transform="translate(-58 -59.89)" style="fill:#1d1d1b"/><path d="M77.49,759.76h3.83l-1.91-5.17Zm4.61,2H76.74l-1.43,3.88H72.92l5.37-14h2.28l5.38,14H83.53Z" transform="translate(-58 -59.89)" style="fill:#1d1d1b"/><path d="M96.22,765.69H93.94v-1a3.58,3.58,0,0,1-2.71,1.18c-2.3,0-3.55-1.52-3.55-3.76v-6.58H90v6.2c0,1.25.59,2.07,1.89,2.07a2.1,2.1,0,0,0,2.09-1.62v-6.65h2.28Z" transform="translate(-58 -59.89)" style="fill:#1d1d1b"/><path d="M98.59,762.54A5,5,0,0,0,102,764c1,0,1.75-.32,1.75-1.07s-.54-.93-1.34-1.18l-1.09-.34c-1.69-.53-2.74-1.33-2.74-3.06s1.64-3,3.81-3a5.31,5.31,0,0,1,3,.89v2.3a4.62,4.62,0,0,0-3-1.3c-.91,0-1.62.37-1.62,1s.43.89,1.3,1.16l1.32.41c1.68.53,2.57,1.44,2.57,3,0,2-1.73,3.07-4,3.07a5.53,5.53,0,0,1-3.4-1Z" transform="translate(-58 -59.89)" style="fill:#1d1d1b"/><path d="M114.74,758.55a2.48,2.48,0,0,0-2.16-1.2c-1.75,0-2.76,1.34-2.76,3.19s1,3.19,2.76,3.19a2.49,2.49,0,0,0,2.16-1.21Zm0,6.13a3.39,3.39,0,0,1-2.55,1.05c-3,0-4.67-2.48-4.67-5.19s1.69-5.2,4.67-5.2a3.39,3.39,0,0,1,2.55,1v-.82H117v9.27c0,3.69-2.8,4.95-5.19,4.95a6.43,6.43,0,0,1-3.37-.87v-2.41a4.72,4.72,0,0,0,3.37,1.27,2.67,2.67,0,0,0,2.91-2.78Z" transform="translate(-58 -59.89)" style="fill:#1d1d1b"/><path d="M125.45,762.15a2.18,2.18,0,0,0-2-1c-1,0-2.09.43-2.09,1.43s1.07,1.46,2.09,1.46a2.18,2.18,0,0,0,2-1Zm0-2.93c0-1.14-.91-1.8-2.32-1.8a4.93,4.93,0,0,0-2.8.88v-2.09a6,6,0,0,1,3.21-.87c2.62,0,4.1,1.41,4.1,3.72v6.62h-2.19v-.56a4,4,0,0,1-2.48.75c-2.07,0-3.78-1.23-3.78-3.31,0-1.91,1.71-3.25,3.94-3.25a4.71,4.71,0,0,1,2.32.61Z" transform="translate(-58 -59.89)" style="fill:#1d1d1b"/><path d="M132.61,762.54a2.46,2.46,0,0,0,2.19,1.35c1.75,0,2.8-1.39,2.8-3.26s-1-3.26-2.8-3.26a2.47,2.47,0,0,0-2.19,1.34Zm0,3.15h-2.28V750.88h2.28v5.56a3.44,3.44,0,0,1,2.57-1.1c3,0,4.7,2.39,4.7,5.29s-1.74,5.28-4.7,5.28a3.43,3.43,0,0,1-2.57-1.09Z" transform="translate(-58 -59.89)" style="fill:#1d1d1b"/><path d="M143.63,759.4H148a2,2,0,0,0-2.07-2.14,2.38,2.38,0,0,0-2.33,2.14m2.67,6.51a4.8,4.8,0,0,1-5-5.19c0-3.17,1.93-5.38,4.65-5.38s4.26,2,4.26,5v.82h-6.68a2.86,2.86,0,0,0,3.1,2.82,4.6,4.6,0,0,0,2.89-.93v2a5.2,5.2,0,0,1-3.21.89" transform="translate(-58 -59.89)" style="fill:#1d1d1b"/><path d="M156.76,751.7h8.29v.07l-3,5.6a3.88,3.88,0,0,1,3.14,4,4.49,4.49,0,0,1-4.69,4.55,5.94,5.94,0,0,1-3.85-1.18v-2.42a5.31,5.31,0,0,0,3.69,1.55c1.64,0,2.71-.77,2.71-2.48s-1.68-2.67-3.94-2.67v-.06l2.62-4.86h-4.94Z" transform="translate(-58 -59.89)" style="fill:#1d1d1b"/><path d="M171.47,759.08a2.78,2.78,0,1,0-2.68-2.78,2.67,2.67,0,0,0,2.68,2.78m4.83-2.78a8.47,8.47,0,0,1-1.43,4.37l-2.89,5h-2.44l2.75-4.78a2.55,2.55,0,0,1-1,.18,4.56,4.56,0,0,1-4.64-4.78,4.83,4.83,0,1,1,9.65,0" transform="translate(-58 -59.89)" style="fill:#1d1d1b"/><polygon points="124.75 690.99 127.01 690.99 121.36 707.71 119.1 707.71 124.75 690.99" style="fill:#1d1d1b"/><path d="M194.67,763.61v2.07h-9.09v-.09l4-5.21c1.37-1.71,2.49-3.08,2.49-4.72a2,2,0,0,0-2.24-2.07,5.89,5.89,0,0,0-4,1.93v-2.34a5.89,5.89,0,0,1,4.19-1.71c2.62,0,4.33,1.57,4.33,4.1,0,1.89-1.3,3.67-2.76,5.56l-2,2.48Z" transform="translate(-58 -59.89)" style="fill:#1d1d1b"/><path d="M198.52,758.69c0,2.94.91,5.08,3,5.08s3-2.14,3-5.08-.91-5.08-3-5.08-3,2.14-3,5.08m-2.3,0c0-4.26,2.12-7.22,5.28-7.22s5.29,3,5.29,7.22-2.12,7.22-5.29,7.22-5.28-3-5.28-7.22" transform="translate(-58 -59.89)" style="fill:#1d1d1b"/><polygon points="155.67 705.79 153.37 705.79 153.37 694.65 150.09 696.32 150.09 693.93 154.28 691.81 155.67 691.81 155.67 705.79" style="fill:#1d1d1b"/><path d="M220.66,759.08A2.78,2.78,0,1,0,218,756.3a2.67,2.67,0,0,0,2.69,2.78m4.83-2.78a8.56,8.56,0,0,1-1.43,4.37l-2.9,5h-2.43l2.75-4.78a2.55,2.55,0,0,1-1,.18,4.56,4.56,0,0,1-4.65-4.78,4.83,4.83,0,0,1,9.66,0" transform="translate(-58 -59.89)" style="fill:#1d1d1b"/><path d="M296.92,762.91v-2.69h-2.65v-2h4.83v5.6a6.69,6.69,0,0,1-5,2.07c-4.14,0-6.72-3-6.72-7.22a6.85,6.85,0,0,1,7-7.22,6.46,6.46,0,0,1,4,1.21v2.46a5.68,5.68,0,0,0-4-1.55c-2.74,0-4.6,2.09-4.6,5.1s1.61,5.13,4.37,5.13a4.27,4.27,0,0,0,2.76-.91" transform="translate(-58 -59.89)" style="fill:#1d1d1b"/><path d="M307.63,751.31a1.33,1.33,0,0,1,1.34,1.34,1.35,1.35,0,0,1-1.34,1.33,1.34,1.34,0,0,1-1.33-1.33,1.32,1.32,0,0,1,1.33-1.34m-3.49,0a1.31,1.31,0,0,1,1.32,1.34,1.33,1.33,0,1,1-1.32-1.34m5.92,14.38h-2.27v-1a3.62,3.62,0,0,1-2.72,1.18c-2.3,0-3.55-1.52-3.55-3.76v-6.58h2.28v6.2c0,1.25.59,2.07,1.89,2.07a2.12,2.12,0,0,0,2.1-1.62v-6.65h2.27Z" transform="translate(-58 -59.89)" style="fill:#1d1d1b"/><rect x="254.89" y="690.99" width="2.28" height="14.81" style="fill:#1d1d1b"/><polygon points="263.48 705.79 261.2 705.79 261.2 697.57 259.15 697.57 259.15 695.68 261.2 695.68 261.2 692.97 263.48 692.97 263.48 695.68 265.76 695.68 265.76 697.57 263.48 697.57 263.48 705.79" style="fill:#1d1d1b"/><path d="M328,765.69h-2.28V755.57H328Zm-1.14-11.78a1.39,1.39,0,1,1,1.41-1.39,1.42,1.42,0,0,1-1.41,1.39" transform="translate(-58 -59.89)" style="fill:#1d1d1b"/><path d="M337.38,758.55a2.51,2.51,0,0,0-2.16-1.2c-1.76,0-2.76,1.34-2.76,3.19s1,3.19,2.76,3.19a2.51,2.51,0,0,0,2.16-1.21Zm0,6.13a3.39,3.39,0,0,1-2.55,1.05c-3,0-4.67-2.48-4.67-5.19s1.68-5.2,4.67-5.2a3.39,3.39,0,0,1,2.55,1v-.82h2.28v9.27c0,3.69-2.8,4.95-5.2,4.95a6.45,6.45,0,0,1-3.37-.87v-2.41a4.74,4.74,0,0,0,3.37,1.27,2.68,2.68,0,0,0,2.92-2.78Z" transform="translate(-58 -59.89)" style="fill:#1d1d1b"/><path d="M349.8,762.54a2.46,2.46,0,0,0,2.19,1.35c1.75,0,2.8-1.39,2.8-3.26s-1.05-3.26-2.8-3.26a2.47,2.47,0,0,0-2.19,1.34Zm0,3.15h-2.28V750.88h2.28v5.56a3.44,3.44,0,0,1,2.57-1.1c3,0,4.7,2.39,4.7,5.29s-1.74,5.28-4.7,5.28a3.43,3.43,0,0,1-2.57-1.09Z" transform="translate(-58 -59.89)" style="fill:#1d1d1b"/><path d="M361.46,765.69h-2.28V755.57h2.28Zm-1.14-11.78a1.39,1.39,0,1,1,1.42-1.39,1.42,1.42,0,0,1-1.42,1.39" transform="translate(-58 -59.89)" style="fill:#1d1d1b"/><path d="M363.83,762.54a5,5,0,0,0,3.42,1.48c1,0,1.75-.32,1.75-1.07s-.54-.93-1.34-1.18l-1.09-.34c-1.69-.53-2.74-1.33-2.74-3.06s1.64-3,3.81-3a5.31,5.31,0,0,1,3,.89v2.3a4.62,4.62,0,0,0-3-1.3c-.91,0-1.62.37-1.62,1s.43.89,1.3,1.16l1.32.41c1.68.53,2.57,1.44,2.57,3,0,2-1.73,3.07-4,3.07a5.53,5.53,0,0,1-3.4-1Z" transform="translate(-58 -59.89)" style="fill:#1d1d1b"/><path d="M378.07,762.2a7.09,7.09,0,0,0,4.44,1.62c1.6,0,2.71-.57,2.71-1.83,0-1.09-.7-1.52-2-2l-2-.73c-1.87-.68-3.28-1.69-3.28-4,0-2.46,2.14-3.8,4.71-3.8a7.55,7.55,0,0,1,4.13,1.14v2.44a6.51,6.51,0,0,0-4.08-1.51c-1.41,0-2.46.55-2.46,1.69s.66,1.43,1.82,1.84l2.26.82c2.18.8,3.19,2,3.19,4.06,0,2.55-2.17,4-5,4a7.94,7.94,0,0,1-4.44-1.23Z" transform="translate(-58 -59.89)" style="fill:#1d1d1b"/><path d="M391.44,759.4h4.4a2,2,0,0,0-2.07-2.14,2.38,2.38,0,0,0-2.33,2.14m2.67,6.51a4.8,4.8,0,0,1-5-5.19c0-3.17,1.93-5.38,4.65-5.38s4.26,2,4.26,5v.82h-6.68a2.86,2.86,0,0,0,3.1,2.82,4.6,4.6,0,0,0,2.89-.93v2a5.2,5.2,0,0,1-3.21.89" transform="translate(-58 -59.89)" style="fill:#1d1d1b"/><path d="M402.45,762.54a2.46,2.46,0,0,0,2.19,1.35c1.75,0,2.8-1.39,2.8-3.26s-1.05-3.26-2.8-3.26a2.47,2.47,0,0,0-2.19,1.34Zm0,7h-2.28v-14h2.28v.87a3.44,3.44,0,0,1,2.57-1.1c3,0,4.7,2.46,4.7,5.29s-1.74,5.28-4.7,5.28a3.43,3.43,0,0,1-2.57-1.09Z" transform="translate(-58 -59.89)" style="fill:#1d1d1b"/><polygon points="357.32 705.79 355.04 705.79 355.04 697.57 352.99 697.57 352.99 695.68 355.04 695.68 355.04 692.97 357.32 692.97 357.32 695.68 359.6 695.68 359.6 697.57 357.32 697.57 357.32 705.79" style="fill:#1d1d1b"/><path d="M421.24,759.4h4.4a2,2,0,0,0-2.07-2.14,2.38,2.38,0,0,0-2.33,2.14m2.67,6.51a4.8,4.8,0,0,1-5-5.19c0-3.17,1.93-5.38,4.65-5.38s4.26,2,4.26,5v.82h-6.68a2.86,2.86,0,0,0,3.1,2.82,4.6,4.6,0,0,0,2.89-.93v2a5.2,5.2,0,0,1-3.21.89" transform="translate(-58 -59.89)" style="fill:#1d1d1b"/><path d="M440.45,755.34c2.07,0,3.28,1.46,3.28,3.76v6.59h-2.28v-6.22c0-1.26-.54-2.08-1.66-2.08a1.79,1.79,0,0,0-1.8,1.51v6.79h-2.28v-6.22c0-1.26-.55-2.08-1.66-2.08a1.79,1.79,0,0,0-1.8,1.51v6.79H430V755.57h2.28v.84a3.13,3.13,0,0,1,2.53-1.07,3.21,3.21,0,0,1,2.66,1.35,3.74,3.74,0,0,1,3-1.35" transform="translate(-58 -59.89)" style="fill:#1d1d1b"/><path d="M448.7,762.54a2.46,2.46,0,0,0,2.19,1.35c1.75,0,2.8-1.39,2.8-3.26s-1.05-3.26-2.8-3.26a2.47,2.47,0,0,0-2.19,1.34Zm0,3.15h-2.28V750.88h2.28v5.56a3.44,3.44,0,0,1,2.57-1.1c3,0,4.7,2.39,4.7,5.29s-1.74,5.28-4.7,5.28a3.43,3.43,0,0,1-2.57-1.09Z" transform="translate(-58 -59.89)" style="fill:#1d1d1b"/><path d="M459.73,759.4h4.39a2,2,0,0,0-2.07-2.14,2.36,2.36,0,0,0-2.32,2.14m2.66,6.51a4.8,4.8,0,0,1-5-5.19c0-3.17,1.94-5.38,4.65-5.38s4.26,2,4.26,5v.82h-6.68a2.86,2.86,0,0,0,3.1,2.82,4.6,4.6,0,0,0,2.89-.93v2a5.2,5.2,0,0,1-3.21.89" transform="translate(-58 -59.89)" style="fill:#1d1d1b"/><path d="M474.1,757.87a2.47,2.47,0,0,0-1.34-.34,2,2,0,0,0-2,1.62v6.53h-2.28V755.57h2.28v1a2.56,2.56,0,0,1,2.26-1.28,2.84,2.84,0,0,1,1.11.18Z" transform="translate(-58 -59.89)" style="fill:#1d1d1b"/><path d="M489.36,763.61v2.07h-9.08v-.09l4.05-5.21c1.37-1.71,2.48-3.08,2.48-4.72a2,2,0,0,0-2.23-2.07,5.9,5.9,0,0,0-4,1.93v-2.34a5.91,5.91,0,0,1,4.2-1.71c2.62,0,4.32,1.57,4.32,4.1,0,1.89-1.29,3.67-2.75,5.56l-2,2.48Z" transform="translate(-58 -59.89)" style="fill:#1d1d1b"/><path d="M493.22,758.69c0,2.94.91,5.08,3,5.08s3-2.14,3-5.08-.91-5.08-3-5.08-3,2.14-3,5.08m-2.31,0c0-4.26,2.12-7.22,5.29-7.22s5.29,3,5.29,7.22-2.12,7.22-5.29,7.22-5.29-3-5.29-7.22" transform="translate(-58 -59.89)" style="fill:#1d1d1b"/><path d="M511.9,763.61v2.07h-9.09v-.09l4.05-5.21c1.37-1.71,2.49-3.08,2.49-4.72a2,2,0,0,0-2.23-2.07,5.9,5.9,0,0,0-4,1.93v-2.34a5.91,5.91,0,0,1,4.19-1.71c2.62,0,4.33,1.57,4.33,4.1,0,1.89-1.3,3.67-2.76,5.56l-2,2.48Z" transform="translate(-58 -59.89)" style="fill:#1d1d1b"/><path d="M515.75,758.69c0,2.94.91,5.08,3,5.08s3-2.14,3-5.08-.91-5.08-3-5.08-3,2.14-3,5.08m-2.3,0c0-4.26,2.12-7.22,5.28-7.22s5.29,3,5.29,7.22-2.12,7.22-5.29,7.22-5.28-3-5.28-7.22" transform="translate(-58 -59.89)" style="fill:#1d1d1b"/><polygon points="140.09 461.06 163.45 479.79 184.37 460.98 172.8 487.51 183.66 496.71 171.55 497.62 171.47 510.11 163.92 502.22 139.3 524.56 152.12 498.93 140.25 499.75 153.94 487.76 140.09 461.06" style="fill:#e52629"/><polygon points="190.97 461.06 214.32 479.79 235.24 460.98 223.68 487.51 234.53 496.71 222.42 497.62 222.34 510.11 214.8 502.22 190.18 524.56 202.99 498.93 191.12 499.75 204.81 487.76 190.97 461.06" style="fill:#e52629"/><polygon points="241.84 461.06 265.2 479.79 286.12 460.98 274.55 487.51 285.41 496.71 273.3 497.62 273.22 510.11 265.66 502.22 241.04 524.56 253.87 498.93 242 499.75 255.68 487.76 241.84 461.06" style="fill:#e52629"/><polygon points="292.71 461.06 316.07 479.79 336.98 460.98 325.42 487.51 336.27 496.71 324.17 497.62 324.09 510.11 316.54 502.22 291.92 524.56 304.74 498.93 292.86 499.75 306.55 487.76 292.71 461.06" style="fill:#e52629"/></svg>