<svg id="Benefits_MKK" data-name="Benefits MKK" xmlns="http://www.w3.org/2000/svg" viewBox="0 0 433 236"><defs><style>.cls-1{fill:#fff;}.cls-2{fill:#fdc62d;}</style></defs><title>Benefits_Schuetze</title><path class="cls-1" d="M84.55,194.52V173.74H95.26V176H87.2v6.68h7.48V185H87.2v7.2h8.23v2.3Z"/><path class="cls-1" d="M98.48,173.74h2.65v2.53H98.48Zm2.5,20.78H98.62V180H101Z"/><path class="cls-1" d="M112.76,180h2.36v16a4.51,4.51,0,0,1-.39,2,3,3,0,0,1-1.09,1.24,4.71,4.71,0,0,1-1.69.62,13.13,13.13,0,0,1-2.18.17,6.22,6.22,0,0,1-1.75-.23,4.39,4.39,0,0,1-1.44-.7,3.27,3.27,0,0,1-1-1.21,3.34,3.34,0,0,1-.26-1.74H108a2.07,2.07,0,0,0,.63,1.55,2.29,2.29,0,0,0,1.59.55,2.45,2.45,0,0,0,1.88-.69,2.57,2.57,0,0,0,.65-1.82v-3h-.09a3.29,3.29,0,0,1-1.35,1.34,3.84,3.84,0,0,1-1.84.47,4.3,4.3,0,0,1-2.39-.6,4,4,0,0,1-1.44-1.64,7.75,7.75,0,0,1-.71-2.45,23.93,23.93,0,0,1-.18-3,11.44,11.44,0,0,1,.54-3.93,5.88,5.88,0,0,1,1.28-2.13,3.22,3.22,0,0,1,1.51-.88,5.7,5.7,0,0,1,1.21-.17,4,4,0,0,1,2,.5,3.37,3.37,0,0,1,1.37,1.57h.06Zm.06,7.2q0-.81,0-1.77a6.92,6.92,0,0,0-.28-1.8,3.05,3.05,0,0,0-.82-1.39,2.3,2.3,0,0,0-1.69-.56,2.15,2.15,0,0,0-1.57.53,3,3,0,0,0-.82,1.32,6.58,6.58,0,0,0-.32,1.69c0,.59-.06,1.13-.06,1.61a17.13,17.13,0,0,0,.19,2.86,5.2,5.2,0,0,0,.56,1.76,2.11,2.11,0,0,0,.89.89,2.8,2.8,0,0,0,1.18.25,2.2,2.2,0,0,0,1.63-.57,3.3,3.3,0,0,0,.82-1.38,6.54,6.54,0,0,0,.29-1.75C112.81,188.24,112.82,187.68,112.82,187.18Z"/><path class="cls-1" d="M121.77,188a12.65,12.65,0,0,0,.2,2.47,4.17,4.17,0,0,0,.58,1.49,1.81,1.81,0,0,0,.92.71,3.63,3.63,0,0,0,1.24.19,2.27,2.27,0,0,0,1.06-.23,2.33,2.33,0,0,0,.78-.6,2.78,2.78,0,0,0,.49-.88,4.15,4.15,0,0,0,.2-1h2.59a4.41,4.41,0,0,1-1.4,3.57,5.59,5.59,0,0,1-3.67,1.12,9.41,9.41,0,0,1-2.16-.24,3.62,3.62,0,0,1-1.75-1,5.3,5.3,0,0,1-1.18-2.21,13.83,13.83,0,0,1-.43-3.86,28.74,28.74,0,0,1,.15-3,7,7,0,0,1,.72-2.47,4.17,4.17,0,0,1,1.66-1.67,6,6,0,0,1,3-.62,6.57,6.57,0,0,1,2.57.43,3.5,3.5,0,0,1,1.58,1.31,5.77,5.77,0,0,1,.8,2.2,17.92,17.92,0,0,1,.23,3.14V188Zm5.67-1.79a11.34,11.34,0,0,0-.22-2.52,3.88,3.88,0,0,0-.59-1.44,1.59,1.59,0,0,0-.92-.64,4.43,4.43,0,0,0-1.18-.15,3,3,0,0,0-1.06.18,1.77,1.77,0,0,0-.87.69,4.11,4.11,0,0,0-.6,1.45,10.69,10.69,0,0,0-.23,2.43Z"/><path class="cls-1" d="M141.75,194.52V184.45a4.88,4.88,0,0,0-.12-1.1,2.3,2.3,0,0,0-.4-.9,2,2,0,0,0-.79-.61,3.3,3.3,0,0,0-1.25-.21,2.73,2.73,0,0,0-1.56.39,2.6,2.6,0,0,0-.89,1,4.44,4.44,0,0,0-.42,1.38,11.19,11.19,0,0,0-.1,1.52v8.6h-2.36V183c0-.5,0-1,0-1.51s-.07-1-.1-1.52h2.5v1.88h.12a4,4,0,0,1,1.58-1.7,5,5,0,0,1,2.3-.46,4.86,4.86,0,0,1,1.92.33,2.71,2.71,0,0,1,1.19,1,4.17,4.17,0,0,1,.61,1.51,10.65,10.65,0,0,1,.17,1.95v10.07Z"/><path class="cls-1" d="M157.61,190.38a4.79,4.79,0,0,1-.39,2,3.72,3.72,0,0,1-1.06,1.37,4.61,4.61,0,0,1-1.62.78,8,8,0,0,1-2,.24,5.68,5.68,0,0,1-3.71-1.11,4.3,4.3,0,0,1-1.3-3.61h2.68c0,.21,0,.47,0,.79a2.34,2.34,0,0,0,.28.92,2,2,0,0,0,.72.77,2.54,2.54,0,0,0,1.38.31,2.88,2.88,0,0,0,1.78-.54,2,2,0,0,0,.72-1.67,1.41,1.41,0,0,0-.53-1.11,6.24,6.24,0,0,0-1.34-.9c-.53-.27-1.12-.55-1.75-.83a10,10,0,0,1-1.76-1,5.26,5.26,0,0,1-1.34-1.32,3.21,3.21,0,0,1-.53-1.86,4.76,4.76,0,0,1,.2-1.27,3.31,3.31,0,0,1,.76-1.29,4.3,4.3,0,0,1,1.54-1,6.67,6.67,0,0,1,2.51-.4,6.82,6.82,0,0,1,1.84.24,4.53,4.53,0,0,1,1.51.74,3.12,3.12,0,0,1,1,1.28,3.78,3.78,0,0,1,.25,1.85h-2.62a2.26,2.26,0,0,0-.56-1.74,2.32,2.32,0,0,0-1.71-.59,2.53,2.53,0,0,0-1.6.51,1.72,1.72,0,0,0-.64,1.45,1.37,1.37,0,0,0,.53,1.09,6.21,6.21,0,0,0,1.34.87c.53.27,1.12.54,1.75.8a9.33,9.33,0,0,1,1.76,1,5.17,5.17,0,0,1,1.34,1.34A3.26,3.26,0,0,1,157.61,190.38Z"/><path class="cls-1" d="M161.3,180v-2.79l2.36-1.06V180h3.16v1.79h-3.16v8.9c0,.23,0,.47,0,.72a1.41,1.41,0,0,0,.23.67,1.58,1.58,0,0,0,.65.51,3.23,3.23,0,0,0,1.25.2l.41,0,.66-.09v1.82c-.39,0-.77.08-1.17.14a7.65,7.65,0,0,1-1.16.09,3.73,3.73,0,0,1-2.48-.67,2.37,2.37,0,0,1-.77-1.92V181.77h-2.39V180Z"/><path class="cls-1" d="M176.52,192.42h-.05a4,4,0,0,1-1.42,1.83,4.06,4.06,0,0,1-2.24.56,4.43,4.43,0,0,1-1.91-.36,3.18,3.18,0,0,1-1.23-1A4,4,0,0,1,169,192a9.64,9.64,0,0,1-.18-1.92,3.84,3.84,0,0,1,2.56-3.94,8.34,8.34,0,0,1,2.47-.52c.91-.06,1.77-.08,2.6-.06q0-.72,0-1.44a3.94,3.94,0,0,0-.26-1.29,2.08,2.08,0,0,0-.74-.94,2.46,2.46,0,0,0-1.45-.36,2.18,2.18,0,0,0-1.8.72,2.5,2.5,0,0,0-.48,1.87h-2.56a4.29,4.29,0,0,1,1.34-3.41,5.81,5.81,0,0,1,3.59-1,6.55,6.55,0,0,1,2.31.34,3.61,3.61,0,0,1,1.44.94,3.21,3.21,0,0,1,.75,1.38,6.67,6.67,0,0,1,.22,1.71v7c0,.57,0,1.15.07,1.74s.12,1.16.21,1.71h-2.59ZM173,177.54h-2.7v-3H173Zm3.49,9.76-1.77,0a5.79,5.79,0,0,0-1.72.28,2.92,2.92,0,0,0-1.28.85,2.62,2.62,0,0,0-.5,1.74,3.29,3.29,0,0,0,.54,1.88,2,2,0,0,0,1.73.8,3.12,3.12,0,0,0,1.11-.21,2.4,2.4,0,0,0,1-.82,4.83,4.83,0,0,0,.7-1.7A10.48,10.48,0,0,0,176.47,187.3Zm1.58-9.76h-2.71v-3h2.71Z"/><path class="cls-1" d="M191.32,194.52V184.45a4.88,4.88,0,0,0-.12-1.1,2.3,2.3,0,0,0-.4-.9,1.89,1.89,0,0,0-.79-.61,3.26,3.26,0,0,0-1.25-.21,2.77,2.77,0,0,0-1.56.39,2.6,2.6,0,0,0-.89,1,4.44,4.44,0,0,0-.42,1.38,13.07,13.07,0,0,0-.1,1.52v8.6h-2.36V183c0-.5,0-1,0-1.51s-.06-1-.1-1.52h2.5v1.88h.12a4,4,0,0,1,1.58-1.7,5,5,0,0,1,2.3-.46,4.86,4.86,0,0,1,1.92.33,2.65,2.65,0,0,1,1.19,1,4.17,4.17,0,0,1,.61,1.51,10.65,10.65,0,0,1,.17,1.95v10.07Z"/><path class="cls-1" d="M205.51,173.74h2.36v20.78h-2.36V192.8h0a4.57,4.57,0,0,1-1.4,1.51,3.61,3.61,0,0,1-1.94.5,6.32,6.32,0,0,1-1.72-.24,3.18,3.18,0,0,1-1.51-1,5.76,5.76,0,0,1-1.06-2.21,14.61,14.61,0,0,1-.41-3.83c0-.9,0-1.82.09-2.75a7.89,7.89,0,0,1,.55-2.52,4,4,0,0,1,1.44-1.83,4.59,4.59,0,0,1,2.73-.7,3.62,3.62,0,0,1,1.81.44,4.52,4.52,0,0,1,1.39,1.31h.08Zm0,12.92c0-.48,0-1,0-1.59a5.69,5.69,0,0,0-.34-1.64,3.21,3.21,0,0,0-.82-1.29,2.13,2.13,0,0,0-1.52-.51,2.77,2.77,0,0,0-1.53.37,2.4,2.4,0,0,0-.88,1.12A6.15,6.15,0,0,0,200,185c-.06.73-.09,1.58-.09,2.56,0,.55,0,1.14,0,1.77a6,6,0,0,0,.33,1.73,3.34,3.34,0,0,0,.88,1.32,2.45,2.45,0,0,0,1.71.53,2.05,2.05,0,0,0,1.53-.56,3.28,3.28,0,0,0,.79-1.45,9.16,9.16,0,0,0,.29-2C205.5,188.13,205.51,187.39,205.51,186.66Z"/><path class="cls-1" d="M212.05,173.74h2.65v2.53h-2.65Zm2.5,20.78h-2.36V180h2.36Z"/><path class="cls-1" d="M226.33,180h2.36v16a4.51,4.51,0,0,1-.39,2,3,3,0,0,1-1.1,1.24,4.66,4.66,0,0,1-1.68.62,13.17,13.17,0,0,1-2.19.17,6.2,6.2,0,0,1-1.74-.23,4.2,4.2,0,0,1-1.44-.7,3.27,3.27,0,0,1-1-1.21,3.34,3.34,0,0,1-.26-1.74h2.64a2.08,2.08,0,0,0,.64,1.55,2.28,2.28,0,0,0,1.58.55,2.46,2.46,0,0,0,1.89-.69,2.57,2.57,0,0,0,.65-1.82v-3h-.09a3.29,3.29,0,0,1-1.35,1.34,3.85,3.85,0,0,1-1.85.47,4.32,4.32,0,0,1-2.39-.6,4.18,4.18,0,0,1-1.44-1.64,7.75,7.75,0,0,1-.7-2.45,22.14,22.14,0,0,1-.19-3,11.41,11.41,0,0,1,.55-3.93,5.75,5.75,0,0,1,1.28-2.13,3.17,3.17,0,0,1,1.51-.88,5.62,5.62,0,0,1,1.21-.17,4,4,0,0,1,2,.5,3.37,3.37,0,0,1,1.37,1.57h.06Zm0,7.2q0-.81,0-1.77a6.92,6.92,0,0,0-.27-1.8,3.14,3.14,0,0,0-.82-1.39,2.31,2.31,0,0,0-1.7-.56,2.18,2.18,0,0,0-1.57.53,3.09,3.09,0,0,0-.82,1.32,6.57,6.57,0,0,0-.31,1.69c0,.59-.06,1.13-.06,1.61a17.13,17.13,0,0,0,.19,2.86,5.2,5.2,0,0,0,.56,1.76,2.06,2.06,0,0,0,.89.89,2.8,2.8,0,0,0,1.18.25,2.2,2.2,0,0,0,1.63-.57,3.41,3.41,0,0,0,.82-1.38,6.16,6.16,0,0,0,.28-1.75C226.37,188.24,226.38,187.68,226.38,187.18Z"/><path class="cls-1" d="M235.34,188a11.91,11.91,0,0,0,.2,2.47,4,4,0,0,0,.57,1.49,1.85,1.85,0,0,0,.92.71,3.71,3.71,0,0,0,1.24.19,2.28,2.28,0,0,0,1.07-.23,2.39,2.39,0,0,0,.77-.6,2.44,2.44,0,0,0,.49-.88,3.77,3.77,0,0,0,.21-1h2.59a4.44,4.44,0,0,1-1.4,3.57,5.59,5.59,0,0,1-3.67,1.12,9.28,9.28,0,0,1-2.16-.24,3.65,3.65,0,0,1-1.76-1,5.29,5.29,0,0,1-1.17-2.21,13.78,13.78,0,0,1-.44-3.86,26.18,26.18,0,0,1,.16-3,7,7,0,0,1,.72-2.47,4.11,4.11,0,0,1,1.66-1.67,6,6,0,0,1,3-.62,6.48,6.48,0,0,1,2.56.43,3.53,3.53,0,0,1,1.59,1.31,5.77,5.77,0,0,1,.8,2.2,19,19,0,0,1,.23,3.14V188Zm5.67-1.79a11.34,11.34,0,0,0-.22-2.52,3.88,3.88,0,0,0-.59-1.44,1.66,1.66,0,0,0-.92-.64,4.43,4.43,0,0,0-1.18-.15,3.12,3.12,0,0,0-1.07.18,1.79,1.79,0,0,0-.86.69,4.11,4.11,0,0,0-.6,1.45,10.15,10.15,0,0,0-.23,2.43Z"/><path class="cls-1" d="M254.42,194.52V173.74h6.16a9.14,9.14,0,0,1,2.07.24,4.53,4.53,0,0,1,3.2,2.7,7.23,7.23,0,0,1,.52,3,5.93,5.93,0,0,1-.61,2.89,4.9,4.9,0,0,1-1.49,1.73,5.67,5.67,0,0,1-1.9.85,8.46,8.46,0,0,1-1.82.23h-3.48v9.15Zm2.65-11.45H260a6.59,6.59,0,0,0,1-.11,3.08,3.08,0,0,0,1.23-.46,3,3,0,0,0,1-1.06,3.86,3.86,0,0,0,.41-1.92,4,4,0,0,0-.37-1.87,3,3,0,0,0-.88-1.05,2.74,2.74,0,0,0-1-.46,5,5,0,0,0-.69-.1h-3.66Z"/><path class="cls-1" d="M272.27,182.17h.06a5.67,5.67,0,0,1,.79-1.32,2.82,2.82,0,0,1,.95-.75,3.71,3.71,0,0,1,1.21-.33,14.14,14.14,0,0,1,1.54-.07v2.44l-.32,0-.31,0a1.55,1.55,0,0,0-.31,0,1.72,1.72,0,0,0-.33,0,3.34,3.34,0,0,0-1.61.35,2.82,2.82,0,0,0-1,.89,3.37,3.37,0,0,0-.52,1.27,7.7,7.7,0,0,0-.14,1.43v8.58h-2.36V180h2.36Z"/><path class="cls-1" d="M284.53,194.81a9.41,9.41,0,0,1-2.16-.24,3.62,3.62,0,0,1-1.75-1,5.3,5.3,0,0,1-1.18-2.21,13.83,13.83,0,0,1-.43-3.86,28.74,28.74,0,0,1,.15-3,7,7,0,0,1,.72-2.47,4.17,4.17,0,0,1,1.66-1.67,7.54,7.54,0,0,1,6,0,4.08,4.08,0,0,1,1.65,1.67,6.56,6.56,0,0,1,.72,2.47,26.18,26.18,0,0,1,.16,3,13.83,13.83,0,0,1-.43,3.86,5.3,5.3,0,0,1-1.18,2.21,3.65,3.65,0,0,1-1.76,1A9.28,9.28,0,0,1,284.53,194.81Zm0-1.93a2.94,2.94,0,0,0,1.51-.34,2.34,2.34,0,0,0,.94-1.1,6.19,6.19,0,0,0,.47-2,28.23,28.23,0,0,0,.13-3,11.47,11.47,0,0,0-.21-2.43,4,4,0,0,0-.62-1.47,2.1,2.1,0,0,0-1-.73,3.62,3.62,0,0,0-1.26-.2,3.56,3.56,0,0,0-1.25.2,2.1,2.1,0,0,0-1,.73,3.85,3.85,0,0,0-.62,1.47,10.76,10.76,0,0,0-.22,2.43c0,1.19,0,2.2.13,3a6.44,6.44,0,0,0,.48,2,2.38,2.38,0,0,0,.93,1.1A3,3,0,0,0,284.53,192.88Z"/><path class="cls-1" d="M293.75,180h2.36v16.56a6.72,6.72,0,0,1-.16,1.51,2.26,2.26,0,0,1-.61,1.09,2.71,2.71,0,0,1-1.25.67,8.61,8.61,0,0,1-2.1.21v-2a4.86,4.86,0,0,0,.69,0,1.6,1.6,0,0,0,.56-.18,1,1,0,0,0,.38-.41,1.71,1.71,0,0,0,.13-.72Zm-.15-6.24h2.65v2.53H293.6Z"/><path class="cls-1" d="M302.5,188a11.91,11.91,0,0,0,.2,2.47,4,4,0,0,0,.57,1.49,1.83,1.83,0,0,0,.93.71,3.61,3.61,0,0,0,1.23.19,2.28,2.28,0,0,0,1.07-.23,2.55,2.55,0,0,0,.78-.6,2.58,2.58,0,0,0,.48-.88,3.77,3.77,0,0,0,.21-1h2.59a4.44,4.44,0,0,1-1.4,3.57,5.59,5.59,0,0,1-3.67,1.12,9.28,9.28,0,0,1-2.16-.24,3.57,3.57,0,0,1-1.75-1,5.31,5.31,0,0,1-1.19-2.21,14.22,14.22,0,0,1-.43-3.86,28.65,28.65,0,0,1,.16-3,7,7,0,0,1,.72-2.47,4.17,4.17,0,0,1,1.66-1.67,6,6,0,0,1,3-.62,6.48,6.48,0,0,1,2.56.43,3.53,3.53,0,0,1,1.59,1.31,5.77,5.77,0,0,1,.8,2.2,17.92,17.92,0,0,1,.23,3.14V188Zm5.67-1.79a11.34,11.34,0,0,0-.22-2.52,3.88,3.88,0,0,0-.59-1.44,1.66,1.66,0,0,0-.92-.64,4.49,4.49,0,0,0-1.18-.15,3,3,0,0,0-1.06.18,1.77,1.77,0,0,0-.87.69,4.11,4.11,0,0,0-.6,1.45,10.15,10.15,0,0,0-.23,2.43Z"/><path class="cls-1" d="M317,194.52h-2.36V173.74H317v12.52H317l4.43-6.28h2.88l-4.84,6.25,5.7,8.29h-3L317,186.38H317Z"/><path class="cls-1" d="M327.63,180v-2.79l2.36-1.06V180h3.16v1.79H330v8.9q0,.35,0,.72a1.31,1.31,0,0,0,.23.67,1.54,1.54,0,0,0,.64.51,3.25,3.25,0,0,0,1.26.2l.4,0,.66-.09v1.82c-.38,0-.77.08-1.16.14a7.88,7.88,0,0,1-1.17.09,3.75,3.75,0,0,1-2.48-.67,2.4,2.4,0,0,1-.77-1.92V181.77h-2.39V180Z"/><path class="cls-1" d="M337.67,188a11.82,11.82,0,0,0,.21,2.47,4,4,0,0,0,.57,1.49,1.85,1.85,0,0,0,.92.71,3.71,3.71,0,0,0,1.24.19,2.31,2.31,0,0,0,1.07-.23,2.39,2.39,0,0,0,.77-.6,2.6,2.6,0,0,0,.49-.88,3.43,3.43,0,0,0,.2-1h2.59a4.41,4.41,0,0,1-1.39,3.57,5.6,5.6,0,0,1-3.67,1.12,9.28,9.28,0,0,1-2.16-.24,3.65,3.65,0,0,1-1.76-1,5.3,5.3,0,0,1-1.18-2.21,14.22,14.22,0,0,1-.43-3.86,26.18,26.18,0,0,1,.16-3A6.56,6.56,0,0,1,336,182a4.08,4.08,0,0,1,1.65-1.67,6,6,0,0,1,3-.62,6.51,6.51,0,0,1,2.56.43,3.45,3.45,0,0,1,1.58,1.31,5.61,5.61,0,0,1,.81,2.2,19,19,0,0,1,.23,3.14V188Zm5.68-1.79a12,12,0,0,0-.22-2.52,3.88,3.88,0,0,0-.59-1.44,1.66,1.66,0,0,0-.92-.64,4.49,4.49,0,0,0-1.18-.15,3.08,3.08,0,0,0-1.07.18,1.79,1.79,0,0,0-.86.69,4.29,4.29,0,0,0-.61,1.45,10.69,10.69,0,0,0-.23,2.43Z"/><polygon class="cls-2" points="203.32 80.92 219.11 96.7 230.16 69.87 203.32 80.92"/><path class="cls-1" d="M252.27,132.8h-9.63l0-.61a.89.89,0,0,1,0-.24v-8.69a3.55,3.55,0,0,0-3.54-3.54h-9.63l0-.61a1,1,0,0,1,0-.24v-8.69a3.55,3.55,0,0,0-3.55-3.54H204.3a3.55,3.55,0,0,0-3.55,3.54v8.72a.36.36,0,0,1,.05.21l0,.61h-9.63a3.55,3.55,0,0,0-3.54,3.54l.09,9.54h-9.63a3.55,3.55,0,0,0-3.54,3.55v8.72a3.55,3.55,0,0,0,3.54,3.54h74.14a3.55,3.55,0,0,0,3.54-3.54v-8.72A3.55,3.55,0,0,0,252.27,132.8Zm-12.51-10.11v9.87h-23v-9.87Zm-36-13.09h23v9.88h-23Zm-13.08,13.09h23v9.87h-23Zm9.87,23h-23v-9.88h23Zm26.17,0h-23v-9.88h23Zm26.17,0h-23v-9.88h23Z"/><path class="cls-1" d="M178.54,112.75a3.55,3.55,0,0,0,5,0l10.19-10.19a3.55,3.55,0,0,0,0-5l-.41-.41,2.8-2.8,9.46,1.35a1.5,1.5,0,0,0,1.26-.41L210.17,92l6.23,6.24a3.55,3.55,0,0,0,3.2,1A3.54,3.54,0,0,0,222.18,97l10.2-24.75a3.55,3.55,0,0,0-4.63-4.63L203,77.85a3.42,3.42,0,0,0-1.15.77,3.54,3.54,0,0,0,0,5l6.23,6.23-2.8,2.8-9.46-1.35a1.45,1.45,0,0,0-1.25.42l-3.32,3.32-.41-.41a3.54,3.54,0,0,0-5,0l-10.2,10.19a3.56,3.56,0,0,0,0,5Zm24.78-31.83,26.84-11-11,26.83-6.85-6.84L217,85.08A1.47,1.47,0,0,0,217,83a1.5,1.5,0,0,0-2.1,0l-4.77,4.77Zm-15,15.4,3.73,3.73-11,11-3.73-3.73Z"/><rect class="cls-2" x="216.8" y="122.69" width="22.96" height="9.88"/><rect class="cls-2" x="177.55" y="135.77" width="22.96" height="9.88"/></svg>