<svg xmlns="http://www.w3.org/2000/svg" viewBox="0 0 160 160"><path fill="#fdc62d" d="M66.82 52.13l15.79 15.78 11.05-26.84-26.84 11.06z"/><path d="M115.77 104h-9.63v-.61a1.09 1.09 0 0 1 0-.25v-8.67a3.55 3.55 0 0 0-3.54-3.54h-9.54v-.62a1.07 1.07 0 0 1 0-.24v-8.68a3.55 3.55 0 0 0-3.55-3.55H67.8a3.55 3.55 0 0 0-3.55 3.55v8.72a.32.32 0 0 1 0 .2v.62h-9.54a3.55 3.55 0 0 0-3.54 3.54l.09 9.54h-9.63a3.55 3.55 0 0 0-3.54 3.54v8.73a3.55 3.55 0 0 0 3.54 3.54h74.14a3.55 3.55 0 0 0 3.54-3.54v-8.73a3.55 3.55 0 0 0-3.54-3.55zm-12.51-10.11v9.88h-23v-9.88zm-36-13.08h23v9.87h-23zM54.14 93.89h23v9.88h-23zm9.87 23h-23V107H64zm26.17 0h-23V107h23zm26.17 0h-23V107h23zM42 84a3.55 3.55 0 0 0 5 0l10.19-10.2a3.55 3.55 0 0 0 0-5l-.41-.4 2.8-2.8 9.46 1.35a1.48 1.48 0 0 0 1.26-.42l3.32-3.32 6.28 6.19a3.57 3.57 0 0 0 3.2 1 3.46 3.46 0 0 0 1.81-1 3.58 3.58 0 0 0 .77-1.15l10.2-24.76a3.55 3.55 0 0 0-4.63-4.62L66.49 49.05a3.56 3.56 0 0 0-2.12 2.58 3.53 3.53 0 0 0 1 3.2l6.23 6.24-2.8 2.79-9.46-1.35a1.48 1.48 0 0 0-1.25.42l-3.32 3.32-.41-.4a3.54 3.54 0 0 0-5 0L39.12 76a3.56 3.56 0 0 0 0 5zm24.82-31.87l26.84-11.06-11 26.84-6.85-6.84 4.78-4.78a1.48 1.48 0 0 0 0-2.1 1.52 1.52 0 0 0-2.1 0L73.67 59zm-15 15.4l3.73 3.73-11 11-3.73-3.73z" fill="#fff"/><path fill="#fdc62d" d="M80.3 93.89h22.96v9.88H80.3zm-39.25 13.09h22.96v9.88H41.05z"/></svg>