<svg xmlns="http://www.w3.org/2000/svg" viewBox="0 0 433 236"><path fill="#fdc62d" d="M203.32 80.92l15.79 15.78 11.05-26.83-26.84 11.05z"/><path d="M252.27 132.8h-9.63v-.61a.89.89 0 0 1 0-.24v-8.69a3.55 3.55 0 0 0-3.54-3.54h-9.63v-.61a1 1 0 0 1 0-.24v-8.69a3.55 3.55 0 0 0-3.55-3.54H204.3a3.55 3.55 0 0 0-3.55 3.54v8.72a.36.36 0 0 1 .05.21v.61h-9.63a3.55 3.55 0 0 0-3.54 3.54l.09 9.54h-9.63a3.55 3.55 0 0 0-3.54 3.55v8.72a3.55 3.55 0 0 0 3.54 3.54h74.14a3.55 3.55 0 0 0 3.54-3.54v-8.72a3.55 3.55 0 0 0-3.5-3.55zm-12.51-10.11v9.87h-23v-9.87zm-36-13.09h23v9.88h-23zm-13.08 13.09h23v9.87h-23zm9.87 23h-23v-9.88h23zm26.17 0h-23v-9.88h23zm26.17 0h-23v-9.88h23zM178.54 112.75a3.55 3.55 0 0 0 5 0l10.19-10.19a3.55 3.55 0 0 0 0-5l-.41-.41 2.8-2.8 9.46 1.35a1.5 1.5 0 0 0 1.26-.41l3.33-3.29 6.23 6.24a3.55 3.55 0 0 0 3.2 1 3.54 3.54 0 0 0 2.58-2.24l10.2-24.75a3.55 3.55 0 0 0-4.63-4.63L203 77.85a3.42 3.42 0 0 0-1.15.77 3.54 3.54 0 0 0 0 5l6.23 6.23-2.8 2.8-9.46-1.35a1.45 1.45 0 0 0-1.25.42l-3.32 3.32-.41-.41a3.54 3.54 0 0 0-5 0l-10.2 10.19a3.56 3.56 0 0 0 0 5zm24.78-31.83l26.84-11-11 26.83-6.85-6.84 4.69-4.83a1.47 1.47 0 0 0 0-2.08 1.5 1.5 0 0 0-2.1 0l-4.77 4.77zm-15 15.4l3.73 3.73-11 11-3.73-3.73z" fill="#fff"/><path fill="#fdc62d" d="M216.8 122.69h22.96v9.88H216.8zM177.55 135.77h22.96v9.88h-22.96z"/></svg>