<svg xmlns="http://www.w3.org/2000/svg" viewBox="0 0 433 236"><path fill="#fdc62d" d="M173.87 102.1l5.02-18.74L191 71.25l19.11-5.48v36.33h-36.24z"/><circle cx="197.22" cy="140.58" r="5.92" fill="#fdc62d"/><circle cx="223.08" cy="140.05" r="6.76" fill="#fdc62d"/><path d="M210.11 78.11a1.67 1.67 0 0 0-1.67 1.67 1.72 1.72 0 0 0 .49 1.19 1.68 1.68 0 0 0 1.18.49 1.67 1.67 0 0 0 1.68-1.68 1.68 1.68 0 0 0-.49-1.18 1.72 1.72 0 0 0-1.19-.49z" fill="#fff"/><path d="M255.84 89.34h-8.71a1.36 1.36 0 0 0-.95.39l-10.51 10.51h-24.23V86.65a1.33 1.33 0 1 0-2.66 0v9.93l-15-25.95 15-4v6.3a1.33 1.33 0 1 0 2.66 0v-8a1.32 1.32 0 0 0-.52-1.05 1.29 1.29 0 0 0-1.15-.23l-18.34 4.85a1.31 1.31 0 0 0-.6.35L177.4 82.27a1.44 1.44 0 0 0-.34.6l-4.8 17.91-.12.43a1.56 1.56 0 0 0-.05.36v3.85A21.63 21.63 0 0 0 193.71 127h3.23l10.51 6.07-4 2.33-.18-.21a8 8 0 1 0 1.61 2.78l-.09-.27 5.36-3.1 5.37 3.1-.09.27a7.87 7.87 0 0 0-.42 2.54 8.06 8.06 0 1 0 2-5.32l-.19.21-4-2.33 10.54-6.07h3.16a21.62 21.62 0 0 0 21.6-21.6v-3.85a1.33 1.33 0 0 0-1.33-1.33h-7.35l8.24-8.22h8.16a1.33 1.33 0 1 0 0-2.66zM197.22 146a5.37 5.37 0 1 1 3.48-9.45l.37.32-4.52 2.61a1.34 1.34 0 0 0-.49 1.82 1.37 1.37 0 0 0 1.82.48l4.53-2.61.08.48a4.66 4.66 0 0 1 .1 1 5.38 5.38 0 0 1-5.37 5.35zm20.51-6.35l.09-.48 4.52 2.61a1.36 1.36 0 0 0 1.82-.48 1.33 1.33 0 0 0-.49-1.82l-4.52-2.61.37-.32a5.37 5.37 0 1 1-1.88 4.08 5.5 5.5 0 0 1 .09-1.03zM191.49 72l15 26-25.95-15zm-12.31 13.24l26 15h-30zm30.93 46.36l-7.92-4.6H218zm35.35-28.69v2.51a19 19 0 0 1-18.94 18.94h-32.81a19 19 0 0 1-18.2-13.67l-.12-.43h26.7a1.34 1.34 0 1 0 0-2.67h-27.2v-.31a16.43 16.43 0 0 1-.1-1.86v-2.51H233l-4.27 4.27h-10.08a1.33 1.33 0 0 0 0 2.66h10.64a1.33 1.33 0 0 0 .94-.39l6.54-6.54z" fill="#fff"/><path d="M210.11 107.25a1.67 1.67 0 0 0-1.67 1.67 1.71 1.71 0 0 0 .49 1.19 1.68 1.68 0 0 0 1.18.49 1.72 1.72 0 0 0 1.19-.49 1.71 1.71 0 0 0 .49-1.19 1.68 1.68 0 0 0-.49-1.18 1.72 1.72 0 0 0-1.19-.49z" fill="#fff"/></svg>