<svg xmlns="http://www.w3.org/2000/svg" viewBox="0 0 160 160"><path fill="#fdc62d" d="M41.12 75.23l5.02-18.74 12.11-12.11 19.11-5.48v36.33H41.12z"/><circle cx="64.47" cy="113.71" r="5.92" fill="#fdc62d"/><circle cx="90.33" cy="113.17" r="6.76" fill="#fdc62d"/><path d="M77.36 51.23a1.68 1.68 0 0 0-1.18.49 1.72 1.72 0 0 0-.49 1.19 1.67 1.67 0 0 0 1.67 1.67 1.72 1.72 0 0 0 1.19-.49 1.68 1.68 0 0 0 .45-1.18 1.67 1.67 0 0 0-1.68-1.68z" fill="#fff"/><path d="M123.09 62.46h-8.71a1.36 1.36 0 0 0-.95.39l-10.51 10.52H78.69V59.78a1.33 1.33 0 1 0-2.66 0v9.93l-15-26 15-4V46a1.33 1.33 0 0 0 2.66 0v-8a1.34 1.34 0 0 0-.52-1.06 1.35 1.35 0 0 0-1.17-.23l-18.32 4.92a1.38 1.38 0 0 0-.6.34L44.65 55.4a1.44 1.44 0 0 0-.34.6l-4.8 17.91-.12.43a1.49 1.49 0 0 0 0 .36v3.84A21.63 21.63 0 0 0 61 100.15h3.23l10.51 6.06-4 2.33-.18-.21a8 8 0 1 0 2 5.33 8.2 8.2 0 0 0-.41-2.55l-.15-.21 5.36-3.1 5.37 3.1-.09.26a7.93 7.93 0 0 0-.42 2.55 8.06 8.06 0 1 0 2-5.33l-.19.21-4-2.33 10.58-6.11h3.16a21.63 21.63 0 0 0 21.6-21.61V74.7a1.33 1.33 0 0 0-1.37-1.33h-7.35l8.24-8.24h8.16a1.34 1.34 0 0 0 0-2.67zm-58.62 56.61a5.37 5.37 0 1 1 3.53-9.44l.37.31-4.52 2.61a1.35 1.35 0 0 0-.49 1.82 1.37 1.37 0 0 0 1.82.49l4.53-2.61.08.48a4.59 4.59 0 0 1 .1 1 5.37 5.37 0 0 1-5.42 5.34zM85 112.73l.09-.48 4.52 2.61a1.37 1.37 0 0 0 1.82-.49 1.33 1.33 0 0 0-.49-1.82l-4.52-2.61.37-.31a5.36 5.36 0 1 1-1.88 4.08 5.5 5.5 0 0 1 .09-.98zM58.74 45.09l15 26-25.95-15zM46.43 58.36l26 15h-30zm30.93 46.37l-7.92-4.58h15.84zM112.71 76v2.51a19 19 0 0 1-18.94 18.98H61a19 19 0 0 1-18.2-13.67l-.12-.44h26.7a1.33 1.33 0 1 0 0-2.66H42.14v-.31a16.74 16.74 0 0 1-.1-1.87V76h58.25L96 80.3H85.9a1.34 1.34 0 0 0 0 2.67h10.64a1.33 1.33 0 0 0 .94-.39L104 76z" fill="#fff"/><path d="M77.36 80.38a1.67 1.67 0 0 0-1.67 1.67 1.72 1.72 0 0 0 .49 1.19 1.68 1.68 0 0 0 1.18.49A1.67 1.67 0 0 0 79 82.05a1.68 1.68 0 0 0-.49-1.18 1.72 1.72 0 0 0-1.15-.49z" fill="#fff"/></svg>