<svg data-name="Benefits MKK" xmlns="http://www.w3.org/2000/svg" viewBox="0 0 433 236"><path d="M78.27 173.74h2.65V187a12.26 12.26 0 0 0 .26 2.81 4.73 4.73 0 0 0 .74 1.75 2.51 2.51 0 0 0 1.21.89 5.7 5.7 0 0 0 3.34 0 2.47 2.47 0 0 0 1.21-.89 4.57 4.57 0 0 0 .75-1.75 12.85 12.85 0 0 0 .26-2.81v-13.3h2.65v13.18q0 4.32-1.61 6.18A6.19 6.19 0 0 1 84.8 195a6.16 6.16 0 0 1-4.92-1.86c-1.08-1.24-1.61-3.3-1.61-6.18zm25.3 20.78v-10.07a5.54 5.54 0 0 0-.11-1.1 2.32 2.32 0 0 0-.41-.9 1.89 1.89 0 0 0-.79-.61 3.23 3.23 0 0 0-1.25-.21 2.72 2.72 0 0 0-1.55.39 2.55 2.55 0 0 0-.9 1 4.18 4.18 0 0 0-.41 1.38 11.22 11.22 0 0 0-.11 1.52v8.6h-2.36v-13.03c0-.51-.06-1-.1-1.52H98v1.88h.12a4 4 0 0 1 1.58-1.7 5 5 0 0 1 2.31-.46 4.85 4.85 0 0 1 1.99.31 2.73 2.73 0 0 1 1.2 1 4.34 4.34 0 0 1 .6 1.51 9.83 9.83 0 0 1 .17 1.95v10.07zm6.77-14.52v-2.79l2.36-1.06V180h3.16v1.79h-3.16v9.62a1.31 1.31 0 0 0 .23.67 1.54 1.54 0 0 0 .64.51 3.25 3.25 0 0 0 1.26.2h.4l.66-.09v1.82c-.38 0-.77.08-1.16.14a7.88 7.88 0 0 1-1.17.09 3.75 3.75 0 0 1-2.48-.67 2.4 2.4 0 0 1-.77-1.92v-10.39H108V180zm10.04 8a11.82 11.82 0 0 0 .21 2.47 4 4 0 0 0 .57 1.49 1.85 1.85 0 0 0 .92.71 3.71 3.71 0 0 0 1.24.19 2.31 2.31 0 0 0 1.07-.23 2.39 2.39 0 0 0 .77-.6 2.6 2.6 0 0 0 .49-.88 3.43 3.43 0 0 0 .2-1h2.59a4.41 4.41 0 0 1-1.39 3.57 5.6 5.6 0 0 1-3.67 1.12 9.28 9.28 0 0 1-2.16-.24 3.65 3.65 0 0 1-1.76-1 5.3 5.3 0 0 1-1.18-2.21 14.22 14.22 0 0 1-.43-3.86 26.18 26.18 0 0 1 .16-3 6.56 6.56 0 0 1 .72-2.47 4.08 4.08 0 0 1 1.65-1.67 6 6 0 0 1 3-.62 6.51 6.51 0 0 1 2.56.43 3.45 3.45 0 0 1 1.58 1.31 5.61 5.61 0 0 1 .81 2.2 19 19 0 0 1 .23 3.14V188zm5.68-1.79a12 12 0 0 0-.22-2.52 3.88 3.88 0 0 0-.59-1.44 1.66 1.66 0 0 0-.92-.64 4.49 4.49 0 0 0-1.18-.15 3.08 3.08 0 0 0-1.07.18 1.79 1.79 0 0 0-.86.69 4.29 4.29 0 0 0-.61 1.45 10.69 10.69 0 0 0-.23 2.43zm8.86-4.04h.08a5.67 5.67 0 0 1 .79-1.32 2.92 2.92 0 0 1 .95-.75 3.78 3.78 0 0 1 1.21-.33 14.14 14.14 0 0 1 1.54-.07v2.44h-.63a1.54 1.54 0 0 0-.3 0 1.88 1.88 0 0 0-.34 0 3.34 3.34 0 0 0-1.61.35 2.82 2.82 0 0 0-1 .89 3.2 3.2 0 0 0-.51 1.27 7 7 0 0 0-.15 1.43v8.58h-2.36V180h2.36zm16.5 8.21a4.79 4.79 0 0 1-.39 2 3.74 3.74 0 0 1-1.07 1.37 4.48 4.48 0 0 1-1.61.78 8 8 0 0 1-2 .24 5.68 5.68 0 0 1-3.71-1.11 4.27 4.27 0 0 1-1.3-3.61H144v.79a2.34 2.34 0 0 0 .28.92 2 2 0 0 0 .72.77 2.52 2.52 0 0 0 1.38.31 2.88 2.88 0 0 0 1.78-.54 2 2 0 0 0 .72-1.67 1.44 1.44 0 0 0-.53-1.11 6.51 6.51 0 0 0-1.34-.9c-.54-.27-1.12-.55-1.76-.83a10.24 10.24 0 0 1-1.75-1 5.1 5.1 0 0 1-1.34-1.32 3.14 3.14 0 0 1-.53-1.86 4.39 4.39 0 0 1 .2-1.27 3.19 3.19 0 0 1 .76-1.29 4.3 4.3 0 0 1 1.54-1 6.63 6.63 0 0 1 2.51-.4 6.87 6.87 0 0 1 1.84.24 4.63 4.63 0 0 1 1.51.74 3.1 3.1 0 0 1 1 1.28 3.77 3.77 0 0 1 .26 1.85h-2.62a2 2 0 0 0-2.27-2.33 2.51 2.51 0 0 0-1.6.51 1.73 1.73 0 0 0-.65 1.45 1.38 1.38 0 0 0 .54 1.09 6.38 6.38 0 0 0 1.33.87c.54.27 1.13.54 1.76.8a9.66 9.66 0 0 1 1.76 1 5.33 5.33 0 0 1 1.34 1.34 3.26 3.26 0 0 1 .58 1.89zM155.1 180v-2.79l2.36-1.06V180h3.17v1.79h-3.17v9.62a1.41 1.41 0 0 0 .23.67 1.58 1.58 0 0 0 .65.51 3.19 3.19 0 0 0 1.25.2h.4l.67-.09v1.82c-.39 0-.78.08-1.17.14a7.65 7.65 0 0 1-1.16.09 3.73 3.73 0 0 1-2.48-.67 2.37 2.37 0 0 1-.78-1.92v-10.39h-2.39V180zm15.52 0H173v13.01c0 .51.06 1 .1 1.51h-2.5v-1.75h-.09a3.78 3.78 0 0 1-1.55 1.52 4.45 4.45 0 0 1-2.13.52 4.14 4.14 0 0 1-2.91-.93 3.67 3.67 0 0 1-1-2.81V180h2.36v10.1a3.44 3.44 0 0 0 .61 2.14 2.17 2.17 0 0 0 1.87.81 3.08 3.08 0 0 0 1-.19 2.59 2.59 0 0 0 .92-.59 3.47 3.47 0 0 0 .68-1 4 4 0 0 0 .27-1.56zm-3.83-2.44h-2.71v-3h2.71zm5.07 0h-2.71v-3h2.71zm5.64 2.44v-2.79l2.36-1.06V180H183v1.79h-3.17v9.62a1.31 1.31 0 0 0 .23.67 1.51 1.51 0 0 0 .65.51 3.16 3.16 0 0 0 1.25.2h.4l.66-.09v1.82c-.38 0-.77.08-1.16.14a7.78 7.78 0 0 1-1.17.09 3.7 3.7 0 0 1-2.47-.67 2.37 2.37 0 0 1-.78-1.92v-10.39h-2.39V180zm15.66 2.14l-6.42 10.45h6.62v1.93h-9.18v-2.21l6.33-10.31v-.06h-6V180h8.67zm11.05-2.14h2.36v11.5c0 .5 0 1 .05 1.51s.06 1 .1 1.51h-2.51v-1.75h-.08a3.8 3.8 0 0 1-1.56 1.52 4.42 4.42 0 0 1-2.13.52 4.17 4.17 0 0 1-2.91-.93 3.66 3.66 0 0 1-1-2.81V180h2.36v10.1a3.5 3.5 0 0 0 .6 2.14 2.19 2.19 0 0 0 1.87.81 3 3 0 0 0 1-.19 2.42 2.42 0 0 0 .92-.59 3.29 3.29 0 0 0 .68-1 4 4 0 0 0 .27-1.56zm14.51 14.52v-10.07a5.54 5.54 0 0 0-.11-1.1 2.32 2.32 0 0 0-.41-.9 1.89 1.89 0 0 0-.79-.61 3.23 3.23 0 0 0-1.25-.21 2.72 2.72 0 0 0-1.55.39 2.55 2.55 0 0 0-.9 1 4.18 4.18 0 0 0-.41 1.38 11.22 11.22 0 0 0-.11 1.52v8.6h-2.36v-13.03c0-.51-.06-1-.1-1.52h2.5v1.88h.12a4 4 0 0 1 1.58-1.7 5 5 0 0 1 2.31-.46 4.85 4.85 0 0 1 1.91.33 2.73 2.73 0 0 1 1.2 1 4.34 4.34 0 0 1 .6 1.51 9.83 9.83 0 0 1 .17 1.95v10.07zm14.2-14.52h2.36v16a4.51 4.51 0 0 1-.39 2 3 3 0 0 1-1.1 1.24 4.66 4.66 0 0 1-1.68.62 13.17 13.17 0 0 1-2.19.17 6.2 6.2 0 0 1-1.74-.23 4.2 4.2 0 0 1-1.44-.7 3.27 3.27 0 0 1-1-1.21 3.34 3.34 0 0 1-.26-1.74h2.64a2 2 0 0 0 .64 1.55 2.28 2.28 0 0 0 1.58.55 2.46 2.46 0 0 0 1.89-.69 2.57 2.57 0 0 0 .65-1.82v-3h-.09a3.29 3.29 0 0 1-1.35 1.34 3.85 3.85 0 0 1-1.85.47 4.32 4.32 0 0 1-2.39-.6 4.18 4.18 0 0 1-1.44-1.64 7.75 7.75 0 0 1-.7-2.45 22.14 22.14 0 0 1-.19-3 11.17 11.17 0 0 1 .55-3.93 5.75 5.75 0 0 1 1.28-2.13 3.17 3.17 0 0 1 1.51-.88 5.62 5.62 0 0 1 1.21-.17 4.07 4.07 0 0 1 2 .5 3.43 3.43 0 0 1 1.37 1.57h.06zm.05 7.2v-1.77a7.37 7.37 0 0 0-.27-1.8 3.14 3.14 0 0 0-.82-1.39 2.31 2.31 0 0 0-1.7-.56 2.18 2.18 0 0 0-1.57.53 3.09 3.09 0 0 0-.82 1.32 6.57 6.57 0 0 0-.31 1.69c0 .59-.06 1.13-.06 1.61a17.13 17.13 0 0 0 .19 2.86 5.2 5.2 0 0 0 .56 1.76 2.06 2.06 0 0 0 .89.89 2.76 2.76 0 0 0 1.18.25 2.2 2.2 0 0 0 1.63-.57 3.41 3.41 0 0 0 .82-1.38 6.54 6.54 0 0 0 .28-1.75c.03-.65.03-1.21.03-1.71zm13.3 7.32v-20.78H257V176h-8.06v6.68h7.48V185h-7.48v7.2h8.23v2.3zm16.44 0h-2.36v-20.78h2.36zm4.35-14.52v-2.79l2.36-1.06V180h3.16v1.79h-3.16v9.62a1.31 1.31 0 0 0 .23.67 1.54 1.54 0 0 0 .64.51 3.25 3.25 0 0 0 1.26.2h.4l.66-.09v1.82c-.38 0-.77.08-1.17.14a7.65 7.65 0 0 1-1.16.09 3.75 3.75 0 0 1-2.48-.67 2.4 2.4 0 0 1-.77-1.92v-10.39h-2.39V180zm10.04 8a12.65 12.65 0 0 0 .2 2.47 4.17 4.17 0 0 0 .58 1.49 1.85 1.85 0 0 0 .92.71 3.71 3.71 0 0 0 1.24.19 2.24 2.24 0 0 0 1.06-.23 2.33 2.33 0 0 0 .78-.6 2.6 2.6 0 0 0 .49-.88 3.75 3.75 0 0 0 .2-1h2.59a4.44 4.44 0 0 1-1.39 3.57 5.6 5.6 0 0 1-3.67 1.12 9.28 9.28 0 0 1-2.16-.24 3.65 3.65 0 0 1-1.76-1 5.3 5.3 0 0 1-1.18-2.21 13.83 13.83 0 0 1-.43-3.86 26.18 26.18 0 0 1 .16-3 6.56 6.56 0 0 1 .72-2.47 4.08 4.08 0 0 1 1.65-1.67 6 6 0 0 1 3-.62 6.51 6.51 0 0 1 2.56.43 3.45 3.45 0 0 1 1.58 1.31 5.61 5.61 0 0 1 .81 2.2 19 19 0 0 1 .23 3.14V188zm5.67-1.79a12.08 12.08 0 0 0-.21-2.52 4.05 4.05 0 0 0-.59-1.44 1.66 1.66 0 0 0-.92-.64 4.49 4.49 0 0 0-1.18-.15 3.08 3.08 0 0 0-1.07.18 1.75 1.75 0 0 0-.86.69 4.29 4.29 0 0 0-.61 1.45 10.69 10.69 0 0 0-.23 2.43zm8.87-4.04h.06a5.67 5.67 0 0 1 .79-1.32 2.82 2.82 0 0 1 .95-.75 3.78 3.78 0 0 1 1.21-.33 14.14 14.14 0 0 1 1.54-.07v2.44h-.63a1.55 1.55 0 0 0-.31 0 1.72 1.72 0 0 0-.33 0 3.34 3.34 0 0 0-1.61.35 2.82 2.82 0 0 0-1 .89 3.37 3.37 0 0 0-.52 1.27 7.7 7.7 0 0 0-.14 1.43v8.58h-2.36V180h2.36zm15.03 12.35v-10.07a4.88 4.88 0 0 0-.12-1.1 2.3 2.3 0 0 0-.4-.9 2 2 0 0 0-.79-.61 3.3 3.3 0 0 0-1.25-.21 2.73 2.73 0 0 0-1.56.39 2.6 2.6 0 0 0-.89 1 4.44 4.44 0 0 0-.42 1.38 11.19 11.19 0 0 0-.1 1.52v8.6h-2.36v-13.03c0-.51-.07-1-.1-1.52h2.5v1.88h.12a4 4 0 0 1 1.58-1.7 5 5 0 0 1 2.3-.46 4.86 4.86 0 0 1 1.92.33 2.71 2.71 0 0 1 1.19 1 4.17 4.17 0 0 1 .61 1.51 10.65 10.65 0 0 1 .17 1.95v10.07zm14.42-12.38l-6.42 10.45h6.62v1.93h-9.18v-2.21l6.33-10.31v-.06h-6V180h8.67zm5.59 5.86a11.91 11.91 0 0 0 .2 2.47 4 4 0 0 0 .57 1.49 1.85 1.85 0 0 0 .92.71 3.71 3.71 0 0 0 1.24.19 2.31 2.31 0 0 0 1.07-.23 2.39 2.39 0 0 0 .77-.6 2.6 2.6 0 0 0 .49-.88 3.77 3.77 0 0 0 .21-1h2.59a4.44 4.44 0 0 1-1.4 3.57 5.6 5.6 0 0 1-3.67 1.12 9.28 9.28 0 0 1-2.16-.24 3.65 3.65 0 0 1-1.76-1 5.42 5.42 0 0 1-1.18-2.21 14.22 14.22 0 0 1-.43-3.86 26.18 26.18 0 0 1 .16-3 6.75 6.75 0 0 1 .7-2.53 4.11 4.11 0 0 1 1.66-1.67 6 6 0 0 1 3-.62 6.48 6.48 0 0 1 2.56.43 3.45 3.45 0 0 1 1.58 1.31 5.61 5.61 0 0 1 .81 2.2 19 19 0 0 1 .23 3.14V188zm5.67-1.79a12 12 0 0 0-.22-2.52 3.88 3.88 0 0 0-.59-1.44 1.66 1.66 0 0 0-.92-.64 4.49 4.49 0 0 0-1.18-.15 3.08 3.08 0 0 0-1.07.18 1.79 1.79 0 0 0-.86.69 4.11 4.11 0 0 0-.6 1.45 10.15 10.15 0 0 0-.23 2.43zm6.21-12.47h2.65v2.53h-2.65zm2.51 20.78h-2.36V180h2.36zm4.35-14.52v-2.79l2.36-1.06V180h3.16v1.79h-3.16v9.62a1.41 1.41 0 0 0 .23.67 1.65 1.65 0 0 0 .65.51 3.25 3.25 0 0 0 1.26.2h.4l.66-.09v1.82c-.38 0-.77.08-1.17.14a7.65 7.65 0 0 1-1.16.09 3.75 3.75 0 0 1-2.48-.67 2.37 2.37 0 0 1-.77-1.92v-10.39H343V180z" fill="#fff"/><path fill="#fdc62d" d="M173.87 102.1l5.02-18.74L191 71.25l19.11-5.48v36.33h-36.24z"/><circle cx="197.22" cy="140.58" r="5.92" fill="#fdc62d"/><circle cx="223.08" cy="140.05" r="6.76" fill="#fdc62d"/><path d="M210.11 78.11a1.67 1.67 0 0 0-1.67 1.67 1.72 1.72 0 0 0 .49 1.19 1.68 1.68 0 0 0 1.18.49 1.67 1.67 0 0 0 1.68-1.68 1.68 1.68 0 0 0-.49-1.18 1.72 1.72 0 0 0-1.19-.49z" fill="#fff"/><path d="M255.84 89.34h-8.71a1.36 1.36 0 0 0-.95.39l-10.51 10.51h-24.23V86.65a1.33 1.33 0 1 0-2.66 0v9.93l-15-25.95 15-4v6.3a1.33 1.33 0 1 0 2.66 0v-8a1.32 1.32 0 0 0-.52-1.05 1.29 1.29 0 0 0-1.15-.23l-18.34 4.85a1.31 1.31 0 0 0-.6.35L177.4 82.27a1.44 1.44 0 0 0-.34.6l-4.8 17.91-.12.43a1.56 1.56 0 0 0-.05.36v3.85A21.63 21.63 0 0 0 193.71 127h3.23l10.51 6.07-4 2.33-.18-.21a8 8 0 1 0 1.61 2.78l-.09-.27 5.36-3.1 5.37 3.1-.09.27a7.87 7.87 0 0 0-.42 2.54 8.06 8.06 0 1 0 2-5.32l-.19.21-4-2.33 10.54-6.07h3.16a21.62 21.62 0 0 0 21.6-21.6v-3.85a1.33 1.33 0 0 0-1.33-1.33h-7.35l8.24-8.22h8.16a1.33 1.33 0 1 0 0-2.66zM197.22 146a5.37 5.37 0 1 1 3.48-9.45l.37.32-4.52 2.61a1.34 1.34 0 0 0-.49 1.82 1.37 1.37 0 0 0 1.82.48l4.53-2.61.08.48a4.66 4.66 0 0 1 .1 1 5.38 5.38 0 0 1-5.37 5.35zm20.51-6.35l.09-.48 4.52 2.61a1.36 1.36 0 0 0 1.82-.48 1.33 1.33 0 0 0-.49-1.82l-4.52-2.61.37-.32a5.37 5.37 0 1 1-1.88 4.08 5.5 5.5 0 0 1 .09-1.03zM191.49 72l15 26-25.95-15zm-12.31 13.24l26 15h-30zm30.93 46.36l-7.92-4.6H218zm35.35-28.69v2.51a19 19 0 0 1-18.94 18.94h-32.81a19 19 0 0 1-18.2-13.67l-.12-.43h26.7a1.34 1.34 0 1 0 0-2.67h-27.2v-.31a16.43 16.43 0 0 1-.1-1.86v-2.51H233l-4.27 4.27h-10.08a1.33 1.33 0 0 0 0 2.66h10.64a1.33 1.33 0 0 0 .94-.39l6.54-6.54z" fill="#fff"/><path d="M210.11 107.25a1.67 1.67 0 0 0-1.67 1.67 1.71 1.71 0 0 0 .49 1.19 1.68 1.68 0 0 0 1.18.49 1.72 1.72 0 0 0 1.19-.49 1.71 1.71 0 0 0 .49-1.19 1.68 1.68 0 0 0-.49-1.18 1.72 1.72 0 0 0-1.19-.49z" fill="#fff"/></svg>