<svg id="Benefits_MKK" data-name="Benefits MKK" xmlns="http://www.w3.org/2000/svg" viewBox="0 0 433 236"><defs><style>.cls-1{fill:#fff;}.cls-2{fill:#fdc62d;}</style></defs><title>Benefits_Schuetze</title><path class="cls-1" d="M140.58,197.65V176.87h10.3v2.3h-7.65v6.68h7.25v2.31h-7.25v9.49Z"/><path class="cls-1" d="M153.1,176.87h2.65v2.53H153.1Zm2.51,20.78h-2.36V183.12h2.36Z"/><path class="cls-1" d="M160,183.12v-2.8l2.36-1.06v3.86h3.17v1.78h-3.17v8.9q0,.34,0,.72a1.41,1.41,0,0,0,.23.67,1.58,1.58,0,0,0,.65.51,3.19,3.19,0,0,0,1.25.2l.41,0,.66-.09v1.82c-.39,0-.78.08-1.17.14a7.65,7.65,0,0,1-1.16.09,3.73,3.73,0,0,1-2.48-.67,2.37,2.37,0,0,1-.78-1.92V184.9h-2.39v-1.78Z"/><path class="cls-1" d="M175.58,197.65V187.58a5.62,5.62,0,0,0-.11-1.1,2.45,2.45,0,0,0-.4-.9,2,2,0,0,0-.8-.61,3.23,3.23,0,0,0-1.25-.21,2.53,2.53,0,0,0-2.45,1.39,4.16,4.16,0,0,0-.41,1.39,10.94,10.94,0,0,0-.1,1.51v8.6H167.7V186.14c0-.5,0-1,0-1.51s-.06-1-.1-1.51h2.51V185h.11a4,4,0,0,1,1.58-1.7,5,5,0,0,1,2.31-.46,4.81,4.81,0,0,1,1.91.33,2.73,2.73,0,0,1,1.2,1,4,4,0,0,1,.6,1.52,9.66,9.66,0,0,1,.17,1.94v10.07Z"/><path class="cls-1" d="M184.39,191.15a12.57,12.57,0,0,0,.2,2.47,4.17,4.17,0,0,0,.58,1.49,1.93,1.93,0,0,0,.92.72,4,4,0,0,0,1.24.18,2.24,2.24,0,0,0,1.06-.23,2.33,2.33,0,0,0,.78-.6,2.6,2.6,0,0,0,.49-.88,3.69,3.69,0,0,0,.2-1.05h2.59a4.44,4.44,0,0,1-1.39,3.57,5.62,5.62,0,0,1-3.67,1.12,9.28,9.28,0,0,1-2.16-.24,3.63,3.63,0,0,1-1.76-1,5.41,5.41,0,0,1-1.18-2.22,13.83,13.83,0,0,1-.43-3.86,26.31,26.31,0,0,1,.16-3,6.56,6.56,0,0,1,.72-2.47,4.08,4.08,0,0,1,1.65-1.67,6.15,6.15,0,0,1,3-.62,6.51,6.51,0,0,1,2.56.43,3.51,3.51,0,0,1,1.58,1.31,5.67,5.67,0,0,1,.81,2.2,19,19,0,0,1,.23,3.14v1.24Zm5.67-1.79a12.08,12.08,0,0,0-.21-2.52,3.92,3.92,0,0,0-.59-1.43,1.63,1.63,0,0,0-.92-.65,4.49,4.49,0,0,0-1.18-.15,3.08,3.08,0,0,0-1.07.18,1.75,1.75,0,0,0-.86.69,4.29,4.29,0,0,0-.61,1.45,10.75,10.75,0,0,0-.23,2.43Z"/><path class="cls-1" d="M205.84,193.51a4.76,4.76,0,0,1-.39,2,3.64,3.64,0,0,1-1.06,1.37,4.29,4.29,0,0,1-1.62.78,8,8,0,0,1-2,.24,5.68,5.68,0,0,1-3.71-1.11,4.29,4.29,0,0,1-1.3-3.61h2.68c0,.21,0,.48.05.79a2.17,2.17,0,0,0,.27.92,2,2,0,0,0,.72.77,2.52,2.52,0,0,0,1.38.31,2.88,2.88,0,0,0,1.78-.54,2,2,0,0,0,.72-1.67,1.42,1.42,0,0,0-.53-1.11,5.88,5.88,0,0,0-1.34-.89c-.54-.28-1.12-.56-1.75-.84a10,10,0,0,1-1.76-1,5.26,5.26,0,0,1-1.34-1.32,3.21,3.21,0,0,1-.53-1.86,4.69,4.69,0,0,1,.2-1.26,3.16,3.16,0,0,1,.76-1.3,4.43,4.43,0,0,1,1.54-1,6.67,6.67,0,0,1,2.51-.4,6.87,6.87,0,0,1,1.84.24,4.53,4.53,0,0,1,1.51.74,3.2,3.2,0,0,1,1,1.28,3.82,3.82,0,0,1,.25,1.86H203.1a2.27,2.27,0,0,0-.56-1.75,2.32,2.32,0,0,0-1.71-.59,2.51,2.51,0,0,0-1.6.51,1.72,1.72,0,0,0-.64,1.45,1.4,1.4,0,0,0,.53,1.1,6.6,6.6,0,0,0,1.34.86c.53.27,1.12.54,1.75.8a9.33,9.33,0,0,1,1.76,1,5.17,5.17,0,0,1,1.34,1.34A3.26,3.26,0,0,1,205.84,193.51Z"/><path class="cls-1" d="M218.62,193.51a4.76,4.76,0,0,1-.39,2,3.64,3.64,0,0,1-1.06,1.37,4.24,4.24,0,0,1-1.61.78,8.14,8.14,0,0,1-2,.24,5.68,5.68,0,0,1-3.71-1.11,4.26,4.26,0,0,1-1.29-3.61h2.67c0,.21,0,.48.05.79a2.33,2.33,0,0,0,.27.92,2,2,0,0,0,.72.77,2.57,2.57,0,0,0,1.38.31,2.91,2.91,0,0,0,1.79-.54,2,2,0,0,0,.72-1.67,1.43,1.43,0,0,0-.54-1.11,5.88,5.88,0,0,0-1.34-.89c-.53-.28-1.12-.56-1.75-.84a10,10,0,0,1-1.76-1,5.26,5.26,0,0,1-1.34-1.32,3.21,3.21,0,0,1-.53-1.86,4.69,4.69,0,0,1,.2-1.26,3.27,3.27,0,0,1,.76-1.3,4.39,4.39,0,0,1,1.55-1,6.58,6.58,0,0,1,2.5-.4,6.82,6.82,0,0,1,1.84.24,4.53,4.53,0,0,1,1.51.74,3.12,3.12,0,0,1,1,1.28,3.94,3.94,0,0,1,.26,1.86h-2.62a2.28,2.28,0,0,0-.57-1.75,2.32,2.32,0,0,0-1.71-.59,2.53,2.53,0,0,0-1.6.51,1.72,1.72,0,0,0-.64,1.45,1.4,1.4,0,0,0,.53,1.1,6.6,6.6,0,0,0,1.34.86c.53.27,1.12.54,1.75.8a9.33,9.33,0,0,1,1.76,1,5.17,5.17,0,0,1,1.34,1.34A3.26,3.26,0,0,1,218.62,193.51Z"/><path class="cls-1" d="M231.4,193.51a4.76,4.76,0,0,1-.39,2,3.64,3.64,0,0,1-1.06,1.37,4.24,4.24,0,0,1-1.61.78,8.06,8.06,0,0,1-2,.24,5.69,5.69,0,0,1-3.72-1.11,4.26,4.26,0,0,1-1.29-3.61H224c0,.21,0,.48.05.79a2.5,2.5,0,0,0,.27.92,2,2,0,0,0,.72.77,2.57,2.57,0,0,0,1.38.31,2.91,2.91,0,0,0,1.79-.54,2,2,0,0,0,.72-1.67,1.43,1.43,0,0,0-.54-1.11,6,6,0,0,0-1.33-.89c-.54-.28-1.13-.56-1.76-.84a10.34,10.34,0,0,1-1.76-1,5.42,5.42,0,0,1-1.34-1.32,3.21,3.21,0,0,1-.53-1.86,4.69,4.69,0,0,1,.2-1.26,3.18,3.18,0,0,1,.77-1.3,4.25,4.25,0,0,1,1.54-1,6.58,6.58,0,0,1,2.5-.4,6.82,6.82,0,0,1,1.84.24,4.53,4.53,0,0,1,1.51.74,3,3,0,0,1,1,1.28,3.81,3.81,0,0,1,.26,1.86h-2.62a2.31,2.31,0,0,0-.56-1.75,2.36,2.36,0,0,0-1.72-.59,2.48,2.48,0,0,0-1.59.51,1.7,1.7,0,0,0-.65,1.45,1.4,1.4,0,0,0,.53,1.1,6.9,6.9,0,0,0,1.34.86c.54.27,1.12.54,1.75.8a9.33,9.33,0,0,1,1.76,1,5,5,0,0,1,1.34,1.34A3.26,3.26,0,0,1,231.4,193.51Z"/><path class="cls-1" d="M235.09,183.12v-2.8l2.36-1.06v3.86h3.16v1.78h-3.16v8.9q0,.34,0,.72a1.31,1.31,0,0,0,.23.67,1.54,1.54,0,0,0,.64.51,3.25,3.25,0,0,0,1.26.2l.4,0,.66-.09v1.82c-.38,0-.77.08-1.16.14a7.88,7.88,0,0,1-1.17.09,3.75,3.75,0,0,1-2.48-.67,2.4,2.4,0,0,1-.77-1.92V184.9H232.7v-1.78Z"/><path class="cls-1" d="M250.6,183.12H253v11.51c0,.5,0,1,0,1.51s.06,1,.1,1.51H250.6V195.9h-.08a3.86,3.86,0,0,1-1.56,1.52,4.42,4.42,0,0,1-2.13.52,4.13,4.13,0,0,1-2.9-.93,3.63,3.63,0,0,1-1-2.81V183.12h2.36v10.1a3.49,3.49,0,0,0,.6,2.13,2.19,2.19,0,0,0,1.87.81,2.74,2.74,0,0,0,1-.19,2.5,2.5,0,0,0,.92-.59,3.29,3.29,0,0,0,.68-1,4,4,0,0,0,.27-1.56Z"/><path class="cls-1" d="M264.91,176.87h2.36v20.78h-2.36v-1.72h-.06a4.55,4.55,0,0,1-1.39,1.51,3.62,3.62,0,0,1-1.95.5,6.3,6.3,0,0,1-1.71-.24,3.12,3.12,0,0,1-1.51-1,5.74,5.74,0,0,1-1.06-2.22,14.61,14.61,0,0,1-.41-3.83c0-.9,0-1.82.09-2.75a7.89,7.89,0,0,1,.55-2.52,4.15,4.15,0,0,1,1.43-1.83,4.65,4.65,0,0,1,2.74-.7,3.55,3.55,0,0,1,1.81.45,4.36,4.36,0,0,1,1.39,1.3h.08Zm0,12.93c0-.48,0-1-.06-1.6a6.12,6.12,0,0,0-.33-1.64,3.11,3.11,0,0,0-.82-1.28,2.09,2.09,0,0,0-1.52-.52,2.75,2.75,0,0,0-1.53.37,2.38,2.38,0,0,0-.88,1.12,6.46,6.46,0,0,0-.39,1.85c-.05.73-.08,1.58-.08,2.56,0,.56,0,1.15,0,1.77a6,6,0,0,0,.33,1.73,3.2,3.2,0,0,0,.88,1.32,2.43,2.43,0,0,0,1.71.53,2,2,0,0,0,1.53-.56,3.28,3.28,0,0,0,.79-1.45,9.16,9.16,0,0,0,.29-2C264.9,191.26,264.91,190.52,264.91,189.8Z"/><path class="cls-1" d="M271.45,176.87h2.64v2.53h-2.64Zm2.5,20.78h-2.36V183.12H274Z"/><path class="cls-1" d="M283.16,197.94a9.28,9.28,0,0,1-2.16-.24,3.6,3.6,0,0,1-1.75-1,5.3,5.3,0,0,1-1.18-2.22,13.78,13.78,0,0,1-.44-3.86,28.8,28.8,0,0,1,.16-3,7,7,0,0,1,.72-2.47,4.17,4.17,0,0,1,1.66-1.67,7.54,7.54,0,0,1,6,0,4.14,4.14,0,0,1,1.65,1.67,6.56,6.56,0,0,1,.72,2.47,26.31,26.31,0,0,1,.16,3,14.22,14.22,0,0,1-.43,3.86,5.41,5.41,0,0,1-1.18,2.22,3.63,3.63,0,0,1-1.76,1A9.28,9.28,0,0,1,283.16,197.94Zm0-1.93a2.94,2.94,0,0,0,1.51-.34,2.34,2.34,0,0,0,.94-1.1,6.19,6.19,0,0,0,.47-2,28.23,28.23,0,0,0,.13-3,11.53,11.53,0,0,0-.21-2.43,4,4,0,0,0-.62-1.47,2.07,2.07,0,0,0-1-.73,4,4,0,0,0-2.5,0,2.12,2.12,0,0,0-1,.73,4,4,0,0,0-.61,1.47,10.82,10.82,0,0,0-.22,2.43,28.23,28.23,0,0,0,.13,3,6.47,6.47,0,0,0,.47,2,2.4,2.4,0,0,0,.94,1.1A3,3,0,0,0,283.16,196Z"/><rect class="cls-2" x="161.78" y="92.2" width="7.08" height="11.15"/><rect class="cls-2" x="260.4" y="92.2" width="7.08" height="11.15"/><polygon class="cls-2" points="199.98 92.2 190.21 92.2 190.21 103.85 195.23 103.85 195.23 97.64 201.16 97.64 199.98 92.2"/><path class="cls-2" d="M213.49,102.94h25.57V92.2l-9.65,1.1s-.62,4.43-3.82,4.34-2.51-1.14-2.51-1.14-5.89,3.4-5.72,2.18-2.72-1.53-2.72-1.53l-3.18.42Z"/><path class="cls-1" d="M267.6,91h-6.17V87.59a5.71,5.71,0,0,0-5.7-5.7,5.57,5.57,0,0,0-2.44.57l-1,.48V79.37a6.62,6.62,0,0,0-13.24,0V91h-8.68V88.51a4.76,4.76,0,0,0-4.74-4.8A5,5,0,0,0,222.4,85l-.46.42-.47-.42a4.72,4.72,0,0,0-6.37,0l-.47.42-.46-.42a4.73,4.73,0,0,0-6.38,0l-.46.42-.46-.42a4.82,4.82,0,0,0-3.44-1.24,4.71,4.71,0,0,0-3.3,1.55,4.75,4.75,0,0,0-1.25,3.23V91h-8.67V79.37a6.62,6.62,0,0,0-13.24,0v3.57l-1-.48a5.57,5.57,0,0,0-2.44-.57,5.71,5.71,0,0,0-5.71,5.7V91h-6.16a1.14,1.14,0,0,0-1.14,1.14v11a1.14,1.14,0,0,0,1.14,1.14h6.16v3.42a5.67,5.67,0,0,0,8.15,5.14l1-.49v3.57a6.62,6.62,0,0,0,13.24,0V104.26h5v6.79a8.46,8.46,0,0,0,2.47,6l4.84,4.83v29.89h2.28V121.38a1.15,1.15,0,0,0-.34-.8l-5.16-5.17a6.19,6.19,0,0,1-1.81-4.36V98.78h11.38a2.85,2.85,0,0,1,2.31,1.12l.09.12a2.58,2.58,0,0,1,.25.56,2.18,2.18,0,0,1,.09,1s0,.13,0,.22a2.93,2.93,0,0,1-.29.77,2.5,2.5,0,0,1-2.16,1.26h-5.48a1.14,1.14,0,0,0-1.14,1.14v3.66a1.13,1.13,0,0,0,.78,1.08l4,1.34c3.43,1.14,5.87,5.84,6.14,9.67h2.29c-.27-4.67-3.16-10.32-7.7-11.83l-3.24-1.09v-1.69h4.34a4.75,4.75,0,0,0,3.5-1.59l.2-.23h17.07v7.38a6.25,6.25,0,0,1-1.23,3.7l-4,5.36a1.09,1.09,0,0,0-.23.68v30.36h2.28v-30l3.79-5.05a8.53,8.53,0,0,0,1.69-5.07v-7.38h6.85V115.9a6.62,6.62,0,0,0,13.24,0v-3.56l1,.48a5.66,5.66,0,0,0,8.14-5.14v-3.42h6.17a1.14,1.14,0,0,0,1.14-1.14v-11A1.14,1.14,0,0,0,267.6,91Zm-99.77,11h-5V93.3h5Zm9.14,5.7a3.43,3.43,0,1,1-6.85,0V87.59a3.43,3.43,0,0,1,6.85,0Zm10.95,8.22a4.34,4.34,0,1,1-8.67,0V79.37a4.34,4.34,0,0,1,8.67,0Zm8.45-19.4a1.14,1.14,0,0,0-1.14,1.14V102h-5V93.3h8.67V94a5.38,5.38,0,0,0,.09.9l.12.44a2.68,2.68,0,0,0,.07.27l.31.91ZM206.19,94a2.52,2.52,0,0,1-5,0V88.51a2.52,2.52,0,1,1,5,0Zm16.89-5.48a2.51,2.51,0,1,1,5,0V94a2.51,2.51,0,1,1-5,0Zm-7.3,0a2.51,2.51,0,1,1,5,0V94a2.51,2.51,0,0,1-5,0Zm-4.8,8A2.52,2.52,0,0,1,208.47,94V88.51a2.51,2.51,0,1,1,5,0V94A2.51,2.51,0,0,1,211,96.5ZM239.06,102H214v-.69a5,5,0,0,0-.1-1,.86.86,0,0,1,0-.15c0-.05,0-.13-.06-.2a7.19,7.19,0,0,0-.28-.7,1.36,1.36,0,0,1-.09-.23l-.32-.56.91-.74.23-.17.45-.4.46.4a.83.83,0,0,0,.15.11l.15.11.29.22a4.31,4.31,0,0,0,.47.26l.17.09.17.08.54.17.32.09a4.85,4.85,0,0,0,1.86,0l.13,0,.17,0a4.39,4.39,0,0,0,.58-.18l.16-.08.15-.08a3.67,3.67,0,0,0,.48-.26l.17-.13.27-.2s.11-.07.15-.11l.46-.4.45.4.15.11.15.11a3.19,3.19,0,0,0,.3.22,4.17,4.17,0,0,0,.46.26l.17.08.17.09a5.16,5.16,0,0,0,.55.17l.18,0,.13,0A4.79,4.79,0,0,0,230.29,95a4.46,4.46,0,0,0,.09-1V93.3h8.68Zm11,13.92a4.34,4.34,0,0,1-8.68,0V79.37a4.34,4.34,0,0,1,8.68,0Zm9.13-8.22a3.43,3.43,0,1,1-6.85,0V87.59a3.43,3.43,0,0,1,6.85,0Zm7.31-5.7h-5V93.3h5Z"/></svg>