<svg xmlns="http://www.w3.org/2000/svg" viewBox="0 0 160 160"><path fill="#fdc62d" d="M29.03 54.2h7.08v11.15h-7.08zm98.62 0h7.08v11.15h-7.08zm-60.42 0h-9.77v11.65h5.02v-6.21h5.93l-1.18-5.44zm13.51 10.74h25.57V54.2l-9.65 1.1s-.62 4.43-3.82 4.34-2.51-1.14-2.51-1.14-5.89 3.4-5.72 2.18-2.72-1.53-2.72-1.53l-3.18.42z"/><path d="M134.85 53h-6.17v-3.41a5.71 5.71 0 0 0-5.7-5.7 5.57 5.57 0 0 0-2.44.57l-1 .48v-3.57a6.62 6.62 0 1 0-13.24 0V53h-8.67v-2.49a4.76 4.76 0 0 0-4.74-4.8A5 5 0 0 0 89.65 47l-.46.42-.47-.42a4.72 4.72 0 0 0-6.37 0l-.47.42-.46-.42A4.73 4.73 0 0 0 75 47l-.46.42-.42-.42a4.82 4.82 0 0 0-3.44-1.24 4.71 4.71 0 0 0-3.3 1.55 4.75 4.75 0 0 0-1.25 3.23V53h-8.67V41.37a6.62 6.62 0 0 0-13.24 0v3.57l-1-.48a5.57 5.57 0 0 0-2.44-.57 5.71 5.71 0 0 0-5.71 5.7V53h-6.15a1.14 1.14 0 0 0-1.14 1.14v11a1.14 1.14 0 0 0 1.14 1.14h6.16v3.42a5.67 5.67 0 0 0 8.15 5.14l1-.49v3.55a6.62 6.62 0 1 0 13.24 0V66.26h5v6.79A8.46 8.46 0 0 0 65 79l4.84 4.83v29.89h2.28V83.38a1.15 1.15 0 0 0-.34-.8l-5.16-5.17a6.19 6.19 0 0 1-1.81-4.36V60.78h11.33a2.85 2.85 0 0 1 2.31 1.12l.09.12a2.58 2.58 0 0 1 .25.56 2.18 2.18 0 0 1 .09 1v.22a2.93 2.93 0 0 1-.29.77 2.5 2.5 0 0 1-2.16 1.26h-5.5a1.14 1.14 0 0 0-1.14 1.14v3.63a1.13 1.13 0 0 0 .78 1.08l4 1.34c3.43 1.14 5.87 5.84 6.14 9.67H83c-.27-4.67-3.16-10.32-7.7-11.83l-3.24-1.09v-1.69h4.34a4.75 4.75 0 0 0 3.5-1.59l.2-.23h17.08v7.38a6.25 6.25 0 0 1-1.18 3.7l-4 5.36a1.09 1.09 0 0 0-.23.68v30.36H94v-30l3.79-5.05a8.53 8.53 0 0 0 1.69-5.07v-7.36h6.85V77.9a6.62 6.62 0 1 0 13.24 0v-3.56l1 .48a5.66 5.66 0 0 0 8.14-5.14v-3.42h6.17a1.14 1.14 0 0 0 1.12-1.14v-11a1.14 1.14 0 0 0-1.15-1.12zM35.08 64h-5v-8.7h5zm9.14 5.7a3.43 3.43 0 1 1-6.85 0V49.59a3.43 3.43 0 0 1 6.85 0zm11 8.22a4.34 4.34 0 1 1-8.67 0V41.37a4.34 4.34 0 0 1 8.67 0zm8.45-19.4a1.14 1.14 0 0 0-1.14 1.14V64h-5v-8.7h8.67v.7a5.38 5.38 0 0 0 .09.9l.12.44a2.68 2.68 0 0 0 .07.27l.31.91zM73.44 56a2.52 2.52 0 0 1-5 0v-5.49a2.52 2.52 0 1 1 5 0zm16.89-5.48a2.51 2.51 0 1 1 5 0V56a2.51 2.51 0 1 1-5 0zm-7.3 0a2.51 2.51 0 1 1 5 0V56a2.51 2.51 0 1 1-5 0zm-4.8 8A2.52 2.52 0 0 1 75.72 56v-5.49a2.51 2.51 0 1 1 5 0V56a2.51 2.51 0 0 1-2.49 2.5zM106.31 64H81.2v-.69a5 5 0 0 0-.1-1 .86.86 0 0 1 0-.15L81 62a7.19 7.19 0 0 0-.28-.7 1.36 1.36 0 0 1-.09-.23l-.32-.56.91-.74.23-.17.45-.4.46.4a.83.83 0 0 0 .15.11l.15.11.29.22a4.31 4.31 0 0 0 .47.26l.17.09.17.08.54.17.32.09a4.85 4.85 0 0 0 1.86 0h.3a4.39 4.39 0 0 0 .58-.18l.16-.08.15-.08a3.67 3.67 0 0 0 .48-.26l.17-.13.27-.2s.11-.07.15-.11l.46-.4.45.4.15.11.15.11a3.19 3.19 0 0 0 .3.22 4.17 4.17 0 0 0 .46.26l.17.08.17.09a5.16 5.16 0 0 0 .55.17h.31A4.79 4.79 0 0 0 97.54 57a4.46 4.46 0 0 0 .09-1v-.7h8.68zm11 13.92a4.34 4.34 0 1 1-8.68 0V41.37a4.34 4.34 0 0 1 8.68 0zm9.13-8.22a3.43 3.43 0 1 1-6.85 0V49.59a3.43 3.43 0 0 1 6.85 0zm7.31-5.7h-5v-8.7h5z" fill="#fff"/></svg>