<svg xmlns="http://www.w3.org/2000/svg" viewBox="0 0 160 160"><path d="M73.24 107.17a35.31 35.31 0 0 1-8.77-2.79l-.13-.06c-.55-.27-1.11-.54-1.65-.83l-.25-.13-.62-.36c-1-.55-1.9-1.15-2.8-1.78a35.66 35.66 0 0 1 .17-58.44l.11-.08a35.53 35.53 0 0 1 40.06-.33l1 .68-3.12 4.52 11-1a.72.72 0 0 0 .55-.28.74.74 0 0 0 .07-.61l-2.94-10.61-3.11 4.5-1-.66a39.64 39.64 0 0 0-29-6.17c-1.06.18-2.08.4-3 .64H69.69a39.33 39.33 0 0 0-22 14.69l-1.1-.54 1 .71L47 49c-.33.48-.6.86-.85 1.26 0 0 0 .09-.12.19A39.48 39.48 0 0 0 39.7 73.6v.33c0 .78.1 1.56.19 2.34v.14c.1.83.21 1.64.35 2.45a39.56 39.56 0 0 0 11 21.33l.54.53a41.48 41.48 0 0 0 4.78 3.94 39.38 39.38 0 0 0 15.9 6.65 2.1 2.1 0 0 0 .74-4.14z" fill="none"/><path d="M79 48a1.47 1.47 0 1 0-2.94 0v25.93l23.7 12.25a1.47 1.47 0 0 0 2-.63 1.49 1.49 0 0 0-.63-2L79 72.13z" fill="none"/><path d="M73.66 104.81a33.24 33.24 0 0 1-8.1-2.57l-.25-.12-1.11-.55-.89-.48c-1-.57-2-1.18-2.92-1.84a33.27 33.27 0 0 1 .15-54.5l-.68-1 .79.9A33.13 33.13 0 0 1 97 43.7l-1.87 2.7a2.15 2.15 0 0 0 2.06 3.6l11.21-1a3.05 3.05 0 0 0 2.72-4l-3-10.85a2.15 2.15 0 0 0-4.12-.65l-1.91 2.78a42 42 0 0 0-29.79-5.89c-1.08.18-2.13.4-3.13.66l-.23.06a41.59 41.59 0 0 0-23.19 15.55 1.74 1.74 0 0 0-.18.22l-.64.9c-.28.4-.56.8-.82 1.21l-.1.16a41.9 41.9 0 0 0-6.7 24.69V74c0 .84.1 1.69.2 2.52a1.38 1.38 0 0 0 0 .22c.1.85.22 1.7.36 2.56a42.07 42.07 0 0 0 11.54 22.47l.36.36a44 44 0 0 0 5.43 4.52 41.93 41.93 0 0 0 16.85 7 4.4 4.4 0 0 0 .8.07 4.5 4.5 0 0 0 .79-8.93zm1.28 4.8a2.1 2.1 0 0 1-2.44 1.7 39.38 39.38 0 0 1-15.9-6.65 41.48 41.48 0 0 1-4.78-3.94l-.54-.53a39.56 39.56 0 0 1-11-21.33c-.14-.81-.25-1.62-.35-2.45v-.14c-.09-.78-.15-1.56-.19-2.34v-.33A39.48 39.48 0 0 1 46 50.49c.07-.1.12-.19.12-.19.25-.4.52-.78.85-1.26l.54-.75-1-.71 1.1.54a39.33 39.33 0 0 1 22-14.69H69.73c1-.24 2-.46 3-.64a39.64 39.64 0 0 1 29 6.17l1 .66 3.11-4.5 2.94 10.61a.74.74 0 0 1-.07.61.72.72 0 0 1-.55.28l-11 1 3.2-4.62-1-.68a35.53 35.53 0 0 0-40.06.33l-.11.08a35.69 35.69 0 0 0-.19 58.48c.9.63 1.84 1.23 2.8 1.78l.62.36.25.13c.54.29 1.1.56 1.65.83l.13.06a35.31 35.31 0 0 0 8.77 2.79 2.11 2.11 0 0 1 1.72 2.45z" fill="#fff"/><path d="M77.54 44.15A3.88 3.88 0 0 0 73.67 48v27.39l25 12.93a3.88 3.88 0 0 0 3.55-6.89L81.41 70.67V48a3.88 3.88 0 0 0-3.87-3.85zm23.59 39.41a1.49 1.49 0 0 1 .63 2 1.47 1.47 0 0 1-2 .63L76.07 73.93V48A1.47 1.47 0 1 1 79 48v24.13z" fill="#fff"/><path d="M88.16 106.68c-.7.17-1.42.32-2.12.46a2.11 2.11 0 0 0-1.7 2.45 2.14 2.14 0 0 0 .87 1.35 2 2 0 0 0 1.58.33c.8-.15 1.6-.31 2.39-.5a2.11 2.11 0 0 0-1-4.09zM113.44 60.85a2.22 2.22 0 0 0 .78 1.06 2.1 2.1 0 0 0 3.21-2.38c-.25-.78-.53-1.54-.83-2.29a2 2 0 0 0-1.12-1.15 2 2 0 0 0-.83-.18 2.13 2.13 0 0 0-.78.16 2.1 2.1 0 0 0-1.18 2.73c.31.67.52 1.36.75 2.05zM99.27 101.79c-.61.41-1.24.79-1.86 1.15a2.1 2.1 0 0 0-.76 2.88 2 2 0 0 0 .6.67 2.14 2.14 0 0 0 2.27.1c.69-.41 1.39-.83 2.07-1.28a2.11 2.11 0 0 0-2.32-3.52zM111 93.06a2.11 2.11 0 0 0-3 .42c-.43.58-.88 1.15-1.36 1.71a2.1 2.1 0 0 0 .25 3l.12.1a2.13 2.13 0 0 0 2.84-.34c.53-.62 1-1.26 1.53-1.9a2.12 2.12 0 0 0-.43-3zM116.26 81.3a2.16 2.16 0 0 0-.62-.09 2.1 2.1 0 0 0-2 1.47c-.22.69-.47 1.39-.72 2.06a2.12 2.12 0 0 0 .75 2.47 1.69 1.69 0 0 0 .44.23 2.1 2.1 0 0 0 2.74-1.2c.29-.76.56-1.53.8-2.3a2.12 2.12 0 0 0-1.39-2.64zM117.32 68.48h-.08a2.12 2.12 0 0 0-2 2.19v2.17A2.13 2.13 0 0 0 117.3 75a2.18 2.18 0 0 0 2.15-2.06V70.5a2.12 2.12 0 0 0-2.13-2.02z" fill="#fdc62d"/><path d="M87.58 104.35c-.65.17-1.32.3-2 .43a4.51 4.51 0 0 0-1.77 8.11 4.41 4.41 0 0 0 2.57.82 4.78 4.78 0 0 0 .84-.08c.84-.15 1.69-.33 2.53-.54a4.5 4.5 0 1 0-2.18-8.74zm1.6 6.42c-.79.19-1.59.35-2.39.5a2 2 0 0 1-1.58-.33 2.14 2.14 0 0 1-.87-1.35 2.11 2.11 0 0 1 1.7-2.45c.7-.14 1.42-.29 2.12-.46a2.11 2.11 0 0 1 1 4.09zM98 99.79c-.56.37-1.14.73-1.72 1.06a4.51 4.51 0 0 0-1.71 6.15 4.45 4.45 0 0 0 1.3 1.43 4.57 4.57 0 0 0 2.6.82 4.5 4.5 0 0 0 2.25-.61c.74-.43 1.48-.88 2.19-1.35a4.5 4.5 0 0 0-5-7.52zm3.64 5.52c-.68.45-1.38.87-2.07 1.28a2.14 2.14 0 0 1-2.27-.1 2 2 0 0 1-.6-.67 2.1 2.1 0 0 1 .76-2.88c.62-.36 1.25-.74 1.86-1.15a2.11 2.11 0 0 1 2.32 3.52zM120.11 70.91a2.78 2.78 0 0 0-5.56.22v1.25a2.8 2.8 0 0 0 2.73 2.85 2.8 2.8 0 0 0 2.79-2.72v-1.6zm-2.8 2.84a1.31 1.31 0 0 1-.71-.24 1.29 1.29 0 0 1-.56-1.09v-1.34a1.32 1.32 0 0 1 1.25-1.36 1.31 1.31 0 0 1 1.3 1.25v1.51a1.34 1.34 0 0 1-1.28 1.27zM112.48 91.14a4.52 4.52 0 0 0-6.31.9q-.6.81-1.26 1.59a4.51 4.51 0 0 0 .5 6.34 3.1 3.1 0 0 0 .34.26 4.48 4.48 0 0 0 6-.76c.56-.66 1.09-1.33 1.61-2a4.44 4.44 0 0 0 .86-3.34 4.49 4.49 0 0 0-1.74-2.99zm-1 4.87c-.49.64-1 1.28-1.53 1.9a2.13 2.13 0 0 1-2.84.34l-.12-.1a2.1 2.1 0 0 1-.25-3c.48-.56.93-1.13 1.36-1.71a2.11 2.11 0 0 1 3-.42 2.12 2.12 0 0 1 .43 3zM116.69 79.93a3.74 3.74 0 0 0-4.69 2.45c-.17.53-.36 1.07-.56 1.59a3.74 3.74 0 0 0 1.33 4.38 3.51 3.51 0 0 0 .83.44 3.63 3.63 0 0 0 1.33.24 3.74 3.74 0 0 0 3.49-2.4c.25-.66.49-1.34.7-2a3.75 3.75 0 0 0-2.43-4.7zm.54 4.09c-.2.63-.42 1.28-.66 1.9a1.75 1.75 0 0 1-2.27 1 1.24 1.24 0 0 1-.36-.19 1.73 1.73 0 0 1-.63-2c.21-.56.41-1.13.59-1.7a1.76 1.76 0 0 1 1.67-1.23 1.82 1.82 0 0 1 .52.08 1.75 1.75 0 0 1 1.14 2.12z" fill="#fdc62d"/></svg>