<svg id="Benefits_MKK" data-name="Benefits MKK" xmlns="http://www.w3.org/2000/svg" viewBox="0 0 433 236"><defs><style>.cls-1{fill:none;}.cls-2{fill:#fff;}.cls-3{fill:#fdc62d;}</style></defs><title>Benefits_Schuetze</title><path class="cls-1" d="M209.74,145.17a35.31,35.31,0,0,1-8.77-2.79l-.13-.06c-.55-.27-1.11-.54-1.65-.83h0l-.25-.13-.62-.36c-1-.55-1.9-1.15-2.8-1.78a35.66,35.66,0,0,1,.17-58.44l.11-.08a35.53,35.53,0,0,1,40.06-.33l1,.68-3.12,4.52,10.95-1a.72.72,0,0,0,.55-.28.74.74,0,0,0,.07-.61l-2.94-10.61-3.11,4.5-1-.66a39.64,39.64,0,0,0-29-6.17c-1.06.18-2.08.4-3,.64l-.07,0-.05,0a39.33,39.33,0,0,0-22,14.69l-1.1-.54,1,.71-.54.75c-.33.48-.6.86-.85,1.26,0,0-.05.09-.12.19a39.48,39.48,0,0,0-6.3,23.11l0,.1,0,.23c0,.78.1,1.56.19,2.34v.14c.1.83.21,1.64.35,2.45a39.56,39.56,0,0,0,11,21.33l.54.53a41.48,41.48,0,0,0,4.78,3.94,39.38,39.38,0,0,0,15.9,6.65,2.1,2.1,0,0,0,.74-4.14Z"/><path class="cls-1" d="M215.51,86a1.47,1.47,0,1,0-2.94,0v25.91l23.7,12.25a1.47,1.47,0,0,0,2-.63,1.49,1.49,0,0,0-.63-2l-22.12-11.43Z"/><path class="cls-2" d="M210.16,142.81a33.24,33.24,0,0,1-8.1-2.57l-.25-.12-1.11-.55-.89-.48c-1-.57-2-1.18-2.92-1.84a33.27,33.27,0,0,1,.15-54.5l-.68-1,.79.9a33.13,33.13,0,0,1,36.34-1l-1.87,2.7A2.15,2.15,0,0,0,233.69,88l11.21-1A3.05,3.05,0,0,0,247.62,83l-3-10.85a2.15,2.15,0,0,0-4.07-.69l-1.91,2.78a42,42,0,0,0-29.79-5.89c-1.08.18-2.13.4-3.13.66l-.23.06a41.59,41.59,0,0,0-23.23,15.55,1.74,1.74,0,0,0-.18.22l-.64.9c-.28.4-.56.8-.82,1.21l-.1.16a41.9,41.9,0,0,0-6.7,24.69V112c0,.84.1,1.69.2,2.52a1.38,1.38,0,0,0,0,.22c.1.85.22,1.7.36,2.56a42.07,42.07,0,0,0,11.54,22.47l.36.36a44,44,0,0,0,5.43,4.52,41.93,41.93,0,0,0,16.85,7,4.4,4.4,0,0,0,.8.07,4.5,4.5,0,0,0,.79-8.93Zm1.28,4.8a2.1,2.1,0,0,1-2.44,1.7,39.38,39.38,0,0,1-15.9-6.65,41.48,41.48,0,0,1-4.78-3.94l-.54-.53a39.56,39.56,0,0,1-11-21.33c-.14-.81-.25-1.62-.35-2.45v-.14c-.09-.78-.15-1.56-.19-2.34l0-.23,0-.1a39.48,39.48,0,0,1,6.3-23.11c.07-.1.12-.19.12-.19.25-.4.52-.78.85-1.26l.54-.75-1-.71,1.1.54a39.33,39.33,0,0,1,22-14.69l.05,0,.07,0c.95-.24,2-.46,3-.64a39.64,39.64,0,0,1,29,6.17l1,.66,3.11-4.5,2.94,10.61a.74.74,0,0,1-.07.61.72.72,0,0,1-.55.28l-10.95,1L236.86,81l-1-.68a35.53,35.53,0,0,0-40.06.33l-.11.08a35.69,35.69,0,0,0-.17,58.44c.9.63,1.84,1.23,2.8,1.78l.62.36.25.13h0c.54.29,1.1.56,1.65.83l.13.06a35.31,35.31,0,0,0,8.77,2.79A2.11,2.11,0,0,1,211.44,147.61Z"/><path class="cls-2" d="M214,82.15A3.88,3.88,0,0,0,210.17,86v27.37l25,12.93a3.88,3.88,0,0,0,3.55-6.89l-20.82-10.76V86A3.88,3.88,0,0,0,214,82.15Zm23.59,39.41a1.49,1.49,0,0,1,.63,2,1.47,1.47,0,0,1-2,.63l-23.7-12.25V86a1.47,1.47,0,1,1,2.94,0v24.11Z"/><path class="cls-3" d="M224.66,144.68c-.7.17-1.42.32-2.12.46a2.11,2.11,0,0,0-1.7,2.45,2.14,2.14,0,0,0,.87,1.35,2,2,0,0,0,1.58.33c.8-.15,1.6-.31,2.39-.5a2.11,2.11,0,0,0-1-4.09Z"/><path class="cls-3" d="M249.94,98.85h0a2.22,2.22,0,0,0,.78,1.06,2.1,2.1,0,0,0,3.21-2.38c-.25-.78-.53-1.54-.83-2.29A2,2,0,0,0,252,94.09a2,2,0,0,0-.83-.18,2.13,2.13,0,0,0-.78.16,2.1,2.1,0,0,0-1.18,2.73C249.46,97.47,249.71,98.16,249.94,98.85Z"/><path class="cls-3" d="M235.77,139.79c-.61.41-1.24.79-1.86,1.15a2.1,2.1,0,0,0-.76,2.88,2,2,0,0,0,.6.67,2.14,2.14,0,0,0,2.27.1c.69-.41,1.39-.83,2.07-1.28a2.11,2.11,0,0,0-2.32-3.52Z"/><path class="cls-3" d="M247.54,131.06h0a2.11,2.11,0,0,0-2.95.42c-.43.58-.88,1.15-1.36,1.71a2.1,2.1,0,0,0,.25,3l.12.1a2.13,2.13,0,0,0,2.84-.34c.53-.62,1-1.26,1.53-1.9a2.12,2.12,0,0,0-.43-2.95Z"/><path class="cls-3" d="M252.76,119.3a2.16,2.16,0,0,0-.62-.09,2.1,2.1,0,0,0-2,1.47c-.22.69-.47,1.39-.72,2.06a2.12,2.12,0,0,0,.75,2.47,1.69,1.69,0,0,0,.44.23,2.1,2.1,0,0,0,2.74-1.2c.29-.76.56-1.53.8-2.3A2.12,2.12,0,0,0,252.76,119.3Z"/><path class="cls-3" d="M253.82,106.48h-.08a2.12,2.12,0,0,0-2,2.19c0,.72,0,1.45,0,2.17A2.13,2.13,0,0,0,253.8,113a2.18,2.18,0,0,0,2.15-2.06c0-.81,0-1.62,0-2.44A2.12,2.12,0,0,0,253.82,106.48Z"/><path class="cls-3" d="M224.08,142.35h0c-.65.17-1.32.3-2,.43a4.51,4.51,0,0,0-1.77,8.11,4.41,4.41,0,0,0,2.57.82,4.78,4.78,0,0,0,.84-.08c.84-.15,1.69-.33,2.53-.54a4.5,4.5,0,1,0-2.18-8.74Zm1.6,6.42c-.79.19-1.59.35-2.39.5a2,2,0,0,1-1.58-.33,2.14,2.14,0,0,1-.87-1.35,2.11,2.11,0,0,1,1.7-2.45c.7-.14,1.42-.29,2.12-.46a2.11,2.11,0,0,1,1,4.09Z"/><path class="cls-3" d="M234.45,137.79h0c-.56.37-1.14.73-1.72,1.06a4.51,4.51,0,0,0-1.65,6.16,4.45,4.45,0,0,0,1.3,1.43,4.57,4.57,0,0,0,2.6.82,4.5,4.5,0,0,0,2.25-.61c.74-.43,1.48-.88,2.19-1.35a4.5,4.5,0,0,0-5-7.52Zm3.64,5.52c-.68.45-1.38.87-2.07,1.28a2.14,2.14,0,0,1-2.27-.1,2,2,0,0,1-.6-.67,2.1,2.1,0,0,1,.76-2.88c.62-.36,1.25-.74,1.86-1.15a2.11,2.11,0,0,1,2.32,3.52Z"/><path class="cls-3" d="M256.61,108.91a2.78,2.78,0,0,0-5.56.22c0,.42,0,.84,0,1.25a2.8,2.8,0,0,0,2.73,2.85h.05a2.8,2.8,0,0,0,2.79-2.72c0-.53,0-1.06,0-1.6Zm-2.8,2.84a1.31,1.31,0,0,1-.71-.24,1.29,1.29,0,0,1-.56-1.09c0-.45,0-.9,0-1.34a1.32,1.32,0,0,1,1.25-1.36h.05a1.31,1.31,0,0,1,1.3,1.25c0,.5,0,1,0,1.51A1.34,1.34,0,0,1,253.81,111.75Z"/><path class="cls-3" d="M249,129.14a4.52,4.52,0,0,0-6.31.9q-.6.81-1.26,1.59a4.51,4.51,0,0,0,.5,6.34,3.1,3.1,0,0,0,.34.26,4.48,4.48,0,0,0,6-.76c.56-.66,1.09-1.33,1.61-2a4.44,4.44,0,0,0,.86-3.34A4.49,4.49,0,0,0,249,129.14ZM248,134c-.49.64-1,1.28-1.53,1.9a2.13,2.13,0,0,1-2.84.34l-.12-.1a2.1,2.1,0,0,1-.25-3c.48-.56.93-1.13,1.36-1.71a2.11,2.11,0,0,1,2.95-.42h0A2.12,2.12,0,0,1,248,134Z"/><path class="cls-3" d="M253.19,117.93h0a3.74,3.74,0,0,0-4.67,2.45c-.17.53-.36,1.07-.56,1.59a3.74,3.74,0,0,0,1.33,4.38,3.51,3.51,0,0,0,.83.44,3.63,3.63,0,0,0,1.33.24,3.74,3.74,0,0,0,3.49-2.4c.25-.66.49-1.34.7-2A3.75,3.75,0,0,0,253.19,117.93Zm.54,4.09c-.2.63-.42,1.28-.66,1.9a1.75,1.75,0,0,1-2.27,1,1.24,1.24,0,0,1-.36-.19,1.73,1.73,0,0,1-.63-2c.21-.56.41-1.13.59-1.7a1.76,1.76,0,0,1,1.67-1.23,1.82,1.82,0,0,1,.52.08A1.75,1.75,0,0,1,253.73,122Z"/><path class="cls-2" d="M94.19,197.65V176.87H104.5v2.3H96.84v6.68h7.25v2.31H96.84v9.49Z"/><path class="cls-2" d="M109.22,197.65h-2.36V176.87h2.36Z"/><path class="cls-2" d="M115.61,191.15a12.57,12.57,0,0,0,.2,2.47,4,4,0,0,0,.58,1.49,1.89,1.89,0,0,0,.92.72,3.88,3.88,0,0,0,1.23.18,2.28,2.28,0,0,0,1.07-.23,2.33,2.33,0,0,0,.78-.6,2.78,2.78,0,0,0,.49-.88,4.07,4.07,0,0,0,.2-1.05h2.59a4.44,4.44,0,0,1-1.4,3.57,5.59,5.59,0,0,1-3.67,1.12,9.28,9.28,0,0,1-2.16-.24,3.6,3.6,0,0,1-1.75-1,5.3,5.3,0,0,1-1.18-2.22,13.83,13.83,0,0,1-.43-3.86,28.88,28.88,0,0,1,.15-3,7,7,0,0,1,.72-2.47,4.17,4.17,0,0,1,1.66-1.67,6.13,6.13,0,0,1,3-.62,6.48,6.48,0,0,1,2.56.43,3.54,3.54,0,0,1,1.59,1.31,5.83,5.83,0,0,1,.8,2.2,18,18,0,0,1,.23,3.14v1.24Zm5.67-1.79a11.34,11.34,0,0,0-.22-2.52,3.75,3.75,0,0,0-.59-1.43,1.6,1.6,0,0,0-.92-.65,4.43,4.43,0,0,0-1.18-.15,3,3,0,0,0-1.06.18,1.77,1.77,0,0,0-.87.69,4.11,4.11,0,0,0-.6,1.45,10.2,10.2,0,0,0-.23,2.43Z"/><path class="cls-2" d="M138.21,197.65H135.1l-3.37-6-3.14,6H125.8l4.52-7.6-4.15-6.93h3l2.76,5.21,2.94-5.21h2.85l-4.35,6.93Z"/><path class="cls-2" d="M140.28,176.87h2.65v2.53h-2.65Zm2.5,20.78h-2.36V183.12h2.36Z"/><path class="cls-2" d="M149.43,197.65h-2.36V176.87h2.36v7.71h.09a4.23,4.23,0,0,1,1.38-1.3,3.56,3.56,0,0,1,1.82-.45,4.59,4.59,0,0,1,2.73.7,4.24,4.24,0,0,1,1.44,1.83,7.89,7.89,0,0,1,.55,2.52c.05.93.08,1.85.08,2.75a14.66,14.66,0,0,1-.4,3.83,5.75,5.75,0,0,1-1.07,2.22,3.12,3.12,0,0,1-1.51,1,6.19,6.19,0,0,1-1.71.24,3.56,3.56,0,0,1-1.94-.5,4.47,4.47,0,0,1-1.4-1.51h-.06Zm0-7.85v1.91a8.76,8.76,0,0,0,.23,2,4.1,4.1,0,0,0,.78,1.61,2,2,0,0,0,1.64.66,2.43,2.43,0,0,0,1.71-.53,3.11,3.11,0,0,0,.88-1.32,6,6,0,0,0,.33-1.73c0-.62.05-1.21.05-1.77,0-1,0-1.83-.1-2.56a6.77,6.77,0,0,0-.41-1.85,2.41,2.41,0,0,0-.86-1.12,2.68,2.68,0,0,0-1.51-.37,2.13,2.13,0,0,0-1.53.52,3.21,3.21,0,0,0-.82,1.28,6.12,6.12,0,0,0-.33,1.64C149.45,188.78,149.43,189.32,149.43,189.8Z"/><path class="cls-2" d="M163.57,197.65h-2.36V176.87h2.36Z"/><path class="cls-2" d="M170,191.15a11.85,11.85,0,0,0,.2,2.47,4,4,0,0,0,.58,1.49,1.84,1.84,0,0,0,.92.72,3.9,3.9,0,0,0,1.24.18,2.27,2.27,0,0,0,1.06-.23,2.33,2.33,0,0,0,.78-.6,2.78,2.78,0,0,0,.49-.88,4.07,4.07,0,0,0,.2-1.05H178a4.44,4.44,0,0,1-1.4,3.57,5.59,5.59,0,0,1-3.67,1.12,9.34,9.34,0,0,1-2.16-.24,3.6,3.6,0,0,1-1.75-1,5.41,5.41,0,0,1-1.18-2.22,13.83,13.83,0,0,1-.43-3.86,28.88,28.88,0,0,1,.15-3,7,7,0,0,1,.72-2.47,4.17,4.17,0,0,1,1.66-1.67,6.13,6.13,0,0,1,3-.62,6.48,6.48,0,0,1,2.56.43,3.54,3.54,0,0,1,1.59,1.31,5.83,5.83,0,0,1,.8,2.2,18,18,0,0,1,.23,3.14v1.24Zm5.67-1.79a11.34,11.34,0,0,0-.22-2.52,3.75,3.75,0,0,0-.59-1.43,1.6,1.6,0,0,0-.92-.65,4.43,4.43,0,0,0-1.18-.15,3,3,0,0,0-1.06.18,1.77,1.77,0,0,0-.87.69,4.11,4.11,0,0,0-.6,1.45,10.2,10.2,0,0,0-.23,2.43Z"/><path class="cls-2" d="M193.39,176.87h3.37l6.76,20.78h-3l-1.5-5h-8l-1.55,5H186.8Zm1.61,2.45H195l-3.26,11.08h6.65Z"/><path class="cls-2" d="M208.48,185.3h.05a5.67,5.67,0,0,1,.8-1.32,2.91,2.91,0,0,1,.94-.75,3.78,3.78,0,0,1,1.21-.33,14.26,14.26,0,0,1,1.54-.07v2.45l-.31-.05-.32,0-.3,0-.33,0a3.31,3.31,0,0,0-1.61.35,2.83,2.83,0,0,0-1,.89,3.44,3.44,0,0,0-.52,1.27,7,7,0,0,0-.14,1.44v8.57h-2.36V183.12h2.36Z"/><path class="cls-2" d="M218.18,197.65h-2.36V176.87h2.36v7.71h.08a4.36,4.36,0,0,1,1.39-1.3,3.52,3.52,0,0,1,1.81-.45,4.59,4.59,0,0,1,2.73.7,4.1,4.1,0,0,1,1.44,1.83,7.89,7.89,0,0,1,.55,2.52c.06.93.09,1.85.09,2.75a14.61,14.61,0,0,1-.41,3.83,5.74,5.74,0,0,1-1.06,2.22,3.16,3.16,0,0,1-1.51,1,6.32,6.32,0,0,1-1.72.24,3.61,3.61,0,0,1-1.94-.5,4.57,4.57,0,0,1-1.4-1.51h0Zm0-7.85v1.91a8.25,8.25,0,0,0,.23,2,3.85,3.85,0,0,0,.78,1.61,2,2,0,0,0,1.64.66,2.45,2.45,0,0,0,1.71-.53,3.3,3.3,0,0,0,.88-1.32,6,6,0,0,0,.33-1.73c0-.62,0-1.21,0-1.77,0-1,0-1.83-.1-2.56a6.79,6.79,0,0,0-.4-1.85,2.43,2.43,0,0,0-.87-1.12,2.66,2.66,0,0,0-1.51-.37,2.09,2.09,0,0,0-1.52.52,3.11,3.11,0,0,0-.82,1.28,5.76,5.76,0,0,0-.34,1.64C218.2,188.78,218.18,189.32,218.18,189.8Z"/><path class="cls-2" d="M232.31,191.15a12.57,12.57,0,0,0,.2,2.47,4.17,4.17,0,0,0,.58,1.49,1.93,1.93,0,0,0,.92.72,4,4,0,0,0,1.24.18,2.24,2.24,0,0,0,1.06-.23,2.33,2.33,0,0,0,.78-.6,2.6,2.6,0,0,0,.49-.88,3.69,3.69,0,0,0,.2-1.05h2.59a4.44,4.44,0,0,1-1.39,3.57,5.62,5.62,0,0,1-3.67,1.12,9.28,9.28,0,0,1-2.16-.24,3.58,3.58,0,0,1-1.76-1,5.41,5.41,0,0,1-1.18-2.22,13.83,13.83,0,0,1-.43-3.86,26.31,26.31,0,0,1,.16-3,6.56,6.56,0,0,1,.72-2.47,4.08,4.08,0,0,1,1.65-1.67,6.15,6.15,0,0,1,3-.62,6.51,6.51,0,0,1,2.56.43,3.51,3.51,0,0,1,1.58,1.31,5.83,5.83,0,0,1,.81,2.2,19,19,0,0,1,.23,3.14v1.24Zm5.67-1.79a12.08,12.08,0,0,0-.21-2.52,3.92,3.92,0,0,0-.59-1.43,1.63,1.63,0,0,0-.92-.65,4.49,4.49,0,0,0-1.18-.15,3.08,3.08,0,0,0-1.07.18,1.75,1.75,0,0,0-.86.69,4.29,4.29,0,0,0-.61,1.45,10.75,10.75,0,0,0-.23,2.43Z"/><path class="cls-2" d="M244.2,176.87h2.65v2.53H244.2Zm2.51,20.78h-2.36V183.12h2.36Z"/><path class="cls-2" d="M251.05,183.12v-2.8l2.36-1.06v3.86h3.17v1.78h-3.17v8.9q0,.34,0,.72a1.41,1.41,0,0,0,.23.67,1.58,1.58,0,0,0,.65.51,3.19,3.19,0,0,0,1.25.2l.4,0,.67-.09v1.82c-.39,0-.78.08-1.17.14a7.65,7.65,0,0,1-1.16.09,3.73,3.73,0,0,1-2.48-.67,2.37,2.37,0,0,1-.78-1.92V184.9h-2.39v-1.78Z"/><path class="cls-2" d="M268.15,193.51a4.76,4.76,0,0,1-.39,2,3.64,3.64,0,0,1-1.06,1.37,4.24,4.24,0,0,1-1.61.78,8.06,8.06,0,0,1-2,.24,5.69,5.69,0,0,1-3.72-1.11,4.26,4.26,0,0,1-1.29-3.61h2.67c0,.21,0,.48.05.79a2.5,2.5,0,0,0,.27.92,2,2,0,0,0,.72.77,2.57,2.57,0,0,0,1.38.31,2.91,2.91,0,0,0,1.79-.54,2,2,0,0,0,.72-1.67,1.43,1.43,0,0,0-.54-1.11,5.88,5.88,0,0,0-1.34-.89c-.53-.28-1.12-.56-1.75-.84a10.34,10.34,0,0,1-1.76-1,5.42,5.42,0,0,1-1.34-1.32,3.21,3.21,0,0,1-.53-1.86,4.69,4.69,0,0,1,.2-1.26,3.18,3.18,0,0,1,.77-1.3,4.25,4.25,0,0,1,1.54-1,6.58,6.58,0,0,1,2.5-.4,6.82,6.82,0,0,1,1.84.24,4.53,4.53,0,0,1,1.51.74,3,3,0,0,1,1,1.28A3.94,3.94,0,0,1,268,187h-2.62a2.31,2.31,0,0,0-.56-1.75,2.36,2.36,0,0,0-1.72-.59,2.48,2.48,0,0,0-1.59.51,1.7,1.7,0,0,0-.65,1.45,1.44,1.44,0,0,0,.53,1.1,6.6,6.6,0,0,0,1.34.86c.54.27,1.12.54,1.76.8a9.57,9.57,0,0,1,1.75,1,5.17,5.17,0,0,1,1.34,1.34A3.26,3.26,0,0,1,268.15,193.51Z"/><path class="cls-2" d="M279.49,185.28l-6.42,10.45h6.63v1.92h-9.19v-2.21l6.34-10.34v0h-6v-1.93h8.66Z"/><path class="cls-2" d="M285.08,191.15a12.57,12.57,0,0,0,.2,2.47,4,4,0,0,0,.58,1.49,1.89,1.89,0,0,0,.92.72A4,4,0,0,0,288,196a2.27,2.27,0,0,0,1.06-.23,2.33,2.33,0,0,0,.78-.6,2.78,2.78,0,0,0,.49-.88,4.07,4.07,0,0,0,.2-1.05h2.59a4.44,4.44,0,0,1-1.4,3.57,5.59,5.59,0,0,1-3.67,1.12,9.34,9.34,0,0,1-2.16-.24,3.6,3.6,0,0,1-1.75-1,5.41,5.41,0,0,1-1.18-2.22,13.83,13.83,0,0,1-.43-3.86,28.88,28.88,0,0,1,.15-3,7,7,0,0,1,.72-2.47,4.17,4.17,0,0,1,1.66-1.67,6.13,6.13,0,0,1,3-.62,6.57,6.57,0,0,1,2.57.43,3.57,3.57,0,0,1,1.58,1.31,5.83,5.83,0,0,1,.8,2.2,18,18,0,0,1,.23,3.14v1.24Zm5.67-1.79a11.34,11.34,0,0,0-.22-2.52,3.75,3.75,0,0,0-.59-1.43,1.6,1.6,0,0,0-.92-.65,4.43,4.43,0,0,0-1.18-.15,3,3,0,0,0-1.06.18,1.77,1.77,0,0,0-.87.69,4.11,4.11,0,0,0-.6,1.45,10.2,10.2,0,0,0-.23,2.43Z"/><path class="cls-2" d="M297,176.87h2.65v2.53H297Zm2.5,20.78h-2.36V183.12h2.36Z"/><path class="cls-2" d="M303.82,183.12v-2.8l2.36-1.06v3.86h3.17v1.78h-3.17v8.9q0,.34,0,.72a1.31,1.31,0,0,0,.23.67,1.51,1.51,0,0,0,.65.51,3.16,3.16,0,0,0,1.25.2l.4,0,.66-.09v1.82c-.38,0-.77.08-1.16.14a7.78,7.78,0,0,1-1.17.09,3.72,3.72,0,0,1-2.47-.67,2.37,2.37,0,0,1-.78-1.92V184.9h-2.39v-1.78Z"/><path class="cls-2" d="M313.87,191.15a11.85,11.85,0,0,0,.2,2.47,4,4,0,0,0,.57,1.49,1.91,1.91,0,0,0,.93.72,3.88,3.88,0,0,0,1.23.18,2.28,2.28,0,0,0,1.07-.23,2.55,2.55,0,0,0,.78-.6,2.58,2.58,0,0,0,.48-.88,3.7,3.7,0,0,0,.21-1.05h2.59a4.44,4.44,0,0,1-1.4,3.57,5.59,5.59,0,0,1-3.67,1.12,9.28,9.28,0,0,1-2.16-.24,3.55,3.55,0,0,1-1.75-1,5.42,5.42,0,0,1-1.19-2.22,14.22,14.22,0,0,1-.43-3.86,28.8,28.8,0,0,1,.16-3,7,7,0,0,1,.72-2.47,4.17,4.17,0,0,1,1.66-1.67,6.11,6.11,0,0,1,3-.62,6.48,6.48,0,0,1,2.56.43,3.6,3.6,0,0,1,1.59,1.31,5.83,5.83,0,0,1,.8,2.2,18,18,0,0,1,.23,3.14v1.24Zm5.67-1.79a12,12,0,0,0-.22-2.52,3.75,3.75,0,0,0-.59-1.43,1.63,1.63,0,0,0-.92-.65,4.49,4.49,0,0,0-1.18-.15,3,3,0,0,0-1.06.18,1.77,1.77,0,0,0-.87.69,4.11,4.11,0,0,0-.6,1.45,10.2,10.2,0,0,0-.23,2.43Z"/><path class="cls-2" d="M333.85,197.65V187.58a4.94,4.94,0,0,0-.12-1.1,2.45,2.45,0,0,0-.4-.9,2,2,0,0,0-.8-.61,3.23,3.23,0,0,0-1.25-.21,2.72,2.72,0,0,0-1.55.39,2.59,2.59,0,0,0-.89,1,4.17,4.17,0,0,0-.42,1.39,10.94,10.94,0,0,0-.1,1.51v8.6H326V186.14c0-.5,0-1,0-1.51s-.06-1-.1-1.51h2.51V185h.11a4,4,0,0,1,1.59-1.7,5,5,0,0,1,2.3-.46,4.81,4.81,0,0,1,1.91.33,2.73,2.73,0,0,1,1.2,1,4,4,0,0,1,.6,1.52,9.63,9.63,0,0,1,.18,1.94v10.07Z"/></svg>