<svg data-name="Benefits MKK" xmlns="http://www.w3.org/2000/svg" viewBox="0 0 433 236"><path d="M78 176.34a4.14 4.14 0 0 0-.84-2.8 3.6 3.6 0 0 0-2.85-1 7.55 7.55 0 0 0-1 .09 3.12 3.12 0 0 0-1.28.52 3.55 3.55 0 0 0-1.12 1.34 5.52 5.52 0 0 0-.47 2.55v7a13.66 13.66 0 0 0 .24 2.81 4.5 4.5 0 0 0 .73 1.75 2.53 2.53 0 0 0 1.2.89 4.85 4.85 0 0 0 1.65.25 7.93 7.93 0 0 0 2.38-.3 4.84 4.84 0 0 0 1.34-.62v-6.22h-3.81v-2.3h6.48v10.1a14.05 14.05 0 0 1-2.82 1.12 13 13 0 0 1-3.55.44 6.18 6.18 0 0 1-4.92-1.86q-1.6-1.86-1.61-6.18v-6.82a7.28 7.28 0 0 1 1.61-5 6.2 6.2 0 0 1 4.92-1.84c2.25 0 3.91.45 5 1.37s1.56 2.45 1.48 4.61zM87.64 185.07a12.57 12.57 0 0 0 .2 2.47 4.17 4.17 0 0 0 .58 1.49 1.93 1.93 0 0 0 .92.72 4 4 0 0 0 1.24.18 2.24 2.24 0 0 0 1.06-.23 2.33 2.33 0 0 0 .78-.6 2.78 2.78 0 0 0 .49-.88 3.75 3.75 0 0 0 .2-1.05h2.59a4.44 4.44 0 0 1-1.39 3.57 5.62 5.62 0 0 1-3.67 1.12 9.28 9.28 0 0 1-2.16-.24 3.58 3.58 0 0 1-1.76-1 5.41 5.41 0 0 1-1.18-2.22 13.83 13.83 0 0 1-.43-3.86 26.31 26.31 0 0 1 .16-3A6.56 6.56 0 0 1 86 179a4.08 4.08 0 0 1 1.65-1.67 6.15 6.15 0 0 1 3-.62 6.51 6.51 0 0 1 2.56.43 3.45 3.45 0 0 1 1.58 1.31 6 6 0 0 1 .81 2.2 19 19 0 0 1 .23 3.14v1.24zm5.67-1.79a12.08 12.08 0 0 0-.21-2.52 4.05 4.05 0 0 0-.59-1.44 1.66 1.66 0 0 0-.92-.64 4.49 4.49 0 0 0-1.18-.15 3.08 3.08 0 0 0-1.07.18 1.75 1.75 0 0 0-.86.69 4.1 4.1 0 0 0-.61 1.45 10.69 10.69 0 0 0-.23 2.43zM109.09 187.43a4.76 4.76 0 0 1-.39 2 3.56 3.56 0 0 1-1.07 1.37 4.17 4.17 0 0 1-1.61.78 8 8 0 0 1-2 .24 5.68 5.68 0 0 1-3.71-1.11 4.27 4.27 0 0 1-1.3-3.61h2.68v.79a2.34 2.34 0 0 0 .28.92 2 2 0 0 0 .72.77 2.52 2.52 0 0 0 1.38.31 2.88 2.88 0 0 0 1.78-.54 2 2 0 0 0 .72-1.67 1.44 1.44 0 0 0-.53-1.11 5.88 5.88 0 0 0-1.34-.89c-.54-.28-1.12-.56-1.75-.84a10 10 0 0 1-1.76-1 5.26 5.26 0 0 1-1.34-1.32 3.21 3.21 0 0 1-.53-1.86 4.82 4.82 0 0 1 .2-1.27 3.19 3.19 0 0 1 .76-1.29 4.43 4.43 0 0 1 1.54-1 6.67 6.67 0 0 1 2.51-.4 6.87 6.87 0 0 1 1.84.24 4.53 4.53 0 0 1 1.51.74 3.1 3.1 0 0 1 1 1.28 3.68 3.68 0 0 1 .26 1.86h-2.62a2.27 2.27 0 0 0-.56-1.75 2.32 2.32 0 0 0-1.71-.59 2.51 2.51 0 0 0-1.6.51 1.73 1.73 0 0 0-.65 1.45 1.38 1.38 0 0 0 .54 1.09 6.21 6.21 0 0 0 1.34.87c.53.27 1.12.54 1.75.8a9.66 9.66 0 0 1 1.76 1 5.33 5.33 0 0 1 1.34 1.34 3.26 3.26 0 0 1 .56 1.89zM112.77 177v-2.8l2.36-1.06V177h3.17v1.78h-3.17V188.4a1.41 1.41 0 0 0 .23.67 1.58 1.58 0 0 0 .65.51 3.23 3.23 0 0 0 1.25.2h.41l.66-.09v1.82c-.39 0-.77.08-1.17.14a7.65 7.65 0 0 1-1.16.09 3.73 3.73 0 0 1-2.48-.67 2.37 2.37 0 0 1-.78-1.92v-10.33h-2.39V177zM128 189.47h-.06a3.87 3.87 0 0 1-1.41 1.83 4.06 4.06 0 0 1-2.24.56 4.51 4.51 0 0 1-1.92-.36 3.22 3.22 0 0 1-1.22-1 4 4 0 0 1-.65-1.51 9.64 9.64 0 0 1-.18-1.92 3.84 3.84 0 0 1 2.56-3.94 8.34 8.34 0 0 1 2.47-.52c.9-.06 1.77-.08 2.59-.06v-1.44a3.7 3.7 0 0 0-.25-1.29 2.13 2.13 0 0 0-.74-.94 2.48 2.48 0 0 0-1.45-.36 2.18 2.18 0 0 0-1.8.72 2.46 2.46 0 0 0-.48 1.87h-2.56a4.27 4.27 0 0 1 1.34-3.41 5.78 5.78 0 0 1 3.58-1 6.61 6.61 0 0 1 2.32.34 3.61 3.61 0 0 1 1.44.94 3.21 3.21 0 0 1 .75 1.38 6.68 6.68 0 0 1 .21 1.71v7c0 .58 0 1.16.08 1.74s.12 1.16.21 1.71H128zm-.06-5.12h-1.77a5.77 5.77 0 0 0-1.71.29 2.82 2.82 0 0 0-1.28.84 2.63 2.63 0 0 0-.5 1.75 3.28 3.28 0 0 0 .54 1.87 1.94 1.94 0 0 0 1.73.8 3.2 3.2 0 0 0 1.11-.21 2.4 2.4 0 0 0 1-.82 4.83 4.83 0 0 0 .7-1.7 10.54 10.54 0 0 0 .18-2.82zM137.21 191.57h-2.36v-20.78h2.36zM141.56 177v-2.8l2.36-1.06V177h3.17v1.78h-3.17V188.4a1.31 1.31 0 0 0 .23.67 1.51 1.51 0 0 0 .65.51 3.19 3.19 0 0 0 1.25.2h.4l.67-.09v1.82c-.39 0-.78.08-1.17.14a7.68 7.68 0 0 1-1.17.09 3.72 3.72 0 0 1-2.47-.67 2.37 2.37 0 0 1-.78-1.92v-10.33h-2.39V177zM157.08 177h2.36v13.02c0 .51.06 1 .1 1.51h-2.5v-1.75H157a3.78 3.78 0 0 1-1.55 1.52 4.47 4.47 0 0 1-2.13.52 4.14 4.14 0 0 1-2.91-.93 3.67 3.67 0 0 1-1-2.81V177h2.36v10.1a3.43 3.43 0 0 0 .61 2.13 2.17 2.17 0 0 0 1.87.81 3.08 3.08 0 0 0 1-.19 2.59 2.59 0 0 0 .92-.59 3.27 3.27 0 0 0 .67-1 3.79 3.79 0 0 0 .28-1.56zM171.59 191.57V181.5a4.88 4.88 0 0 0-.12-1.1 2.45 2.45 0 0 0-.4-.9 2 2 0 0 0-.79-.61 3.32 3.32 0 0 0-1.26-.21 2.72 2.72 0 0 0-1.55.39 2.6 2.6 0 0 0-.89 1 4.44 4.44 0 0 0-.42 1.38 11.19 11.19 0 0 0-.1 1.52v8.6h-2.36v-11.51-1.51c0-.51-.06-1-.1-1.51h2.51v1.87h.11a4 4 0 0 1 1.59-1.7 5 5 0 0 1 2.3-.46 4.78 4.78 0 0 1 1.91.33 2.73 2.73 0 0 1 1.2 1 4 4 0 0 1 .6 1.52 9.63 9.63 0 0 1 .18 1.94v10.07zM185.78 177h2.36v16a4.48 4.48 0 0 1-.39 2 3 3 0 0 1-1.09 1.24 4.71 4.71 0 0 1-1.69.62 13.17 13.17 0 0 1-2.19.17 6.2 6.2 0 0 1-1.74-.23 4.39 4.39 0 0 1-1.44-.7 3.27 3.27 0 0 1-1-1.21 3.34 3.34 0 0 1-.26-1.74H181a2.07 2.07 0 0 0 .63 1.55 2.25 2.25 0 0 0 1.59.55 2.45 2.45 0 0 0 1.88-.69 2.57 2.57 0 0 0 .65-1.82v-3h-.09a3.23 3.23 0 0 1-1.35 1.34 3.84 3.84 0 0 1-1.84.47 4.3 4.3 0 0 1-2.39-.6 4 4 0 0 1-1.44-1.64 7.75 7.75 0 0 1-.71-2.45 23.93 23.93 0 0 1-.18-3 11.44 11.44 0 0 1 .54-3.93 5.88 5.88 0 0 1 1.28-2.13 3.3 3.3 0 0 1 1.51-.88 6.44 6.44 0 0 1 1.21-.17 4 4 0 0 1 2 .5 3.37 3.37 0 0 1 1.37 1.57h.06zm.06 7.19v-1.77a6.92 6.92 0 0 0-.28-1.8 3.05 3.05 0 0 0-.82-1.39 2.3 2.3 0 0 0-1.69-.56 2.15 2.15 0 0 0-1.57.53 3.05 3.05 0 0 0-.82 1.32 6.58 6.58 0 0 0-.32 1.69c0 .59-.06 1.13-.06 1.61a17 17 0 0 0 .19 2.86 5.2 5.2 0 0 0 .56 1.76 2.11 2.11 0 0 0 .89.89 2.65 2.65 0 0 0 1.18.25 2.2 2.2 0 0 0 1.63-.57 3.3 3.3 0 0 0 .82-1.38 6.54 6.54 0 0 0 .29-1.75c-.01-.59 0-1.15 0-1.65zM201.84 187.43a4.76 4.76 0 0 1-.39 2 3.64 3.64 0 0 1-1.06 1.37 4.24 4.24 0 0 1-1.61.78 8.06 8.06 0 0 1-2 .24 5.69 5.69 0 0 1-3.72-1.11 4.27 4.27 0 0 1-1.29-3.61h2.67c0 .21 0 .48.05.79a2.5 2.5 0 0 0 .27.92 2 2 0 0 0 .72.77 2.57 2.57 0 0 0 1.38.31 2.91 2.91 0 0 0 1.79-.54 2 2 0 0 0 .72-1.67 1.42 1.42 0 0 0-.54-1.11 5.88 5.88 0 0 0-1.34-.89c-.53-.28-1.12-.56-1.75-.84a10.34 10.34 0 0 1-1.76-1 5.42 5.42 0 0 1-1.34-1.32 3.21 3.21 0 0 1-.53-1.86 4.82 4.82 0 0 1 .2-1.27 3.22 3.22 0 0 1 .77-1.29 4.25 4.25 0 0 1 1.54-1 6.58 6.58 0 0 1 2.5-.4 6.82 6.82 0 0 1 1.88.3 4.53 4.53 0 0 1 1.51.74 3 3 0 0 1 1 1.28 3.92 3.92 0 0 1 .26 1.86h-2.62a2.31 2.31 0 0 0-.56-1.75 2.36 2.36 0 0 0-1.72-.59 2.53 2.53 0 0 0-1.6.51 1.72 1.72 0 0 0-.64 1.45 1.4 1.4 0 0 0 .53 1.09 6.21 6.21 0 0 0 1.34.87c.54.27 1.12.54 1.75.8a9.33 9.33 0 0 1 1.76 1 5.17 5.17 0 0 1 1.34 1.34 3.26 3.26 0 0 1 .49 1.83zM212.41 191.57V181.5a6.26 6.26 0 0 0-.09-1.07 2.23 2.23 0 0 0-.35-.9 1.76 1.76 0 0 0-.7-.62 2.49 2.49 0 0 0-1.17-.23 2.77 2.77 0 0 0-1.16.28 2 2 0 0 0-.88.7 3.47 3.47 0 0 0-.43 1.13 5.24 5.24 0 0 0-.12 1v9.78h-2.36v-11.51-1.51c0-.51-.06-1-.1-1.51h2.5v1.81h.06a3.17 3.17 0 0 1 1.43-1.64 4.74 4.74 0 0 1 2.2-.46 5.16 5.16 0 0 1 1 .1 4 4 0 0 1 1 .33 3.27 3.27 0 0 1 .84.59 2.36 2.36 0 0 1 .57.85 3.05 3.05 0 0 1 1.53-1.51 5.25 5.25 0 0 1 1.93-.36 8.51 8.51 0 0 1 1.27.1 3.23 3.23 0 0 1 1.29.49 3.06 3.06 0 0 1 1 1.14 4.32 4.32 0 0 1 .4 2v11h-2.36v-9.98a7.48 7.48 0 0 0-.08-1.07 2.39 2.39 0 0 0-.35-.9 1.79 1.79 0 0 0-.71-.62 2.42 2.42 0 0 0-1.16-.23 4.68 4.68 0 0 0-1 .08 2.43 2.43 0 0 0-.8.46 1.74 1.74 0 0 0-.41.58 3.61 3.61 0 0 0-.25.72 4.85 4.85 0 0 0-.11.72v10.33zM231.18 191.86a9.28 9.28 0 0 1-2.16-.24 3.58 3.58 0 0 1-1.76-1 5.41 5.41 0 0 1-1.18-2.22 13.83 13.83 0 0 1-.43-3.86 26.31 26.31 0 0 1 .16-3 6.56 6.56 0 0 1 .72-2.47 4.08 4.08 0 0 1 1.65-1.67 7.54 7.54 0 0 1 6 0 4.08 4.08 0 0 1 1.65 1.67 6.75 6.75 0 0 1 .73 2.47 28.88 28.88 0 0 1 .15 3 13.83 13.83 0 0 1-.43 3.86 5.41 5.41 0 0 1-1.18 2.22 3.58 3.58 0 0 1-1.76 1 9.26 9.26 0 0 1-2.16.24zM230 174.59h-2.71v-3H230zm1.18 15.34a3 3 0 0 0 1.51-.34 2.38 2.38 0 0 0 .93-1.1 6.44 6.44 0 0 0 .48-2c.08-.81.13-1.82.13-3a10.82 10.82 0 0 0-.22-2.43 3.85 3.85 0 0 0-.62-1.47 2.1 2.1 0 0 0-1-.73 3.81 3.81 0 0 0-1.25-.2 3.87 3.87 0 0 0-1.26.2 2.1 2.1 0 0 0-1 .73 3.85 3.85 0 0 0-.62 1.47 11.45 11.45 0 0 0-.22 2.43c0 1.19 0 2.2.13 3a6.44 6.44 0 0 0 .48 2 2.38 2.38 0 0 0 .93 1.1 3 3 0 0 0 1.6.34zm3.88-15.34h-2.7v-3h2.7zM248.13 177h2.36v16a4.48 4.48 0 0 1-.39 2 2.92 2.92 0 0 1-1.09 1.24 4.66 4.66 0 0 1-1.68.62 13.34 13.34 0 0 1-2.19.17 6.1 6.1 0 0 1-1.74-.23 4.2 4.2 0 0 1-1.44-.7 3.2 3.2 0 0 1-1-1.21 3.44 3.44 0 0 1-.26-1.74h2.65a2 2 0 0 0 .64 1.55 2.24 2.24 0 0 0 1.58.55 2.45 2.45 0 0 0 1.88-.69 2.52 2.52 0 0 0 .65-1.82v-3h-.08a3.2 3.2 0 0 1-1.36 1.34 3.82 3.82 0 0 1-1.84.47 4.3 4.3 0 0 1-2.39-.6 4.18 4.18 0 0 1-1.44-1.64 7.75 7.75 0 0 1-.7-2.45 22.14 22.14 0 0 1-.19-3 11.17 11.17 0 0 1 .55-3.93 5.75 5.75 0 0 1 1.35-2.13 3.25 3.25 0 0 1 1.51-.88 6.34 6.34 0 0 1 1.21-.17 4.1 4.1 0 0 1 2 .5 3.36 3.36 0 0 1 1.36 1.57h.06zm.06 7.19v-1.77a7.37 7.37 0 0 0-.27-1.8 3.24 3.24 0 0 0-.82-1.39 2.33 2.33 0 0 0-1.7-.56 2.16 2.16 0 0 0-1.57.53 3.05 3.05 0 0 0-.82 1.32 7 7 0 0 0-.32 1.69c0 .59-.06 1.13-.06 1.61a18.19 18.19 0 0 0 .19 2.86 5.44 5.44 0 0 0 .56 1.76 2.08 2.08 0 0 0 .9.89 2.59 2.59 0 0 0 1.18.25 2.16 2.16 0 0 0 1.62-.57 3.2 3.2 0 0 0 .82-1.38 6.17 6.17 0 0 0 .29-1.75c-.01-.59 0-1.15 0-1.65zM257.14 191.57h-2.36v-20.78h2.36zM261.06 170.79h2.65v2.53h-2.65zm2.5 20.78h-2.36V177h2.36zM275.25 181.7a4.32 4.32 0 0 0-.16-1.48 2.52 2.52 0 0 0-.49-.94 1.53 1.53 0 0 0-.66-.47 2 2 0 0 0-.71-.13 3.81 3.81 0 0 0-1.25.2 2.1 2.1 0 0 0-1 .73 3.85 3.85 0 0 0-.62 1.47 10.82 10.82 0 0 0-.22 2.43c0 1.19.05 2.2.13 3a6.44 6.44 0 0 0 .48 2 2.38 2.38 0 0 0 .93 1.1 3 3 0 0 0 1.51.34 1.81 1.81 0 0 0 .58-.13 1.78 1.78 0 0 0 .72-.49 2.91 2.91 0 0 0 .59-1 4.35 4.35 0 0 0 .22-1.6h2.47a5.44 5.44 0 0 1-.46 2.52 4.75 4.75 0 0 1-1.19 1.57 4.25 4.25 0 0 1-1.51.8 5 5 0 0 1-1.42.23 9.41 9.41 0 0 1-2.16-.24 3.6 3.6 0 0 1-1.75-1 5.41 5.41 0 0 1-1.18-2.22 13.83 13.83 0 0 1-.43-3.86 28.88 28.88 0 0 1 .15-3 7 7 0 0 1 .72-2.47 4.17 4.17 0 0 1 1.66-1.67 6.13 6.13 0 0 1 3-.62 4.49 4.49 0 0 1 3.39 1.25 4.87 4.87 0 0 1 1.08 3.7zM289.93 191.57v-9.84a6.59 6.59 0 0 0-.11-1.22 2.45 2.45 0 0 0-.42-1 2 2 0 0 0-.81-.63 2.88 2.88 0 0 0-1.25-.23 2.93 2.93 0 0 0-1.47.33 2.34 2.34 0 0 0-.9.92 4 4 0 0 0-.47 1.38 11.43 11.43 0 0 0-.13 1.71v8.55H282v-20.75h2.36v8.12h.12a4 4 0 0 1 1.61-1.71 5.2 5.2 0 0 1 2.33-.45 3.82 3.82 0 0 1 2.87 1 5 5 0 0 1 1 3.5v10.3zM298.8 191.57h-2.36v-20.78h2.36v12.52h.05l4.44-6.27h2.88l-4.84 6.24 5.7 8.29h-3l-5.19-8.14h-.05zM311.52 185.07a12.57 12.57 0 0 0 .2 2.47 4.17 4.17 0 0 0 .58 1.49 1.89 1.89 0 0 0 .92.72 4 4 0 0 0 1.24.18 2.24 2.24 0 0 0 1.06-.23 2.33 2.33 0 0 0 .78-.6 2.78 2.78 0 0 0 .49-.88 4.15 4.15 0 0 0 .2-1.05h2.59a4.44 4.44 0 0 1-1.39 3.57 5.63 5.63 0 0 1-3.68 1.12 9.26 9.26 0 0 1-2.15-.24 3.58 3.58 0 0 1-1.76-1 5.41 5.41 0 0 1-1.18-2.22 13.83 13.83 0 0 1-.43-3.86 26.31 26.31 0 0 1 .16-3 6.56 6.56 0 0 1 .72-2.47 4.08 4.08 0 0 1 1.65-1.67 6.13 6.13 0 0 1 3-.62 6.53 6.53 0 0 1 2.57.43 3.45 3.45 0 0 1 1.58 1.31 6 6 0 0 1 .81 2.2 19 19 0 0 1 .23 3.14v1.24zm5.67-1.79a12.08 12.08 0 0 0-.21-2.52 4.05 4.05 0 0 0-.59-1.44 1.66 1.66 0 0 0-.92-.64 4.51 4.51 0 0 0-1.19-.15 3.06 3.06 0 0 0-1.06.18 1.75 1.75 0 0 0-.86.69 4.1 4.1 0 0 0-.61 1.45 10.69 10.69 0 0 0-.23 2.43zM323.41 170.79h2.65v2.53h-2.65zm2.51 20.78h-2.36V177h2.36zM330.26 177v-2.8l2.36-1.06V177h3.17v1.78h-3.17V188.4a1.41 1.41 0 0 0 .23.67 1.58 1.58 0 0 0 .65.51 3.19 3.19 0 0 0 1.25.2h.4l.67-.09v1.82c-.39 0-.78.08-1.17.14a7.65 7.65 0 0 1-1.16.09 3.73 3.73 0 0 1-2.48-.67 2.37 2.37 0 0 1-.78-1.92v-10.33h-2.39V177zM340.31 185.07a11.85 11.85 0 0 0 .2 2.47 4 4 0 0 0 .58 1.49 1.84 1.84 0 0 0 .92.72 3.9 3.9 0 0 0 1.24.18 2.27 2.27 0 0 0 1.06-.23 2.33 2.33 0 0 0 .78-.6 2.78 2.78 0 0 0 .49-.88 4.15 4.15 0 0 0 .2-1.05h2.59a4.44 4.44 0 0 1-1.4 3.57 5.59 5.59 0 0 1-3.67 1.12 9.34 9.34 0 0 1-2.16-.24 3.6 3.6 0 0 1-1.75-1 5.41 5.41 0 0 1-1.18-2.22 13.83 13.83 0 0 1-.43-3.86 28.88 28.88 0 0 1 .15-3 7 7 0 0 1 .72-2.47 4.17 4.17 0 0 1 1.66-1.67 6.13 6.13 0 0 1 3-.62 6.57 6.57 0 0 1 2.57.43 3.5 3.5 0 0 1 1.58 1.31 5.83 5.83 0 0 1 .8 2.2 18 18 0 0 1 .23 3.14v1.24zm5.67-1.79a11.34 11.34 0 0 0-.22-2.52 3.88 3.88 0 0 0-.59-1.44 1.63 1.63 0 0 0-.92-.64 4.43 4.43 0 0 0-1.18-.15 3 3 0 0 0-1.06.18 1.77 1.77 0 0 0-.87.69 4.11 4.11 0 0 0-.6 1.45 10.15 10.15 0 0 0-.23 2.43zM360.29 191.57V181.5a4.88 4.88 0 0 0-.12-1.1 2.3 2.3 0 0 0-.4-.9 2 2 0 0 0-.79-.61 3.32 3.32 0 0 0-1.26-.21 2.72 2.72 0 0 0-1.55.39 2.6 2.6 0 0 0-.89 1 4.44 4.44 0 0 0-.42 1.38 11.19 11.19 0 0 0-.1 1.52v8.6h-2.36v-11.51-1.51c0-.51-.07-1-.1-1.51h2.5v1.87h.11a4.06 4.06 0 0 1 1.59-1.7 5 5 0 0 1 2.3-.46 4.86 4.86 0 0 1 1.92.33 2.76 2.76 0 0 1 1.19 1 4 4 0 0 1 .6 1.52 9.63 9.63 0 0 1 .18 1.94v10.07zM174.85 121.55a13.91 13.91 0 0 1 13.67-13.86h.18a14 14 0 0 1 13.57 11.09 13.54 13.54 0 0 1 .12 4.88l4.08 7.29-4.52 1.3v7.37h-6V145h-1.21v-6.63h6v-7.07l3.92-1.13-3.54-6.33v-.21a12.26 12.26 0 0 0-.08-4.64 12.65 12.65 0 0 0-25 2.52v2.19a14.68 14.68 0 0 0 6.36 12.09l.26.18v9h-1.2v-8.4a15.86 15.86 0 0 1-6.62-12.9zM226.16 102.66l-6.46-3.88a.54.54 0 0 0-.39-.06.52.52 0 0 0-.31.28.5.5 0 0 0-.08.27v3.36h-12.4a.51.51 0 0 0-.52.51v4.65h-2.58v1h3.1a.48.48 0 0 0 .36-.15.51.51 0 0 0 .15-.37v-4.65h11.89V107a.53.53 0 0 0 .52.52.5.5 0 0 0 .27-.08l6.46-3.87a.53.53 0 0 0 .18-.71.52.52 0 0 0-.19-.2zm-6.16 3.41v-5.93l4.94 3zM213.9 78.18a.51.51 0 0 0-.15.37.52.52 0 0 0 .17.39l3.74 3.24-1.42 4.61a.5.5 0 0 0 .34.65.53.53 0 0 0 .47-.08l3.67-2.81 3.68 2.81a.54.54 0 0 0 .39.1.55.55 0 0 0 .34-.2.52.52 0 0 0 .08-.47l-1.42-4.61 3.74-3.24a.53.53 0 0 0 .17-.36.5.5 0 0 0-.12-.37.5.5 0 0 0-.39-.18h-4.57l-1.41-4.17a.51.51 0 0 0-.49-.35.53.53 0 0 0-.49.35l-1.4 4.14h-4.57a.48.48 0 0 0-.36.18zm5.3.88a.52.52 0 0 0 .49-.35l1-3.06 1 3.06a.52.52 0 0 0 .49.35h3.55l-3 2.56a.53.53 0 0 0-.15.54l1 3.4-2.58-2.08a.51.51 0 0 0-.63 0l-2.71 2.07 1.05-3.4a.51.51 0 0 0-.16-.54l-2.94-2.56z" fill="#fff"/><path d="M230.52 89.46l-1.85-1.54-.44.45a10.66 10.66 0 0 1-1.67 1.41l-.53.35 1.21 2.09.6-.41A12.62 12.62 0 0 0 230 90zM218.37 68.49l-.71.18a12.45 12.45 0 0 0-2.66 1l-.66.33 1.21 2.08.58-.28a9.44 9.44 0 0 1 2-.75l.62-.16zM226.38 69.61a12.51 12.51 0 0 0-2.67-1l-.71-.17-.4 2.37.62.15a10 10 0 0 1 2 .74l.58.28 1.2-2.09zM210.32 81.88v-.64h-2.41v.73a12.65 12.65 0 0 0 .49 2.79l.21.7 2.26-.83-.17-.63a10.42 10.42 0 0 1-.38-2.12zM213.23 88.39l-.44-.46-1.79 1.55.5.53a14 14 0 0 0 2.17 1.82l.61.4 1.2-2.09-.53-.35a11.17 11.17 0 0 1-1.72-1.4zM212.27 75l.38-.52L210.8 73l-.43.59A13 13 0 0 0 209 76l-.29.68 2.26.81.26-.58a10.43 10.43 0 0 1 1.04-1.91zM231.13 81.85a10.63 10.63 0 0 1-.38 2.16l-.17.61 2.26.82.2-.7a12.35 12.35 0 0 0 .49-2.82l.05-.75h-2.41zM221.82 91.5a9.84 9.84 0 0 1-2.17 0l-.64-.06-.41 2.37.72.08a13.14 13.14 0 0 0 1.4.08 13.55 13.55 0 0 0 1.43-.08l.73-.08-.42-2.37zM230.24 76.85l.26.59 2.26-.84-.3-.67a12.64 12.64 0 0 0-1.46-2.44l-.44-.59-1.84 1.56.38.51a10.75 10.75 0 0 1 1.14 1.88zM253.1 133.54a10.51 10.51 0 0 1-.38 2.16l-.17.62 2.26.82.21-.7a13.52 13.52 0 0 0 .49-2.83v-.74h-2.41zM235.2 140.09l-.44-.46-1.84 1.55.5.52a12.93 12.93 0 0 0 2.17 1.82l.61.41 1.21-2.09-.54-.36a10.53 10.53 0 0 1-1.67-1.39zM243.8 143.2a10.59 10.59 0 0 1-2.18 0l-.64-.07-.41 2.38.72.08a13.26 13.26 0 0 0 1.4.07 11.32 11.32 0 0 0 1.43-.08l.73-.08-.42-2.37zM252.57 124.6l-1.84 1.55.38.52a10.39 10.39 0 0 1 1.1 1.88l.26.58 2.26-.83-.29-.67a13.22 13.22 0 0 0-1.43-2.44zM250.2 140.07a9.76 9.76 0 0 1-1.67 1.4l-.53.36 1.21 2.08.61-.4a13.44 13.44 0 0 0 2.16-1.82l.51-.53-1.85-1.55zM248.35 121.3a13 13 0 0 0-2.66-1l-.72-.17-.4 2.38.62.15a10.27 10.27 0 0 1 2.05.74l.57.27 1.2-2.08zM232.29 133.58v-.64h-2.41v.72a12.45 12.45 0 0 0 .49 2.79l.21.71 2.26-.83-.18-.62a10.21 10.21 0 0 1-.37-2.13zM234.24 126.72l.38-.52-1.85-1.54-.43.58a13.42 13.42 0 0 0-1.42 2.46l-.29.67 2.27.82.25-.58a10.43 10.43 0 0 1 1.09-1.89zM240.34 120.19l-.71.17a13.27 13.27 0 0 0-2.66 1l-.66.33 1.21 2.07.58-.28a10.62 10.62 0 0 1 2-.75l.62-.15zM238.1 92.45a9.44 9.44 0 0 1 2-.75l.62-.16-.42-2.37-.71.17a13 13 0 0 0-2.66 1l-.65.33 1.21 2.08zM233.42 110.69a13 13 0 0 0 2.17 1.81l.61.41 1.21-2.09-.53-.35a10.76 10.76 0 0 1-1.68-1.4l-.44-.46-1.84 1.55zM232.25 101.92h-2.41v.73a12.65 12.65 0 0 0 .49 2.79l.21.7 2.26-.83-.18-.61a10.42 10.42 0 0 1-.38-2.15zM248 110.81l1.21 2.09.61-.41a12.94 12.94 0 0 0 2.16-1.82l.51-.53-1.85-1.55-.44.46a10.3 10.3 0 0 1-1.67 1.41zM252.21 97.53l.26.58 2.26-.83-.29-.67a13.55 13.55 0 0 0-1.44-2.44l-.44-.59-1.84 1.55.38.52a10.75 10.75 0 0 1 1.11 1.88zM232.34 94.23a12.79 12.79 0 0 0-1.42 2.46l-.29.66 2.27.82.25-.58a10.43 10.43 0 0 1 1.09-1.89l.38-.52-1.85-1.54zM255 105.42a13.52 13.52 0 0 0 .49-2.83v-.74l-2.41.05v.63a10.42 10.42 0 0 1-.38 2.15l-.17.62 2.26.82zM247.24 92.42l.57.28 1.2-2.09-.66-.32a12.74 12.74 0 0 0-2.67-1l-.71-.16-.4 2.37.62.15a10.27 10.27 0 0 1 2.05.77zM241.29 114.57a13.26 13.26 0 0 0 1.4.07 13.56 13.56 0 0 0 1.43-.07l.73-.08-.42-2.37-.63.06a9.93 9.93 0 0 1-2.18 0l-.64-.06-.41 2.37z" fill="#fdc62d"/><path d="M242.69 138.52a5.69 5.69 0 1 0-5.68-5.69 5.7 5.7 0 0 0 5.68 5.69zm0-10.34a4.65 4.65 0 1 1 0 9.3 4.65 4.65 0 0 1 0-9.3zM237 107a.52.52 0 0 0 .51.52h10.35a.55.55 0 0 0 .36-.15.51.51 0 0 0 .15-.37V96.64a.51.51 0 0 0-.15-.37.55.55 0 0 0-.36-.15h-10.33a.52.52 0 0 0-.52.52zm1-9.82h9.31v9.3H238zM204.19 80.69l-6.46-3.88a.54.54 0 0 0-.39-.06.52.52 0 0 0-.34.25.5.5 0 0 0-.08.26v3.36h-8.53a.5.5 0 0 0-.36.16.48.48 0 0 0-.15.36v21.2h1V81.65h8V85a.51.51 0 0 0 .79.44l6.46-3.87a.53.53 0 0 0 .23-.32.48.48 0 0 0 0-.39.52.52 0 0 0-.17-.17zm-6.19 3.4v-5.92l4.94 3zM218.91 134.64V138a.53.53 0 0 0 .52.52.5.5 0 0 0 .27-.08l6.46-3.88a.53.53 0 0 0 .18-.71.58.58 0 0 0-.18-.17l-6.46-3.88a.51.51 0 0 0-.71.18.5.5 0 0 0-.08.26v3.36h-5.42v-18.87a.55.55 0 0 0-.15-.36.51.51 0 0 0-.37-.15h-5.69v1h5.17v18.87a.51.51 0 0 0 .52.52v.77-.77zm1-3.48l4.94 3-4.94 3z" fill="#fff"/></svg>