<svg xmlns="http://www.w3.org/2000/svg" viewBox="0 0 160 160"><path d="M38.35 91.91A13.9 13.9 0 0 1 52 78.06h.18a14 14 0 0 1 13.59 11.09 13.54 13.54 0 0 1 .12 4.85l4.11 7.32-4.52 1.3V110h-6v5.42h-1.26v-6.63h6v-7.07l3.92-1.13-3.54-6.33v-.21a12.26 12.26 0 0 0-.08-4.64 12.65 12.65 0 0 0-25 2.52v2.19a14.68 14.68 0 0 0 6.36 12.09l.26.18v9H45V107a15.86 15.86 0 0 1-6.62-12.9zM89.66 73l-6.46-3.85a.54.54 0 0 0-.39-.06.52.52 0 0 0-.32.24.5.5 0 0 0-.08.26V73H70a.52.52 0 0 0-.52.52v4.65h-2.57v1H70a.48.48 0 0 0 .36-.15.51.51 0 0 0 .15-.37V74h11.9v3.36a.53.53 0 0 0 .52.52.5.5 0 0 0 .27-.08l6.46-3.87a.53.53 0 0 0 .18-.71.52.52 0 0 0-.18-.22zm-6.21 3.4v-5.89l4.94 3zM77.4 48.55a.51.51 0 0 0-.15.37.52.52 0 0 0 .17.39l3.74 3.24-1.42 4.61a.5.5 0 0 0 .34.65.53.53 0 0 0 .47-.08l3.67-2.81 3.68 2.81a.54.54 0 0 0 .39.1.55.55 0 0 0 .34-.2.52.52 0 0 0 .08-.47l-1.42-4.61L91 49.31a.53.53 0 0 0 .2-.31.49.49 0 0 0-.12-.37.5.5 0 0 0-.39-.18h-4.57l-1.41-4.17a.51.51 0 0 0-.49-.35.53.53 0 0 0-.49.35l-1.4 4.17h-4.57a.48.48 0 0 0-.36.1zm5.3.88a.52.52 0 0 0 .49-.35l1-3.06 1 3.06a.52.52 0 0 0 .49.35h3.62l-3 2.56a.53.53 0 0 0-.15.54l1 3.4-2.7-2.08a.51.51 0 0 0-.63 0l-2.62 2.08 1-3.4a.51.51 0 0 0-.16-.54l-2.94-2.56z" fill="#fff"/><path d="M94 59.83l-1.85-1.55-.44.46a10.66 10.66 0 0 1-1.67 1.41l-.53.35 1.21 2.09.6-.41a12.62 12.62 0 0 0 2.17-1.82zM81.87 38.86l-.71.18a12.45 12.45 0 0 0-2.66 1l-.66.33 1.21 2.08.58-.28a9.44 9.44 0 0 1 2-.75l.62-.16zM89.88 40a12 12 0 0 0-2.67-1l-.71-.17-.4 2.37.62.15a10 10 0 0 1 2 .74l.58.28 1.2-2.09zM73.82 52.25v-.64h-2.45v.72a12.64 12.64 0 0 0 .49 2.8l.21.7 2.31-.83-.18-.61a10.42 10.42 0 0 1-.38-2.14zM76.73 58.76l-.44-.46-1.84 1.55.5.53a14 14 0 0 0 2.17 1.82l.61.4 1.2-2.09-.53-.35a11.17 11.17 0 0 1-1.67-1.4zM75.77 45.39l.38-.52-1.85-1.54-.43.59a13 13 0 0 0-1.42 2.45l-.29.67 2.26.82.26-.58a10.43 10.43 0 0 1 1.09-1.89zM94.63 52.22a10.75 10.75 0 0 1-.38 2.16l-.17.61 2.26.82.2-.7a12.34 12.34 0 0 0 .46-2.83v-.74l-2.41.05zM85.32 61.87a9.84 9.84 0 0 1-2.17 0l-.64-.06-.41 2.37.72.08a13.14 13.14 0 0 0 1.4.08 13.55 13.55 0 0 0 1.43-.08l.73-.08-.38-2.37zM93.74 47.22l.26.59 2.26-.81-.26-.7a12.64 12.64 0 0 0-1.42-2.44l-.44-.59-1.84 1.56.38.51a10.75 10.75 0 0 1 1.06 1.88zM116.6 103.91a10.51 10.51 0 0 1-.38 2.16l-.17.62 2.26.82.21-.7A13.52 13.52 0 0 0 119 104v-.74l-2.41.05zM98.7 110.45l-.44-.45-1.84 1.55.5.52a12.93 12.93 0 0 0 2.17 1.82l.61.41 1.21-2.09-.54-.36a10.08 10.08 0 0 1-1.67-1.4zM107.3 113.57a11.34 11.34 0 0 1-2.18 0l-.64-.07-.41 2.38.72.08a13.26 13.26 0 0 0 1.4.07 11.32 11.32 0 0 0 1.43-.08l.73-.08-.42-2.37zM116.07 95l-1.84 1.55.38.52a10.06 10.06 0 0 1 1.1 1.88l.26.58 2.26-.83-.29-.67a13.64 13.64 0 0 0-1.43-2.45zM113.7 110.44a10.24 10.24 0 0 1-1.67 1.4l-.53.36 1.21 2.08.61-.4a13.44 13.44 0 0 0 2.16-1.82l.51-.53-1.85-1.53zM111.85 91.67a12.42 12.42 0 0 0-2.66-1l-.72-.17-.4 2.37.62.16a10.27 10.27 0 0 1 2 .74l.57.27 1.2-2.08zM95.79 104v-.64h-2.45v.72a12.45 12.45 0 0 0 .49 2.79l.21.7 2.26-.83-.18-.61a10.21 10.21 0 0 1-.33-2.13zM97.74 97.09l.38-.52L96.27 95l-.43.58a13.42 13.42 0 0 0-1.42 2.46l-.29.67 2.27.82.25-.58a10.43 10.43 0 0 1 1.09-1.86zM103.84 90.56l-.71.17a13.27 13.27 0 0 0-2.66 1l-.66.33 1.19 2.05.58-.28a10.62 10.62 0 0 1 2-.75l.62-.15zM101.6 62.82a9.44 9.44 0 0 1 2-.75l.62-.16-.42-2.37-.71.17a13 13 0 0 0-2.66 1l-.65.33L101 63.1zM96.92 81.06a13 13 0 0 0 2.17 1.81l.61.41 1.21-2.09-.53-.35a10.76 10.76 0 0 1-1.68-1.4l-.44-.44-1.84 1.55zM95.75 72.29h-2.41v.73a12.65 12.65 0 0 0 .49 2.79l.21.7 2.26-.83-.18-.61a10.42 10.42 0 0 1-.38-2.15zM111.5 81.18l1.21 2.09.61-.41a13.44 13.44 0 0 0 2.16-1.86l.51-.53-1.85-1.47-.44.46a9.76 9.76 0 0 1-1.67 1.4zM115.71 67.9l.26.58 2.26-.83-.29-.67a13.55 13.55 0 0 0-1.43-2.44l-.44-.59-1.84 1.55.38.52a10.75 10.75 0 0 1 1.1 1.88zM95.84 64.6a13 13 0 0 0-1.42 2.45l-.29.67 2.27.82.25-.58a10.43 10.43 0 0 1 1.09-1.89l.38-.52L96.27 64zM118.52 75.79A13.52 13.52 0 0 0 119 73v-.74h-2.41v.63a10.42 10.42 0 0 1-.38 2.15l-.17.62 2.26.82zM110.74 62.79l.57.28 1.2-2.09-.66-.32a12.74 12.74 0 0 0-2.67-1l-.71-.16-.4 2.37.62.15a10.27 10.27 0 0 1 2.05.77zM104.79 84.94a13.26 13.26 0 0 0 1.4.07 13.56 13.56 0 0 0 1.43-.07l.73-.08-.42-2.38-.63.07a9.93 9.93 0 0 1-2.18 0l-.64-.06-.41 2.37z" fill="#fdc62d"/><path d="M106.19 108.88a5.69 5.69 0 1 0-5.68-5.68 5.69 5.69 0 0 0 5.68 5.68zm0-10.33a4.65 4.65 0 1 1 0 9.3 4.65 4.65 0 0 1 0-9.3zM100.51 77.35a.52.52 0 0 0 .51.52h10.35a.55.55 0 0 0 .36-.15.51.51 0 0 0 .15-.37V67a.51.51 0 0 0-.15-.37.55.55 0 0 0-.36-.15H101a.52.52 0 0 0-.52.52zm1-9.82h9.31v9.3h-9.31zM67.69 51.06l-6.46-3.88a.54.54 0 0 0-.39-.06.52.52 0 0 0-.32.24.5.5 0 0 0-.08.26V51h-8.53a.53.53 0 0 0-.36.15.51.51 0 0 0-.15.37V72.7h1V52h8v3.36a.51.51 0 0 0 .79.44l6.46-3.88a.52.52 0 0 0 .18-.7.52.52 0 0 0-.14-.16zm-6.21 3.4v-5.92l4.94 3zM82.41 105v3.36a.52.52 0 0 0 .52.51.5.5 0 0 0 .27-.07l6.46-3.88a.53.53 0 0 0 .18-.71.58.58 0 0 0-.18-.17l-6.46-3.88a.51.51 0 0 0-.71.18.5.5 0 0 0-.08.26v3.4H77V85.1a.55.55 0 0 0-.15-.36.51.51 0 0 0-.37-.15h-5.7v1H76v18.87a.51.51 0 0 0 .52.52v.77-.75zm1-3.48l4.94 3-4.94 3z" fill="#fff"/></svg>