<svg xmlns="http://www.w3.org/2000/svg" viewBox="0 0 433 236"><path d="M174.85 121.55a13.91 13.91 0 0 1 13.67-13.86h.18a14 14 0 0 1 13.57 11.09 13.54 13.54 0 0 1 .12 4.88l4.08 7.29-4.52 1.3v7.37h-6V145h-1.21v-6.63h6v-7.07l3.92-1.13-3.54-6.33v-.21a12.26 12.26 0 0 0-.08-4.64 12.65 12.65 0 0 0-25 2.52v2.19a14.68 14.68 0 0 0 6.36 12.09l.26.18v9h-1.2v-8.4a15.86 15.86 0 0 1-6.62-12.9zM226.16 102.66l-6.46-3.88a.54.54 0 0 0-.39-.06.52.52 0 0 0-.31.28.5.5 0 0 0-.08.27v3.36h-12.4a.51.51 0 0 0-.52.51v4.65h-2.58v1h3.1a.48.48 0 0 0 .36-.15.51.51 0 0 0 .15-.37v-4.65h11.89V107a.53.53 0 0 0 .52.52.5.5 0 0 0 .27-.08l6.46-3.87a.53.53 0 0 0 .18-.71.52.52 0 0 0-.19-.2zm-6.16 3.41v-5.93l4.94 3zM213.9 78.18a.51.51 0 0 0-.15.37.52.52 0 0 0 .17.39l3.74 3.24-1.42 4.61a.5.5 0 0 0 .34.65.53.53 0 0 0 .47-.08l3.67-2.81 3.68 2.81a.54.54 0 0 0 .39.1.55.55 0 0 0 .34-.2.52.52 0 0 0 .08-.47l-1.42-4.61 3.74-3.24a.53.53 0 0 0 .17-.36.5.5 0 0 0-.12-.37.5.5 0 0 0-.39-.18h-4.57l-1.41-4.17a.51.51 0 0 0-.49-.35.53.53 0 0 0-.49.35l-1.4 4.14h-4.57a.48.48 0 0 0-.36.18zm5.3.88a.52.52 0 0 0 .49-.35l1-3.06 1 3.06a.52.52 0 0 0 .49.35h3.55l-3 2.56a.53.53 0 0 0-.15.54l1 3.4-2.58-2.08a.51.51 0 0 0-.63 0l-2.71 2.07 1.05-3.4a.51.51 0 0 0-.16-.54l-2.94-2.56z" fill="#fff"/><path d="M230.52 89.46l-1.85-1.54-.44.45a10.66 10.66 0 0 1-1.67 1.41l-.53.35 1.21 2.09.6-.41A12.62 12.62 0 0 0 230 90zM218.37 68.49l-.71.18a12.45 12.45 0 0 0-2.66 1l-.66.33 1.21 2.08.58-.28a9.44 9.44 0 0 1 2-.75l.62-.16zM226.38 69.61a12.51 12.51 0 0 0-2.67-1l-.71-.17-.4 2.37.62.15a10 10 0 0 1 2 .74l.58.28 1.2-2.09zM210.32 81.88v-.64h-2.41v.73a12.65 12.65 0 0 0 .49 2.79l.21.7 2.26-.83-.17-.63a10.42 10.42 0 0 1-.38-2.12zM213.23 88.39l-.44-.46-1.79 1.55.5.53a14 14 0 0 0 2.17 1.82l.61.4 1.2-2.09-.53-.35a11.17 11.17 0 0 1-1.72-1.4zM212.27 75l.38-.52L210.8 73l-.43.59A13 13 0 0 0 209 76l-.29.68 2.26.81.26-.58a10.43 10.43 0 0 1 1.04-1.91zM231.13 81.85a10.63 10.63 0 0 1-.38 2.16l-.17.61 2.26.82.2-.7a12.35 12.35 0 0 0 .49-2.82l.05-.75h-2.41zM221.82 91.5a9.84 9.84 0 0 1-2.17 0l-.64-.06-.41 2.37.72.08a13.14 13.14 0 0 0 1.4.08 13.55 13.55 0 0 0 1.43-.08l.73-.08-.42-2.37zM230.24 76.85l.26.59 2.26-.84-.3-.67a12.64 12.64 0 0 0-1.46-2.44l-.44-.59-1.84 1.56.38.51a10.75 10.75 0 0 1 1.14 1.88zM253.1 133.54a10.51 10.51 0 0 1-.38 2.16l-.17.62 2.26.82.21-.7a13.52 13.52 0 0 0 .49-2.83v-.74h-2.41zM235.2 140.09l-.44-.46-1.84 1.55.5.52a12.93 12.93 0 0 0 2.17 1.82l.61.41 1.21-2.09-.54-.36a10.53 10.53 0 0 1-1.67-1.39zM243.8 143.2a10.59 10.59 0 0 1-2.18 0l-.64-.07-.41 2.38.72.08a13.26 13.26 0 0 0 1.4.07 11.32 11.32 0 0 0 1.43-.08l.73-.08-.42-2.37zM252.57 124.6l-1.84 1.55.38.52a10.39 10.39 0 0 1 1.1 1.88l.26.58 2.26-.83-.29-.67a13.22 13.22 0 0 0-1.43-2.44zM250.2 140.07a9.76 9.76 0 0 1-1.67 1.4l-.53.36 1.21 2.08.61-.4a13.44 13.44 0 0 0 2.16-1.82l.51-.53-1.85-1.55zM248.35 121.3a13 13 0 0 0-2.66-1l-.72-.17-.4 2.38.62.15a10.27 10.27 0 0 1 2.05.74l.57.27 1.2-2.08zM232.29 133.58v-.64h-2.41v.72a12.45 12.45 0 0 0 .49 2.79l.21.71 2.26-.83-.18-.62a10.21 10.21 0 0 1-.37-2.13zM234.24 126.72l.38-.52-1.85-1.54-.43.58a13.42 13.42 0 0 0-1.42 2.46l-.29.67 2.27.82.25-.58a10.43 10.43 0 0 1 1.09-1.89zM240.34 120.19l-.71.17a13.27 13.27 0 0 0-2.66 1l-.66.33 1.21 2.07.58-.28a10.62 10.62 0 0 1 2-.75l.62-.15zM238.1 92.45a9.44 9.44 0 0 1 2-.75l.62-.16-.42-2.37-.71.17a13 13 0 0 0-2.66 1l-.65.33 1.21 2.08zM233.42 110.69a13 13 0 0 0 2.17 1.81l.61.41 1.21-2.09-.53-.35a10.76 10.76 0 0 1-1.68-1.4l-.44-.46-1.84 1.55zM232.25 101.92h-2.41v.73a12.65 12.65 0 0 0 .49 2.79l.21.7 2.26-.83-.18-.61a10.42 10.42 0 0 1-.38-2.15zM248 110.81l1.21 2.09.61-.41a12.94 12.94 0 0 0 2.16-1.82l.51-.53-1.85-1.55-.44.46a10.3 10.3 0 0 1-1.67 1.41zM252.21 97.53l.26.58 2.26-.83-.29-.67a13.55 13.55 0 0 0-1.44-2.44l-.44-.59-1.84 1.55.38.52a10.75 10.75 0 0 1 1.11 1.88zM232.34 94.23a12.79 12.79 0 0 0-1.42 2.46l-.29.66 2.27.82.25-.58a10.43 10.43 0 0 1 1.09-1.89l.38-.52-1.85-1.54zM255 105.42a13.52 13.52 0 0 0 .49-2.83v-.74l-2.41.05v.63a10.42 10.42 0 0 1-.38 2.15l-.17.62 2.26.82zM247.24 92.42l.57.28 1.2-2.09-.66-.32a12.74 12.74 0 0 0-2.67-1l-.71-.16-.4 2.37.62.15a10.27 10.27 0 0 1 2.05.77zM241.29 114.57a13.26 13.26 0 0 0 1.4.07 13.56 13.56 0 0 0 1.43-.07l.73-.08-.42-2.37-.63.06a9.93 9.93 0 0 1-2.18 0l-.64-.06-.41 2.37z" fill="#fdc62d"/><path d="M242.69 138.52a5.69 5.69 0 1 0-5.68-5.69 5.7 5.7 0 0 0 5.68 5.69zm0-10.34a4.65 4.65 0 1 1 0 9.3 4.65 4.65 0 0 1 0-9.3zM237 107a.52.52 0 0 0 .51.52h10.35a.55.55 0 0 0 .36-.15.51.51 0 0 0 .15-.37V96.64a.51.51 0 0 0-.15-.37.55.55 0 0 0-.36-.15h-10.33a.52.52 0 0 0-.52.52zm1-9.82h9.31v9.3H238zM204.19 80.69l-6.46-3.88a.54.54 0 0 0-.39-.06.52.52 0 0 0-.34.25.5.5 0 0 0-.08.26v3.36h-8.53a.5.5 0 0 0-.36.16.48.48 0 0 0-.15.36v21.2h1V81.65h8V85a.51.51 0 0 0 .79.44l6.46-3.87a.53.53 0 0 0 .23-.32.48.48 0 0 0 0-.39.52.52 0 0 0-.17-.17zm-6.19 3.4v-5.92l4.94 3zM218.91 134.64V138a.53.53 0 0 0 .52.52.5.5 0 0 0 .27-.08l6.46-3.88a.53.53 0 0 0 .18-.71.58.58 0 0 0-.18-.17l-6.46-3.88a.51.51 0 0 0-.71.18.5.5 0 0 0-.08.26v3.36h-5.42v-18.87a.55.55 0 0 0-.15-.36.51.51 0 0 0-.37-.15h-5.69v1h5.17v18.87a.51.51 0 0 0 .52.52v.77-.77zm1-3.48l4.94 3-4.94 3z" fill="#fff"/></svg>