<svg data-name="Benefits MKK" xmlns="http://www.w3.org/2000/svg" viewBox="0 0 433 236"><path d="M178.19 192.89v1.51a5.69 5.69 0 0 0 .23 1.52 2.56 2.56 0 0 0 .74 1.17 2.19 2.19 0 0 0 1.52.46 2.85 2.85 0 0 0 1.66-.42 2.64 2.64 0 0 0 .89-1.11 4.7 4.7 0 0 0 .37-1.58c.05-.59.08-1.21.08-1.84v-14h2.64v16.44a6.5 6.5 0 0 1-.19 1.13 5.82 5.82 0 0 1-.51 1.27 3.9 3.9 0 0 1-1 1.18 4.93 4.93 0 0 1-1.63.86 7.18 7.18 0 0 1-2.38.34 7.06 7.06 0 0 1-1-.09 5.88 5.88 0 0 1-1.21-.32 5.05 5.05 0 0 1-1.19-.63 3.4 3.4 0 0 1-1-1 5.07 5.07 0 0 1-.73-2.3c-.07-.85-.11-1.69-.11-2.53zM196.15 199.62a9.28 9.28 0 0 1-2.16-.24 3.68 3.68 0 0 1-1.75-1 5.3 5.3 0 0 1-1.18-2.22 13.78 13.78 0 0 1-.44-3.86 28.8 28.8 0 0 1 .16-3 7 7 0 0 1 .72-2.47 4.17 4.17 0 0 1 1.66-1.67 7.54 7.54 0 0 1 6 0 4.08 4.08 0 0 1 1.65 1.67 6.56 6.56 0 0 1 .72 2.47 26.31 26.31 0 0 1 .16 3 13.83 13.83 0 0 1-.43 3.86 5.41 5.41 0 0 1-1.18 2.22 3.71 3.71 0 0 1-1.76 1 9.28 9.28 0 0 1-2.17.24zm0-1.93a2.94 2.94 0 0 0 1.51-.34 2.34 2.34 0 0 0 .94-1.1 6.19 6.19 0 0 0 .47-2 28.23 28.23 0 0 0 .13-3 11.47 11.47 0 0 0-.21-2.43 4 4 0 0 0-.62-1.47 2.1 2.1 0 0 0-1-.73 3.62 3.62 0 0 0-1.26-.2 3.53 3.53 0 0 0-1.25.2 2 2 0 0 0-1 .73 3.85 3.85 0 0 0-.62 1.47 10.76 10.76 0 0 0-.22 2.43 28.23 28.23 0 0 0 .13 3 6.17 6.17 0 0 0 .48 2 2.38 2.38 0 0 0 .93 1.1 3 3 0 0 0 1.59.34zM208 199.33h-2.36v-20.78H208v7.71h.09a4.38 4.38 0 0 1 1.38-1.31 3.69 3.69 0 0 1 1.82-.44 4.59 4.59 0 0 1 2.73.7 4.19 4.19 0 0 1 1.44 1.83 7.89 7.89 0 0 1 .55 2.52c.06.93.08 1.85.08 2.75a14.66 14.66 0 0 1-.4 3.83 5.89 5.89 0 0 1-1.06 2.22 3.26 3.26 0 0 1-1.52 1 6.19 6.19 0 0 1-1.71.24 3.59 3.59 0 0 1-1.94-.5 4.47 4.47 0 0 1-1.4-1.51H208zm0-7.86v1.92a8.83 8.83 0 0 0 .23 2A4.1 4.1 0 0 0 209 197a2 2 0 0 0 1.64.66 2.48 2.48 0 0 0 1.72-.53 3.25 3.25 0 0 0 .87-1.32 5.37 5.37 0 0 0 .33-1.73v-1.77c0-1 0-1.83-.1-2.56a6.42 6.42 0 0 0-.41-1.85 2.35 2.35 0 0 0-.86-1.12 2.68 2.68 0 0 0-1.51-.37 2.18 2.18 0 0 0-1.53.51 3.32 3.32 0 0 0-.82 1.29 6 6 0 0 0-.33 1.64v1.62zM222.26 187h.06a5.67 5.67 0 0 1 .79-1.32 2.92 2.92 0 0 1 .95-.75 3.78 3.78 0 0 1 1.21-.33 14.26 14.26 0 0 1 1.54-.07V187h-1.26a3.35 3.35 0 0 0-1.62.35 2.82 2.82 0 0 0-1 .89 3.43 3.43 0 0 0-.51 1.27 7 7 0 0 0-.15 1.44v8.57h-2.37V184.8h2.36zM236.89 197.23h-.06a4 4 0 0 1-1.41 1.83 4.12 4.12 0 0 1-2.25.56 4.46 4.46 0 0 1-1.91-.36 3.07 3.07 0 0 1-1.22-1 3.83 3.83 0 0 1-.65-1.51 8.93 8.93 0 0 1-.19-1.92 3.84 3.84 0 0 1 2.56-3.94 8.4 8.4 0 0 1 2.48-.52c.9-.06 1.76-.08 2.59-.06v-1.44a3.94 3.94 0 0 0-.26-1.29 2.11 2.11 0 0 0-.73-.94 2.5 2.5 0 0 0-1.46-.36 2.21 2.21 0 0 0-1.8.72 2.45 2.45 0 0 0-.47 1.87h-2.56a4.27 4.27 0 0 1 1.33-3.41 5.81 5.81 0 0 1 3.59-1 6.65 6.65 0 0 1 2.32.34 3.76 3.76 0 0 1 1.44.94 3.3 3.3 0 0 1 .74 1.38 6.26 6.26 0 0 1 .22 1.71v7c0 .58 0 1.16.07 1.74s.12 1.16.22 1.71h-2.59zm-.06-5.12h-1.77a6 6 0 0 0-1.71.28 3 3 0 0 0-1.29.85 2.68 2.68 0 0 0-.5 1.75 3.22 3.22 0 0 0 .55 1.87 1.94 1.94 0 0 0 1.72.8 3.12 3.12 0 0 0 1.11-.21 2.35 2.35 0 0 0 1-.82 4.83 4.83 0 0 0 .71-1.7 10.54 10.54 0 0 0 .18-2.82zM251.48 178.55h2.36v20.78h-2.36v-1.72a4.57 4.57 0 0 1-1.4 1.51 3.61 3.61 0 0 1-1.94.5 6.32 6.32 0 0 1-1.72-.24 3.23 3.23 0 0 1-1.51-1 5.89 5.89 0 0 1-1.06-2.22 14.61 14.61 0 0 1-.41-3.83c0-.9 0-1.82.09-2.75A7.89 7.89 0 0 1 244 187a4 4 0 0 1 1.44-1.83 4.59 4.59 0 0 1 2.73-.7 3.65 3.65 0 0 1 1.83.53 4.52 4.52 0 0 1 1.39 1.31h.08zm0 12.92v-1.59a5.69 5.69 0 0 0-.34-1.64 3.21 3.21 0 0 0-.82-1.29 2.13 2.13 0 0 0-1.52-.51 2.75 2.75 0 0 0-1.53.37 2.38 2.38 0 0 0-.88 1.12 6.15 6.15 0 0 0-.38 1.85c-.06.73-.09 1.58-.09 2.56v1.77a6 6 0 0 0 .33 1.73 3.27 3.27 0 0 0 .88 1.32 2.45 2.45 0 0 0 1.71.53 2 2 0 0 0 1.53-.56 3.28 3.28 0 0 0 .79-1.45 9.16 9.16 0 0 0 .29-2c.02-.74.03-1.48.03-2.21z" fill="#fff"/><circle cx="176.77" cy="125.68" r="26.38" fill="#fdc62d"/><circle cx="253.06" cy="125.68" r="26.38" fill="#fdc62d"/><path d="M253.06 99a27.2 27.2 0 0 0-10.49 2.09l-1.12.47-9.62-18.67h13.44a3.53 3.53 0 0 1 0 7.06h-2.38a1 1 0 1 0 0 2h2.4a5.52 5.52 0 1 0 0-11h-15.08a1 1 0 0 0-.84.47 1 1 0 0 0 0 1l5 9.7h-36.14l-4.68-9.17H201a1 1 0 0 0 0-2h-15.12a1 1 0 0 0 0 2h5.42L196.47 93l-6.3 9.78-1.07-.57a27.22 27.22 0 1 0 14.28 26.2l.1-1.21h9.73l-3.45 11.14h-2.49a1 1 0 0 0 0 2h8.27a1 1 0 0 0 0-2h-3.74l3.61-11.71.1-.16 20.34-31.4 3.82 7.4-1 .63a27.22 27.22 0 1 0 14.39-4.1zm-51.7 29.65A25.24 25.24 0 1 1 176.23 101a24.73 24.73 0 0 1 11.59 2.83l1.28.65-13.7 21.21a1 1 0 0 0 0 1 1 1 0 0 0 .86.52h25.26zm-23.3-3.42l12.71-19.69 1.13.89a25.41 25.41 0 0 1 9.46 17.36l.13 1.44zm25.42 0l-.1-1.21a27.25 27.25 0 0 0-10.59-19.4l-1-.73 5.7-8.81 15.38 30.15zm11.17-1L199.22 94h35zm38.41 27.22A25.22 25.22 0 0 1 239.41 105l1.2-.78 11.56 22.44a1 1 0 0 0 .89.54.82.82 0 0 0 .44-.1 1 1 0 0 0 .5-.58 1.07 1.07 0 0 0-.05-.75l-11.59-22.47 1.34-.52a25 25 0 0 1 9.36-1.8 25.23 25.23 0 1 1 0 50.46z" fill="#fff" data-name="Capa 1"/></svg>