<svg xmlns="http://www.w3.org/2000/svg" viewBox="0 0 160 160"><circle cx="44.02" cy="86.27" r="26.38" fill="#fdc62d"/><circle cx="120.31" cy="86.27" r="26.38" fill="#fdc62d"/><path d="M120.31 59.57a27.2 27.2 0 0 0-10.49 2.09l-1.12.48-9.62-18.67h13.44a3.53 3.53 0 0 1 0 7.06h-2.38a1 1 0 1 0 0 2h2.4a5.52 5.52 0 1 0 0-11H97.46a1 1 0 0 0-.84.47 1 1 0 0 0 0 1l5 9.7H65.48l-4.68-9.26h7.42a1 1 0 0 0 0-2H53.13a1 1 0 0 0 0 2h5.42l5.17 10.14-6.3 9.78-1.07-.57A27.22 27.22 0 1 0 70.63 89l.1-1.2h9.73L77 98.93h-2.48a1 1 0 0 0 0 2h8.27a1 1 0 0 0 0-2h-3.74l3.61-11.72.1-.15 20.34-31.41 3.82 7.4-1 .63a27.22 27.22 0 1 0 14.41-4.11zm-51.7 29.66a25.24 25.24 0 1 1-25.13-27.64 24.84 24.84 0 0 1 11.59 2.82l1.28.65-13.7 21.21a1 1 0 0 0 0 1 1 1 0 0 0 .86.52h25.23zm-23.3-3.43L58 66.11l1.13.89a25.41 25.41 0 0 1 9.46 17.36l.13 1.44zm25.42 0l-.1-1.2A27.21 27.21 0 0 0 60 65.2l-1-.74 5.7-8.81L80.15 85.8zm11.17-1L66.47 54.6h35zm38.41 27.2a25.22 25.22 0 0 1-13.65-46.44l1.2-.79 11.56 22.44a1 1 0 0 0 .89.55.82.82 0 0 0 .44-.11 1.06 1.06 0 0 0 .5-.57 1.1 1.1 0 0 0 0-.76l-11.64-22.43 1.34-.53a25 25 0 0 1 9.36-1.8 25.24 25.24 0 0 1 0 50.47z" fill="#fff"/></svg>