<svg xmlns="http://www.w3.org/2000/svg" viewBox="0 0 433 236"><circle cx="176.77" cy="125.68" r="26.38" fill="#fdc62d"/><circle cx="253.06" cy="125.68" r="26.38" fill="#fdc62d"/><path d="M253.06 99a27.2 27.2 0 0 0-10.49 2.09l-1.12.47-9.62-18.67h13.44a3.53 3.53 0 0 1 0 7.06h-2.38a1 1 0 1 0 0 2h2.4a5.52 5.52 0 1 0 0-11h-15.08a1 1 0 0 0-.84.47 1 1 0 0 0 0 1l5 9.7h-36.14l-4.68-9.17H201a1 1 0 0 0 0-2h-15.12a1 1 0 0 0 0 2h5.42L196.47 93l-6.3 9.78-1.07-.57a27.22 27.22 0 1 0 14.28 26.2l.1-1.21h9.73l-3.45 11.14h-2.49a1 1 0 0 0 0 2h8.27a1 1 0 0 0 0-2h-3.74l3.61-11.71.1-.16 20.34-31.4 3.82 7.4-1 .63a27.22 27.22 0 1 0 14.39-4.1zm-51.7 29.65A25.24 25.24 0 1 1 176.23 101a24.73 24.73 0 0 1 11.59 2.83l1.28.65-13.7 21.21a1 1 0 0 0 0 1 1 1 0 0 0 .86.52h25.26zm-23.3-3.42l12.71-19.69 1.13.89a25.41 25.41 0 0 1 9.46 17.36l.13 1.44zm25.42 0l-.1-1.21a27.25 27.25 0 0 0-10.59-19.4l-1-.73 5.7-8.81 15.38 30.15zm11.17-1L199.22 94h35zm38.41 27.22A25.22 25.22 0 0 1 239.41 105l1.2-.78 11.56 22.44a1 1 0 0 0 .89.54.82.82 0 0 0 .44-.1 1 1 0 0 0 .5-.58 1.07 1.07 0 0 0-.05-.75l-11.59-22.47 1.34-.52a25 25 0 0 1 9.36-1.8 25.23 25.23 0 1 1 0 50.46z" fill="#fff"/></svg>