<svg xmlns="http://www.w3.org/2000/svg" viewBox="0 0 160 160"><path d="M49 57.2S52.47 77 72.48 82.47s31.7-15.66 31.7-15.66l2.87-10.22zM60.29 40.92a1.28 1.28 0 0 0 2.15-1.39c-.07-.11-1.74-2.79-.06-5 2.8-3.63.15-7.58 0-7.75a1.28 1.28 0 1 0-2.11 1.45s1.72 2.57 0 4.73c-2.71 3.66-.1 7.79.02 7.96zM71.41 40.92a1.28 1.28 0 0 0 2.15-1.39c-.07-.11-1.74-2.79-.07-5 2.81-3.63.16-7.58.05-7.75a1.28 1.28 0 0 0-2.12 1.45s1.73 2.57 0 4.73c-2.74 3.66-.13 7.79-.01 7.96zM82.53 40.92a1.28 1.28 0 0 0 2.15-1.39c-.07-.11-1.74-2.79-.07-5 2.81-3.63.16-7.58 0-7.75a1.28 1.28 0 0 0-2.12 1.45c.07.1 1.7 2.59 0 4.73-2.69 3.66-.08 7.79.04 7.96zM93.65 40.92a1.28 1.28 0 0 0 2.15-1.39c-.07-.11-1.74-2.79-.07-5 2.81-3.63.16-7.58 0-7.75a1.28 1.28 0 0 0-2.12 1.45c.07.1 1.7 2.59 0 4.73-2.7 3.66-.08 7.79.04 7.96z" fill="#fdc62d"/><path d="M112.94 111.18h-3L94.37 79.52a30.53 30.53 0 0 0 8.4-8 1.28 1.28 0 0 0-2.08-1.49 27.91 27.91 0 0 1-21.37 11.66V79a1.28 1.28 0 1 0-2.56 0v2.7A27.73 27.73 0 0 1 50.5 58h24.55a1.28 1.28 0 0 0 0-2.56H49.26a1 1 0 0 1-1-1v-3.51a1 1 0 0 1 1-1h18.05a2.63 2.63 0 0 0 2.59 2.28h16.29a2.62 2.62 0 0 0 2.58-2.28h18a1 1 0 0 1 1 1v3.54a1 1 0 0 1-1 1H81A1.28 1.28 0 0 0 81 58h24.55a27.53 27.53 0 0 1-2.06 7.1 1.29 1.29 0 0 0 .66 1.69 1.34 1.34 0 0 0 .52.1 1.27 1.27 0 0 0 1.17-.76 30.31 30.31 0 0 0 2.33-8.41 3.54 3.54 0 0 0 2.17-3.27v-3.52a3.56 3.56 0 0 0-3.55-3.55h-18a2.61 2.61 0 0 0-2.58-2.27H69.9a2.6 2.6 0 0 0-2.58 2.27H49.26a3.56 3.56 0 0 0-3.55 3.55v3.54a3.56 3.56 0 0 0 2.17 3.27A30.41 30.41 0 0 0 61.7 79.53l-15.51 31.65h-3a1.28 1.28 0 1 0 0 2.56h69.8a1.28 1.28 0 1 0 0-2.56zM69.86 47.71h16.33v1.9H69.9zm6.9 63.47H49l14.92-30.36a30.37 30.37 0 0 0 12.84 3.44zm2.56 0V84.26a30.41 30.41 0 0 0 12.83-3.46L107 111.18z" fill="#fff"/></svg>