<svg xmlns="http://www.w3.org/2000/svg" viewBox="0 0 433 236"><path d="M185.54 95.2S189 115 209 120.47s31.7-15.66 31.7-15.66l2.87-10.22zM196.79 78.92a1.28 1.28 0 0 0 2.15-1.39c-.07-.11-1.74-2.79-.06-5 2.8-3.63.15-7.58 0-7.75a1.28 1.28 0 1 0-2.11 1.45s1.72 2.57 0 4.73c-2.71 3.66-.1 7.79.02 7.96zM207.91 78.92a1.28 1.28 0 0 0 2.15-1.39c-.07-.11-1.74-2.79-.07-5 2.81-3.63.16-7.58 0-7.75a1.28 1.28 0 0 0-2.12 1.45s1.73 2.57.05 4.73c-2.74 3.66-.13 7.79-.01 7.96zM219 78.92a1.28 1.28 0 0 0 2.15-1.39c-.07-.11-1.74-2.79-.07-5 2.81-3.63.16-7.58 0-7.75a1.28 1.28 0 0 0-2.08 1.5c.07.1 1.7 2.59.05 4.73-2.75 3.61-.14 7.74-.05 7.91zM230.15 78.92a1.28 1.28 0 0 0 2.15-1.39c-.07-.11-1.74-2.79-.07-5 2.81-3.63.16-7.58.05-7.75a1.28 1.28 0 0 0-2.12 1.45c.07.1 1.7 2.59.05 4.73-2.8 3.66-.21 7.79-.06 7.96z" fill="#fdc62d"/><path d="M249.44 149.18h-3.05l-15.52-31.66a30.53 30.53 0 0 0 8.4-8 1.28 1.28 0 0 0-2.08-1.49 27.91 27.91 0 0 1-21.37 11.61V117a1.28 1.28 0 0 0-2.56 0v2.66A27.73 27.73 0 0 1 187 96h24.55a1.28 1.28 0 0 0 0-2.56h-25.79a1 1 0 0 1-1-1v-3.51a1 1 0 0 1 1-1h18.05a2.63 2.63 0 0 0 2.59 2.28h16.29a2.62 2.62 0 0 0 2.58-2.28h18a1 1 0 0 1 1 1v3.54a1 1 0 0 1-1 1h-25.74a1.28 1.28 0 1 0 0 2.56h24.55a27.53 27.53 0 0 1-2.06 7.1 1.29 1.29 0 0 0 .66 1.69 1.34 1.34 0 0 0 .52.1 1.27 1.27 0 0 0 1.17-.76 30.31 30.31 0 0 0 2.33-8.41 3.54 3.54 0 0 0 2.17-3.27v-3.55a3.56 3.56 0 0 0-3.55-3.55h-18a2.61 2.61 0 0 0-2.58-2.27H206.4a2.6 2.6 0 0 0-2.58 2.27h-18.06a3.56 3.56 0 0 0-3.55 3.55v3.54a3.56 3.56 0 0 0 2.17 3.27 30.41 30.41 0 0 0 13.82 21.79l-15.51 31.65h-3.05a1.28 1.28 0 1 0 0 2.56h69.8a1.28 1.28 0 0 0 0-2.56zm-43.08-63.47h16.29v1.9H206.4zm6.9 63.47h-27.72l14.88-30.36a30.37 30.37 0 0 0 12.84 3.44zm2.56 0v-26.92a30.41 30.41 0 0 0 12.83-3.46l14.89 30.38z" fill="#fff"/></svg>