<svg id="Benefits_MKK" data-name="Benefits MKK" xmlns="http://www.w3.org/2000/svg" viewBox="0 0 433 236"><defs><style>.cls-1{fill:#fff;}.cls-2{fill:#fdc62d;}</style></defs><title>Benefits_Schuetze</title><path class="cls-1" d="M115.74,197.65h-2.47V176.87h4.29l5.24,17.45h0l5.3-17.45h4.38v20.78h-2.65V179.17h-.06L124,197.65H121.5l-5.7-18.48h-.06Z"/><path class="cls-1" d="M136.76,176.87h2.65v2.53h-2.65Zm2.5,20.78H136.9V183.12h2.36Z"/><path class="cls-1" d="M143.61,183.12v-2.8l2.36-1.06v3.86h3.17v1.78H146v8.9q0,.34,0,.72a1.31,1.31,0,0,0,.23.67,1.51,1.51,0,0,0,.65.51,3.16,3.16,0,0,0,1.25.2l.4,0,.66-.09v1.82c-.38,0-.77.08-1.16.14a7.78,7.78,0,0,1-1.17.09,3.7,3.7,0,0,1-2.47-.67,2.37,2.37,0,0,1-.78-1.92V184.9h-2.39v-1.78Z"/><path class="cls-1" d="M158.84,195.55h-.06a3.93,3.93,0,0,1-1.41,1.83,4,4,0,0,1-2.25.56,4.49,4.49,0,0,1-1.91-.36,3.07,3.07,0,0,1-1.22-1,3.83,3.83,0,0,1-.65-1.51,8.93,8.93,0,0,1-.19-1.92,3.84,3.84,0,0,1,2.56-3.94,8.4,8.4,0,0,1,2.48-.52c.9-.06,1.76-.07,2.59-.06,0-.48,0-.95,0-1.44a4,4,0,0,0-.26-1.29,2.11,2.11,0,0,0-.73-.94,2.5,2.5,0,0,0-1.46-.36,2.21,2.21,0,0,0-1.8.72,2.45,2.45,0,0,0-.47,1.87H151.5a4.27,4.27,0,0,1,1.33-3.41,5.83,5.83,0,0,1,3.59-1,6.65,6.65,0,0,1,2.32.34,3.88,3.88,0,0,1,1.44.94,3.3,3.3,0,0,1,.74,1.38,6.26,6.26,0,0,1,.22,1.71v7c0,.58,0,1.16.07,1.74s.12,1.16.22,1.71h-2.59Zm-.06-5.12-1.77,0a5.72,5.72,0,0,0-1.71.29,2.76,2.76,0,0,0-1.28.84,2.63,2.63,0,0,0-.51,1.75,3.22,3.22,0,0,0,.55,1.87,1.92,1.92,0,0,0,1.73.8,3.11,3.11,0,0,0,1.1-.21,2.35,2.35,0,0,0,1-.82,4.83,4.83,0,0,0,.71-1.7A10.54,10.54,0,0,0,158.78,190.43Z"/><path class="cls-1" d="M168.19,185.3h.06A5.67,5.67,0,0,1,169,184a3.06,3.06,0,0,1,1-.75,3.78,3.78,0,0,1,1.21-.33,14.26,14.26,0,0,1,1.54-.07v2.45l-.31-.05-.32,0-.3,0-.34,0a3.34,3.34,0,0,0-1.61.35,3,3,0,0,0-1,.89,3.43,3.43,0,0,0-.51,1.27,7,7,0,0,0-.15,1.44v8.57h-2.36V183.12h2.36Z"/><path class="cls-1" d="M177.89,197.65h-2.36V176.87h2.36v7.71H178a4.23,4.23,0,0,1,1.38-1.3,3.59,3.59,0,0,1,1.82-.45,4.59,4.59,0,0,1,2.73.7,4.24,4.24,0,0,1,1.44,1.83,7.89,7.89,0,0,1,.55,2.52c.06.93.08,1.85.08,2.75a14.66,14.66,0,0,1-.4,3.83,5.89,5.89,0,0,1-1.06,2.22,3.19,3.19,0,0,1-1.52,1,6.19,6.19,0,0,1-1.71.24,3.59,3.59,0,0,1-1.94-.5,4.47,4.47,0,0,1-1.4-1.51h-.06Zm0-7.85v1.91a8.76,8.76,0,0,0,.23,2,4.1,4.1,0,0,0,.78,1.61,2,2,0,0,0,1.64.66,2.48,2.48,0,0,0,1.72-.53,3.18,3.18,0,0,0,.87-1.32,5.37,5.37,0,0,0,.33-1.73c0-.62,0-1.21,0-1.77,0-1,0-1.83-.1-2.56a6.42,6.42,0,0,0-.41-1.85,2.35,2.35,0,0,0-.86-1.12,2.68,2.68,0,0,0-1.51-.37,2.13,2.13,0,0,0-1.53.52,3.32,3.32,0,0,0-.82,1.28,6.12,6.12,0,0,0-.33,1.64C177.91,188.78,177.89,189.32,177.89,189.8Z"/><path class="cls-1" d="M192,191.15a12.57,12.57,0,0,0,.2,2.47,4.17,4.17,0,0,0,.58,1.49,1.89,1.89,0,0,0,.92.72A3.9,3.9,0,0,0,195,196a2.27,2.27,0,0,0,1.06-.23,2.33,2.33,0,0,0,.78-.6,2.78,2.78,0,0,0,.49-.88,4.07,4.07,0,0,0,.2-1.05h2.59a4.41,4.41,0,0,1-1.4,3.57,5.59,5.59,0,0,1-3.67,1.12,9.41,9.41,0,0,1-2.16-.24,3.6,3.6,0,0,1-1.75-1,5.41,5.41,0,0,1-1.18-2.22,13.83,13.83,0,0,1-.43-3.86,28.88,28.88,0,0,1,.15-3,7,7,0,0,1,.72-2.47,4.17,4.17,0,0,1,1.66-1.67,6.13,6.13,0,0,1,3-.62,6.57,6.57,0,0,1,2.57.43,3.57,3.57,0,0,1,1.58,1.31,5.83,5.83,0,0,1,.8,2.2,18,18,0,0,1,.23,3.14v1.24Zm5.67-1.79a11.34,11.34,0,0,0-.22-2.52,3.75,3.75,0,0,0-.59-1.43,1.57,1.57,0,0,0-.92-.65,4.43,4.43,0,0,0-1.18-.15,3,3,0,0,0-1.06.18,1.77,1.77,0,0,0-.87.69,4.11,4.11,0,0,0-.6,1.45,10.75,10.75,0,0,0-.23,2.43Z"/><path class="cls-1" d="M203.92,176.87h2.65v2.53h-2.65Zm2.5,20.78h-2.36V183.12h2.36Z"/><path class="cls-1" d="M210.77,183.12v-2.8l2.36-1.06v3.86h3.17v1.78h-3.17v8.9q0,.34,0,.72a1.31,1.31,0,0,0,.23.67,1.51,1.51,0,0,0,.65.51,3.16,3.16,0,0,0,1.25.2l.4,0,.66-.09v1.82c-.38,0-.77.08-1.16.14a7.78,7.78,0,0,1-1.17.09,3.7,3.7,0,0,1-2.47-.67,2.37,2.37,0,0,1-.78-1.92V184.9h-2.39v-1.78Z"/><path class="cls-1" d="M220.82,191.15a11.85,11.85,0,0,0,.2,2.47,4,4,0,0,0,.57,1.49,1.93,1.93,0,0,0,.92.72,4,4,0,0,0,1.24.18,2.28,2.28,0,0,0,1.07-.23,2.43,2.43,0,0,0,.78-.6,2.78,2.78,0,0,0,.49-.88,4.07,4.07,0,0,0,.2-1.05h2.59a4.44,4.44,0,0,1-1.4,3.57,5.59,5.59,0,0,1-3.67,1.12,9.28,9.28,0,0,1-2.16-.24,3.63,3.63,0,0,1-1.76-1,5.4,5.4,0,0,1-1.17-2.22,13.78,13.78,0,0,1-.44-3.86,28.8,28.8,0,0,1,.16-3,7,7,0,0,1,.72-2.47,4.11,4.11,0,0,1,1.66-1.67,6.11,6.11,0,0,1,3-.62,6.48,6.48,0,0,1,2.56.43,3.6,3.6,0,0,1,1.59,1.31,5.83,5.83,0,0,1,.8,2.2,18,18,0,0,1,.23,3.14v1.24Zm5.67-1.79a11.34,11.34,0,0,0-.22-2.52,3.75,3.75,0,0,0-.59-1.43,1.6,1.6,0,0,0-.92-.65,4.43,4.43,0,0,0-1.18-.15,3.12,3.12,0,0,0-1.07.18,1.79,1.79,0,0,0-.86.69,4.11,4.11,0,0,0-.6,1.45,10.2,10.2,0,0,0-.23,2.43Z"/><path class="cls-1" d="M235.35,185.3h.06a5.67,5.67,0,0,1,.79-1.32,3.06,3.06,0,0,1,1-.75,3.78,3.78,0,0,1,1.21-.33,14.26,14.26,0,0,1,1.54-.07v2.45l-.31-.05-.32,0-.3,0-.33,0a3.38,3.38,0,0,0-1.62.35,2.88,2.88,0,0,0-1,.89,3.28,3.28,0,0,0-.52,1.27,7,7,0,0,0-.15,1.44v8.57H233V183.12h2.36Z"/><path class="cls-1" d="M244.8,191.15a11.85,11.85,0,0,0,.2,2.47,4,4,0,0,0,.57,1.49,1.91,1.91,0,0,0,.93.72,3.88,3.88,0,0,0,1.23.18,2.28,2.28,0,0,0,1.07-.23,2.55,2.55,0,0,0,.78-.6,2.58,2.58,0,0,0,.48-.88,3.7,3.7,0,0,0,.21-1.05h2.59a4.44,4.44,0,0,1-1.4,3.57,5.59,5.59,0,0,1-3.67,1.12,9.28,9.28,0,0,1-2.16-.24,3.55,3.55,0,0,1-1.75-1,5.42,5.42,0,0,1-1.19-2.22,14.22,14.22,0,0,1-.43-3.86,28.8,28.8,0,0,1,.16-3,7,7,0,0,1,.72-2.47,4.17,4.17,0,0,1,1.66-1.67,6.11,6.11,0,0,1,3-.62,6.48,6.48,0,0,1,2.56.43,3.6,3.6,0,0,1,1.59,1.31,5.83,5.83,0,0,1,.8,2.2,18,18,0,0,1,.23,3.14v1.24Zm5.67-1.79a12,12,0,0,0-.22-2.52,3.75,3.75,0,0,0-.59-1.43,1.63,1.63,0,0,0-.92-.65,4.49,4.49,0,0,0-1.18-.15,3,3,0,0,0-1.06.18,1.77,1.77,0,0,0-.87.69,4.11,4.11,0,0,0-.6,1.45,10.2,10.2,0,0,0-.23,2.43Z"/><path class="cls-1" d="M255.22,183.12h2.65l3.25,12.32h.06l3.51-12.32h2.47l-4.54,14.53h-3.08Z"/><path class="cls-1" d="M272,191.15a12.57,12.57,0,0,0,.2,2.47,4.17,4.17,0,0,0,.58,1.49,1.93,1.93,0,0,0,.92.72,4,4,0,0,0,1.24.18,2.24,2.24,0,0,0,1.06-.23,2.33,2.33,0,0,0,.78-.6,2.6,2.6,0,0,0,.49-.88,3.69,3.69,0,0,0,.2-1.05H280a4.44,4.44,0,0,1-1.39,3.57,5.62,5.62,0,0,1-3.67,1.12,9.28,9.28,0,0,1-2.16-.24,3.58,3.58,0,0,1-1.76-1,5.41,5.41,0,0,1-1.18-2.22,13.83,13.83,0,0,1-.43-3.86,26.31,26.31,0,0,1,.16-3,6.56,6.56,0,0,1,.72-2.47,4.08,4.08,0,0,1,1.65-1.67,6.15,6.15,0,0,1,3-.62,6.51,6.51,0,0,1,2.56.43,3.51,3.51,0,0,1,1.58,1.31,6,6,0,0,1,.81,2.2,19,19,0,0,1,.23,3.14v1.24Zm5.67-1.79a12.08,12.08,0,0,0-.21-2.52,3.92,3.92,0,0,0-.59-1.43,1.62,1.62,0,0,0-.93-.65,4.36,4.36,0,0,0-1.17-.15,3.08,3.08,0,0,0-1.07.18,1.75,1.75,0,0,0-.86.69,4.29,4.29,0,0,0-.61,1.45,10.75,10.75,0,0,0-.23,2.43Z"/><path class="cls-1" d="M292,197.65V187.58a4.94,4.94,0,0,0-.12-1.1,2.3,2.3,0,0,0-.4-.9,1.89,1.89,0,0,0-.79-.61,3.26,3.26,0,0,0-1.25-.21,2.77,2.77,0,0,0-1.56.39,2.68,2.68,0,0,0-.89,1,4.42,4.42,0,0,0-.42,1.39,12.76,12.76,0,0,0-.1,1.51v8.6h-2.36V186.14c0-.5,0-1,0-1.51s-.06-1-.1-1.51h2.5V185h.12a4,4,0,0,1,1.58-1.7,5,5,0,0,1,2.3-.46,4.86,4.86,0,0,1,1.92.33,2.65,2.65,0,0,1,1.19,1,4.15,4.15,0,0,1,.61,1.52,10.45,10.45,0,0,1,.17,1.94v10.07Z"/><path class="cls-1" d="M298.72,183.12v-2.8l2.36-1.06v3.86h3.16v1.78h-3.16v8.9c0,.23,0,.47,0,.72a1.41,1.41,0,0,0,.23.67,1.65,1.65,0,0,0,.65.51,3.25,3.25,0,0,0,1.26.2l.4,0,.66-.09v1.82c-.38,0-.77.08-1.17.14a7.65,7.65,0,0,1-1.16.09,3.75,3.75,0,0,1-2.48-.67,2.37,2.37,0,0,1-.77-1.92V184.9h-2.39v-1.78Z"/><path class="cls-1" d="M315.82,193.51a4.76,4.76,0,0,1-.39,2,3.66,3.66,0,0,1-1.07,1.37,4.24,4.24,0,0,1-1.61.78,8,8,0,0,1-2,.24,5.71,5.71,0,0,1-3.72-1.11,4.26,4.26,0,0,1-1.29-3.61h2.68c0,.21,0,.48,0,.79a2.5,2.5,0,0,0,.27.92,2.11,2.11,0,0,0,.72.77,2.58,2.58,0,0,0,1.39.31,2.9,2.9,0,0,0,1.78-.54,2,2,0,0,0,.72-1.67,1.46,1.46,0,0,0-.53-1.11,6.11,6.11,0,0,0-1.34-.89c-.54-.28-1.12-.56-1.76-.84a9.88,9.88,0,0,1-1.75-1,5.1,5.1,0,0,1-1.34-1.32,3.14,3.14,0,0,1-.54-1.86,4.36,4.36,0,0,1,.21-1.26,3.05,3.05,0,0,1,.76-1.3,4.34,4.34,0,0,1,1.54-1,6.61,6.61,0,0,1,2.5-.4,6.89,6.89,0,0,1,1.85.24,4.63,4.63,0,0,1,1.51.74,3.1,3.1,0,0,1,1,1.28,3.81,3.81,0,0,1,.26,1.86h-2.62a2,2,0,0,0-2.27-2.34,2.49,2.49,0,0,0-1.6.51,1.73,1.73,0,0,0-.65,1.45,1.44,1.44,0,0,0,.53,1.1,6.9,6.9,0,0,0,1.34.86c.54.27,1.12.54,1.76.8a9.25,9.25,0,0,1,1.75,1,5,5,0,0,1,1.34,1.34A3.2,3.2,0,0,1,315.82,193.51Z"/><path class="cls-2" d="M185.54,95.2S189,115,209,120.47s31.7-15.66,31.7-15.66l2.87-10.22Z"/><path class="cls-2" d="M196.79,78.92a1.28,1.28,0,0,0,2.15-1.39c-.07-.11-1.74-2.79-.06-5,2.8-3.63.15-7.58,0-7.75a1.28,1.28,0,1,0-2.11,1.45s1.72,2.57,0,4.73C194.06,74.62,196.67,78.75,196.79,78.92Z"/><path class="cls-2" d="M207.91,78.92a1.28,1.28,0,0,0,2.15-1.39c-.07-.11-1.74-2.79-.07-5,2.81-3.63.16-7.58,0-7.75a1.28,1.28,0,0,0-2.12,1.45s1.73,2.57.05,4.73C205.18,74.62,207.79,78.75,207.91,78.92Z"/><path class="cls-2" d="M219,78.92a1.28,1.28,0,0,0,2.15-1.39c-.07-.11-1.74-2.79-.07-5,2.81-3.63.16-7.58,0-7.75A1.28,1.28,0,0,0,219,66.28c.07.1,1.7,2.59.05,4.73C216.3,74.62,218.91,78.75,219,78.92Z"/><path class="cls-2" d="M230.15,78.92a1.28,1.28,0,0,0,2.15-1.39c-.07-.11-1.74-2.79-.07-5,2.81-3.63.16-7.58.05-7.75a1.28,1.28,0,0,0-2.12,1.45c.07.1,1.7,2.59.05,4.73C227.41,74.62,230,78.75,230.15,78.92Z"/><path class="cls-1" d="M249.44,149.18h-3.05l-15.52-31.66a30.53,30.53,0,0,0,8.4-8,1.28,1.28,0,0,0-2.08-1.49,27.91,27.91,0,0,1-21.37,11.61V117a1.28,1.28,0,0,0-2.56,0v2.66A27.73,27.73,0,0,1,187,96h24.55a1.28,1.28,0,0,0,0-2.56H185.76a1,1,0,0,1-1-1V88.93a1,1,0,0,1,1-1h18.05a2.63,2.63,0,0,0,2.59,2.28h16.29a2.62,2.62,0,0,0,2.58-2.28h18a1,1,0,0,1,1,1v3.54a1,1,0,0,1-1,1H217.53a1.28,1.28,0,1,0,0,2.56h24.55a27.53,27.53,0,0,1-2.06,7.1,1.29,1.29,0,0,0,.66,1.69,1.34,1.34,0,0,0,.52.1,1.27,1.27,0,0,0,1.17-.76,30.31,30.31,0,0,0,2.33-8.41,3.54,3.54,0,0,0,2.17-3.27V88.93a3.56,3.56,0,0,0-3.55-3.55h-18a2.61,2.61,0,0,0-2.58-2.27H206.4a2.6,2.6,0,0,0-2.58,2.27H185.76a3.56,3.56,0,0,0-3.55,3.55v3.54a3.56,3.56,0,0,0,2.17,3.27,30.41,30.41,0,0,0,13.82,21.79l-15.51,31.65h-3.05a1.28,1.28,0,1,0,0,2.56h69.8a1.28,1.28,0,0,0,0-2.56ZM206.36,85.71a0,0,0,0,1,0,0h16.29a0,0,0,0,1,0,0v1.9a0,0,0,0,1,0,0H206.4s0,0,0,0Zm6.9,63.47H185.54l14.88-30.36a30.37,30.37,0,0,0,12.84,3.44Zm2.56,0V122.26a30.41,30.41,0,0,0,12.83-3.46l14.89,30.38Z"/></svg>