<svg xmlns="http://www.w3.org/2000/svg" viewBox="0 0 433 236"><path fill="#fdc62d" d="M231.65 69.61l-3.67 13.04 3.71 2.06 4.4-16.82-4.44 1.72z"/><path d="M239.79 62.59l2.21 6 8 4.3 8.44 4.63s1-5.66-3.25-8.06-8.54-5-8.54-5l-1.75-1.88 25-5.6s-5.77-4.62-16.51-3.71-11.39 1.2-11.39 1.2l18.15-17.76s-12.69 2.57-15.6 4.8-10.79 15.6-10.79 15.6-4-14.23-8.84-17.83S209.67 34 209.67 34L229 57.81s-11.48-6.19-21.08-6-10.81 5.32-10.81 5.32l26.4 4.67s-12.87 6.56-13.8 9.34-2 6.89-2 6.89l23.73-17.08z" fill="#fdc62d"/><path d="M177.19 69.77a1 1 0 0 0 1-1V67a1 1 0 1 0-2 0v1.76a1 1 0 0 0 1 1.01zM177.19 104.82a1 1 0 0 0 1-1v-1.75a1 1 0 0 0-2 0v1.75a1 1 0 0 0 1 1zM164.71 74.35a1 1 0 1 0 1.42-1.41l-1.24-1.24a1 1 0 0 0-1.42 0 1 1 0 0 0-.29.7 1 1 0 0 0 .29.71zM189.67 96.48a1 1 0 0 0-1.41 0 1 1 0 0 0 0 1.42l1.24 1.24a1 1 0 0 0 .71.29 1 1 0 0 0 .71-.29 1 1 0 0 0 .29-.71 1 1 0 0 0-.29-.7zM161.55 85.42a1 1 0 0 0-1-1h-1.76a1 1 0 0 0 0 2h1.76a1 1 0 0 0 1-1zM196.6 85.42a1 1 0 0 0-1-1h-1.76a1 1 0 0 0 0 2h1.76a1 1 0 0 0 1-1zM163.18 98.43a1 1 0 0 0 .29.71 1 1 0 0 0 1.42 0l1.24-1.24a1 1 0 0 0 0-1.42 1 1 0 0 0-.71-.29 1 1 0 0 0-.71.29l-1.24 1.25a1 1 0 0 0-.29.7zM189.67 74.35l1.25-1.24a1 1 0 0 0 .29-.71 1 1 0 0 0-1-1 1 1 0 0 0-.71.3l-1.24 1.24a1 1 0 1 0 1.41 1.41z" fill="#fff"/><path d="M262.42 52a1.1 1.1 0 0 0-.35-.05h-.19l-.17-.09a1.35 1.35 0 0 0-.35-.14 24.94 24.94 0 0 0-5.52-.65 1.38 1.38 0 0 0-.56.12l-.27.12-.27-.1a1.27 1.27 0 0 0-.58-.1 25.53 25.53 0 0 0-4.78.76 1.41 1.41 0 0 0-.56.28l-.22.19h-.3a1.3 1.3 0 0 0-.34 0l-2.08.32 1.49-1.48a1.81 1.81 0 0 0 .38-.55l.14-.33.36-.07a1.73 1.73 0 0 0 .7-.33l.28-.23c.8-.64 1.91-1.54 3.29-2.69a1.41 1.41 0 0 0 .41-.53l.14-.27.29-.09a1.42 1.42 0 0 0 .58-.31 52.33 52.33 0 0 0 7.45-7.27 1.47 1.47 0 0 0-1-2.34 24.37 24.37 0 0 0-9.51.94 1.74 1.74 0 0 0-.34.16l-.15.1h-.18a1.16 1.16 0 0 0-.37.07 24.92 24.92 0 0 0-5 2.43 1.27 1.27 0 0 0-.4.4l-.15.25-.3.06a1.23 1.23 0 0 0-.54.23 25.73 25.73 0 0 0-3.64 3.19 1.43 1.43 0 0 0-.31.55l-.09.28-.26.13a1.34 1.34 0 0 0-.47.38 25.59 25.59 0 0 0-3.84 7.17l-.79 2.2-.52-2.28a25.4 25.4 0 0 0-3-7.56 1.24 1.24 0 0 0-.41-.44l-.25-.16-.05-.29a1.42 1.42 0 0 0-.25-.58 25.65 25.65 0 0 0-3.22-3.62 1.28 1.28 0 0 0-.51-.29l-.28-.09-.12-.27a1.43 1.43 0 0 0-.36-.45 25 25 0 0 0-4.68-3 1.9 1.9 0 0 0-.36-.12h-.18l-.14-.12a1.61 1.61 0 0 0-.31-.19 24.12 24.12 0 0 0-9.34-2.06 1.45 1.45 0 0 0-1.27.74 1.42 1.42 0 0 0 0 1.46 52.16 52.16 0 0 0 6.53 8.1 1.36 1.36 0 0 0 .54.38l.28.12.1.29a1.58 1.58 0 0 0 .35.58c1.23 1.3 2.22 2.31 3 3.06l.25.25a1.57 1.57 0 0 0 .66.41l.35.11.1.35a1.68 1.68 0 0 0 .4.71c.47.49.94 1 1.39 1.48l2.47 2.77-3.3-1.64a21.82 21.82 0 0 0-2.59-1.1 1.32 1.32 0 0 0-.59-.07h-.3l-.23-.19a1.61 1.61 0 0 0-.55-.29 25.67 25.67 0 0 0-4.78-.75 1.41 1.41 0 0 0-.58.09l-.28.11-.27-.12a1.31 1.31 0 0 0-.55-.13 24.52 24.52 0 0 0-5.53.66 1.28 1.28 0 0 0-.34.14l-.17.09H205a1 1 0 0 0-.36 0 24.17 24.17 0 0 0-8.51 4.33 1.47 1.47 0 0 0 .41 2.51c1.34.51 4.19 1.28 10.19 2.11a1.48 1.48 0 0 0 .66-.05l.29-.08.26.16a1.74 1.74 0 0 0 .64.22c1.26.16 2.61.32 4 .47l.57.06a1.65 1.65 0 0 0 .76-.1l.34-.14.3.21a1.75 1.75 0 0 0 .76.28c1.1.14 2.2.29 3.27.45a1.61 1.61 0 0 0 .69 0l.29-.08 1.58 1-1.45.45a16 16 0 0 0-1.57.5 1.26 1.26 0 0 0-.39.23l-.17.15h-.22a1.43 1.43 0 0 0-.46.13 19.56 19.56 0 0 0-3.18 1.91 1.3 1.3 0 0 0-.3.32l-.12.19-.22.08a1.17 1.17 0 0 0-.36.21 19.51 19.51 0 0 0-2.92 3.11 1.23 1.23 0 0 0-.14.25l-.17.23a.91.91 0 0 0-.18.21 18.52 18.52 0 0 0-2.85 6.75 1.29 1.29 0 0 0 .45 1.27 1.32 1.32 0 0 0 1.33.25 38.73 38.73 0 0 0 7-3.76 1.61 1.61 0 0 0 .37-.32l.14-.19h.23a1.41 1.41 0 0 0 .45-.2c1.11-.71 2-1.31 2.65-1.75l.27-.17a1.52 1.52 0 0 0 .4-.4l.15-.23.28-.06a1.5 1.5 0 0 0 .54-.22c.71-.45 1.42-.9 2.11-1.32a1.7 1.7 0 0 0 .38-.33l.15-.19h.24A1.42 1.42 0 0 0 224 69c.68-.4 1.36-.79 2-1.16l.5-.28.37.44a4.86 4.86 0 0 0 2.74 1.67l.67.14-.14.66c-4.57 23-14.59 43.31-20.16 53.38l-.21.37h-.42c-15.76-.68-36.43 3.52-44.51 14.48l-.43.59-.56-.47a8.88 8.88 0 0 1-2.39-3.18 1 1 0 0 0-.55-.53 1 1 0 0 0-.77 0 1 1 0 0 0-.52.55 1 1 0 0 0 0 .77 10.84 10.84 0 0 0 18.38 2.36l.53-.67.54.67a10.77 10.77 0 0 0 8.44 4.06h.08a10.81 10.81 0 0 0 8.48-4.18l.54-.7.54.7a10.76 10.76 0 0 0 8.47 4.18h.07a10.76 10.76 0 0 0 8.45-4.06l.54-.67.54.67a10.75 10.75 0 0 0 8.44 4.06 10.79 10.79 0 0 0 8.44-4l.54-.67.53.67a10.83 10.83 0 0 0 18.34-2.4 1 1 0 0 0-.51-1.32 1 1 0 0 0-.76 0 1 1 0 0 0-.56.53 8.82 8.82 0 0 1-2.4 3.19l-.56.47-.43-.59c-4.3-5.85-13.2-10.56-24.4-12.92l-.8-.16.31-.77a217.14 217.14 0 0 0 8.17-24.24 1 1 0 0 0-.09-.76 1 1 0 0 0-1.84.22 214.51 214.51 0 0 1-8.35 24.66l-.21.5-.54-.08c-1.8-.29-3.66-.52-5.52-.69l-1-.09.49-.92c5.53-10.18 15.45-30.7 19.84-53.66l.06-.33 1.81-1-.22 1.31c-.74 5.08-2.1 13.12-4.39 22.61a1 1 0 0 0 .74 1.2.94.94 0 0 0 .75-.11 1 1 0 0 0 .45-.62 255.2 255.2 0 0 0 4.4-22.56l.08-.61h.62A4.82 4.82 0 0 0 240 68.6l.37-.3.41.23c.73.4 1.47.83 2.22 1.27a1.66 1.66 0 0 0 .48.19l.24.05.15.18a2.05 2.05 0 0 0 .38.34c.69.42 1.4.86 2.11 1.32a1.5 1.5 0 0 0 .54.22l.28.05.15.24a1.48 1.48 0 0 0 .4.39l.18.12c.65.44 1.56 1 2.74 1.81a1.27 1.27 0 0 0 .45.19l.23.06.15.19a1.59 1.59 0 0 0 .36.32 40.22 40.22 0 0 0 7 3.76 1.36 1.36 0 0 0 1.34-.25 1.32 1.32 0 0 0 .44-1.28 18.38 18.38 0 0 0-2.9-6.7.91.91 0 0 0-.18-.21l-.17-.23a1 1 0 0 0-.14-.24 18.29 18.29 0 0 0-2.91-3.12 1.36 1.36 0 0 0-.32-.2l-.22-.08-.12-.19a1.3 1.3 0 0 0-.3-.32 19.64 19.64 0 0 0-3.18-1.92 1.21 1.21 0 0 0-.46-.12h-.22l-.17-.15a1.09 1.09 0 0 0-.39-.23l-3-1.07 2.75-.41c1-.16 2.09-.3 3.15-.44a1.75 1.75 0 0 0 .77-.28l.3-.21.33.14a1.84 1.84 0 0 0 .77.1h.45c.85-.09 2.34-.25 4.13-.48a1.8 1.8 0 0 0 .64-.22l.26-.16.29.08a1.33 1.33 0 0 0 .66 0c6-.83 8.85-1.6 10.19-2.11a1.46 1.46 0 0 0 .41-2.5 24 24 0 0 0-8.62-4.43zm-18 87.41l.63.81-1 .28a8.77 8.77 0 0 1-10.38-4.75 1 1 0 0 0-1-.77 1 1 0 0 0-1 .69 8.73 8.73 0 0 1-8 5.15h-.1a8.71 8.71 0 0 1-8-5.25 1 1 0 0 0-.92-.59 1 1 0 0 0-.91.59 8.84 8.84 0 0 1-16.15 0 1.15 1.15 0 0 0-2 0 8.83 8.83 0 0 1-16.14 0 1 1 0 0 0-.92-.59 1 1 0 0 0-.91.59 8.85 8.85 0 0 1-10.49 4.92l-1-.28.63-.8c2.84-3.62 7.83-6.89 14.05-9.21 22.01-8.2 53.49-3.63 63.6 9.23zm-18.56-73.8l-.38.21c-.62.34-1.23.69-1.86 1l-.37.22-.36-.25a1 1 0 0 0-1.61 1v.43l-1.48.93-.39-.31a1.15 1.15 0 0 0-1.43-.18 1.11 1.11 0 0 0-.37 1.32l.17.5-.44.29-1.36.9-.4.26-.38-.28a1.05 1.05 0 0 0-1.66 1l.1.47-.41.25c-1.12.69-2.15 1.29-3.06 1.78l-1.68.91.72-1.77a16.37 16.37 0 0 1 1.17-2.33l.17-.29h.34a1.07 1.07 0 0 0 .74-.44 1 1 0 0 0 .16-.84l-.07-.33.22-.26a17 17 0 0 1 1.23-1.31l.35-.34.43.22a1.1 1.1 0 0 0 1.23-.09 1.06 1.06 0 0 0 .37-1.14l-.13-.48.42-.27c.34-.22.69-.43 1-.59l.44-.24.36.34a1.08 1.08 0 0 0 1.2.24 1.05 1.05 0 0 0 .65-1v-.51l.49-.14a18.84 18.84 0 0 1 5.12-.67h.74l-.05.74a5.42 5.42 0 0 0 0 .57zm-4.47-5.94l-.47-.08-.13-.65a1 1 0 0 0-2-.2l-.21.49-.53-.08-1.83-.25-.49-.07-.22-1.13a1.08 1.08 0 0 0-1-.87 1.07 1.07 0 0 0-1.1.68l-.39 1-.52-.06c-1-.11-2-.22-3-.34l-.5-.06-.15-.79a1.07 1.07 0 0 0-2-.17l-.25.64-.54-.08c-2.59-.38-4.75-.77-6.44-1.17l-1.62-.36 1.42-.87a23 23 0 0 1 4.8-2.25l.37-.12.3.26a1.1 1.1 0 0 0 1 .23 1.09 1.09 0 0 0 .72-.68l.13-.37.39-.07a21.81 21.81 0 0 1 3.11-.37h.49l.32.84a1.13 1.13 0 0 0 1.15.7 1.12 1.12 0 0 0 1-.87l.14-.6.61.07q.88.1 1.77.27l.58.11.48.11.11.94a1.09 1.09 0 0 0 .92 1 1.07 1.07 0 0 0 1.15-.56l.3-.56.57.25a28.13 28.13 0 0 1 8.63 6.05l.66.63-.8.46a1.65 1.65 0 0 0-.25.15l-.24.15-.28-.06c-1.96-.49-4.03-.9-6.17-1.27zm11 6.85l.2.55-.5.28a2.74 2.74 0 0 1-3.68-.82 2.75 2.75 0 0 1 .39-3.73 2.81 2.81 0 0 1 3.29-.36l.5.29-.2.54a4.9 4.9 0 0 0-.06 3.27zm-1.22-8.44c-1.31-1.72-2.77-3.52-4.35-5.35l-.31-.36.22-.42a1.14 1.14 0 0 0-.08-1.41 1 1 0 0 0-1.24-.18l-.47.25-.36-.4-1.25-1.36-.34-.36.55-1a1 1 0 0 0-.2-1.28A1 1 0 0 0 222 46l-.94.54-.37-.38c-.72-.73-1.41-1.45-2.07-2.14l-.34-.36.38-.7a1.08 1.08 0 0 0-1.59-1.37l-.47.26-.37-.4c-1.75-1.93-3.18-3.61-4.23-5l-1-1.32 1.65.23a23.11 23.11 0 0 1 5.09 1.32l.37.14.06.39a1 1 0 0 0 .61.81 1 1 0 0 0 1 0l.34-.21.34.19a23.6 23.6 0 0 1 2.63 1.69l.4.3-.28.85a1.12 1.12 0 0 0 1.79 1.21l.48-.38.43.44a23.3 23.3 0 0 1 1.58 1.79l.3.39-.51.79a1.11 1.11 0 0 0 1.35 1.62l.58-.24.29.55a28.85 28.85 0 0 1 2.87 10.61l.26 2.45zm4.31-.31a28.55 28.55 0 0 1 4.1-10.19l.36-.51.54.3A1.11 1.11 0 0 0 242 46l-.41-.85.34-.35c.52-.52 1.16-1.08 1.78-1.59l.48-.38.43.43a1.11 1.11 0 0 0 1.31.19 1.08 1.08 0 0 0 .57-1.2l-.17-.89.43-.24a22.78 22.78 0 0 1 2.81-1.37l.37-.15.31.25a1.07 1.07 0 0 0 1.69-.56l.11-.38.38-.1a23.59 23.59 0 0 1 5.21-.71h1.67l-1.16 1.2c-1.2 1.24-2.82 2.74-4.79 4.46l-.41.35-.44-.32a1.08 1.08 0 0 0-1.74 1.18l.29.74-.38.31c-.73.61-1.51 1.24-2.31 1.88l-.41.33-.87-.64a1.07 1.07 0 0 0-1.3 0 1 1 0 0 0-.34 1.24l.43 1.09-.38.31c-.48.4-1 .8-1.41 1.21l-.41.34-.43-.3a1.07 1.07 0 0 0-1.26 0 1.14 1.14 0 0 0-.24 1.39l.17.44-.35.32a109.3 109.3 0 0 0-4.95 4.79l-1.7 1.77zm4.29 7.12a2.83 2.83 0 1 1-2.77-2.8 2.83 2.83 0 0 1 2.73 2.82zm7.27.49l.49.14v.51a1.06 1.06 0 0 0 .65 1 1.1 1.1 0 0 0 1.2-.24l.36-.34.44.24c.29.16.64.37 1 .58l.42.27-.13.49a1.05 1.05 0 0 0 .38 1.14 1.07 1.07 0 0 0 1.2.09l.44-.24.36.35c.43.42.85.87 1.23 1.32l.22.26-.07.33a1 1 0 0 0 .16.84 1.07 1.07 0 0 0 .74.44h.34l.17.29a16.91 16.91 0 0 1 1.17 2.33l.72 1.78-1.68-.91c-.91-.5-1.94-1.1-3.06-1.78l-.41-.25.1-.47a1.05 1.05 0 0 0-1.66-1l-.38.28-.4-.26-1.36-.9-.44-.3.17-.49a1.13 1.13 0 0 0-.36-1.32 1.16 1.16 0 0 0-1.44.18l-.38.31-1.41-.89v-.48a1 1 0 0 0-1.61-1l-.36.24-.37-.21-1.49-.85-.46-.26.13-.51a5.71 5.71 0 0 0 .12-.74l.06-.64h.65a18.59 18.59 0 0 1 4.51.69zm20.41-7.7c-1.7.4-3.87.79-6.44 1.17l-.54.08-.2-.51a1.08 1.08 0 0 0-2.1.05l-.15.78-.49.06c-1 .12-1.94.23-3 .34l-.52.06-.39-1a1.08 1.08 0 0 0-2.07.18l-.23 1.15-.48.06-1.84.25-.52.08-.21-.49a1 1 0 0 0-2 .19l-.14.66-.46.08c-1.62.28-3.18.58-4.65.9l-.38.08-.26-.28a4.48 4.48 0 0 0-.75-.63l-.71-.49.64-.58a26.93 26.93 0 0 1 7.66-5.14l.58-.25.29.56a1.06 1.06 0 0 0 1.18.55 1.08 1.08 0 0 0 .9-1l.11-.93.47-.11a23.75 23.75 0 0 1 2.36-.38l.61-.07.13.6a1.12 1.12 0 0 0 2.13.17l.33-.84h.49a22 22 0 0 1 3.11.37l.39.07.13.37a1 1 0 0 0 .74.69 1.06 1.06 0 0 0 1-.24l.3-.26.38.12a23.46 23.46 0 0 1 4.77 2.21l1.42.87z" fill="#fff"/><path d="M177.19 95.46a10 10 0 0 0 4.37-19.09 1 1 0 0 0-.76-.05 1 1 0 0 0-.57.51 1 1 0 0 0 .46 1.34 8 8 0 1 1-7 0 1 1 0 0 0 .46-1.34 1 1 0 0 0-.57-.51 1.26 1.26 0 0 0-.33 0 .91.91 0 0 0-.43.1 10 10 0 0 0 4.36 19.09z" fill="#fff"/></svg>