<svg data-name="Benefits MKK" xmlns="http://www.w3.org/2000/svg" viewBox="0 0 433 236"><path d="M45.67 173.74V176H40.2v18.48h-2.64V176h-5.47v-2.3zm2.62 8.43h.06a5.67 5.67 0 0 1 .79-1.32 2.92 2.92 0 0 1 1-.75 3.78 3.78 0 0 1 1.21-.33 14.26 14.26 0 0 1 1.54-.07v2.44h-.63a1.54 1.54 0 0 0-.3 0 1.83 1.83 0 0 0-.33 0 3.31 3.31 0 0 0-1.61.35 2.74 2.74 0 0 0-1 .89 3.22 3.22 0 0 0-.52 1.27 7 7 0 0 0-.15 1.43v8.58h-2.42V180h2.36zm14.63 10.25h-.06a3.87 3.87 0 0 1-1.41 1.83 4.1 4.1 0 0 1-2.25.56 4.49 4.49 0 0 1-1.91-.36 3.07 3.07 0 0 1-1.22-1 3.83 3.83 0 0 1-.65-1.51 8.93 8.93 0 0 1-.19-1.92 4.11 4.11 0 0 1 .72-2.57 4.18 4.18 0 0 1 1.84-1.37 8.4 8.4 0 0 1 2.48-.52c.9-.06 1.77-.08 2.59-.06v-1.44a3.7 3.7 0 0 0-.26-1.29 2.06 2.06 0 0 0-.73-.94 2.5 2.5 0 0 0-1.46-.36 2.21 2.21 0 0 0-1.8.72 2.45 2.45 0 0 0-.47 1.87h-2.56a4.25 4.25 0 0 1 1.34-3.41 5.78 5.78 0 0 1 3.58-1 6.65 6.65 0 0 1 2.32.34 3.76 3.76 0 0 1 1.44.94 3.43 3.43 0 0 1 .75 1.38 6.68 6.68 0 0 1 .21 1.71v7c0 .57 0 1.15.07 1.74s.12 1.16.22 1.71h-2.59zm-.06-5.12h-1.77a5.78 5.78 0 0 0-1.71.28 2.86 2.86 0 0 0-1.28.85 2.62 2.62 0 0 0-.51 1.74 3.3 3.3 0 0 0 .55 1.88 2 2 0 0 0 1.73.8 3.11 3.11 0 0 0 1.1-.21 2.35 2.35 0 0 0 1-.82 4.65 4.65 0 0 0 .71-1.7 10.54 10.54 0 0 0 .18-2.82zm14.86 7.22v-10.07a4.88 4.88 0 0 0-.12-1.1 2.45 2.45 0 0 0-.4-.9 2 2 0 0 0-.8-.61 3.23 3.23 0 0 0-1.25-.21 2.72 2.72 0 0 0-1.55.39 2.53 2.53 0 0 0-.89 1 4.44 4.44 0 0 0-.42 1.38 11.19 11.19 0 0 0-.1 1.52v8.6h-2.36v-13.03c0-.51-.06-1-.1-1.52h2.51v1.88h.11a4 4 0 0 1 1.59-1.7 5 5 0 0 1 2.3-.46 4.81 4.81 0 0 1 1.91.33 2.73 2.73 0 0 1 1.2 1 4 4 0 0 1 .6 1.51 9.8 9.8 0 0 1 .18 1.95v10.07zm15.86-4.14a4.79 4.79 0 0 1-.39 2 3.74 3.74 0 0 1-1.07 1.37 4.56 4.56 0 0 1-1.61.78 8 8 0 0 1-2 .24 5.68 5.68 0 0 1-3.71-1.11 4.24 4.24 0 0 1-1.3-3.61h2.68v.79a2.34 2.34 0 0 0 .28.92 2.07 2.07 0 0 0 .71.77 2.58 2.58 0 0 0 1.39.31 2.88 2.88 0 0 0 1.78-.54 2 2 0 0 0 .72-1.67 1.44 1.44 0 0 0-.53-1.11 6.51 6.51 0 0 0-1.34-.9c-.54-.27-1.12-.55-1.76-.83a10.24 10.24 0 0 1-1.75-1 5.1 5.1 0 0 1-1.34-1.32 3.14 3.14 0 0 1-.53-1.86 4.76 4.76 0 0 1 .2-1.27 3.19 3.19 0 0 1 .76-1.29 4.3 4.3 0 0 1 1.54-1 6.63 6.63 0 0 1 2.51-.4 6.87 6.87 0 0 1 1.84.24 4.53 4.53 0 0 1 1.51.74 3.1 3.1 0 0 1 1 1.28 3.77 3.77 0 0 1 .26 1.85h-2.59a2 2 0 0 0-2.27-2.33A2.51 2.51 0 0 0 87 182a1.73 1.73 0 0 0-.65 1.45 1.4 1.4 0 0 0 .53 1.09 6.75 6.75 0 0 0 1.34.87c.54.27 1.13.54 1.76.8a9.66 9.66 0 0 1 1.76 1 5.33 5.33 0 0 1 1.34 1.34 3.26 3.26 0 0 1 .5 1.83zm5.98-8.67h.06a4.57 4.57 0 0 1 1.4-1.51 3.59 3.59 0 0 1 1.94-.5 6.19 6.19 0 0 1 1.71.24 3.26 3.26 0 0 1 1.52 1 5.89 5.89 0 0 1 1.06 2.22 14.66 14.66 0 0 1 .4 3.83c0 .9 0 1.82-.08 2.75a7.89 7.89 0 0 1-.55 2.52 4.19 4.19 0 0 1-1.44 1.83 4.59 4.59 0 0 1-2.73.7 3.69 3.69 0 0 1-1.82-.44 4.41 4.41 0 0 1-1.38-1.32h-.09v7H97.2V180h2.36zm2.74 11.17a2.68 2.68 0 0 0 1.51-.37 2.32 2.32 0 0 0 .86-1.11 6.19 6.19 0 0 0 .41-1.83c.06-.73.1-1.58.1-2.56v-1.76a5.73 5.73 0 0 0-.34-1.75 3.19 3.19 0 0 0-.87-1.34 2.48 2.48 0 0 0-1.72-.53 2 2 0 0 0-1.64.66 4.06 4.06 0 0 0-.78 1.63 8.92 8.92 0 0 0-.23 2v1.91c0 .48 0 1 .06 1.6a6 6 0 0 0 .33 1.63 3.21 3.21 0 0 0 .82 1.26 2.13 2.13 0 0 0 1.49.56zm16.58-.46h-.06a3.87 3.87 0 0 1-1.41 1.83 4.06 4.06 0 0 1-2.24.56 4.51 4.51 0 0 1-1.92-.36 3.22 3.22 0 0 1-1.22-1 4 4 0 0 1-.65-1.51 9.64 9.64 0 0 1-.18-1.92 3.84 3.84 0 0 1 2.56-3.94 8.27 8.27 0 0 1 2.47-.52c.9-.06 1.77-.08 2.59-.06v-1.44a4 4 0 0 0-.25-1.29 2.08 2.08 0 0 0-.74-.94 2.46 2.46 0 0 0-1.45-.36 2.18 2.18 0 0 0-1.8.72 2.46 2.46 0 0 0-.48 1.87h-2.56a4.25 4.25 0 0 1 1.34-3.41 5.78 5.78 0 0 1 3.58-1 6.61 6.61 0 0 1 2.32.34 3.61 3.61 0 0 1 1.44.94 3.43 3.43 0 0 1 .75 1.38 6.67 6.67 0 0 1 .22 1.71v7c0 .57 0 1.15.07 1.74s.12 1.16.21 1.71h-2.59zm-.06-5.12h-1.77a5.78 5.78 0 0 0-1.71.28 2.92 2.92 0 0 0-1.28.85 2.62 2.62 0 0 0-.5 1.74 3.29 3.29 0 0 0 .54 1.88 2 2 0 0 0 1.73.8 3.2 3.2 0 0 0 1.11-.21 2.4 2.4 0 0 0 1-.82 4.83 4.83 0 0 0 .7-1.7 10.54 10.54 0 0 0 .18-2.82zm9.42-5.13a6 6 0 0 1 .8-1.32 2.73 2.73 0 0 1 .95-.75 3.64 3.64 0 0 1 1.21-.33 14.14 14.14 0 0 1 1.54-.07v2.44h-.64a1.36 1.36 0 0 0-.3 0 1.77 1.77 0 0 0-.33 0 3.34 3.34 0 0 0-1.61.35 2.82 2.82 0 0 0-1 .89 3.37 3.37 0 0 0-.52 1.27 7.7 7.7 0 0 0-.14 1.43v8.58h-2.36V180h2.36zm9.44 5.83a12.65 12.65 0 0 0 .2 2.47 4.17 4.17 0 0 0 .58 1.49 1.81 1.81 0 0 0 .92.71 3.63 3.63 0 0 0 1.24.19 2.27 2.27 0 0 0 1.06-.23 2.33 2.33 0 0 0 .78-.6 2.78 2.78 0 0 0 .49-.88 4.15 4.15 0 0 0 .2-1h2.59a4.41 4.41 0 0 1-1.4 3.57 5.59 5.59 0 0 1-3.67 1.12 9.41 9.41 0 0 1-2.16-.24 3.62 3.62 0 0 1-1.75-1 5.3 5.3 0 0 1-1.18-2.21 13.83 13.83 0 0 1-.43-3.86 28.74 28.74 0 0 1 .15-3 7 7 0 0 1 .7-2.53 4.17 4.17 0 0 1 1.66-1.67 6 6 0 0 1 3-.62 6.57 6.57 0 0 1 2.57.43 3.5 3.5 0 0 1 1.58 1.31 5.77 5.77 0 0 1 .8 2.2 17.92 17.92 0 0 1 .23 3.14V188zm5.67-1.79a11.34 11.34 0 0 0-.22-2.52 4.06 4.06 0 0 0-.58-1.44 1.65 1.65 0 0 0-.93-.64 4.43 4.43 0 0 0-1.18-.15 3 3 0 0 0-1.06.18 1.77 1.77 0 0 0-.87.69 4.11 4.11 0 0 0-.6 1.45 10.69 10.69 0 0 0-.23 2.43zm14.31 8.31v-10.07a4.88 4.88 0 0 0-.12-1.1 2.3 2.3 0 0 0-.4-.9 2 2 0 0 0-.79-.61 3.26 3.26 0 0 0-1.25-.21 2.73 2.73 0 0 0-1.56.39 2.6 2.6 0 0 0-.89 1 4.44 4.44 0 0 0-.42 1.38 11.19 11.19 0 0 0-.1 1.52v8.6h-2.36v-13.03c0-.51-.07-1-.1-1.52h2.5v1.88h.12a4 4 0 0 1 1.58-1.7 5 5 0 0 1 2.3-.46 4.86 4.86 0 0 1 1.92.33 2.71 2.71 0 0 1 1.19 1 4.17 4.17 0 0 1 .61 1.51 10.65 10.65 0 0 1 .17 1.95v10.07zm14.42-12.38l-6.42 10.45h6.62v1.93h-9.18v-2.21l6.33-10.31v-.06h-6V180h8.66zm12.24 12.38H182v-20.78h2.37v7.71h.08a4.49 4.49 0 0 1 1.38-1.31 3.69 3.69 0 0 1 1.82-.44 4.59 4.59 0 0 1 2.73.7 4.19 4.19 0 0 1 1.44 1.83 7.89 7.89 0 0 1 .55 2.52c.06.93.08 1.85.08 2.75a14.66 14.66 0 0 1-.4 3.83 5.76 5.76 0 0 1-1.06 2.21 3.21 3.21 0 0 1-1.52 1 6.19 6.19 0 0 1-1.71.24 3.59 3.59 0 0 1-1.94-.5 4.57 4.57 0 0 1-1.4-1.51h-.05zm0-7.86v1.92a8.31 8.31 0 0 0 .23 2 4 4 0 0 0 .77 1.61 2 2 0 0 0 1.64.66 2.48 2.48 0 0 0 1.72-.53 3.31 3.31 0 0 0 .87-1.32 5.66 5.66 0 0 0 .34-1.73v-1.77c0-1 0-1.83-.1-2.56a6.42 6.42 0 0 0-.41-1.85 2.36 2.36 0 0 0-.86-1.12 2.68 2.68 0 0 0-1.51-.37 2.18 2.18 0 0 0-1.53.51 3.44 3.44 0 0 0-.82 1.29 6 6 0 0 0-.33 1.64c.01.61-.01 1.14-.01 1.62zM196 173.74h2.64v2.53H196zm2.5 20.78h-2.36V180h2.36zm13.39-4.14a5 5 0 0 1-.38 2 3.74 3.74 0 0 1-1.07 1.37 4.56 4.56 0 0 1-1.61.78 8.06 8.06 0 0 1-2 .24 5.69 5.69 0 0 1-3.72-1.11 4.27 4.27 0 0 1-1.29-3.61h2.67v.79a2.5 2.5 0 0 0 .27.92 2.1 2.1 0 0 0 .72.77 2.57 2.57 0 0 0 1.38.31 2.91 2.91 0 0 0 1.79-.54 2 2 0 0 0 .72-1.67 1.42 1.42 0 0 0-.54-1.11 6.42 6.42 0 0 0-1.33-.9c-.54-.27-1.13-.55-1.76-.83a10.34 10.34 0 0 1-1.76-1 5.22 5.22 0 0 1-1.33-1.32 3.14 3.14 0 0 1-.54-1.86 4.76 4.76 0 0 1 .2-1.27 3.22 3.22 0 0 1 .77-1.29 4.13 4.13 0 0 1 1.54-1 6.58 6.58 0 0 1 2.5-.4 6.82 6.82 0 0 1 1.84.24 4.68 4.68 0 0 1 1.52.74 3.1 3.1 0 0 1 1 1.28 3.77 3.77 0 0 1 .26 1.85h-2.62a2.3 2.3 0 0 0-.56-1.74 2.36 2.36 0 0 0-1.72-.59 2.48 2.48 0 0 0-1.59.51 1.7 1.7 0 0 0-.65 1.45 1.4 1.4 0 0 0 .53 1.09 6.47 6.47 0 0 0 1.34.87c.54.27 1.12.54 1.76.8a9.57 9.57 0 0 1 1.75 1 5 5 0 0 1 1.34 1.34 3.19 3.19 0 0 1 .57 1.89zm9.62-16.64h2.65v2.53h-2.65zm2.5 20.78h-2.36V180H224zm11.99 0v-10.07a4.88 4.88 0 0 0-.12-1.1 2.3 2.3 0 0 0-.4-.9 2 2 0 0 0-.79-.61 3.3 3.3 0 0 0-1.25-.21 2.73 2.73 0 0 0-1.56.39 2.6 2.6 0 0 0-.89 1 4.44 4.44 0 0 0-.42 1.38 11.19 11.19 0 0 0-.1 1.52v8.6h-2.37v-13.03c0-.51-.07-1-.1-1.52h2.5v1.88h.11a4 4 0 0 1 1.59-1.7 5 5 0 0 1 2.3-.46 4.86 4.86 0 0 1 1.92.33 2.71 2.71 0 0 1 1.19 1 4.17 4.17 0 0 1 .61 1.51 10.65 10.65 0 0 1 .17 1.95v10.07zm20.57-20.78h2.36v20.78h-2.36v-1.72h-.06a4.55 4.55 0 0 1-1.39 1.51 3.62 3.62 0 0 1-2 .5 6.3 6.3 0 0 1-1.71-.24 3.14 3.14 0 0 1-1.51-1 5.76 5.76 0 0 1-1.07-2.21 15.11 15.11 0 0 1-.4-3.83c0-.9 0-1.82.09-2.75a8.17 8.17 0 0 1 .54-2.52 4.19 4.19 0 0 1 1.44-1.83 4.65 4.65 0 0 1 2.74-.7 3.65 3.65 0 0 1 1.81.44 4.38 4.38 0 0 1 1.38 1.31h.09zm0 12.92q0-.72-.06-1.59a6 6 0 0 0-.33-1.64 3.21 3.21 0 0 0-.82-1.29 2.13 2.13 0 0 0-1.52-.51 2.75 2.75 0 0 0-1.53.37 2.34 2.34 0 0 0-.88 1.12A6.46 6.46 0 0 0 251 185c-.06.73-.08 1.58-.08 2.56v1.77a6 6 0 0 0 .33 1.73 3.23 3.23 0 0 0 .88 1.32 2.43 2.43 0 0 0 1.71.53 2.07 2.07 0 0 0 1.53-.56 3.28 3.28 0 0 0 .79-1.45 9.16 9.16 0 0 0 .29-2c.11-.77.12-1.51.12-2.24zm9.01 1.34a12.65 12.65 0 0 0 .2 2.47 4.17 4.17 0 0 0 .58 1.49 1.85 1.85 0 0 0 .92.71 3.67 3.67 0 0 0 1.24.19 2.27 2.27 0 0 0 1.06-.23 2.33 2.33 0 0 0 .78-.6 2.78 2.78 0 0 0 .49-.88 4.15 4.15 0 0 0 .2-1h2.59a4.44 4.44 0 0 1-1.39 3.57 5.62 5.62 0 0 1-3.67 1.12 9.43 9.43 0 0 1-2.17-.24 3.62 3.62 0 0 1-1.75-1 5.3 5.3 0 0 1-1.18-2.21 13.83 13.83 0 0 1-.43-3.86 26.18 26.18 0 0 1 .16-3 6.75 6.75 0 0 1 .71-2.47 4.17 4.17 0 0 1 1.66-1.67 6 6 0 0 1 3-.62 6.51 6.51 0 0 1 2.56.43 3.45 3.45 0 0 1 1.58 1.31 5.94 5.94 0 0 1 .81 2.2 19 19 0 0 1 .23 3.14V188zm5.67-1.79a12.08 12.08 0 0 0-.21-2.52 4.05 4.05 0 0 0-.59-1.44 1.65 1.65 0 0 0-.93-.64 4.36 4.36 0 0 0-1.17-.15 3.08 3.08 0 0 0-1.07.18 1.81 1.81 0 0 0-.87.69 4.3 4.3 0 0 0-.6 1.45 10.69 10.69 0 0 0-.23 2.43zm14.31 8.31v-10.07a4.88 4.88 0 0 0-.12-1.1 2.3 2.3 0 0 0-.4-.9 1.89 1.89 0 0 0-.79-.61 3.26 3.26 0 0 0-1.25-.21 2.77 2.77 0 0 0-1.56.39 2.6 2.6 0 0 0-.89 1 4.44 4.44 0 0 0-.42 1.38 13.07 13.07 0 0 0-.1 1.52v8.6h-2.36v-13.03c0-.51-.06-1-.1-1.52H280v1.88h.12a4 4 0 0 1 1.58-1.7 5 5 0 0 1 2.3-.46 4.86 4.86 0 0 1 2 .31 2.71 2.71 0 0 1 1.19 1 4.17 4.17 0 0 1 .61 1.51 10.65 10.65 0 0 1 .17 1.95v10.07zm20.38 0h-3.17l-6-20.78h2.88l4.74 18.26h.05l4.87-18.28H312zm12.58.29a9.28 9.28 0 0 1-2.16-.24 3.57 3.57 0 0 1-1.75-1 5.19 5.19 0 0 1-1.18-2.21 13.78 13.78 0 0 1-.44-3.86 28.65 28.65 0 0 1 .16-3 7 7 0 0 1 .72-2.47 4.17 4.17 0 0 1 1.66-1.67 7.54 7.54 0 0 1 6 0 4.14 4.14 0 0 1 1.65 1.67 7 7 0 0 1 .72 2.47 26.18 26.18 0 0 1 .16 3 14.22 14.22 0 0 1-.43 3.86 5.3 5.3 0 0 1-1.18 2.21 3.65 3.65 0 0 1-1.76 1 9.28 9.28 0 0 1-2.17.24zm0-1.93a3 3 0 0 0 1.51-.34 2.34 2.34 0 0 0 .94-1.1 6.19 6.19 0 0 0 .47-2 28.23 28.23 0 0 0 .13-3 11.47 11.47 0 0 0-.21-2.43 4 4 0 0 0-.62-1.47 2.07 2.07 0 0 0-1-.73 4 4 0 0 0-2.5 0 2.12 2.12 0 0 0-1 .73 4.19 4.19 0 0 0-.62 1.47 11.47 11.47 0 0 0-.21 2.43 28.23 28.23 0 0 0 .13 3 6.19 6.19 0 0 0 .47 2 2.4 2.4 0 0 0 .94 1.1 3 3 0 0 0 1.57.34zm11.72-10.71h.06a5.35 5.35 0 0 1 .79-1.32 2.73 2.73 0 0 1 1-.75 3.71 3.71 0 0 1 1.21-.33 14.14 14.14 0 0 1 1.54-.07v2.44h-.64a1.36 1.36 0 0 0-.3 0 1.83 1.83 0 0 0-.33 0 3.34 3.34 0 0 0-1.61.35 2.74 2.74 0 0 0-1 .89 3.37 3.37 0 0 0-.52 1.27 6.93 6.93 0 0 0-.14 1.43v8.58h-2.36V180h2.36zm16.49 8.21a4.79 4.79 0 0 1-.39 2 3.72 3.72 0 0 1-1.06 1.37 4.56 4.56 0 0 1-1.61.78 8.06 8.06 0 0 1-2 .24 5.69 5.69 0 0 1-3.67-1.07 4.27 4.27 0 0 1-1.29-3.61h2.67c0 .21 0 .47.05.79a2.5 2.5 0 0 0 .27.92 2 2 0 0 0 .72.77 2.57 2.57 0 0 0 1.38.31 2.91 2.91 0 0 0 1.79-.54 2 2 0 0 0 .72-1.67 1.42 1.42 0 0 0-.54-1.11 6.42 6.42 0 0 0-1.33-.9c-.54-.27-1.13-.55-1.76-.83a10.34 10.34 0 0 1-1.76-1 5.22 5.22 0 0 1-1.33-1.32 3.14 3.14 0 0 1-.54-1.86 4.76 4.76 0 0 1 .2-1.27 3.22 3.22 0 0 1 .77-1.29 4.13 4.13 0 0 1 1.54-1 6.58 6.58 0 0 1 2.5-.4 6.82 6.82 0 0 1 1.84.24 4.53 4.53 0 0 1 1.51.74 3 3 0 0 1 1 1.28 3.89 3.89 0 0 1 .26 1.85H344a2.3 2.3 0 0 0-.56-1.74 2.36 2.36 0 0 0-1.72-.59 2.48 2.48 0 0 0-1.59.51 1.7 1.7 0 0 0-.65 1.45 1.4 1.4 0 0 0 .53 1.09 6.47 6.47 0 0 0 1.34.87c.54.27 1.12.54 1.75.8a9.33 9.33 0 0 1 1.76 1 5.17 5.17 0 0 1 1.34 1.34 3.19 3.19 0 0 1 .53 1.85zm3.69-10.38v-2.79l2.36-1.06V180h3.16v1.79h-3.16v9.62a1.31 1.31 0 0 0 .23.67 1.54 1.54 0 0 0 .64.51 3.25 3.25 0 0 0 1.26.2h.4l.66-.09v1.82c-.38 0-.77.08-1.16.14a7.88 7.88 0 0 1-1.17.09 3.75 3.75 0 0 1-2.48-.67 2.4 2.4 0 0 1-.77-1.92v-10.39H348V180zm15.23 12.42h-.06a4 4 0 0 1-1.41 1.83 4.12 4.12 0 0 1-2.25.56 4.46 4.46 0 0 1-1.91-.36 3.18 3.18 0 0 1-1.23-1 4 4 0 0 1-.64-1.51A8.93 8.93 0 0 1 358 190a3.84 3.84 0 0 1 2.56-3.94 8.4 8.4 0 0 1 2.48-.52c.9-.06 1.76-.08 2.59-.06v-1.44a3.94 3.94 0 0 0-.26-1.29 2.13 2.13 0 0 0-.73-.94 2.52 2.52 0 0 0-1.46-.36 2.2 2.2 0 0 0-1.8.72 2.45 2.45 0 0 0-.47 1.87h-2.61a4.29 4.29 0 0 1 1.34-3.41 5.81 5.81 0 0 1 3.59-1 6.55 6.55 0 0 1 2.31.34A3.61 3.61 0 0 1 367 181a3.21 3.21 0 0 1 .75 1.38 6.26 6.26 0 0 1 .22 1.71v7c0 .57 0 1.15.07 1.74s.12 1.16.22 1.71h-2.59zm-.06-5.12h-1.77a5.67 5.67 0 0 0-1.71.28 3 3 0 0 0-1.29.85 2.67 2.67 0 0 0-.5 1.74 3.23 3.23 0 0 0 .55 1.88 1.94 1.94 0 0 0 1.72.8 3.12 3.12 0 0 0 1.11-.21 2.35 2.35 0 0 0 1-.82 4.83 4.83 0 0 0 .71-1.7 10.54 10.54 0 0 0 .18-2.82zm14.85 7.22v-10.07a5.54 5.54 0 0 0-.11-1.1 2.32 2.32 0 0 0-.41-.9 1.89 1.89 0 0 0-.79-.61 3.23 3.23 0 0 0-1.25-.21 2.72 2.72 0 0 0-1.55.39 2.55 2.55 0 0 0-.9 1 4.18 4.18 0 0 0-.41 1.38 11.19 11.19 0 0 0-.1 1.52v8.6h-2.36V183c0-.5 0-1-.05-1.51s-.06-1-.1-1.52h2.51v1.88h.08a4 4 0 0 1 1.58-1.7 5 5 0 0 1 2.31-.46 4.85 4.85 0 0 1 1.91.33 2.73 2.73 0 0 1 1.2 1 4.16 4.16 0 0 1 .6 1.51 9.83 9.83 0 0 1 .17 1.95v10.07zm14.19-20.78H397v20.78h-2.37v-1.72h-.05a4.57 4.57 0 0 1-1.4 1.51 3.59 3.59 0 0 1-1.94.5 6.19 6.19 0 0 1-1.71-.24 3.21 3.21 0 0 1-1.52-1 5.76 5.76 0 0 1-1.06-2.21 14.66 14.66 0 0 1-.4-3.83c0-.9 0-1.82.08-2.75a7.89 7.89 0 0 1 .55-2.52 4.19 4.19 0 0 1 1.44-1.83 4.59 4.59 0 0 1 2.73-.7 3.69 3.69 0 0 1 1.82.44 4.49 4.49 0 0 1 1.38 1.31h.08zm0 12.92c0-.48 0-1-.05-1.59a6 6 0 0 0-.33-1.64 3.44 3.44 0 0 0-.82-1.29 2.18 2.18 0 0 0-1.53-.51 2.8 2.8 0 0 0-1.53.37 2.32 2.32 0 0 0-.87 1.12 6.14 6.14 0 0 0-.39 1.85c-.06.73-.09 1.58-.09 2.56 0 .55 0 1.14.05 1.77a5.65 5.65 0 0 0 .32 1.73 3.44 3.44 0 0 0 .88 1.32 2.48 2.48 0 0 0 1.72.53 2 2 0 0 0 1.52-.56 3.19 3.19 0 0 0 .79-1.45 8.59 8.59 0 0 0 .29-2c.03-.74.04-1.48.04-2.21z" fill="#fff"/><path d="M233.78 122.41L241 114l18.86 19.24s2 6.22-1.9 7.65-5.48 0-5.48 0zM168.23 84.8a36.08 36.08 0 1 1 36.08 36.08 36.08 36.08 0 0 1-36.08-36.08zm36.2 27.59a27.34 27.34 0 1 0-27.34-27.34 27.34 27.34 0 0 0 27.34 27.34z" fill="#fdc62d"/><g data-name="Capa 1" fill="#fff"><circle cx="224.65" cy="85.05" r=".75"/><path d="M259.49 131.49l-25.66-25.65.51-.77a35.9 35.9 0 0 0 6-20 36.36 36.36 0 1 0-16.31 30.3l.77-.5 7.53 7.52 18.09 18.07a6.35 6.35 0 0 0 4.49 1.88 6.28 6.28 0 0 0 4.5-1.88 6.34 6.34 0 0 0 0-9zm-35-18.24a34.85 34.85 0 1 1 7.77-7.77 35.79 35.79 0 0 1-7.77 7.77m8.5 7.63l-6.93-6.88.95-.79a36.58 36.58 0 0 0 5.13-5.13l.79-1 6.93 6.93-.67.79a47.19 47.19 0 0 1-5.43 5.43zm25.45 18.55a4.86 4.86 0 0 1-6.89 0l-17.49-17.49.91-.78a48.53 48.53 0 0 0 5.17-5.17l.79-.92 17.49 17.49a4.83 4.83 0 0 1 1.42 3.45 4.71 4.71 0 0 1-1.4 3.42z"/><path d="M204.05 56.21a28.84 28.84 0 1 0 28.84 28.84 28.88 28.88 0 0 0-28.84-28.84zm0 56.18a27.34 27.34 0 1 1 27.35-27.34 27.37 27.37 0 0 1-27.35 27.34z"/><path d="M224 77.41a21.35 21.35 0 0 0-19.95-13.71.75.75 0 0 0 0 1.5A20 20 0 0 1 222.59 78a.79.79 0 0 0 .7.49.58.58 0 0 0 .26-.06.76.76 0 0 0 .45-1.02z"/></g></svg>