<svg xmlns="http://www.w3.org/2000/svg" viewBox="0 0 433 236"><path d="M233.78 122.41L241 114l18.86 19.24s2 6.22-1.9 7.65-5.48 0-5.48 0zM168.23 84.8a36.08 36.08 0 1 1 36.08 36.08 36.08 36.08 0 0 1-36.08-36.08zm36.2 27.59a27.34 27.34 0 1 0-27.34-27.34 27.34 27.34 0 0 0 27.34 27.34z" fill="#fdc62d"/><circle cx="224.65" cy="85.05" r=".75" fill="#fff"/><path d="M259.49 131.49l-25.66-25.65.51-.77a35.9 35.9 0 0 0 6-20 36.36 36.36 0 1 0-16.31 30.3l.77-.5 7.53 7.52 18.09 18.07a6.35 6.35 0 0 0 4.49 1.88 6.28 6.28 0 0 0 4.5-1.88 6.34 6.34 0 0 0 0-9zm-35-18.24a34.85 34.85 0 1 1 7.77-7.77 35.79 35.79 0 0 1-7.77 7.77m8.5 7.63l-6.93-6.88.95-.79a36.58 36.58 0 0 0 5.13-5.13l.79-1 6.93 6.93-.67.79a47.19 47.19 0 0 1-5.43 5.43zm25.45 18.55a4.86 4.86 0 0 1-6.89 0l-17.49-17.49.91-.78a48.53 48.53 0 0 0 5.17-5.17l.79-.92 17.49 17.49a4.83 4.83 0 0 1 1.42 3.45 4.71 4.71 0 0 1-1.4 3.42z" fill="#fff"/><path d="M204.05 56.21a28.84 28.84 0 1 0 28.84 28.84 28.88 28.88 0 0 0-28.84-28.84zm0 56.18a27.34 27.34 0 1 1 27.35-27.34 27.37 27.37 0 0 1-27.35 27.34z" fill="#fff"/><path d="M224 77.41a21.35 21.35 0 0 0-19.95-13.71.75.75 0 0 0 0 1.5A20 20 0 0 1 222.59 78a.79.79 0 0 0 .7.49.58.58 0 0 0 .26-.06.76.76 0 0 0 .45-1.02z" fill="#fff"/></svg>