<svg xmlns="http://www.w3.org/2000/svg" viewBox="0 0 160 160"><path d="M97.28 106.08l7.2-8.44 18.86 19.24s2 6.22-1.9 7.64-5.48 0-5.48 0zM31.73 68.46a36.08 36.08 0 1 1 36.08 36.08 36.07 36.07 0 0 1-36.08-36.08zm36.2 27.6a27.35 27.35 0 1 0-27.34-27.34 27.34 27.34 0 0 0 27.34 27.34z" fill="#fdc62d"/><circle cx="88.15" cy="68.72" r=".75" fill="#fff"/><path d="M123 115.16L97.33 89.5l.51-.76a35.9 35.9 0 0 0 6-20A36.36 36.36 0 1 0 87.57 99l.77-.51 7.53 7.51L114 124.15a6.34 6.34 0 0 0 4.49 1.87 6.27 6.27 0 0 0 4.5-1.87 6.34 6.34 0 0 0 0-9zM88 96.92a34.85 34.85 0 1 1 7.77-7.77A35.79 35.79 0 0 1 88 96.92m8.5 7.62l-6.93-6.93 1-.78a36.58 36.58 0 0 0 5.13-5.13l.79-1 6.93 6.93-.67.79a48 48 0 0 1-5.43 5.43zm25.45 18.56a4.89 4.89 0 0 1-6.89 0l-17.5-17.49.91-.79a46.74 46.74 0 0 0 5.17-5.17l.79-.91 17.49 17.49a4.81 4.81 0 0 1 1.42 3.44 4.73 4.73 0 0 1-1.4 3.43z" fill="#fff"/><path d="M67.55 39.88a28.84 28.84 0 1 0 28.84 28.84 28.88 28.88 0 0 0-28.84-28.84zm0 56.18A27.35 27.35 0 1 1 94.9 68.72a27.38 27.38 0 0 1-27.35 27.34z" fill="#fff"/><path d="M87.5 61.08a21.35 21.35 0 0 0-20-13.71.75.75 0 0 0 0 1.5 20 20 0 0 1 18.59 12.75.79.79 0 0 0 .7.49.58.58 0 0 0 .26-.06.76.76 0 0 0 .45-.97z" fill="#fff"/></svg>