<svg xmlns="http://www.w3.org/2000/svg" viewBox="0 0 433 236"><path fill="#fdc62d" d="M214.35 148.81V87.46h20.83v48.67l-20.83 12.68z"/><path fill="#fdc62d" d="M214.74 148.81V87.46H193.9v48.67l20.84 12.68z"/><path d="M224.59 110.88a1.27 1.27 0 0 0-1.74 0L210.77 123l-4.54-4.54a1.23 1.23 0 0 0-1.74 0 1.27 1.27 0 0 0-.36.88 1.23 1.23 0 0 0 .36.87l5.41 5.41a1.27 1.27 0 0 0 1.74 0l13-13a1.24 1.24 0 0 0-.05-1.74z" fill="#fff"/><path d="M235.38 86.26H193.7a1.23 1.23 0 0 0-1.23 1.23v49a1.24 1.24 0 0 0 .6 1.06L213.91 150a1.21 1.21 0 0 0 1.27 0L236 137.52a1.24 1.24 0 0 0 .6-1.06v-49a1.23 1.23 0 0 0-1.22-1.2zm-1.24 49.5l-.16.1-19.44 11.67-19.6-11.77v-47h39.2zm1.24.7z" fill="#fff"/></svg>