<svg data-name="Benefits MKK" xmlns="http://www.w3.org/2000/svg" viewBox="0 0 433 236"><path d="M128 197.55h-3.2l-6-20.78h2.88l4.75 18.28h.06l4.86-18.28H134zm9.72-6.5a12.65 12.65 0 0 0 .2 2.47 4 4 0 0 0 .58 1.48 1.82 1.82 0 0 0 .92.72 3.71 3.71 0 0 0 1.24.19 2.36 2.36 0 0 0 1.06-.23 2.33 2.33 0 0 0 .78-.6 2.7 2.7 0 0 0 .49-.88 3.75 3.75 0 0 0 .2-1h2.59a4.44 4.44 0 0 1-1.39 3.57 5.62 5.62 0 0 1-3.67 1.12 9.28 9.28 0 0 1-2.16-.24 3.65 3.65 0 0 1-1.76-1 5.3 5.3 0 0 1-1.18-2.21 13.83 13.83 0 0 1-.43-3.86 26.18 26.18 0 0 1 .16-3 6.56 6.56 0 0 1 .72-2.47 4 4 0 0 1 1.65-1.67 6 6 0 0 1 3-.62 6.51 6.51 0 0 1 2.56.43 3.45 3.45 0 0 1 1.58 1.31 5.77 5.77 0 0 1 .81 2.2 19 19 0 0 1 .23 3.14v1.24zm5.67-1.79a12.08 12.08 0 0 0-.21-2.52 4.05 4.05 0 0 0-.59-1.44 1.73 1.73 0 0 0-.92-.65 5 5 0 0 0-1.18-.14 3.33 3.33 0 0 0-1.07.17 1.83 1.83 0 0 0-.86.7 4.29 4.29 0 0 0-.61 1.45 10.63 10.63 0 0 0-.23 2.43zm8.87-4.06h.06a5.67 5.67 0 0 1 .79-1.32 2.82 2.82 0 0 1 .95-.75 3.71 3.71 0 0 1 1.21-.33 14.14 14.14 0 0 1 1.54-.07v2.44h-.63l-.31-.05h-.33a3.23 3.23 0 0 0-1.61.35 2.82 2.82 0 0 0-1 .89 3.39 3.39 0 0 0-.52 1.26 7.81 7.81 0 0 0-.14 1.44v8.58h-2.37V183h2.36zm7.4-2.2v-2.79l2.36-1.06V183h3.16v1.79H162v9.61a1.35 1.35 0 0 0 .23.68 1.45 1.45 0 0 0 .64.5 3 3 0 0 0 1.26.21h.4l.66-.09v1.81l-1.16.15a7.85 7.85 0 0 1-1.17.08 3.81 3.81 0 0 1-2.48-.66 2.41 2.41 0 0 1-.77-1.93V184.8h-2.39V183zm10.19 2.2h.06a5.67 5.67 0 0 1 .79-1.32 2.82 2.82 0 0 1 1-.75 3.71 3.71 0 0 1 1.21-.33 14.14 14.14 0 0 1 1.54-.07v2.44h-.64l-.3-.05h-.33a3.23 3.23 0 0 0-1.61.35 2.82 2.82 0 0 0-1 .89 3.39 3.39 0 0 0-.52 1.26 7.81 7.81 0 0 0-.14 1.44v8.58h-2.36V183h2.36zm14.62 10.25h-.05a4 4 0 0 1-1.42 1.83 4.06 4.06 0 0 1-2.24.56 4.43 4.43 0 0 1-1.91-.36 3.18 3.18 0 0 1-1.23-1A4 4 0 0 1 177 195a9.64 9.64 0 0 1-.18-1.92 4.11 4.11 0 0 1 .72-2.57 4.05 4.05 0 0 1 1.84-1.37 8.34 8.34 0 0 1 2.47-.52c.91-.06 1.77-.08 2.6-.06v-1.44a3.94 3.94 0 0 0-.26-1.29 2.08 2.08 0 0 0-.74-.94 2.46 2.46 0 0 0-1.45-.36 2.18 2.18 0 0 0-1.8.72 2.5 2.5 0 0 0-.48 1.87h-2.56a4.25 4.25 0 0 1 1.34-3.41 5.81 5.81 0 0 1 3.59-1 6.55 6.55 0 0 1 2.31.34 3.51 3.51 0 0 1 1.44.94 3.21 3.21 0 0 1 .75 1.38 6.67 6.67 0 0 1 .22 1.71v7c0 .57 0 1.15.07 1.74s.12 1.16.21 1.71h-2.59zm-.05-5.12h-1.78a5.78 5.78 0 0 0-1.71.28 2.92 2.92 0 0 0-1.28.85 2.62 2.62 0 0 0-.5 1.74 3.26 3.26 0 0 0 .54 1.87 1.94 1.94 0 0 0 1.73.81 3.16 3.16 0 0 0 1.11-.21 2.36 2.36 0 0 0 1-.83 4.7 4.7 0 0 0 .7-1.69 10.48 10.48 0 0 0 .19-2.82zm14.73-7.33h2.36v11.52c0 .5 0 1 .05 1.51s.06 1 .1 1.51h-2.51v-1.74h-.08a3.8 3.8 0 0 1-1.56 1.52 4.42 4.42 0 0 1-2.13.52 4.08 4.08 0 0 1-2.9-.94 3.59 3.59 0 0 1-1-2.8V183h2.36v10.1a3.5 3.5 0 0 0 .6 2.14 2.19 2.19 0 0 0 1.87.81 3 3 0 0 0 1-.19 2.42 2.42 0 0 0 .92-.59 3.29 3.29 0 0 0 .68-1 4 4 0 0 0 .27-1.56zm8.93 8.05a12.65 12.65 0 0 0 .2 2.47 3.87 3.87 0 0 0 .58 1.48 1.78 1.78 0 0 0 .92.72 3.61 3.61 0 0 0 1.23.19 2.41 2.41 0 0 0 1.07-.23 2.33 2.33 0 0 0 .78-.6 2.9 2.9 0 0 0 .49-.88 4.15 4.15 0 0 0 .2-1h2.59a4.44 4.44 0 0 1-1.4 3.57 5.59 5.59 0 0 1-3.67 1.12 9.28 9.28 0 0 1-2.16-.24 3.62 3.62 0 0 1-1.75-1 5.19 5.19 0 0 1-1.18-2.21 13.83 13.83 0 0 1-.43-3.86 28.74 28.74 0 0 1 .15-3 7 7 0 0 1 .72-2.47 4.11 4.11 0 0 1 1.66-1.67 6 6 0 0 1 3-.62 6.57 6.57 0 0 1 2.57.43 3.5 3.5 0 0 1 1.58 1.31 5.77 5.77 0 0 1 .8 2.2 17.92 17.92 0 0 1 .23 3.14v1.24zm5.67-1.79a11.34 11.34 0 0 0-.22-2.52 3.88 3.88 0 0 0-.59-1.44 1.69 1.69 0 0 0-.92-.65 4.89 4.89 0 0 0-1.18-.14 3.27 3.27 0 0 0-1.06.17 1.85 1.85 0 0 0-.87.7 4.11 4.11 0 0 0-.6 1.45 10.09 10.09 0 0 0-.23 2.43zm14.31 8.29v-10.07a4.88 4.88 0 0 0-.12-1.1 2.3 2.3 0 0 0-.4-.9 2 2 0 0 0-.79-.61 3.29 3.29 0 0 0-1.25-.22 2.49 2.49 0 0 0-2.45 1.4 4.36 4.36 0 0 0-.42 1.38 11.15 11.15 0 0 0-.1 1.51v8.61h-2.36v-13.06c0-.51-.07-1-.1-1.52h2.5v1.88h.12a3.93 3.93 0 0 1 1.58-1.7 5 5 0 0 1 2.3-.46 4.86 4.86 0 0 1 1.92.33 2.76 2.76 0 0 1 1.19 1 4.1 4.1 0 0 1 .61 1.51 10.65 10.65 0 0 1 .17 1.95v10.07zm15.86-4.14a4.82 4.82 0 0 1-.39 2 3.72 3.72 0 0 1-1.06 1.37 4.61 4.61 0 0 1-1.62.78 8 8 0 0 1-2 .24 5.68 5.68 0 0 1-3.71-1.11 4.27 4.27 0 0 1-1.3-3.61h2.68v.79a2.22 2.22 0 0 0 .27.92 1.93 1.93 0 0 0 .72.76 2.43 2.43 0 0 0 1.38.32 2.82 2.82 0 0 0 1.78-.55 2 2 0 0 0 .72-1.67 1.4 1.4 0 0 0-.53-1.1 6.24 6.24 0 0 0-1.34-.9c-.53-.27-1.12-.55-1.75-.83a10.65 10.65 0 0 1-1.76-1 5.43 5.43 0 0 1-1.34-1.32 3.21 3.21 0 0 1-.53-1.86 4.7 4.7 0 0 1 .2-1.27 3.31 3.31 0 0 1 .76-1.29 4.3 4.3 0 0 1 1.54-1 6.67 6.67 0 0 1 2.51-.4 6.87 6.87 0 0 1 1.85.32 4.35 4.35 0 0 1 1.51.74 3.12 3.12 0 0 1 1 1.28 3.87 3.87 0 0 1 .26 1.85h-2.63a2.26 2.26 0 0 0-.56-1.74 2.32 2.32 0 0 0-1.71-.59 2.51 2.51 0 0 0-1.6.51 1.73 1.73 0 0 0-.65 1.45 1.38 1.38 0 0 0 .54 1.09 6.21 6.21 0 0 0 1.34.87c.53.27 1.12.53 1.75.8a9.33 9.33 0 0 1 1.76 1 5.17 5.17 0 0 1 1.34 1.34 3.24 3.24 0 0 1 .57 1.81zm5.79 4.14h-2.37v-20.78h2.37v12.52l4.49-6.29h2.87l-4.83 6.25 5.7 8.29h-3l-5.19-8.15zM267.9 183h2.36v13.03c0 .51.07 1 .1 1.51h-2.5v-1.74h-.09a3.78 3.78 0 0 1-1.55 1.52 4.45 4.45 0 0 1-2.13.52 4.09 4.09 0 0 1-2.91-.94 3.63 3.63 0 0 1-1-2.8V183h2.36v10.1a3.44 3.44 0 0 0 .61 2.14 2.17 2.17 0 0 0 1.87.81 3 3 0 0 0 1-.19 2.59 2.59 0 0 0 .92-.59 3.47 3.47 0 0 0 .68-1 4 4 0 0 0 .27-1.56zm8.92 14.55h-2.36v-20.78h2.36zm4.35-14.55v-2.79l2.36-1.06V183h3.17v1.79h-3.17v9.61a1.35 1.35 0 0 0 .23.68 1.43 1.43 0 0 0 .65.5 3 3 0 0 0 1.25.21h.4l.66-.09v1.81l-1.16.15a7.67 7.67 0 0 1-1.17.08 3.76 3.76 0 0 1-2.47-.66 2.38 2.38 0 0 1-.78-1.93V184.8h-2.39V183zm15.52 0h2.36v13.03c0 .51.06 1 .1 1.51h-2.5v-1.74h-.09a3.78 3.78 0 0 1-1.55 1.52 4.48 4.48 0 0 1-2.14.52 4.08 4.08 0 0 1-2.9-.94 3.59 3.59 0 0 1-1-2.8V183h2.36v10.1a3.5 3.5 0 0 0 .6 2.14 2.2 2.2 0 0 0 1.88.81 3.08 3.08 0 0 0 1-.19 2.59 2.59 0 0 0 .92-.59 3.46 3.46 0 0 0 .67-1 4 4 0 0 0 .28-1.56zm9.06 2.2h.06a6 6 0 0 1 .79-1.32 2.92 2.92 0 0 1 .95-.75 3.78 3.78 0 0 1 1.21-.33 14.26 14.26 0 0 1 1.54-.07v2.44h-.63l-.3-.05H309a3.27 3.27 0 0 0-1.62.35 2.79 2.79 0 0 0-1 .89 3.23 3.23 0 0 0-.52 1.26 7 7 0 0 0-.15 1.44v8.58h-2.36V183h2.36z" fill="#fff"/><path fill="#fdc62d" d="M214.35 148.81V87.46h20.83v48.67l-20.83 12.68z"/><path fill="#fdc62d" d="M214.74 148.81V87.46H193.9v48.67l20.84 12.68z"/><path d="M224.59 110.88a1.27 1.27 0 0 0-1.74 0L210.77 123l-4.54-4.54a1.23 1.23 0 0 0-1.74 0 1.27 1.27 0 0 0-.36.88 1.23 1.23 0 0 0 .36.87l5.41 5.41a1.27 1.27 0 0 0 1.74 0l13-13a1.24 1.24 0 0 0-.05-1.74z" fill="#fff"/><path d="M235.38 86.26H193.7a1.23 1.23 0 0 0-1.23 1.23v49a1.24 1.24 0 0 0 .6 1.06L213.91 150a1.21 1.21 0 0 0 1.27 0L236 137.52a1.24 1.24 0 0 0 .6-1.06v-49a1.23 1.23 0 0 0-1.22-1.2zm-1.24 49.5l-.16.1-19.44 11.67-19.6-11.77v-47h39.2zm1.24.7z" fill="#fff"/></svg>