<svg xmlns="http://www.w3.org/2000/svg" viewBox="0 0 160 160"><path fill="#fdc62d" d="M77.85 108.02V46.67h20.83v48.67l-20.83 12.68z"/><path fill="#fdc62d" d="M78.23 108.02V46.67H57.4v48.67l20.83 12.68z"/><path d="M88.09 70.09a1.27 1.27 0 0 0-1.74 0L74.27 82.17l-4.54-4.53a1.21 1.21 0 0 0-1.74 0 1.23 1.23 0 0 0 0 1.74l5.41 5.41a1.27 1.27 0 0 0 1.74 0l13-13a1.24 1.24 0 0 0-.05-1.7z" fill="#fff"/><path d="M98.88 45.47H57.2a1.24 1.24 0 0 0-1.2 1.24v49a1.24 1.24 0 0 0 .6 1.06l20.84 12.5a1.21 1.21 0 0 0 1.27 0l20.83-12.5a1.24 1.24 0 0 0 .6-1.06v-49a1.24 1.24 0 0 0-1.26-1.24zM97.64 95l-.16.1L78 106.74 58.44 95V48h39.2zm1.24.7z" fill="#fff"/></svg>