<svg id="Benefits_MKK" data-name="Benefits MKK" xmlns="http://www.w3.org/2000/svg" viewBox="0 0 433 236"><defs><style>.cls-1{fill:#fff;}.cls-2{fill:#fdc62d;}</style></defs><title>Benefits_Schuetze</title><path class="cls-1" d="M134.64,173.48h2.82l3.92,18h.06l4.17-18H149l3.77,18h.05l4.24-18h2.76l-5.5,20.79h-3.22l-3.95-18h-.05l-4.21,18h-3.22Z"/><path class="cls-1" d="M163.57,187.76a11.92,11.92,0,0,0,.21,2.48,3.94,3.94,0,0,0,.57,1.48,1.87,1.87,0,0,0,.92.72,3.71,3.71,0,0,0,1.24.19,2.36,2.36,0,0,0,1.06-.23,2.49,2.49,0,0,0,.78-.61,2.6,2.6,0,0,0,.49-.88,3.62,3.62,0,0,0,.2-1h2.59a4.42,4.42,0,0,1-1.39,3.57,5.61,5.61,0,0,1-3.67,1.13,9.27,9.27,0,0,1-2.16-.25,3.55,3.55,0,0,1-1.76-1,5.41,5.41,0,0,1-1.18-2.22,13.76,13.76,0,0,1-.43-3.85,26.18,26.18,0,0,1,.16-3,6.61,6.61,0,0,1,.72-2.48,4.08,4.08,0,0,1,1.65-1.67,6.15,6.15,0,0,1,3-.62,6.7,6.7,0,0,1,2.56.43,3.51,3.51,0,0,1,1.58,1.31,5.66,5.66,0,0,1,.81,2.21,18.82,18.82,0,0,1,.23,3.13v1.24Zm5.68-1.78a11.84,11.84,0,0,0-.22-2.52,4,4,0,0,0-.59-1.44,1.68,1.68,0,0,0-.92-.65,5,5,0,0,0-1.18-.14,3.33,3.33,0,0,0-1.07.17,1.92,1.92,0,0,0-.86.69,4.36,4.36,0,0,0-.61,1.46,10.63,10.63,0,0,0-.23,2.43Z"/><path class="cls-1" d="M175.46,173.48h2.65V176h-2.65ZM178,194.27h-2.36V179.73H178Z"/><path class="cls-1" d="M182.31,179.73v-2.79l2.36-1.07v3.86h3.17v1.79h-3.17v8.89q0,.34,0,.72a1.45,1.45,0,0,0,.23.68,1.49,1.49,0,0,0,.65.5,3.23,3.23,0,0,0,1.25.2l.41,0,.66-.08v1.81c-.39,0-.77.09-1.17.15a9.17,9.17,0,0,1-1.16.08,3.79,3.79,0,0,1-2.48-.66,2.38,2.38,0,0,1-.78-1.93V181.52h-2.39v-1.79Z"/><path class="cls-1" d="M192.36,187.76a12.76,12.76,0,0,0,.2,2.48,4.11,4.11,0,0,0,.58,1.48,1.83,1.83,0,0,0,.92.72,3.67,3.67,0,0,0,1.24.19,2.39,2.39,0,0,0,1.06-.23,2.49,2.49,0,0,0,.78-.61,2.78,2.78,0,0,0,.49-.88,4,4,0,0,0,.2-1h2.59a4.4,4.4,0,0,1-1.4,3.57,5.59,5.59,0,0,1-3.67,1.13,9.4,9.4,0,0,1-2.16-.25,3.52,3.52,0,0,1-1.75-1,5.41,5.41,0,0,1-1.18-2.22,13.76,13.76,0,0,1-.43-3.85,26.18,26.18,0,0,1,.16-3,6.8,6.8,0,0,1,.71-2.48,4.17,4.17,0,0,1,1.66-1.67,6.13,6.13,0,0,1,3-.62,6.76,6.76,0,0,1,2.57.43,3.51,3.51,0,0,1,1.58,1.31,6,6,0,0,1,.81,2.21,18.82,18.82,0,0,1,.23,3.13v1.24ZM198,186a12,12,0,0,0-.21-2.52,4.16,4.16,0,0,0-.59-1.44,1.67,1.67,0,0,0-.93-.65,4.83,4.83,0,0,0-1.18-.14,3.27,3.27,0,0,0-1.06.17,1.94,1.94,0,0,0-.87.69,4.37,4.37,0,0,0-.6,1.46,10.63,10.63,0,0,0-.23,2.43Z"/><path class="cls-1" d="M206.9,181.92H207a5.55,5.55,0,0,1,.79-1.33,3.09,3.09,0,0,1,.95-.75,3.71,3.71,0,0,1,1.21-.33c.45,0,1-.07,1.54-.07v2.45l-.32,0-.32,0-.3,0h-.33a3.34,3.34,0,0,0-1.61.34,2.92,2.92,0,0,0-1,.89,3.51,3.51,0,0,0-.52,1.27,7.81,7.81,0,0,0-.14,1.44v8.58h-2.36V179.73h2.36Z"/><path class="cls-1" d="M216.6,194.27h-2.36V173.48h2.36v7.72h.09a4.27,4.27,0,0,1,1.38-1.31,3.55,3.55,0,0,1,1.81-.45,4.65,4.65,0,0,1,2.74.71,4.1,4.1,0,0,1,1.43,1.83,7.77,7.77,0,0,1,.55,2.51c.06.94.09,1.85.09,2.75a15.05,15.05,0,0,1-.4,3.83,5.89,5.89,0,0,1-1.07,2.22,3,3,0,0,1-1.51,1,6.32,6.32,0,0,1-1.71.25,3.54,3.54,0,0,1-1.95-.51,4.35,4.35,0,0,1-1.39-1.51h-.06Zm0-7.86v1.91a8.76,8.76,0,0,0,.23,2,3.89,3.89,0,0,0,.78,1.62,2,2,0,0,0,1.64.66,2.44,2.44,0,0,0,1.71-.54,3.2,3.2,0,0,0,.88-1.32,5.91,5.91,0,0,0,.33-1.73c0-.62,0-1.21,0-1.77,0-1,0-1.83-.1-2.56a6.36,6.36,0,0,0-.4-1.84,2.32,2.32,0,0,0-.86-1.12,2.71,2.71,0,0,0-1.52-.38,2.09,2.09,0,0,0-1.52.52,3.11,3.11,0,0,0-.82,1.28,5.83,5.83,0,0,0-.33,1.64C216.62,185.4,216.6,185.93,216.6,186.41Z"/><path class="cls-1" d="M228.23,173.48h2.65V176h-2.65Zm2.5,20.79h-2.36V179.73h2.36Z"/><path class="cls-1" d="M237.12,194.27h-2.36V173.48h2.36Z"/><path class="cls-1" d="M248.9,173.48h2.36v20.79H248.9v-1.73h-.06a4.45,4.45,0,0,1-1.39,1.51,3.54,3.54,0,0,1-1.95.51,6.26,6.26,0,0,1-1.71-.25,3,3,0,0,1-1.51-1,5.89,5.89,0,0,1-1.07-2.22,14.61,14.61,0,0,1-.4-3.83c0-.9,0-1.81.08-2.75a8,8,0,0,1,.55-2.51,4.19,4.19,0,0,1,1.44-1.83,4.63,4.63,0,0,1,2.74-.71,3.55,3.55,0,0,1,1.81.45,4.27,4.27,0,0,1,1.38,1.31h.09Zm0,12.93c0-.48,0-1-.06-1.6a6.2,6.2,0,0,0-.33-1.64,3.21,3.21,0,0,0-.82-1.28,2.12,2.12,0,0,0-1.53-.52,2.74,2.74,0,0,0-1.52.38,2.24,2.24,0,0,0-.88,1.12,6.38,6.38,0,0,0-.39,1.84c-.06.73-.09,1.58-.09,2.56,0,.56,0,1.15.05,1.77a5.91,5.91,0,0,0,.33,1.73,3.11,3.11,0,0,0,.88,1.32,2.44,2.44,0,0,0,1.71.54,2.07,2.07,0,0,0,1.53-.56,3.42,3.42,0,0,0,.79-1.46,8.54,8.54,0,0,0,.28-2C248.88,187.87,248.9,187.14,248.9,186.41Z"/><path class="cls-1" d="M263.38,179.73h2.36v11.52c0,.49,0,1,0,1.51s.06,1,.1,1.51h-2.5v-1.76h-.09a3.87,3.87,0,0,1-1.55,1.53,4.56,4.56,0,0,1-2.13.52,4.14,4.14,0,0,1-2.91-.94,3.65,3.65,0,0,1-1-2.81V179.73h2.36v10.1a3.43,3.43,0,0,0,.61,2.13,2.17,2.17,0,0,0,1.87.81,2.83,2.83,0,0,0,1-.19,2.46,2.46,0,0,0,.92-.59,3.35,3.35,0,0,0,.68-1,4,4,0,0,0,.27-1.55Z"/><path class="cls-1" d="M277.89,194.27V184.19a4.79,4.79,0,0,0-.12-1.09,2.28,2.28,0,0,0-.4-.91,1.85,1.85,0,0,0-.79-.6,3.11,3.11,0,0,0-1.25-.22,2.75,2.75,0,0,0-1.56.39,2.63,2.63,0,0,0-.89,1,4.28,4.28,0,0,0-.42,1.38,11,11,0,0,0-.1,1.51v8.61H270V182.75c0-.5,0-1,0-1.51s-.07-1-.1-1.51h2.5v1.87h.12a4,4,0,0,1,1.58-1.7,5.08,5.08,0,0,1,2.3-.46,4.86,4.86,0,0,1,1.92.33,2.78,2.78,0,0,1,1.19,1,3.86,3.86,0,0,1,.6,1.51,9.7,9.7,0,0,1,.18,1.94v10.08Z"/><path class="cls-1" d="M292.08,179.73h2.36v16a4.54,4.54,0,0,1-.39,2A3.06,3.06,0,0,1,293,199a4.64,4.64,0,0,1-1.69.61,12.09,12.09,0,0,1-2.18.18,6.61,6.61,0,0,1-1.75-.23,4.26,4.26,0,0,1-1.43-.71,3.2,3.2,0,0,1-1-1.21,3.34,3.34,0,0,1-.26-1.74h2.65a2.07,2.07,0,0,0,.63,1.55,2.26,2.26,0,0,0,1.59.55,2.45,2.45,0,0,0,1.88-.69,2.54,2.54,0,0,0,.65-1.81v-3H292a3.07,3.07,0,0,1-1.35,1.34,3.83,3.83,0,0,1-1.84.48,4.22,4.22,0,0,1-2.39-.61A4,4,0,0,1,285,192a7.69,7.69,0,0,1-.71-2.44,24,24,0,0,1-.18-3,11.44,11.44,0,0,1,.54-3.93,5.89,5.89,0,0,1,1.29-2.13,3.25,3.25,0,0,1,1.51-.88,6.24,6.24,0,0,1,1.21-.17,3.94,3.94,0,0,1,2,.51,3.27,3.27,0,0,1,1.37,1.57h.06Zm.06,7.2q0-.81,0-1.77a7.23,7.23,0,0,0-.27-1.8A3.19,3.19,0,0,0,291,182a2.34,2.34,0,0,0-1.69-.56,2.19,2.19,0,0,0-1.57.53,3.09,3.09,0,0,0-.82,1.33,6.5,6.5,0,0,0-.32,1.68c0,.6-.06,1.13-.06,1.61a17.26,17.26,0,0,0,.19,2.87,5.14,5.14,0,0,0,.56,1.75,2.14,2.14,0,0,0,.89.9,2.8,2.8,0,0,0,1.18.24,2.22,2.22,0,0,0,1.63-.56,3.26,3.26,0,0,0,.82-1.38,6.68,6.68,0,0,0,.29-1.76Q292.14,187.68,292.14,186.93Z"/><path class="cls-2" d="M169.42,97.68h24V80.37H214.2V73.86H172.92s-3.51,2.76-3.5,5.24S169.42,97.68,169.42,97.68Z"/><path class="cls-2" d="M245.94,52.87v8.05h8.48s-.7,9.35-8.4,9.09-8.83-7.59-9.09-10.15S243.05,51.21,245.94,52.87Z"/><path class="cls-2" d="M236.93,147h17.49s1.2-11.82,0-13.19-3.37-4.63-7-4.63-10.5,1.54-10.49,5.83S236.93,147,236.93,147Z"/><path class="cls-2" d="M207.16,147H189.67s0-16.45,4.18-16.79,11.56-2.23,13.31,2.91S207.16,147,207.16,147Z"/><path class="cls-1" d="M181.32,69.67a8.4,8.4,0,1,0-8.4-8.4A8.41,8.41,0,0,0,181.32,69.67Zm0-14a5.59,5.59,0,1,1-5.59,5.59A5.6,5.6,0,0,1,181.32,55.68Z"/><path class="cls-1" d="M246,112.32a6.65,6.65,0,1,0,6.65,6.65A6.66,6.66,0,0,0,246,112.32Zm0,10.49a3.84,3.84,0,1,1,3.84-3.84A3.84,3.84,0,0,1,246,122.81Z"/><path class="cls-1" d="M247.76,128.06h-3.49a8.41,8.41,0,0,0-8.4,8.4v11.9h20.3v-11.9A8.43,8.43,0,0,0,247.76,128.06Zm5.59,17.48H238.68v-9.08a5.6,5.6,0,0,1,5.59-5.59h3.49a5.59,5.59,0,0,1,5.59,5.59Z"/><path class="cls-1" d="M229.94,119a6.66,6.66,0,1,0-6.66,6.65A6.66,6.66,0,0,0,229.94,119Zm-6.66,3.84a3.84,3.84,0,1,1,3.84-3.84A3.85,3.85,0,0,1,223.28,122.81Z"/><path class="cls-1" d="M225,128.06h-3.49a8.41,8.41,0,0,0-8.4,8.4v11.9h20.29v-11.9A8.41,8.41,0,0,0,225,128.06Zm5.59,17.48H216v-9.08a5.59,5.59,0,0,1,5.59-5.59H225a5.6,5.6,0,0,1,5.59,5.59Z"/><path class="cls-1" d="M198.8,125.62a6.65,6.65,0,1,0-6.65-6.65A6.66,6.66,0,0,0,198.8,125.62Zm0-10.49A3.84,3.84,0,1,1,195,119,3.84,3.84,0,0,1,198.8,115.13Z"/><path class="cls-1" d="M200.55,128.06h-3.49a8.41,8.41,0,0,0-8.4,8.4v11.9H209v-11.9A8.41,8.41,0,0,0,200.55,128.06Zm5.59,17.48H191.47v-9.08a5.59,5.59,0,0,1,5.59-5.59h3.49a5.6,5.6,0,0,1,5.59,5.59Z"/><path class="cls-1" d="M176.07,125.62a6.65,6.65,0,1,0-6.65-6.65A6.65,6.65,0,0,0,176.07,125.62Zm0-10.49a3.84,3.84,0,1,1-3.84,3.84A3.84,3.84,0,0,1,176.07,115.13Z"/><path class="cls-1" d="M177.82,128.06h-3.5a8.42,8.42,0,0,0-8.4,8.4v11.9h20.3v-11.9A8.41,8.41,0,0,0,177.82,128.06Zm5.59,17.48H168.74v-9.08a5.59,5.59,0,0,1,5.58-5.59h3.5a5.6,5.6,0,0,1,5.59,5.59Z"/><path class="cls-1" d="M167.67,80.5V99.39H195V81.91h21V72.1H176.07A8.44,8.44,0,0,0,167.67,80.5Zm45.47-1.4h-21V96.58H170.48V80.5a5.6,5.6,0,0,1,5.59-5.59h37.07Z"/><polygon class="cls-1" points="203.71 46.94 260.35 46.94 260.35 93.08 203.71 93.08 203.71 86.09 200.9 86.09 200.9 95.9 263.16 95.9 263.16 44.13 200.9 44.13 200.9 67.92 203.71 67.92 203.71 46.94"/><path class="cls-1" d="M246,51.12a10.15,10.15,0,1,0,10.15,10.15A10.16,10.16,0,0,0,246,51.12Zm1.4,3,.43.11a7.32,7.32,0,0,1,5.24,5.24l.12.43h-5.79Zm5.67,9A7.33,7.33,0,0,1,246,68.6h0a7.32,7.32,0,0,1-7.33-7.31,7.32,7.32,0,0,1,5.5-7.1l.43-.11v8.59h8.59Z"/><rect class="cls-1" x="211.39" y="51.12" width="2.81" height="2.81"/><rect class="cls-1" x="218.38" y="51.12" width="13.3" height="2.81"/><rect class="cls-1" x="211.39" y="58.11" width="20.3" height="2.81"/><rect class="cls-1" x="228.87" y="86.09" width="2.81" height="2.81"/><rect class="cls-1" x="234.12" y="82.59" width="2.81" height="6.31"/><rect class="cls-1" x="239.36" y="79.1" width="2.81" height="9.81"/><rect class="cls-1" x="244.61" y="82.59" width="2.81" height="6.31"/><rect class="cls-1" x="249.86" y="75.6" width="2.81" height="13.3"/></svg>