<svg xmlns="http://www.w3.org/2000/svg" viewBox="166 44 97 105"><path d="M169.42 97.68h24V80.37h20.78v-6.51h-41.28s-3.51 2.76-3.5 5.24 0 18.58 0 18.58zM245.94 52.87v8.05h8.48s-.7 9.35-8.4 9.09-8.83-7.59-9.09-10.15 6.12-8.65 9.01-6.99zM236.93 147h17.49s1.2-11.82 0-13.19-3.37-4.63-7-4.63-10.5 1.54-10.49 5.83 0 11.99 0 11.99zM207.16 147h-17.49s0-16.45 4.18-16.79 11.56-2.23 13.31 2.91 0 13.88 0 13.88z" fill="#fdc62d"/><path d="M181.32 69.67a8.4 8.4 0 1 0-8.4-8.4 8.41 8.41 0 0 0 8.4 8.4zm0-14a5.59 5.59 0 1 1-5.59 5.59 5.6 5.6 0 0 1 5.59-5.58zM246 112.32a6.65 6.65 0 1 0 6.65 6.65 6.66 6.66 0 0 0-6.65-6.65zm0 10.49a3.84 3.84 0 1 1 3.84-3.84 3.84 3.84 0 0 1-3.84 3.84zM247.76 128.06h-3.49a8.41 8.41 0 0 0-8.4 8.4v11.9h20.3v-11.9a8.43 8.43 0 0 0-8.41-8.4zm5.59 17.48h-14.67v-9.08a5.6 5.6 0 0 1 5.59-5.59h3.49a5.59 5.59 0 0 1 5.59 5.59zM229.94 119a6.66 6.66 0 1 0-6.66 6.65 6.66 6.66 0 0 0 6.66-6.65zm-6.66 3.84a3.84 3.84 0 1 1 3.84-3.84 3.85 3.85 0 0 1-3.84 3.81zM225 128.06h-3.49a8.41 8.41 0 0 0-8.4 8.4v11.9h20.29v-11.9a8.41 8.41 0 0 0-8.4-8.4zm5.59 17.48H216v-9.08a5.59 5.59 0 0 1 5.59-5.59H225a5.6 5.6 0 0 1 5.59 5.59zM198.8 125.62a6.65 6.65 0 1 0-6.65-6.65 6.66 6.66 0 0 0 6.65 6.65zm0-10.49A3.84 3.84 0 1 1 195 119a3.84 3.84 0 0 1 3.8-3.87zM200.55 128.06h-3.49a8.41 8.41 0 0 0-8.4 8.4v11.9H209v-11.9a8.41 8.41 0 0 0-8.45-8.4zm5.59 17.48h-14.67v-9.08a5.59 5.59 0 0 1 5.59-5.59h3.49a5.6 5.6 0 0 1 5.59 5.59zM176.07 125.62a6.65 6.65 0 1 0-6.65-6.65 6.65 6.65 0 0 0 6.65 6.65zm0-10.49a3.84 3.84 0 1 1-3.84 3.84 3.84 3.84 0 0 1 3.84-3.84zM177.82 128.06h-3.5a8.42 8.42 0 0 0-8.4 8.4v11.9h20.3v-11.9a8.41 8.41 0 0 0-8.4-8.4zm5.59 17.48h-14.67v-9.08a5.59 5.59 0 0 1 5.58-5.59h3.5a5.6 5.6 0 0 1 5.59 5.59zM167.67 80.5v18.89H195V81.91h21V72.1h-39.93a8.44 8.44 0 0 0-8.4 8.4zm45.47-1.4h-21v17.48h-21.66V80.5a5.6 5.6 0 0 1 5.59-5.59h37.07z" fill="#fff"/><path fill="#fff" d="M203.71 46.94h56.64v46.14h-56.64v-6.99h-2.81v9.81h62.26V44.13H200.9v23.79h2.81V46.94z"/><path d="M246 51.12a10.15 10.15 0 1 0 10.15 10.15A10.16 10.16 0 0 0 246 51.12zm1.4 3l.43.11a7.32 7.32 0 0 1 5.24 5.24l.12.43h-5.79zm5.67 9A7.33 7.33 0 0 1 246 68.6a7.32 7.32 0 0 1-7.33-7.31 7.32 7.32 0 0 1 5.5-7.1l.43-.11v8.59h8.59zM211.39 51.12h2.81v2.81h-2.81zM218.38 51.12h13.3v2.81h-13.3zM211.39 58.11h20.3v2.81h-20.3zM228.87 86.09h2.81v2.81h-2.81zM234.12 82.59h2.81v6.31h-2.81zM239.36 79.1h2.81v9.81h-2.81zM244.61 82.59h2.81v6.31h-2.81zM249.86 75.6h2.81v13.3h-2.81z" fill="#fff"/></svg>
