<svg data-name="Benefits MKK" xmlns="http://www.w3.org/2000/svg" viewBox="0 0 433 236"><path d="M134.64 173.48h2.82l3.92 18h.06l4.17-18H149l3.77 18h.05l4.24-18h2.76l-5.5 20.79h-3.22l-3.95-18h-.05l-4.21 18h-3.22zM163.57 187.76a11.92 11.92 0 0 0 .21 2.48 3.94 3.94 0 0 0 .57 1.48 1.87 1.87 0 0 0 .92.72 3.71 3.71 0 0 0 1.24.19 2.36 2.36 0 0 0 1.06-.23 2.49 2.49 0 0 0 .78-.61 2.6 2.6 0 0 0 .49-.88 3.62 3.62 0 0 0 .2-1h2.59a4.42 4.42 0 0 1-1.39 3.57 5.61 5.61 0 0 1-3.67 1.13 9.27 9.27 0 0 1-2.16-.25 3.55 3.55 0 0 1-1.76-1 5.41 5.41 0 0 1-1.18-2.22 13.76 13.76 0 0 1-.43-3.85 26.18 26.18 0 0 1 .16-3 6.61 6.61 0 0 1 .72-2.48 4.08 4.08 0 0 1 1.65-1.67 6.15 6.15 0 0 1 3-.62 6.7 6.7 0 0 1 2.56.43 3.51 3.51 0 0 1 1.58 1.31 5.66 5.66 0 0 1 .81 2.21 18.82 18.82 0 0 1 .23 3.13v1.24zm5.68-1.78a11.84 11.84 0 0 0-.22-2.52 4 4 0 0 0-.59-1.44 1.68 1.68 0 0 0-.92-.65 5 5 0 0 0-1.18-.14 3.33 3.33 0 0 0-1.07.17 1.92 1.92 0 0 0-.86.69 4.36 4.36 0 0 0-.61 1.46 10.63 10.63 0 0 0-.23 2.43zM175.46 173.48h2.65V176h-2.65zm2.54 20.79h-2.36v-14.54H178zM182.31 179.73v-2.79l2.36-1.07v3.86h3.17v1.79h-3.17V191.13a1.45 1.45 0 0 0 .23.68 1.49 1.49 0 0 0 .65.5 3.23 3.23 0 0 0 1.25.2h.41l.66-.08v1.81c-.39 0-.77.09-1.17.15a9.17 9.17 0 0 1-1.16.08 3.79 3.79 0 0 1-2.48-.66 2.38 2.38 0 0 1-.78-1.93v-10.36h-2.39v-1.79zM192.36 187.76a12.76 12.76 0 0 0 .2 2.48 4.11 4.11 0 0 0 .58 1.48 1.83 1.83 0 0 0 .92.72 3.67 3.67 0 0 0 1.24.19 2.39 2.39 0 0 0 1.06-.23 2.49 2.49 0 0 0 .78-.61 2.78 2.78 0 0 0 .49-.88 4 4 0 0 0 .2-1h2.59a4.4 4.4 0 0 1-1.4 3.57 5.59 5.59 0 0 1-3.67 1.13 9.4 9.4 0 0 1-2.16-.25 3.52 3.52 0 0 1-1.75-1 5.41 5.41 0 0 1-1.18-2.22 13.76 13.76 0 0 1-.43-3.85 26.18 26.18 0 0 1 .16-3 6.8 6.8 0 0 1 .71-2.48 4.17 4.17 0 0 1 1.66-1.67 6.13 6.13 0 0 1 3-.62 6.76 6.76 0 0 1 2.57.43 3.51 3.51 0 0 1 1.58 1.31 6 6 0 0 1 .81 2.21 18.82 18.82 0 0 1 .23 3.13v1.24zM198 186a12 12 0 0 0-.21-2.52 4.16 4.16 0 0 0-.59-1.44 1.67 1.67 0 0 0-.93-.65 4.83 4.83 0 0 0-1.18-.14 3.27 3.27 0 0 0-1.06.17 1.94 1.94 0 0 0-.87.69 4.37 4.37 0 0 0-.6 1.46 10.63 10.63 0 0 0-.23 2.43zM206.9 181.92h.1a5.55 5.55 0 0 1 .79-1.33 3.09 3.09 0 0 1 .95-.75 3.71 3.71 0 0 1 1.21-.33c.45 0 1-.07 1.54-.07v2.45h-1.27a3.34 3.34 0 0 0-1.61.34 2.92 2.92 0 0 0-1 .89 3.51 3.51 0 0 0-.52 1.27 7.81 7.81 0 0 0-.14 1.44v8.58h-2.36v-14.68h2.36zM216.6 194.27h-2.36v-20.79h2.36v7.72h.09a4.27 4.27 0 0 1 1.38-1.31 3.55 3.55 0 0 1 1.81-.45 4.65 4.65 0 0 1 2.74.71 4.1 4.1 0 0 1 1.43 1.83 7.77 7.77 0 0 1 .55 2.51c.06.94.09 1.85.09 2.75a15.05 15.05 0 0 1-.4 3.83 5.89 5.89 0 0 1-1.07 2.22 3 3 0 0 1-1.51 1 6.32 6.32 0 0 1-1.71.25 3.54 3.54 0 0 1-1.95-.51 4.35 4.35 0 0 1-1.39-1.51h-.06zm0-7.86v1.91a8.76 8.76 0 0 0 .23 2 3.89 3.89 0 0 0 .78 1.62 2 2 0 0 0 1.64.66 2.44 2.44 0 0 0 1.71-.54 3.2 3.2 0 0 0 .88-1.32 5.91 5.91 0 0 0 .33-1.73v-1.77c0-1 0-1.83-.1-2.56a6.36 6.36 0 0 0-.4-1.84 2.32 2.32 0 0 0-.86-1.12 2.71 2.71 0 0 0-1.52-.38 2.09 2.09 0 0 0-1.52.52 3.11 3.11 0 0 0-.82 1.28 5.83 5.83 0 0 0-.33 1.64c0 .62-.02 1.15-.02 1.63zM228.23 173.48h2.65V176h-2.65zm2.5 20.79h-2.36v-14.54h2.36zM237.12 194.27h-2.36v-20.79h2.36zM248.9 173.48h2.36v20.79h-2.36v-1.73h-.06a4.45 4.45 0 0 1-1.39 1.51 3.54 3.54 0 0 1-1.95.51 6.26 6.26 0 0 1-1.71-.25 3 3 0 0 1-1.51-1 5.89 5.89 0 0 1-1.07-2.22 14.61 14.61 0 0 1-.4-3.83c0-.9 0-1.81.08-2.75a8 8 0 0 1 .55-2.51 4.19 4.19 0 0 1 1.44-1.83 4.63 4.63 0 0 1 2.74-.71 3.55 3.55 0 0 1 1.81.45 4.27 4.27 0 0 1 1.38 1.31h.09zm0 12.93c0-.48 0-1-.06-1.6a6.2 6.2 0 0 0-.33-1.64 3.21 3.21 0 0 0-.82-1.28 2.12 2.12 0 0 0-1.53-.52 2.74 2.74 0 0 0-1.52.38 2.24 2.24 0 0 0-.88 1.12 6.38 6.38 0 0 0-.39 1.84c-.06.73-.09 1.58-.09 2.56 0 .56 0 1.15.05 1.77a5.91 5.91 0 0 0 .33 1.73 3.11 3.11 0 0 0 .88 1.32 2.44 2.44 0 0 0 1.71.54 2.07 2.07 0 0 0 1.53-.56 3.42 3.42 0 0 0 .79-1.46 8.54 8.54 0 0 0 .28-2c.03-.74.05-1.47.05-2.2zM263.38 179.73h2.36v13.03c0 .51.06 1 .1 1.51h-2.5v-1.76h-.09a3.87 3.87 0 0 1-1.55 1.53 4.56 4.56 0 0 1-2.13.52 4.14 4.14 0 0 1-2.91-.94 3.65 3.65 0 0 1-1-2.81v-11.08h2.36v10.1a3.43 3.43 0 0 0 .61 2.13 2.17 2.17 0 0 0 1.87.81 2.83 2.83 0 0 0 1-.19 2.46 2.46 0 0 0 .92-.59 3.35 3.35 0 0 0 .68-1 4 4 0 0 0 .27-1.55zM277.89 194.27v-10.08a4.79 4.79 0 0 0-.12-1.09 2.28 2.28 0 0 0-.4-.91 1.85 1.85 0 0 0-.79-.6 3.11 3.11 0 0 0-1.25-.22 2.75 2.75 0 0 0-1.56.39 2.63 2.63 0 0 0-.89 1 4.28 4.28 0 0 0-.42 1.38 11 11 0 0 0-.1 1.51v8.61H270v-11.51-1.51c0-.51-.07-1-.1-1.51h2.5v1.87h.12a4 4 0 0 1 1.58-1.7 5.08 5.08 0 0 1 2.3-.46 4.86 4.86 0 0 1 1.92.33 2.78 2.78 0 0 1 1.19 1 3.86 3.86 0 0 1 .6 1.51 9.7 9.7 0 0 1 .18 1.94v10.08zM292.08 179.73h2.36v16a4.54 4.54 0 0 1-.39 2A3.06 3.06 0 0 1 293 199a4.64 4.64 0 0 1-1.69.61 12.09 12.09 0 0 1-2.18.18 6.61 6.61 0 0 1-1.75-.23 4.26 4.26 0 0 1-1.43-.71 3.2 3.2 0 0 1-1-1.21 3.34 3.34 0 0 1-.26-1.74h2.65a2.07 2.07 0 0 0 .63 1.55 2.26 2.26 0 0 0 1.59.55 2.45 2.45 0 0 0 1.88-.69 2.54 2.54 0 0 0 .65-1.81v-3H292a3.07 3.07 0 0 1-1.35 1.34 3.83 3.83 0 0 1-1.84.48 4.22 4.22 0 0 1-2.39-.61A4 4 0 0 1 285 192a7.69 7.69 0 0 1-.71-2.44 24 24 0 0 1-.18-3 11.44 11.44 0 0 1 .54-3.93 5.89 5.89 0 0 1 1.29-2.13 3.25 3.25 0 0 1 1.51-.88 6.24 6.24 0 0 1 1.21-.17 3.94 3.94 0 0 1 2 .51 3.27 3.27 0 0 1 1.37 1.57h.06zm.06 7.2v-1.77a7.23 7.23 0 0 0-.27-1.8A3.19 3.19 0 0 0 291 182a2.34 2.34 0 0 0-1.69-.56 2.19 2.19 0 0 0-1.57.53 3.09 3.09 0 0 0-.82 1.33 6.5 6.5 0 0 0-.32 1.68c0 .6-.06 1.13-.06 1.61a17.26 17.26 0 0 0 .19 2.87 5.14 5.14 0 0 0 .56 1.75 2.14 2.14 0 0 0 .89.9 2.8 2.8 0 0 0 1.18.24 2.22 2.22 0 0 0 1.63-.56 3.26 3.26 0 0 0 .82-1.38 6.68 6.68 0 0 0 .29-1.76q.04-.97.04-1.72z" fill="#fff"/><path d="M169.42 97.68h24V80.37h20.78v-6.51h-41.28s-3.51 2.76-3.5 5.24 0 18.58 0 18.58zM245.94 52.87v8.05h8.48s-.7 9.35-8.4 9.09-8.83-7.59-9.09-10.15 6.12-8.65 9.01-6.99zM236.93 147h17.49s1.2-11.82 0-13.19-3.37-4.63-7-4.63-10.5 1.54-10.49 5.83 0 11.99 0 11.99zM207.16 147h-17.49s0-16.45 4.18-16.79 11.56-2.23 13.31 2.91 0 13.88 0 13.88z" fill="#fdc62d"/><path d="M181.32 69.67a8.4 8.4 0 1 0-8.4-8.4 8.41 8.41 0 0 0 8.4 8.4zm0-14a5.59 5.59 0 1 1-5.59 5.59 5.6 5.6 0 0 1 5.59-5.58zM246 112.32a6.65 6.65 0 1 0 6.65 6.65 6.66 6.66 0 0 0-6.65-6.65zm0 10.49a3.84 3.84 0 1 1 3.84-3.84 3.84 3.84 0 0 1-3.84 3.84zM247.76 128.06h-3.49a8.41 8.41 0 0 0-8.4 8.4v11.9h20.3v-11.9a8.43 8.43 0 0 0-8.41-8.4zm5.59 17.48h-14.67v-9.08a5.6 5.6 0 0 1 5.59-5.59h3.49a5.59 5.59 0 0 1 5.59 5.59zM229.94 119a6.66 6.66 0 1 0-6.66 6.65 6.66 6.66 0 0 0 6.66-6.65zm-6.66 3.84a3.84 3.84 0 1 1 3.84-3.84 3.85 3.85 0 0 1-3.84 3.81zM225 128.06h-3.49a8.41 8.41 0 0 0-8.4 8.4v11.9h20.29v-11.9a8.41 8.41 0 0 0-8.4-8.4zm5.59 17.48H216v-9.08a5.59 5.59 0 0 1 5.59-5.59H225a5.6 5.6 0 0 1 5.59 5.59zM198.8 125.62a6.65 6.65 0 1 0-6.65-6.65 6.66 6.66 0 0 0 6.65 6.65zm0-10.49A3.84 3.84 0 1 1 195 119a3.84 3.84 0 0 1 3.8-3.87zM200.55 128.06h-3.49a8.41 8.41 0 0 0-8.4 8.4v11.9H209v-11.9a8.41 8.41 0 0 0-8.45-8.4zm5.59 17.48h-14.67v-9.08a5.59 5.59 0 0 1 5.59-5.59h3.49a5.6 5.6 0 0 1 5.59 5.59zM176.07 125.62a6.65 6.65 0 1 0-6.65-6.65 6.65 6.65 0 0 0 6.65 6.65zm0-10.49a3.84 3.84 0 1 1-3.84 3.84 3.84 3.84 0 0 1 3.84-3.84zM177.82 128.06h-3.5a8.42 8.42 0 0 0-8.4 8.4v11.9h20.3v-11.9a8.41 8.41 0 0 0-8.4-8.4zm5.59 17.48h-14.67v-9.08a5.59 5.59 0 0 1 5.58-5.59h3.5a5.6 5.6 0 0 1 5.59 5.59zM167.67 80.5v18.89H195V81.91h21V72.1h-39.93a8.44 8.44 0 0 0-8.4 8.4zm45.47-1.4h-21v17.48h-21.66V80.5a5.6 5.6 0 0 1 5.59-5.59h37.07z" fill="#fff"/><path fill="#fff" d="M203.71 46.94h56.64v46.14h-56.64v-6.99h-2.81v9.81h62.26V44.13H200.9v23.79h2.81V46.94z"/><path d="M246 51.12a10.15 10.15 0 1 0 10.15 10.15A10.16 10.16 0 0 0 246 51.12zm1.4 3l.43.11a7.32 7.32 0 0 1 5.24 5.24l.12.43h-5.79zm5.67 9A7.33 7.33 0 0 1 246 68.6a7.32 7.32 0 0 1-7.33-7.31 7.32 7.32 0 0 1 5.5-7.1l.43-.11v8.59h8.59zM211.39 51.12h2.81v2.81h-2.81zM218.38 51.12h13.3v2.81h-13.3zM211.39 58.11h20.3v2.81h-20.3zM228.87 86.09h2.81v2.81h-2.81zM234.12 82.59h2.81v6.31h-2.81zM239.36 79.1h2.81v9.81h-2.81zM244.61 82.59h2.81v6.31h-2.81zM249.86 75.6h2.81v13.3h-2.81z" fill="#fff"/></svg>