<svg xmlns="http://www.w3.org/2000/svg" viewBox="0 0 160 160"><path d="M32.92 79.17h24v-17.3H77.7v-6.51H36.42s-3.51 2.75-3.5 5.23 0 18.58 0 18.58zm76.52-44.81v8.06h8.48s-.7 9.35-8.4 9.08-8.83-7.59-9.09-10.14 6.12-8.66 9.01-7zm-9.01 94.16h17.49s1.2-11.82 0-13.19-3.37-4.63-7-4.63-10.5 1.55-10.49 5.83 0 11.99 0 11.99zm-29.77 0H53.17s0-16.45 4.18-16.79 11.56-2.23 13.31 2.91 0 13.88 0 13.88z" fill="#fdc62d"/><path d="M44.82 51.16a8.4 8.4 0 1 0-8.4-8.4 8.41 8.41 0 0 0 8.4 8.4zm0-14a5.59 5.59 0 1 1-5.59 5.59 5.6 5.6 0 0 1 5.59-5.58zm64.7 56.65a6.66 6.66 0 1 0 6.65 6.65 6.67 6.67 0 0 0-6.65-6.65zm0 10.49a3.84 3.84 0 1 1 3.84-3.84 3.84 3.84 0 0 1-3.84 3.84zm1.74 5.25h-3.49a8.42 8.42 0 0 0-8.4 8.4v11.9h20.3V118a8.43 8.43 0 0 0-8.41-8.45zm5.59 17.45h-14.67v-9a5.6 5.6 0 0 1 5.59-5.59h3.49a5.59 5.59 0 0 1 5.59 5.59zm-23.41-26.54a6.66 6.66 0 1 0-6.66 6.66 6.67 6.67 0 0 0 6.66-6.66zm-6.66 3.84a3.84 3.84 0 1 1 3.84-3.84 3.85 3.85 0 0 1-3.84 3.84zm1.75 5.25H85a8.42 8.42 0 0 0-8.4 8.4v11.9h20.33V118a8.42 8.42 0 0 0-8.4-8.45zM94.12 127H79.45v-9a5.59 5.59 0 0 1 5.55-5.64h3.49a5.6 5.6 0 0 1 5.63 5.64zM62.3 107.12a6.66 6.66 0 1 0-6.65-6.66 6.67 6.67 0 0 0 6.65 6.66zm0-10.49a3.84 3.84 0 1 1-3.84 3.83 3.84 3.84 0 0 1 3.84-3.83zm1.75 12.92h-3.49a8.42 8.42 0 0 0-8.4 8.4v11.9h20.29V118a8.42 8.42 0 0 0-8.4-8.45zM69.64 127H55v-9a5.59 5.59 0 0 1 5.59-5.59h3.49a5.6 5.6 0 0 1 5.56 5.59zm-30.07-19.88a6.66 6.66 0 1 0-6.65-6.66 6.66 6.66 0 0 0 6.65 6.66zm0-10.49a3.84 3.84 0 1 1-3.84 3.83 3.84 3.84 0 0 1 3.84-3.83zm1.75 12.92h-3.5a8.43 8.43 0 0 0-8.4 8.4v11.9h20.3V118a8.42 8.42 0 0 0-8.4-8.45zM46.91 127H32.24v-9a5.59 5.59 0 0 1 5.58-5.59h3.5a5.6 5.6 0 0 1 5.59 5.59zM31.17 62v18.89h27.29V63.4h21v-9.81H39.57a8.44 8.44 0 0 0-8.4 8.41zm45.47-1.41h-21v17.49H34V62a5.59 5.59 0 0 1 5.59-5.59h37.05z" fill="#fff"/><path fill="#fff" d="M67.21 28.43h56.64v46.15H67.21v-7h-2.82v9.81h62.27V25.62H64.39v23.79h2.82V28.43z"/><path d="M109.52 32.61a10.15 10.15 0 1 0 10.15 10.15 10.16 10.16 0 0 0-10.15-10.15zm1.4 3l.43.11a7.31 7.31 0 0 1 5.24 5.25l.12.43h-5.79zm5.67 9a7.34 7.34 0 0 1-7.07 5.5 7.34 7.34 0 0 1-7.33-7.32 7.34 7.34 0 0 1 5.5-7.1l.43-.11v8.6h8.59zm-41.7-12h2.81v2.81h-2.81zm6.99 0h13.3v2.81h-13.3zm-6.99 7h20.3v2.81h-20.3zm17.48 27.97h2.81v2.81h-2.81zm5.25-3.49h2.81v6.31h-2.81zm5.24-3.5h2.81v9.81h-2.81zm5.25 3.5h2.81v6.31h-2.81zm5.25-7h2.81v13.3h-2.81z" fill="#fff"/></svg>