<svg xmlns="http://www.w3.org/2000/svg" viewBox="0 0 160 160"><path d="M78.7 54.33a10.17 10.17 0 1 1 10.16-10.18A10.19 10.19 0 0 1 78.7 54.33zm0-17.16a7 7 0 1 0 7 7 7 7 0 0 0-7-7z" fill="#fff"/><path fill="#fdc62d" d="M86.33 59.98l-7.63 7.63-7.64-7.63H46.98v8.63h20.74v22.46h21.95V68.61h20.75v-8.63H86.33z"/><path fill="#fff" d="M77.11 70.79h3.18v3.18h-3.18zm0 6.37h3.18v3.18h-3.18zm0 17.88h3.18v26.44h-3.18z"/><path d="M91.27 121.48h-3.19V67h28.42a2.73 2.73 0 0 0 0-5.46H40.89a2.73 2.73 0 0 0 0 5.46h28.42v54.46h-3.18V70.2H40.89a5.91 5.91 0 0 1 0-11.82h75.61a5.91 5.91 0 0 1 0 11.82H91.27v51.28z" fill="#fff"/><path fill="#fff" d="M120.3 89.97l-4.71-12.14-4.71 12.14-2.96-1.15 7.67-19.78 7.68 19.78-2.97 1.15z"/><path d="M105.19 88.53a10.4 10.4 0 1 0 20.8 0z" fill="#fdc62d"/><path fill="#fff" d="M37.1 89.97l-2.97-1.15 7.68-19.78 7.67 19.78-2.96 1.15-4.71-12.14-4.71 12.14z"/><path d="M31.41 88.53a10.4 10.4 0 0 0 20.8 0z" fill="#fdc62d"/></svg>