<svg xmlns="http://www.w3.org/2000/svg" viewBox="0 0 433 236"><path d="M215.2 86.41a10.17 10.17 0 1 1 10.16-10.17 10.18 10.18 0 0 1-10.16 10.17zm0-17.15a7 7 0 1 0 7 7 7 7 0 0 0-7-7z" fill="#fff"/><path fill="#fdc62d" d="M222.84 92.06l-7.64 7.64-7.64-7.64h-24.08v8.64h20.74v22.46h21.95V100.7h20.75v-8.64h-24.08z"/><path fill="#fff" d="M213.61 102.88h3.18v3.18h-3.18zM213.61 109.24h3.18v3.18h-3.18zM213.61 127.13h3.18v26.44h-3.18z"/><path d="M227.77 153.57h-3.19V99.11H253a2.73 2.73 0 0 0 0-5.46h-75.61a2.73 2.73 0 0 0 0 5.46h28.42v54.46h-3.18v-51.28h-25.24a5.91 5.91 0 0 1 0-11.82H253a5.91 5.91 0 1 1 0 11.82h-25.23v51.28z" fill="#fff"/><path fill="#fff" d="M256.8 122.06l-4.71-12.14-4.71 12.14-2.97-1.15 7.68-19.78 7.67 19.78-2.96 1.15z"/><path d="M241.69 120.61a10.4 10.4 0 0 0 20.8 0z" fill="#fdc62d"/><path fill="#fff" d="M173.6 122.06l-2.97-1.15 7.68-19.78 7.67 19.78-2.96 1.15-4.71-12.14-4.71 12.14z"/><path d="M167.91 120.61a10.4 10.4 0 0 0 20.8 0z" fill="#fdc62d"/></svg>