<svg data-name="Benefits MKK" xmlns="http://www.w3.org/2000/svg" viewBox="0 0 433 236"><path d="M107.12 178.69h2.82l3.91 18h.06l4.17-18h3.43l3.77 18h.06l4.23-18h2.76l-5.49 20.79h-3.23l-3.94-18h-.06l-4.2 18h-3.23zm31.75 21.08a9.27 9.27 0 0 1-2.16-.25 3.55 3.55 0 0 1-1.76-1 5.53 5.53 0 0 1-1.18-2.22 14.14 14.14 0 0 1-.43-3.85 26.18 26.18 0 0 1 .16-3 6.8 6.8 0 0 1 .72-2.48 4.11 4.11 0 0 1 1.66-1.67 7.52 7.52 0 0 1 6 0 4.17 4.17 0 0 1 1.66 1.67 7 7 0 0 1 .72 2.48 28.65 28.65 0 0 1 .16 3 13.7 13.7 0 0 1-.44 3.85 5.3 5.3 0 0 1-1.18 2.22 3.48 3.48 0 0 1-1.75 1 9.27 9.27 0 0 1-2.18.25zm0-1.93a3 3 0 0 0 1.51-.35 2.37 2.37 0 0 0 .94-1.09 6.54 6.54 0 0 0 .47-2 28.36 28.36 0 0 0 .13-3 10.7 10.7 0 0 0-.22-2.43 3.87 3.87 0 0 0-.61-1.47 2.1 2.1 0 0 0-1-.74 4 4 0 0 0-2.5 0 2.1 2.1 0 0 0-1 .74 3.87 3.87 0 0 0-.59 1.5 11.4 11.4 0 0 0-.21 2.43 28.36 28.36 0 0 0 .13 3 6.26 6.26 0 0 0 .47 2 2.37 2.37 0 0 0 .94 1.09 3 3 0 0 0 1.54.32zm11.72-10.71a5.55 5.55 0 0 1 .8-1.33 2.88 2.88 0 0 1 .94-.74 3.55 3.55 0 0 1 1.21-.34c.45 0 1-.07 1.54-.07v2.45h-.31l-.32-.05h-.63a3.31 3.31 0 0 0-1.61.34 2.83 2.83 0 0 0-1 .89 3.51 3.51 0 0 0-.52 1.27 7 7 0 0 0-.14 1.44v8.58h-2.36v-14.63h2.36zm9.49 12.35h-2.35v-20.79h2.35v12.53h.06l4.44-6.28h2.88l-4.84 6.25 5.7 8.29h-3l-5.18-8.15h-.06zm9.92-8.95h6.34v2.21H170zm10.35 8.95v-20.79H183v18.49h7.63v2.3zm12.32-20.79h2.65v2.54h-2.65zm2.51 20.79h-2.36v-14.54h2.36zm4.52-14.54v-2.82a3.9 3.9 0 0 1 .36-1.79 2.82 2.82 0 0 1 .93-1.08 3.38 3.38 0 0 1 1.34-.51 8.81 8.81 0 0 1 1.54-.13h.62a4.61 4.61 0 0 1 .5.07v1.7a5 5 0 0 0-1.52.09 1.87 1.87 0 0 0-.9.45 1.43 1.43 0 0 0-.41.7 3.31 3.31 0 0 0-.1.83v2.48H205v1.79h-2.93v12.75h-2.37v-12.74h-2.25v-1.79zm9.87 8.06a12.76 12.76 0 0 0 .2 2.48 4.11 4.11 0 0 0 .58 1.48 1.78 1.78 0 0 0 .92.72 3.67 3.67 0 0 0 1.24.19 2.39 2.39 0 0 0 1.06-.23 2.49 2.49 0 0 0 .78-.61 2.78 2.78 0 0 0 .49-.88 4 4 0 0 0 .2-1.05h2.59a4.4 4.4 0 0 1-1.4 3.57 5.59 5.59 0 0 1-3.67 1.13 9.4 9.4 0 0 1-2.16-.25 3.52 3.52 0 0 1-1.75-1 5.41 5.41 0 0 1-1.18-2.22 13.76 13.76 0 0 1-.43-3.85 28.74 28.74 0 0 1 .15-3 7 7 0 0 1 .72-2.48 4.17 4.17 0 0 1 1.66-1.67 6.13 6.13 0 0 1 3-.62 6.76 6.76 0 0 1 2.57.43 3.57 3.57 0 0 1 1.58 1.31 6 6 0 0 1 .81 2.21 18.9 18.9 0 0 1 .23 3.13V193zm5.67-1.78a12 12 0 0 0-.21-2.52 4.25 4.25 0 0 0-.59-1.44 1.67 1.67 0 0 0-.93-.65 4.83 4.83 0 0 0-1.18-.14 3.27 3.27 0 0 0-1.06.17 1.89 1.89 0 0 0-.87.69 4.37 4.37 0 0 0-.6 1.46 10.63 10.63 0 0 0-.23 2.43zm5.96-.69h6.33v2.21h-6.33zm10.57 8.95v-20.79h6.76a8.09 8.09 0 0 1 1.83.18 4.77 4.77 0 0 1 1.28.46 3.35 3.35 0 0 1 .88.67 8.35 8.35 0 0 1 .65.82 8.5 8.5 0 0 1 .43.85 6.58 6.58 0 0 1 .26.79c0 .26.09.48.11.68s0 .35 0 .45a6 6 0 0 1-.78 3.21 4.2 4.2 0 0 1-2.79 1.71v.14a4.63 4.63 0 0 1 3.25 1.54 5.44 5.44 0 0 1 1 3.44 6.44 6.44 0 0 1-.65 3.16 4.91 4.91 0 0 1-1.59 1.77 5.28 5.28 0 0 1-2 .76 13.14 13.14 0 0 1-2 .16zm2.64-12h3.86a3 3 0 0 0 2.32-.9 3.55 3.55 0 0 0 .76-2.41 3.33 3.33 0 0 0-.76-2.21 3 3 0 0 0-2.43-.92h-3.75zm0 9.74h3.75a4.09 4.09 0 0 0 1.78-.35 3.79 3.79 0 0 0 1.18-.86 3.15 3.15 0 0 0 .66-1.14 3.7 3.7 0 0 0 .21-1.2 4.73 4.73 0 0 0-.37-2 2.75 2.75 0 0 0-1-1.18 4 4 0 0 0-1.51-.56 12.39 12.39 0 0 0-1.88-.14h-2.83zm21.91.16h-.06a4 4 0 0 1-1.41 1.83 4.06 4.06 0 0 1-2.24.56 4.51 4.51 0 0 1-1.92-.36 3.08 3.08 0 0 1-1.22-1 3.91 3.91 0 0 1-.65-1.51 9.46 9.46 0 0 1-.18-1.91 4.14 4.14 0 0 1 .71-2.58 4.23 4.23 0 0 1 1.85-1.41 8.34 8.34 0 0 1 2.47-.51c.9-.06 1.77-.08 2.59-.06v-1.44a3.58 3.58 0 0 0-.26-1.3 2 2 0 0 0-.73-.93 2.48 2.48 0 0 0-1.45-.36 2.18 2.18 0 0 0-1.8.72 2.45 2.45 0 0 0-.48 1.87H249a4.25 4.25 0 0 1 1.34-3.41 5.72 5.72 0 0 1 3.58-1 6.59 6.59 0 0 1 2.32.35 3.67 3.67 0 0 1 1.44.93 3.54 3.54 0 0 1 .75 1.39 6.57 6.57 0 0 1 .21 1.71v7c0 .58 0 1.16.08 1.75s.12 1.15.21 1.71h-2.59zm-.06-5.13h-1.77a6.12 6.12 0 0 0-1.71.29 2.83 2.83 0 0 0-1.28.85 2.58 2.58 0 0 0-.51 1.74 3.29 3.29 0 0 0 .55 1.87 1.94 1.94 0 0 0 1.73.81 3 3 0 0 0 1.11-.22 2.33 2.33 0 0 0 1-.82 4.75 4.75 0 0 0 .7-1.7 10.54 10.54 0 0 0 .18-2.82zm9.27 7.23h-2.36v-20.79h2.36zm11.58-2.1h-.06a3.52 3.52 0 0 1-3.66 2.39 4.46 4.46 0 0 1-1.91-.36 3.11 3.11 0 0 1-1.23-1 3.9 3.9 0 0 1-.64-1.51 8.77 8.77 0 0 1-.19-1.91 4.14 4.14 0 0 1 .72-2.58A4.2 4.2 0 0 1 272 191a8.34 8.34 0 0 1 2.48-.51c.9-.06 1.76-.08 2.59-.06v-1.44a4.06 4.06 0 0 0-.26-1.3 2.09 2.09 0 0 0-.73-.93 2.52 2.52 0 0 0-1.46-.36 2.2 2.2 0 0 0-1.8.72 2.44 2.44 0 0 0-.47 1.87h-2.57a4.29 4.29 0 0 1 1.34-3.41 5.75 5.75 0 0 1 3.59-1 6.53 6.53 0 0 1 2.29.42 3.6 3.6 0 0 1 1.44.93 3.3 3.3 0 0 1 .75 1.39 6.16 6.16 0 0 1 .22 1.71v7c0 .58 0 1.16.07 1.75s.12 1.15.22 1.71h-2.59zm-.06-5.13h-1.77a6 6 0 0 0-1.71.29 2.87 2.87 0 0 0-1.29.85 2.64 2.64 0 0 0-.5 1.74 3.22 3.22 0 0 0 .55 1.87 1.92 1.92 0 0 0 1.72.81 2.93 2.93 0 0 0 1.11-.22 2.28 2.28 0 0 0 1-.82 4.58 4.58 0 0 0 .7-1.7 10.1 10.1 0 0 0 .19-2.82zm14.85 7.23V189.4a5.44 5.44 0 0 0-.11-1.09 2.29 2.29 0 0 0-.41-.91 1.79 1.79 0 0 0-.79-.6 3 3 0 0 0-1.25-.22 2.51 2.51 0 0 0-2.45 1.4 4 4 0 0 0-.41 1.38 11.07 11.07 0 0 0-.11 1.51v8.61H284v-12.99c0-.51-.06-1-.1-1.51h2.5v1.87h.12a4.11 4.11 0 0 1 1.58-1.7 5.16 5.16 0 0 1 2.31-.46 4.85 4.85 0 0 1 1.91.33 2.83 2.83 0 0 1 1.2 1 4 4 0 0 1 .6 1.51 9.73 9.73 0 0 1 .17 1.94v10.08zm14.1-9.88a4.62 4.62 0 0 0-.16-1.48 2.71 2.71 0 0 0-.49-.93 1.65 1.65 0 0 0-.66-.48 2 2 0 0 0-.71-.13 3.77 3.77 0 0 0-1.25.2 2.12 2.12 0 0 0-1 .74 3.72 3.72 0 0 0-.62 1.47 10.7 10.7 0 0 0-.22 2.43c0 1.19.05 2.19.13 3a6.52 6.52 0 0 0 .48 2 2.35 2.35 0 0 0 .93 1.09 3 3 0 0 0 1.51.35 2.14 2.14 0 0 0 .58-.13 1.89 1.89 0 0 0 .72-.49 3 3 0 0 0 .59-1 4.14 4.14 0 0 0 .21-1.6h2.48a5.39 5.39 0 0 1-.46 2.52 4.65 4.65 0 0 1-1.19 1.57 4.49 4.49 0 0 1-1.52.81 5.28 5.28 0 0 1-1.41.23 9.4 9.4 0 0 1-2.16-.25 3.52 3.52 0 0 1-1.75-1 5.41 5.41 0 0 1-1.18-2.22 13.76 13.76 0 0 1-.43-3.85 28.74 28.74 0 0 1 .15-3 7 7 0 0 1 .72-2.48 4.17 4.17 0 0 1 1.66-1.67 6.13 6.13 0 0 1 3-.62 4.46 4.46 0 0 1 3.39 1.26 4.84 4.84 0 0 1 1.08 3.69zm9.11 3.4a12 12 0 0 0 .2 2.48 3.94 3.94 0 0 0 .57 1.48 1.82 1.82 0 0 0 .92.72 3.71 3.71 0 0 0 1.24.19 2.44 2.44 0 0 0 1.07-.23 2.74 2.74 0 0 0 .78-.61 2.58 2.58 0 0 0 .48-.88 3.63 3.63 0 0 0 .21-1.05h2.59a4.43 4.43 0 0 1-1.4 3.57 5.61 5.61 0 0 1-3.67 1.13 9.27 9.27 0 0 1-2.16-.25 3.55 3.55 0 0 1-1.76-1 5.41 5.41 0 0 1-1.18-2.22 14.14 14.14 0 0 1-.43-3.85 26.18 26.18 0 0 1 .16-3 7 7 0 0 1 .72-2.48 4 4 0 0 1 1.66-1.67 6.08 6.08 0 0 1 3-.62 6.66 6.66 0 0 1 2.56.43 3.51 3.51 0 0 1 1.58 1.31 5.66 5.66 0 0 1 .81 2.21 17.88 17.88 0 0 1 .23 3.13V193zm5.67-1.78a11.84 11.84 0 0 0-.22-2.52 3.88 3.88 0 0 0-.59-1.44 1.68 1.68 0 0 0-.92-.65 5 5 0 0 0-1.18-.14 3.33 3.33 0 0 0-1.07.17 1.92 1.92 0 0 0-.86.69 4.17 4.17 0 0 0-.6 1.46 10.09 10.09 0 0 0-.23 2.43zM215.2 86.41a10.17 10.17 0 1 1 10.16-10.17 10.18 10.18 0 0 1-10.16 10.17zm0-17.15a7 7 0 1 0 7 7 7 7 0 0 0-7-7z" fill="#fff"/><path fill="#fdc62d" d="M222.84 92.06l-7.64 7.64-7.64-7.64h-24.08v8.64h20.74v22.46h21.95V100.7h20.75v-8.64h-24.08z"/><path fill="#fff" d="M213.61 102.88h3.18v3.18h-3.18zm0 6.36h3.18v3.18h-3.18zm0 17.89h3.18v26.44h-3.18z"/><path d="M227.77 153.57h-3.19V99.11H253a2.73 2.73 0 0 0 0-5.46h-75.61a2.73 2.73 0 0 0 0 5.46h28.42v54.46h-3.18v-51.28h-25.24a5.91 5.91 0 0 1 0-11.82H253a5.91 5.91 0 1 1 0 11.82h-25.23v51.28z" fill="#fff"/><path fill="#fff" d="M256.8 122.06l-4.71-12.14-4.71 12.14-2.97-1.15 7.68-19.78 7.67 19.78-2.96 1.15z"/><path d="M241.69 120.61a10.4 10.4 0 0 0 20.8 0z" fill="#fdc62d"/><path fill="#fff" d="M173.6 122.06l-2.97-1.15 7.68-19.78 7.67 19.78-2.96 1.15-4.71-12.14-4.71 12.14z"/><path d="M167.91 120.61a10.4 10.4 0 0 0 20.8 0z" fill="#fdc62d"/></svg>